<svg xmlns="http://www.w3.org/2000/svg" width="48" height="48" viewBox="-3 -3 54 54">
    <rect width="54" height="54" x="-3" y="-3" fill="#fff" stroke-width="0" rx="38.4" />
    <path
        d="M27.96 2.078a8.81 8.81 0 0 0-1.042.18c-.238.058-.309.09-.457.195-.098.063-.211.137-.254.16-.047.02-.137.094-.207.157l-.121.117-.418-.032a15.32 15.32 0 0 0-2.164 0c-.852.079-1.203.118-1.332.16l-.113.036-.165-.102c-.44-.27-1.328-.601-1.738-.656-.086-.008-.23-.035-.32-.05-.383-.09-1.192-.063-1.652.05-.348.09-.93.266-1.137.344a4.7 4.7 0 0 0-.809.43 2.362 2.362 0 0 1-.222.152c-.176.105-.918.851-1.082 1.082-.063.09-.16.226-.223.304-.137.18-.3.485-.508.957-.266.594-.36.926-.437 1.512-.036.29-.067.403-.121.418-.012.004-.063-.12-.11-.277a4.334 4.334 0 0 0-.281-.664c-.184-.367-.195-.383-.438-.621a6.28 6.28 0 0 0-.476-.422c-.301-.227-.797-.52-1.024-.606a4.031 4.031 0 0 0-1.125-.23c-.379-.016-.84.023-1.011.082-.075.027-.227.07-.34.101a1.97 1.97 0 0 0-.442.172 3.263 3.263 0 0 1-.39.172 1.787 1.787 0 0 0-.301.149c-.082.05-.273.164-.426.246-.152.078-.34.191-.422.246a5.899 5.899 0 0 1-.324.2c-.441.241-1 .589-1.133.714-.054.047-.199.16-.32.254-.332.258-.668.558-1.063.949-.476.477-.726.754-.84.941-.05.086-.132.211-.175.274-.102.137-.149.258-.246.629-.082.332-.082.488.008.84.074.308.562 1.242.761 1.453.094.101.438.625.594.902.043.078.125.203.18.281.05.078.125.192.16.258.039.063.113.172.168.238.129.153.496.707.61.918.046.086.105.188.132.223l.043.066-.371.743c-.73 1.453-1.2 2.707-1.574 4.214-1.125 4.485-.692 9.262 1.226 13.555a21.428 21.428 0 0 0 5.93 7.79 22.26 22.26 0 0 0 3.3 2.241c.294.16.423.22.516.23.086.013.184.056.344.153.121.07.32.176.442.227.117.054.312.156.433.226.223.13.328.184 1.024.516.968.457 1.445.625 2.418.848.39.093.984.23 1.312.308 1.02.239 1.5.309 2.48.364.852.046 1.497.042 2.11-.012.277-.028.668-.047.871-.047.797 0 1.5-.098 3.02-.422.582-.125 1.14-.277 1.53-.426.208-.074.384-.136.395-.136.012 0 .215-.079.45-.18.43-.18.714-.297.953-.387.07-.027.207-.097.308-.152.098-.055.274-.14.387-.188.113-.047.266-.113.336-.152.07-.035.183-.086.246-.11.066-.023.215-.101.332-.171l.48-.274c.176-.105.254-.16.247-.183-.012-.02.007-.04.046-.055.145-.055 1.22-.805 1.836-1.285a24.258 24.258 0 0 0 3.657-3.531 22.26 22.26 0 0 0 4.71-9.809c.407-2.023.528-4.215.337-6.281-.32-3.555-1.5-7.028-3.422-10.106a4.26 4.26 0 0 1-.172-.293c.004-.011.082-.074.183-.144.098-.067.235-.16.297-.207.461-.328.801-.555.95-.649.898-.53 1.007-.605 1.851-1.23.148-.113.313-.23.363-.266.203-.129.485-.543.637-.93l.11-.273-.008-.844-.098-.195a4.438 4.438 0 0 0-.461-.715 8.275 8.275 0 0 0-.367-.312 2.763 2.763 0 0 0-.59-.387c-.914-.438-1.969-.602-2.566-.395-.211.075-.61.266-.715.348-.117.094-.14.063-.196-.289-.054-.355-.136-.547-.394-.934-.13-.195-.184-.253-.324-.351-.614-.43-.883-.54-1.532-.633-.363-.055-.605-.02-1.066.145-.402.144-.531.218-.7.402-.23.25-.327.473-.698 1.617-.083.25-.153.461-.153.465-.004.008-.097-.031-.215-.086-.14-.066-.234-.098-.304-.098a.385.385 0 0 1-.102-.007l-.016-.368c-.039-.687-.175-1.05-.652-1.691-.437-.59-.707-.836-1.148-1.043a5.27 5.27 0 0 1-.41-.21 2.711 2.711 0 0 0-.387-.173l-.41-.148a2.243 2.243 0 0 0-.317-.09 5.41 5.41 0 0 1-.52-.117 7.773 7.773 0 0 0-1.363-.207 9.82 9.82 0 0 1-.585-.059c-.215-.031-1.31-.062-1.477-.043Zm1.345.91c2.086.168 3.468.582 4.23 1.27.363.324.723.941.8 1.367.075.406.071.664-.007.426a.666.666 0 0 1-.039-.164c0-.024-.02-.063-.047-.086-.031-.028-.039-.051-.023-.07.039-.047-.078-.137-.149-.122-.058.016-.062.012-.062-.054 0-.075-.02-.086-.067-.043-.015.015-.02.039 0 .07.016.035.012.043-.011.043-.02 0-.047.02-.059.04-.012.022-.031.034-.043.026-.008-.011 0-.035.016-.054.027-.032.02-.047-.032-.102a.455.455 0 0 1-.093-.172c-.024-.09-.04-.101-.11-.117-.082-.012-.234-.082-.234-.105 0-.004.02-.008.043-.004.023.004.039-.008.039-.028 0-.027-.02-.03-.086-.027-.086.008-.09.008-.09-.074 0-.082-.027-.113-.058-.063-.028.043-.121.024-.176-.035-.031-.031-.074-.058-.098-.058a.076.076 0 0 1-.058-.028c-.004-.011-.04-.02-.067-.011-.039.007-.062-.004-.078-.051-.02-.032-.043-.051-.062-.043-.016.008-.043-.004-.059-.024-.016-.015-.043-.03-.059-.03-.015 0-.043-.017-.054-.032-.016-.02-.07-.04-.125-.047a.515.515 0 0 1-.145-.05.199.199 0 0 0-.101-.036c-.028 0-.059-.012-.067-.023-.008-.016-.043-.024-.086-.024-.035 0-.066-.012-.066-.023 0-.016-.016-.024-.035-.024-.02 0-.098-.02-.172-.043a2 2 0 0 0-.274-.07c-.128-.027-.23-.055-.492-.117a6.343 6.343 0 0 0-.363-.055c-.191-.02-.277-.039-.297-.062-.027-.036-.035-.036-.098 0-.058.03-.078.035-.093.011-.016-.02-.059-.027-.098-.02-.04.005-.07 0-.07-.015 0-.035-.067-.05-.125-.023-.043.015-.07.015-.125-.012a.148.148 0 0 0-.114-.012c-.062.024-.25.024-.289 0-.02-.011-.023-.035-.02-.047.013-.015 0-.027-.015-.027-.023 0-.039.02-.039.05 0 .04-.008.048-.05.032a.517.517 0 0 0-.094-.016c-.024 0-.043-.007-.043-.023 0-.012-.024-.02-.051-.02a.122.122 0 0 1-.082-.042c-.028-.036-.028-.036-.031.011 0 .059-.063.074-.11.031-.015-.015-.047-.015-.105.008a.763.763 0 0 1-.375.004c-.024-.008-.047-.004-.055.008-.027.043-.055.031-.043-.02.016-.05-.05-.066-.066-.019-.008.016-.04.035-.07.035a.5.5 0 0 0-.106.02c-.043.015-.055.007-.055-.028s-.004-.035-.02-.011c-.011.02-.07.035-.136.043-.063.007-.125.023-.137.039a.279.279 0 0 1-.18.086c-.027 0-.081.039-.128.082-.082.09-.102.097-.102.046 0-.02.031-.062.07-.097.067-.059.094-.125.051-.125-.012 0-.035.015-.05.035-.044.05-.098.043-.11-.012-.008-.027-.027-.047-.04-.047-.054 0-.062.032-.023.075.036.039.024.101-.015.078-.012-.008-.043 0-.07.015-.043.028-.055.024-.094-.023-.051-.063-.094-.047-.094.027 0 .047-.062.106-.11.114-.011 0-.03.011-.046.023-.02.016-.055.012-.11-.016-.07-.03-.093-.035-.12-.011-.032.027-.048.015-.036-.036.004-.015.008-.078.012-.14.035-.649.238-.906.844-1.055.332-.082 1.343-.105 2.082-.047Zm-9.899.153c.793.078 1.621.418 2.356.968.261.196.898.844 1.129 1.149.316.426.746 1.172.949 1.656.156.375.297.824.36 1.137.015.09.038.183.046.203.031.074-.023.043-.058-.035-.028-.059-.051-.074-.102-.074-.07-.004-.106-.043-.063-.07.016-.009.043-.005.063.015.039.031.066.012.047-.04-.008-.019-.04-.034-.067-.038h-.054l.054-.024c.055-.02.051-.066-.003-.066a.437.437 0 0 1-.13-.047c-.117-.055-.183-.043-.218.04-.016.026-.035.054-.047.054-.027 0-.023-.043.008-.063.012-.004.02-.043.012-.078s0-.074.011-.09c.035-.031.008-.097-.039-.097-.02 0-.043.015-.047.035-.008.02-.015.05-.023.07-.016.047-.082.02-.082-.035 0-.024.02-.05.047-.059.027-.007.047-.027.047-.043 0-.02.02-.05.046-.074.028-.023.04-.05.032-.062-.02-.035-.055-.024-.055.015 0 .02-.016.035-.031.032-.02-.004-.051.011-.07.035-.047.07-.11.035-.11-.059 0-.05-.016-.086-.047-.11-.027-.015-.047-.042-.047-.066 0-.02.02-.039.047-.047.031-.007.047-.035.047-.07 0-.062-.02-.07-.062-.016-.032.04-.036.04-.07-.011-.044-.059-.083-.067-.126-.016-.039.05-.054.027-.023-.031.015-.031.047-.05.074-.05.05 0 .082-.063.047-.099-.024-.027-.055-.02-.195.055-.067.031-.075.024-.059-.058.008-.067 0-.082-.05-.114-.067-.035-.134-.199-.095-.222.036-.02.024-.079-.015-.079a.035.035 0 0 0-.035.036c0 .02-.02.035-.059.035-.074 0-.074-.031-.004-.078.051-.035.051-.035-.058-.09-.063-.027-.114-.067-.114-.082 0-.035.063-.043.082-.008.02.027.13.031.13.004 0-.012-.044-.047-.095-.082-.101-.07-.109-.082-.058-.149.058-.078.043-.125-.043-.125a.168.168 0 0 1-.117-.046c-.043-.051-.098-.063-.121-.024-.008.012.007.035.035.05.062.04.062.095-.004.087-.035-.004-.059-.027-.067-.067a.14.14 0 0 0-.066-.082c-.043-.02-.05-.039-.047-.105.004-.066 0-.078-.031-.074-.023.004-.043-.004-.043-.016a.527.527 0 0 0-.152-.113c-.086-.047-.153-.102-.153-.117 0-.02-.015-.04-.039-.047-.015-.008-.027-.028-.023-.043.02-.047-.074-.121-.29-.223-.019-.008-.034-.043-.034-.074 0-.043-.016-.059-.063-.063a.159.159 0 0 1-.098-.058.181.181 0 0 0-.12-.07c-.044-.012-.098-.04-.114-.063a.087.087 0 0 0-.066-.047c-.024 0-.051-.02-.063-.043-.02-.031-.043-.043-.086-.035-.039.012-.062 0-.074-.023-.004-.024-.04-.04-.07-.04-.051 0-.059-.007-.051-.07l.012-.074-.102.02c-.113.015-.297-.024-.34-.079a.107.107 0 0 0-.07-.03.23.23 0 0 1-.098-.028.225.225 0 0 0-.117-.024c-.039.008-.066-.004-.078-.027-.012-.031-.031-.035-.09-.023-.062.007-.082.003-.101-.032-.02-.035-.028-.035-.063-.008-.035.028-.043.028-.07-.007-.035-.047-.137-.051-.18 0-.027.03-.031.03-.059-.008-.027-.035-.035-.035-.07-.004-.035.031-.066.035-.16.02-.066-.012-.125-.008-.137.003-.039.032-.11.024-.11-.015 0-.04-.058-.051-.077-.016-.024.04-.184.059-.207.024-.016-.024-.024-.024-.04-.004-.023.039-.105.066-.296.097a.663.663 0 0 0-.203.067.265.265 0 0 1-.13.039.198.198 0 0 0-.14.054c-.055.06-.125.075-.125.032 0-.016-.008-.024-.023-.024-.012 0-.024.028-.024.055 0 .043-.015.066-.05.078a.17.17 0 0 0-.086.059c-.016.023-.043.043-.06.043-.019 0-.07.023-.112.054-.043.032-.09.051-.106.047-.012-.004-.062.035-.113.086-.055.055-.113.094-.145.094-.03 0-.054.012-.054.027 0 .016-.035.063-.075.106a2.52 2.52 0 0 0-.144.144.546.546 0 0 1-.082.067c-.008-.008-.043 0-.07.011-.047.016-.055.028-.032.047.047.047.032.09-.03.09-.032 0-.06.012-.06.027 0 .047-.148.196-.19.188-.052-.008-.079.035-.04.082.023.027.012.047-.066.121-.051.047-.09.106-.09.133 0 .031-.024.055-.074.07-.063.02-.07.031-.051.067.027.046.004.093-.043.078-.024-.012-.031.004-.031.039 0 .172-.063.258-.114.164-.011-.024-.031-.035-.043-.024-.008.008 0 .047.024.082.027.051.031.075.011.094-.035.035-.09.035-.09.004 0-.016-.007-.023-.023-.023-.027 0-.031.101-.008.125.008.008.028-.004.047-.028.016-.023.028-.027.031-.011 0 .046-.09.125-.14.125-.027 0-.055.02-.063.039-.035.093-.132.218-.171.218-.047 0-.102.055-.079.079.008.007.047.015.082.015.036 0 .067.016.075.035.007.02 0 .035-.016.035-.02 0-.047.016-.063.036-.015.02-.054.035-.085.035-.036 0-.055.015-.055.035 0 .055.066.07.105.02.059-.079.067-.012.008.09a.352.352 0 0 1-.129.132c-.078.04-.094.09-.023.078.055-.008.047.059-.004.09-.04.02-.055.012-.094-.039-.043-.05-.055-.059-.09-.027-.023.015-.05.047-.062.058-.008.016-.043.032-.07.032-.047.003-.047.003.015.05.067.051.067.09-.004.09-.027 0-.054.04-.086.117-.031.079-.058.118-.086.118-.023 0-.054.027-.07.062-.066.133-.082.086-.082-.219 0-.164.008-.312.02-.328.011-.015.015-.039.011-.05-.023-.036.051-.56.121-.848.348-1.43 1.223-2.594 2.41-3.203.485-.25.825-.371 1.262-.45a4.46 4.46 0 0 1 1.207-.05Zm5.809.285c.183.015.332.035.332.043 0 .008-.027.14-.063.293a15.627 15.627 0 0 1-.129.597c-.054.243-.078.348-.109.516-.016.07-.047.23-.07.352-.024.12-.07.355-.098.515-.121.723-.18 1.004-.21 1.04-.009.011-.055-.083-.102-.2a7.427 7.427 0 0 0-.23-.488 10.536 10.536 0 0 1-.227-.434c-.079-.144-.305-.5-.473-.738-.293-.406-.828-1.012-1.113-1.246a1.176 1.176 0 0 1-.176-.16c0-.008.11-.028.242-.032.129-.011.328-.03.438-.043a20.38 20.38 0 0 1 1.488-.054c.09.004.312.02.5.039Zm1.832.84c0 .011-.008.023-.024.023A.025.025 0 0 1 27 4.266c0-.016.012-.024.023-.024.016 0 .024.008.024.024Zm-.617.066c.039.027.058.098.023.098-.05 0-.117-.063-.101-.09.02-.031.043-.035.078-.008Zm.53.04c-.01.038-.054.05-.054.015 0-.024.028-.051.051-.051.012 0 .012.016.004.035Zm-.206.081c-.008.012-.024.024-.04.024-.01 0-.019-.012-.019-.024 0-.016.016-.023.04-.023.015 0 .027.008.019.023Zm11.906.238c.262.067.625.25.813.403.156.129.3.312.3.375 0 .043-.117.066-.156.035-.015-.012-.039-.016-.05-.012-.012.008-.06-.004-.102-.023-.074-.04-.153-.055-.488-.102-.172-.023-.22-.004-.196.086.008.035.004.055-.02.059a.545.545 0 0 0-.093.011c-.082.004-.094-.054-.016-.066.075-.012.078-.059.008-.07-.031-.008-.058-.004-.058.011 0 .012-.04.016-.098.008-.082-.015-.11-.008-.176.043-.047.04-.082.051-.09.035-.011-.02-.027-.015-.05.004-.02.016-.067.02-.118.012-.093-.016-.23.035-.25.094-.008.02-.027.027-.039.02-.02-.012-.015-.028.004-.051.02-.024.02-.04 0-.06-.035-.038-.07-.003-.055.067.008.059.008.059-.058.047-.059-.015-.086-.008-.14.04l-.067.058-.102-.195-.004.078c0 .078-.004.078-.043.043-.054-.051-.074-.047-.074.004 0 .023.016.05.035.058.04.016.051.086.012.086-.012 0-.031-.02-.047-.047-.039-.074-.101-.062-.086.016.012.035.008.074-.011.094-.028.035-.079.043-.055.011.008-.011.004-.031-.012-.039-.023-.015-.027 0-.031.094-.004.055-.082.074-.102.027-.02-.058.098-.418.215-.664.219-.449.621-.683 1.125-.648.102.004.274.031.375.058Zm.274.774c-.02.023-.028.015-.028-.027 0-.043.008-.051.028-.028.023.02.023.035 0 .055Zm-.485.066c-.008.012-.023.024-.039.024-.012 0-.02-.012-.02-.024 0-.015.016-.023.04-.023.015 0 .027.008.02.023Zm-28.086.043c.297.055.61.153.84.278.438.226.875.68 1.059 1.085.125.278.136.329.078.329-.024 0-.035-.024-.035-.07 0-.075-.055-.098-.078-.044-.012.024-.02.024-.032 0-.015-.03-.101-.035-.101-.004 0 .012.015.024.035.024.043 0 .043.012.012.07-.032.059-.008.117.05.117.063 0 .051.04-.015.051-.031.008-.059.004-.059-.008 0-.011-.027-.03-.062-.047l-.067-.023.051-.039c.04-.027.047-.047.031-.074-.015-.028-.03-.028-.078-.004-.07.043-.11.02-.094-.05l.012-.052-.047.051c-.035.043-.05.047-.07.024-.02-.024-.016-.043.012-.083.035-.054.027-.12-.012-.12-.012 0-.031.019-.04.046-.015.051-.081.067-.081.016 0-.05-.055-.156-.078-.149-.043.012-.043.063-.008.063.023 0 .039.012.039.027 0 .012-.008.02-.016.016-.011-.004-.058-.027-.105-.05-.047-.02-.09-.056-.098-.075-.008-.02-.039-.035-.07-.035-.035 0-.066-.012-.074-.024-.024-.035-.219-.12-.246-.105-.016.008-.032-.012-.047-.043-.028-.07-.047-.078-.09-.035-.02.023-.027.023-.027-.008 0-.024-.028-.035-.082-.035-.043 0-.082.011-.082.023s-.016.008-.032-.004c-.02-.015-.035-.02-.047-.011a.542.542 0 0 1-.136-.012c-.09-.024-.125-.024-.141 0-.008.015-.027.015-.047.004a.962.962 0 0 0-.265-.035c-.172 0-.297.011-.31.03-.003.013-.034.016-.058.009a.092.092 0 0 0-.078.011c-.027.024-.043.024-.074-.004-.023-.015-.04-.02-.05-.003-.028.043-.106.07-.231.09a.37.37 0 0 0-.18.062.214.214 0 0 1-.094.043.21.21 0 0 0-.082.02.732.732 0 0 1-.242.097.274.274 0 0 0-.113.05c-.04.028-.086.044-.102.036-.023-.008-.039-.004-.039.012 0 .011-.02.027-.039.035a.612.612 0 0 0-.121.07c-.043.035-.082.055-.09.047-.004-.008-.05.016-.094.047a.399.399 0 0 1-.128.055c-.024 0-.051.015-.06.035-.007.02-.022.035-.038.035s-.067.031-.106.074c-.043.035-.086.063-.093.059-.004-.008-.055.02-.106.062-.054.04-.113.07-.137.067-.023-.004-.043.015-.05.043-.008.039-.024.046-.059.035-.035-.008-.055-.004-.066.02-.004.023-.024.038-.032.038a.918.918 0 0 0-.164.145 1.194 1.194 0 0 1-.226.176c-.047.02-.086.054-.094.082-.012.027-.035.043-.082.043-.039 0-.066.011-.066.03 0 .044-.098.095-.184.099-.082 0-.125.039-.078.07.016.008.027.031.027.047 0 .023-.027.031-.086.027-.082-.004-.09 0-.082.05.008.048 0 .056-.039.044-.035-.008-.058.008-.094.07-.03.047-.066.078-.093.078-.032 0-.051.02-.059.059-.012.031-.031.059-.047.059-.015 0-.054.019-.082.046-.027.028-.058.047-.074.047-.016 0-.031.016-.04.035-.007.02-.042.051-.081.07-.059.032-.066.032-.102-.019-.027-.035-.043-.043-.05-.02-.024.055-.13.169-.165.169s-.074.07-.062.113c.016.039-.113.012-.148-.035-.028-.035-.118-.043-.133-.012-.008.012.004.027.035.035.039.012.043.02.016.063-.028.039-.028.05.003.07.032.02.028.027-.007.059-.067.05-.094.043-.075-.012.02-.059-.027-.063-.086-.008-.046.04-.058.125-.02.125.017 0 .024.012.024.027 0 .016-.015.016-.039.004-.058-.023-.297-.015-.304.008a.753.753 0 0 1-.055.098c-.043.07-.055.078-.125.062-.059-.015-.07-.011-.043.016.012.016.027.035.027.047 0 .023-.09.039-.11.015-.015-.027-.1-.023-.1.004 0 .012-.02.024-.047.024-.04 0-.047.015-.043.062.007.067-.004.07-.083.04-.039-.012-.042-.005-.027.058.012.059.008.074-.023.074-.02 0-.043-.02-.051-.047s-.023-.047-.035-.047c-.012 0-.04.02-.059.047-.05.055-.101.063-.101.012 0-.02-.008-.035-.024-.035-.039 0-.027-.172.024-.317.148-.437.882-1.218 1.91-2.027.246-.195.914-.684 1.101-.8.09-.06.254-.165.364-.235.804-.516 1.671-.895 2.3-1.012.106-.023.243-.047.301-.058.188-.04.59-.032.871.015Zm27.625.031c-.015.043-.066.051-.066.012 0-.023.016-.039.039-.039.02 0 .031.012.027.027Zm-.316.18c.027.031.035.05.02.063-.016.007-.028.004-.028-.008s-.016-.043-.039-.059c-.016-.023-.023-.039-.012-.039.012 0 .04.02.059.043Zm-.715.29c-.012.023-.031.042-.043.042-.027 0-.027-.015-.008-.09.012-.039.02-.047.047-.023.024.016.024.035.004.07Zm-14.363.054c0 .02-.02.039-.047.047s-.047.027-.047.039-.016.02-.035.02c-.02 0-.035-.012-.035-.024 0-.016.011-.024.023-.024.016 0 .024-.015.024-.03 0-.044.046-.083.085-.071.016.008.032.027.032.043Zm7.242.309c.219.128.344.257.383.41.039.129.035.18-.035.336-.067.156-.192.343-.262.382a5.426 5.426 0 0 0-.211.13c-.129.081-.137.081-.219.046l-.082-.035.012-.273c.02-.512.066-1.02.09-1.051.047-.055.168-.035.324.054Zm13.23.062c.688.195 1.11.434 1.496.832.114.117.184.219.243.348.082.175.12.367.082.39-.043.028-.157-.023-.164-.074-.008-.059-.067-.066-.082-.012-.008.036-.012.036-.028-.007-.027-.079-.082-.079-.183 0l-.086.066L44.266 8c-.082-.05-.102-.117-.032-.11.032.005.036-.003.02-.023a.325.325 0 0 0-.121-.027c-.106-.004-.13-.02-.13-.09 0-.04-.015-.055-.062-.059-.039-.003-.066-.02-.066-.03 0-.016-.031-.02-.078-.013-.067.012-.082.008-.094-.03-.012-.044-.023-.048-.094-.036a.175.175 0 0 1-.136-.02.433.433 0 0 0-.137-.05 1.094 1.094 0 0 1-.29-.11c-.03-.015-.054-.011-.085.016-.031.031-.047.031-.063.008-.007-.016-.003-.035.012-.04.04-.011.035-.05-.004-.05-.02 0-.043.02-.047.043-.015.043-.16.098-.257.098a.404.404 0 0 0-.145.046.415.415 0 0 1-.121.047c-.016 0-.059.032-.102.07-.082.075-.117.087-.191.044-.063-.032-.117.011-.07.054.043.043.03.074-.016.059-.031-.008-.05.004-.059.035-.007.027-.023.04-.035.035-.011-.008-.02-.039-.011-.066.011-.043.007-.047-.043-.031-.07.02-.086.039-.047.05.011.008.027.024.027.04 0 .046-.133.156-.187.156-.028 0-.055.015-.063.03-.016.052-.21.18-.266.18a.063.063 0 0 0-.062.047c-.02.075-.078.055-.078-.023 0-.047-.012-.07-.035-.07-.043 0-.047.039-.004.054.011.004.02.02.011.028-.011.008-.035.008-.05-.008-.035-.031-.063-.012-.063.035 0 .024.016.027.047.02.04-.012.047-.004.047.043 0 .043-.02.07-.07.093-.067.035-.075.035-.11-.02-.039-.062-.11-.093-.148-.07-.016.008.008.04.047.075.09.078.09.105-.008.09-.067-.016-.082-.008-.102.039-.023.054-.14.082-.187.039-.024-.016-.031-.016-.031 0 0 .015.011.027.023.027.04 0 .027.063-.016.078-.02.012-.058.012-.082.004-.03-.012-.043-.004-.043.031s.016.051.047.051c.063 0 .059.016-.004.074-.066.051-.09.055-.09.012 0-.047-.062-.094-.093-.074-.02.011-.016.031.015.062.032.035.036.055.016.086-.031.047-.102.067-.102.024 0-.016-.027-.043-.058-.059-.031-.016-.059-.016-.059-.004s.016.027.032.035a.07.07 0 0 1 .046.047c.012.024 0 .028-.043.016-.05-.012-.054-.004-.062.066-.004.063-.02.082-.063.086-.03.004-.062.027-.066.055-.016.058-.047.055-.063-.004-.007-.027-.03-.047-.05-.047-.035 0-.04.016-.028.106.016.085.012.105-.015.105-.024 0-.04-.02-.04-.05 0-.028-.007-.044-.015-.036-.02.02-.023.027-.027.09-.004.016-.035.016-.094.008-.105-.016-.152.023-.086.074.023.016.035.047.027.066-.02.051-.062.043-.062-.011 0-.032-.016-.047-.043-.047-.055 0-.09.039-.047.05.027.012 0 .09-.031.09a.243.243 0 0 0-.09.047l-.066.047-.051-.078-.051-.074.012.074c.011.059.004.074-.047.098-.028.015-.055.035-.055.043a.104.104 0 0 1-.02.05c-.027.043-.12-.004-.12-.054 0-.02-.008-.035-.024-.035-.012 0-.023.03-.023.066 0 .043.011.078.023.086.04.023.027.055-.027.07a.09.09 0 0 1-.09-.023c-.04-.04-.043-.035-.078.027a.132.132 0 0 1-.094.07c-.078.004-.086-.054-.012-.082.043-.015.043-.02.012-.046-.055-.043-.047-.106.012-.223.078-.152.082-.164.101-.274.032-.183.2-.402.664-.867.535-.531.848-.797 1.594-1.355.629-.477.938-.66 1.23-.746.212-.059.63-.028.965.07Zm-7.691.414c.074.027.16.063.188.074a.875.875 0 0 0 .085.043c.063.028.051.102-.058.43-.059.18-.121.383-.133.453-.027.152-.21.664-.336.934a2.986 2.986 0 0 0-.23.656c-.07.277-.114.437-.18.656-.027.09-.078.258-.11.375-.035.113-.109.375-.163.574-.06.2-.122.426-.141.504-.047.172-.098.282-.125.254a3.622 3.622 0 0 1-.164-.277 10.602 10.602 0 0 0-.281-.469l-.274-.434a27.44 27.44 0 0 0-.293-.464c-.086-.133-.152-.254-.144-.27.004-.02.05-.047.097-.07.211-.094.657-.414.91-.656.34-.325.422-.434.645-.864.262-.5.402-.879.488-1.3.043-.227.028-.215.219-.149Zm-12.125.434c0 .02-.008.035-.023.035-.012 0-.024-.016-.024-.035 0-.02.012-.035.024-.035.015 0 .023.015.023.035Zm-10.828.011c0 .012-.004.024-.008.024-.008 0-.02-.012-.027-.024-.008-.015-.004-.023.008-.023.015 0 .027.008.027.023Zm-.094.157c0 .015-.008.027-.023.02-.012-.009-.024-.024-.024-.04 0-.012.012-.02.024-.02.015 0 .023.016.023.04Zm.14-.004c0 .02-.007.035-.023.035-.011 0-.023-.016-.023-.035 0-.02.012-.035.023-.035.016 0 .024.015.024.035Zm10.895.086c-.043.023-.066-.008-.05-.07l.015-.055.035.054c.028.04.028.051 0 .07Zm-10.886.058a.148.148 0 0 1-.059 0c-.016-.008-.004-.011.027-.011.032 0 .043.003.032.011Zm32.093.38c-.02.03-.086.034-.086.007a.1.1 0 0 1 .028-.047c.035-.031.082 0 .058.04ZM23.953 8c0 .008-.008.02-.023.027-.012.008-.024.004-.024-.007 0-.016.012-.028.024-.028.015 0 .023.004.023.008Zm-9.187.121c0 .043-.032.059-.07.035-.028-.015-.028-.027-.005-.054.036-.043.075-.032.075.02Zm9.046.012c0 .012-.011.023-.027.023-.012 0-.015-.011-.008-.023.008-.016.02-.024.028-.024.004 0 .008.008.008.024Zm.329.105c0 .02-.008.035-.02.035-.031 0-.055-.039-.035-.054.027-.028.055-.016.055.02Zm-9.536.153c.012 0 .02-.012.02-.028 0-.015.004-.023.012-.015.008.007.008.03-.004.05-.012.04-.016.04-.059 0-.023-.02-.035-.05-.023-.062.008-.02.02-.012.023.012.004.023.02.043.031.043Zm.372-.063c0 .008-.008.02-.024.027-.012.008-.023.004-.023-.007 0-.016.011-.028.023-.028.016 0 .024.004.024.008Zm4.562.05c.344.173.563.63.54 1.122-.013.281-.06.434-.177.594-.222.293-.582.293-.867.004-.48-.477-.45-1.48.05-1.727a.501.501 0 0 1 .454.008Zm4.73-.015c.008.012.004.032-.011.04-.012.007-.024-.005-.024-.02 0-.043.016-.051.036-.02Zm-9.433.028c0 .011-.012.023-.027.023-.012 0-.016-.012-.008-.023.008-.016.02-.024.027-.024.004 0 .008.008.008.024Zm9.422.105c0 .02-.008.035-.02.035-.031 0-.054-.039-.035-.054.027-.028.055-.016.055.02Zm16.512.055c.007.011.003.031-.012.039-.012.008-.024-.004-.024-.02 0-.043.016-.05.036-.02Zm-16.606.09c0 .015-.008.027-.023.02-.012-.009-.024-.024-.024-.04 0-.012.012-.02.024-.02.015 0 .023.016.023.04Zm.14.007c0 .012-.011.024-.027.024-.011 0-.015-.012-.007-.024.007-.015.02-.023.027-.023.004 0 .008.008.008.023Zm-18.917.473c-.004.035-.028.059-.059.063-.062.007-.066-.004-.031-.07.035-.063.098-.06.09.007Zm8.027.246c.012.153.035.352.055.438.015.09.031.191.031.23 0 .07-.004.07-.074.059-.18-.035-.395-.114-.395-.14 0-.02.043-.126.094-.235.05-.106.125-.301.168-.422.039-.125.082-.219.09-.215a1.5 1.5 0 0 1 .031.285ZM4.988 9.32c-.011.051-.05.047-.062 0-.004-.023.008-.039.031-.039s.035.016.031.04Zm-.511.36c0 .027-.016.047-.036.047-.02 0-.035-.02-.035-.047 0-.028.016-.047.035-.047.02 0 .036.02.036.047Zm4.203.117c.148.047.254.133.28.226.02.059-.038.305-.093.418-.055.106-.199.246-.254.246-.039 0-.129-.105-.363-.414l-.313-.414.051-.043a.404.404 0 0 1 .164-.054c.059-.008.121-.02.133-.024.043-.02.242.012.395.059Zm-4.32.02c0 .03-.028.05-.051.035-.024-.012-.004-.055.03-.055.013 0 .02.008.02.02Zm-.274.105.07.058-.074-.003c-.074-.004-.129-.055-.105-.09.015-.028.039-.024.109.035Zm19.352 1.527c0 .078-.555 1.153-.735 1.414a.422.422 0 0 0-.058.11c.003.004.128-.067.277-.157.465-.28 1.02-.543 1.406-.66a5.795 5.795 0 0 1 1.805-.219c.512.02.976.09.91.141-.375.29-.844.578-1.305.813a6.428 6.428 0 0 1-1.293.468c-.312.082-.52.153-.523.176 0 .016.191.031.488.04.953.03 1.41.09 2.184.28 1.008.247 1.773.543 2.566.997.832.472 1.34.843 2.152 1.57 1.2 1.066 2.145 2.355 2.946 4.004.55 1.14.91 2.203 1.144 3.398.168.852.227 1.442.227 2.293-.004 1.067-.082 1.703-.324 2.676-.262 1.05-.809 2.254-1.383 3.039l-.262.355c-.07.102-.168.223-.21.27a4.305 4.305 0 0 0-.204.238c-.184.23-1.016 1.016-1.367 1.29-.29.226-.363.277-.809.558-.113.074-.3.195-.418.27a1.36 1.36 0 0 1-.218.128 2.025 2.025 0 0 1-.012-.265c-.016-1.031-.406-2.121-1.09-3.031-.223-.301-.594-.676-.82-.836-.18-.125-.39-.29-.414-.329a.622.622 0 0 1-.02-.199 4.181 4.181 0 0 0-.262-1.246c-.156-.387-.296-.601-.558-.863-.281-.285-.445-.379-.809-.469-.496-.125-1.058.031-1.601.442-.254.187-.36.289-.598.566-.797.926-1.254 1.973-1.297 2.973-.012.28-.008.378.027.53.11.505.325.934.637 1.302.235.27.38.41.54.511.085.055.1.078.124.192.016.07.051.23.086.351l.07.278c.012.054.012.054-.05.043-.117-.032-.532-.23-.758-.364-.406-.242-.879-.703-1.156-1.129-.184-.285-.282-.425-.293-.414-.012.012.054.239.097.332.32.711.473.942.86 1.313.402.39.847.648 1.402.805.133.039.242.074.246.078l.145.195c.133.18.496.535.71.695.255.196.606.368 1.005.5.234.078.222.094-.082.125-.696.078-.825.086-1.72.114-1.12.035-2.613-.008-3.327-.102-.16-.016-.34-.039-.399-.043a3.005 3.005 0 0 1-.234-.031c-.07-.012-.285-.043-.48-.07a6.315 6.315 0 0 1-.458-.079c-.113-.027-.18-.039-.492-.097-.11-.02-.246-.051-.305-.067-.18-.047-.87-.277-1.02-.34-.151-.062-.194-.082-.308-.12-.093-.04-.12-.126-.125-.415-.008-.347-.011-.324.078-.304.04.007.133.039.204.062.437.156 1.687.414 2.011.414.102-.004.102-.004.047-.035a3.13 3.13 0 0 0-.27-.102c-.956-.332-1.96-.789-2.663-1.214-.793-.48-1.707-1.243-2.247-1.875-.109-.125-.226-.266-.27-.309-.187-.207-.554-.734-.8-1.14a9.59 9.59 0 0 1-1.035-2.47c-.027-.109-.063-.226-.07-.257a1.867 1.867 0 0 1-.047-.211l-.059-.305c-.015-.086-.039-.215-.047-.293a7.278 7.278 0 0 0-.039-.328c-.05-.422-.074-1.7-.039-2.285.024-.434.09-1.246.106-1.27.004-.007.015-.105.03-.21.028-.23.102-.73.138-.899l.043-.187c.171-.91.46-1.852.843-2.766.2-.477.711-1.453.95-1.809.39-.586.613-.863 1.203-1.48.226-.242.945-.852 1.265-1.074a10.262 10.262 0 0 1 3.266-1.492c.172-.047.324-.09.336-.102.012-.016.012-.074-.008-.152a3.828 3.828 0 0 1-.027-.547c0-.352.004-.465.05-.692.075-.355.165-.636.2-.625.035.008.18.375.258.649.097.34.18.738.18.883 0 .074.011.152.023.171.02.032.03.028.07-.023a.196.196 0 0 0 .047-.078c0-.012.058-.125.133-.258.297-.543.777-1.086 1.23-1.394a6.85 6.85 0 0 1 .633-.356c.012 0 .02.016.02.035Zm17.667 1.469a25.52 25.52 0 0 1 1.458 2.773 23.087 23.087 0 0 1 1.39 4.27c.336 1.535.492 3.023.492 4.613-.004.918-.023 1.32-.105 2.145-.403 4.07-2.016 8-4.625 11.27a20.321 20.321 0 0 1-1.664 1.843c-1 .996-1.742 1.637-2.766 2.379-.383.277-1.082.75-1.11.75-.034 0-.093-.133-.41-.863a148.129 148.129 0 0 0-.976-2.22c0-.003-.035-.085-.078-.179-.07-.152-.125-.281-.207-.484-.035-.09-.024-.13.059-.215a.879.879 0 0 0 .148-.21l.066-.13v-3.117l-.054-.14c-.07-.173-.258-.368-.465-.481-.082-.043-.149-.094-.149-.11 0-.015.028-.046.063-.07.168-.105.844-.68 1.086-.922a10.768 10.768 0 0 0 1.937-2.554c.25-.457.59-1.293.73-1.782.067-.242.09-.324.243-.96.039-.172.082-.325.09-.337.012-.011.039.012.062.047.317.508.602.797.97.985.3.148.741.164 1.1.035.56-.195 1.098-.856 1.477-1.809.297-.734.559-1.687.727-2.613l.07-.375c.063-.32.152-1.05.188-1.57.03-.473.035-1.715.003-2.18a16.81 16.81 0 0 1-.023-.434c0-.207-.098-.859-.168-1.132a4.727 4.727 0 0 0-.227-.618c-.003-.011.079-.066.184-.117.336-.164.375-.199.598-.523.215-.317.289-.508.336-.844.035-.242-.008-.61-.121-1.043a27.7 27.7 0 0 1-.106-.434c-.039-.16-.348-1.257-.379-1.359a2.227 2.227 0 0 1-.05-.164 8.082 8.082 0 0 0-.087-.281c-.027-.098-.074-.254-.101-.352a6.98 6.98 0 0 0-.106-.34c-.097-.304-.101-.289.067-.414a.653.653 0 0 1 .172-.109c.015-.004.133.168.261.375Zm-30.109.105c.23.133.238.543.02.848-.106.149-.172.137-.332-.05-.446-.508-.536-.63-.52-.692a.28.28 0 0 1 .04-.09c.081-.086.651-.098.792-.016Zm18.52.329c.113.144.23.37.21.41-.015.035-.343.254-.41.27-.035.011-.043 0-.043-.06 0-.09.067-.687.082-.726.02-.05.063-.02.16.106Zm2.086.363c.347.05.55.207 1.539 1.176 1.273 1.254 2.226 1.957 3.336 2.468.503.235 1.336.532 2.03.735.388.113.49.148.716.258.562.27.71.566.816 1.617.121 1.195.113 2.457-.023 3.39-.016.141-.047.32-.055.407-.012.086-.031.199-.047.257-.016.059-.05.262-.086.457-.086.508-.242 1.196-.289 1.282a.196.196 0 0 0-.023.093.317.317 0 0 1-.036.114.332.332 0 0 0-.035.12c0 .036-.008.071-.02.075a.367.367 0 0 0-.05.125c-.035.14-.117.363-.148.398-.036.047-.086.036-.086-.015 0-.027.02-.082.047-.129a.322.322 0 0 0 .046-.121c0-.016.02-.082.047-.14.028-.06.043-.122.035-.15-.007-.023-.004-.05.012-.058.012-.008.024-.039.024-.07 0-.031.011-.063.023-.07.016-.008.02-.036.012-.059s-.004-.05.011-.059c.012-.007.024-.043.024-.078 0-.039.016-.105.035-.152a.497.497 0 0 0 .035-.152c0-.04.012-.079.028-.09.015-.008.02-.047.011-.094-.008-.05 0-.086.024-.105.02-.016.027-.051.02-.086a.235.235 0 0 1 .019-.125c.031-.055.031-.063 0-.051-.047.02-.04-.078.008-.106.023-.011.035-.035.023-.058-.02-.055-.086-.078-.113-.035-.012.015-.02.02-.02.003 0-.011.028-.046.059-.074.031-.027.058-.078.058-.105 0-.035.016-.07.04-.082.027-.016.03-.04.011-.149-.023-.14-.02-.16.047-.16.059 0 .047-.05-.02-.07-.058-.016-.082-.211-.023-.211.047 0 .047-.012.016-.07-.016-.032-.016-.051.011-.07.043-.04.043-.071 0-.071-.02 0-.035-.008-.035-.02 0-.011.016-.035.035-.05.02-.016.036-.063.036-.102 0-.039.015-.09.035-.11.027-.03.031-.054.015-.1a.14.14 0 0 1 0-.126c.02-.039.02-.062.004-.074-.054-.035-.05-.098.012-.156.043-.043.055-.067.035-.086-.02-.016-.035-.012-.05.023-.04.07-.075.063-.075-.015 0-.04.024-.094.059-.13.066-.074.078-.132.02-.132-.028 0-.036-.016-.02-.055a.424.424 0 0 0 .015-.097c0-.028.012-.067.032-.098.02-.027.023-.059.007-.082-.015-.027-.023-.024-.046.008-.012.023-.032.043-.043.043-.032 0 0-.137.043-.207.03-.043.03-.067.003-.145-.015-.05-.05-.098-.074-.11-.047-.011-.047-.023.008-.183.035-.094-.043-.277-.102-.262-.054.012-.058-.058-.003-.105.03-.024.039-.024.066.012.039.054.082.05.082-.008 0-.028-.016-.047-.035-.047-.055 0-.07-.066-.035-.133.02-.027.023-.062.011-.07-.007-.012-.023-.004-.027.008-.016.043-.078.039-.078-.004 0-.02.02-.035.047-.035.066 0 .058-.032-.024-.122-.07-.074-.086-.16-.03-.175.01-.004.03.011.038.039.012.05.086.066.086.015a.23.23 0 0 0-.047-.082c-.039-.043-.062-.05-.117-.039-.074.016-.102-.02-.031-.043.023-.011.031-.03.023-.054-.011-.024 0-.059.024-.082.047-.051.02-.098-.043-.075-.047.012-.047.012-.012-.043.043-.058.035-.168-.016-.261-.015-.035-.011-.055.02-.078.039-.028.039-.036-.02-.09-.035-.032-.058-.067-.05-.082.015-.028-.036-.215-.055-.2-.012.004-.031-.003-.05-.015-.032-.016-.032-.024-.005-.04.028-.019.024-.034-.015-.093-.028-.039-.047-.082-.04-.102.008-.015-.003-.05-.023-.078l-.105-.136a.33.33 0 0 1-.07-.149.14.14 0 0 0-.036-.086c-.02-.02-.035-.047-.035-.058 0-.035-.086-.102-.121-.086-.024.008-.04-.004-.05-.035-.009-.04-.024-.047-.063-.036-.043.016-.047.008-.036-.039.012-.05 0-.062-.109-.109-.062-.027-.129-.043-.14-.035-.012.004-.047-.004-.083-.024a4.344 4.344 0 0 0-.535-.168c-.133-.039-.383-.105-.539-.148a7.505 7.505 0 0 1-.89-.297c-.04-.016-.157-.066-.258-.105-.45-.176-1.25-.657-1.824-1.09a5.617 5.617 0 0 0-.23-.168.57.57 0 0 1-.11-.086.243.243 0 0 0-.09-.063c-.016 0-.05-.035-.074-.078-.055-.086-.145-.156-.2-.156-.039 0-.113-.078-.093-.102.008-.007 0-.015-.024-.015-.023 0-.047-.02-.054-.043-.024-.063-.141-.164-.258-.215-.055-.027-.102-.059-.102-.07a.646.646 0 0 0-.183-.188c-.012 0-.04-.027-.059-.058a.256.256 0 0 0-.102-.082c-.043-.02-.054-.036-.043-.07.008-.032.004-.048-.02-.048-.019 0-.038-.015-.042-.027-.008-.016-.031-.031-.059-.031-.027 0-.039-.016-.035-.043.004-.024-.011-.04-.043-.04-.031 0-.047-.015-.047-.046s-.023-.055-.058-.07c-.031-.012-.059-.032-.059-.047 0-.012-.02-.024-.047-.024-.03 0-.047-.015-.047-.043 0-.035-.02-.05-.062-.054-.04-.004-.066-.024-.066-.043 0-.02-.016-.043-.028-.055a.065.065 0 0 1-.031-.05c0-.016-.023-.036-.05-.04-.032-.004-.052-.02-.052-.035.004-.016-.011-.024-.035-.024-.023.004-.043-.015-.047-.058-.007-.082-.086-.102-.164-.04a.227.227 0 0 1-.078.044c-.027 0-.137-.117-.137-.145 0-.039.09-.015.106.028.016.054.082.062.082.011 0-.047-.102-.152-.148-.152-.051 0-.118.133-.094.191.02.07-.035.047-.082-.035-.035-.062-.035-.066.004-.094.02-.019.039-.042.039-.058 0-.04-.047-.059-.078-.027-.024.015-.082.02-.16.011-.083-.008-.114-.004-.094.008.027.02.027.031-.004.074l-.035.051-.008-.05c-.004-.032-.024-.063-.043-.071a.875.875 0 0 1-.086-.043c-.043-.02-.059-.016-.09.035-.043.063-.098.063-.086 0 .012-.062-.035-.043-.05.02-.012.031-.032.058-.044.058-.015 0-.02-.008-.011-.015.02-.024-.028-.078-.07-.078a.034.034 0 0 0-.032.03c0 .02-.02.056-.05.071-.028.02-.04.047-.036.059.02.031-.121.008-.164-.024-.016-.011-.039-.015-.055-.008-.015.008-.043.004-.062-.015-.016-.012-.04-.02-.05-.008-.009.008.026.05.073.098.106.086.098.133-.008.07-.039-.023-.07-.031-.07-.02 0 .012.016.028.031.036.024.007.032.03.024.058-.012.04 0 .047.07.047.047 0 .094-.012.102-.023.023-.04.058-.02.047.023-.02.082.07.184.23.258.027.012.11.078.188.14.078.067.199.16.27.208.07.046.265.226.429.39.43.434.449.457.441.5-.004.02.004.028.016.02.023-.016.094.05.437.422.196.214.567.683.657.832.039.066-.09-.063-.254-.254-.094-.106-.223-.258-.293-.34a.845.845 0 0 1-.149-.211c-.011-.035-.039-.063-.058-.063-.04 0-.235-.18-.254-.23-.004-.023-.086-.098-.176-.168a.981.981 0 0 1-.18-.168c-.004-.023-.02-.043-.03-.043-.013 0-.04-.02-.063-.043a1.417 1.417 0 0 0-.102-.086 7.74 7.74 0 0 1-.238-.203c-.32-.289-.989-.812-1.082-.848a.303.303 0 0 1-.086-.046 1.06 1.06 0 0 0-.188-.114c-.383-.207-.472-.261-.46-.285.019-.07.554-.305 1-.441.464-.141.831-.184 1.156-.133Zm-15.637.625c.156.117.262.183.703.437.07.04.129.086.129.106.008.035-.156.164-.207.164a.567.567 0 0 1-.13-.094 5.268 5.268 0 0 0-.687-.465c-.191-.11-.199-.117-.195-.195a.558.558 0 0 1 .031-.145l.024-.066.078.059c.039.035.152.125.254.199Zm15.344-.004c-.012.05-.051.047-.063 0-.004-.024.008-.04.031-.04.024 0 .035.017.032.04Zm-16.743.289c.356.074.524.129.973.309.524.21.805.34.793.367-.012.031-.23.215-.254.215a.567.567 0 0 0-.129.093.567.567 0 0 1-.129.094c-.043 0-.812.813-.937.992a9.136 9.136 0 0 1-.363.465.169.169 0 0 0-.036.059c0 .004-.054.093-.125.191a7.91 7.91 0 0 0-.261.414 2.7 2.7 0 0 1-.168.27c-.016.02-.063.101-.11.187-.09.168-.199.375-.289.54a2.817 2.817 0 0 0-.136.296 9.65 9.65 0 0 1-.227.524c-.04.086-.082.183-.094.222-.008.04-.047.145-.078.235a3.29 3.29 0 0 0-.094.27 3.691 3.691 0 0 1-.105.304c-.043.11-.09.262-.11.34a1.02 1.02 0 0 1-.062.187c-.031.047-.055.137-.074.301-.016.129-.063.281-.086.3-.016.009-.031.063-.035.122-.008.062-.024.117-.035.125-.012.004-.02.039-.02.082 0 .035-.008.066-.023.066-.012 0-.024.043-.024.094 0 .066-.008.094-.035.094-.04 0-.05-.14-.012-.18a.661.661 0 0 0 .047-.172c.04-.265.09-.515.125-.64.145-.5.195-.66.317-1.024.195-.566.27-.765.367-.996.015-.039.066-.168.113-.281.047-.117.098-.227.11-.246.011-.02.085-.16.163-.317.13-.257.286-.55.415-.777.027-.05.085-.152.128-.234.086-.153.364-.567.48-.72.044-.054.134-.171.204-.26.18-.231.82-.88.867-.88.031 0 .035-.015.024-.054-.016-.07.035-.11.074-.055.043.058.058.047.043-.031-.016-.086.035-.098.094-.02l.039.055-.004-.07c-.008-.06-.02-.075-.075-.079-.046-.004-.078.004-.09.028-.027.05-.12.054-.105.004.008-.02 0-.043-.02-.051-.019-.008-.034-.035-.034-.059 0-.023-.012-.043-.028-.043-.015 0-.02.024-.012.059.016.058-.015.082-.043.035-.007-.016-.039-.02-.062-.012-.035.012-.05.004-.059-.031-.011-.035-.039-.05-.125-.062a.304.304 0 0 1-.144-.051c-.031-.04-.094-.04-.133-.004-.027.027-.031.023-.035-.031-.008-.059-.082-.047-.125.011-.04.067-.102.082-.102.028 0-.02-.008-.036-.023-.036-.012 0-.024.02-.024.047 0 .055-.066.063-.085.012-.008-.02 0-.05.015-.07.05-.063 0-.086-.066-.031-.059.046-.067.058-.035.093.046.055-.008.082-.063.032-.027-.024-.055-.032-.074-.02-.016.012-.05.016-.074.012-.02-.004-.047.011-.055.027-.016.047-.102.05-.102.008a.1.1 0 0 1 .028-.059c.023-.02.02-.027-.008-.027-.024 0-.047.012-.055.023-.008.016-.035.02-.058.012-.028-.008-.055.008-.079.047-.023.031-.058.059-.085.059-.028 0-.047.007-.047.023 0 .012-.016.023-.04.023-.027 0-.035-.015-.023-.058.008-.04 0-.055-.015-.05-.016.003-.032.03-.036.054-.007.066-.07.086-.117.047-.047-.043-.148-.04-.164.004-.008.023.004.027.035.02.059-.02.11.034.098.093-.004.027-.027.043-.059.043a.156.156 0 0 0-.07.015c-.004.012-.043.012-.078.004-.05-.011-.074 0-.113.059-.036.047-.075.074-.114.074-.03 0-.054.016-.054.031 0 .024-.02.036-.063.032-.039 0-.062.011-.07.03 0 .02-.016.067-.027.106-.02.059-.024.063-.04.028-.02-.051-.058-.051-.058.004 0 .043-.125.175-.145.156-.007-.008-.027.004-.043.023-.015.02-.043.035-.062.035-.016 0-.043.028-.055.055-.012.031-.039.067-.066.07a.193.193 0 0 0-.074.075.264.264 0 0 1-.098.086c-.035.011-.066.035-.066.046 0 .008-.098.118-.22.235a4.125 4.125 0 0 0-.257.281c-.024.04-.047.067-.059.067-.03 0-.214.18-.214.207 0 .035-1.118 1.148-1.31 1.304-.476.387-.64.512-.925.692a9.162 9.162 0 0 1-1.93.914c-.011 0-.046.03-.082.07-.039.043-.074.066-.097.055-.024-.008-.043.004-.055.03a.353.353 0 0 1-.031.083.597.597 0 0 0-.04.125c-.011.066-.023.086-.058.074-.039-.012-.074.024-.133.121-.027.051-.027.055.02.04.043-.016.047-.008.035.05-.027.121-.031.129-.082.113-.055-.015-.066.032-.02.079.024.02.016.027-.035.027-.05 0-.066.008-.058.039.004.023.031.047.062.05.063.009.067.044.004.06-.055.011-.105.124-.125.284-.02.114-.02.114.02.063a.124.124 0 0 0 .023-.102c-.012-.027-.004-.058.016-.07.047-.027.07 0 .043.055-.02.035-.016.043.011.043.032 0 .032.008.004.074-.02.05-.047.074-.07.07-.02 0-.043.004-.05.016-.016.031.066.078.097.055.012-.008 0 .007-.024.035-.027.031-.058.054-.078.054-.039 0-.039.008.004.09.047.094.031.317-.023.38-.035.038-.04.054-.016.077.024.02.04.016.074-.027.059-.07.098-.047.063.031-.016.035-.043.055-.063.051-.043-.012-.043.125-.004.29.012.058.028.148.028.202 0 .082.008.098.035.086.039-.015.05.04.016.074-.028.032-.051.223-.028.223.008 0 .016.043.016.094 0 .054.016.113.039.136.05.06.055.282.004.301-.02.008-.035.024-.035.035 0 .012.015.02.035.02.02 0 .035-.012.035-.027 0-.016.004-.024.012-.016s-.004.05-.028.098c-.035.078-.035.082 0 .125.028.023.04.062.032.093-.012.082.09.293.136.274.051-.016.043.031-.007.082-.055.055-.043.074.035.074.058 0 .074.04.023.063-.031.011-.031.023-.008.07.02.047.02.062-.008.078-.019.012-.027.023-.023.027a.517.517 0 0 1 .055.032c.047.027.043.074-.004.066-.02 0-.012.016.015.047.06.058.067.101.024.117-.024.008-.02.02.012.04.02.015.039.046.039.073 0 .028.02.063.039.078.039.028.039.032 0 .07-.043.04-.04.044.023.098.051.04.059.051.028.055-.047 0-.063.047-.02.047.016 0 .023.027.023.063 0 .074.133.359.165.359.011 0 .023.008.023.023 0 .012-.016.024-.035.024-.051 0-.043.039.011.054.032.008.047.032.047.07 0 .032.016.067.036.071.027.012.03.035.02.098-.013.07-.005.086.042.101.027.012.04.024.027.024-.05.004-.035.07.02.097.035.02.043.043.035.082-.012.032 0 .075.027.11a.324.324 0 0 1 .055.101c.004.028.024.043.05.04.024-.005.04.011.04.035 0 .02.016.05.039.066.043.031.023.129-.027.129-.028 0-.13-.117-.13-.149 0-.007-.042-.105-.097-.218a7.317 7.317 0 0 1-.203-.485c-.027-.058-.07-.156-.098-.215a.548.548 0 0 1-.047-.136.082.082 0 0 0-.02-.051c-.03-.035-.269-.648-.339-.879l-.121-.375c-.059-.18-.211-.75-.25-.93-.008-.054-.04-.187-.063-.293-.199-.82-.335-2.07-.265-2.445.043-.219.176-.473.344-.637.148-.144.546-.41.914-.605.351-.188.965-.574 1.21-.766.364-.281.512-.414.926-.824.246-.246.676-.703.961-1.012.668-.734 1.2-1.273 1.52-1.55.582-.508 1.098-.782 1.656-.891.227-.04.645-.024.945.039Zm-.527.727c0 .011-.008.023-.023.023a.025.025 0 0 1-.024-.023c0-.016.012-.024.024-.024.015 0 .023.008.023.024Zm-8.176.66c.157.238.344.508.418.605.074.098.242.34.38.54.25.37.39.562.75 1.027.112.148.206.27.206.277 0 .016-.273.18-.578.348-.473.261-.824.503-1.043.718-.297.301-.414.477-.566.84-.14.344-.18.578-.184 1.09 0 .621.027.941.121 1.5.028.156.063.371.082.48.02.11.051.25.067.317.02.062.07.242.109.398.332 1.278.7 2.25 1.32 3.504.473.946.938 1.637 1.407 2.082.382.36.878.59 1.277.59.605 0 1.144-.379 1.617-1.137.137-.207.387-.73.453-.921.051-.153.082-.18.102-.094l.117.617c.117.648.437 1.555.789 2.262a10.313 10.313 0 0 0 3.426 3.898c.164.113.297.211.297.211a1 1 0 0 1-.164.129c-.211.16-.313.289-.36.45-.035.124-.047.464-.101 2.698-.016.641-.008.684.136.868a.339.339 0 0 1 .067.117c0 .011-.09.199-.195.402-.348.664-.54 1.063-.903 1.832-.09.192-.285.602-.433.91l-.274.559-.223-.117a25.191 25.191 0 0 1-1.558-.95 20.887 20.887 0 0 1-5.707-5.722c-1.953-2.922-3.094-6.16-3.426-9.738-.047-.547-.07-2.258-.035-2.84.16-2.473.7-4.703 1.683-6.926.208-.473.598-1.25.63-1.25.003 0 .136.191.296.426Zm7.028-.004c0 .012-.008.023-.024.023a.025.025 0 0 1-.023-.023c0-.016.011-.024.023-.024.016 0 .024.008.024.024Zm24.656.168c0 .004.031.16.07.347.078.38.086.446.04.446-.079 0-.72-.23-.72-.262 0-.004.067-.062.149-.125.082-.059.21-.176.281-.262.113-.12.18-.175.18-.144Zm-4.277 1.488c.054.078.09.156.062.137a2.261 2.261 0 0 1-.223-.317c-.023-.043.098.09.16.18Zm5.402 1.11c0 .011-.016.023-.035.023-.02 0-.035-.012-.035-.024 0-.015.015-.023.035-.023.02 0 .035.008.035.023Zm.445.496c0 .011-.008.02-.023.02-.012 0-.024-.017-.024-.04 0-.016.012-.027.024-.02a.043.043 0 0 1 .023.04Zm.14.226c0 .02-.019.055-.046.07-.055.032-.055.032-.023-.05.027-.07.07-.082.07-.02Zm.063.274c.04.03.04.03-.02.035-.042 0-.066-.012-.066-.035 0-.043.028-.043.086 0Zm.098.25c-.004.046-.023.054-.09.058-.043.004-.062 0-.039-.008.02-.004.04-.027.04-.043 0-.027.03-.05.077-.054.012-.004.016.02.012.047Zm-32.457.996c-.004.03-.121.156-.133.14-.012-.011.04-.113.074-.136.032-.024.059-.024.059-.004Zm-.164.242c0 .012-.012.027-.027.039-.032.015-.075-.027-.06-.059.02-.027.087-.011.087.02Zm0 .164c0 .012-.008.023-.024.023a.025.025 0 0 1-.023-.023c0-.016.012-.024.023-.024.016 0 .024.008.024.024Zm-.047.32c0 .016-.008.028-.023.02-.012-.008-.024-.024-.024-.04 0-.011.012-.019.024-.019.015 0 .023.016.023.04Zm.047.102c0 .011-.008.023-.024.023a.025.025 0 0 1-.023-.023c0-.016.012-.024.023-.024.016 0 .024.008.024.024Zm-.094.117c-.016.027-.031.043-.039.039-.004-.008 0-.035.016-.063.015-.027.03-.042.039-.039.004.008 0 .036-.016.063Zm32.883-.047c0 .012-.012.023-.027.023-.012 0-.016-.011-.008-.023.008-.016.02-.023.027-.023.004 0 .008.007.008.023Zm.07.117c0 .012-.004.024-.008.024-.007 0-.02-.012-.027-.024-.008-.015-.004-.023.008-.023.016 0 .027.008.027.023Zm-32.93.102c0 .008-.007.02-.023.027-.012.008-.023.004-.023-.008 0-.015.011-.027.023-.027.016 0 .024.004.024.008Zm5.57.355a.407.407 0 0 1-.023.145c-.02.062-.046.203-.058.312-.035.278-.113.778-.133.825-.027.074-.062.02-.047-.07.008-.048.027-.16.035-.25a6.35 6.35 0 0 1 .117-.723c.028-.102.047-.207.047-.23 0-.052.043-.06.063-.009Zm-5.573.016c-.004.012-.02.023-.032.023-.011 0-.027-.011-.03-.023-.005-.016.01-.027.03-.027.02 0 .036.011.032.027Zm32.945.066c-.008.012-.023.024-.04.024-.01 0-.019-.012-.019-.024 0-.015.016-.023.04-.023.015 0 .027.008.019.023Zm.082.035c0 .02-.008.036-.023.036-.012 0-.024-.016-.024-.036 0-.02.012-.035.024-.035.015 0 .023.016.023.035Zm-.164.036c0 .011-.008.023-.023.023a.025.025 0 0 1-.024-.023c0-.016.012-.024.023-.024.016 0 .024.008.024.024Zm-32.883.093c0 .012-.008.024-.023.024a.025.025 0 0 1-.024-.024c0-.015.012-.023.024-.023.015 0 .023.008.023.023Zm32.977.211c0 .012-.016.024-.04.024-.015 0-.027-.012-.019-.024a.043.043 0 0 1 .04-.023c.01 0 .019.008.019.023Zm.047.13c0 .019-.02.034-.047.034-.047 0-.063-.027-.032-.054.028-.032.079-.016.079.02Zm-27.676.87c0 .024-.008.086-.016.133-.015.164-.058.156-.058-.012 0-.082.007-.16.015-.168.028-.03.067 0 .059.047Zm-5.207.043c0 .032-.008.059-.024.059-.011 0-.023-.027-.023-.059 0-.031.012-.058.023-.058.016 0 .024.027.024.058Zm5.148.403c-.02.02-.066-.016-.047-.043.008-.016.024-.016.04 0 .011.015.019.03.007.043Zm27.57-.04c0 .012-.007.024-.023.024a.025.025 0 0 1-.023-.023c0-.016.011-.024.023-.024.016 0 .023.008.023.024Zm-27.624.407c-.004.105-.02.226-.032.265a.268.268 0 0 0-.008.122c.016.058-.023.082-.066.035-.023-.028-.023-.047 0-.082a.331.331 0 0 0 .031-.145c-.004-.148.008-.223.04-.254.019-.02.019-.039 0-.07-.024-.047-.005-.098.03-.078.012.008.012.097.005.207Zm-.075.633a.633.633 0 0 0-.039.191.903.903 0 0 1-.027.184c-.024.035-.05-.04-.031-.078a.543.543 0 0 0 .007-.196c-.007-.137 0-.164.047-.21l.051-.052.008.067c.004.035-.004.078-.016.094Zm-.11.687a1.747 1.747 0 0 1-.026.227c-.016.023-.098-.075-.102-.11 0-.011.016-.043.04-.066.03-.035.034-.047.007-.082-.027-.027-.027-.04.004-.059a.104.104 0 0 1 .05-.02c.012 0 .012-.019.004-.046-.007-.027-.003-.047.016-.047.016 0 .02.055.008.203Zm24.727.363c-.015.055-.007.067.032.067.043 0 .047.015.039.191-.004.11 0 .18.004.164.015-.043.054-.008.054.047 0 .024-.007.04-.02.035-.01-.008-.03 0-.034.024-.024.05-.114.027-.149-.04-.035-.07-.043-.421-.008-.421.016 0 .024-.031.024-.067 0-.074.02-.101.05-.082.012.004.016.043.008.082Zm-24.785-.035-.015.04c-.012.03-.024.03-.07.011-.075-.035-.07-.062.015-.062.04.003.07.003.07.011Zm-.047.293c-.015.035-.039.059-.05.051-.028-.016-.024-.133.007-.168.047-.047.075.035.043.117Zm27.536.14c-.028.052-.059.056-.075.005-.023-.051 0-.074.055-.063.04.012.043.024.02.059Zm-27.59.024c-.008.02-.012.012-.012-.011-.004-.028.004-.043.012-.032a.054.054 0 0 1 0 .043Zm-.016.075a.216.216 0 0 1-.031.074c-.04.05-.074.011-.05-.059.015-.05.081-.066.081-.015Zm27.547.054c.012.024.004.031-.012.028-.035-.012-.054-.067-.023-.067.012 0 .031.016.035.04Zm-2.637.121c.008.02-.004.032-.023.024a.064.064 0 0 1-.04-.04c-.007-.019.005-.03.024-.023a.064.064 0 0 1 .04.04Zm.262-.008c0 .02-.008.036-.023.036-.012 0-.024-.016-.024-.036 0-.02.012-.035.024-.035.015 0 .023.016.023.035Zm-25.266.04c0 .023-.02.074-.043.105-.039.047-.046.047-.058.016-.028-.063-.016-.121.027-.145.059-.035.074-.031.074.024Zm25.149.02c0 .01-.012.023-.028.023-.011 0-.015-.012-.007-.024.007-.016.02-.023.027-.023.004 0 .008.007.008.023Zm-28.824.05c-.016.015-.028.02-.028.004 0-.032.028-.059.043-.043.008.008 0 .027-.015.039Zm28.824.14c0 .063-.055.043-.067-.023-.007-.035.004-.047.028-.035.023.004.039.035.039.058Zm.144.004c-.004.028-.035.02-.047-.011-.007-.012.004-.024.02-.016.016.004.027.016.027.027Zm-25.406.09-.023.055v-.063c-.004-.03.004-.066.011-.074.028-.031.036.02.012.082Zm25.617.168c-.004.028-.035.02-.047-.012-.007-.011.004-.023.02-.015.016.004.027.015.027.027Zm-.203.016c.008.012.004.023-.008.023-.015 0-.027-.011-.027-.023 0-.016.004-.024.008-.024.008 0 .02.008.027.024Zm.13.12c0 .056-.056.048-.067-.01-.004-.024.007-.04.027-.04.023 0 .04.02.04.05Zm.046.09c0 .012-.004.024-.008.024-.008 0-.02-.012-.027-.023-.008-.016-.004-.024.008-.024.015 0 .027.008.027.024Zm-28.703.184c-.012.016-.078-.047-.078-.07 0-.012.02 0 .043.02.023.023.039.046.035.05Zm2.785.082c-.031.032-.063.008-.04-.027.009-.016.028-.02.04-.012.016.008.016.024 0 .04Zm26.246.051c0 .02-.016.035-.035.035a.035.035 0 0 1-.035-.035c0-.02.015-.035.035-.035.02 0 .035.016.035.035Zm-28.934.035c.008.012.004.024-.007.024-.016 0-.028-.012-.028-.024 0-.015.004-.023.008-.023.008 0 .02.008.027.023Zm29.942.032c0 .02-.008.043-.024.05-.011.008-.023-.007-.023-.03 0-.032.012-.052.023-.052.016 0 .024.016.024.032Zm-.48.175c-.016.016-.083-.043-.083-.074 0-.012.02-.004.047.02.028.023.043.047.035.054Zm-26.895-.035c0 .008-.008.02-.024.028-.011.007-.023.003-.023-.008 0-.016.012-.028.023-.028.016 0 .024.004.024.008Zm-2.336.121c-.008.02-.016.035-.024.035-.003 0-.007-.015-.007-.035 0-.02.008-.035.023-.035.012 0 .016.016.008.035Zm.082.125c.008.02-.004.032-.023.024a.064.064 0 0 1-.04-.04c-.007-.019.004-.03.024-.023a.064.064 0 0 1 .039.04Zm.105.137c.024.004.04.023.04.04 0 .01.015.042.039.065.023.028.027.043.011.043-.031 0-.14-.113-.144-.148 0-.02.008-.02.054 0Zm.196.21c.015.024.031.052.031.063 0 .032-.086-.027-.102-.066-.02-.05.032-.043.07.004Zm.215.188c.043.043.074.086.066.094-.012.012-.227-.152-.227-.172 0-.004.016-.008.04-.008.023 0 .074.04.12.086Zm19.054 1.961c.075.043.492.465.645.653.512.633.898 1.562.969 2.32.011.145.003.188-.024.234-.027.04-.031.063-.012.098.016.031.016.063-.011.117-.02.043-.043.094-.051.117-.012.043-.02.043-.086-.023-.07-.063-.07-.063-.082-.012-.008.028-.027.051-.047.051-.023 0-.031-.035-.035-.125-.008-.371-.055-.758-.094-.781-.012-.004-.02-.035-.02-.059a.962.962 0 0 0-.05-.215 16.983 16.983 0 0 1-.07-.25 2.672 2.672 0 0 0-.247-.672c-.082-.167-.156-.316-.171-.324-.012-.008-.024-.031-.024-.05 0-.02-.066-.137-.148-.262a6.332 6.332 0 0 1-.2-.32 4.017 4.017 0 0 0-.203-.29c-.187-.242-.195-.289-.039-.207Zm2.934 4.114c0 .18.008.359.015.394.012.067.004.078-.113.145-.226.129-.996.418-1.023.386-.008-.003.023-.082.07-.168.106-.187.192-.437.234-.632.024-.13.036-.153.098-.184.117-.062.633-.262.68-.262.035-.004.039.028.039.32Zm1.152.582c.031.09-.015.226-.113.32-.05.055-.262.172-.555.316-.508.246-.55.266-.87.38l-.25.093c-.106.055-.618.219-.849.273-.144.032-.292.07-.332.079a4.171 4.171 0 0 1-1.136.16 1.056 1.056 0 0 1-.235-.02c0-.015.11-.05.457-.156.118-.031.329-.102.47-.148.144-.051.304-.102.362-.118a4.92 4.92 0 0 0 .305-.097c.11-.04.274-.094.363-.125.09-.032.297-.102.457-.164.16-.063.36-.133.446-.164.218-.079.847-.375 1.066-.504.39-.23.371-.227.414-.125Zm-15.77.21c.063.036.122.083.134.11.019.05.394.29.609.383.183.082.441.172.543.183.055.008.105.02.11.028.023.023-.208.218-.274.234-.09.024-.297-.027-.465-.11a.98.98 0 0 0-.164-.07.948.948 0 0 1-.277-.152 1.123 1.123 0 0 0-.153-.105 1.601 1.601 0 0 1-.191-.141c-.082-.074-.094-.094-.098-.215-.004-.129.027-.207.09-.207.016 0 .078.027.137.063Zm2.212.95c.457.2.672.777.57 1.504-.063.414-.098.566-.148.61-.067.058-.11.198-.079.269.02.039.016.078-.004.129-.02.043-.046.18-.062.308a5.576 5.576 0 0 1-.148.738c-.051.196-.137.399-.165.399-.011 0-.03.039-.046.082-.036.101-.207.254-.329.289a1.18 1.18 0 0 1-.265.027c-.188 0-.317-.039-.39-.113a.201.201 0 0 0-.102-.055c-.035-.004-.055-.023-.051-.047 0-.023-.008-.035-.02-.027-.011.004-.039 0-.058-.02-.028-.023-.028-.03.004-.066.03-.039.03-.043-.028-.082-.054-.035-.058-.043-.023-.074.031-.035.043-.031.09.016.086.078.168.113.34.144.203.035.328.004.453-.113.144-.13.187-.219.312-.645.043-.144.145-.789.211-1.355.012-.102.016-.106.035-.074.075.117.106-.434.047-.848-.043-.336-.156-.559-.344-.668-.093-.055-.136-.063-.308-.063-.11 0-.246.008-.301.02l-.102.023.036-.07c.07-.137.257-.27.449-.312.11-.028.265 0 .426.074Zm12.914.125a.39.39 0 0 1 .187.394c-.031.211-.152.368-.297.368-.03 0-.047-.016-.047-.043a.111.111 0 0 0-.035-.075c-.039-.03-.043-.015-.011.047.015.032.015.051-.012.07-.05.04-.223-.097-.223-.175 0-.031-.008-.063-.023-.07-.04-.024-.028-.297.02-.387.046-.102.175-.188.269-.188a.47.47 0 0 1 .172.059Zm-11.91.117c.16.031.394.074 1.027.176.465.074 1.379.148 2.121.176.234.007.477.023.539.03.098.013.11.024.117.079a.141.141 0 0 1-.039.11c-.043.042-.078.042-.687.035-.938-.008-.95-.012-1.473-.06-.559-.05-.57-.05-.89-.097-.45-.066-.817-.152-.876-.199a.86.86 0 0 1-.156-.266c0-.027.133-.023.317.016Zm6.511 1.672c-.004 1.031-.011 1.355-.035 1.41l-.027.066-.262-.003a9.8 9.8 0 0 0-.562.02c-.168.007-.532.019-.805.019-.399 0-.504-.004-.531-.036-.02-.015-.04-.09-.047-.16a9.438 9.438 0 0 0-.102-.718c-.012-.059-.012-.114 0-.133.012-.024.027-.145.035-.274.012-.195.012-.238-.02-.23-.023.004-.034-.078-.046-.473a10.986 10.986 0 0 0-.031-.601c-.016-.098-.008-.13.015-.133.016-.008.305-.02.64-.024.56-.015 1.333-.054 1.419-.074.02-.004.11-.004.2-.004l.163.004Zm2.766-.973c.23.098.375.352.312.559a.73.73 0 0 1-.3.351.304.304 0 0 1-.223.032c-.203-.028-.316-.153-.316-.36 0-.386.03-.453.253-.566.11-.055.172-.059.274-.016Zm-9.317.688c.067.238-.003.636-.164.879l-.046.078.011-.106.059-.41c.031-.168.05-.347.05-.402 0-.153.055-.176.09-.04Zm12.13 1.058c.035.078.078.184.093.235.02.05.05.117.07.148.02.031.149.332.286.676.136.344.382.945.543 1.348.164.398.336.828.386.957.051.125.086.246.082.27-.02.046-.379.222-.422.206-.02-.008-.058-.097-.093-.207a21.32 21.32 0 0 0-.32-.933c-.067-.188-.15-.43-.188-.54-.242-.734-.309-.89-.41-.984-.055-.05-.082-.058-.23-.055-.302.004-.56.172-.782.504-.133.2-.203.407-.242.696-.031.242-.02.386.05.656.157.594.68 1.144 1.196 1.25.074.016.137.035.137.047 0 .027-.555.273-.891.394-.648.23-.79.282-1.008.348-.12.039-.406.129-.633.2a9.902 9.902 0 0 1-1.09.3c-.753.172-1.054.234-1.3.27-.137.015-.27.035-.301.042-.191.043-1.02.114-1.727.145-.53.023-1.761.012-2.203-.016-.91-.058-1.293-.097-1.332-.14-.011-.012 0-.102.035-.215.047-.164.055-.246.051-.488 0-.254-.008-.317-.062-.465a1.499 1.499 0 0 0-.38-.606c-.429-.433-1.116-.527-1.702-.23-.352.18-.7.637-.793 1.043-.078.344-.067.324-.215.277-.227-.074-.75-.265-.852-.312-.062-.032-.218-.094-.34-.145a6.951 6.951 0 0 1-.414-.176l-.195-.086v-.105c0-.195-.09-.578-.18-.746a1.234 1.234 0 0 0-.472-.496c-.117-.063-.14-.067-.344-.059-.211.008-.223.012-.3.086-.071.066-.13.176-.274.504-.031.074-.059.105-.074.094-.02-.024.035-.164.195-.52.035-.082.066-.152.066-.156 0-.008.043-.102.094-.211.05-.11.094-.203.094-.207 0-.008.043-.102.09-.21.054-.106.164-.349.246-.536.37-.832.601-1.293.652-1.305.023-.004.047.016.055.047s.043.11.074.18c.027.066.055.14.055.164 0 .055.117.277.254.48l.132.207c.012.024.032.043.04.043.007 0 .03.016.046.028.137.132.293.23.586.375.024.011.07.02.098.02.035 0 .066.007.074.023.008.011.055.023.102.023.047 0 .101.016.117.027.023.024.031.024.047 0 .011-.02.07-.023.187-.02.094.009.176 0 .184-.01.004-.013.027-.02.047-.02.054 0 .351-.157.457-.239.05-.043.175-.156.273-.25.23-.222.313-.285.371-.285.024 0 .059-.012.07-.027.028-.024.458-.035.497-.012.027.02.55.082.918.113.148.012.316.024.375.032.922.101 3.156.093 4.09-.012.117-.012.406-.043.644-.074a24.143 24.143 0 0 0 1.617-.254l.48-.094c.31-.062.653-.144.926-.227.11-.03.305-.09.434-.128a12.949 12.949 0 0 0 1.863-.707c.098-.047.188-.082.203-.086.012 0 .051.062.086.136Zm-14.758.524a.42.42 0 0 1 .062.09c.008.027.012.027.012-.008.008-.082.058-.024.09.09.015.062.058.172.097.246.07.133.07.133.024.172-.043.039-.043.043-.004.109.023.04.031.078.023.086-.02.02-.082-.043-.195-.191-.063-.079-.066-.098-.031-.118.039-.023.027-.129-.012-.129-.02 0-.035-.007-.035-.02 0-.01-.02-.019-.043-.01-.09.023-.2-.317-.113-.352.054-.024.078-.016.125.035Zm.03.422c0 .011-.007.02-.023.02-.011 0-.023-.016-.023-.04 0-.016.012-.027.023-.02a.043.043 0 0 1 .024.04Zm0 0"
        style="stroke:none;fill-rule:nonzero;fill:#000;fill-opacity:1" />
    <path
        d="M26.93 3.984c0 .012.011.024.023.024.016 0 .024-.012.024-.024 0-.015-.008-.023-.024-.023-.012 0-.023.008-.023.023ZM26.715 4.117a.054.054 0 0 0 .043 0c.012-.008-.004-.015-.031-.012-.024 0-.032.004-.012.012ZM26.602 4.191c0 .016.011.032.023.04.016.007.023-.004.023-.02 0-.024-.007-.04-.023-.04-.012 0-.023.009-.023.02ZM20.965 4.71c-.008.013-.004.024.008.024.015 0 .027-.011.027-.023 0-.016-.004-.024-.008-.024-.008 0-.02.008-.027.024ZM21.504 4.992c-.008.012.004.024.023.024.02 0 .032-.012.024-.024-.008-.015-.02-.023-.024-.023s-.015.008-.023.023ZM22.328 5.758c-.027.027-.015.054.02.054.02 0 .035-.007.035-.019 0-.031-.04-.055-.055-.035ZM22.746 6.234c-.008.012.008.024.035.024.028 0 .043-.012.035-.024a.042.042 0 0 0-.035-.023.042.042 0 0 0-.035.023ZM22.809 6.473c.007.015.043.035.082.039.062.008.062.008.02-.028-.056-.046-.114-.05-.102-.011ZM22.992 6.793c0 .047.031.098.059.098.05 0 .066-.043.035-.082-.031-.04-.094-.047-.094-.016ZM15.34 6.844c.008.011.02.023.027.023.004 0 .008-.012.008-.023 0-.016-.012-.024-.027-.024-.012 0-.016.008-.008.024ZM23.438 7.316c0 .012.019.028.042.036.02.007.06.03.082.05.047.043.086.016.036-.027-.051-.047-.16-.09-.16-.059ZM23.848 7.547c.007.016.027.02.039.012.031-.02.023-.036-.02-.036-.015 0-.027.012-.02.024ZM23.766 7.613c0 .016.011.032.023.04.016.007.023-.005.023-.02 0-.024-.007-.04-.023-.04-.012 0-.023.009-.023.02ZM23.934 7.715c.015.047.09.05.09.012 0-.024-.02-.04-.051-.04-.028 0-.043.012-.04.028ZM23.777 7.758c.008.012.024.023.04.023.011 0 .019-.011.019-.023 0-.016-.016-.024-.04-.024-.015 0-.026.008-.019.024ZM14.46 7.992c0 .012.017.024.036.024.05 0 .043.082-.012.109-.03.016-.039.027-.023.055.02.03.031.027.07-.024.055-.074.059-.113.008-.156-.05-.035-.078-.04-.078-.008ZM37.746 5.39c.008.012.031.024.05.024.017 0 .032-.012.032-.023 0-.016-.02-.024-.05-.024-.024 0-.04.008-.032.024ZM37.57 5.508c0 .012.012.023.024.023.015 0 .023-.011.023-.023 0-.016-.008-.024-.023-.024-.012 0-.024.008-.024.024ZM37.469 5.563c-.008.019-.004.042.008.05.03.02.054-.035.027-.062-.012-.016-.024-.012-.035.011ZM11.93 6.96c0 .013.011.024.023.024.016 0 .024-.011.024-.023 0-.016-.008-.024-.024-.024-.012 0-.023.008-.023.024ZM5.906 8.457c0 .012.012.031.024.04.015.007.023.003.023-.009 0-.011-.008-.031-.023-.039-.012-.008-.024-.004-.024.008ZM5.746 8.664c0 .024.004.031.012.012a.054.054 0 0 0 0-.043c-.008-.012-.016.004-.012.031ZM5.313 8.852c-.028.027-.02.054.019.054.02 0 .035-.015.035-.035 0-.039-.027-.047-.054-.02ZM5.496 8.93c-.008.011-.004.023.008.023.016 0 .027-.012.027-.023 0-.016-.004-.024-.008-.024-.007 0-.02.008-.027.024ZM5.086 9.117c0 .012.016.024.035.024.02 0 .035-.012.035-.024 0-.015-.015-.023-.035-.023-.02 0-.035.008-.035.023ZM4.64 9.352c0 .011.012.023.024.023.016 0 .024-.012.024-.023 0-.016-.008-.024-.024-.024-.012 0-.023.008-.023.024ZM4.453 9.469c0 .011.008.023.02.023.015 0 .03-.012.039-.023.008-.016-.004-.024-.02-.024-.023 0-.039.008-.039.024ZM4.254 9.563c.008.015.027.019.039.011.031-.02.023-.035-.02-.035-.015 0-.027.012-.02.024ZM42.691 7.336c-.007.012-.004.023.008.023.016 0 .028-.011.028-.023 0-.016-.004-.024-.008-.024-.008 0-.02.008-.028.024ZM42.223 7.5c-.008.012-.004.023.007.023.016 0 .028-.011.028-.023 0-.016-.004-.023-.008-.023-.008 0-.02.007-.027.023ZM42.094 7.566c0 .016.011.032.023.04.016.007.024-.004.024-.02 0-.024-.008-.04-.024-.04-.012 0-.023.009-.023.02ZM41.602 7.71c0 .013.011.024.027.024.012 0 .016-.011.008-.023-.008-.016-.02-.024-.028-.024-.004 0-.007.008-.007.024ZM41.344 8.086c0 .012.011.023.023.023.016 0 .024-.011.024-.023 0-.016-.008-.024-.024-.024-.012 0-.023.008-.023.024ZM40.57 8.508c0 .012.012.023.024.023.015 0 .023-.011.023-.023 0-.016-.008-.024-.023-.024-.012 0-.024.008-.024.024ZM39.836 9.031c-.012.035.004.063.035.063.027 0 .024-.063 0-.078-.012-.008-.027 0-.035.015ZM39.633 9.14c0 .012.008.024.02.024.015 0 .03-.012.038-.023.008-.016-.004-.024-.02-.024-.023 0-.038.008-.038.024ZM39.188 9.504c-.024.031-.02.035.019.035.027 0 .05-.008.05-.02 0-.042-.042-.05-.07-.015ZM38.945 9.594c-.008.02-.008.043 0 .047.016.02.078-.028.078-.059 0-.035-.062-.023-.078.012ZM26.793 16.445c-1.254.27-2.227 1.36-2.555 2.856-.058.265-.062.32-.062.898v.617l-.059.032c-.031.015-.16.066-.289.117a2.703 2.703 0 0 0-.355.156 1.064 1.064 0 0 1-.141.067c-.008 0-.008-.047-.004-.106.031-.191.02-.836-.015-1.043-.09-.52-.192-.82-.43-1.297-.145-.289-.399-.691-.5-.789a4.53 4.53 0 0 1-.117-.137c-.23-.28-.754-.695-1.09-.863-.211-.11-.707-.265-.832-.265-.09 0-.043.042.152.152.438.238 1.059.765 1.387 1.172.71.883 1.082 1.96 1.031 2.976-.023.438-.023.442-.164.532a3 3 0 0 0-.246.18 1.113 1.113 0 0 1-.367.214c-.215.066-.934.484-1.184.684-.043.035-.172.136-.277.222-.446.352-1.242 1.246-1.434 1.602-.015.031-.074.113-.12.183-.052.067-.13.204-.169.305-.101.246-.183.293-.59.344-.039.004-.129.02-.199.035-.07.016-.156.027-.191.035a.48.48 0 0 0-.086.02 3.505 3.505 0 0 1-.43.031c-.223.004-.45.016-.496.02a.274.274 0 0 1-.137-.02c-.027-.02-.047-.02-.074.004-.04.031-.094.016-.074-.02.008-.011 0-.027-.016-.039-.012-.008-.035 0-.047.02-.023.043-.285.039-.336-.004-.02-.016-.054-.02-.082-.012-.035.012-.058.004-.078-.023-.023-.035-.035-.035-.058-.004-.024.027-.043.027-.106.008a.461.461 0 0 1-.117-.059c-.027-.023-.047-.023-.082-.008-.055.032-.102-.011-.055-.039.02-.012.02-.031-.008-.066-.03-.043-.03-.04-.035.008 0 .074-.031.07-.097-.012a.416.416 0 0 0-.098-.082c-.047-.016-.05-.067-.012-.102.016-.015.02-.047.012-.066-.012-.035-.02-.035-.055-.004-.039.043-.078.05-.078.02 0-.008.012-.032.027-.043.02-.024.016-.04-.011-.07-.024-.02-.035-.052-.031-.071.019-.047-.075-.102-.149-.086-.047.008-.066 0-.078-.027-.012-.035-.008-.04.062-.028.055.008.098 0 .125-.02.04-.03.04-.03-.027-.034-.184-.004-.2-.008-.2-.04 0-.023.017-.03.036-.023.043.02.043-.015 0-.055-.02-.015-.035-.043-.035-.062 0-.02-.027-.059-.059-.082-.043-.035-.054-.063-.043-.094.012-.039.004-.047-.03-.035-.036.012-.056 0-.075-.043-.016-.031-.04-.086-.055-.113-.015-.035-.02-.078-.012-.094.008-.023.004-.04-.007-.04-.016 0-.024.013-.024.028 0 .012-.008.016-.023.008-.012-.008-.024-.055-.024-.101a.26.26 0 0 0-.039-.141c-.031-.047-.031-.05.008-.05.035 0 .035-.005-.004-.032-.027-.02-.039-.047-.027-.07.008-.024 0-.04-.02-.04-.023 0-.035-.023-.035-.066a.18.18 0 0 0-.02-.09c-.03-.027-.105-.468-.09-.515a.095.095 0 0 0-.007-.078c-.031-.063-.043-.485-.02-.797.024-.32.11-.739.223-1.075.082-.253.356-.824.484-1.007a4.517 4.517 0 0 1 1.739-1.54c.75-.382 1.633-.523 2.539-.398.086.016.097.008.097-.031 0-.047-.101-.145-.152-.145a.283.283 0 0 1-.101-.039c-.13-.062-.465-.144-.715-.176-.977-.109-2.188.29-3.004.997-.57.5-1.063 1.171-1.336 1.832a6.04 6.04 0 0 0-.363 1.48 5.9 5.9 0 0 0 .03 1.238c.11.532.223.856.442 1.243.117.218.317.496.45.636.039.043.066.082.058.094-.02.016-.46-.207-.629-.324a2.56 2.56 0 0 1-.312-.258l-.188-.172.016.082c.023.125.215.387.46.633.512.512 1.13.785 2.005.887.738.09 1.66-.078 2.34-.422.101-.047.19-.09.206-.09.036 0 .024.043-.128.488-.075.207-.133.39-.133.403 0 .07.066-.016.27-.36.273-.453.59-.926.827-1.246a9.53 9.53 0 0 1 1.641-1.676c.254-.195.828-.562.883-.562.043 0 .043.004-.016.176-.035.109-.047.203-.047.398-.004.227.008.285.07.473.165.492.442.93.833 1.328.57.582 1.203.984 1.89 1.207.508.16.688.191 1.188.191.644 0 1.144-.136 1.68-.468.628-.383 1.054-.848 1.417-1.547.137-.262.188-.395.278-.7.039-.148.055-.164.097-.117.024.035.247.578.297.73.09.278.16.723.203 1.243.06.793-.082 1.805-.382 2.75-.102.328-.23.683-.313.879-.031.07-.074.168-.094.222l-.039.09.094-.101c.215-.23.547-.774.715-1.176.332-.781.469-1.441.469-2.25.004-.516-.024-.742-.125-1.148-.086-.329-.114-.458-.106-.465a.845.845 0 0 1 .18.074c.273.133.586.223.933.273.293.043.899.02 1.13-.043.378-.101.726-.28.933-.48.148-.14.328-.375.328-.422 0-.05-.016-.047-.09.004-.078.055-.523.25-.738.324-.29.098-.813.18-.813.129 0-.008.063-.09.145-.18.363-.418.691-1.129.797-1.722.086-.492.11-1.012.066-1.383-.14-1.129-.578-2.05-1.34-2.828-.937-.957-2.18-1.317-3.43-.992-.218.058-.48.18-.597.285l-.082.07.14-.012c.079-.008.227-.023.329-.039.25-.035.812-.039 1.09-.004.918.11 1.633.457 2.285 1.114.348.351.531.605.734 1.015.29.582.426 1.164.434 1.844.008.953-.215 1.86-.582 2.355a1.046 1.046 0 0 0-.106.16c0 .024-.129.18-.23.286l-.106.101-.53-.011a7.77 7.77 0 0 1-.735-.043c-.172-.024-.207-.035-.219-.075-.027-.093-.309-.664-.438-.886a2.192 2.192 0 0 1-.132-.25c0-.012.086-.051.183-.082a2.362 2.362 0 0 0 1.16-.79c.32-.402.47-.757.528-1.25.062-.5-.133-1.25-.414-1.59l-.067-.073-.082.058c-.14.106-.222.137-.37.137a.582.582 0 0 1-.419-.172.716.716 0 0 1-.168-.406c0-.078.07-.25.117-.278.059-.039.008-.086-.168-.171-.246-.118-.468-.168-.84-.184a2.462 2.462 0 0 0-2.28 1.285c-.145.262-.27.75-.274 1.04 0 .288.039.265-.465.257a4.27 4.27 0 0 0-1.207.121c-.125.027-.164.031-.187.012-.04-.043-.051-.715-.016-.965.203-1.426 1.004-2.527 2.293-3.156.14-.07.262-.133.262-.14 0-.017-.203 0-.348.03Zm-.098 4.637c.16.02.399.063.532.09.382.094.984.379 1.195.562.105.09.105.094.05.114-.027.011-.058.011-.074-.004-.043-.04-.082-.028-.093.027-.008.047-.012.043-.012-.012-.004-.062-.008-.066-.078-.047-.043.012-.145.016-.223.012-.144-.008-.148-.004-.148.051 0 .04-.016.063-.035.063-.02 0-.036-.016-.036-.04 0-.027-.015-.035-.062-.023-.04.008-.125.023-.195.031-.254.024-.282.032-.282.078 0 .067-.043.078-.05.02-.008-.055-.028-.059-.247-.047-.011.004-.035.027-.05.055-.024.05-.024.05-.024.004-.004-.043-.02-.047-.175-.047-.13 0-.18.008-.188.031-.02.043-.063.04-.063-.004 0-.02-.007-.035-.023-.035-.012 0-.023.016-.023.031 0 .02-.012.043-.028.055-.02.012-.023 0-.015-.035.011-.04.004-.055-.04-.067-.062-.015-.105.004-.105.047 0 .059-.066.094-.105.063-.02-.016-.055-.02-.086-.008-.047.012-.051.012-.024-.024.055-.066.016-.097-.175-.144-.16-.04-.2-.063-.297-.156-.082-.078-.137-.114-.18-.114a.098.098 0 0 1-.094-.058c-.02-.043-.043-.055-.074-.043-.035.008-.043 0-.043-.059 0-.058-.008-.074-.043-.074-.027 0-.055.008-.062.023-.008.012-.028.016-.047.008-.02-.008-.035 0-.035.024 0 .043-.047.05-.086.02-.012-.016-.059-.016-.125 0a3.592 3.592 0 0 1-.153.027.312.312 0 0 1-.062.011c-.012 0-.02.02-.02.04 0 .038-.027.042-.062.011-.016-.016-.063-.016-.157.008-.175.047-.187.055-.171.137.02.082-.024.086-.059.007-.016-.03-.04-.058-.059-.058a.544.544 0 0 0-.234.125c-.012.02-.059.039-.11.047-.05.008-.105.023-.124.043-.016.015-.063.027-.102.03a.301.301 0 0 0-.133.056c-.035.027-.074.05-.093.05-.016 0-.032.016-.032.036 0 .039-.043.043-.09.015-.035-.023-.02-.074.02-.074a.694.694 0 0 0 .144-.094c.153-.117.614-.355.872-.449.773-.29 1.835-.426 2.593-.336Zm-1.472.566c.02.036.03.075.027.082-.016.028-.125-.097-.125-.136 0-.051.05-.024.098.054Zm.136.055c0 .012-.007.024-.023.024a.025.025 0 0 1-.023-.024c0-.015.011-.023.023-.023.016 0 .023.008.023.023Zm-.257.07c0 .012-.008.024-.024.024a.025.025 0 0 1-.023-.024c0-.015.011-.023.023-.023.016 0 .024.008.024.023Zm.187.079c0 .007-.008.02-.023.027-.012.008-.024.004-.024-.008 0-.016.012-.027.024-.027.015 0 .023.004.023.008Zm.305.039c0 .011-.008.023-.024.023a.025.025 0 0 1-.023-.023c0-.016.012-.024.023-.024.016 0 .024.008.024.024Zm2.36.062c-.02.024-.044.035-.056.027-.023-.023.016-.066.059-.066.035 0 .035.004-.004.04Zm-2.43.016c0 .008-.008.02-.024.027-.012.008-.023.004-.023-.008 0-.015.011-.027.023-.027.016 0 .023.004.023.008Zm2.242.054c-.024.024-.047-.011-.024-.043.012-.023.016-.023.028 0a.07.07 0 0 1-.004.043ZM27.617 22c.02.023-.027.105-.058.09-.032-.02-.024-.106.011-.106.02 0 .04.008.047.016Zm-4.586.117c-.008.008-.031.008-.054 0-.028-.012-.032-.023-.004-.055.023-.03.027-.03.05.004.012.02.012.043.008.051Zm-.117.043c-.008.02-.023.035-.039.035s-.016-.015 0-.05c.031-.051.063-.043.04.015Zm4.234-.012c-.015.051-.043.063-.07.02a.043.043 0 0 1 .02-.047c.05-.031.062-.023.05.027Zm.004.165c.008.011.004.023-.007.023-.016 0-.028-.012-.028-.023 0-.016.004-.024.008-.024.008 0 .02.008.027.023Zm-11.918 2.37c0 .012-.015.02-.035.02-.035 0-.047-.027-.02-.055.016-.02.055.004.055.036Zm.055.106c.024.055.02.063-.02.031-.039-.03-.046-.07-.015-.07.012 0 .031.016.035.04Zm0 0"
        style="stroke:none;fill-rule:nonzero;fill:#000;fill-opacity:1" />
    <path
        d="M25.36 21.375c0 .012.015.023.03.023.02 0 .044-.011.051-.023.008-.016-.007-.023-.03-.023-.032 0-.052.007-.052.023ZM25.313 21.504c0 .035.015.058.03.058.048 0 .067-.058.032-.09-.043-.042-.063-.03-.063.032ZM26.102 21.934c-.008.011-.004.03.011.039.035.023.059-.008.028-.04-.016-.015-.032-.015-.04 0ZM18.516 18.703c-.836.11-1.54.649-1.88 1.438-.14.316-.187.574-.19.964 0 .282.011.364.062.575.183.703.64 1.261 1.289 1.574.324.152.527.191.976.191.34 0 .415-.008.614-.062a2.423 2.423 0 0 0 1.097-.617c.332-.317.598-.75.7-1.133a2.75 2.75 0 0 0 .074-.91c-.051-.395-.172-.778-.32-1.032-.067-.113-.06-.113-.278-.02-.234.102-.45.071-.66-.089-.145-.113-.21-.36-.145-.547.028-.07.028-.082-.027-.12-.078-.063-.285-.138-.476-.18-.2-.04-.637-.06-.836-.032ZM15.48 24.629c-.007.012-.003.031.012.039.012.008.024-.004.024-.02 0-.043-.016-.05-.036-.02ZM15.816 24.906c-.027.032-.023.035.012.028a.083.083 0 0 0 .059-.04c.011-.039-.032-.035-.07.012ZM32.258 24.977c-.332.164-.27.773.137 1.394.183.277.496.59.699.7a.516.516 0 0 0 .332.081c.156 0 .183-.007.261-.066.137-.106.168-.184.168-.426-.003-.23-.039-.367-.167-.629a2.425 2.425 0 0 0-.493-.676c-.21-.199-.32-.27-.554-.359-.18-.066-.278-.074-.383-.02ZM15.719 24.98c-.012.012-.008.032.004.036.011.011.03.007.035-.004.012-.012.008-.032-.004-.035-.012-.012-.031-.008-.035.003ZM15.586 25.055c0 .011.016.023.039.023.016 0 .027-.012.02-.023a.043.043 0 0 0-.04-.024c-.011 0-.02.008-.02.024ZM16.031 25.082c0 .055.055.047.067-.012.004-.023-.008-.039-.028-.039-.023 0-.039.02-.039.051ZM14.977 26.703c-.38.082-.73.402-.97.875-.179.352-.222.68-.136.965a.629.629 0 0 0 .344.406c.14.067.164.07.332.063.691-.043 1.316-.903 1.223-1.672-.047-.367-.211-.582-.477-.63a2.106 2.106 0 0 0-.14-.026.688.688 0 0 0-.176.02ZM18.11 27.316c-.47.13-1.016.653-1.325 1.266-.254.512-.34 1.133-.21 1.55.09.298.363.481.655.446.457-.062.961-.504 1.266-1.105.348-.684.438-1.399.242-1.883a.523.523 0 0 0-.328-.281c-.125-.032-.156-.032-.3.007ZM41.813 26.512c0 .015.027.05.058.074.074.055.11 0 .035-.059-.062-.05-.093-.054-.093-.015ZM40.578 26.71c-.047.048-.047.06-.02.071.047.016.106-.031.106-.09 0-.058-.023-.05-.086.02ZM41.027 27.96c-.007.013-.004.024.008.024s.031-.011.04-.023c.007-.016.003-.023-.009-.023-.011 0-.03.007-.039.023ZM41.156 27.992c-.043.043-.027.067.04.047.046-.012.07-.004.105.043.047.066.086.04.047-.035-.024-.063-.149-.094-.192-.055ZM40.945 28.078c0 .05.117.258.145.258.027 0 .023-.031-.004-.102-.012-.035-.04-.062-.055-.062-.043 0-.07-.063-.039-.082.035-.02.028-.059-.012-.059-.02 0-.035.02-.035.047ZM41.426 28.055c.008.011.023.023.039.023.012 0 .02-.012.02-.023 0-.016-.016-.024-.04-.024-.015 0-.027.008-.02.024ZM41.453 28.21c-.02.017.008.08.035.08.024 0 .028-.063 0-.08-.011-.007-.027-.007-.035 0ZM41.281 28.395c.012.027.137.02.164-.008.012-.012-.023-.02-.074-.02-.055 0-.094.012-.09.028ZM41.18 28.457c.03.05.078.047.09-.012.007-.027-.012-.039-.055-.039-.055 0-.059.004-.035.051ZM39.914 28.516a.135.135 0 0 0-.05.039c-.028.043-.024.144.007.175.047.043.07.032.05-.03-.01-.048-.003-.055.024-.044.024.004.04.028.04.047 0 .059.078.024.105-.047.02-.058.015-.074-.031-.113-.059-.047-.082-.05-.145-.027ZM40.7 29.555c-.009.011-.005.023.007.023s.031-.012.04-.023c.007-.016.003-.024-.009-.024-.011 0-.031.008-.039.024ZM40.547 29.586c-.031.016-.063.055-.067.082-.007.05 0 .055.051.043.055-.012.063-.008.063.031 0 .043.008.047.093.031.086-.011.094-.011.094.036 0 .027.008.05.024.05.011 0 .02-.039.015-.09-.004-.07-.011-.085-.054-.085-.059-.004-.125-.051-.125-.098 0-.04-.02-.04-.094 0ZM40.887 29.766c-.008.011.004.023.023.023.02 0 .031-.012.024-.023-.008-.016-.02-.024-.024-.024s-.015.008-.023.024ZM40.492 29.805c-.02.043.004.086.035.066.028-.02.028-.105 0-.105-.011 0-.03.015-.035.039ZM39.238 29.84c-.035.039-.035.113.004.113.02 0 .04-.027.043-.058.016-.067-.008-.09-.047-.055ZM40.914 29.887c-.023.023-.035.054-.027.062.02.02.09-.058.078-.086-.004-.02-.028-.008-.05.024ZM39.344 29.918c-.008.039 0 .055.015.05.036-.007.051-.109.02-.109-.012 0-.027.028-.035.059ZM37.96 29.922c-.026.027-.015.117.02.148.043.04.196.008.215-.039.024-.058-.02-.07-.058-.011-.024.03-.055.05-.07.043-.036-.024-.036-.114 0-.106.011.004.03-.008.035-.023.011-.032-.114-.043-.141-.012ZM36.668 30.754c-.027.035-.004.043.031.004.016-.016.02-.031.008-.031s-.031.011-.039.027ZM39.844 31.148c0 .012.011.024.027.024.012 0 .016-.012.008-.024-.008-.015-.02-.023-.027-.023-.004 0-.008.008-.008.023ZM40.008 31.184c0 .02.012.035.023.035.016 0 .024-.016.024-.035 0-.02-.008-.036-.024-.036-.011 0-.023.016-.023.036ZM39.723 31.324c-.047.063-.059.13-.016.13.012 0 .016-.02.008-.044-.008-.035 0-.05.035-.062.047-.016.063-.047.031-.067-.011-.008-.039.016-.058.043ZM38.602 31.36c0 .011.011.023.027.023.012 0 .016-.012.008-.024-.008-.015-.02-.023-.028-.023-.004 0-.007.008-.007.023ZM40.176 31.438c-.024.027-.043.03-.074.015-.059-.031-.07-.031-.07.012 0 .02-.02.035-.055.035a.143.143 0 0 0-.07.016c-.02.02.011.082.034.062.012-.004.028.008.036.024.023.062.078.043.093-.032.016-.074.032-.086.07-.047.032.032.087-.027.075-.085-.008-.036-.012-.036-.04 0ZM37.855 31.762c-.062.12-.125.218-.136.218a.444.444 0 0 1-.043-.148.576.576 0 0 0-.055-.176c-.047-.043-.215-.031-.254.02-.039.05-.039.215-.004.363.012.059.04.191.055.293.016.102.047.27.07.371a.8.8 0 0 1 .028.195c-.008.004-.055-.03-.106-.082a.972.972 0 0 0-.183-.132c-.106-.051-.122-.098-.059-.204a.412.412 0 0 0 .05-.19c0-.095-.015-.122-.085-.2a.636.636 0 0 0-.406-.168c-.207 0-.47.164-.47.293 0 .035.048.16.102.277.102.211.297.735.297.793 0 .016.02.074.051.13.04.085.059.1.121.1.094 0 .117-.015.164-.109.047-.093.047-.144 0-.304-.02-.07-.031-.133-.023-.141.008-.004.09.066.187.152.102.094.2.168.223.168.023 0 .07-.02.105-.05.047-.036.063-.067.063-.145l.004-.098.047.094c.058.113.105.152.187.152.102 0 .137-.054.137-.218 0-.078-.008-.184-.02-.235-.027-.101-.004-.11.102-.031.101.078.348.203.398.203.075 0 .176-.137.176-.23 0-.102-.066-.164-.32-.301-.196-.106-.242-.145-.242-.2 0-.023.054-.14.117-.261.137-.258.148-.328.047-.379a.354.354 0 0 0-.137-.035c-.066 0-.078.02-.188.215Zm-1.074.504c.047.015.051.101.008.16-.043.058-.086.027-.086-.067 0-.101.016-.117.078-.093ZM35.68 32.598c-.254.183-.285.617-.067.914.25.343.63.316.871-.055.036-.055.043-.11.04-.273 0-.172-.012-.215-.067-.32a.886.886 0 0 0-.309-.305.644.644 0 0 0-.214-.028c-.141 0-.172.008-.254.067Zm.347.332c.102.054.149.265.075.37-.047.071-.086.067-.168-.03-.063-.07-.075-.102-.075-.208a.41.41 0 0 1 .016-.14c.023-.024.098-.02.152.008ZM41.156 32.684c0 .02.012.035.024.035.015 0 .023-.016.023-.035 0-.02-.008-.036-.023-.036-.012 0-.024.016-.024.036ZM39.145 32.867c-.02.02-.047.031-.07.024-.028-.012-.032-.008-.016.011.015.012.05.032.09.04.066.015.081-.016.042-.079-.015-.023-.023-.023-.046.004ZM39.438 32.898c-.008.036-.008.075 0 .082.015.028.101.024.101-.003 0-.016-.012-.024-.027-.024-.012 0-.02-.023-.016-.05.012-.075-.043-.079-.059-.005ZM34.672 32.973a.857.857 0 0 0-.352.336c-.027.054-.023.07.028.168l.27.53c.132.259.237.438.269.462.05.031.066.027.191-.032.176-.085.387-.285.457-.425a.597.597 0 0 0 .05-.266c.005-.152 0-.164-.081-.246a.286.286 0 0 0-.188-.098l-.101-.015v-.145c-.004-.168-.043-.242-.16-.297-.117-.054-.22-.047-.383.028Zm.144.363c0 .035-.007.066-.02.066-.034.012-.07-.066-.054-.105.024-.063.074-.035.074.039Zm.383.465a.286.286 0 0 1-.043.11c-.062.1-.12.089-.152-.028-.02-.078-.016-.094.02-.121.05-.04.163-.012.175.039ZM39.25 33.04c-.008.019-.016.038-.016.046 0 .023.055.004.11-.04l.062-.046h-.074c-.043 0-.074.016-.082.04ZM41.145 33.07c-.008.012.003.024.02.024.023 0 .038-.012.038-.024 0-.015-.008-.023-.02-.023a.043.043 0 0 0-.038.023ZM37.355 34.316c.016.016.028.059.028.094 0 .05.008.059.047.05.027-.007.047-.023.047-.034 0-.024-.106-.137-.133-.137-.008 0-.004.012.011.027ZM38.852 34.566c-.008.012 0 .028.015.036.035.011.063-.004.063-.036 0-.027-.063-.023-.078 0ZM35.305 34.918c-.23.113-.856.762-.82.855.011.036.183.075.515.114.195.023.258.02.434-.012.414-.082.59-.246.59-.547a.466.466 0 0 0-.196-.39c-.07-.06-.113-.075-.234-.083-.125-.007-.164.004-.29.063ZM33.848 35.5c.004.027.03.047.066.047.035.004.043 0 .02-.008-.024-.004-.043-.027-.043-.047 0-.015-.012-.031-.028-.031-.011 0-.02.02-.015.039ZM39.773 35.793c-.066.113-.062.14.024.098.05-.024.07-.051.07-.09 0-.09-.043-.09-.094-.008ZM39.977 35.781c-.024.024-.02.102.003.102.032 0 .055-.074.032-.098-.012-.012-.024-.012-.035-.004ZM38.027 35.816c-.007.012-.007.036.008.047.012.016.024.012.035-.011.016-.043-.023-.075-.043-.036ZM38.207 35.809c-.027.02-.023.03.008.082.027.039.055.058.074.054a.131.131 0 0 1 .059-.015c.011 0 .015-.012.007-.024-.007-.015-.035-.023-.058-.023-.027 0-.047-.02-.05-.047-.005-.031-.017-.04-.04-.027ZM37.785 35.934c-.035.039-.035.066.008.066.039 0 .043.031.016.09-.032.055-.008.168.035.168.027 0 .031-.016.023-.055a.57.57 0 0 1 .043-.258c.016-.03.004-.039-.039-.039-.031 0-.07.012-.086.028ZM39.816 35.957c-.043.023-.058.09-.023.09.031 0 .078-.067.07-.09-.004-.016-.023-.016-.047 0ZM38.273 36.055c0 .101.032.207.055.195.027-.008.024-.125 0-.21-.016-.06-.055-.048-.055.015ZM38.14 36.098c.016.074.008.093-.046.136-.051.04-.059.059-.04.086.036.063.083.063.094.012.016-.055.047-.066.059-.023.004.015.023.02.04.011.019-.011.023-.03.007-.047a.352.352 0 0 1-.035-.113.298.298 0 0 0-.055-.117c-.035-.027-.035-.023-.023.055Zm0 0"
        style="stroke:none;fill-rule:nonzero;fill:#000;fill-opacity:1" />
    <path
        d="M37.96 36.105c.044.055.126.079.126.036 0-.012-.016-.016-.031-.008-.02.004-.047-.008-.063-.035-.015-.032-.035-.051-.05-.051-.012 0-.005.027.019.058ZM37.336 37.379c0 .016.012.031.023.039.016.008.024-.004.024-.02 0-.023-.008-.039-.024-.039-.011 0-.023.008-.023.02ZM37.195 37.45c0 .023-.02.058-.047.081-.05.043-.058.078-.027.098.012.008.031-.008.04-.035.019-.055.05-.063.066-.008.03.082.058-.004.03-.094-.027-.09-.062-.113-.062-.043ZM37.55 37.457c.013.074.067.082.067.012 0-.043-.012-.063-.039-.063-.023 0-.031.016-.027.051ZM38.875 37.445c-.031.028-.016.055.031.055.028 0 .047-.016.047-.035 0-.035-.05-.05-.078-.02ZM39.227 37.445c-.008.008-.016.035-.016.059 0 .062.055.039.066-.024.008-.046-.02-.066-.05-.035ZM37.676 37.578c-.008.024-.012.047-.004.055.023.023.043-.008.031-.055-.008-.039-.008-.039-.027 0ZM37.36 37.617c-.032.024-.051.051-.044.059.024.02.114-.04.114-.074 0-.04 0-.04-.07.015ZM37.516 37.672c-.024.055-.055.086-.102.094l-.066.02.058.046c.078.059.098.055.078-.016-.011-.062.012-.078.055-.03.035.03.086.003.063-.036-.012-.012-.016-.055-.012-.09.008-.09-.035-.082-.074.012ZM33.773 37.688l-.277.042a.603.603 0 0 0-.176.047c-.03.032 0 .078.285.407.383.441.61.62.864.68.105.023.14.019.234-.016a.462.462 0 0 0 .313-.332c.054-.188.054-.211.007-.38a.644.644 0 0 0-.37-.398c-.106-.043-.192-.054-.442-.062a3.38 3.38 0 0 0-.438.011ZM38.367 38.621c0 .016.012.031.024.04.015.007.023-.005.023-.02 0-.024-.008-.04-.023-.04-.012 0-.024.008-.024.02ZM38.16 38.793c-.035.102-.035.137.008.121.02-.008.035 0 .035.012 0 .015.008.027.02.027.011 0 .02-.05.02-.117-.005-.133-.044-.156-.083-.043ZM38.531 38.762c0 .027.012.054.024.062.015.008.023-.008.023-.031 0-.027-.008-.055-.023-.063-.012-.007-.024.008-.024.032ZM36.844 38.922c0 .016.011.027.023.02.016-.008.02-.028.012-.04-.02-.03-.035-.023-.035.02ZM38.578 38.95c0 .03.012.05.024.05.015 0 .023-.016.023-.031 0-.02-.008-.043-.023-.051-.012-.008-.024.008-.024.031ZM38.145 39.023c.007.012.023.024.039.024.011 0 .02-.012.02-.024 0-.015-.017-.023-.04-.023-.016 0-.027.008-.02.023ZM38.496 39.047c.008.016.027.02.04.012.03-.02.023-.036-.02-.036-.016 0-.028.012-.02.024ZM36.445 39.14c0 .044.008.051.028.028.023-.02.023-.035 0-.055-.02-.023-.028-.015-.028.028ZM36.832 39.14c-.02.032.012.032.059 0 .03-.019.03-.023-.004-.023-.024 0-.047.008-.055.024ZM36.773 39.246c0 .02.012.035.028.031.011-.004.023-.02.023-.03 0-.013-.011-.028-.023-.032-.016-.004-.028.012-.028.031ZM36.703 39.305c0 .011.012.023.024.023.015 0 .023-.012.023-.023 0-.016-.008-.024-.023-.024-.012 0-.024.008-.024.024ZM33.89 39.785c0 .074.051.074.087 0 .023-.055.023-.058-.032-.058-.043 0-.054.011-.054.058ZM35.664 40.14c-.012.024-.008.051.004.063.035.031.102 0 .094-.047-.012-.058-.082-.066-.098-.015ZM34.914 40.96c-.039.095.008.145.05.06.02-.036.02-.055-.003-.07-.023-.024-.035-.02-.047.01ZM39.598 24.613c-.008.012-.012.028-.004.035.015.016.062-.011.062-.043 0-.027-.039-.027-.058.008ZM12.68 15.89c0 .012.011.024.027.024.012 0 .016-.012.008-.023-.008-.016-.02-.024-.027-.024-.004 0-.008.008-.008.024ZM6.797 30.145c0 .023.012.039.023.03.016-.007.024-.03.024-.05 0-.016-.008-.031-.024-.031-.011 0-.023.02-.023.05ZM8.516 30.29c-.004.034-.004.081.007.1.012.04.016.036.028-.011.004-.031.027-.063.054-.067.06-.015.043-.062-.023-.074-.035-.004-.055.008-.066.051ZM10.52 30.594c-.122.047-.11.18.011.18.09 0 .133-.036.133-.11 0-.07-.066-.098-.144-.07ZM9.313 31.816c-.063.098-.016.207.101.23.05.013.086.009.133-.03.074-.063.078-.114.012-.196-.063-.086-.192-.086-.246-.004ZM11.172 32.523c-.008.008-.016.036-.016.063 0 .031.012.039.04.031a.228.228 0 0 1 .07-.015c.015 0 .03-.016.03-.036 0-.02-.007-.035-.019-.035a.153.153 0 0 1-.054-.011.056.056 0 0 0-.051.003ZM9.945 33.293c-.015.05.012.164.04.137a.178.178 0 0 0 .027-.067c.008-.043.011-.043.062.008.055.055.067.035.024-.055-.032-.066-.13-.082-.153-.023ZM13.188 34c-.024.023-.02.148.007.148.016 0 .024-.02.024-.043 0-.027.008-.062.015-.082.012-.039-.02-.054-.046-.023ZM9.727 34.309a.372.372 0 0 0-.22.117c-.046.054-.046 0 .016.965.047.648.063.71.196.765.16.067.469-.031.644-.207a.57.57 0 0 0 .192-.445c0-.133-.012-.176-.063-.25a.418.418 0 0 0-.12-.117c-.071-.032-.075-.07-.017-.188.106-.207.086-.34-.062-.5-.148-.148-.313-.187-.566-.14Zm.3.46c.004.028-.02.075-.05.102l-.059.059-.027-.063c-.016-.047-.016-.078.004-.113.03-.059.12-.05.132.016Zm.059.637c.023.008.05.035.066.059.043.082-.109.297-.172.234-.027-.023-.05-.226-.035-.27.016-.042.078-.05.14-.023ZM12.047 34.402c-.137.035-.207.07-.238.125-.02.04-.036.262-.047.7-.024.71-.016.898.043.964.05.059.14.055.207-.011a.776.776 0 0 0 .129-.348c0-.094.046-.059.129.102.148.277.23.332.34.218.074-.078.09-.074.109.028.02.133.07.195.144.195.114 0 .196-.133.227-.36.008-.062.027-.109.039-.105a.905.905 0 0 1 .105.2c.098.226.149.288.246.288.122 0 .16-.039.16-.148 0-.133-.042-.29-.16-.559a1.487 1.487 0 0 1-.097-.27c0-.03.047-.07.148-.116.184-.09.461-.32.461-.383 0-.07-.09-.14-.183-.14-.055 0-.118.03-.223.1a1.054 1.054 0 0 1-.211.126c-.066.012-.066.012-.055-.055a.813.813 0 0 0 .008-.305c-.023-.074-.219-.109-.265-.05-.04.047-.114.308-.192.664l-.098.414a.456.456 0 0 0-.023.12.33.33 0 0 1-.027.102c-.02.059-.024.063-.047.024a9.979 9.979 0 0 1-.254-.598c0-.011.027-.035.058-.05a.464.464 0 0 0 .122-.126c.058-.086.066-.117.066-.277 0-.164-.004-.187-.074-.27a.558.558 0 0 0-.547-.199Zm.234.399a.182.182 0 0 1-.023.21c-.098.102-.133.055-.094-.124.027-.137.074-.168.117-.086ZM7.195 34.438c0 .019.012.042.024.05.015.008.023-.008.023-.031 0-.031-.008-.05-.023-.05-.012 0-.024.015-.024.03ZM11 34.523a.772.772 0 0 0-.152.137c-.153.168-.22.383-.22.695 0 .211.009.25.067.372.106.214.293.324.492.289.13-.024.313-.207.407-.399.07-.148.078-.187.078-.37a.967.967 0 0 0-.047-.333c-.055-.148-.2-.324-.313-.375a.455.455 0 0 0-.312-.016Zm.266.551a.517.517 0 0 1-.032.38c-.086.179-.183.085-.18-.18 0-.208.04-.31.122-.301.043.004.066.027.09.101ZM7.602 34.574c-.059.028-.07.055-.028.078.012.008.04 0 .063-.02a.153.153 0 0 1 .093-.038c.032 0 .047-.008.04-.024-.02-.03-.102-.027-.168.004ZM7.488 34.684c-.011.023.004.039.102.09.062.035.098.023.098-.032 0-.015.015-.031.035-.031.02 0 .035-.012.035-.027 0-.024-.035-.012-.098.043-.027.027-.043.023-.09-.016-.062-.055-.062-.055-.082-.027ZM14.387 34.703a.501.501 0 0 0-.075.152 5.547 5.547 0 0 0-.167.836c-.016.145-.012.176.023.22.043.046.207.062.23.023.032-.043.274-1.04.274-1.106 0-.129-.203-.219-.285-.125ZM14.059 36.2c-.157.085-.18.253-.059.378.09.086.164.098.273.043.165-.086.184-.336.04-.437-.043-.028-.188-.02-.254.015ZM15.086 36.25c-.031.031-.012.078.031.078.031 0 .047-.016.047-.047 0-.043-.047-.062-.078-.031ZM12.848 37.105c-.067.024-.067.075-.004.06.031-.009.047 0 .047.023 0 .015-.016.03-.036.03-.054 0-.043.044.024.075.047.023.066.02.101-.012.04-.035.043-.054.024-.11-.024-.073-.078-.097-.156-.066ZM11.32 37.133c0 .023.012.039.024.039.015 0 .023-.008.023-.02a.043.043 0 0 0-.023-.039c-.012-.008-.024.004-.024.02ZM11.484 37.195c0 .012.016.024.036.024.02 0 .035-.012.035-.024 0-.015-.016-.023-.035-.023-.02 0-.036.008-.036.023ZM11.242 37.254c.008.02.024.035.035.035.012 0 .02-.016.02-.035a.035.035 0 0 0-.035-.035c-.02 0-.028.015-.02.035ZM11.57 37.305c-.027.027-.015.054.02.054.02 0 .035-.007.035-.02 0-.03-.04-.054-.055-.034ZM11.523 37.398c-.03.028-.015.079.02.079.02 0 .035-.016.035-.032 0-.043-.031-.066-.055-.047ZM9.082 37.453c.008.012.02.024.027.024.004 0 .008-.012.008-.024 0-.016-.012-.023-.027-.023-.012 0-.016.008-.008.023ZM9.434 37.477c.007.011.03.023.05.023.016 0 .032-.012.032-.023 0-.016-.02-.024-.051-.024-.024 0-.04.008-.031.024ZM9.297 37.68c.008.015.023.03.035.03.031 0 .023-.038-.012-.054-.023-.008-.03 0-.023.024ZM13.18 38.086c-.297.062-.524.324-.524.605 0 .141.067.325.149.418.254.29.625.203 1.164-.27.23-.206.586-.57.586-.6 0-.016-.149-.055-.344-.09-.371-.07-.852-.102-1.031-.063ZM10.645 38.7c.003.038.023.058.074.062.035.004.062.02.062.031 0 .012.016.02.035.012.02-.008.04-.004.047.008.024.039.059.027.059-.024 0-.047-.02-.055-.098-.05-.027.007-.043-.012-.043-.032s-.015-.035-.027-.027a.134.134 0 0 1-.074-.012c-.035-.02-.043-.016-.035.031ZM10.5 38.79c0 .054-.016.077-.055.089-.062.023-.082.082-.066.164.023.082.062.07.07-.02a.261.261 0 0 1 .043-.12.406.406 0 0 0 .055-.11c.015-.059.015-.074-.016-.074-.02 0-.031.027-.031.07ZM10.781 38.938c0 .019-.008.054-.015.07-.024.066.054.02.082-.047.023-.047.02-.055-.02-.055-.027 0-.047.016-.047.032ZM10.906 38.973c-.008.043-.02.07-.027.066-.012 0-.05.031-.09.07-.043.043-.09.078-.105.078-.024 0-.024.008 0 .028.02.02.035.02.062-.004.027-.023.043-.023.07 0 .028.023.04.023.043-.004.008-.016.02-.05.032-.078.015-.043.015-.043.023.004.008.031.02.054.031.054.028 0 .043-.062.04-.171-.005-.114-.06-.141-.079-.043ZM12.781 41.094c-.02.09 0 .144.059.152.035.008.047-.004.035-.027-.004-.024.004-.032.031-.032.02 0 .043-.007.047-.023.008-.016-.008-.023-.035-.016-.035.012-.043.004-.035-.046.012-.051.004-.063-.035-.063-.032 0-.055.02-.067.055ZM14.273 41.684c0 .023.016.035.043.03.047-.01.043-.05-.004-.062-.023-.004-.039.008-.039.032ZM36.469 26.652c0 .047.004.047.023.02.031-.043.031-.07 0-.07-.012 0-.023.023-.023.05ZM29.719 34.504c0 .012.011.016.023.008.016-.008.024-.02.024-.028 0-.004-.008-.007-.024-.007-.012 0-.023.011-.023.027ZM31.254 37.406c-.008.012-.008.047 0 .078.012.043.027.055.062.047.024-.008.043 0 .043.012 0 .016.02.027.047.027.067 0 .059-.05-.02-.125-.066-.066-.109-.078-.132-.039ZM31.348 37.664c-.008.012-.004.023.007.023.016 0 .028-.011.028-.023 0-.016-.004-.023-.008-.023-.008 0-.02.007-.027.023ZM24.828 38.348a.833.833 0 0 0-.484.77.547.547 0 0 0 .07.331c.086.188.258.356.402.406.27.09.536.02.758-.207.196-.191.242-.304.242-.578 0-.191-.007-.242-.062-.351-.078-.168-.227-.336-.356-.395a.667.667 0 0 0-.57.024Zm.45.164a.598.598 0 0 1 .324.25c.046.093.066.23.05.336-.011.07-.05.125-.144.222-.125.13-.176.153-.13.059.04-.07.032-.102-.015-.086-.023.008-.058-.004-.074-.023-.016-.02-.043-.036-.062-.036-.04 0-.04-.027 0-.066.023-.023.015-.04-.032-.074-.03-.028-.07-.047-.086-.047-.015 0-.05-.02-.074-.05-.027-.028-.05-.036-.058-.024-.028.043-.114-.059-.094-.106.015-.039.012-.039-.024-.012-.047.04-.05.036-.07-.058-.02-.094.05-.203.164-.262.106-.055.18-.058.324-.023Zm-.505.398c-.003.028-.066.188-.07.168-.004-.058.031-.172.05-.172.013 0 .02.004.02.004Zm.418.375a.066.066 0 0 1-.054.031c-.024 0-.047-.015-.051-.03-.008-.016.012-.028.05-.028.04 0 .06.012.055.027Zm-.324.063a.31.31 0 0 0 .016.066c.023.05-.031.023-.063-.043-.02-.035-.015-.043.012-.043.02 0 .035.008.035.02ZM28.7 38.344c.034.039.038.05.007.086-.027.035-.027.039 0 .027.02-.004.047-.027.059-.047.03-.047-.016-.113-.075-.113-.03 0-.027.008.008.047ZM28.781 38.79c0 .01.012.023.024.023.015 0 .023-.012.023-.024 0-.016-.008-.023-.023-.023-.012 0-.024.007-.024.023ZM27.293 41.82c-.012.008-.11.032-.211.055-.46.098-.875.414-1.152.871-.086.145-.18.418-.22.629-.038.234.02.7.126.95.11.265.406.6.648.745.254.149.5.215.793.22.141 0 .293-.013.352-.028.055-.012.14-.04.2-.055.296-.082.718-.383.921-.66.46-.629.484-1.442.055-2.067-.184-.265-.563-.523-.903-.609-.136-.035-.558-.066-.609-.05Zm0 0"
        style="stroke:none;fill-rule:nonzero;fill:#000;fill-opacity:1" />
</svg>