<svg xmlns="http://www.w3.org/2000/svg" width="48" height="48" fill="none"><g clip-path="url(#clip0_1300_1323)"><path d="M0 14C0 6.268 6.268 0 14 0h20c7.732 0 14 6.268 14 14v20c0 7.732-6.268 14-14 14H14C6.268 48 0 41.732 0 34V14z" fill="url(#paint0_linear_1300_1323)"/><path fill-rule="evenodd" clip-rule="evenodd" d="M10.263 34.396a17.787 17.787 0 0 1-1.661-7.533c0-9.84 7.958-17.818 17.774-17.818 5.466 0 10.356 2.474 13.616 6.365l1.946-1.636C38.21 9.327 32.623 6.5 26.376 6.5c-11.219 0-20.314 9.117-20.314 20.363 0 3.077.681 5.994 1.9 8.608l2.301-1.075zm16.113 4.559c-6.661 0-12.061-5.414-12.061-12.091 0-6.678 5.4-12.09 12.061-12.09 3.71 0 7.027 1.678 9.24 4.318l1.945-1.636a14.555 14.555 0 0 0-11.185-5.228c-8.063 0-14.6 6.553-14.6 14.636 0 8.083 6.537 14.636 14.6 14.636v-2.545zm0-6.365a5.696 5.696 0 0 0 4.376-2.046l1.778 2.296a8.533 8.533 0 0 1-6.154 2.614c-4.733 0-8.57-3.846-8.57-8.591 0-4.745 3.837-8.59 8.57-8.59a8.542 8.542 0 0 1 6.564 3.068l-2.188 1.84a5.695 5.695 0 0 0-4.376-2.045c-3.155 0-5.713 2.564-5.713 5.727 0 3.163 2.558 5.727 5.713 5.727z" fill="#fff"/></g><defs><linearGradient id="paint0_linear_1300_1323" x1="48" y1="48" x2=".147" y2="-.146" gradientUnits="userSpaceOnUse"><stop/><stop offset="1" stop-color="#3F3F3F"/></linearGradient><clipPath id="clip0_1300_1323"><rect width="48" height="48" rx="24" fill="#fff"/></clipPath></defs></svg>