<svg xmlns="http://www.w3.org/2000/svg" width="48" height="48" fill="none"><g clip-path="url(#clip0_2259_3798)"><g clip-path="url(#clip1_2259_3798)"><path d="M24 51.25c15.05 0 27.25-12.2 27.25-27.25S39.05-3.25 24-3.25-3.25 8.95-3.25 24 8.95 51.25 24 51.25z" fill="#fff"/><path d="M41.037 38.007H17.242a.617.617 0 0 1-.32-.092l-8.598-5.308a.608.608 0 0 1 .321-1.131H32.44c.114 0 .225.031.321.09l8.597 5.308a.607.607 0 0 1-.32 1.133zm-23.621-1.224h21.472l-6.62-4.085H10.794l6.62 4.085zm22.14-20.09H15.763a.618.618 0 0 1-.322-.091l-8.598-5.309a.607.607 0 0 1 .318-1.13h23.803c.113 0 .224.031.32.09l8.593 5.309a.609.609 0 0 1-.321 1.131h.002zm-23.621-1.222h21.472l-6.62-4.086H9.313l6.62 4.086z" fill="#1A0A2D"/><path d="M24.526 23.76c.494 0 1.145-.055 1.51-.427a.843.843 0 0 0 .278-.64c-.012-.847-.709-1.145-1.362-1.143h-.983l.006 2.17.112.013c.146.018.293.027.44.028zm.49.703l-1.036.01.008 2.546h1.05c.77 0 1.592-.34 1.594-1.277a1.135 1.135 0 0 0-.322-.84c-.412-.41-1.094-.44-1.293-.44z" fill="#F90"/><path d="M29.002 19.66a6.163 6.163 0 0 0-4.375-1.672h-.065a6.2 6.2 0 0 0 .346 12.394h.062a6.2 6.2 0 0 0 4.032-10.722zm-1.851 7.72c-.383.152-.79.233-1.201.24h-.126l-.01.126v1.227h-.919v-1.361l-.904.007v1.352h-.926l-.002-1.347-1.556.012v-.608h.577a.44.44 0 0 0 .44-.442l-.015-4.59c0-.229-.183-.388-.442-.388l-.58-.04v-.847h1.573v-1.395h.912v1.397h.911v-1.4h.912v1.401h.168c.315 0 1.894.328 1.898 1.607 0 1.408-1.181 1.56-1.201 1.603l-.063.005c.066.007 1.608.304 1.597 1.936-.009.706-.351 1.212-1.043 1.506z" fill="#F90"/></g></g><defs><clipPath id="clip0_2259_3798"><rect width="48" height="48" rx="24" fill="#fff"/></clipPath><clipPath id="clip1_2259_3798"><path fill="#fff" transform="translate(-3.25 -3.25)" d="M0 0h54.5v54.5H0z"/></clipPath></defs></svg>