<svg xmlns="http://www.w3.org/2000/svg" xmlns:xlink="http://www.w3.org/1999/xlink" width="48px" height="47px"
    viewBox="0 0 48 47" version="1.1">
    <defs>
        <linearGradient id="linear0" gradientUnits="userSpaceOnUse" x1="235.398" y1="235.784" x2="6.0057" y2="-43.9939"
            gradientTransform="matrix(0.266667,0,0,0.267045,0,0)">
            <stop offset="0" style="stop-color:rgb(39.215686%,35.294118%,100%);stop-opacity:0.2;" />
            <stop offset="0.520746" style="stop-color:rgb(89.411765%,4.705882%,35.686275%);stop-opacity:0.2;" />
            <stop offset="0.985908" style="stop-color:rgb(100%,29.803922%,23.137255%);stop-opacity:0.2;" />
        </linearGradient>
        <linearGradient id="linear1" gradientUnits="userSpaceOnUse" x1="92.9318" y1="-62.0268" x2="302.754"
            y2="-16.1169">
            <stop offset="0" style="stop-color:rgb(100%,100%,100%);stop-opacity:0.2;" />
            <stop offset="1" style="stop-color:rgb(100%,100%,100%);stop-opacity:0;" />
        </linearGradient>
        <linearGradient id="linear2" gradientUnits="userSpaceOnUse" x1="235.398" y1="235.784" x2="6.0057" y2="-43.9939">
            <stop offset="0" style="stop-color:rgb(39.215686%,35.294118%,100%);stop-opacity:1;" />
            <stop offset="0.520746" style="stop-color:rgb(89.411765%,4.705882%,35.686275%);stop-opacity:1;" />
            <stop offset="0.985908" style="stop-color:rgb(100%,29.803922%,23.137255%);stop-opacity:1;" />
        </linearGradient>
        <linearGradient id="linear3" gradientUnits="userSpaceOnUse" x1="92.9318" y1="-62.0268" x2="302.754"
            y2="-16.1169">
            <stop offset="0" style="stop-color:rgb(100%,100%,100%);stop-opacity:0.2;" />
            <stop offset="1" style="stop-color:rgb(100%,100%,100%);stop-opacity:0;" />
        </linearGradient>
        <linearGradient id="linear4" gradientUnits="userSpaceOnUse" x1="235.398" y1="235.784" x2="6.0057" y2="-43.9939">
            <stop offset="0" style="stop-color:rgb(39.215686%,35.294118%,100%);stop-opacity:1;" />
            <stop offset="0.520746" style="stop-color:rgb(89.411765%,4.705882%,35.686275%);stop-opacity:1;" />
            <stop offset="0.985908" style="stop-color:rgb(100%,29.803922%,23.137255%);stop-opacity:1;" />
        </linearGradient>
        <linearGradient id="linear5" gradientUnits="userSpaceOnUse" x1="92.9318" y1="-62.0268" x2="302.754"
            y2="-16.1169">
            <stop offset="0" style="stop-color:rgb(100%,100%,100%);stop-opacity:0.2;" />
            <stop offset="1" style="stop-color:rgb(100%,100%,100%);stop-opacity:0;" />
        </linearGradient>
        <clipPath id="clip1">
            <path d="M 17 8.777344 L 29 8.777344 L 29 15 L 17 15 Z M 17 8.777344 " />
        </clipPath>
        <linearGradient id="linear6" gradientUnits="userSpaceOnUse" x1="123.306" y1="65.0652" x2="98.1641" y2="11.4311"
            gradientTransform="matrix(0.266667,0,0,0.267045,0,0)">
            <stop offset="0" style="stop-color:rgb(39.215686%,35.294118%,100%);stop-opacity:1;" />
            <stop offset="0.520746" style="stop-color:rgb(89.411765%,4.705882%,35.686275%);stop-opacity:1;" />
            <stop offset="0.985908" style="stop-color:rgb(100%,29.803922%,23.137255%);stop-opacity:1;" />
        </linearGradient>
        <linearGradient id="linear7" gradientUnits="userSpaceOnUse" x1="88.4631" y1="23.4229" x2="135.367" y2="41.373"
            gradientTransform="matrix(0.266667,0,0,0.267045,0,0)">
            <stop offset="0" style="stop-color:rgb(100%,100%,100%);stop-opacity:0.2;" />
            <stop offset="1" style="stop-color:rgb(100%,100%,100%);stop-opacity:0;" />
        </linearGradient>
        <clipPath id="clip2">
            <path d="M 17 31 L 29 31 L 29 38.027344 L 17 38.027344 Z M 17 31 " />
        </clipPath>
        <linearGradient id="linear8" gradientUnits="userSpaceOnUse" x1="123.306" y1="151.622" x2="98.1641" y2="97.9878"
            gradientTransform="matrix(0.266667,0,0,0.267045,0,0)">
            <stop offset="0" style="stop-color:rgb(39.215686%,35.294118%,100%);stop-opacity:1;" />
            <stop offset="0.520746" style="stop-color:rgb(89.411765%,4.705882%,35.686275%);stop-opacity:1;" />
            <stop offset="0.985908" style="stop-color:rgb(100%,29.803922%,23.137255%);stop-opacity:1;" />
        </linearGradient>
        <linearGradient id="linear9" gradientUnits="userSpaceOnUse" x1="88.4631" y1="109.98" x2="135.367" y2="127.93"
            gradientTransform="matrix(0.266667,0,0,0.267045,0,0)">
            <stop offset="0" style="stop-color:rgb(100%,100%,100%);stop-opacity:0.2;" />
            <stop offset="1" style="stop-color:rgb(100%,100%,100%);stop-opacity:0;" />
        </linearGradient>
        <clipPath id="clip3">
            <path d="M 9.308594 12 L 17 12 L 17 23 L 9.308594 23 Z M 9.308594 12 " />
        </clipPath>
        <linearGradient id="linear10" gradientUnits="userSpaceOnUse" x1="85.4086" y1="45.3885" x2="25.7105" y2="40.541"
            gradientTransform="matrix(0.266667,0,0,0.267045,0,0)">
            <stop offset="0" style="stop-color:rgb(39.215686%,35.294118%,100%);stop-opacity:1;" />
            <stop offset="0.520746" style="stop-color:rgb(89.411765%,4.705882%,35.686275%);stop-opacity:1;" />
            <stop offset="0.985908" style="stop-color:rgb(100%,29.803922%,23.137255%);stop-opacity:1;" />
        </linearGradient>
        <linearGradient id="linear11" gradientUnits="userSpaceOnUse" x1="31.4282" y1="54.3374" x2="69.9403" y2="22.383"
            gradientTransform="matrix(0.266667,0,0,0.267045,0,0)">
            <stop offset="0" style="stop-color:rgb(100%,100%,100%);stop-opacity:0.2;" />
            <stop offset="1" style="stop-color:rgb(100%,100%,100%);stop-opacity:0;" />
        </linearGradient>
        <clipPath id="clip4">
            <path d="M 29 24 L 37.136719 24 L 37.136719 34 L 29 34 Z M 29 24 " />
        </clipPath>
        <linearGradient id="linear12" gradientUnits="userSpaceOnUse" x1="161.337" y1="88.6585" x2="101.672" y2="83.7978"
            gradientTransform="matrix(0.266667,0,0,0.267045,0,0)">
            <stop offset="0" style="stop-color:rgb(39.215686%,35.294118%,100%);stop-opacity:1;" />
            <stop offset="0.520746" style="stop-color:rgb(89.411765%,4.705882%,35.686275%);stop-opacity:1;" />
            <stop offset="0.985908" style="stop-color:rgb(100%,29.803922%,23.137255%);stop-opacity:1;" />
        </linearGradient>
        <linearGradient id="linear13" gradientUnits="userSpaceOnUse" x1="107.381" y1="97.6214" x2="145.897" y2="65.6781"
            gradientTransform="matrix(0.266667,0,0,0.267045,0,0)">
            <stop offset="0" style="stop-color:rgb(100%,100%,100%);stop-opacity:0.2;" />
            <stop offset="1" style="stop-color:rgb(100%,100%,100%);stop-opacity:0;" />
        </linearGradient>
        <clipPath id="clip5">
            <path d="M 9.308594 24 L 17 24 L 17 34 L 9.308594 34 Z M 9.308594 24 " />
        </clipPath>
        <linearGradient id="linear14" gradientUnits="userSpaceOnUse" x1="85.412" y1="129.705" x2="19.591" y2="123.31"
            gradientTransform="matrix(0.266667,0,0,0.267045,0,0)">
            <stop offset="0" style="stop-color:rgb(39.215686%,35.294118%,100%);stop-opacity:1;" />
            <stop offset="0.520746" style="stop-color:rgb(89.411765%,4.705882%,35.686275%);stop-opacity:1;" />
            <stop offset="0.985908" style="stop-color:rgb(100%,29.803922%,23.137255%);stop-opacity:1;" />
        </linearGradient>
        <linearGradient id="linear15" gradientUnits="userSpaceOnUse" x1="31.5824" y1="77.7079" x2="60.1048" y2="65.6122"
            gradientTransform="matrix(0.266667,0,0,0.267045,0,0)">
            <stop offset="0" style="stop-color:rgb(100%,100%,100%);stop-opacity:0.2;" />
            <stop offset="1" style="stop-color:rgb(100%,100%,100%);stop-opacity:0;" />
        </linearGradient>
        <clipPath id="clip6">
            <path d="M 29 12 L 37.136719 12 L 37.136719 23 L 29 23 Z M 29 12 " />
        </clipPath>
        <linearGradient id="linear16" gradientUnits="userSpaceOnUse" x1="161.342" y1="86.4408" x2="95.5482" y2="80.0697"
            gradientTransform="matrix(0.266667,0,0,0.267045,0,0)">
            <stop offset="0" style="stop-color:rgb(39.215686%,35.294118%,100%);stop-opacity:1;" />
            <stop offset="0.520746" style="stop-color:rgb(89.411765%,4.705882%,35.686275%);stop-opacity:1;" />
            <stop offset="0.985908" style="stop-color:rgb(100%,29.803922%,23.137255%);stop-opacity:1;" />
        </linearGradient>
        <linearGradient id="linear17" gradientUnits="userSpaceOnUse" x1="107.524" y1="34.4364" x2="136.026" y2="22.3464"
            gradientTransform="matrix(0.266667,0,0,0.267045,0,0)">
            <stop offset="0" style="stop-color:rgb(100%,100%,100%);stop-opacity:0.2;" />
            <stop offset="1" style="stop-color:rgb(100%,100%,100%);stop-opacity:0;" />
        </linearGradient>
    </defs>
    <g id="surface1">
        <path style=" stroke:none;fill-rule:nonzero;fill:url(#linear0);"
            d="M 45.089844 23.402344 C 45.089844 11.285156 35.324219 1.460938 23.273438 1.460938 C 11.222656 1.460938 1.453125 11.285156 1.453125 23.402344 C 1.453125 35.519531 11.222656 45.339844 23.273438 45.339844 C 35.324219 45.339844 45.089844 35.519531 45.089844 23.402344 Z M 45.089844 23.402344 " />
        <path
            style="fill-rule:nonzero;fill:url(#linear1);stroke-width:1;stroke-linecap:butt;stroke-linejoin:miter;stroke:url(#linear2);stroke-miterlimit:4;"
            d="M 169.086914 87.634309 C 169.086914 42.259309 132.46582 5.470745 87.275391 5.470745 C 42.084961 5.470745 5.449219 42.259309 5.449219 87.634309 C 5.449219 133.009309 42.084961 169.783245 87.275391 169.783245 C 132.46582 169.783245 169.086914 133.009309 169.086914 87.634309 Z M 169.086914 87.634309 "
            transform="matrix(0.266667,0,0,0.267045,0,0)" />
        <path
            style="fill:none;stroke-width:1;stroke-linecap:butt;stroke-linejoin:miter;stroke:url(#linear3);stroke-miterlimit:4;"
            d="M 169.086914 87.634309 C 169.086914 42.259309 132.46582 5.470745 87.275391 5.470745 C 42.084961 5.470745 5.449219 42.259309 5.449219 87.634309 C 5.449219 133.009309 42.084961 169.783245 87.275391 169.783245 C 132.46582 169.783245 169.086914 133.009309 169.086914 87.634309 Z M 169.086914 87.634309 "
            transform="matrix(0.266667,0,0,0.267045,0,0)" />
        <path
            style="fill-rule:nonzero;fill:rgb(100%,84.705882%,89.803922%);fill-opacity:1;stroke-width:4;stroke-linecap:butt;stroke-linejoin:miter;stroke:url(#linear4);stroke-miterlimit:4;"
            d="M 169.086914 87.634309 C 169.086914 42.259309 132.46582 5.470745 87.275391 5.470745 C 42.084961 5.470745 5.449219 42.259309 5.449219 87.634309 C 5.449219 133.009309 42.084961 169.783245 87.275391 169.783245 C 132.46582 169.783245 169.086914 133.009309 169.086914 87.634309 Z M 169.086914 87.634309 "
            transform="matrix(0.266667,0,0,0.267045,0,0)" />
        <path
            style="fill:none;stroke-width:4;stroke-linecap:butt;stroke-linejoin:miter;stroke:url(#linear5);stroke-miterlimit:4;"
            d="M 169.086914 87.634309 C 169.086914 42.259309 132.46582 5.470745 87.275391 5.470745 C 42.084961 5.470745 5.449219 42.259309 5.449219 87.634309 C 5.449219 133.009309 42.084961 169.783245 87.275391 169.783245 C 132.46582 169.783245 169.086914 133.009309 169.086914 87.634309 Z M 169.086914 87.634309 "
            transform="matrix(0.266667,0,0,0.267045,0,0)" />
        <g clip-path="url(#clip1)" clip-rule="nonzero">
            <path style=" stroke:none;fill-rule:nonzero;fill:url(#linear6);"
                d="M 23.222656 14.910156 C 26.167969 14.910156 28.558594 13.539062 28.558594 11.84375 C 28.558594 10.148438 26.167969 8.777344 23.222656 8.777344 C 20.273438 8.777344 17.886719 10.148438 17.886719 11.84375 C 17.886719 13.539062 20.273438 14.910156 23.222656 14.910156 Z M 23.222656 14.910156 " />
            <path style=" stroke:none;fill-rule:nonzero;fill:url(#linear7);"
                d="M 23.222656 14.910156 C 26.167969 14.910156 28.558594 13.539062 28.558594 11.84375 C 28.558594 10.148438 26.167969 8.777344 23.222656 8.777344 C 20.273438 8.777344 17.886719 10.148438 17.886719 11.84375 C 17.886719 13.539062 20.273438 14.910156 23.222656 14.910156 Z M 23.222656 14.910156 " />
        </g>
        <g clip-path="url(#clip2)" clip-rule="nonzero">
            <path style=" stroke:none;fill-rule:nonzero;fill:url(#linear8);"
                d="M 23.222656 38.027344 C 26.167969 38.027344 28.558594 36.652344 28.558594 34.957031 C 28.558594 33.265625 26.167969 31.890625 23.222656 31.890625 C 20.273438 31.890625 17.886719 33.265625 17.886719 34.957031 C 17.886719 36.652344 20.273438 38.027344 23.222656 38.027344 Z M 23.222656 38.027344 " />
            <path style=" stroke:none;fill-rule:nonzero;fill:url(#linear9);"
                d="M 23.222656 38.027344 C 26.167969 38.027344 28.558594 36.652344 28.558594 34.957031 C 28.558594 33.265625 26.167969 31.890625 23.222656 31.890625 C 20.273438 31.890625 17.886719 33.265625 17.886719 34.957031 C 17.886719 36.652344 20.273438 38.027344 23.222656 38.027344 Z M 23.222656 38.027344 " />
        </g>
        <g clip-path="url(#clip3)" clip-rule="nonzero">
            <path style=" stroke:none;fill-rule:nonzero;fill:url(#linear10);"
                d="M 15.785156 19.15625 C 17.257812 16.632812 17.25 13.902344 15.761719 13.054688 C 14.277344 12.207031 11.878906 13.566406 10.40625 16.085938 C 8.933594 18.609375 8.941406 21.34375 10.425781 22.191406 C 11.914062 23.039062 14.3125 21.679688 15.785156 19.15625 Z M 15.785156 19.15625 " />
            <path style=" stroke:none;fill-rule:nonzero;fill:url(#linear11);"
                d="M 15.785156 19.15625 C 17.257812 16.632812 17.25 13.902344 15.761719 13.054688 C 14.277344 12.207031 11.878906 13.566406 10.40625 16.085938 C 8.933594 18.609375 8.941406 21.34375 10.425781 22.191406 C 11.914062 23.039062 14.3125 21.679688 15.785156 19.15625 Z M 15.785156 19.15625 " />
        </g>
        <g clip-path="url(#clip4)" clip-rule="nonzero">
            <path style=" stroke:none;fill-rule:nonzero;fill:url(#linear12);"
                d="M 36.035156 30.714844 C 37.507812 28.191406 37.5 25.457031 36.015625 24.613281 C 34.53125 23.765625 32.132812 25.121094 30.660156 27.644531 C 29.183594 30.167969 29.195312 32.898438 30.679688 33.746094 C 32.164062 34.59375 34.558594 33.234375 36.035156 30.714844 Z M 36.035156 30.714844 " />
            <path style=" stroke:none;fill-rule:nonzero;fill:url(#linear13);"
                d="M 36.035156 30.714844 C 37.507812 28.191406 37.5 25.457031 36.015625 24.613281 C 34.53125 23.765625 32.132812 25.121094 30.660156 27.644531 C 29.183594 30.167969 29.195312 32.898438 30.679688 33.746094 C 32.164062 34.59375 34.558594 33.234375 36.035156 30.714844 Z M 36.035156 30.714844 " />
        </g>
        <g clip-path="url(#clip5)" clip-rule="nonzero">
            <path style=" stroke:none;fill-rule:nonzero;fill:url(#linear14);"
                d="M 15.765625 33.746094 C 17.25 32.898438 17.257812 30.167969 15.785156 27.644531 C 14.3125 25.121094 11.914062 23.761719 10.429688 24.609375 C 8.941406 25.457031 8.933594 28.191406 10.40625 30.714844 C 11.878906 33.238281 14.277344 34.59375 15.765625 33.746094 Z M 15.765625 33.746094 " />
            <path style=" stroke:none;fill-rule:nonzero;fill:url(#linear15);"
                d="M 15.765625 33.746094 C 17.25 32.898438 17.257812 30.167969 15.785156 27.644531 C 14.3125 25.121094 11.914062 23.761719 10.429688 24.609375 C 8.941406 25.457031 8.933594 28.191406 10.40625 30.714844 C 11.878906 33.238281 14.277344 34.59375 15.765625 33.746094 Z M 15.765625 33.746094 " />
        </g>
        <g clip-path="url(#clip6)" clip-rule="nonzero">
            <path style=" stroke:none;fill-rule:nonzero;fill:url(#linear16);"
                d="M 36.015625 22.191406 C 37.5 21.34375 37.507812 18.613281 36.035156 16.089844 C 34.5625 13.566406 32.164062 12.207031 30.679688 13.054688 C 29.195312 13.902344 29.1875 16.632812 30.660156 19.15625 C 32.132812 21.679688 34.53125 23.039062 36.015625 22.191406 Z M 36.015625 22.191406 " />
            <path style=" stroke:none;fill-rule:nonzero;fill:url(#linear17);"
                d="M 36.015625 22.191406 C 37.5 21.34375 37.507812 18.613281 36.035156 16.089844 C 34.5625 13.566406 32.164062 12.207031 30.679688 13.054688 C 29.195312 13.902344 29.1875 16.632812 30.660156 19.15625 C 32.132812 21.679688 34.53125 23.039062 36.015625 22.191406 Z M 36.015625 22.191406 " />
        </g>
        <path
            style="fill-rule:nonzero;fill:rgb(94.509804%,94.117647%,100%);fill-opacity:1;stroke-width:4;stroke-linecap:butt;stroke-linejoin:miter;stroke:rgb(39.215686%,35.294118%,100%);stroke-opacity:1;stroke-miterlimit:4;"
            d="M 177.993164 142.400266 C 177.993164 156.428191 166.669922 167.779255 152.724609 167.779255 C 138.779297 167.779255 127.456055 156.428191 127.456055 142.400266 C 127.456055 128.37234 138.779297 117.021277 152.724609 117.021277 C 166.669922 117.021277 177.993164 128.37234 177.993164 142.400266 Z M 177.993164 142.400266 "
            transform="matrix(0.266667,0,0,0.267045,0,0)" />
        <path style=" stroke:none;fill-rule:nonzero;fill:rgb(39.215686%,35.294118%,100%);fill-opacity:1;"
            d="M 38.835938 40.953125 L 43.199219 40.953125 L 43.199219 39.445312 L 40.261719 39.445312 L 40.289062 35.101562 L 38.835938 35.101562 Z M 38.835938 40.953125 " />
    </g>
</svg>