<svg width="64" height="64" viewBox="0 0 64 64" fill="none" xmlns="http://www.w3.org/2000/svg">
<circle cx="32" cy="32" r="32" fill="#5D5FEF"/>
<path d="M40.29 29.45C40.29 28.23 40.13 27.37 39.81 26.87C39.49 26.37 38.88 26.12 37.98 26.12C36.78 26.12 35.71 26.62 34.77 27.62C33.85 28.62 33.39 29.52 33.39 30.32V41H31.29V29.45C31.29 28.23 31.13 27.37 30.81 26.87C30.49 26.37 29.81 26.12 28.77 26.12C27.73 26.12 26.74 26.6 25.8 27.56C24.88 28.52 24.38 29.41 24.3 30.23V41H22.2V26H24.3V29.39C24.62 28.53 25.21 27.73 26.07 26.99C26.93 26.25 27.89 25.88 28.95 25.88C30.01 25.88 30.85 25.98 31.47 26.18C32.11 26.36 32.56 26.65 32.82 27.05C33.08 27.45 33.24 27.8 33.3 28.1C33.36 28.4 33.39 28.82 33.39 29.36C33.71 28.5 34.29 27.71 35.13 26.99C35.97 26.25 36.87 25.88 37.83 25.88C38.79 25.88 39.56 25.96 40.14 26.12C40.72 26.28 41.15 26.46 41.43 26.66C41.73 26.86 41.95 27.15 42.09 27.53C42.25 27.91 42.34 28.22 42.36 28.46C42.38 28.7 42.39 29.04 42.39 29.48V38.87C42.39 39.45 42.5 39.9 42.72 40.22C42.96 40.52 43.2 40.68 43.44 40.7L43.77 40.76H44.7V41H42.87C42.05 41 41.42 40.82 40.98 40.46C40.56 40.1 40.34 39.74 40.32 39.38L40.29 38.87V29.45Z" fill="white"/>
</svg>
