<svg xmlns="http://www.w3.org/2000/svg" width="48" height="48" viewBox="0 0 48 51"><defs><linearGradient id="a" gradientUnits="userSpaceOnUse" x1="12.81" y1="479.5" x2="33.92" y2="479.5" gradientTransform="matrix(1.71429 0 0 -1.7 -14.143 850)"><stop offset="0" stop-color="#b000fd"/><stop offset="0" stop-color="#b000fd"/><stop offset=".98" stop-color="#30daff"/></linearGradient><linearGradient id="b" gradientUnits="userSpaceOnUse" x1="8.36" y1="488" x2="36.14" y2="488" gradientTransform="matrix(1.71429 0 0 -1.7 -14.143 850)"><stop offset="0" stop-color="#b000fd"/><stop offset="0" stop-color="#b000fd"/><stop offset=".98" stop-color="#30daff"/></linearGradient></defs><path d="M7.8 18.7v23.155c0 .29.067.56.223.797.137.239.36.442.598.594 2.383 1.344 9.363 5.238 13.184 7.363.328.188.824.477 1.047.356 1.285-.63 2.535-1.375 3.91-2.14-.364-.24-.551-.376-.758-.493-4.645-2.617-9.29-5.254-13.934-7.871v-4.676l3.7 2.09c4.75 2.672 9.5 5.32 14.265 7.973.36.207.875.511 1.13.39 1.39-.66 2.726-1.441 4.253-2.277L12.051 30.77v-4.625c2.023 1.125 4.027 2.261 6.05 3.402 6.946 3.89 13.887 7.77 20.829 11.66.207.121.449.188.687.188.238 0 .48-.067.688-.188 1.215-.695 2.433-1.375 3.648-2.055l-4.902-2.773zm0 0" fill="url(#a)"/><path d="M46.988 12.324c-3.136-1.664-6.238-3.363-9.36-5.066L32.728 4.59l-4.305 2.328c4.73 2.55 9.465 5.102 14.21 7.652.278.117.516.305.673.543.152.239.222.508.203.797v3.453h-.035c-2.364-1.273-9.684-5.015-12.032-6.289-2.351-1.277-4.785-2.601-7.168-3.894l-4.558 2.465c6.289 3.402 17.16 9.043 23.812 12.597v4.555c-.086-.05-.156-.102-.242-.152-9.035-4.88-23.023-12.239-32.055-17.153l4.114-2.226L19.922 6.8l4.129-2.246 4.304-2.328L24.79.305c-.293-.153-.754-.371-.977-.27-.703.34-1.39.695-2.093 1.07L6.379 9.402l-.191.082-.684.395L.96 12.324a1.259 1.259 0 0 0-.582.492 1.16 1.16 0 0 0-.172.715c.016 8.024.031 16.067 0 24.09-.02.274.031.527.188.766.152.238.359.406.617.527 1.183.61 2.347 1.258 3.531 1.887v-5.305c-.016-.137-.035-.273-.035-.406.035-6.649.035-13.278.035-19.926l2.11-1.14c7.867 4.25 18.238 9.726 27.495 14.636l.07.035c2.794 1.496 5.485 2.926 7.989 4.25l5.52 2.942c0-7.41.015-14.84.066-22.254.02-.27-.031-.528-.188-.766-.136-.234-.359-.406-.617-.523zm0 0" fill="url(#b)"/></svg>