<svg xmlns="http://www.w3.org/2000/svg" width="48" height="48" fill="none"><g clip-path="url(#clip0_1805_3714)"><g clip-path="url(#clip1_1805_3714)" fill-rule="evenodd" clip-rule="evenodd"><path d="M37.962 12.168l3.952-.504 2.24 4.014-2.508 2.835c.305.872.545 1.766.719 2.674l3.642 1.316-.069 4.598-3.592 1.203a19.06 19.06 0 0 1-.718 2.668l2.5 2.965-2.358 3.949-3.707-.755a18.796 18.796 0 0 1-1.963 1.953l.681 3.813-4.015 2.24-1.896-1.676v-7.264a13.523 13.523 0 0 0 3.214-20.184l3.88-3.844h-.002zM13.25 16.164a13.523 13.523 0 0 0 3.34 20.032v7.147L14.503 45.1l-3.948-2.357.752-3.706a18.779 18.779 0 0 1-1.952-1.961l-3.815.68-2.24-4.015 2.507-2.835a18.803 18.803 0 0 1-.718-2.675l-3.642-1.316.067-4.598 3.592-1.203c.175-.905.415-1.797.719-2.668l-2.5-2.966 2.357-3.948 3.681.748 3.887 3.883z" fill="url(#paint0_linear_1805_3714)"/><path d="M10.75 6.61l4.016-2.24L17.6 6.879a18.783 18.783 0 0 1 2.675-.719l1.316-3.642 4.598.068 1.201 3.592c.906.174 1.798.415 2.668.718l2.965-2.499 3.947 2.358-.753 3.706c.272.234.537.478.796.731l-3.848 3.848a13.597 13.597 0 0 0-2.118-1.664l-2.243-1.428V25.44l-2.503 1.446-2.503 1.445-2.503-1.445-2.503-1.446V11.947l-2.243 1.428a13.6 13.6 0 0 0-2.258 1.812l-3.847-3.846c.316-.314.645-.617.987-.911l-.68-3.82z" fill="#fff"/></g></g><defs><linearGradient id="paint0_linear_1805_3714" x1="34.689" y1="33.443" x2="14.651" y2="15.19" gradientUnits="userSpaceOnUse"><stop stop-color="#30BCD0"/><stop offset="1" stop-color="#CA28CC"/></linearGradient><clipPath id="clip0_1805_3714"><rect width="48" height="48" rx="24" fill="#fff"/></clipPath><clipPath id="clip1_1805_3714"><path fill="#fff" transform="translate(1.456 2.522)" d="M0 0h44.544v42.612H0z"/></clipPath></defs></svg>