<?xml version="1.0" encoding="utf-8"?>
<!-- Generator: Adobe Illustrator 28.0.0, SVG Export Plug-In . SVG Version: 6.00 Build 0)  -->
<svg version="1.1" id="Layer_1" xmlns="http://www.w3.org/2000/svg" xmlns:xlink="http://www.w3.org/1999/xlink" x="0px" y="0px"
	 viewBox="0 0 500 500" style="enable-background:new 0 0 500 500;" xml:space="preserve">
<style type="text/css">
	.st0{clip-path:url(#SVGID_00000071540047687738639840000011794910371399535763_);}
	.st1{fill-rule:evenodd;clip-rule:evenodd;fill:#3C3B6E;stroke:#C0082D;stroke-width:50;stroke-miterlimit:10;}
	.st2{fill-rule:evenodd;clip-rule:evenodd;fill:#C0082D;}
	.st3{fill-rule:evenodd;clip-rule:evenodd;fill:#FFFFFF;stroke:#000000;stroke-miterlimit:10;}
	.st4{fill-rule:evenodd;clip-rule:evenodd;fill:#2775CA;}
	.st5{fill:#FFFFFF;}
	.st6{clip-path:url(#SVGID_00000156566860699618395140000010632312353531114384_);}
	.st7{clip-path:url(#SVGID_00000162327516449227811560000010328476211615887501_);}
	.st8{fill-rule:evenodd;clip-rule:evenodd;fill:#3C3B6E;}
	.st9{fill:#3C3B6E;}
	.st10{fill-rule:evenodd;clip-rule:evenodd;}
	.st11{fill-rule:evenodd;clip-rule:evenodd;fill:#FFFFFF;}
	.st12{fill:none;stroke:#000000;stroke-width:50;stroke-miterlimit:10;}
</style>
<g>
	<defs>
		<circle id="SVGID_1_" cx="3979.2" cy="-1058.2" r="250"/>
	</defs>
	<clipPath id="SVGID_00000073697940725661365620000013822427238656139145_">
		<use xlink:href="#SVGID_1_"  style="overflow:visible;"/>
	</clipPath>
	
		<g id="tvCRWC_00000000915925693586311890000002946847553760251299_" style="clip-path:url(#SVGID_00000073697940725661365620000013822427238656139145_);">
		
			<image style="overflow:visible;" width="2560" height="1463" id="tvCRWC" xlink:href="50AD9F92FC7EF188.jpg"  transform="matrix(0.3418 0 0 0.3418 3541.73 -1308.1705)">
		</image>
	</g>
</g>
<line class="st1" x1="1225.9" y1="0" x2="1398.1" y2="-172.3"/>
<polygon class="st2" points="1430.3,-110.8 1333.8,-207.4 1430.3,-207.4 "/>
<g>
	<path class="st3" d="M5098.6-672.9c-138.1,0-250,111.9-250,250s111.9,250,250,250c138.1,0,250-111.9,250-250
		S5236.7-672.9,5098.6-672.9z"/>
</g>
<path class="st4" d="M249.4,0C111.3,0-0.6,111.9-0.6,250s111.9,250,250,250s250-111.9,250-250S387.4,0,249.4,0z"/>
<path class="st5" d="M319.1,287c0-36.5-21.9-49-65.6-54.2c-31.2-4.2-37.5-12.5-37.5-27.1s10.4-24,31.2-24c18.8,0,29.2,6.2,34.4,21.9
	c1,3.1,4.2,5.2,7.3,5.2h16.7c4.2,0,7.3-3.1,7.3-7.3v-1c-4.2-22.9-22.9-40.6-46.9-42.7v-25c0-4.2-3.1-7.3-8.3-8.3h-15.6
	c-4.2,0-7.3,3.1-8.3,8.3v24c-31.2,4.2-51,25-51,51c0,34.4,20.8,47.9,64.6,53.1c29.2,5.2,38.5,11.5,38.5,28.1s-14.6,28.1-34.4,28.1
	c-27.1,0-36.5-11.5-39.6-27.1c-1-4.2-4.2-6.2-7.3-6.2h-17.7c-4.2,0-7.3,3.1-7.3,7.3v1c4.2,26,20.8,44.8,55.2,50v25
	c0,4.2,3.1,7.3,8.3,8.3h15.6c4.2,0,7.3-3.1,8.3-8.3v-25C298.3,337,319.1,315.1,319.1,287L319.1,287L319.1,287z"/>
<g>
	<defs>
		<path id="SVGID_00000135681165880385397710000003726360851802517917_" d="M1062-78.2c-138.1,0-250,111.9-250,250
			s111.9,250,250,250s250-111.9,250-250S1200.1-78.2,1062-78.2z"/>
	</defs>
	<clipPath id="SVGID_00000106137056922842113360000009031937435271086752_">
		<use xlink:href="#SVGID_00000135681165880385397710000003726360851802517917_"  style="overflow:visible;"/>
	</clipPath>
	
		<g id="Q0QFWD_00000163042872477149245360000001246881836110533305_" style="clip-path:url(#SVGID_00000106137056922842113360000009031937435271086752_);">
		
			<image style="overflow:visible;" width="800" height="416" id="Q0QFWD" xlink:href="50AD9F92FC7EF189.jpg"  transform="matrix(1.2019 0 0 1.2019 686.6046 -78.2387)">
		</image>
	</g>
</g>
<path class="st5" d="M1011-761.1c0-46.4-27.8-62.3-83.5-68.9c-39.8-5.3-47.7-15.9-47.7-34.4S893-895,919.5-895
	c23.9,0,37.1,8,43.7,27.8c1.3,4,5.3,6.6,9.3,6.6h21.2c5.3,0,9.3-4,9.3-9.3v-1.3c-5.3-29.2-29.2-51.7-59.6-54.3v-31.8
	c0-5.3-4-9.3-10.6-10.6h-19.9c-5.3,0-9.3,4-10.6,10.6v30.5c-39.8,5.3-64.9,31.8-64.9,64.9c0,43.7,26.5,60.9,82.1,67.6
	c37.1,6.6,49,14.6,49,35.8s-18.5,35.8-43.7,35.8c-34.4,0-46.4-14.6-50.3-34.4c-1.3-5.3-5.3-8-9.3-8h-22.5c-5.3,0-9.3,4-9.3,9.3v1.3
	c5.3,33.1,26.5,57,70.2,63.6v31.8c0,5.3,4,9.3,10.6,10.6h19.9c5.3,0,9.3-4,10.6-10.6v-31.8C984.5-697.5,1011-725.4,1011-761.1
	L1011-761.1L1011-761.1z"/>
<path class="st5" d="M196.2,395.8C115,366.7,73.3,276,103.5,195.8c15.6-43.8,50-77.1,92.7-92.7c4.2-2.1,6.2-5.2,6.2-10.4V78.1
	c0-4.2-2.1-7.3-6.2-8.3c-1,0-3.1,0-4.2,1c-99,31.2-153.1,136.5-121.9,235.4c18.8,58.3,63.5,103.1,121.9,121.9c4.2,2.1,8.3,0,9.4-4.2
	c1-1,1-2.1,1-4.2v-14.6C202.5,402.1,199.4,397.9,196.2,395.8L196.2,395.8z M306.6,70.8c-4.2-2.1-8.3,0-9.4,4.2c-1,1-1,2.1-1,4.2
	v14.6c0,4.2,3.1,8.3,6.2,10.4c81.2,29.2,122.9,119.8,92.7,200c-15.6,43.8-50,77.1-92.7,92.7c-4.2,2.1-6.2,5.2-6.2,10.4v14.6
	c0,4.2,2.1,7.3,6.2,8.3c1,0,3.1,0,4.2-1c99-31.2,153.1-136.5,121.9-235.4C409.8,134.4,364,89.6,306.6,70.8L306.6,70.8L306.6,70.8z"
	/>
<g>
	<path class="st4" d="M1648.1-672.3c-138.1,0-250,111.9-250,250s111.9,250,250,250s250-111.9,250-250S1786.2-672.3,1648.1-672.3z"/>
	<path class="st5" d="M1717.9-385.3c0-36.5-21.9-49-65.6-54.2c-31.2-4.2-37.5-12.5-37.5-27.1c0-14.6,10.4-24,31.2-24
		c18.8,0,29.2,6.2,34.4,21.9c1,3.1,4.2,5.2,7.3,5.2h16.7c4.2,0,7.3-3.1,7.3-7.3v-1c-4.2-22.9-22.9-40.6-46.9-42.7v-25
		c0-4.2-3.1-7.3-8.3-8.3h-15.6c-4.2,0-7.3,3.1-8.3,8.3v24c-31.2,4.2-51,25-51,51c0,34.4,20.8,47.9,64.6,53.1
		c29.2,5.2,38.5,11.5,38.5,28.1s-14.6,28.1-34.4,28.1c-27.1,0-36.5-11.5-39.6-27.1c-1-4.2-4.2-6.2-7.3-6.2h-17.7
		c-4.2,0-7.3,3.1-7.3,7.3v1c4.2,26,20.8,44.8,55.2,50v25c0,4.2,3.1,7.3,8.3,8.3h15.6c4.2,0,7.3-3.1,8.3-8.3v-25
		C1697.1-335.3,1717.9-357.2,1717.9-385.3L1717.9-385.3L1717.9-385.3z"/>
	<path class="st5" d="M1595-276.5c-81.2-29.2-122.9-119.8-92.7-200c15.6-43.7,50-77.1,92.7-92.7c4.2-2.1,6.2-5.2,6.2-10.4v-14.6
		c0-4.2-2.1-7.3-6.2-8.3c-1,0-3.1,0-4.2,1c-99,31.2-153.1,136.5-121.9,235.4c18.8,58.3,63.5,103.1,121.9,121.9
		c4.2,2.1,8.3,0,9.4-4.2c1-1,1-2.1,1-4.2v-14.6C1601.3-270.2,1598.1-274.4,1595-276.5L1595-276.5z M1705.4-601.5
		c-4.2-2.1-8.3,0-9.4,4.2c-1,1-1,2.1-1,4.2v14.6c0,4.2,3.1,8.3,6.2,10.4c81.2,29.2,122.9,119.8,92.7,200
		c-15.6,43.8-50,77.1-92.7,92.7c-4.2,2.1-6.2,5.2-6.2,10.4v14.6c0,4.2,2.1,7.3,6.2,8.3c1,0,3.1,0,4.2-1
		c99-31.3,153.1-136.5,121.9-235.4C1808.6-537.9,1762.7-582.7,1705.4-601.5L1705.4-601.5L1705.4-601.5z"/>
</g>
<line class="st1" x1="1225.9" y1="-1704.3" x2="1398.1" y2="-1876.6"/>
<polygon class="st2" points="1430.3,-1815.2 1333.8,-1911.7 1430.3,-1911.7 "/>
<g>
	<defs>
		<path id="SVGID_00000093892627992903186040000010886379351398832296_" d="M1062-1782.6c-138.1,0-250,111.9-250,250
			s111.9,250,250,250s250-111.9,250-250S1200.1-1782.6,1062-1782.6z"/>
	</defs>
	<clipPath id="SVGID_00000047048263001810958270000004366820296746671507_">
		<use xlink:href="#SVGID_00000093892627992903186040000010886379351398832296_"  style="overflow:visible;"/>
	</clipPath>
	
		<g id="Q0QFWD_00000083808741530708757090000014677609386454476437_" style="clip-path:url(#SVGID_00000047048263001810958270000004366820296746671507_);">
		
			<image style="overflow:visible;" width="800" height="416" id="Q0QFWD_00000165954421429328751780000018059771266921275068_" xlink:href="50AD9F92FC7EF18F.jpg"  transform="matrix(1.2019 0 0 1.2019 686.6046 -1782.5852)">
		</image>
	</g>
</g>
<g>
	<path class="st4" d="M1648.1-2376.6c-138.1,0-250,111.9-250,250s111.9,250,250,250s250-111.9,250-250S1786.2-2376.6,1648.1-2376.6z
		"/>
	<path class="st5" d="M1717.9-2089.7c0-36.5-21.9-49-65.6-54.2c-31.2-4.2-37.5-12.5-37.5-27.1c0-14.6,10.4-24,31.2-24
		c18.8,0,29.2,6.2,34.4,21.9c1,3.1,4.2,5.2,7.3,5.2h16.7c4.2,0,7.3-3.1,7.3-7.3v-1c-4.2-22.9-22.9-40.6-46.9-42.7v-25
		c0-4.2-3.1-7.3-8.3-8.3h-15.6c-4.2,0-7.3,3.1-8.3,8.3v24c-31.2,4.2-51,25-51,51c0,34.4,20.8,47.9,64.6,53.1
		c29.2,5.2,38.5,11.5,38.5,28.1c0,16.7-14.6,28.1-34.4,28.1c-27.1,0-36.5-11.5-39.6-27.1c-1-4.2-4.2-6.2-7.3-6.2h-17.7
		c-4.2,0-7.3,3.1-7.3,7.3v1c4.2,26,20.8,44.8,55.2,50v25c0,4.2,3.1,7.3,8.3,8.3h15.6c4.2,0,7.3-3.1,8.3-8.3v-25
		C1697.1-2039.7,1717.9-2061.5,1717.9-2089.7L1717.9-2089.7L1717.9-2089.7z"/>
	<path class="st5" d="M1595-1980.8c-81.2-29.2-122.9-119.8-92.7-200c15.6-43.8,50-77.1,92.7-92.7c4.2-2.1,6.2-5.2,6.2-10.4v-14.6
		c0-4.2-2.1-7.3-6.2-8.3c-1,0-3.1,0-4.2,1c-99,31.2-153.1,136.5-121.9,235.4c18.8,58.3,63.5,103.1,121.9,121.9
		c4.2,2.1,8.3,0,9.4-4.2c1-1,1-2.1,1-4.2v-14.6C1601.3-1974.6,1598.1-1978.7,1595-1980.8L1595-1980.8z M1705.4-2305.8
		c-4.2-2.1-8.3,0-9.4,4.2c-1,1-1,2.1-1,4.2v14.6c0,4.2,3.1,8.3,6.2,10.4c81.2,29.2,122.9,119.8,92.7,200
		c-15.6,43.8-50,77.1-92.7,92.7c-4.2,2.1-6.2,5.2-6.2,10.4v14.6c0,4.2,2.1,7.3,6.2,8.3c1,0,3.1,0,4.2-1
		c99-31.2,153.1-136.5,121.9-235.4C1808.6-2242.3,1762.7-2287.1,1705.4-2305.8L1705.4-2305.8L1705.4-2305.8z"/>
</g>
<g>
	<path class="st8" d="M2602.5-78.2c-138.1,0-250,111.9-250,250s111.9,250,250,250s250-111.9,250-250S2740.6-78.2,2602.5-78.2z"/>
</g>
<g>
	<path class="st5" d="M2691.3,218.8c0-46.4-27.8-62.3-83.5-68.9c-39.8-5.3-47.7-15.9-47.7-34.4s13.3-30.5,39.8-30.5
		c23.9,0,37.1,8,43.7,27.8c1.3,4,5.3,6.6,9.3,6.6h21.2c5.3,0,9.3-4,9.3-9.3v-1.3c-5.3-29.2-29.2-51.7-59.6-54.3V22.7
		c0-5.3-4-9.3-10.6-10.6h-19.9c-5.3,0-9.3,4-10.6,10.6v30.5c-39.8,5.3-64.9,31.8-64.9,64.9c0,43.7,26.5,60.9,82.1,67.6
		c37.1,6.6,49,14.6,49,35.8s-18.5,35.8-43.7,35.8c-34.4,0-46.4-14.6-50.3-34.4c-1.3-5.3-5.3-8-9.3-8H2523c-5.3,0-9.3,4-9.3,9.3v1.3
		c5.3,33.1,26.5,57,70.2,63.6v31.8c0,5.3,4,9.3,10.6,10.6h19.9c5.3,0,9.3-4,10.6-10.6V289C2664.8,282.4,2691.3,254.6,2691.3,218.8
		L2691.3,218.8L2691.3,218.8z"/>
</g>
<g>
	<g>
		<path class="st4" d="M3188.7-672.3c-138.1,0-250,111.9-250,250s111.9,250,250,250c138.1,0,250-111.9,250-250
			S3326.7-672.3,3188.7-672.3z"/>
	</g>
	<g>
		<path class="st5" d="M3258.5-385.3c0-36.5-21.9-49-65.6-54.2c-31.2-4.2-37.5-12.5-37.5-27.1c0-14.6,10.4-24,31.2-24
			c18.8,0,29.2,6.2,34.4,21.9c1,3.1,4.2,5.2,7.3,5.2h16.7c4.2,0,7.3-3.1,7.3-7.3v-1c-4.2-22.9-22.9-40.6-46.9-42.7v-25
			c0-4.2-3.1-7.3-8.3-8.3h-15.6c-4.2,0-7.3,3.1-8.3,8.3v24c-31.2,4.2-51,25-51,51c0,34.4,20.8,47.9,64.6,53.1
			c29.2,5.2,38.5,11.5,38.5,28.1s-14.6,28.1-34.4,28.1c-27.1,0-36.5-11.5-39.6-27.1c-1-4.2-4.2-6.2-7.3-6.2h-17.7
			c-4.2,0-7.3,3.1-7.3,7.3v1c4.2,26,20.8,44.8,55.2,50v25c0,4.2,3.1,7.3,8.3,8.3h15.6c4.2,0,7.3-3.1,8.3-8.3v-25
			C3237.6-335.3,3258.4-357.2,3258.5-385.3L3258.5-385.3L3258.5-385.3z"/>
	</g>
	<g>
		<path class="st5" d="M3135.5-276.5c-81.2-29.2-122.9-119.8-92.7-200c15.6-43.7,50-77.1,92.7-92.7c4.2-2.1,6.2-5.2,6.2-10.4v-14.6
			c0-4.2-2.1-7.3-6.2-8.3c-1,0-3.1,0-4.2,1c-99,31.2-153.1,136.5-121.9,235.4c18.8,58.3,63.5,103.1,121.9,121.9
			c4.2,2.1,8.3,0,9.4-4.2c1-1,1-2.1,1-4.2v-14.6C3141.8-270.2,3138.7-274.4,3135.5-276.5L3135.5-276.5z M3246-601.5
			c-4.2-2.1-8.3,0-9.4,4.2c-1,1-1,2.1-1,4.2v14.6c0,4.2,3.1,8.3,6.2,10.4c81.2,29.2,122.9,119.8,92.7,200
			c-15.6,43.8-50,77.1-92.7,92.7c-4.2,2.1-6.2,5.2-6.2,10.4v14.6c0,4.2,2.1,7.3,6.2,8.3c1,0,3.1,0,4.2-1
			c99-31.3,153.1-136.5,121.9-235.4C3349.1-537.9,3303.3-582.7,3246-601.5L3246-601.5L3246-601.5z"/>
	</g>
</g>
<g>
	<g>
		<path class="st4" d="M4524.7-78.2c-138.1,0-250,111.9-250,250s111.9,250,250,250c138.1,0,250-111.9,250-250
			S4662.8-78.2,4524.7-78.2z"/>
	</g>
	<g>
		<path class="st5" d="M4594.5,208.7c0-36.5-21.9-49-65.6-54.2c-31.2-4.2-37.5-12.5-37.5-27.1s10.4-24,31.2-24
			c18.8,0,29.2,6.2,34.4,21.9c1,3.1,4.2,5.2,7.3,5.2h16.7c4.2,0,7.3-3.1,7.3-7.3v-1c-4.2-22.9-22.9-40.6-46.9-42.7v-25
			c0-4.2-3.1-7.3-8.3-8.3h-15.6c-4.2,0-7.3,3.1-8.3,8.3v24c-31.2,4.2-51,25-51,51c0,34.4,20.8,47.9,64.6,53.1
			c29.2,5.2,38.5,11.5,38.5,28.1s-14.6,28.1-34.4,28.1c-27.1,0-36.5-11.5-39.6-27.1c-1-4.2-4.2-6.2-7.3-6.2h-17.7
			c-4.2,0-7.3,3.1-7.3,7.3v1c4.2,26,20.8,44.8,55.2,50v25c0,4.2,3.1,7.3,8.3,8.3h15.6c4.2,0,7.3-3.1,8.3-8.3v-25
			C4573.6,258.7,4594.5,236.9,4594.5,208.7L4594.5,208.7L4594.5,208.7z"/>
	</g>
	<g>
		<path class="st5" d="M4471.6,317.6c-81.2-29.2-122.9-119.8-92.7-200c15.6-43.8,50-77.1,92.7-92.7c4.2-2.1,6.2-5.2,6.2-10.4V-0.1
			c0-4.2-2.1-7.3-6.2-8.3c-1,0-3.1,0-4.2,1c-99,31.2-153.1,136.5-121.9,235.4c18.8,58.3,63.5,103.1,121.9,121.9
			c4.2,2.1,8.3,0,9.4-4.2c1-1,1-2.1,1-4.2V327C4477.8,323.8,4474.7,319.7,4471.6,317.6L4471.6,317.6z M4582-7.4
			c-4.2-2.1-8.3,0-9.4,4.2c-1,1-1,2.1-1,4.2v14.6c0,4.2,3.1,8.3,6.2,10.4c81.2,29.2,122.9,119.8,92.7,200
			c-15.6,43.8-50,77.1-92.7,92.7c-4.2,2.1-6.2,5.2-6.2,10.4v14.6c0,4.2,2.1,7.3,6.2,8.3c1,0,3.1,0,4.2-1
			c99-31.2,153.1-136.5,121.9-235.4C4685.1,56.1,4639.3,11.3,4582-7.4L4582-7.4L4582-7.4z"/>
	</g>
</g>
<g>
	
		<rect x="2730.7" y="-111.1" transform="matrix(0.7071 -0.7071 0.7071 0.7071 896.3978 1991.7999)" class="st9" width="243.7" height="50"/>
</g>
<g>
	<polygon class="st8" points="2970.9,-110.8 2874.3,-207.4 2970.9,-207.4 	"/>
</g>
<g>
	<polygon class="st10" points="4728.8,-357.4 4728.8,-493.9 4797.1,-425.7 	"/>
</g>
<g>
	<polygon class="st10" points="4874.8,110.6 4874.8,247.1 4806.5,178.8 	"/>
</g>
<g id="zSb0aQ_00000042009695954510082060000010122877201195999890_">
	
		<image style="overflow:visible;" width="350" height="256" id="zSb0aQ" xlink:href="50AD9F92FC7EF188.png"  transform="matrix(1.2682 0 0 1.2682 4876.6685 -585.2582)">
	</image>
</g>
<g>
	<path class="st11" d="M3651.7-1280.1l31.7-31.7l-121.6-121.6c-46.6,42.4-106.8,65.8-169.9,65.8c-67.4,0-130.9-26.3-178.5-74
		s-74-111.1-74-178.5c0-67.4,26.3-130.9,74-178.5c47.7-47.7,111.1-74,178.5-74c67.4,0,130.9,26.3,178.5,74s74,111.1,74,178.5
		c0,52.5-15.9,102.7-46.1,145.4l124,124l34.5-34.5v105.1H3651.7z"/>
	<path d="M3391.8-1870.1c138.1,0,250,111.9,250,250c0,54.4-17.4,104.7-46.8,145.7l127.3,127.3l32-32v96.6h-96.6l29.2-29.2
		l-125.1-125.1c-44.6,41.4-104.4,66.7-170,66.7c-138.1,0-250-111.9-250-250C3141.8-1758.2,3253.7-1870.1,3391.8-1870.1
		 M3391.8-1875.1c-34.4,0-67.8,6.7-99.3,20c-30.4,12.8-57.6,31.2-81.1,54.6c-23.4,23.4-41.8,50.7-54.6,81.1
		c-13.3,31.4-20,64.8-20,99.3c0,34.4,6.7,67.8,20,99.3c12.8,30.4,31.2,57.6,54.6,81.1s50.7,41.8,81.1,54.6
		c31.4,13.3,64.8,20,99.3,20c62.9,0,123.1-23,169.9-64.8l118.2,118.2l-25.6,25.6l-8.5,8.5h12.1h96.6h5v-5v-96.6v-12.1l-8.5,8.5
		l-28.5,28.5L3601.5-1475c29.7-42.8,45.3-92.8,45.3-145.1c0-34.4-6.7-67.8-20-99.3c-12.8-30.4-31.2-57.6-54.6-81.1
		c-23.4-23.4-50.7-41.8-81.1-54.6C3459.6-1868.4,3426.2-1875.1,3391.8-1875.1L3391.8-1875.1z"/>
</g>
<g id="zSb0aQ_00000010268208359191584000000001855536174207662476_">
	
		<image style="overflow:visible;" width="350" height="256" id="zSb0aQ_00000124132140765662204970000004379821427960332456_" xlink:href="50AD9F92FC7EF18B.png"  transform="matrix(1.2682 0 0 1.2682 3169.8535 -1782.4323)">
	</image>
</g>
<path class="st12" d="M5113.3-85.4c0,146-118.3,264.3-264.3,264.3"/>
<path class="st12" d="M4484.5-161.4c0-146,118.3-264.3,264.3-264.3"/>
<g>
	<path class="st10" d="M4884.5-234.7l-224.1,42.5l42.6,80.2l58.8,101.3l39.1,8.9l97.9-137.6L4884.5-234.7z M4788.9-31.1l-25.8-3.2
		l-94.3-153l203.1-36.5L4788.9-31.1z"/>
	<path class="st10" d="M4773.9-79.5l43.5-101.1l-95.2,17.1L4773.9-79.5z M4777.4-102.8l-13.5-43.1l42.3-18.7L4777.4-102.8z"/>
</g>
<g>
	<g>
		<g>
			<path class="st11" d="M6806.3-170.4c-67.4,0-130.9-26.3-178.5-74c-47.7-47.7-74-111.1-74-178.5c0-67.4,26.3-130.9,74-178.5
				c47.7-47.7,111.1-74,178.5-74c67.4,0,130.9,26.3,178.5,74s74,111.1,74,178.5c0,67.4-26.3,130.9-74,178.5
				C6937.1-196.7,6873.7-170.4,6806.3-170.4z"/>
			<path d="M6806.3-672.9c138.1,0,250,111.9,250,250s-111.9,250-250,250c-138.1,0-250-111.9-250-250S6668.2-672.9,6806.3-672.9
				 M6806.3-677.9c-34.4,0-67.8,6.7-99.3,20c-30.4,12.8-57.6,31.2-81.1,54.6c-23.4,23.4-41.8,50.7-54.6,81.1
				c-13.3,31.4-20,64.8-20,99.3c0,34.4,6.7,67.8,20,99.3c12.8,30.4,31.2,57.6,54.6,81.1c23.4,23.4,50.7,41.8,81.1,54.6
				c31.4,13.3,64.8,20,99.3,20s67.8-6.7,99.3-20c30.4-12.8,57.6-31.2,81.1-54.6s41.8-50.7,54.6-81.1c13.3-31.4,20-64.8,20-99.3
				s-6.7-67.8-20-99.3c-12.8-30.4-31.2-57.6-54.6-81.1c-23.4-23.4-50.7-41.8-81.1-54.6C6874.1-671.2,6840.7-677.9,6806.3-677.9
				L6806.3-677.9z"/>
		</g>
	</g>
</g>
<g>
	<g>
		<g>
			<path class="st4" d="M6232.4-78.2c-138.1,0-250,111.9-250,250s111.9,250,250,250c138.1,0,250-111.9,250-250
				S6370.4-78.2,6232.4-78.2z"/>
		</g>
	</g>
	<g>
		<g>
			<path class="st5" d="M6302.1,208.7c0-36.5-21.9-49-65.6-54.2c-31.2-4.2-37.5-12.5-37.5-27.1s10.4-24,31.2-24
				c18.8,0,29.2,6.2,34.4,21.9c1,3.1,4.2,5.2,7.3,5.2h16.7c4.2,0,7.3-3.1,7.3-7.3v-1c-4.2-22.9-22.9-40.6-46.9-42.7v-25
				c0-4.2-3.1-7.3-8.3-8.3h-15.6c-4.2,0-7.3,3.1-8.3,8.3v24c-31.2,4.2-51,25-51,51c0,34.4,20.8,47.9,64.6,53.1
				c29.2,5.2,38.5,11.5,38.5,28.1s-14.6,28.1-34.4,28.1c-27.1,0-36.5-11.5-39.6-27.1c-1-4.2-4.2-6.2-7.3-6.2h-17.7
				c-4.2,0-7.3,3.1-7.3,7.3v1c4.2,26,20.8,44.8,55.2,50v25c0,4.2,3.1,7.3,8.3,8.3h15.6c4.2,0,7.3-3.1,8.3-8.3v-25
				C6281.3,258.7,6302.1,236.9,6302.1,208.7L6302.1,208.7L6302.1,208.7z"/>
		</g>
	</g>
	<g>
		<g>
			<path class="st5" d="M6179.2,317.6c-81.2-29.2-122.9-119.8-92.7-200c15.6-43.8,50-77.1,92.7-92.7c4.2-2.1,6.2-5.2,6.2-10.4V-0.1
				c0-4.2-2.1-7.3-6.2-8.3c-1,0-3.1,0-4.2,1c-99,31.2-153.1,136.5-121.9,235.4c18.8,58.3,63.5,103.1,121.9,121.9
				c4.2,2.1,8.3,0,9.4-4.2c1-1,1-2.1,1-4.2V327C6185.5,323.8,6182.4,319.7,6179.2,317.6L6179.2,317.6z M6289.6-7.4
				c-4.2-2.1-8.3,0-9.4,4.2c-1,1-1,2.1-1,4.2v14.6c0,4.2,3.1,8.3,6.2,10.4c81.2,29.2,122.9,119.8,92.7,200
				c-15.6,43.8-50,77.1-92.7,92.7c-4.2,2.1-6.2,5.2-6.2,10.4v14.6c0,4.2,2.1,7.3,6.2,8.3c1,0,3.1,0,4.2-1
				c99-31.2,153.1-136.5,121.9-235.4C6392.8,56.1,6346.9,11.3,6289.6-7.4L6289.6-7.4L6289.6-7.4z"/>
		</g>
	</g>
</g>
<g>
	<g>
		<polygon class="st10" points="6436.5,-357.4 6436.5,-493.9 6504.7,-425.7 		"/>
	</g>
</g>
<g>
	<g>
		<polygon class="st10" points="6582.4,110.6 6582.4,247.1 6514.2,178.8 		"/>
	</g>
</g>
<g id="zSb0aQ_00000066504721802603480920000013198138792538731184_">
	
		<image style="overflow:visible;" width="350" height="256" id="zSb0aQ_00000106135782795060660600000009760262906988328071_" xlink:href="50AD9F92FC7EF189.png"  transform="matrix(1.2682 0 0 1.2682 6584.3354 -585.2582)">
	</image>
</g>
<g>
	<path d="M6556.7,203.8v-50c63.9,0,124-24.9,169.2-70.1S6796-21.5,6796-85.4h50c0,77.3-30.1,149.9-84.7,204.6
		C6706.6,173.7,6634,203.8,6556.7,203.8z"/>
</g>
<g>
	<path d="M6217.2-161.4h-50c0-77.3,30.1-149.9,84.7-204.6c54.6-54.6,127.3-84.7,204.6-84.7v50c-63.9,0-124,24.9-169.2,70.1
		C6242.1-285.4,6217.2-225.3,6217.2-161.4z"/>
</g>
<g>
	<g>
		<path class="st10" d="M6592.2-234.7L6368-192.3l42.6,80.2l58.8,101.3l39.1,8.9l97.9-137.6L6592.2-234.7z M6496.6-31.1l-25.8-3.2
			l-94.3-153l203.1-36.5L6496.6-31.1z"/>
	</g>
	<g>
		<path class="st10" d="M6481.6-79.5l43.5-101.1l-95.2,17.1L6481.6-79.5z M6485.1-102.8l-13.5-43.1l42.3-18.7L6485.1-102.8z"/>
	</g>
</g>
<g>
	<path d="M3979.2-1308.2c138.1,0,250,111.9,250,250s-111.9,250-250,250s-250-111.9-250-250S3841.1-1308.2,3979.2-1308.2
		 M3979.2-1313.2c-34.4,0-67.8,6.7-99.3,20c-30.4,12.8-57.6,31.2-81.1,54.6c-23.4,23.4-41.8,50.7-54.6,81.1
		c-13.3,31.4-20,64.8-20,99.3c0,34.4,6.7,67.8,20,99.3c12.8,30.4,31.2,57.6,54.6,81.1c23.4,23.4,50.7,41.8,81.1,54.6
		c31.4,13.3,64.8,20,99.3,20s67.8-6.7,99.3-20c30.4-12.8,57.6-31.2,81.1-54.6c23.4-23.4,41.8-50.7,54.6-81.1
		c13.3-31.4,20-64.8,20-99.3c0-34.4-6.7-67.8-20-99.3c-12.8-30.4-31.2-57.6-54.6-81.1s-50.7-41.8-81.1-54.6
		C4047-1306.4,4013.6-1313.2,3979.2-1313.2L3979.2-1313.2z"/>
</g>
</svg>
