<svg xmlns="http://www.w3.org/2000/svg" width="48" height="48" fill="none"><g clip-path="url(#clip0_2067_3803)"><rect width="48" height="48" rx="20" fill="#fff"/><path d="M47.277 29.806C44.07 42.663 31.049 50.488 18.19 47.282 5.337 44.075-2.488 31.053.72 18.197 3.923 5.338 16.945-2.487 29.799.718c12.859 3.206 20.683 16.23 17.477 29.088z" fill="#50AF95"/><path fill-rule="evenodd" clip-rule="evenodd" d="M27.037 26.72c-.17.014-1.046.066-3.002.066-1.556 0-2.66-.047-3.048-.065-6.011-.265-10.499-1.311-10.499-2.564 0-1.253 4.488-2.298 10.5-2.567v4.089c.392.028 1.518.094 3.074.094 1.866 0 2.801-.077 2.97-.093v-4.087c5.998.267 10.476 1.314 10.476 2.564s-4.476 2.297-10.477 2.563h.006zm0-5.55v-3.658h8.372v-5.58H12.615v5.58h8.37v3.657c-6.803.312-11.92 1.66-11.92 3.275s5.117 2.961 11.92 3.275v11.724h6.05V27.715c6.789-.312 11.896-1.659 11.896-3.272 0-1.614-5.103-2.96-11.896-3.274l.002.001z" fill="#fff"/></g><defs><clipPath id="clip0_2067_3803"><rect width="48" height="48" rx="24" fill="#fff"/></clipPath></defs></svg>