<svg xmlns="http://www.w3.org/2000/svg" width="48" height="48"><defs><linearGradient id="a" gradientUnits="userSpaceOnUse" x1="20" y1="0" x2="20" y2="40"><stop offset="0" stop-color="#7aedcf"/><stop offset=".201" stop-color="#68cefa"/><stop offset=".403" stop-color="#689cf8"/><stop offset=".602" stop-color="#ac57c0"/><stop offset=".802" stop-color="#e65659"/><stop offset="1" stop-color="#f2c241"/></linearGradient></defs><path d="M0 24C0 10.746 10.746 0 24 0s24 10.746 24 24-10.746 24-24 24S0 37.254 0 24zm0 0" fill="#fff"/><path d="M38.563 15.293c-.497-.375-1.09-.89-2.165-1.027-1.015-.13-2.046.527-2.742.96-.695.434-2.015 1.711-2.562 2.098-.547.383-1.942.746-4.18 2.047-2.242 1.3-11.05 6.766-11.05 6.766l2.288.023L7.95 31.27h1.02L7.5 32.352s1.293.336 2.39-.336v.304s12.16-4.64 14.516-3.433l-1.426.406c.122 0 2.438.145 2.438.145s.074 1.398 1.469 2.289c1.394.89 1.418 1.37 1.418 1.37s-.723.294-.723.653c0 0 1.07-.313 2.066-.29.997.024 1.868.29 1.868.29s-.075-.387-1.047-.652c-.969-.262-1.914-1.274-2.387-1.828a2.518 2.518 0 0 1-.395-2.532c.336-.836 1.497-1.3 3.903-2.504 2.84-1.418 3.484-2.48 3.883-3.3.398-.817.996-2.457 1.324-3.227.422-.988.941-1.516 1.363-1.828.422-.317 2.34-1.012 2.34-1.012s-1.46-1.21-1.938-1.574zm0 0" fill="#1b2026"/><path d="M38.75 20c0 10.355-8.395 18.75-18.75 18.75S1.25 30.355 1.25 20 9.645 1.25 20 1.25 38.75 9.645 38.75 20zm0 0" transform="scale(1.2)" fill="none" stroke-width="2.5" stroke="url(#a)"/></svg>