<svg xmlns="http://www.w3.org/2000/svg" width="48" height="48"><path d="M24 19.008v10.894l8.29 4.782zm0 0" fill="#b5c0f1"/><path d="M24 29.902l-8.29 4.782h16.58zm0 0" fill="#221363"/><path d="M24 19.008l-8.29 15.676 8.31-4.782zm0 0" fill="#03a5ed"/><path d="M135.5 38.891L37.007 209.492h196.986zm0 0" transform="scale(.17712 .19355)" fill="none" stroke-width="3.621" stroke="#03a5ed" stroke-miterlimit="10"/><path d="M25.223 7.664C25.223 8.402 24.676 9 24 9s-1.223-.598-1.223-1.336c0-.738.547-1.336 1.223-1.336s1.223.598 1.223 1.336zm0 0M42.387 40.316c0 .739-.547 1.336-1.223 1.336s-1.223-.597-1.223-1.336c0-.738.547-1.336 1.223-1.336s1.223.598 1.223 1.336zm0 0M8.059 40.336c0 .738-.547 1.336-1.223 1.336s-1.223-.598-1.223-1.336c0-.738.547-1.336 1.223-1.336s1.223.598 1.223 1.336zm0 0" fill="#03a5ed"/></svg>