<svg width="64" height="64" viewBox="0 0 64 64" fill="none" xmlns="http://www.w3.org/2000/svg">
<rect width="64" height="64" rx="32" fill="#0E0E0E"/>
<path fill-rule="evenodd" clip-rule="evenodd" d="M18.6292 49.9308C13.1698 45.852 9.6352 39.3384 9.6352 32C9.6352 19.6489 19.6489 9.6352 32 9.6352C42.1971 9.6352 53.3279 15.7305 56.0204 25.0568C53.0128 14.6306 43.4001 7 32 7C18.1939 7 7 18.1939 7 32C7 45.8061 18.1939 57 32 57C45.8061 57 57 45.8061 57 32V30.6824H55.6251C55.585 30.6824 55.522 30.6824 55.4418 30.6824C55.2814 30.6824 55.0465 30.6767 54.7486 30.6652C54.1586 30.648 53.3394 30.6079 52.4228 30.5277C50.5495 30.3673 48.407 30.0465 46.9519 29.4622C44.6088 28.5284 43.2855 27.2853 41.7731 25.8359L41.6872 25.75C40.1748 24.2949 38.4734 22.6622 35.5231 21.2702C32.6187 19.901 29.4049 20.1244 27.0447 20.6056C25.8474 20.852 24.8162 21.1785 24.0887 21.442C23.722 21.5738 23.4299 21.6941 23.2236 21.78C22.0378 22.2784 20.8806 22.8742 19.7177 23.4184C19.7177 23.4184 22.0034 24.0486 23.1377 24.398C23.1778 24.4095 23.2408 24.4324 23.3268 24.461C23.4929 24.5183 23.7392 24.6043 24.0371 24.7246C24.6329 24.9652 25.4177 25.3318 26.1911 25.8302C27.4113 26.615 28.4253 27.6004 28.8378 28.8148C26.2484 29.1528 23.8194 30.2929 21.9977 31.3641C20.8978 32.0115 19.9812 32.6588 19.3396 33.1457C19.0188 33.3863 18.761 33.5926 18.5891 33.7358C18.4402 33.8561 16.1029 35.9184 16.1029 35.9184C16.1029 35.9184 19.1219 36.2392 20.6114 36.5371C21.6024 36.7376 22.9372 37.0584 24.3293 37.5454C25.7271 38.0323 27.1421 38.6739 28.3165 39.4931C29.4908 40.3123 30.3559 41.2633 30.7798 42.346C32.0172 45.5082 30.8027 48.5903 28.3623 50.3203C25.9505 52.039 22.2899 52.4457 18.6292 49.9308ZM27.1593 53.8435C28.1446 53.5227 29.0612 53.0587 29.8918 52.4743C33.2088 50.1141 34.956 45.7947 33.2317 41.395C32.5557 39.665 31.261 38.3417 29.8231 37.3391C28.3852 36.3366 26.7296 35.5976 25.1943 35.0648C24.1861 34.7154 23.2122 34.4404 22.3643 34.2342C22.668 34.0394 22.9945 33.8332 23.3382 33.6327C25.3662 32.4411 27.9154 31.3469 30.3616 31.3469C34.0509 31.3469 36.7949 32.4755 39.4129 33.69C39.6535 33.7988 39.8884 33.9134 40.129 34.028C42.472 35.1279 44.9297 36.2793 47.7883 36.2793C50.561 36.2793 52.7207 35.4945 54.2101 34.6868C52.8868 45.7775 43.4459 54.3705 32 54.3705C30.3387 54.3705 28.7175 54.1872 27.1593 53.8435ZM51.3687 33.0655C50.3834 33.4035 49.1918 33.6441 47.794 33.6441C45.5541 33.6441 43.6235 32.7447 41.1774 31.6047C40.9597 31.5016 40.742 31.4042 40.5186 31.3011C38.0667 30.1668 35.2367 28.9638 31.5474 28.7461C31.0548 26.3057 29.2044 24.6329 27.6176 23.6189C27.44 23.5044 27.2624 23.3955 27.0905 23.2981C27.2509 23.2637 27.4113 23.2236 27.5775 23.1893C29.7085 22.7482 32.2521 22.6393 34.406 23.6533C36.961 24.8563 38.4047 26.2427 39.9056 27.6806L39.9571 27.7321C41.5039 29.2159 43.1366 30.7683 45.9837 31.9083C47.5591 32.5385 49.61 32.8765 51.3687 33.0655Z" fill="url(#paint0_linear_2276_8660)"/>
<defs>
<linearGradient id="paint0_linear_2276_8660" x1="6.55583" y1="32.467" x2="57.4491" y2="31.537" gradientUnits="userSpaceOnUse">
<stop stop-color="#29CCB9"/>
<stop offset="0.4948" stop-color="#0091FF"/>
<stop offset="1" stop-color="#FF66B7"/>
</linearGradient>
</defs>
</svg>
