<svg xmlns="http://www.w3.org/2000/svg" width="48" height="48" viewBox="0 0 48 48">
    <path fill="#ee203e"
        d="M24 46.406c4.352 0 8.32-1.633 11.328-4.32H12.672A16.943 16.943 0 0 0 24 46.406Zm0-44.812c-9.395 0-17.008 7.613-17.008 17.008v10.796c0 5.043 2.196 9.575 5.68 12.688V18.602c0-6.258 5.074-11.329 11.328-11.329s11.328 5.07 11.328 11.329v23.484a16.969 16.969 0 0 0 5.68-12.688V18.602c0-9.395-7.613-17.008-17.008-17.008Zm-7.05 17.023a7.053 7.053 0 0 1 7.054 7.051l-.008-.012a7.05 7.05 0 0 1 7.055-7.047h.008c-3.891 0-7.047-3.16-7.047-7.054l-.012.008a7.048 7.048 0 0 1-7.047 7.054h-.008Zm0 0" />
</svg>