<svg xmlns="http://www.w3.org/2000/svg" width="48" height="48" viewBox="0 0 48 48" fill="none">
    <g clip-path="url(#clip0_2950_617)">
        <circle cx="24" cy="24" r="24" fill="#fff" />
        <g clip-path="url(#clip1_2950_617)">
            <path fill="#49328A"
                d="M25.338 6.503c.5.411.836 1.016.912 1.663.073 1.026-.118 1.95-.382 2.932l-.043.157-.038.141a.648.648 0 0 0-.027.284l.073-.073.499-.499.061-.064c.942-.963 2.195-1.445 3.532-1.466.437.003.837.122 1.188.386l.102.075c.332.287.528.763.592 1.192.01.134.012.268.013.403l.004.106c.005.529-.198 1.033-.376 1.524l-.163.455-.033.094c-1.102 3.103-1.634 6.38-1.284 9.676l.016.147c.086.798.228 1.58.388 2.366l.156.777a534.663 534.663 0 0 0 .395 1.98c.254 1.302.657 2.56 1.128 3.799.718 1.887.98 3.957.167 5.855a7.544 7.544 0 0 1-.288.563l-.043.077a8.146 8.146 0 0 1-1.265 1.68l-.079.087c-.63.673-1.549 1.155-2.476 1.191-1.5.033-2.872-.546-3.955-1.58l-.11-.106-.094-.087c-.357-.335-.51-.709-.642-1.17-.026-.125-.026-.125-.08-.173a4.318 4.318 0 0 0-.207-.023c-1.588-.15-3.184-.787-4.242-2.033a4.623 4.623 0 0 1-.76-1.264l-.031-.08a1.325 1.325 0 0 1-.073-.564l-.1-.028a3.235 3.235 0 0 1-.518-.26l-.104-.062c-.765-.453-1.42-1.006-1.648-1.898a2.124 2.124 0 0 1-.04-.326l-.007-.1c-.024-.696.226-1.265.62-1.821l.066-.095.137-.191-.057-.072c-.636-.838-1.28-2.023-1.249-3.105.022-.478.022-.478-.121-.92a2.923 2.923 0 0 0-.33-.234c-.825-.8-1.452-1.863-2.002-2.86l-.052-.094c-.299-.536-.542-1.092-.765-1.664l-.035-.09c-.587-1.53-.546-3.415.119-4.91a5.18 5.18 0 0 1 .692-1.088l.07-.09c.388-.48.95-.82 1.565-.891.568-.051 1.035.144 1.473.493.857.785.962 1.974 1.028 3.062.104 1.713.385 3.511 1.412 4.938.091.129.091.129.149.232.057.092.09.135.188.183.188.015.368-.004.554-.028.146-.019.291-.032.437-.046.16-.015.32-.032.48-.049l-.028-.078c-.736-2.119-1.204-4.304-1.485-6.528l-.01-.082c-.052-.41-.078-.82-.08-1.233v-.42l-.004-.422c-.004-.826.055-1.652.245-2.459l.032-.137c.253-1.056.65-2.097 1.289-2.983l.047-.067c.818-1.13 2.05-2.235 3.464-2.487.742-.103 1.424.03 2.033.482Z" />
            <path fill="#FEFEFE"
                d="M19.956 15.93c.082.04.082.04.13.177l.05.193.026.107c.08.343.124.688.165 1.037.125 1.364.125 1.364.8 2.503.162.116.262.127.464.11a.504.504 0 0 0 .25-.264c.05-.199.048-.389.049-.592 0-.089.002-.178.003-.266a192.391 192.391 0 0 0 .007-.82v-.124c.004-.28.013-.626.222-.835.148.208.24.412.325.65.126.352.262.68.604.87.28.099.553.035.828-.05l.003.135c.044 1.379.273 2.73.525 4.083.034.178.066.355.097.533.144.82.363 1.544.703 2.301l.055.12c.226.504.226.504.579.92.127.03.127.03.245.04l-.036-.067a11.644 11.644 0 0 1-.652-1.437 13.27 13.27 0 0 1-.13-.375l-.028-.085c-.191-.58-.306-1.165-.408-1.767l-.07-.4-.044-.258a21.562 21.562 0 0 0-.164-.843c-.03-.166-.03-.32-.021-.488l.069.052.09.068.088.067c.168.122.327.13.53.099a.736.736 0 0 0 .285-.41c.012-.085.02-.17.026-.257l.01-.132.005-.1.164-.041c.157.166.205.325.246.543l.02.1a42.587 42.587 0 0 1 .105.521c.052.255.103.509.152.763l.03.153.027.132c.035.123.088.213.155.321V23c.184.095.37.119.572.082a.773.773 0 0 0 .245-.286c.006-.094.009-.188.01-.281a97.212 97.212 0 0 1 .01-.44l.006-.26.003-.157c.012-.13.012-.13.094-.252.136.024.2.056.286.164.04.12.04.12.077.263.133.49.322 1.133.781 1.412.205.064.358.06.55-.038l.078-.047c.067-.037.067-.037.149-.037l.04-.123h.041l.011.128c.116 1.304.357 2.582.619 3.863l.123.607a781.57 781.57 0 0 0 .334 1.654 58.244 58.244 0 0 0 .076.39c.202 1.025.606 2.027.964 3.006.21.577.387 1.156.53 1.753l.023.093c.22.887.206 2.017-.064 2.89l-.027.091a6.43 6.43 0 0 1-.546 1.298l-.067.127c-.288.52-.665.998-1.077 1.426l-.108.114c-.656.685-1.483 1.103-2.436 1.13-.445.005-.836-.027-1.256-.182l-.149-.052a5.826 5.826 0 0 1-2.22-1.46l-.068-.062c-.29-.29-.384-.678-.51-1.057a76.66 76.66 0 0 0-.13-.388l-.075-.23c-.114-.343-.25-.69-.514-.947-.052-.054-.052-.054-.052-.135l-.072-.034a2.044 2.044 0 0 1-.247-.156c-.265-.179-.554-.314-.84-.454l-.331-.163-.085-.042c-.247-.122-.49-.25-.733-.379-.417-.22-.837-.433-1.258-.647-.495-.252-.99-.505-1.484-.761l-.117-.06a5.645 5.645 0 0 1-.927-.587c-.428-.329-.652-.702-.812-1.212l-.041-.123a2.37 2.37 0 0 1 .537-1.744c.09-.104.183-.202.28-.299l.084-.086c.742-.718 1.832-.913 2.823-.913 1.551.03 2.679 1.124 3.701 2.167.108.114.21.23.312.35.558.627 1.258 1.204 2.03 1.547l.08.037c.56.249 1.113.235 1.717.208-.043-.015-.087-.03-.131-.047a93.417 93.417 0 0 1-.706-.253c-1.023-.363-1.778-.87-2.555-1.62l-.062-.06a7.244 7.244 0 0 1-.476-.5c-.478-.556-1.026-1.018-1.614-1.453-.095-.072-.095-.072-.136-.112a4.7 4.7 0 0 1-.008-.229c-.024-1.044-.134-1.947-.679-2.858-.048-.1-.048-.1-.007-.223.084-.028.084-.028.163-.041l.042.067a112.014 112.014 0 0 0 .11.176c.043.07.089.138.134.206.125.03.125.03.245.041l-.05-.137-.065-.185-.032-.09a7.557 7.557 0 0 1-.155-.482 4.928 4.928 0 0 0-.265-.659c-.494-1.102-.893-2.244-1.272-3.391l-.043-.13a25.723 25.723 0 0 1-.774-3.083l-.018-.094a8.759 8.759 0 0 1-.145-.984l.231-.128c.311-.25.419-.583.537-.952l.096-.289.041-.128c.035-.096.035-.096.075-.137Z" />
            <path fill="#C14E95"
                d="M24.96 6.79c.474.36.742.84.825 1.426.108 1.054-.175 2.076-.458 3.082l-.03.109-.06.214c-.073.261-.127.524-.178.79-.098.51-.229.958-.446 1.429-.512 1.158-.671 2.489-.743 3.74-.018.28-.048.504-.269.7-.154.072-.214.075-.375.02-.324-.193-.421-.619-.542-.956-.131-.352-.131-.352-.398-.597-.086 0-.086 0-.181.01l-.097.008c-.105.027-.14.067-.212.145h-.082a3.706 3.706 0 0 0-.221 1.282l-.003.127-.006.397-.005.271-.01.661c-.226-.1-.288-.271-.377-.491-.2-.552-.277-1.127-.368-1.705-.082-1.063-.082-1.063-.555-1.949a.871.871 0 0 0-.375-.023c-.23.21-.297.48-.389.771-.1.316-.198.591-.388.864-.082-.041-.082-.041-.125-.14a2.504 2.504 0 0 1-.07-.466c-.004-.09-.004-.09-.05-.17-.028-.218-.045-.436-.064-.654l-.008-.098a15.193 15.193 0 0 1-.049-1.836c.047-2.112.754-4.265 2.246-5.79l.083-.089c.983-1.035 2.63-1.966 3.98-1.083Z" />
            <path fill="#BE4B94"
                d="M30.885 10.347c.315.303.45.69.481 1.122.009.555-.141 1.048-.333 1.564l-.12.333-.031.087c-.113.313-.22.629-.325.944l-.062.185c-.678 2.01-1 4.107-1.077 6.223l-.005.13c-.008.214-.015.427-.02.64-.027.913-.027.913-.3 1.227-.105.074-.105.074-.207.102-.184-.05-.26-.197-.355-.35-.152-.277-.241-.578-.33-.88-.085-.277-.201-.506-.46-.655-.19-.042-.302-.047-.477.046a.72.72 0 0 0-.279.463c-.006.091-.01.183-.012.275l-.006.16-.005.167-.005.17-.012.413c-.207-.15-.22-.36-.263-.596l-.026-.129a68.959 68.959 0 0 0-.207-1.064c-.058-.295-.123-.593-.347-.806-.193-.122-.362-.135-.588-.102-.136.103-.19.165-.245.327a8.047 8.047 0 0 0-.02.245c-.01.134-.019.24-.061.368-.233-.057-.359-.221-.49-.41-.335-.579-.416-1.11-.416-1.774a56.395 56.395 0 0 1-.001-.409c0-.138 0-.277-.002-.415-.002-.747.045-1.468.204-2.2l.032-.152c.333-1.526.906-2.959 2.021-4.08l.059-.06c.935-.928 3.058-2.125 4.29-1.11Z" />
            <path fill="#DADAE9"
                d="m28.252 22.917.085.092c.145.142.288.27.499.281a.882.882 0 0 0 .479-.168h.081l.041-.123h.041l.01.129c.117 1.303.357 2.581.62 3.862l.122.607.165.813c.058.28.114.56.17.841l.028.143.048.247c.202 1.026.606 2.027.964 3.006a15.81 15.81 0 0 1 .553 1.846c.22.887.206 2.017-.065 2.89l-.026.092a6.432 6.432 0 0 1-.546 1.297l-.067.127c-.288.52-.666.998-1.077 1.426l-.108.114c-.656.685-1.483 1.103-2.436 1.13-.445.005-.836-.027-1.256-.182l-.149-.052a6.043 6.043 0 0 1-1.853-1.092l.081-.04c.098.033.192.07.287.109.359.142.724.226 1.103.299l.115.024c.935.12 1.86-.004 2.625-.578a6.91 6.91 0 0 0 .161-.14l.073-.062c.697-.632 1.041-1.7 1.105-2.612.045-.994.048-2.241-.66-3.03a3.97 3.97 0 0 0-.518-.385l-.181-.156c-.46-.369-1.046-.537-1.6-.715l-.197-.065-.361-.118a43.126 43.126 0 0 1-.399-.132l.041-.163c.585-.029 1.12.06 1.675.245.282.033.472-.027.695-.204.625-.651.587-1.674.582-2.513v-.121a16.798 16.798 0 0 0-.214-2.57c-.03-.187-.052-.374-.073-.562-.053-.45-.149-.892-.239-1.335l-.09-.448a27.182 27.182 0 0 0-.305-1.38 2.55 2.55 0 0 1-.029-.674Z" />
            <path fill="#8E4735"
                d="M15.093 14.844c.701.538.893 1.287 1.01 2.121.034.286.049.575.065.862.038.67.095 1.326.234 1.985l.022.11c.062.363.062.363.182.707.013.12.013.12 0 .245-.064.077-.064.077-.164.123a.952.952 0 0 1-.408-.041 4.866 4.866 0 0 0-.232-.003l-.124.001-.094.002c-.168.302-.127.644-.071.973l.017.107c.033.205.075.404.126.605.056.23.088.431-.038.644-.12.065-.186.064-.32.04-.238-.15-.356-.347-.472-.597-.108-.232-.187-.386-.427-.506-.165-.036-.333-.039-.486.04-.153.122-.238.242-.263.434-.004.28.038.5.142.761.039.125.042.229.035.36-.373-.13-.58-.457-.763-.79l-.062-.111c-.946-1.725-1.681-3.684-1.123-5.667l.028-.093.03-.1c.268-.857.762-1.797 1.567-2.262.546-.28 1.064-.301 1.589.05Z" />
            <path fill="#FEFEFE"
                d="m20.038 23.367.318.767.108.26c.208.499.411.998.596 1.506-.154.123-.154.123-.242.125-.154-.078-.254-.225-.361-.357-.135-.157-.218-.194-.419-.217l.221.412.079.146c.147.273.295.546.448.815.481.846.61 1.633.6 2.59a23.174 23.174 0 0 1-.273-.082l-.301-.091-.179-.054-.084-.026c-1.2-.36-2.378-.114-3.458.466a1.792 1.792 0 0 0-.288.188c-.075.049-.075.049-.154.043-.114-.047-.143-.105-.205-.211l-.066-.112a89.11 89.11 0 0 1-.069-.12l-.07-.124c-.598-1.048-1.054-2.216-.754-3.44.17-.528.446-.915.835-1.3l.08-.08c.71-.674 1.704-.936 2.647-1.053l.128-.016c.288-.033.573-.041.863-.035Z" />
            <path fill="#DAD9E9"
                d="M20.12 23.653c.07.106.117.197.165.314l.05.117.052.127.055.13.113.272.174.418.11.265.053.126.049.118.043.103c.032.085.056.168.076.257-.138.123-.138.123-.237.121-.16-.07-.258-.221-.366-.354-.134-.156-.217-.193-.419-.216l.222.412.078.146c.147.273.295.545.449.815.48.846.61 1.633.6 2.59l-.073-.022-.202-.06-.285-.09a7.395 7.395 0 0 0-1.402-.277l.003-.092c.022-.915.022-1.881-.37-2.728l-.064-.137c-.24-.482-.588-.895-1.08-1.13a.445.445 0 0 1 .238-.136c.654-.21 1.414-.49 1.927-.967l.041-.122Z" />
            <path fill="#D9D9E9"
                d="m22.776 18.504.065.045c.252.159.457.199.752.16.096-.026.192-.053.287-.082l.003.134c.043 1.38.273 2.73.525 4.083.033.178.065.355.096.533.155.88.399 1.644.783 2.45l.057.12.051.108c.037.09.037.09.037.213-1.333-1.378-2.209-3.326-2.574-5.19l-.02-.102c-.094-.502-.113-.998-.113-1.506v-.09c.001-.294.005-.585.051-.876Z" />
            <path fill="#FDFCFD"
                d="M16.77 21.283c.13.065.156.202.209.332a6.4 6.4 0 0 0 .765 1.368c.129.172.129.172.129.261l-.066.025c-.636.242-1.218.498-1.732.956l-.094.082c-.413.385-.67.875-.887 1.389a2.778 2.778 0 0 1-.513-.53c-.069-.085-.137-.169-.208-.252-.177-.207-.342-.405-.464-.648l.097-.051c.116-.078.141-.108.19-.235a1.659 1.659 0 0 0-.127-.881.725.725 0 0 1-.037-.386l.082-.123c.091.005.091.005.204.041.125.15.199.318.283.493.139.28.311.501.616.61.236.034.417.025.613-.122h.081c.269-.518.16-.979.032-1.526a2.609 2.609 0 0 1-.072-.722l.1.02c.308.044.517.031.799-.101Z" />
            <path fill="#D9D9E9"
                d="M18.322 35.176c.235.068.442.177.658.288l.122.063.385.198.502.258.125.064c.321.165.644.327.967.488.244.122.487.245.73.37l.098.05c.557.29.942.687 1.153 1.286v.163c-.804-.002-1.529-.219-2.247-.572l-.138-.067c-1.037-.532-1.93-1.369-2.323-2.486-.01-.034-.02-.068-.032-.103Z" />
            <path fill="#FEFCFC"
                d="M22.735 7.594c.164.151.212.283.225.502.02.661-.301 1.245-.715 1.745-.381.393-.381.393-.647.42l-.127.001-.126.002c-.188-.022-.286-.098-.42-.228-.146-.237-.103-.577-.044-.841.138-.383.4-.707.713-.96.083-.073.15-.15.22-.235.245-.286.527-.504.921-.406Z" />
            <path fill="#FEFBFC"
                d="M28.13 11.19a.677.677 0 0 1 .286.286c.019.267.006.522-.082.776l-.04.115c-.236.625-.693 1.061-1.29 1.344-.184.069-.358.105-.55.053-.066-.053-.066-.053-.123-.122.002-.314.11-.57.233-.853l.052-.126c.157-.369.319-.747.597-1.042l.09-.097c.24-.234.475-.404.826-.334Z" />
            <path fill="#D9D9E9"
                d="M16.77 21.283c.13.065.155.202.209.332a6.4 6.4 0 0 0 .765 1.368c.129.172.129.172.129.261l-.066.025c-.425.161-.828.33-1.215.569-.109.06-.109.06-.231.06-.155-.393-.266-.752-.307-1.175-.024-.237-.077-.469-.13-.701a2.636 2.636 0 0 1-.054-.658l.1.02c.309.044.517.031.8-.101Z" />
            <path fill="#4C368D"
                d="M26.25 32.48c.914-.046 1.914.176 2.655.735l.114.084c.486.375.836.843 1.03 1.428.003.07.004.14.003.212l-.001.111-.001.085a.814.814 0 0 1-.203-.275c-.23-.47-.459-.744-.9-1.032l-.182-.156c-.46-.369-1.045-.537-1.599-.715l-.198-.065-.361-.118a46.363 46.363 0 0 1-.398-.131l.04-.164Z" />
            <path fill="#FCFBFD"
                d="M18.322 35.176c.225.066.425.167.633.273l.111.057.231.118.355.18.225.115.107.054.1.052.087.044c.072.047.072.047.154.17a.678.678 0 0 1-.154.528c-.147.151-.265.195-.472.23-.365-.056-.623-.451-.837-.73a3.734 3.734 0 0 1-.54-1.091Z" />
            <path fill="#FDFBF9"
                d="M13.337 16.38c.08.159.052.355.054.53l.004.125c.002.306-.04.598-.236.845a.578.578 0 0 1-.315.16c-.169-.037-.226-.089-.324-.23-.07-.439.142-.929.391-1.282.133-.152.235-.157.426-.149Z" />
            <path fill="#FCF9F5"
                d="M12.573 19.03c.172.072.24.207.314.373a.527.527 0 0 1-.04.342c-.111.09-.193.09-.333.082-.076-.015-.076-.015-.158-.077a.783.783 0 0 1-.005-.546c.06-.114.09-.167.222-.174Z" />
            <path fill="#FDF3F7"
                d="M20.613 11.003c.12.023.12.023.192.123l.05.104.083.041c.01.115.01.115 0 .245-.09.103-.15.12-.284.143-.17-.028-.228-.087-.33-.225-.027-.151-.02-.214.067-.342.097-.066.097-.066.222-.09Z" />
            <path fill="#EDECF4"
                d="M31.97 33.991c.096.143.13.282.169.447l.022.093c.057.258.073.504.055.768h-.041l-.102-.516-.03-.148a270.021 270.021 0 0 0-.054-.273 2.086 2.086 0 0 1-.019-.371Z" />
        </g>
    </g>
    <defs>
        <clipPath id="clip0_2950_617">
            <path fill="#fff" d="M0 0h48v48H0z" />
        </clipPath>
        <clipPath id="clip1_2950_617">
            <path fill="#fff" d="M11.294 6h21.412v36H11.294z" />
        </clipPath>
    </defs>
</svg>