<svg xmlns="http://www.w3.org/2000/svg" width="48" height="48" viewBox="0 0 48 48">
  <defs>
    <style>
      .st0 { fill: #0c2222; }
      .st1 { fill: #24d37c; fill-rule: evenodd; }
    </style>
  </defs>
  <rect class="st0" width="48" height="48" rx="8"/>
  <g transform="translate(-5.5,0.5) scale(0.0848)">
    <path class="st1" d="M535.93,459.23c-28.57,5.9-58.29-6.85-67.88-35.74-12.98-27.65-25.24-56.1-38.13-83.71-16.54-43.87-14.92-25.78-46.02-5.57-36.32,27.33-72.82,54.68-109.08,82.25-28.13,18.62-58.69,57.61-95.65,37.11-46.4-26.55-20.66-68.67-3.36-104.8,14.64-32.73,30.25-65.28,44.97-97.96,16.83-36.68,33.36-73.4,50.63-109.9,10.04-20.23,15.61-44.81,34.81-58.59,20.25-12.8,49.75-9.38,64.65,10.02,16.46,24.71,25.3,54.14,38.49,80.75,29.56,63.94,57.95,128.24,87.17,192.34,9.65,20.98,19.12,42.18,28.7,63.21,2.46,9.19,13.4,21.76,10.8,30.51l-.08.08ZM207.96,404.78c45.72-31.69,89.18-67.59,134.12-100.74,16.46-12.31,32.57-24.83,49.12-37.08,8.96-7.15-3.85-19.76-5.86-28.23-12.14-26.84-24.48-53.24-35.87-80.44-5.25-5.86-13.78-45.61-20.74-23.58-27.75,60.72-55.13,121.62-83.23,182.21-10.25,23.29-21.66,47.01-31.83,70.36-.58,4.27-9.72,15.75-5.81,17.51h.1Z"/>
  </g>
</svg>
