<svg xmlns="http://www.w3.org/2000/svg" width="48" height="48" fill="none"><g clip-path="url(#clip0_2231_3949)"><rect width="48" height="48" rx="24" fill="#0152F2"/><path d="M47.62 24C47.62 10.943 37.03.38 24 .38 10.943.38.38 10.944.38 24 .38 37.032 10.943 47.62 24 47.62c13.031 0 23.62-10.588 23.62-23.62z" fill="url(#paint0_radial_2231_3949)"/><path d="M40.06 16.62c-.102.584-.204.864-.357 1.17-.152.356-.305.738-.458 1.553-.05.305-.101.56-.127.763v.025c-.05.331-.076.56-.204.942a4.29 4.29 0 0 1-.712 1.425c-.356.459-.942 1.248-1.73 1.35-.077 0-.205 0-.28-.026-2.24-1.145-4.15-1.985-4.811-2.163-.764-.23-.662-1.91-.586-3.386.051-.661.077-1.298.051-1.832-.102-1.883-.432-3.92-2.061-4.912-.968-.586-2.24-.764-3.436-.764.229-.102.458-.254.738-.407.712-.407 1.578-.916 2.469-1.018.28-.026.56-.051.84-.102 1.756-.204 3.283-.382 4.886.178.738.255 2.215 1.07 2.596 1.858.28.535.739.967 1.63 1.807.483.433.788.688 1.017.891.331.255.382.331.484.51.305.61.204 1.246.05 2.137zM31.94 24.33c.102.026.153.153.077.255-.229.357-.509.866-.84 1.451-.153.28-.305.56-.433.764-.432.738-.458 1.374-.483 1.858-.026.534-.051.763-.382.967-.255.178-.534.229-2.367.509-.33.05-.458.102-.585.178-.026.025-.077.025-.102.05-.102.052-.204-.05-.204-.152.026-.254.026-.585.026-1.018v-.076c0-.357 0-.662-.026-.891-.025-.458-.025-.662.102-.866.153-.254.28-.33.458-.458.28-.178.662-.407 1.196-1.17.306-.408.357-.637.408-.815.025-.076.025-.102.254-.28.23-.178.967-.738 1.909-.585.305.05.636.152.993.28zM24.636 32.781c-.05.051-.076.077-.153.077-.203 0-.33-.051-.407-.153-.178-.23-.153-.687-.127-.967l.789-.204c.05.433.076 1.018-.102 1.247zM24.688 29.982c-.026.101-.026.229-.026.381v.586c-.255.076-.458.076-.713.076v-.28-.178-.204c0-.152 0-.381.026-.458a.743.743 0 0 0 .229-.05c.152-.026.382-.077.509-.052 0 .051 0 .128-.026.178zM23.262 32.552c-.026.407-.153.891-.535.967-.178.026-.255-.025-.305-.076-.255-.23-.28-.942-.255-1.451.178 0 .382-.026.636-.076.153-.026.306-.077.433-.102.026.203.051.458.026.738zM23.083 31.127l-.84.305c.051-.33.102-.789.128-1.094.025-.204.076-.28.101-.306 0 0 .026-.025.051-.025H22.574l.535-.026c-.026.255-.026.815-.026 1.146zM21.71 30.872c-.052.128-.103.484-.128.738l-1.044-.025c.051-.33.153-.662.23-.916.101-.255.177-.459.28-.51.101-.05.33-.076.483.051.23.153.28.382.178.662zM21.327 34.105c-.076.102-.178.178-.28.178-.127.026-.203-.025-.28-.076-.33-.306-.305-1.299-.28-1.782.433-.102.917-.179 1.146-.204 0 .382.025 1.426-.306 1.884zM19.953 31.534c-.051.127-.102.255-.127.382-.128.05-.51 0-.891-.076l.254-1.655c.433-.127.942-.153 1.044-.026.178.179-.153 1.019-.28 1.375zM19.47 34.334c-.204.255-.51.382-.942.356-.306 0-.408-.127-.458-.203-.23-.382 0-1.273.229-1.833l1.425.076c.026.102.026.23.026.357.025.432-.026.941-.28 1.247z" fill="#fff"/><path d="M31.28 22.295c-1.299-.357-1.172-2.24-1.07-4.073.026-.636.077-1.247.051-1.756-.102-1.705-.382-3.563-1.756-4.403-1.476-.89-3.894-.687-5.37-.51-.535.154-1.044.28-1.451.255-.866-.05-1.553-.407-2.164-.738-.458-.254-.865-.483-1.272-.483h-.051c-1.145.076-1.68.356-2.163.789-.128.101-.28.407-.764 1.807-.255.712-.28 1.094-.33 1.45-.052.331-.077.688-.255 1.222-.128.357-.23.662-.306.967-.229.79-.432 1.426-.992 2.19-.077.076-.153.228-.255.356-.127.203-.28.458-.509.738-.153.203-.484.967-.458 1.196.025.382.153.61.28.865.127.255.305.56.33.993v.076c.052.662-.05.993-1.297 2.113-.79.712-1.375 1.4-1.757 1.909-.025.05 0 .102.077.102h.254c.306.025.611.152.815.381.025.051.102.051.152.026.204-.077.433-.077.637-.051.254.025.534.102.712.28.051.05.128.076.204.05.204-.05.433-.05.636.026.153.051.306.153.408.28a.27.27 0 0 0 .305.051c.05-.025.127-.076.204-.102.28-.102.585-.05.84.051.127.051.254.076.381.178.204.153.357.357.433.586.05.127.23.178.33.076.204-.153.357-.178.51-.127a.343.343 0 0 1 .178.152c.076.102.204.204.305.153.433-.127.942-.05 1.324.153.127.076.28.178.356.33v-.076c0-.025.026-.05.051-.076l.077-.025c.203-.077 1.272-.382 1.68.05.025.026.05.026.076 0 .05-.05.102-.101.127-.101.28-.153.738-.178 1.044.102.05.05.152.025.203-.026a.199.199 0 0 1 .102-.102c.102-.102.255-.127.407-.127l.586-.025c.152 0 .61-.051.738-.077h.025c.051 0 .128-.025.204-.05.28-.052.61-.128.865 0 .255.127.23.407.204.661 0 .102-.026.204-.026.305v.153c0 .23 0 .433-.025.586l.025.127v.025c.026.102.153.178.23.102.203-.127.407-.28.483-.382v-.025c0-.026.026-.076.05-.178.026-.23.077-.662.077-1.553v-.102c0-.33 0-.61-.025-.84-.026-.483-.051-.865.203-1.247.23-.382.459-.509.688-.662.254-.152.534-.33 1.018-.992.229-.331.254-.458.28-.56.05-.255.127-.407.509-.662.305-.229 1.196-.916 2.418-.712.407.076 1.043.28 1.705.534.025 0 .05.026.076.026h.026c.585.229 1.12.483 1.501.687.077.05.179.025.255-.051.127-.153.255-.23.382-.331a.558.558 0 0 0 .127-.076c.025 0 .025-.026.025-.026.102-.076.102-.28-.025-.33a24.949 24.949 0 0 0-3.869-1.502zm-12.269.381c-.407 1.731-3.105 3.665-4.326 3.665h-.076c-.026 0-.052 0-.077-.025h-.051a2.036 2.036 0 0 1-.764-.458 1.336 1.336 0 0 1-.33-.535c0-.025-.026-.076-.026-.101-.076-.306-.153-.662.102-1.273.025-.076.076-.153.102-.23 0-.025.025-.05.025-.076.026-.076.051-.127.076-.178.026-.101.077-.178.102-.229 0-.025.026-.05.026-.076.076-.204.076-.28.102-.356 0-.051.025-.153.05-.255.077-.33.128-.61.153-.84.051-.433.127-.814.357-1.17.05-.052.076-.102.127-.153l.05-.051.052-.051c.05-.051.127-.076.178-.102.025 0 .05-.025.076-.025.051-.026.102-.026.153-.051.229-.051.483-.051.789-.026.33.026.636.077.89.153.23.05.433.127.586.204.026 0 .026.025.051.025.025.026.05.026.102.05.05.026.076.026.127.052l.153.076.05.026c.179.076.357.178.484.28.077.05.127.101.178.152.026.026.051.026.051.051l.051.051c.535.458.51 1.095.407 1.476zm1.273-6.592l-.05.306c-.128.712-.408 1.68-1.426 1.934-.993.23-1.222.28-1.91.33h-.05c-.509 0-1.502-.33-1.68-1.119-.102-.509.127-.89.484-1.502.05-.101.127-.203.203-.33.51-.84.688-1.451.84-1.935.153-.483.28-.865.611-1.196.076-.076.153-.153.255-.204.05-.05.127-.076.203-.127.102-.05.204-.076.306-.127.229-.077.483-.102.712-.102.484 0 .968.127 1.298.407.153.127.382.356.51 1.095.05.381-.052 1.069-.306 2.57zm7.305 2.037c-.357.61-.535.941-.84 1.196-.611.509-1.298.61-1.884.61-.407 0-.763-.076-.992-.101-.611-.102-1.706-.306-2.087-1.197-.077-.178-.077-.28-.077-.432 0-.127 0-.382-.076-.916v-.026a3.451 3.451 0 0 1 0-.89v-.052c.204-1.069.28-1.221.305-1.323a.419.419 0 0 1 .586-.178c.203.102.28.356.203.56-.025.05-.076.28-.254 1.12v.05c-.051.23-.026.408 0 .637v.025c.076.611.076.866.076 1.018V18.324c.077.178.23.28.407.382.128.05.255-.051.23-.178-.179-.942-.179-2.037.178-2.724.127-.229.33-.585.534-.941a.193.193 0 0 0 .051-.102c.026-.026.026-.051.051-.077a9.39 9.39 0 0 0 .255-.407c0-.025.025-.025.025-.05l.025-.026c.026-.026.026-.051.051-.077 0 0 0-.025.026-.025l.025-.025c0-.026.026-.026.026-.051.076-.102.152-.204.203-.306.102-.127-.025-.28-.152-.229-.357.153-.586.331-.637.357a.42.42 0 0 1-.61-.077.42.42 0 0 1 .076-.61c.229-.179 1.4-1.019 2.8-.637 1.018.28 1.527 1.069 1.73 1.349.153.229.662.942.637 1.96 0 .738-.306 1.298-.891 2.29z" fill="#fff"/><path d="M18.477 12.903c-.077.178-.153.382-.255.61-.204.535-.458 1.146-.585 1.375a7.571 7.571 0 0 1-.484.815c-.153.229-.254.407-.356.661-.153.433-.178.917-.077 1.451-.28-.025-.712-.204-.763-.458-.026-.178.076-.356.382-.89a2.33 2.33 0 0 1 .203-.332 9.149 9.149 0 0 0 .916-2.112c.179-.535.255-.764.535-.967.178-.077.33-.128.484-.153zM17.942 32.145c-.305.611-.662 1.171-.89 1.451-.204-.509-.535-1.705-.433-2.647v-.077a1.61 1.61 0 0 1 .254-.789c.102-.153.357-.229.637-.229.203 0 .432.05.636.153.102.05.255.178.255.509.05.458-.179 1.07-.459 1.63z" fill="#fff"/><path d="M34.231 25.349c.026.025.026.05.026.076-.077.178-.204.306-.331.458-.153.179-.331.382-.484.713-.229.458-.305.866-.33 1.934-.052 1.248 0 1.935.05 2.444.026.483.051.789-.025 1.272-.178.968-.586 1.604-1.12 2.418-.662 1.018-1.324 2.062-2.444 2.393-.101.025-.101.025-.407.025-.254 0-.687 0-1.476.026-1.476.05-2.214.076-2.825.203-.662.128-.993.28-1.35.408-.305.127-.585.229-1.119.356-.33.076-.814.127-2.469.153-1.73 0-2.774 0-4.123-.153-1.883-.204-2.825-.33-3.462-.662-1.476-.789-2.112-2.214-3.13-4.556 0-.025.025-.05.05-.05l.154.076c.05.025.101.025.127.025a.622.622 0 0 0 .305 0c.026 0 .026 0 .051-.025.026 0 .051 0 .051.025.076.178.178.331.356.433.179.102.382.102.56.102.204 0 .408-.026.611-.051.102 0 .204.05.255.127.178.458.407.764.763.815h.077a.664.664 0 0 0 .356-.128c.127-.102.33-.025.433.102.076.127.178.204.28.28.356.356 1.221.535 1.934.535.382 0 .738-.051.942-.153.305-.153.305-.356.28-.458-.026-.153-.051-.331-.077-.484 0-.025.026-.025.026 0 .05.102.102.204.229.23h.05c.204 0 .51.075.56.254.026.102.077.178.128.28.127.178.356.407.84.432h.025c.56 0 .993-.178 1.273-.534.025-.026.025-.051.05-.076.102-.153.408-.153.535-.026.153.127.331.204.535.204h.102c.254-.026.458-.153.636-.382.102-.153.178-.331.229-.535.025-.05.102-.076.153-.025.101.102.28.203.534.203.051 0 .127 0 .204-.025.483-.102.738-.509.84-.942 0-.025.025-.025.025 0 .127.153.356.331.738.331h.051a.664.664 0 0 0 .51-.254c.152-.204.203-.51.228-.79 0-.076.051-.152.153-.203.407-.178.916-.56 1.069-.814 0 0 0-.026.025-.026.026-.076.102-.127.153-.127.33-.051.458-.127.585-.178.102-.051.179-.077.433-.127 1.858-.28 2.215-.357 2.622-.611.61-.408.636-.968.661-1.502.026-.458.051-.967.408-1.578.127-.23.28-.484.432-.79.28-.508.662-1.22.942-1.603a.166.166 0 0 1 .23-.05c.636.229 1.195.483 1.297.585z" fill="#fff"/><path d="M16.16 30.898a12.332 12.332 0 0 0-.025 2.621c.025.306.076.636.127.967-.076.051-.356.128-.814.102-.662-.025-1.324-.178-1.527-.407l-.026-.026c-.152-.127-.28-.229-.28-.458 0-.076.026-.153.102-.28a.888.888 0 0 0 .153-.229c.102-.153.254-.33.407-.585.433-.713.585-.942.789-1.222.025-.025.025-.05.05-.076.128-.153.255-.357.485-.688.152-.229.28-.432.407-.585.178-.254.305-.382.382-.458 0 .102-.026.254-.051.407a3.656 3.656 0 0 0-.179.916zM15.83 20.87c0 .025 0 .025 0 0a2.85 2.85 0 0 0-.332.534c-.33.712-.33 1.12-.33 1.45 0 .179 0 .306-.051.459a1.357 1.357 0 0 1-.153.356c-.178.433-.433.993-.33 1.756-.154-.076-.383-.254-.434-.33 0-.052-.025-.077-.025-.128-.05-.229-.076-.382.05-.738.408-.916.459-1.145.485-1.4 0-.05.025-.102.025-.178.076-.356.127-.662.153-.916.05-.382.101-.637.229-.815.05-.076.178-.102.356-.102.076 0 .153 0 .255.026h.025l.076.025zM15.322 29.956c-.026-.23-.051-.433-.153-.662 0 0-.026-.05-.026-.076-.025-.026-.025-.051-.05-.077l-.026-.025c-.026-.026-.026-.026-.051-.026l-.025-.025c-.026 0-.026-.026-.051-.026h-.026a1.912 1.912 0 0 0-.407-.127h-.127c-.026 0-.051.026-.102.026-.026 0-.026.025-.051.025l-.026.025-.05.051-.026.026v.025c-.05.077-.102.153-.153.23-.127.178-.254.381-.382.56-.127.178-.229.33-.356.509-.076.102-.127.178-.204.28 0 .025-.025.025-.025.05.076.026.153.026.229.051.178.026.356.051.51.077.356.05.737.076 1.094.05h.05c.077-.127.204-.28.332-.483.076-.102.152-.204.203-.305-.076-.026-.101-.102-.101-.153zM14.023 31.457c-.026.28-.331.993-.815 1.68-.407.56-.662.713-.713.713-.204-.025-.382-.509-.534-.992-.051-.204-.128-.382-.153-.56-.102-.357-.127-.866-.102-1.172.407.23 1.12.28 2.138.28.051.026.128.026.179.051zM13.31 29.167c-.178.28-.356.534-.534.789-.102.127-.178.255-.28.382-.051.076-.128.152-.179.229-.152-.026-.28-.076-.432-.102-.128-.025-.23-.076-.357-.127-.025 0-.05-.026-.076-.026-.026-.025-.051-.076-.076-.102.05-.076.076-.178.127-.254.076-.153.152-.306.254-.458.153-.255.331-.535.611-.713.026 0 .026-.026.051-.026.102-.05.204-.102.331-.127h.204c.025 0 .05.025.102.025 0 0 .025 0 .025.026.026.026.051.026.077.05-.051-.024.05.077.05.052.051.153.077.229.102.382zM11.936 28.428c-.331.255-.56.611-.738.993l-.306.611c0 .026-.025.051-.025.051a4.188 4.188 0 0 1-.28-.076c-.102-.026-.204-.077-.306-.102-.05-.026-.076-.051-.127-.077.102-.178.204-.356.33-.534.153-.23.332-.484.51-.688.076-.076.153-.178.229-.229a.485.485 0 0 1 .331-.025c.127 0 .255 0 .356.05-.025 0 0 .026.026.026zM11.427 32.756l-.05.05h-.026c-.077 0-.153.026-.23.026-.152 0-.305.026-.458 0a.29.29 0 0 1-.203-.076c-.051-.077-.077-.23-.102-.331a6.2 6.2 0 0 1-.051-1.68c.28.101.585.178.89.229-.075.509.052 1.247.103 1.45.076.103.102.23.127.332zM10.51 28.25a6.864 6.864 0 0 0-.686.994c-.077.127-.179.28-.255.432a.942.942 0 0 1-.28-.127 1.404 1.404 0 0 1-.204-.153c-.025-.025-.076-.05-.102-.076 0 0-.025 0-.025-.026.025-.076.076-.127.076-.178.051-.127.102-.229.179-.33.127-.204.254-.408.407-.612.05-.076.102-.152.204-.178.076-.025.178 0 .254 0 .153.026.306.128.433.255zM8.55 29.6c0-.026.026-.026 0 0 .103.101.179.178.28.254.052.025.077.076.128.102v.025a5.94 5.94 0 0 0-.178 1.35c0 .025-.026.025-.026 0-.127-.535-.28-1.4-.203-1.732zM9.797 30.541c-.05.382-.076.764-.05 1.146 0 .203.025.407.05.636H9.594l-.102-.05c-.051-.026-.102-.103-.153-.179-.102-.178-.127-.382-.127-.585a4.56 4.56 0 0 1 .102-1.172c.05.026.127.051.203.077.102.05.178.102.28.127z" fill="#fff"/><g opacity=".8" stroke-miterlimit="10"><path opacity=".8" d="M19.825 50.394c-1.73 0-3.36-.102-4.734-.204l-.381-.026-.382-.05c-.178-.026-.382-.051-.611-.077-1.324-.152-3.792-.407-6.516-1.68l-.432-.203-.382-.23C1.144 44.973-.791 40.57-1.86 38.203c-.076-.153-.152-.33-.229-.509-.534-1.094-.865-2.061-1.145-2.978l-.05-.203-.052-.204c-.763-2.698-.942-5.014-.61-7.33.356-2.316 1.196-4.403 2.697-6.618l.764-1.247c.152-.254.254-.534.33-.814.586-2.902 1.91-4.963 2.571-5.956.178-1.196.484-2.367.891-3.512l.051-.179.076-.178c0-.025.026-.076.051-.152.306-.891.993-2.953 2.75-5.142l.66-.763.688-.611a15.565 15.565 0 0 1 6.058-3.41 16.445 16.445 0 0 1 3.868-.688h.306c.229 0 .458-.025.662-.025.814 0 1.628.076 2.443.203a2.765 2.765 0 0 0 1.502-.178c1.4-.585 2.85-.967 4.352-1.17.127-.026.229-.026.33-.052.23-.025.612-.076 1.07-.127.789-.076 2.01-.178 3.308-.178 2.571 0 4.785.33 6.77 1.018l.179.05.153.052c4.377 1.654 6.592 3.97 8.195 5.981l.076.102.23.203c1.45 1.12 2.672 2.52 3.64 4.073l.305.483.254.51c2.138 4.352 1.45 8.399 1.196 9.9l-.025.076a18.35 18.35 0 0 1-.865 3.284 17.19 17.19 0 0 1-.713 3.003c-.56 1.73-1.4 3.385-2.469 4.861a17.346 17.346 0 0 1-2.087 2.444c-.28.254-.458.61-.51.993-.025.229-.075.458-.1.687a18.45 18.45 0 0 1-2.699 6.643l-1.807 2.596c-2.189 2.723-4.785 4.505-7.916 5.472l-.763.229-.815.153c-.941.178-1.883.254-2.85.254H28.072c-.356 0-.713.077-1.07.178-2.086.662-4.377.968-7.177.968z" stroke="url(#paint1_linear_2231_3949)" stroke-width=".269"/><path opacity=".8" d="M19.825 48.587c-1.654 0-3.258-.102-4.581-.204l-.305-.025-.306-.051c-.203-.026-.432-.051-.662-.077-1.298-.127-3.436-.381-5.828-1.501l-.356-.178-.331-.179c-4.658-2.57-6.363-6.413-7.381-8.704-.077-.153-.153-.356-.255-.535-.483-.967-.789-1.883-1.043-2.698l-.051-.178-.051-.152c-.662-2.418-.84-4.454-.535-6.465.306-1.986 1.07-3.843 2.393-5.778l.992-1.603c.179-.28.306-.611.357-.942.483-2.749 1.781-4.683 2.367-5.574l.076-.102.026-.05c0-.026.025-.052.025-.077.025-.127.076-.23.102-.331.153-1.12.433-2.24.814-3.309l.051-.152.051-.153c.026-.051.026-.102.076-.255.28-.84.866-2.596 2.393-4.48l.56-.661.56-.509A13.263 13.263 0 0 1 14.226.712c1.12-.331 2.24-.535 3.41-.586h.255c.204 0 .382-.025.56-.025.84 0 1.654-.23 2.469-.077.636.128 1.272.051 1.858-.203 1.094-.484 2.57-.662 4.25-.891.128-.026.23-.026.306-.051.229-.025.585-.076.992-.102a31.95 31.95 0 0 1 3.13-.152c2.342 0 4.328.305 6.084.89l.153.051.127.051c3.869 1.476 5.777 3.41 7.28 5.32.075.101.177.203.203.254l.025.026.28.254.026.051a13.162 13.162 0 0 1 3.232 3.589l.255.407.203.433c1.833 3.741 1.273 7.177 1.018 8.628l-.025.076a16.47 16.47 0 0 1-.84 3.105 15.467 15.467 0 0 1-.662 2.851 16.337 16.337 0 0 1-2.189 4.301 14.8 14.8 0 0 1-2.214 2.495c-.382.356-.636.814-.687 1.349-.051.381-.102.738-.153 1.12a15.845 15.845 0 0 1-2.443 5.93l-1.477 2.138c-1.96 2.52-4.276 4.148-7.075 5.014l-.636.203-.688.128c-.814.152-1.654.229-2.468.203H28.3h-.662a4.523 4.523 0 0 0-1.145.204c-1.858.61-4.022.89-6.669.89z" stroke="url(#paint2_linear_2231_3949)" stroke-width=".269"/><path opacity=".8" d="M19.825 46.474c-1.578 0-3.13-.102-4.428-.203l-.255-.026-.254-.025c-.23-.026-.484-.051-.738-.077-1.222-.127-3.08-.33-5.167-1.323l-.28-.127-.255-.153C4.452 42.3 2.976 38.99 2.01 36.803c-.076-.179-.178-.408-.255-.586a14.897 14.897 0 0 1-.941-2.443l-.051-.127-.026-.128c-.585-2.087-.738-3.868-.483-5.548.254-1.706.942-3.31 2.112-5.014l.153-.204.153-.204c.102-.127.178-.254.28-.356l.585-1.094c.204-.357.331-.739.382-1.146.382-2.443 1.552-4.2 2.087-5.014.025-.05.076-.101.102-.127l.127-.178c.05-.102.102-.23.153-.382.05-.153.127-.382.178-.585.127-1.044.382-2.062.738-3.055l.05-.127.052-.127c.025-.102.076-.178.127-.356.255-.79.738-2.24 2.036-3.818l.433-.535.458-.407c1.273-1.17 2.8-2.01 4.454-2.52.967-.28 1.934-.458 2.953-.509h.687c.865 0 1.705.102 2.545.331a3.108 3.108 0 0 0 2.138-.229c1.069-.509 2.494-1.069 4.149-1.273.101-.025.203-.025.28-.05.203-.026.534-.077.941-.102a28.235 28.235 0 0 1 2.927-.153c2.087 0 3.843.255 5.396.79l.102.05.102.05c3.563 1.35 5.141 3.106 6.363 4.659.28.33.305.381.483.56l.23.203.076.102c.585.458 1.781 1.4 2.825 3.105l.203.331.179.33c1.552 3.131 1.069 5.982.84 7.356l-.026.077a11.993 11.993 0 0 1-.84 2.927v.076c-.102.891-.305 1.782-.585 2.622a13.002 13.002 0 0 1-1.91 3.741 12.82 12.82 0 0 1-2.468 2.647 1.92 1.92 0 0 0-.534.662 2.294 2.294 0 0 0-.23.814c-.025.56-.101 1.12-.203 1.68-.484 2.57-1.604 4.352-2.163 5.243l-1.146 1.68c-1.705 2.29-3.741 3.767-6.21 4.53l-.51.153-.56.102c-.686.127-1.399.178-2.112.178h-.941l-.586.026c-.407.025-.814.076-1.196.229-1.756.56-3.767.814-6.287.814z" stroke="url(#paint3_linear_2231_3949)" stroke-width=".252"/><path opacity=".8" d="M19.825 44.362c-1.502 0-3.003-.102-4.25-.204l-.178-.026-.179-.025c-.254-.025-.534-.076-.789-.102-1.145-.127-2.723-.305-4.505-1.12l-.203-.101-.204-.102c-3.385-1.91-4.632-4.709-5.548-6.745a6.921 6.921 0 0 1-.28-.636 16.147 16.147 0 0 1-.84-2.164l-.026-.102-.076-.076c-.993-3.512-.611-5.981 1.323-8.806L4.172 24l.102-.153c.127-.152.254-.33.382-.483.178-.23.356-.484.56-.713.127-.153.229-.33.305-.509l.23-.56a2.77 2.77 0 0 0 .177-.764c.204-2.265 1.298-3.894 1.833-4.708.05-.051.102-.153.127-.178l.127-.204.051-.05c.077-.128.204-.434.306-.739.05-.204.152-.534.254-.814v-.026c.102-.941.331-1.883.662-2.774l.025-.076.026-.077c.05-.152.102-.28.153-.458.229-.687.61-1.858 1.654-3.156l.33-.407.332-.306c2.469-2.24 5.217-2.418 6.134-2.494h.534c1.095 0 2.164.23 3.182.662.178.076.381.102.56.102.203 0 .381-.051.56-.153.941-.535 2.647-1.527 4.835-1.782.102-.025.204-.025.28-.025.204-.026.51-.051.866-.102.662-.05 1.654-.127 2.723-.127 1.858 0 3.385.229 4.683.662l.077.025.076.025c3.054 1.146 4.352 2.597 5.447 3.97.28.383.432.535.738.84l.178.154.127.152.102.077c.51.407 1.476 1.145 2.342 2.545l.152.254.128.255c1.247 2.545.84 4.836.636 6.057v.077c-.153.89-.407 1.781-.764 2.621l-.025.077c0 .025 0 .025-.026.076-.025.076-.025.153-.025.23l-.026.1a9.333 9.333 0 0 1-.508 2.215 11.408 11.408 0 0 1-1.63 3.182 10.237 10.237 0 0 1-2.341 2.443 3.11 3.11 0 0 0-.916 1.07c-.23.432-.331.89-.331 1.373 0 .586-.077 1.197-.178 1.782-.408 2.189-1.324 3.665-1.91 4.556l-.84 1.247c-1.475 2.062-3.232 3.385-5.344 4.047l-.102.026a4.08 4.08 0 0 1-.534.127l-.128.025c-.585.102-1.17.153-1.756.153H27.792c-.28 0-.637.025-.942.025-.433.026-.84.102-1.247.255-1.527.458-3.385.713-5.778.713z" stroke="url(#paint4_linear_2231_3949)" stroke-width=".235"/><path opacity=".8" d="M19.825 42.249c-1.45 0-2.876-.102-4.098-.204H15.6l-.127-.025c-.28-.051-.586-.077-.866-.102-1.068-.127-2.392-.255-3.817-.942l-.153-.076-.127-.076c-2.775-1.553-3.818-3.895-4.633-5.778a19.937 19.937 0 0 1-.305-.713c-.33-.661-.56-1.323-.738-1.883l-.026-.076-.025-.077c-.814-2.901-.535-4.734 1.044-7.024l.076-.102.076-.102c.127-.178.255-.331.382-.51.407-.534.814-1.068 1.4-1.704.127-.128.203-.331.229-.51l.025-.585-.025-.229v-.229c.05-1.883.993-3.283 1.502-4.047.05-.076.127-.178.152-.229l.077-.127.076-.102c.102-.153.33-.687.534-1.17.077-.204.179-.612.306-.943.025-.101.025-.127.05-.356.077-.789.28-1.578.535-2.316l.026-.05.025-.052c.077-.203.127-.356.204-.56.204-.61.509-1.501 1.298-2.494l.229-.28.229-.204c1.73-1.552 3.589-1.858 4.861-1.934h.382c1.07 0 2.367.509 3.054.84.153.076.331.127.51.127.178 0 .356-.025.534-.076.433-.153.84-.331 1.222-.535.865-.509 2.29-1.323 4.072-1.527.102-.025.178-.025.254-.025.179-.026.459-.051.815-.102.61-.05 1.527-.127 2.52-.127 1.603 0 2.927.178 3.996.56l.05.025.051.026c2.546.967 3.564 2.061 4.53 3.308.306.408.535.688.993 1.095l.102.102.102.101c.102.102.204.178.306.255.432.33 1.17.916 1.807 1.985l.101.153.077.178c.941 1.909.636 3.716.458 4.785v.076a8.985 8.985 0 0 1-.636 2.138 3.611 3.611 0 0 0-.178.56c-.026.128-.051.255-.051.357l-.026.101a8.845 8.845 0 0 1-.407 1.807 9.77 9.77 0 0 1-1.324 2.622c-.865 1.222-1.858 2.087-3.054 2.647-.28.127-.534.33-.712.61-.179.255-.28.586-.306.892v.305c.051.916.127 1.96-.076 3.054-.331 1.782-1.095 2.978-1.655 3.869 0 0-2.596 3.614-4.963 4.352l-.254.077-.28.05a8.426 8.426 0 0 1-1.4.128h-.484c-.102 0-.254 0-.483.025h-.102c-.916.026-1.756.051-2.01.102-.128.026-.255.051-.383.102-1.247.534-3.003.789-5.42.789z" stroke="url(#paint5_linear_2231_3949)" stroke-width=".218"/><path opacity=".8" d="M19.825 40.162c-1.374 0-2.749-.102-3.92-.178h-.101c-.331-.051-.636-.076-.917-.102-.992-.102-2.036-.229-3.155-.738l-.077-.025-.076-.026c-2.164-1.222-2.978-3.029-3.742-4.785-.102-.254-.229-.509-.356-.763a9.44 9.44 0 0 1-.61-1.604V31.89c-.663-2.316-.484-3.487.737-5.268l.026-.051.025-.051c.153-.178.28-.357.407-.51.586-.763 1.095-1.425 2.24-2.494a.61.61 0 0 0 .178-.305.496.496 0 0 0-.025-.33l-.204-.586a2.12 2.12 0 0 1-.076-.56v-.28c.05-1.273.713-2.265 1.145-2.927.077-.102.127-.204.178-.28l.051-.076.051-.077c.23-.305.611-1.196.815-1.73.05-.179.178-.611.305-.942.076-.255.127-.51.153-.764.076-.636.203-1.272.432-1.858V12.75c.102-.254.179-.458.23-.661.178-.535.381-1.146.941-1.833l.102-.127.102-.102c1.222-1.12 2.57-1.324 3.589-1.4H18.502c1.018 0 1.781.407 2.29.687l.128.051h.025c.153.077.255.153.382.204.305.153.687.203 1.018.102.713-.179 1.807-.611 2.52-1.018h.025c.764-.459 1.934-1.12 3.309-1.273.076-.026.178-.026.254-.026.153-.025.433-.05.739-.076a25.72 25.72 0 0 1 2.316-.127c1.374 0 2.469.153 3.308.433H34.867c2.036.763 2.8 1.578 3.614 2.647.331.432.662.84 1.273 1.374l.051.05.05.052c.154.152.332.305.535.458.357.28.866.662 1.298 1.4l.051.076.051.076c.636 1.324.433 2.571.28 3.513v.076a6.9 6.9 0 0 1-.509 1.706c-.127.305-.229.636-.28.967-.025.203-.05.356-.076.483l-.026.102c-.05.484-.152.942-.305 1.4a7.155 7.155 0 0 1-1.044 2.062c-.763 1.12-1.628 1.807-2.774 2.163a2.413 2.413 0 0 0-1.323 1.018l-.102.127-.102.128c-.28.33-.204 1.603-.153 2.367.051.84.102 1.705-.05 2.52-.255 1.4-.866 2.34-1.4 3.155 0 0-1.986 2.876-3.793 3.41l-.127.052-.127.025c-.331.051-.688.102-1.044.102h-.509c-.127 0-.305 0-.61.026h-.052c-1.196.05-1.934.076-2.341.152-.28.051-.535.127-.79.23-1.094.432-2.57.661-4.708.661z" stroke="url(#paint6_linear_2231_3949)" stroke-width=".218"/></g></g><defs><radialGradient id="paint0_radial_2231_3949" cx="0" cy="0" r="1" gradientUnits="userSpaceOnUse" gradientTransform="matrix(0 26.5325 -26.5325 0 24 26.468)"><stop offset=".167" stop-color="#073183"/><stop offset="1" stop-color="#0054F9"/></radialGradient><linearGradient id="paint1_linear_2231_3949" x1="-2.928" y1="-4.93" x2="51.19" y2="51.87" gradientUnits="userSpaceOnUse"><stop offset=".206" stop-color="#89D0FF"/><stop offset=".398" stop-color="#EBBF9A"/><stop offset=".602" stop-color="#EB8280"/><stop offset=".841" stop-color="#A281FF"/></linearGradient><linearGradient id="paint2_linear_2231_3949" x1="-.829" y1="-2.486" x2="49.062" y2="50.092" gradientUnits="userSpaceOnUse"><stop offset=".206" stop-color="#89D0FF"/><stop offset=".398" stop-color="#EBBF9A"/><stop offset=".602" stop-color="#EB80DA"/><stop offset=".841" stop-color="#A281FF"/></linearGradient><linearGradient id="paint3_linear_2231_3949" x1="1.29" y1="-.373" x2="46.953" y2="47.981" gradientUnits="userSpaceOnUse"><stop offset=".206" stop-color="#89D0FF"/><stop offset=".398" stop-color="#EBBF9A"/><stop offset=".602" stop-color="#EB8280"/><stop offset=".841" stop-color="#A281FF"/></linearGradient><linearGradient id="paint4_linear_2231_3949" x1="3.407" y1="1.748" x2="44.832" y2="45.865" gradientUnits="userSpaceOnUse"><stop offset=".206" stop-color="#89D0FF"/><stop offset=".398" stop-color="#EBBF9A"/><stop offset=".602" stop-color="#EB80E7"/><stop offset=".841" stop-color="#A281FF"/></linearGradient><linearGradient id="paint5_linear_2231_3949" x1="5.511" y1="3.872" x2="42.707" y2="43.75" gradientUnits="userSpaceOnUse"><stop offset=".206" stop-color="#89D0FF"/><stop offset=".398" stop-color="#EBBF9A"/><stop offset=".602" stop-color="#EB80D3"/><stop offset=".841" stop-color="#A281FF"/></linearGradient><linearGradient id="paint6_linear_2231_3949" x1="7.643" y1="5.971" x2="40.605" y2="41.625" gradientUnits="userSpaceOnUse"><stop offset=".206" stop-color="#89D0FF"/><stop offset=".398" stop-color="#EBBF9A"/><stop offset=".602" stop-color="#A280EB"/><stop offset=".841" stop-color="#A281FF"/></linearGradient><clipPath id="clip0_2231_3949"><rect width="48" height="48" rx="24" fill="#fff"/></clipPath></defs></svg>