<svg xmlns="http://www.w3.org/2000/svg" width="56" height="56" fill="none"><g clip-path="url(#a)"><path fill="#020202" d="M28 56c15.464 0 28-12.536 28-28S43.464 0 28 0 0 12.536 0 28s12.536 28 28 28Z"/><path fill="#fff" d="M28.5 15a4.5 4.5 0 1 0 0-9 4.5 4.5 0 0 0 0 9ZM43.5 23a4.5 4.5 0 1 0 0-9 4.5 4.5 0 0 0 0 9ZM43.5 42a4.5 4.5 0 1 0 0-9 4.5 4.5 0 0 0 0 9ZM12.5 23a4.5 4.5 0 1 0 0-9 4.5 4.5 0 0 0 0 9ZM12.5 42a4.5 4.5 0 1 0 0-9 4.5 4.5 0 0 0 0 9ZM28.5 50a4.5 4.5 0 1 0 0-9 4.5 4.5 0 0 0 0 9Z"/><g filter="url(#b)"><path fill="#fff" d="M31.712 20c1.472 0 2.736.256 3.792.768 1.072.496 1.888 1.2 2.448 2.112.576.912.864 1.976.864 3.192 0 1.216-.288 2.28-.864 3.192-.56.912-1.376 1.624-2.448 2.136-1.056.496-2.32.744-3.792.744H23.84v-3.672h7.632c.864 0 1.544-.208 2.04-.624.496-.432.744-1.024.744-1.776s-.248-1.336-.744-1.752c-.496-.432-1.176-.648-2.04-.648h-7.224l2.04-2.112V38h-4.536V20h9.96Z"/></g></g><defs><clipPath id="a"><path fill="#fff" d="M0 0h56v56H0z"/></clipPath><filter id="b" width="25.064" height="26" x="17.752" y="20" color-interpolation-filters="sRGB" filterUnits="userSpaceOnUse"><feFlood flood-opacity="0" result="BackgroundImageFix"/><feColorMatrix in="SourceAlpha" result="hardAlpha" values="0 0 0 0 0 0 0 0 0 0 0 0 0 0 0 0 0 0 127 0"/><feOffset dy="4"/><feGaussianBlur stdDeviation="2"/><feComposite in2="hardAlpha" operator="out"/><feColorMatrix values="0 0 0 0 0 0 0 0 0 0 0 0 0 0 0 0 0 0 0.25 0"/><feBlend in2="BackgroundImageFix" result="effect1_dropShadow_5_3"/><feBlend in="SourceGraphic" in2="effect1_dropShadow_5_3" result="shape"/></filter></defs></svg>