<svg xmlns="http://www.w3.org/2000/svg" viewBox="0 0 48 48" xml:space="preserve" width="48" height="48"><path style="fill:#6fbcf0" d="M48 24a24 24 0 0 1-24 24A24 24 0 0 1 0 24a24 24 0 0 1 48 0"/><path d="M12.487 36.487c2.4 4.162 6.712 6.656 11.512 6.656s9.113-2.494 11.512-6.656 2.4-9.131 0-13.294L25.386 5.643a1.601 1.601 0 0 0-2.775 0l-10.125 17.55c-2.419 4.162-2.419 9.131 0 13.294zm8.663-22.5 2.156-3.75c.3-.525 1.087-.525 1.388 0L33 24.637c1.519 2.644 1.819 5.7.862 8.512a8.5 8.5 0 0 0-.431-1.388c-1.144-2.906-3.75-5.137-7.725-6.637-2.737-1.031-4.481-2.569-5.175-4.537-.9-2.55.056-5.325.619-6.6zm-3.694 6.375L15 24.638c-1.875 3.262-1.875 7.144 0 10.406s5.25 5.194 9 5.194c2.494 0 4.819-.862 6.656-2.381.244-.6.975-2.794.056-5.063-.844-2.1-2.869-3.769-6.038-4.969-3.563-1.35-5.887-3.469-6.9-6.281-.131-.394-.225-.788-.319-1.181z" style="fill-rule:evenodd;clip-rule:evenodd;fill:#fff;stroke:#fff;stroke-width:5.8052;stroke-opacity:0"/></svg>