<?xml version="1.0" encoding="UTF-8" standalone="no" ?>
<!DOCTYPE svg PUBLIC "-//W3C//DTD SVG 1.1//EN" "http://www.w3.org/Graphics/SVG/1.1/DTD/svg11.dtd">
<svg xmlns="http://www.w3.org/2000/svg" xmlns:xlink="http://www.w3.org/1999/xlink" version="1.1" width="1080" height="1080" viewBox="0 0 1080 1080" xml:space="preserve">
<desc>Created with Fabric.js 5.2.4</desc>
<defs>
</defs>
<rect x="0" y="0" width="100%" height="100%" fill="transparent"></rect>
<g transform="matrix(1 0 0 1 540 540)" id="9e9f6a48-f455-440c-b802-8283fda8ab9b"  >
<rect style="stroke: none; stroke-width: 1; stroke-dasharray: none; stroke-linecap: butt; stroke-dashoffset: 0; stroke-linejoin: miter; stroke-miterlimit: 4; fill: rgb(255,255,255); fill-rule: nonzero; opacity: 1;" vector-effect="non-scaling-stroke"  x="-540" y="-540" rx="0" ry="0" width="1080" height="1080" />
</g>
<g transform="matrix(1 0 0 1 540 540)" id="fc4c985a-99c0-40d2-b19e-f7be7937a30c"  >
</g>
<g transform="matrix(0.43 0 0 0.43 540 540)"  >
<path style="stroke: rgb(0,0,0); stroke-width: 0; stroke-dasharray: none; stroke-linecap: butt; stroke-dashoffset: 0; stroke-linejoin: miter; stroke-miterlimit: 4; fill: rgb(0,0,255); fill-rule: nonzero; opacity: 1;" vector-effect="non-scaling-stroke"  transform=" translate(-640, -640)" d="M 0 101.12 C 0 66.48 0 49.17 6.53 35.84 C 12.780000000000001 23.080000000000005 23.09 12.770000000000003 35.85 6.520000000000003 C 49.17 0 66.48 0 101.12 0 L 1178.88 0 C 1213.5100000000002 0 1230.8400000000001 0 1244.16 6.53 C 1256.91 12.780000000000001 1267.22 23.09 1273.48 35.85 C 1280 49.17 1280 66.49000000000001 1280 101.13 L 1280 1178.8899999999999 C 1280 1213.52 1280 1230.85 1273.48 1244.1699999999998 C 1267.22 1256.9199999999998 1256.91 1267.2299999999998 1244.16 1273.4899999999998 C 1230.8400000000001 1280.0099999999998 1213.51 1280.0099999999998 1178.88 1280.0099999999998 L 101.12 1280.0099999999998 C 66.48 1280.0099999999998 49.17 1280.0099999999998 35.84 1273.4899999999998 C 23.080000000000005 1267.2299999999998 12.770000000000003 1256.9199999999998 6.520000000000003 1244.1699999999998 C -0.009999999999997122 1230.85 -0.009999999999997122 1213.5199999999998 -0.009999999999997122 1178.8899999999999 L -0.009999999999997122 101.12 Z" stroke-linecap="round" />
</g>
<g transform="matrix(0 0 0 0 0 0)"  >
<g style=""   >
</g>
</g>
</svg>