<?xml version="1.0" encoding="UTF-8" standalone="no"?>
<!DOCTYPE svg PUBLIC "-//W3C//DTD SVG 1.1//EN" "http://www.w3.org/Graphics/SVG/1.1/DTD/svg11.dtd">
<svg width="100%" height="100%" viewBox="0 0 1022 335" xmlns="http://www.w3.org/2000/svg" fill="none">
<path d="M261.442 114.841C261.442 108.393 261.442 105.169 262.654 102.689C263.814 100.314 265.729 98.3943 268.097 97.2311C270.571 96.0162 273.787 96.0162 280.218 96.0162H480.34C486.771 96.0162 489.987 96.0162 492.461 97.2311C494.829 98.3943 496.744 100.314 497.904 102.689C499.116 105.169 499.116 108.393 499.116 114.841V315.475C499.116 321.922 499.116 325.146 497.904 327.626C496.744 330.001 494.829 331.921 492.461 333.084C489.987 334.299 486.771 334.299 480.34 334.299H280.218C273.787 334.299 270.571 334.299 268.097 333.084C265.729 331.921 263.814 330.001 262.654 327.626C261.442 325.146 261.442 321.922 261.442 315.475V114.841Z" fill="#0000FF" class="transition-none"></path>
</svg>