<svg xmlns="http://www.w3.org/2000/svg" width="48" height="48" fill="none"><g clip-path="url(#clip0_1926_4376)"><path d="M0 14C0 6.268 6.268 0 14 0h20c7.732 0 14 6.268 14 14v20c0 7.732-6.268 14-14 14H14C6.268 48 0 41.732 0 34V14z" fill="url(#paint0_linear_1926_4376)"/><g clip-path="url(#clip1_1926_4376)"><g clip-path="url(#clip2_1926_4376)"><path d="M24-.058C37.288-.058 48.058 10.714 48.058 24c0 13.288-10.77 24.058-24.058 24.058C10.714 48.058-.058 37.287-.058 24-.058 10.714 10.714-.058 24-.058z" fill="#F5AC37"/><path d="M24.878 25.699h9.142c.195 0 .287 0 .301-.256.075-.93.075-1.865 0-2.796 0-.18-.09-.255-.286-.255H15.842c-.225 0-.286.074-.286.285v2.677c0 .345 0 .345.36.345h8.962zm8.422-6.435a.293.293 0 0 0 0-.21 5.938 5.938 0 0 0-.543-.947 7.67 7.67 0 0 0-1.113-1.4 3.688 3.688 0 0 0-.692-.676 10.808 10.808 0 0 0-4.511-2.285 11.216 11.216 0 0 0-2.556-.27H15.81c-.226 0-.256.089-.256.285v5.337c0 .225 0 .286.286.286h17.35s.151-.03.182-.12h-.074.001zm0 9.563a3.515 3.515 0 0 0-.769 0H15.857c-.225 0-.3 0-.3.3v5.219c0 .24 0 .3.3.3h7.699a3.85 3.85 0 0 0 1.096-.074 11.46 11.46 0 0 0 3.264-.722c.381-.132.75-.304 1.097-.511h.105a9.768 9.768 0 0 0 4.195-4.223s.105-.228-.013-.287v-.003zm-20.765 8.525v-8.314c0-.196 0-.226-.24-.226H9.03c-.18 0-.255 0-.255-.24v-2.857h3.488c.195 0 .27 0 .27-.255v-2.827c0-.18 0-.225-.24-.225H9.031c-.18 0-.255 0-.255-.24v-2.646c0-.166 0-.21.24-.21h3.233c.225 0 .286 0 .286-.286V10.92c0-.24 0-.3.3-.3h11.277c.819.032 1.632.122 2.436.27 1.657.306 3.25.899 4.706 1.744A13.264 13.264 0 0 1 33.9 14.68a14.487 14.487 0 0 1 1.609 2c.473.722.866 1.494 1.174 2.3.038.21.24.352.45.316h2.69c.346 0 .346 0 .361.332v2.466c0 .24-.09.3-.33.3h-2.076c-.21 0-.27 0-.256.271.083.916.083 1.835 0 2.751 0 .256 0 .286.287.286h2.374c.105.135 0 .27 0 .407.015.174.015.35 0 .525v1.82c0 .256-.074.331-.3.331H37.04a.376.376 0 0 0-.436.286 12.022 12.022 0 0 1-3.158 4.601 18.1 18.1 0 0 1-1.608 1.293c-.602.346-1.188.707-1.805.993a16.254 16.254 0 0 1-3.549 1.127c-1.16.207-2.337.302-3.518.285H12.53v-.015l.005-.003z" fill="#FEFEFD"/></g></g></g><defs><linearGradient id="paint0_linear_1926_4376" x1="48" y1="48" x2="0" y2="0" gradientUnits="userSpaceOnUse"><stop stop-color="#E6335B"/><stop offset="1" stop-color="#0036F5"/></linearGradient><clipPath id="clip0_1926_4376"><rect width="48" height="48" rx="24" fill="#fff"/></clipPath><clipPath id="clip1_1926_4376"><rect x="-.058" y="-.058" width="48.115" height="48.115" rx="24.058" fill="#fff"/></clipPath><clipPath id="clip2_1926_4376"><path fill="#fff" transform="translate(-.058 -.058)" d="M0 0h48.115v48.115H0z"/></clipPath></defs></svg>