<?xml version="1.0" encoding="UTF-8"?>
<svg xmlns="http://www.w3.org/2000/svg" xmlns:xlink="http://www.w3.org/1999/xlink" width="48px" height="48px" viewBox="0 0 48 48" version="1.1">
<defs>
<radialGradient id="radial0" gradientUnits="userSpaceOnUse" cx="0" cy="0" fx="0" fy="0" r="1" gradientTransform="matrix(0.000000000000025176,411.151001,-289.408997,0.000000000000017721,199.419006,60.9459)">
<stop offset="0.03125" style="stop-color:rgb(98.039216%,98.039216%,98.039216%);stop-opacity:0.698039;"/>
<stop offset="1" style="stop-color:rgb(89.019608%,89.019608%,89.019608%);stop-opacity:0.698039;"/>
</radialGradient>
<linearGradient id="linear0" gradientUnits="userSpaceOnUse" x1="199" y1="0.32066" x2="199" y2="397.686005" >
<stop offset="0" style="stop-color:rgb(95.686275%,95.686275%,95.686275%);stop-opacity:1;"/>
<stop offset="1" style="stop-color:rgb(74.509804%,74.509804%,74.509804%);stop-opacity:1;"/>
</linearGradient>
</defs>
<g id="surface1">
<path style="fill-rule:nonzero;fill:rgb(100%,100%,100%);fill-opacity:1;stroke-width:7.05362;stroke-linecap:butt;stroke-linejoin:miter;stroke:rgb(6.666667%,6.666667%,6.666667%);stroke-opacity:1;stroke-miterlimit:4;" d="M 199 7.514323 C 304.751139 7.514323 390.485677 93.248861 390.485677 199 C 390.485677 304.751139 304.751139 390.485677 199 390.485677 C 93.248861 390.485677 7.514323 304.751139 7.514323 199 C 7.514323 93.248861 93.248861 7.514323 199 7.514323 Z M 199 7.514323 " transform="matrix(0.120603,0,0,0.120603,0,0)"/>
<path style="fill-rule:nonzero;fill:url(#radial0);stroke-width:7.14291;stroke-linecap:butt;stroke-linejoin:miter;stroke:url(#linear0);stroke-miterlimit:4;" d="M 199 3.983887 C 91.305501 3.983887 3.983887 91.305501 3.983887 199 C 3.983887 306.694499 91.305501 394.016113 199 394.016113 C 306.694499 394.016113 394.016113 306.694499 394.016113 199 C 394.016113 91.305501 306.694499 3.983887 199 3.983887 Z M 199 3.983887 " transform="matrix(0.120603,0,0,0.120603,0,0)"/>
<path style=" stroke:none;fill-rule:evenodd;fill:rgb(0%,0%,0%);fill-opacity:1;" d="M 20.238281 4.648438 C 11.15625 6.398438 4.292969 14.390625 4.292969 23.984375 C 4.292969 33.578125 11.15625 41.566406 20.238281 43.316406 L 20.238281 41.472656 C 12.160156 39.75 6.101562 32.574219 6.101562 23.984375 C 6.101562 15.394531 12.160156 8.21875 20.238281 6.496094 Z M 27.761719 6.503906 L 27.761719 4.65625 C 36.828125 6.417969 43.671875 14.402344 43.671875 23.984375 C 43.671875 33.566406 36.828125 41.546875 27.761719 43.308594 L 27.761719 41.464844 C 35.824219 39.730469 41.863281 32.5625 41.863281 23.984375 C 41.863281 15.40625 35.824219 8.238281 27.761719 6.503906 Z M 27.761719 6.503906 "/>
<path style=" stroke:none;fill-rule:nonzero;fill:rgb(0%,0%,0%);fill-opacity:1;" d="M 26.789062 23.324219 C 28.289062 23.613281 29.457031 24.164062 30.285156 24.980469 C 31.113281 25.78125 31.527344 26.800781 31.527344 28.050781 L 31.527344 30.011719 C 31.527344 31.503906 30.988281 32.710938 29.910156 33.632812 C 28.828125 34.53125 27.414062 34.980469 25.660156 34.980469 L 25.054688 34.980469 L 25.054688 38.109375 L 22.976562 38.109375 L 22.976562 34.980469 L 22.339844 34.980469 C 21.183594 34.980469 20.164062 34.726562 19.277344 34.214844 C 18.390625 33.683594 17.699219 32.949219 17.195312 32.007812 C 16.714844 31.046875 16.476562 29.941406 16.476562 28.695312 L 18.554688 28.695312 C 18.554688 29.960938 18.902344 30.996094 19.59375 31.792969 C 20.308594 32.570312 21.242188 32.957031 22.398438 32.957031 L 25.605469 32.957031 C 26.738281 32.957031 27.65625 32.691406 28.347656 32.160156 C 29.042969 31.609375 29.386719 30.890625 29.386719 30.011719 L 29.386719 28.050781 C 29.386719 27.355469 29.128906 26.761719 28.609375 26.269531 C 28.109375 25.78125 27.414062 25.460938 26.527344 25.320312 L 21.328125 24.398438 C 19.863281 24.132812 18.726562 23.582031 17.917969 22.742188 C 17.109375 21.902344 16.707031 20.851562 16.707031 19.582031 L 16.707031 17.925781 C 16.707031 16.433594 17.226562 15.246094 18.265625 14.367188 C 19.324219 13.46875 20.722656 13.019531 22.453125 13.019531 L 22.976562 13.019531 L 22.976562 9.890625 L 25.054688 9.890625 L 25.054688 13.019531 L 25.71875 13.019531 C 27.355469 13.019531 28.675781 13.550781 29.675781 14.613281 C 30.679688 15.65625 31.179688 17.035156 31.179688 18.753906 L 29.097656 18.753906 C 29.097656 17.628906 28.792969 16.730469 28.175781 16.054688 C 27.558594 15.378906 26.738281 15.042969 25.71875 15.042969 L 22.453125 15.042969 C 21.355469 15.042969 20.480469 15.308594 19.824219 15.839844 C 19.171875 16.351562 18.84375 17.046875 18.84375 17.925781 L 18.84375 19.582031 C 18.84375 20.296875 19.085938 20.902344 19.566406 21.394531 C 20.066406 21.882812 20.75 22.210938 21.617188 22.375 Z M 26.789062 23.324219 "/>
</g>
</svg>
