<svg xmlns="http://www.w3.org/2000/svg" width="48" height="48"><path d="M48 24.023c0 13.266-10.754 24.024-24.023 24.024C10.71 48.047-.04 37.28-.04 24.023-.04 10.762 10.719 0 23.984 0 37.254 0 48 10.754 48 24.023zm0 0"/><path d="M27.613 9.082a3.555 3.555 0 1 1-7.109 0 3.555 3.555 0 0 1 7.11 0zm0 0M27.613 38.992a3.555 3.555 0 1 1-7.109 0 3.555 3.555 0 0 1 7.11 0zm0 0M14.504 16.191a3.555 3.555 0 1 1-7.109 0 3.555 3.555 0 0 1 7.109 0zm0 0M40.734 16.191a3.556 3.556 0 0 1-3.558 3.555 3.555 3.555 0 0 1 0-7.11 3.558 3.558 0 0 1 3.558 3.555zm0 0M14.504 32.004a3.555 3.555 0 1 1-7.11 0 3.555 3.555 0 0 1 7.11 0zm0 0M40.734 32.004a3.558 3.558 0 0 1-7.113 0 3.555 3.555 0 0 1 3.555-3.555 3.556 3.556 0 0 1 3.558 3.555zm0 0M33.316 29.43h-5.07l-.953-2.325h-6.434l-.953 2.325h-5.07l6.066-13.82h6.336zM24.082 19.2l-1.68 4.124h3.352zm0 0" fill="#fff"/></svg>