<svg xmlns="http://www.w3.org/2000/svg" width="48" height="48" fill="none"><g clip-path="url(#clip0_2340_3809)"><g clip-path="url(#clip1_2340_3809)"><path d="M24 51.25c15.05 0 27.25-12.2 27.25-27.25S39.05-3.25 24-3.25-3.25 8.95-3.25 24 8.95 51.25 24 51.25z" fill="#fff"/><g clip-path="url(#clip2_2340_3809)"><path d="M38.508 10.654l-1.263 1.263a17.88 17.88 0 0 1 0 24.133l1.263 1.263a19.687 19.687 0 0 0 0-26.689v.03zM11.946 10.763a17.88 17.88 0 0 1 24.133 0L37.342 9.5a19.687 19.687 0 0 0-26.688 0l1.292 1.263zM10.764 36.062a17.88 17.88 0 0 1 0-24.12L9.5 10.679a19.686 19.686 0 0 0 0 26.688l1.263-1.305zM36.063 37.228a17.88 17.88 0 0 1-24.133 0l-1.263 1.263a19.686 19.686 0 0 0 26.688 0l-1.292-1.263z" fill="#5A5564"/><path d="M31.974 19.786c-.253-2.636-2.526-3.52-5.402-3.79v-3.629H24.35v3.562h-1.776v-3.562h-2.207v3.655h-4.509V18.4s1.642-.03 1.617 0a1.15 1.15 0 0 1 1.263.976v10.004a.78.78 0 0 1-.27.543.769.769 0 0 1-.572.193c.03.026-1.617 0-1.617 0l-.42 2.657h4.466v3.713h2.223V32.83h1.777v3.642h2.227v-3.672c3.756-.227 6.374-1.153 6.703-4.669.265-2.829-1.065-4.092-3.192-4.601 1.293-.636 2.093-1.815 1.912-3.743zm-3.116 7.906c0 2.762-4.732 2.446-6.24 2.446v-4.9c1.508.004 6.24-.43 6.24 2.454zm-1.031-6.904c0 2.526-3.95 2.218-5.204 2.218v-4.454c1.255 0 5.204-.396 5.204 2.236z" fill="#F09242"/><path d="M23.996 47a23 23 0 1 1 .008-46 23 23 0 0 1-.008 46zm0-44.206a21.194 21.194 0 1 0 .033 42.387 21.194 21.194 0 0 0-.033-42.387z" fill="#282138"/></g></g></g><defs><clipPath id="clip0_2340_3809"><rect width="48" height="48" rx="24" fill="#fff"/></clipPath><clipPath id="clip1_2340_3809"><path fill="#fff" transform="translate(-3.25 -3.25)" d="M0 0h54.5v54.5H0z"/></clipPath><clipPath id="clip2_2340_3809"><path fill="#fff" transform="translate(1 1)" d="M0 0h46v46H0z"/></clipPath></defs></svg>