<svg width="29" height="30" viewBox="0 0 29 30" fill="none" xmlns="http://www.w3.org/2000/svg">
<path fill-rule="evenodd" clip-rule="evenodd" d="M14.1555 0.81839C22.0713 0.81839 28.4867 7.23378 28.4867 15.1496C28.4867 23.0655 22.0713 29.4809 14.1555 29.4809C6.23961 29.4809 -0.175781 23.0655 -0.175781 15.1496C-0.175781 7.23378 6.23961 0.81839 14.1555 0.81839Z" fill="black"/>
<path d="M17.0232 12.9614C17.9069 13.8853 18.1865 15.0495 17.6487 15.5639C17.111 16.0784 15.9589 15.7455 15.0765 14.8234C14.194 13.9013 13.9132 12.7353 14.4509 12.2209C14.9887 11.7064 16.1411 12.0393 17.0232 12.9614Z" fill="white"/>
<path d="M9.6951 19.9702C10.5788 20.8941 10.8584 22.0582 10.3206 22.5727C9.78283 23.0872 8.63075 22.7543 7.7483 21.8319C6.86585 20.9095 6.58505 19.7438 7.12281 19.2293C7.66057 18.7149 8.81296 19.0478 9.6951 19.9702Z" fill="white"/>
<path d="M13.2715 21.0141C14.5123 20.7115 15.6622 21.0508 15.8387 21.7707C16.0151 22.4906 15.1523 23.3232 13.9103 23.6267C12.6684 23.9302 11.5196 23.5901 11.3432 22.8701C11.1668 22.1502 12.0292 21.3177 13.2715 21.0141Z" fill="white"/>
<path d="M8.16928 13.754C8.88286 13.962 9.17155 15.1268 8.81446 16.3527C8.45736 17.5786 7.58796 18.4042 6.87438 18.1963C6.16079 17.9883 5.87237 16.8239 6.22916 15.5979C6.58595 14.372 7.45569 13.5455 8.16928 13.754Z" fill="white"/>
<path d="M17.903 16.5965C18.6166 16.8044 18.9038 17.9674 18.5452 19.1948C18.1866 20.4223 17.3186 21.2466 16.6051 21.0387C15.8915 20.8308 15.6046 19.6675 15.9629 18.4404C16.3212 17.2133 17.1882 16.3886 17.903 16.5965Z" fill="white"/>
<path d="M20.6092 8.00027C21.4928 8.92418 21.7724 10.0884 21.2347 10.6028C20.6969 11.1173 19.5448 10.7844 18.6624 9.86202C17.7799 8.93962 17.4991 7.77391 18.0369 7.25945C18.5746 6.74499 19.727 7.07788 20.6092 8.00027Z" fill="#979FAA"/>
<path d="M13.281 15.0087C14.1647 15.9326 14.4443 17.0968 13.9066 17.6113C13.3688 18.1257 12.2167 17.7928 11.3343 16.8707C10.4518 15.9486 10.171 14.7826 10.7087 14.2682C11.2465 13.7537 12.3989 14.0869 13.281 15.0087Z" fill="#979FAA"/>
<path d="M14.4511 6.20147C15.6919 5.89885 16.8419 6.23808 17.0183 6.96165C17.1947 7.68522 16.3305 8.51593 15.09 8.81794C13.8496 9.11996 12.6993 8.78132 12.5229 8.05775C12.3464 7.33418 13.2107 6.50349 14.4511 6.20147Z" fill="#979FAA"/>
<path d="M16.8575 16.054C18.0982 15.7513 19.2482 16.0906 19.4246 16.8105C19.601 17.5305 18.7383 18.3633 17.4963 18.6668C16.2543 18.9703 15.1056 18.6302 14.9291 17.9102C14.7527 17.1903 15.6152 16.3566 16.8575 16.054Z" fill="#979FAA"/>
<path d="M11.7552 8.79097C12.4688 8.99887 12.7575 10.1634 12.4004 11.3893C12.0433 12.6152 11.1739 13.4411 10.4603 13.2332C9.7467 13.0253 9.45831 11.8605 9.81511 10.6348C10.1719 9.40922 11.0416 8.58428 11.7552 8.79097Z" fill="#979FAA"/>
<path d="M21.4891 11.6356C22.2026 11.8435 22.4898 13.0065 22.1312 14.2339C21.7726 15.4613 20.9047 16.2857 20.1911 16.0778C19.4775 15.8699 19.1903 14.7069 19.5489 13.4795C19.9075 12.252 20.7755 11.4271 21.4891 11.6356Z" fill="#979FAA"/>
<path d="M10.8652 11.1629C12.106 10.8603 13.2559 11.1992 13.4324 11.9231C13.6088 12.647 12.7448 13.4774 11.5041 13.7794C10.2633 14.0814 9.11335 13.7428 8.93692 13.0192C8.76049 12.2956 9.6248 11.4649 10.8652 11.1629Z" fill="white"/>
</svg>
