<svg xmlns="http://www.w3.org/2000/svg" width="48" height="48" viewBox="0 0 48 48">
    <path fill="#de0376"
        d="M47.992 24.008c0 13.258-10.746 24-24 24-13.258 0-24-10.742-24-24 0-13.254 10.742-24 24-24 13.254 0 24 10.746 24 24Zm0 0" />
    <path fill="#fff"
        d="M35.887 35.578s-1.059.086-1.696-.16c-1.48-.582-2.156-1.848-2.156-4.059V7.781c0-.742-.535-1.21-1.594-1.433h-.355c-.676 0-1.07.504-1.406 1.527V18.32c-2.703-2.43-5.598-3.64-8.684-3.64-2.39 0-4.695.742-6.918 2.203-3.488 2.691-5.223 5.992-5.223 9.91 0 2.59.864 5.121 2.579 7.547 2.812 3.066 5.859 4.594 9.12 4.594h.704c3.293 0 6.254-1.407 8.898-4.2 1.332 2.793 3.32 4.2 5.961 4.2h.422c.91 0 1.64-.47 1.64-1.641v-.074c-.062-1.012-.542-1.64-1.292-1.64Zm-15.617-.086h-.543c-.817 0-1.727-.148-2.75-.437-3.786-1.766-5.672-4.453-5.672-8.063v-.441c0-.836.187-1.793.547-2.832 1.796-3.723 4.453-5.586 7.976-5.586h.356c.656 0 1.566.148 2.746.437 3.843 1.793 5.765 4.473 5.765 8.063v.527c0 .63-.148 1.5-.437 2.652-1.828 3.79-4.485 5.68-7.988 5.68Zm0 0" />
    <path fill="#fff"
        d="M39.59 27.508c.703 0 1.332.262 1.894.785.543.562.797 1.21.797 1.914 0 1.012-.476 1.809-1.445 2.39-.422.208-.813.31-1.207.31h-.16c-.73 0-1.407-.348-2.024-1.024-.386-.543-.562-1.094-.562-1.676 0-.871.383-1.613 1.16-2.203.508-.32 1.023-.496 1.547-.496Zm0 0" />
</svg>