<svg xmlns="http://www.w3.org/2000/svg" width="48" height="48" fill="none"><rect width="48" height="48" rx="24" fill="#FEF7FE"/><g clip-path="url(#clip0_2931_2283)"><path d="M4.078 23.453c-.026.374-.035.8 0 1.172.228 2.432 1.79 5.008 3.574 6.738 1.786 1.73 3.186 3.456 5.196 5.118 2.008 1.662 4.358 2.798 6.986 3.404 2.628.607 6.404.21 8.829-.91 2.424-1.12 4.203-2.528 6.274-4.116-.357 1.36.504 3.02 1.804 3.354 1.3.333 2.971-.273 3.258-1.73.285-1.458.08-3.509.095-5.061.014-1.552-.163-3.071.607-4.393.77-1.322.604-2.777.955-4.2.793-.538 1.734-1.08 2.344-1.798v-.156c-.525-.651-1.443-.848-2.266-.86-.182-2.81-.844-4.577-2.25-6.464-1.406-1.888-3.107-3.28-4.722-4.052-1.615-.77-2.925-1.283-5.078-1.547-2.154-.263-4.915-.14-6.563.47-1.647.61-3.196 1.029-4.754 2.289-1.558 1.261-3.258 3.323-3.664 4.774-1.476-1.68-2.473-3.654-4.433-4.204-1.96-.551-4.087.325-4.558 2.399-.472 2.074-.019 4.328 1.022 6.57-1.588.231-2.553 1.694-2.656 3.203zm35.39-6.328c.08.215.097.406.157.625.179.65.223.908.39 1.64.169.734-.45.76-1.067.886a8.159 8.159 0 0 0-1.606.504c-.544.225-.893.288-1.37.662-.474.374-.756.353-1.106 1.002-.35.65.126.67.775.384 1.6-.707 3.105-1.472 4.922-1.484.098-.016.245-.074.39-.078.142-.005.33-.03.469 0 .102-.014.21.01.312 0-.032.065-.075.146-.156.156-.02.02-.078 0-.078 0-.068.045-.063.05-.156.078-2.42 1.722-5.01 3.273-7.11 5.547.443.686.742 1.47.625 2.344-2.84.026-4.001-3.526-2.812-5.703.429-1.843.084-3.61-.625-5.235.03.128.062.26.078.39.738 2.371-.262 4.359-.625 6.642-.065.407-.087.759 0 1.171.238 1.126.873 2.373 1.953 2.97a4.402 4.402 0 0 0 2.031.546v.781c0 1.128-.235 1.953-1.113 2.637-.878.684-1.178 1.168-2.018 1.732-.84.564-1.42.998-2.313 1.437-.893.437-1.602.849-2.578 1.172-.974.325-2.061.552-3.15.6-1.088.049-2.46-.046-3.454-.295-.994-.25-1.938-.502-2.813-.937-.875-.435-1.655-.773-2.422-1.328-.768-.554-1.462-.951-2.092-1.658.353-.006.661.161 1.016.156 1.719.273 3.485.083 5.018-.607 1.533-.692 2.083-1.82 2.95-3.065v-.156c0-.109-.035-.289 0-.39-.255-.367-.464-.459-.78-.548-.123 1.292-1.476 1.992-2.519 2.639-1.043.646-3.149.75-4.436.566-1.289-.184-2.602-.777-3.69-1.466-1.088-.69-1.858-1.514-2.637-2.52-.96-1.24-1.807-2.805-2.031-4.375-.197-1.377.262-3.024 1.953-2.422.695.247 1.258.79 1.777 1.348.52.558 1.188.862 1.68 1.445.492.583 1.26.85 1.784 1.341.525.492 1.553.683 1.947 1.257.146.013.183.115.312.156.307-.036-.236-.422-.487-.607-.25-.185-.614-.59-.92-.721.65-.083 1.468.21 2.188 0-.707-.33-1.89-.47-2.662-.931-.771-.463-1.435-.874-2.084-1.51a10.856 10.856 0 0 1-1.64-2.032c-.475-.755-.972-1.412-1.33-2.264-.359-.852-.643-1.879-.876-2.796-.232-.918-.467-2.225-.008-3.13.46-.904 1.818-1.097 2.585-.618 2.242.796 3.438 3.597 4.98 5.332 1.542 1.733 2.895 4.191 4.16 6.152-.514-1.364-.86-2.984-1.562-4.375a5.182 5.182 0 0 0-.313-.547c-.21-.303-.433-.622-.625-.937-.636-1.049-.915-1.803-.174-2.83.742-1.028 1.013-1.544 1.815-2.483.238-.279.496-.556.781-.781 2.206-1.742 4.432-2.898 7.266-3.125 2.833-.228 6.036.497 8.377 1.935 2.34 1.438 3.835 3.247 4.748 5.721zm.313 7.266c-.27.79-.508 1.583-.86 2.344-.324-.307-.768-.61-.937-1.016.641-.375 1.164-.971 1.797-1.328zm-1.797 2.734c.45.604.672 1.194.703 1.953.018.142.075.355.079.547.015.738 0 1.535 0 2.266v2.343c-.013.703.118 1.54-.259 2.086-.377.547-1.08.701-1.67.39-.589-.312-.715-1.03-.65-1.694.066-.665-.057-1.647 0-2.344.058-.697-.088-1.584 0-2.266.089-.68-.114-1.594-.18-2.162-.067-.568-.932-1-.835-1.353.097-.353.627-.475.84-.801.213-.325.86.086 1.131.236s.647.537.841.8z" stroke="#000" stroke-width=".023"/><path d="M19.078 12.594c-.02.02 0 .078 0 .078-.087.177-.275.258-.39.39-.405.465-.79.962-1.094 1.485.136-.174.318-.37.468-.547.24-.28.501-.542.782-.781 2.018-1.725 4.667-2.915 7.343-2.969.137-.013.36-.074.547-.078 2.763-.056 5.504.507 7.735 2.031-2.019-.38-4.185 1.017-4.219 3.125-.014.181.01.366 0 .547-.094-.052-.202-.128-.234-.234-1.428-1.443-2.93-2.5-5-2.578a17.635 17.635 0 0 0-1.016 0c-2.323.046-4.654 1.573-5.703 3.671-.306.611-.568 1.346-.625 2.032-.006.077.01.158 0 .234.122-.308.2-.68.312-1.015 1.053-3.158 4.172-5.227 7.502-4.69 3.33.537 5.625 3.189 6.014 6.408 0-.28.034-.582 0-.86-.016-.13-.048-.262-.078-.39-.206-.884-.476-1.356-.957-2.168-.482-.81.24-1.686 1.053-1.798.813-.113 1.29-1.337.763-1.893.28-.102.548-.245.86-.234.315-.057.63-.044.937 0 2.261.085 4.673 2.713 5.313 4.765.01.017.078 0 .078 0-.913-2.474-2.407-4.284-4.748-5.721-2.34-1.437-5.544-2.162-8.377-1.935-2.834.227-5.06 1.383-7.266 3.125z" stroke="#FBF9F9" stroke-width=".023"/><path d="M26.188 10.25c.188-.004.414-.066.546-.078-.187.004-.41.065-.547.078z" stroke="#FF94C6" stroke-width=".023"/><path d="M26.188 10.25c-2.677.054-5.325 1.244-7.344 2.969l-.781.781c-.151.177-.333.373-.47.547-.687 1.183-1.228 2.658-.937 4.14.192.316.415.635.625.938-.227-.929.435-2.177 1.016-2.89 1.05-2.099 3.38-3.626 5.703-3.672.33-.04.688-.047 1.016 0 2.07.078 3.572 1.135 5 2.578.183.05.194-.133.234-.313.034-2.108 2.2-3.505 4.219-3.125-2.23-1.524-4.972-2.087-7.735-2.031-.132.012-.358.074-.546.078z" stroke="#FE0D7A" stroke-width=".023"/><path d="M33.14 12.36c.307-.022.631-.012.938 0a2.951 2.951 0 0 0-.937 0z" stroke="#FFF7C5" stroke-width=".023"/><path d="M31.422 18.453c.71 1.625 1.054 3.392.625 5.235.076-.137.562-.676.86-.782-.745.699-.704 1.564-.86 2.5-.156.937.446 2.195 1.191 1.426.745-.769 1.062-.998 1.758-1.601.696-.604 1.21-.941 1.914-1.446.702-.505 1.368-.822 2.096-1.263.728-.44 1.556-.714 2.338-1.022.093-.027.088-.033.156-.078-.13 0-.261-.005-.39 0-.96.033-2.01.49-2.867.805-.858.314-1.851 1.133-2.602.601-.649.287-1.125.266-.776-.384.35-.65.633-.628 1.107-1.002.476-.374.825-.437 1.37-.662a8.159 8.159 0 0 1 1.605-.504c.617-.127 1.236-.152 1.069-.885-.169-.733-.212-.99-.391-1.64a7.185 7.185 0 0 1-.234-.626c-.64-2.052-3.052-4.68-5.313-4.765a8.938 8.938 0 0 0-.938 0c-.311-.011-.58.132-.859.234.527.556.05 1.78-.763 1.893-.813.112-1.535.987-1.053 1.798.48.812.75 1.284.957 2.168zm2.11-1.093c-.013.311 0 .625 0 .937 0 .447.36 1.7-.241 1.869-.603.168-.87-.843-.852-1.402.02-.56-.069-1.537.137-2.125.207-.587.38-.93.895-1.37.514-.442 1.45.115.86.626-.589.51-.771.698-.8 1.465zm3.515-2.266c.643.16.77.87 1.165 1.334.396.463.311 1.455.501 2 .19.544.198 1.959-.578 1.593-.776-.365-.119-1.51-.463-2.037-.344-.527-.094-1.414-.762-1.738-.668-.323-.92-1.414.137-1.152zm-5.781.078c-.548-.067-.04.49 0 0v0z" stroke="#FDC206" stroke-width=".023"/><path d="M18.297 13.375c.112-.112.283-.205.39-.313.135-.134.234-.28.391-.39 0 0-.02-.057 0-.078a5.727 5.727 0 0 0-.781.781z" stroke="#34000C" stroke-width=".023"/><path d="M18.688 13.063c.115-.133.303-.214.39-.391-.157.11-.256.256-.39.39z" stroke="#F386BD" stroke-width=".023"/><path d="M15.25 27.672c-.15.018-.23-.076-.39-.156-.627-.148-1.236-.572-1.815-.842-.58-.27-1.152-.637-1.678-.979-.525-.342-1.01-.785-1.488-1.168-.479-.382-1.366-.521-1.834-.821-.468-.3-1.101-1.494-.295-1.58-1.691-.602-2.15 1.044-1.953 2.421.304.73.842 1.448 1.309 2.129.467.68 1.057 1.237 1.68 1.836.622.6 1.372.95 2.143 1.372.772.42 1.721.735 2.604.912.883.175 2.382.181 3.219.018.836-.163 2.008-.494 2.614-.9.608-.407 1.796-.981 1.744-1.617-.217-.866-.978-1.703-1.389-2.518-.41-.815-1.045-1.58-1.562-2.344-.517-.763-1.136-1.548-1.717-2.267-.583-.719-1.21-1.408-1.797-2.11l-1.84-2.144c-.56-.693-1.319-1.579-2.181-1.725-.864-.145-1.858-2.168-.608-2.126-.767-.48-2.125-.286-2.585.618-.459.905-.224 2.212.008 3.13.233.917.517 1.944.876 2.796.359.852.855 1.509 1.33 2.264.474.756.992 1.395 1.64 2.032.649.636 1.313 1.047 2.084 1.51.772.461 1.954.602 2.662.93-.72.21-1.537-.082-2.187 0 .305.132.669.537.92.722.25.185.793.571.486.607zM8.453 13.688c.532.099.453 1.033-.157.936-.608-.097-.446-1.049.157-.936zm1.64 2.187c.277.08.18.607-.132.519-.312-.088-.134-.595.133-.519zm-3.28 7.266c.33.154.03.843-.365.599-.396-.244-.027-.781.365-.6z" stroke="#FE047A" stroke-width=".023"/><path d="M24 13.063c.337-.007.679-.013 1.016 0a3.982 3.982 0 0 0-1.016 0z" stroke="#FF9AB9" stroke-width=".023"/><path d="M21.11 28.297c-.016-.194-.088-.294-.157-.469-.03-.074-.043-.155-.078-.234-.476-1.057-1.092-2.076-1.719-3.047-1.265-1.96-2.618-4.419-4.16-6.152-1.542-1.735-2.738-4.535-4.98-5.332-1.25-.042-.256 1.98.608 2.126.862.146 1.621 1.032 2.18 1.725.56.694 1.252 1.444 1.84 2.145.589.701 1.215 1.39 1.798 2.11.582.718 1.2 1.503 1.717 2.266.517.764 1.151 1.53 1.562 2.344.411.815 1.172 1.652 1.389 2.518z" stroke="#FBF9FA" stroke-width=".023"/><path d="M18.297 13.375c-.802.94-1.073 1.455-1.815 2.482-.741 1.027-.462 1.782.174 2.83-.291-1.482.25-2.957.938-4.14a9.771 9.771 0 0 1 1.094-1.485c-.108.108-.28.201-.391.313z" stroke="#BE0763" stroke-width=".023"/><path d="M18.063 14l.78-.781c-.28.24-.541.5-.78.781z" stroke="#FFC4E3" stroke-width=".023"/><path d="M17.984 17.984c-.56 3.716 1.89 7.996 5.86 8.593 3.971.597 7.656-2.833 7.656-6.874-.39-3.22-2.684-5.871-6.014-6.408-3.33-.537-6.45 1.532-7.502 4.69zm7.188 4.297c-.728 1.112-.844 1.78-1.739 2.871-.894 1.092-2.582-.42-1.753-1.518.83-1.1 1.05-1.88 1.695-2.993-1.143-.687-1.306-1.325-2.518-2.092-1.212-.767.054-2.858 1.244-2.025 1.19.832 1.41 1.378 2.524 2.163.316-.5.541-1.056.883-1.539.342-.482.508-1.106 1.011-1.488.504-.382 1.42-.15 1.682.467.26.618-.047 1.279-.433 1.797-.386.519-.478 1.04-.938 1.563-.46.522-.33 1.065.275 1.408.607.342.802.78 1.328 1.171.528.393.998.77.957 1.465-.04.696-.835 1.177-1.458.99-.623-.187-.938-.687-1.413-1.087l-1.347-1.153z" stroke="#FDC203" stroke-width=".023"/><path d="M8.453 13.688c-.603-.113-.765.84-.157.936.61.097.69-.837.157-.936z" stroke="#FFFAFC" stroke-width=".023"/><path d="M33.531 18.297a4.094 4.094 0 0 1 0-.938c.03-.766.211-.954.801-1.464.59-.51-.347-1.068-.86-.627-.515.441-.69.784-.895 1.371-.207.588-.118 1.565-.138 2.125-.019.56.25 1.57.852 1.402.601-.17.24-1.422.24-1.869zm3.516-3.203c-1.057-.262-.805.829-.137 1.152.668.324.418 1.211.762 1.739.345.526-.313 1.67.463 2.036.776.366.768-1.049.578-1.594-.19-.544-.104-1.535-.5-1.999-.396-.464-.523-1.175-1.166-1.334z" stroke="#000" stroke-width=".023"/><path d="M31.266 15.172c-.04.49-.548-.067 0 0z" stroke="#FEFCF3" stroke-width=".023"/><path d="M30.016 15.64c.032.107.14.183.234.235.01-.181-.014-.366 0-.547-.04.18-.05.363-.234.313z" stroke="#FF7AB9" stroke-width=".023"/><path d="M25.172 22.281l1.348 1.153c.475.4.79.9 1.412 1.087.623.187 1.418-.294 1.459-.99.04-.696-.43-1.072-.957-1.465-.527-.392-.722-.83-1.328-1.171-.607-.343-.735-.886-.275-1.408.459-.522.551-1.044.937-1.563.386-.519.694-1.179.433-1.797-.261-.618-1.178-.849-1.681-.467-.503.382-.67 1.006-1.011 1.488-.342.483-.568 1.039-.884 1.54-1.114-.787-1.334-1.332-2.524-2.164-1.19-.833-2.456 1.258-1.244 2.025 1.212.767 1.375 1.405 2.518 2.092-.645 1.114-.866 1.893-1.694 2.993-.83 1.099.858 2.61 1.753 1.518.894-1.091 1.01-1.76 1.738-2.87z" stroke="#000" stroke-width=".023"/><path d="M10.094 15.875c-.267-.076-.445.431-.133.519.313.088.41-.44.133-.519z" stroke="#FFF5FA" stroke-width=".023"/><path d="M17.281 19.625c.109.156.233.39.313.547-.05-.313-.013-.698 0-1.016.006-.16.052-.279.078-.39.057-.686.32-1.42.625-2.032-.581.714-1.243 1.962-1.016 2.891z" stroke="#BE1265" stroke-width=".023"/><path d="M39.625 17.75c-.06-.219-.077-.41-.156-.625 0 0-.068.017-.078 0 .067.216.21.582.234.625z" stroke="#E7DD87" stroke-width=".023"/><path d="M33.531 18.297c0-.312-.012-.626 0-.938a4.087 4.087 0 0 0 0 .938z" stroke="#987300" stroke-width=".023"/><path d="M17.672 19c-.011.09-.065.105-.078.156-.013.318-.05.703 0 1.016.703 1.39 1.048 3.01 1.562 4.375.627.971 1.242 1.99 1.719 3.047.136.151.587.438.625.468 1.06.616 2.43.993 3.672.938 1.242-.055 2.596-.371 3.496-1.113.9-.743 1.815-1.353 2.207-2.403.363-2.282 1.363-4.27.625-6.64.034.277 0 .58 0 .86 0 4.04-3.684 7.47-7.656 6.873-3.97-.597-6.42-4.877-5.86-8.593-.112.336-.19.708-.312 1.016z" stroke="#CB6E01" stroke-width=".023"/><path d="M17.594 19.156c.013-.05.067-.067.078-.156.01-.077-.006-.157 0-.234-.026.111-.072.23-.078.39z" stroke="#D559A1" stroke-width=".023"/><path d="M4.078 24.625c-.016-.019-.078 0-.078 0V44h40V21.031c-.61.717-1.552 1.26-2.344 1.797-.351 1.424-.185 2.879-.955 4.2-.77 1.323-.593 2.841-.607 4.394-.014 1.552.19 3.603-.096 5.06-.285 1.458-1.957 2.064-3.257 1.73-1.3-.332-2.161-1.993-1.803-3.353-2.072 1.588-3.851 2.996-6.276 4.116-2.424 1.12-6.2 1.516-8.828.91-2.628-.606-4.978-1.742-6.986-3.404-2.01-1.662-3.41-3.387-5.196-5.118-1.785-1.73-3.346-4.306-3.574-6.738z" stroke="#000" stroke-opacity=".01" stroke-width=".023"/><path d="M40.563 21.344h.39c-.018-.027 0-.078 0-.078-.145.004-.292.062-.39.078z" stroke="#78797B" stroke-width=".023"/><path d="M40.953 21.344h.156c.101 0 .214-.014.313 0-.019-.016 0-.078 0-.078-.139-.03-.326-.005-.469 0 0 0-.018.051 0 .078z" stroke="#ADB4CA" stroke-width=".023"/><path d="M41.422 21.344c-.015-.003.223.015.156.078.08-.01.124-.091.156-.156-.103.01-.21-.014-.312 0 0 0-.019.062 0 .078z" stroke="#C2AE66" stroke-width=".023"/><path d="M35.64 22.828c.752.532 1.745-.287 2.603-.6.857-.315 1.908-.773 2.866-.806-.011-.004 0-.078 0-.078h-.546c-1.817.012-3.322.777-4.922 1.484z" stroke="#F7F6F4" stroke-width=".023"/><path d="M41.11 21.422c.129-.005.26 0 .39 0 0 0 .057.02.078 0 .067-.063-.171-.08-.156-.078-.1-.014-.212 0-.313 0 0 0-.012.074 0 .078z" stroke="#FEFB6E" stroke-width=".023"/><path d="M32.047 23.688c-1.19 2.177-.028 5.728 2.812 5.703.117-.875-.183-1.658-.625-2.344 2.1-2.274 4.69-3.825 7.11-5.547-.782.308-1.61.581-2.338 1.022-.728.44-1.394.758-2.096 1.263-.703.505-1.218.842-1.914 1.445-.696.604-1.013.833-1.758 1.602-.745.769-1.348-.489-1.191-1.426.156-.936.115-1.801.86-2.5-.298.106-.784.645-.86.782z" stroke="#CB6E00" stroke-width=".023"/><path d="M14.86 27.516c.036.008.077 0 .077 0-.393-.574-1.422-.765-1.947-1.257-.524-.491-1.291-.758-1.783-1.341s-1.16-.887-1.68-1.445c-.52-.559-1.083-1.101-1.777-1.348-.806.087-.174 1.28.294 1.58.468.3 1.356.44 1.835.822.478.383.963.826 1.488 1.168.526.342 1.098.71 1.677.98.58.269 1.189.693 1.815.84z" stroke="#F9F7F8" stroke-width=".023"/><path d="M6.813 23.14c-.392-.181-.76.356-.365.6s.695-.445.365-.6z" stroke="#FFFBFD" stroke-width=".023"/><path d="M4 24.625s.063-.019.078 0a7.522 7.522 0 0 1 0-1.172H4v1.172z" stroke="#000" stroke-opacity=".65" stroke-width=".023"/><path d="M39.781 24.39c-.633.358-1.156.954-1.797 1.329.17.405.613.71.938 1.015.351-.76.59-1.554.86-2.343z" stroke="#C86D00" stroke-width=".023"/><path d="M7.828 28.922c.313.234.779.529 1.178.853.4.324.825.603 1.262.926.437.322.927.57 1.442.823.516.252 1.056.392 1.64.549.583.157 1.338.28 1.978.286.64.007 1.405-.056 1.959-.229.554-.171 1.187-.354 1.641-.624.453-.27.95-.62 1.263-.924.314-.305.94-1.098.918-.879.317.09.526.181.782.547.012.018.078 0 .078 0 .205-.11.146-.426.156-.625 3.106 1.293 6.959-.118 8.75-2.969-.087-.412-.065-.764 0-1.172-.392 1.05-1.308 1.66-2.207 2.403-.9.742-2.254 1.058-3.496 1.113-1.242.055-2.613-.322-3.672-.938-.12-.07-.473-.149-.547-.234.069.174.14.275.156.469.053.636-1.135 1.21-1.743 1.617-.607.406-1.778.737-2.614.9-.837.163-2.336.157-3.22-.019-.882-.176-1.831-.491-2.603-.911-.771-.422-1.521-.773-2.144-1.372-.623-.6-1.212-1.156-1.68-1.836-.466-.681-1.004-1.4-1.308-2.13.224 1.571 1.072 3.137 2.031 4.376z" stroke="#BE0163" stroke-width=".023"/><path d="M35.172 26.89c.336-.216 1.154-.077 1.562-.155.409-.079.989.09 1.25.39-.194-.262-.57-.65-.841-.8-.271-.15-.918-.56-1.131-.235-.213.326-.743.448-.84.8z" stroke="#BB0062" stroke-width=".023"/><path d="M21.969 30.25c.051.16-.04.284-.078.39v.157c-.053 2.001-2.357 3.378-3.907 4.14 1.015.712 2.141.972 3.365 1.245 1.224.273 3.064.174 4.23-.134 1.167-.307 2.31-.71 3.271-1.339.96-.629 1.82-1.268 2.552-2.135.733-.866 1.521-1.91 1.426-2.949-1.08-.596-1.716-1.843-1.953-2.969-1.791 2.851-5.644 4.262-8.75 2.969-.01.2.05.514-.156.625z" stroke="#FE0079" stroke-width=".023"/><path d="M35.172 26.89c-.097.353.768.786.835 1.354.066.568.269 1.481.18 2.162-.087.681.059 1.569 0 2.266-.057.697.066 1.679 0 2.344-.065.665.062 1.382.65 1.693.59.312 1.294.157 1.67-.39.378-.546.246-1.382.259-2.085.012-.702 0-1.612 0-2.343v-2.266c-.013-.134-.07-.363-.078-.547-.032-.76-.254-1.35-.703-1.953-.262-.3-.842-.469-1.25-.39-.409.078-1.227-.062-1.563.156zm3.281 2.5c.046.322.132.693 0 1.016-.475 1.167-1.096-.722-.859-1.172.237-.449-.773-1.914.052-1.77.825.143.787 1.388.807 1.927zm-1.484-.546c.223.144-.067.67-.365.443-.297-.227.092-.62.365-.443zm0 5.234c.185.026.188.435-.08.388-.27-.046-.162-.422.08-.388zm.625.547c.931.1.773 1.683-.21 1.536-.981-.147-.781-1.642.21-1.536z" stroke="#FB0D8B" stroke-width=".023"/><path d="M38.453 30.406c.073-.287.012-.718 0-1.015-.02-.54.018-1.784-.807-1.928-.825-.143.185 1.322-.052 1.771-.237.45.384 2.34.86 1.172z" stroke="#FFFDFE" stroke-width=".023"/><path d="M15.25 27.672c-.129-.041-.166-.143-.313-.156 0 0-.04.008-.078 0 .161.08.24.174.391.156z" stroke="#ECB3D4" stroke-width=".023"/><path d="M20.953 27.828c.074.085.427.164.547.235-.038-.031-.49-.318-.625-.47.035.08.048.16.078.235z" stroke="#E3961E" stroke-width=".023"/><path d="M7.828 28.922c.779 1.006 1.55 1.83 2.637 2.52 1.088.69 2.401 1.282 3.69 1.466 1.287.184 3.393.08 4.436-.567 1.043-.646 2.396-1.347 2.518-2.638.021-.219-.604.574-.918.879-.314.305-.81.654-1.263.924-.454.27-1.087.453-1.641.624-.554.173-1.318.236-1.959.23a8.543 8.543 0 0 1-1.979-.287c-.583-.157-1.123-.297-1.639-.549-.515-.252-1.005-.5-1.442-.823-.437-.323-.862-.602-1.262-.926-.399-.324-.865-.619-1.178-.853z" stroke="#F7007A" stroke-width=".023"/><path d="M36.969 28.844c-.273-.177-.663.216-.365.443.298.226.588-.299.365-.443z" stroke="#FFF8FC" stroke-width=".023"/><path d="M38.766 29.625c-.004-.192-.061-.405-.078-.547.007.184.064.413.078.547z" stroke="#840148" stroke-width=".023"/><path d="M38.453 30.406c.131-.323.046-.694 0-1.015.012.297.073.728 0 1.015z" stroke="#FF9ED2" stroke-width=".023"/><path d="M21.89 30.797c-.867 1.244-1.417 2.373-2.95 3.065-1.533.69-3.3.88-5.018.607.742.343 1.157 1.14 1.973 1.465.814.325 1.504.779 2.377 1.06.873.281 1.888.553 2.837.678.95.125 2.301.246 3.282.156.98-.09 1.943-.331 2.818-.62.874-.287 1.66-.66 2.422-1.092a10.774 10.774 0 0 0 2.006-1.432c.634-.574 1.117-1.148 1.68-1.758.561-.611.785-1.571 1.542-1.973v-.781a4.402 4.402 0 0 1-2.03-.547c.094 1.04-.694 2.083-1.427 2.95-.733.866-1.591 1.505-2.552 2.134-.962.628-2.104 1.032-3.27 1.34-1.167.307-3.007.407-4.23.133-1.225-.273-2.35-.533-3.366-1.245 1.55-.762 3.854-2.139 3.907-4.14z" stroke="#BE0063" stroke-width=".023"/><path d="M21.89 30.64c.039-.106.13-.23.079-.39 0 0-.066.018-.078 0-.035.102 0 .282 0 .39z" stroke="#460026" stroke-width=".023"/><path d="M13.922 34.469c-.355.005-.663-.162-1.016-.157.63.708 1.324 1.104 2.092 1.66.767.554 1.546.892 2.421 1.327.875.435 1.82.688 2.814.937.994.25 2.366.344 3.454.295a11.775 11.775 0 0 0 3.15-.6c.976-.323 1.685-.735 2.578-1.172.892-.439 1.473-.873 2.313-1.437.84-.564 1.14-1.048 2.018-1.732.878-.684 1.113-1.51 1.113-2.637-.757.402-.98 1.362-1.543 1.973-.562.61-1.045 1.184-1.68 1.758-.633.574-1.244.999-2.005 1.432-.762.432-1.548.805-2.422 1.093-.875.288-1.838.53-2.818.62-.98.089-2.332-.032-3.282-.157-.949-.125-1.965-.397-2.837-.678-.873-.282-1.563-.735-2.377-1.06-.816-.325-1.23-1.122-1.973-1.465z" stroke="#F8007A" stroke-width=".023"/><path d="M36.969 34.078c-.243-.033-.35.342-.08.389.268.046.265-.363.08-.389z" stroke="#FFF9FC" stroke-width=".023"/><path d="M37.594 34.625c-.992-.105-1.192 1.39-.21 1.536.983.147 1.141-1.437.21-1.536z" stroke="#FFFBFD" stroke-width=".023"/><path d="M4.078 23.453c-.026.374-.035.8 0 1.172.228 2.432 1.79 5.008 3.574 6.738 1.786 1.73 3.186 3.456 5.196 5.118 2.008 1.662 4.358 2.798 6.986 3.404 2.628.607 6.404.21 8.829-.91 2.424-1.12 4.203-2.528 6.274-4.116-.357 1.36.504 3.02 1.804 3.354 1.3.333 2.971-.273 3.258-1.73.285-1.458.08-3.509.095-5.061.014-1.552-.163-3.071.607-4.393.77-1.322.604-2.777.955-4.2.793-.538 1.734-1.08 2.344-1.798v-.156c-.525-.651-1.443-.848-2.266-.86-.182-2.81-.844-4.577-2.25-6.464-1.406-1.888-3.107-3.28-4.722-4.052-1.615-.77-2.925-1.283-5.078-1.547-2.154-.263-4.915-.14-6.563.47-1.647.61-3.196 1.029-4.754 2.289-1.558 1.261-3.258 3.323-3.664 4.774-1.476-1.68-2.473-3.654-4.433-4.204-1.96-.551-4.087.325-4.558 2.399-.472 2.074-.019 4.328 1.022 6.57-1.588.231-2.553 1.694-2.656 3.203zm35.39-6.328c.08.215.097.406.157.625.179.65.223.908.39 1.64.169.734-.45.76-1.067.886a8.159 8.159 0 0 0-1.606.504c-.544.225-.893.288-1.37.662-.474.374-.756.353-1.106 1.002-.35.65.126.67.775.384 1.6-.707 3.105-1.472 4.922-1.484.098-.016.245-.074.39-.078.142-.005.33-.03.469 0 .102-.014.21.01.312 0-.032.065-.075.146-.156.156-.02.02-.078 0-.078 0-.068.045-.063.05-.156.078-2.42 1.722-5.01 3.273-7.11 5.547.443.686.742 1.47.625 2.344-2.84.026-4.001-3.526-2.812-5.703.429-1.843.084-3.61-.625-5.235.03.128.062.26.078.39.738 2.371-.262 4.359-.625 6.642-.065.407-.087.759 0 1.171.238 1.126.873 2.373 1.953 2.97a4.402 4.402 0 0 0 2.031.546v.781c0 1.128-.235 1.953-1.113 2.637-.878.684-1.178 1.168-2.018 1.732-.84.564-1.42.998-2.313 1.437-.893.437-1.602.849-2.578 1.172-.974.325-2.061.552-3.15.6-1.088.049-2.46-.046-3.454-.295-.994-.25-1.938-.502-2.813-.937-.875-.435-1.655-.773-2.422-1.328-.768-.554-1.462-.951-2.092-1.658.353-.006.661.161 1.016.156 1.719.273 3.485.083 5.018-.607 1.533-.692 2.083-1.82 2.95-3.065v-.156c0-.109-.035-.289 0-.39-.255-.367-.464-.459-.78-.548-.123 1.292-1.476 1.992-2.519 2.639-1.043.646-3.149.75-4.436.566-1.289-.184-2.602-.777-3.69-1.466-1.088-.69-1.858-1.514-2.637-2.52-.96-1.24-1.807-2.805-2.031-4.375-.197-1.377.262-3.024 1.953-2.422.695.247 1.258.79 1.777 1.348.52.558 1.188.862 1.68 1.445.492.583 1.26.85 1.784 1.341.525.492 1.553.683 1.947 1.257.146.013.183.115.312.156.307-.036-.236-.422-.487-.607-.25-.185-.614-.59-.92-.721.65-.083 1.468.21 2.188 0-.707-.33-1.89-.47-2.662-.931-.771-.463-1.435-.874-2.084-1.51a10.856 10.856 0 0 1-1.64-2.032c-.475-.755-.972-1.412-1.33-2.264-.359-.852-.643-1.879-.876-2.796-.232-.918-.467-2.225-.008-3.13.46-.904 1.818-1.097 2.585-.618 2.242.796 3.438 3.597 4.98 5.332 1.542 1.733 2.895 4.191 4.16 6.152-.514-1.364-.86-2.984-1.562-4.375a5.182 5.182 0 0 0-.313-.547c-.21-.303-.433-.622-.625-.937-.636-1.049-.915-1.803-.174-2.83.742-1.028 1.013-1.544 1.815-2.483.238-.279.496-.556.781-.781 2.206-1.742 4.432-2.898 7.266-3.125 2.833-.228 6.036.497 8.377 1.935 2.34 1.438 3.835 3.247 4.748 5.721zm.313 7.266c-.27.79-.508 1.583-.86 2.344-.324-.307-.768-.61-.937-1.016.641-.375 1.164-.971 1.797-1.328zm-1.797 2.734c.45.604.672 1.194.703 1.953.018.142.075.355.079.547.015.738 0 1.535 0 2.266v2.343c-.013.703.118 1.54-.259 2.086-.377.547-1.08.701-1.67.39-.589-.312-.715-1.03-.65-1.694.066-.665-.057-1.647 0-2.344.058-.697-.088-1.584 0-2.266.089-.68-.114-1.594-.18-2.162-.067-.568-.932-1-.835-1.353.097-.353.627-.475.84-.801.213-.325.86.086 1.131.236s.647.537.841.8z" fill="#000"/><path d="M19.078 12.594c-.02.02 0 .078 0 .078-.087.177-.275.258-.39.39-.405.465-.79.962-1.094 1.485.136-.174.318-.37.468-.547.24-.28.501-.542.782-.781 2.018-1.725 4.667-2.915 7.343-2.969.137-.013.36-.074.547-.078 2.763-.056 5.504.507 7.735 2.031-2.019-.38-4.185 1.017-4.219 3.125-.014.181.01.366 0 .547-.094-.052-.202-.128-.234-.234-1.428-1.443-2.93-2.5-5-2.578a17.635 17.635 0 0 0-1.016 0c-2.323.046-4.654 1.573-5.703 3.671-.306.611-.568 1.346-.625 2.032-.006.077.01.158 0 .234.122-.308.2-.68.312-1.015 1.053-3.158 4.172-5.227 7.502-4.69 3.33.537 5.625 3.189 6.014 6.408 0-.28.034-.582 0-.86-.016-.13-.048-.262-.078-.39-.206-.884-.476-1.356-.957-2.168-.482-.81.24-1.686 1.053-1.798.813-.113 1.29-1.337.763-1.893.28-.102.548-.245.86-.234.315-.057.63-.044.937 0 2.261.085 4.673 2.713 5.313 4.765.01.017.078 0 .078 0-.913-2.474-2.407-4.284-4.748-5.721-2.34-1.437-5.544-2.162-8.377-1.935-2.834.227-5.06 1.383-7.266 3.125z" fill="#FBF9F9"/><path d="M26.188 10.25c.188-.004.414-.066.546-.078-.187.004-.41.065-.547.078z" fill="#FF94C6"/><path d="M26.188 10.25c-2.677.054-5.325 1.244-7.344 2.969l-.781.781c-.151.177-.333.373-.47.547-.687 1.183-1.228 2.658-.937 4.14.192.316.415.635.625.938-.227-.929.435-2.177 1.016-2.89 1.05-2.099 3.38-3.626 5.703-3.672.33-.04.688-.047 1.016 0 2.07.078 3.572 1.135 5 2.578.183.05.194-.133.234-.313.034-2.108 2.2-3.505 4.219-3.125-2.23-1.524-4.972-2.087-7.735-2.031-.132.012-.358.074-.546.078z" fill="#FE0D7A"/><path d="M33.14 12.36c.307-.022.631-.012.938 0a2.951 2.951 0 0 0-.937 0z" fill="#FFF7C5"/><path d="M31.422 18.453c.71 1.625 1.054 3.392.625 5.235.076-.137.562-.676.86-.782-.745.699-.704 1.564-.86 2.5-.156.937.446 2.195 1.191 1.426.745-.769 1.062-.998 1.758-1.601.696-.604 1.21-.941 1.914-1.446.702-.505 1.368-.822 2.096-1.263.728-.44 1.556-.714 2.338-1.022.093-.027.088-.033.156-.078-.13 0-.261-.005-.39 0-.96.033-2.01.49-2.867.805-.858.314-1.851 1.133-2.602.601-.649.287-1.125.266-.776-.384.35-.65.633-.628 1.107-1.002.476-.374.825-.437 1.37-.662a8.159 8.159 0 0 1 1.605-.504c.617-.127 1.236-.152 1.069-.885-.169-.733-.212-.99-.391-1.64a7.185 7.185 0 0 1-.234-.626c-.64-2.052-3.052-4.68-5.313-4.765a8.938 8.938 0 0 0-.938 0c-.311-.011-.58.132-.859.234.527.556.05 1.78-.763 1.893-.813.112-1.535.987-1.053 1.798.48.812.75 1.284.957 2.168zm2.11-1.093c-.013.311 0 .625 0 .937 0 .447.36 1.7-.241 1.869-.603.168-.87-.843-.852-1.402.02-.56-.069-1.537.137-2.125.207-.587.38-.93.895-1.37.514-.442 1.45.115.86.626-.589.51-.771.698-.8 1.465zm3.515-2.266c.643.16.77.87 1.165 1.334.396.463.311 1.455.501 2 .19.544.198 1.959-.578 1.593-.776-.365-.119-1.51-.463-2.037-.344-.527-.094-1.414-.762-1.738-.668-.323-.92-1.414.137-1.152zm-5.781.078c-.548-.067-.04.49 0 0z" fill="#FDC206"/><path d="M18.297 13.375c.112-.112.283-.205.39-.313.135-.134.234-.28.391-.39 0 0-.02-.057 0-.078a5.727 5.727 0 0 0-.781.781z" fill="#34000C"/><path d="M18.688 13.063c.115-.133.303-.214.39-.391-.157.11-.256.256-.39.39z" fill="#F386BD"/><path d="M15.25 27.672c-.15.018-.23-.077-.39-.157-.627-.147-1.236-.571-1.815-.84-.58-.27-1.152-.638-1.678-.98-.525-.342-1.01-.785-1.488-1.168-.479-.383-1.366-.522-1.834-.822-.468-.3-1.101-1.493-.295-1.58-1.691-.602-2.15 1.045-1.953 2.422.304.73.842 1.447 1.309 2.129.467.68 1.057 1.236 1.68 1.836.622.599 1.372.95 2.143 1.372.772.42 1.721.735 2.604.911.883.176 2.382.182 3.219.019.836-.163 2.008-.494 2.614-.9.608-.407 1.796-.981 1.744-1.617-.217-.867-.978-1.703-1.389-2.518-.41-.815-1.045-1.58-1.562-2.344-.517-.763-1.136-1.548-1.717-2.267-.583-.719-1.21-1.408-1.797-2.11l-1.84-2.144c-.56-.693-1.319-1.579-2.181-1.725-.864-.145-1.858-2.168-.608-2.127-.767-.478-2.125-.285-2.585.62-.459.904-.224 2.21.008 3.129.233.917.517 1.944.876 2.796.359.852.855 1.509 1.33 2.264.474.756.992 1.395 1.64 2.031.649.637 1.313 1.048 2.084 1.51.772.462 1.954.603 2.662.932-.72.209-1.537-.083-2.187 0 .305.13.669.536.92.72.25.186.793.572.486.608zM8.453 13.687c.532.1.453 1.034-.157.937-.608-.097-.446-1.05.157-.937zm1.64 2.188c.277.079.18.607-.132.519-.312-.088-.134-.595.133-.52zm-3.28 7.265c.33.154.03.843-.365.6-.396-.244-.027-.781.365-.6z" fill="#FE047A"/><path d="M24 13.063c.337-.007.679-.013 1.016 0a3.982 3.982 0 0 0-1.016 0z" fill="#FF9AB9"/><path d="M21.11 28.297c-.016-.194-.088-.295-.157-.469-.03-.074-.043-.155-.078-.234-.476-1.057-1.092-2.076-1.719-3.047-1.265-1.961-2.618-4.419-4.16-6.153-1.542-1.734-2.738-4.535-4.98-5.332-1.25-.041-.256 1.982.608 2.127.862.146 1.621 1.032 2.18 1.725.56.694 1.252 1.444 1.84 2.144.589.702 1.215 1.391 1.798 2.11.582.719 1.2 1.504 1.717 2.267.517.763 1.151 1.529 1.562 2.344.411.815 1.172 1.651 1.389 2.518z" fill="#FBF9FA"/><path d="M18.297 13.375c-.802.94-1.073 1.455-1.815 2.482-.741 1.027-.462 1.782.174 2.83-.291-1.482.25-2.957.938-4.14a9.771 9.771 0 0 1 1.094-1.485c-.108.108-.28.201-.391.313z" fill="#BE0763"/><path d="M18.063 14l.78-.781c-.28.24-.541.5-.78.781z" fill="#FFC4E3"/><path d="M17.984 17.984c-.56 3.716 1.89 7.996 5.86 8.593 3.971.597 7.656-2.833 7.656-6.874-.39-3.22-2.684-5.871-6.014-6.408-3.33-.537-6.45 1.532-7.502 4.69zm7.188 4.297c-.728 1.112-.844 1.78-1.739 2.871-.894 1.092-2.582-.42-1.753-1.518.83-1.1 1.05-1.88 1.695-2.993-1.143-.687-1.306-1.325-2.518-2.092-1.212-.767.054-2.858 1.244-2.025 1.19.832 1.41 1.378 2.524 2.163.316-.5.541-1.056.883-1.539.342-.482.508-1.106 1.011-1.488.504-.382 1.42-.15 1.682.467.26.618-.047 1.279-.433 1.797-.386.519-.478 1.04-.938 1.563-.46.522-.33 1.065.275 1.408.607.342.802.78 1.328 1.171.528.393.998.77.957 1.465-.04.696-.835 1.177-1.458.99-.623-.187-.938-.687-1.413-1.087l-1.347-1.153z" fill="#FDC203"/><path d="M8.453 13.687c-.603-.112-.765.84-.157.937.61.097.69-.837.157-.937z" fill="#FFFAFC"/><path d="M33.531 18.297a4.094 4.094 0 0 1 0-.938c.03-.766.211-.954.801-1.465.59-.51-.347-1.068-.86-.626-.515.441-.69.783-.895 1.37-.207.588-.118 1.566-.138 2.126-.019.56.25 1.57.852 1.402.601-.17.24-1.422.24-1.87zm3.516-3.203c-1.057-.262-.805.829-.137 1.152.668.324.418 1.21.762 1.738.345.527-.313 1.671.463 2.037.776.366.768-1.05.578-1.594-.19-.544-.104-1.536-.5-1.999-.396-.464-.523-1.175-1.166-1.334z" fill="#000"/><path d="M31.266 15.172c-.04.49-.548-.067 0 0z" fill="#FEFCF3"/><path d="M30.016 15.64c.032.107.14.183.234.235.01-.181-.014-.366 0-.547-.04.18-.05.363-.234.313z" fill="#FF7AB9"/><path d="M25.172 22.281l1.348 1.153c.475.4.79.9 1.412 1.087.623.187 1.418-.294 1.459-.99.04-.696-.43-1.072-.957-1.465-.527-.392-.722-.83-1.328-1.171-.607-.343-.735-.886-.275-1.408.459-.522.551-1.044.937-1.563.386-.519.694-1.179.433-1.797-.261-.618-1.178-.849-1.681-.467-.503.382-.67 1.006-1.011 1.488-.342.483-.568 1.039-.884 1.54-1.114-.787-1.334-1.332-2.524-2.164-1.19-.833-2.456 1.258-1.244 2.025 1.212.767 1.375 1.405 2.518 2.092-.645 1.114-.866 1.893-1.694 2.993-.83 1.099.858 2.61 1.753 1.518.894-1.091 1.01-1.76 1.738-2.87z" fill="#000"/><path d="M10.094 15.875c-.267-.076-.445.431-.133.519.313.088.41-.44.133-.52z" fill="#FFF5FA"/><path d="M17.281 19.625c.109.156.233.39.313.547-.05-.313-.013-.698 0-1.016.006-.16.052-.279.078-.39.057-.686.32-1.42.625-2.032-.581.714-1.243 1.962-1.016 2.891z" fill="#BE1265"/><path d="M39.625 17.75c-.06-.219-.077-.41-.156-.625 0 0-.068.017-.078 0 .067.216.21.582.234.625z" fill="#E7DD87"/><path d="M33.531 18.297c0-.312-.012-.626 0-.938a4.087 4.087 0 0 0 0 .938z" fill="#987300"/><path d="M17.672 19c-.011.09-.065.105-.078.156-.013.318-.05.703 0 1.016.703 1.39 1.048 3.01 1.562 4.375.627.971 1.242 1.99 1.719 3.047.136.151.587.438.625.468 1.06.616 2.43.993 3.672.938 1.242-.055 2.596-.371 3.496-1.113.9-.743 1.815-1.353 2.207-2.403.363-2.282 1.363-4.27.625-6.64.034.277 0 .58 0 .86 0 4.04-3.684 7.47-7.656 6.873-3.97-.597-6.42-4.877-5.86-8.593-.112.336-.19.708-.312 1.016z" fill="#CB6E01"/><path d="M17.594 19.156c.013-.05.067-.067.078-.156.01-.077-.006-.157 0-.234-.026.111-.072.23-.078.39z" fill="#D559A1"/><path d="M4.078 24.625c-.016-.019-.078 0-.078 0V44h40V21.031c-.61.717-1.552 1.26-2.344 1.797-.351 1.424-.185 2.879-.955 4.2-.77 1.323-.593 2.841-.607 4.394-.014 1.552.19 3.603-.096 5.06-.285 1.458-1.957 2.064-3.257 1.73-1.3-.332-2.161-1.993-1.803-3.353-2.072 1.588-3.851 2.996-6.276 4.116-2.424 1.12-6.2 1.516-8.828.91-2.628-.606-4.978-1.742-6.986-3.404-2.01-1.662-3.41-3.387-5.196-5.118-1.785-1.73-3.346-4.306-3.574-6.738z" fill="#000" fill-opacity=".01"/><path d="M40.563 21.344h.39c-.018-.027 0-.078 0-.078-.145.004-.292.062-.39.078z" fill="#78797B"/><path d="M40.953 21.344h.156c.101 0 .214-.014.313 0-.019-.016 0-.078 0-.078-.139-.03-.326-.005-.469 0 0 0-.018.051 0 .078z" fill="#ADB4CA"/><path d="M41.422 21.344c-.015-.003.223.015.156.078.08-.01.124-.091.156-.156-.103.01-.21-.014-.312 0 0 0-.019.062 0 .078z" fill="#C2AE66"/><path d="M35.64 22.828c.752.532 1.745-.287 2.603-.6.857-.315 1.908-.773 2.866-.806-.011-.004 0-.078 0-.078h-.546c-1.817.012-3.322.777-4.922 1.484z" fill="#F7F6F4"/><path d="M41.11 21.422c.129-.005.26 0 .39 0 0 0 .057.02.078 0 .067-.063-.171-.08-.156-.078-.1-.014-.212 0-.313 0 0 0-.012.074 0 .078z" fill="#FEFB6E"/><path d="M32.047 23.688c-1.19 2.177-.028 5.728 2.812 5.703.117-.875-.183-1.658-.625-2.344 2.1-2.274 4.69-3.825 7.11-5.547-.782.308-1.61.581-2.338 1.022-.728.44-1.394.758-2.096 1.263-.703.505-1.218.842-1.914 1.445-.696.604-1.013.833-1.758 1.602-.745.769-1.348-.489-1.191-1.426.156-.936.115-1.801.86-2.5-.298.106-.784.645-.86.782z" fill="#CB6E00"/><path d="M14.86 27.516c.036.008.077 0 .077 0-.393-.574-1.422-.765-1.947-1.257-.524-.491-1.291-.758-1.783-1.341s-1.16-.887-1.68-1.445c-.52-.559-1.083-1.101-1.777-1.348-.806.087-.174 1.28.294 1.58.468.3 1.356.44 1.835.822.478.383.963.826 1.488 1.168.526.342 1.098.71 1.677.98.58.269 1.189.693 1.815.84z" fill="#F9F7F8"/><path d="M6.813 23.14c-.392-.181-.76.356-.365.6s.695-.445.365-.6z" fill="#FFFBFD"/><path d="M4 24.625s.063-.019.078 0a7.522 7.522 0 0 1 0-1.172H4v1.172z" fill="#000" fill-opacity=".65"/><path d="M39.781 24.39c-.633.358-1.156.954-1.797 1.329.17.405.613.71.938 1.015.351-.76.59-1.554.86-2.343z" fill="#C86D00"/><path d="M7.828 28.922c.313.234.779.529 1.178.853.4.324.825.603 1.262.926.437.322.927.57 1.442.823.516.252 1.056.392 1.64.549.583.157 1.338.28 1.978.286.64.007 1.405-.056 1.959-.229.554-.171 1.187-.354 1.641-.624.453-.27.95-.62 1.263-.924.314-.305.94-1.098.918-.879.317.09.526.181.782.547.012.018.078 0 .078 0 .205-.11.146-.426.156-.625 3.106 1.293 6.959-.118 8.75-2.969-.087-.412-.065-.764 0-1.172-.392 1.05-1.308 1.66-2.207 2.403-.9.742-2.254 1.058-3.496 1.113-1.242.055-2.613-.322-3.672-.938-.12-.07-.473-.149-.547-.234.069.174.14.275.156.469.053.636-1.135 1.21-1.743 1.617-.607.406-1.778.737-2.614.9-.837.163-2.336.157-3.22-.019-.882-.176-1.831-.491-2.603-.911-.771-.422-1.521-.773-2.144-1.372-.623-.6-1.212-1.156-1.68-1.836-.466-.681-1.004-1.4-1.308-2.13.224 1.571 1.072 3.137 2.031 4.376z" fill="#BE0163"/><path d="M35.172 26.89c.336-.216 1.154-.077 1.562-.155.409-.079.989.09 1.25.39-.194-.262-.57-.65-.841-.8-.271-.15-.918-.56-1.131-.235-.213.326-.743.448-.84.8z" fill="#BB0062"/><path d="M21.969 30.25c.051.16-.04.284-.078.39v.157c-.053 2.001-2.357 3.378-3.907 4.14 1.015.712 2.141.972 3.365 1.245 1.224.273 3.064.174 4.23-.134 1.167-.307 2.31-.71 3.271-1.339.96-.629 1.82-1.268 2.552-2.135.733-.866 1.521-1.91 1.426-2.949-1.08-.596-1.716-1.843-1.953-2.969-1.791 2.851-5.644 4.262-8.75 2.969-.01.2.05.514-.156.625z" fill="#FE0079"/><path d="M35.172 26.89c-.097.353.768.786.835 1.354.066.568.269 1.481.18 2.162-.087.681.059 1.569 0 2.266-.057.697.066 1.679 0 2.344-.065.665.062 1.382.65 1.693.59.312 1.294.157 1.67-.39.378-.546.246-1.382.259-2.085.012-.702 0-1.612 0-2.343v-2.266c-.013-.134-.07-.363-.078-.547-.032-.76-.254-1.35-.703-1.953-.262-.3-.842-.469-1.25-.39-.409.078-1.227-.062-1.563.156zm3.281 2.5c.046.322.132.693 0 1.016-.475 1.167-1.096-.722-.859-1.172.237-.449-.773-1.914.052-1.77.825.143.787 1.388.807 1.927zm-1.484-.546c.223.144-.067.67-.365.443-.297-.227.092-.62.365-.443zm0 5.234c.185.026.188.435-.08.388-.27-.046-.162-.422.08-.388zm.625.547c.931.1.773 1.683-.21 1.536-.981-.147-.781-1.642.21-1.536z" fill="#FB0D8B"/><path d="M38.453 30.406c.073-.287.012-.718 0-1.015-.02-.54.018-1.784-.807-1.928-.825-.143.185 1.322-.052 1.771-.237.45.384 2.34.86 1.172z" fill="#FFFDFE"/><path d="M15.25 27.672c-.129-.041-.166-.143-.313-.156 0 0-.04.008-.078 0 .161.08.24.174.391.156z" fill="#ECB3D4"/><path d="M20.953 27.828c.074.085.427.164.547.235-.038-.031-.49-.318-.625-.47.035.08.048.16.078.235z" fill="#E3961E"/><path d="M7.828 28.922c.779 1.006 1.55 1.83 2.637 2.52 1.088.69 2.401 1.282 3.69 1.466 1.287.184 3.393.08 4.436-.567 1.043-.646 2.396-1.347 2.518-2.638.021-.219-.604.574-.918.879-.314.305-.81.654-1.263.924-.454.27-1.087.453-1.641.624-.554.173-1.318.236-1.959.23a8.543 8.543 0 0 1-1.979-.287c-.583-.157-1.123-.297-1.639-.549-.515-.252-1.005-.5-1.442-.823-.437-.323-.862-.602-1.262-.926-.399-.324-.865-.619-1.178-.853z" fill="#F7007A"/><path d="M36.969 28.844c-.273-.178-.663.216-.365.443.298.226.588-.299.365-.443z" fill="#FFF8FC"/><path d="M38.766 29.625c-.004-.192-.061-.405-.078-.547.007.184.064.413.078.547z" fill="#840148"/><path d="M38.453 30.406c.131-.323.046-.694 0-1.015.012.297.073.728 0 1.015z" fill="#FF9ED2"/><path d="M21.89 30.797c-.867 1.244-1.417 2.373-2.95 3.065-1.533.69-3.3.88-5.018.607.742.343 1.157 1.14 1.973 1.465.814.325 1.504.779 2.377 1.06.873.281 1.888.553 2.837.678.95.125 2.301.246 3.282.156.98-.09 1.943-.331 2.818-.62.874-.287 1.66-.66 2.422-1.092a10.774 10.774 0 0 0 2.006-1.432c.634-.574 1.117-1.148 1.68-1.758.561-.611.785-1.571 1.542-1.973v-.781a4.402 4.402 0 0 1-2.03-.547c.094 1.04-.694 2.083-1.427 2.95-.733.866-1.591 1.505-2.552 2.134-.962.628-2.104 1.032-3.27 1.34-1.167.307-3.007.407-4.23.133-1.225-.273-2.35-.533-3.366-1.245 1.55-.762 3.854-2.139 3.907-4.14z" fill="#BE0063"/><path d="M21.89 30.64c.039-.106.13-.23.079-.39 0 0-.066.018-.078 0-.035.102 0 .282 0 .39z" fill="#460026"/><path d="M13.922 34.469c-.355.005-.663-.162-1.016-.157.63.708 1.324 1.104 2.092 1.66.767.554 1.546.892 2.421 1.327.875.435 1.82.688 2.814.937.994.25 2.366.344 3.454.295a11.775 11.775 0 0 0 3.15-.6c.976-.323 1.685-.735 2.578-1.172.892-.439 1.473-.873 2.313-1.437.84-.564 1.14-1.048 2.018-1.732.878-.684 1.113-1.51 1.113-2.637-.757.402-.98 1.362-1.543 1.973-.562.61-1.045 1.184-1.68 1.758-.633.574-1.244.999-2.005 1.432-.762.432-1.548.805-2.422 1.093-.875.288-1.838.53-2.818.62-.98.089-2.332-.032-3.282-.157-.949-.125-1.965-.397-2.837-.678-.873-.282-1.563-.735-2.377-1.06-.816-.325-1.23-1.122-1.973-1.465z" fill="#F8007A"/><path d="M36.969 34.078c-.243-.034-.35.342-.08.388.268.047.265-.362.08-.388z" fill="#FFF9FC"/><path d="M37.594 34.625c-.992-.105-1.192 1.389-.21 1.536.983.147 1.141-1.437.21-1.536z" fill="#FFFBFD"/></g><defs><clipPath id="clip0_2931_2283"><path fill="#fff" transform="translate(4 4)" d="M0 0h40v40H0z"/></clipPath></defs></svg>