<svg xmlns="http://www.w3.org/2000/svg" width="48" height="48" fill="none"><path fill-rule="evenodd" clip-rule="evenodd" d="M31.208 8.196c0 2.317-3.227 4.196-7.208 4.196-3.982 0-7.21-1.879-7.21-4.196C16.79 5.879 20.019 4 24 4c3.981 0 7.208 1.879 7.208 4.196zm0 31.608C31.208 42.121 27.981 44 24 44c-3.982 0-7.21-1.879-7.21-4.196 0-2.317 3.228-4.196 7.21-4.196 3.981 0 7.208 1.879 7.208 4.196zM13.95 18.196c1.99-3.449 1.978-7.184-.028-8.343-2.006-1.158-5.246.698-7.237 4.147-1.99 3.449-1.978 7.184.028 8.343 2.006 1.158 5.246-.698 7.237-4.147zm27.336 7.463c2.006 1.159 2.019 4.894.028 8.343-1.99 3.449-5.23 5.305-7.236 4.147-2.007-1.159-2.02-4.894-.029-8.343s5.231-5.306 7.237-4.147zM13.923 38.147c2.006-1.159 2.018-4.894.028-8.343-1.99-3.449-5.23-5.305-7.237-4.147-2.006 1.159-2.019 4.894-.028 8.343 1.99 3.449 5.23 5.306 7.237 4.147zm27.39-24.148c1.99 3.449 1.977 7.184-.029 8.342-2.006 1.159-5.246-.698-7.236-4.146-1.991-3.45-1.979-7.185.028-8.343 2.006-1.159 5.246.698 7.236 4.147z" fill="#E6007A"/></svg>