<svg xmlns="http://www.w3.org/2000/svg" id="svg4832" width="50" height="50" preserveAspectRatio="xMidYMid" version="1.0"
    viewBox="0 0 50 50">
    <circle id="path5370" cx="25" cy="25" r="25" fill="#fff" fill-opacity="1" stroke-width="0" />
    <g id="g4830" fill="#000" stroke="none" transform="matrix(.00996 0 0 -.00996 .126 49.89)">
        <path id="path4822"
            d="M2188 4935c-300-41-532-113-798-247-148-74-213-112-345-206-46-32-73-44-109-47-59-6-131-37-169-73-33-31-71-102-80-150-4-20-40-73-94-140-250-308-422-668-503-1054-71-337-65-762 15-1113 96-421 338-844 660-1153 227-220 526-408 845-535C2257-40 3014 1 3638 326c379 197 700 484 937 839 145 218 274 527 329 793 44 214 51 286 51 547 0 281-13 397-70 620-84 332-269 697-482 955-71 86-93 120-93 140 0 6 5 8 11 4 29-18-25 99-62 134-40 37-156 83-195 76-26-5-43 3-109 51-360 258-750 407-1187 455-132 14-461 11-580-5zm632-91c153-20 309-56 455-105 201-68 491-216 589-301l39-34-89-32c-49-18-99-38-111-44-20-10-43-1-170 64-274 141-506 213-788 248-115 14-365 15-480 1-283-35-581-129-806-255-116-65-146-75-155-52-3 9-14 16-23 16-27 0-171 51-171 61 0 13 133 100 249 163 313 171 646 265 1031 290 90 6 307-5 430-20zm-145-379c240-39 462-158 593-315 32-40 96-133 143-208 109-178 195-265 380-387 152-100 246-155 391-230 353-181 438-229 438-246 0-42-118-196-236-309-75-71-204-154-204-131 0 6 4 11 8 11 9 0 158 128 234 200 25 25 76 81 113 125l67 79-54 12c-162 37-633 294-883 481-171 128-199 163-279 340-40 89-88 177-118 217-104 138-295 259-494 313-89 24-116 27-274 27-161 1-183-1-275-27-298-82-491-243-602-501-81-190-112-227-300-368-139-104-323-214-547-329-195-100-291-139-341-139-20 0-35-5-35-11 0-33 269-322 362-389 23-17 34-30 26-30-19 0-100 52-161 103-74 62-247 292-247 330 0 15 128 89 355 207 196 102 254 134 380 213 294 184 346 236 534 536 57 91 159 202 230 250 122 83 285 149 421 171 41 6 82 13 90 15 44 8 207 3 285-10zM964 4329c91-27 168-59 281-115 124-63 276-154 282-170 9-25-85-154-112-154-7 0-23 12-34 28l-20 27-1-25c-1-40-35-102-79-145-41-39-43-39-57-21-13 19-14 18-14-12 0-26-7-36-32-52-18-11-35-20-38-20-4 0-16 35-29 78-30 102-81 231-149 372-67 139-70 135-71-86-1-83-4-153-7-157-14-14-64 16-70 41-10 47-12 48-14 7-4-69 0-308 6-365 4-48 3-52-8-35-10 15-13 88-13 305 1 391 22 520 88 520 11 0 52-9 91-21zm1741-4c201-41 383-156 484-305 21-30 71-120 112-200 68-134 80-152 169-241 146-147 376-297 733-478 44-22 70-61 53-78-9-9-132 41-253 104-230 118-480 297-613 440-43 45-97 123-159 228-119 202-208 297-341 362-362 178-823 86-1027-205-27-37-79-122-118-188-55-94-89-139-165-214-161-162-364-301-625-430-189-93-225-108-225-91 0 40 24 63 118 110 213 107 480 274 623 389 97 78 145 142 234 312 92 174 118 213 203 291 116 107 286 184 464 209 84 12 235 5 333-15zm1458 1c35-36 77-462 47-481-6-4-10 19-11 62l-1 68-11-50c-12-59-22-69-54-48-22 15-23 19-23 167 0 83-4 157-9 165-7 10-21-10-54-76-65-129-143-318-162-393-9-36-20-68-24-73-4-4-23 3-42 16-25 17-34 30-34 50 1 23-1 25-15 12s-20-11-52 15c-40 33-78 102-78 143 0 33-3 33-35 1-14-14-30-22-35-19-13 8-82 101-99 132-11 22-7 26 63 72 171 111 489 249 578 250 20 1 43-6 51-13zm306-486c121-177 247-449 310-670 161-565 106-1207-146-1715-223-450-618-840-1078-1066-678-333-1452-327-2136 17C812 710 360 1264 200 1899c-85 339-92 764-20 1111 41 192 123 420 220 610 60 116 172 289 227 350l41 45-5-165-6-165-98-199c-92-187-101-201-141-223-54-31-107-81-120-113-11-30 24-226 52-280 40-79 44-109 45-355 1-311 30-491 120-741 102-282 112-313 101-324-18-18-24-11-68 70-24 44-46 80-50 80s-10-11-14-25c-4-16-13-25-25-25-11 0-19-7-19-16 0-8-4-12-10-9-16 10-13 0 30-90 82-177 289-451 446-591 416-370 906-584 1437-625 236-19 533 11 765 77 353 100 661 271 949 526 197 174 412 449 450 574 10 31 23 58 29 61 6 2 9 16 6 30-3 15 1 29 9 34 12 8 12 10 0 18-7 5-11 13-7 19 3 5-1 12-9 16-8 3-15 15-15 26 0 35-24 17-58-45-60-107-63-111-74-90-15 27-2 84 47 205 104 253 155 508 162 817 5 183 8 216 24 243 20 32 39 40 39 15 0-8 5-15 10-15 6 0 10 10 10 23s14 61 31 108c27 72 30 93 26 149-9 114-52 180-155 244-40 25-51 42-127 197-54 111-82 178-79 192 3 12 6 63 7 112 2 82 0 95-25 142-16 30-28 68-28 89v36l40-48c23-27 67-87 99-134zm-1830 114c177-80 220-255 105-426-19-28-33-52-32-53 2-1 24 4 49 11 36 11 48 20 53 39 4 14 17 32 31 41 23 15 27 15 50 0 14-9 25-26 25-37 0-12 11-30 25-41 31-24 32-54 3-85-26-28-67-30-99-4-24 19-25 18-139-24-128-48-128-40-2-85 58-21 64-22 80-6 25 22 78 20 102-4 11-11 20-25 20-31 0-20-21-49-35-49-10 0-15-10-15-30 0-39-36-73-70-65-30 7-50 31-50 60 0 19-17 28-117 65-64 24-121 43-127 43s-64-20-128-44c-101-37-118-47-118-66 0-23-23-52-43-54-50-5-77 17-77 63 0 18-5 28-15 28-9 0-20 11-27 25-17 38 12 75 59 75 20 0 45-7 55-16 16-16 23-15 95 11 43 15 82 31 86 35 5 4-42 26-103 49l-111 41-26-20c-32-25-64-26-93-2s-30 70-1 93c11 9 21 27 21 38s11 28 25 37c35 23 73 6 81-35 6-30 42-51 86-51 16 0 13 7-18 54-61 93-77 174-49 257 56 163 272 242 444 163zm-275-1226c21-27 26-29 26-14 0 18 1 18 20 1 20-18 20-17 20 14v32l63-3c61-3 62-4 60-30-2-30 11-38 21-13 8 21 26 19 26-2 1-14 5-12 21 10 11 15 29 27 39 27 16 0 18-6 13-37l-6-38 24 21c43 38 52 40 47 10-7-35 7-33 43 5 29 31 30 32 92 23l62-9-90-51c-100-57-381-199-463-234l-53-23-37 35c-69 64-71 64-50 3 32-95 0-142-91-133-71 7-181 66-327 176-156 117-298 231-302 243-2 4 12 3 30-3s44-10 58-10 79-2 146-5l121-5 94-75c52-41 109-88 126-106 56-53 46-23-22 63-67 84-90 119-83 126 2 2 44 8 93 13l90 11 35-35c42-41 53-44 40-10-7 19-6 25 5 25 7 0 17-4 20-10 3-5 15-14 25-20 17-9 18-7 13 25-7 46 16 47 51 3zm934-130c-277-216-379-276-470-280-88-4-128 61-77 126 23 29 75 60 88 52 5-3 19 3 32 13 35 27 228 135 305 171 76 35 145 53 177 45 12-3 36-1 52 4 89 27 73 8-107-131zm226-41c4 4 9-3 13-15 3-12 9-22 13-22 5 0 19-26 31-57 18-45 23-79 23-153 1-84-2-102-27-154-44-94-88-140-174-183-74-37-81-38-180-38-63 0-106 4-113 11-9 9 4 11 53 7 176-14 307 103 333 296 3 27 4 58 0 67-6 15-9 15-30-5-18-17-24-36-29-91-3-38-12-81-21-97-36-70-143-133-225-133-58 0-129 29-172 70-31 30-39 44-39 73 0 40 14 50 23 17 3-11 12-20 21-20s16-6 16-12c0-12 53-50 75-54 6-1 13-3 18-4 4-1 11-3 16-4 5 0 12-4 16-8 7-6 17-5 53 9 9 3 22 7 27 7 26 3 95 51 95 67 0 10 9 23 21 29 11 6 18 17 16 23-2 7 2 18 10 25 7 7 13 24 13 38 0 18-10 28-44 44-70 34-87 103-39 161 36 42 81 61 122 49 34-9 40 0 15 21-15 12-14 15 6 31 16 13 27 15 40 8 9-5 20-6 24-3zm-2332-76c-3-34 0-42 27-62 31-22 31-24 31-112 0-141 33-242 116-350 37-48 37-48 10-41-17 4-26 2-26-5s14-11 33-9c18 1 58-10 91-25 32-15 70-27 85-27 14 0 32-4 39-8 8-5-29-17-95-31-59-13-185-45-279-72s-178-49-187-49c-12 0-13 7-5 43 5 23 18 57 29 76l20 33-59-7c-48-5-60-4-65 9-7 19 4 57 34 118 12 26 20 50 16 54-7 8-55-46-79-90-9-17-17-26-18-20 0 7 15 35 34 63s31 51 25 51c-12 0-95-105-119-150-27-53-89-216-111-294-22-83-35-100-45-61-17 68 22 243 65 289 11 12 42 55 69 96 48 74 123 157 169 187 12 8 23 19 23 24 0 9-105 2-157-11-42-11-44 6-3 45 28 27 66 93 62 108-1 4 4 7 11 7s19 6 26 13c6 6 15 12 19 12s39 19 77 42c39 22 87 46 108 53 20 6 37 13 37 16 0 2-20 9-45 15s-48 16-52 22c-6 10 68 87 84 87 5 0 7-18 5-39zm2661-4c33-26 49-56 30-57-5-1-30-7-58-15l-50-13 33-12c19-7 55-24 80-38 26-14 94-50 152-79 58-30 97-52 88-49-24 7-23-3 4-31 20-22 21-23 2-24-10 0-13-3-6-6 6-2 12-10 12-18 0-7 7-18 15-25 24-20 8-28-37-19-60 11-138 11-138-1 0-5 4-10 8-10 16 0 146-139 178-191 19-30 43-65 55-79 30-34 56-97 68-166 13-69 14-154 3-154-16 0-38 35-41 65-8 76-113 323-158 371-31 33-39 25-18-16 27-53 11-43-34 20-23 33-46 60-51 60-14 0-13-6 15-58 14-26 25-62 25-79 0-37-7-39-79-22-24 5-46 8-48 6-2-3 7-21 21-41 27-40 51-104 43-113-3-3-81 16-174 42-216 61-301 80-497 111-213 34-452 33-459-1-1-6 52-12 133-16 239-11 588-77 849-161l93-30-6-31c-10-53-81-187-98-187-3 0-9 16-12 35-7 36-26 58-26 30 0-9-7-29-15-45-14-27-17-28-45-19-20 7-30 18-30 31 0 15-5 18-19 13-12-4-35 3-59 19-132 83-349 169-502 199-141 28-169 30-176 12-4-9-4-18-1-21 2-3 54-16 113-30 132-29 219-57 295-95 32-16 60-29 63-29 7 0 140-101 143-109 3-7-146-81-163-81-5 0-23 14-39 30-70 73-320 216-362 208-38-7-20-29 50-61 77-36 193-107 260-159 37-30 37-31 20-50-10-11-25-24-34-28-13-8-15-5-11 16 4 23-5 18-77-42-44-37-81-71-81-76 0-4-4-8-10-8-5 0-10 21-10 48 0 68-14 81-28 27-13-50-57-125-72-125-6 0-10 11-10 24 0 14-4 28-10 31-18 11-82-28-147-88-35-33-65-58-66-56s-11 23-22 47l-20 43-38-51c-20-27-41-50-46-50-4 0-6 23-3 51l5 51-29-27c-16-15-46-40-66-56l-36-29-61 50c-33 27-63 45-66 40s-3-25 1-45c11-58-10-43-80 59-12 17-14 15-34-28-12-25-25-46-28-46s-28 25-56 56c-28 30-69 64-91 76-39 19-41 20-54 2-7-10-13-27-13-37 0-20-1-20-20-2-11 10-35 48-52 83l-32 65-9-34c-5-19-11-36-13-38-5-5-67 42-123 94l-43 40 15-38c18-42 11-46-27-16-44 35-41 40 91 132 43 30 111 71 151 91 45 22 72 42 72 52 0 53-258-84-364-194l-40-41-25 18c-14 10-49 30-78 45-28 14-54 30-57 35-4 5 24 30 61 54 131 87 290 146 521 193 16 3 22 10 20 22-3 14-14 17-67 14-144-7-409-97-570-193-79-47-86-49-98-33s-13 15-13-9c0-15-9-32-22-42-21-14-24-14-40 7-10 13-21 33-24 46-9 34-22 27-35-20l-11-42-19 24c-30 41-78 143-81 174-3 29-2 30 102 63 238 77 555 138 802 155 92 7 168 15 168 19 0 9-60 19-165 28l-73 6 114 68c63 38 122 80 132 93 59 84 94 123 136 144 25 14 46 30 46 36 0 7 12 15 28 19l27 8-27 10c-16 6-28 13-28 16 0 7 302 141 316 141 6 0 8-16 6-35s1-48 6-65c7-18 7-32 1-35-5-4-9-18-9-32 0-19 17-42 58-82 31-31 73-77 92-103 29-38 55-56 155-106 139-70 197-86 315-86 105-1 177 20 259 75 117 78 180 199 188 360 5 92 6 96 34 112 25 14 29 22 29 62 0 51 0 51 63 2zM852 2258c-45-46-100-109-123-140l-40-57 32-8 32-9-27-17c-32-21-128-42-151-33-14 5-11 11 15 32 17 15 65 69 106 120 76 94 133 147 189 177 55 30 49 17-33-65zm3251 56c58-30 98-66 174-158 42-50 94-108 117-128 22-20 38-39 34-43-12-12-118 7-161 29-34 17-41 26-39 45 4 36 9 37 37 11 14-13 25-20 25-16 0 5-25 32-56 62-30 30-50 54-42 54 7 0-23 36-67 80-79 79-84 96-22 64zm-3098-761c10-54 58-155 99-209 39-51 45-67 21-58-24 10-101 134-123 199-19 56-21 59-31 35-78-194-101-242-107-226-16 42 29 246 57 255 8 2 25 12 38 22 33 26 38 24 46-18zm2999 15c-4-7-2-8 5-4 19 12 67-31 89-82 22-50 41-202 26-202-5 0-22 30-37 68-37 89-70 153-80 155-5 1-21-28-37-65-28-69-94-168-111-168s-9 22 25 64c43 52 82 134 97 204 6 29 15 50 20 46 5-3 6-10 3-16zM680 1432c0-4 27-49 60-100s60-100 60-108 5-14 12-14c6 0 75-62 152-138 207-202 358-309 603-428 508-248 1066-288 1587-114 332 111 600 277 867 537 59 57 114 103 125 103 30 0 41 12 53 55 16 61 99 185 122 185 52 0 29-51-98-222-94-126-275-308-404-405-511-384-1136-527-1754-402-151 31-383 112-533 185-354 176-643 429-854 749l-59 89 23 18c25 19 38 23 38 10z" />
        <path id="path4824"
            d="M2288 3649c-47-27-39-93 17-137 45-36 137-24 151 20 8 27-40 86-90 109-47 21-55 22-78 8z" />
        <path id="path4826"
            d="M2640 3649c-30-12-110-88-110-104 0-17 41-51 69-58 50-12 125 42 136 98 11 53-40 86-95 64z" />
        <path id="path4828"
            d="M2424 2070c-61-9-132-40-158-69-11-11-19-35-18-51 2-66 92-174 166-201 45-16 54-44 37-108-15-55-21-62-91-91-45-18-112-59-238-145-18-12-81-79-78-82 1-1 26 6 54 17 63 24 92 25 92 4 0-11 14-3 46 25 137 120 369 118 512-5 30-25 42-31 42-20 0 9 6 16 13 16 14 0 87-21 122-36 18-7 18-6-3 21-37 47-150 123-270 182-125 61-132 69-132 154v50l47 20c92 39 151 105 168 187 6 29 3 37-30 67-55 52-175 80-281 65z" />
    </g>
</svg>