<svg width="48" height="48" fill="none" xmlns="http://www.w3.org/2000/svg">
    <g clip-path="url(#prefix__clip0_1927_4428)">
        <circle cx="24" cy="24" r="24" fill="#043875" />
        <g clip-path="url(#prefix__clip1_1927_4428)" fill="#CFE8FF">
            <path
                d="M24.1 26.744a5.913 5.913 0 004.213-1.75 5.995 5.995 0 001.238-6.635 5.688 5.688 0 01-1.429 2.4 5.664 5.664 0 01-4.022 1.67 5.664 5.664 0 01-4.023-1.67 5.678 5.678 0 01-1.43-2.405 5.968 5.968 0 00-.506 2.416c0 1.596.62 3.096 1.745 4.225a5.912 5.912 0 004.214 1.75v-.001z" />
            <path
                d="M24.1 19.84c.83 0 1.609-.324 2.196-.913.587-.588.91-1.37.91-2.202 0-.83-.322-1.612-.908-2.2L24.1 12.32l-2.198 2.205a3.098 3.098 0 00-.908 2.2 3.1 3.1 0 00.91 2.202 3.084 3.084 0 002.196.913zM30.139 26.824a8.503 8.503 0 01-6.04 2.508 8.504 8.504 0 01-6.04-2.508 8.532 8.532 0 01-2.382-4.622 8.88 8.88 0 00-.39 2.612c0 2.36.917 4.577 2.581 6.246a8.742 8.742 0 006.23 2.587 8.742 8.742 0 006.23-2.587 8.787 8.787 0 002.581-6.246 8.88 8.88 0 00-.39-2.612 8.53 8.53 0 01-2.382 4.622h.002z" />
            <path
                d="M39.556 22.041L24.1 6.545 8.643 22.041a3.924 3.924 0 000 5.54l12.694 12.726a3.9 3.9 0 005.525 0l12.694-12.726a3.924 3.924 0 000-5.54zm-7.4 10.85a11.342 11.342 0 01-8.056 3.345 11.342 11.342 0 01-8.056-3.345c-4.45-4.461-4.45-11.694 0-16.155l2.017-2.022 2.014-2.02.003-.002L24.1 8.659l4.023 4.033.002.002 4.032 4.042c4.45 4.461 4.45 11.694 0 16.155h-.001z" />
        </g>
    </g>
    <defs>
        <clipPath id="prefix__clip0_1927_4428">
            <path fill="#fff" d="M0 0h48v48H0z" />
        </clipPath>
        <clipPath id="prefix__clip1_1927_4428">
            <path fill="#fff" transform="translate(7.499 6.545)" d="M0 0h33.202v34.909H0z" />
        </clipPath>
    </defs>
</svg>