<svg xmlns="http://www.w3.org/2000/svg" width="56" height="56" fill="none"><g clip-path="url(#a)"><path fill="#000" d="M55.764 27.939c0 15.33-12.425 27.764-27.764 27.764C12.661 55.703.236 43.278.236 27.939.236 12.6 12.67.184 28 .184s27.764 12.425 27.764 27.755Z"/><path fill="#fff" d="M37.752 29.035c-.173 1.49-.687 2.792-1.54 3.906-.84 1.114-1.954 1.982-3.342 2.604-1.39.622-2.98.933-4.774.933-1.939 0-3.631-.354-5.078-1.063-1.447-.709-2.575-1.7-3.385-2.973-.796-1.288-1.194-2.785-1.194-4.492 0-1.707.398-3.197 1.194-4.47.81-1.288 1.938-2.286 3.385-2.995 1.447-.709 3.14-1.063 5.078-1.063 1.794 0 3.385.311 4.774.933 1.389.622 2.503 1.49 3.342 2.604.853 1.114 1.367 2.416 1.54 3.906h-5.62a3.194 3.194 0 0 0-.716-1.432c-.347-.405-.803-.709-1.367-.912-.55-.216-1.201-.325-1.953-.325-.84 0-1.563.152-2.17.456a3.083 3.083 0 0 0-1.367 1.28c-.319.564-.478 1.237-.478 2.018 0 .781.16 1.454.478 2.018.318.55.774.977 1.367 1.28.607.304 1.33.456 2.17.456.752 0 1.403-.094 1.953-.282.564-.202 1.02-.499 1.367-.89.347-.405.586-.904.716-1.497h5.62ZM28.088 14.788a4.104 4.104 0 1 0 0-8.208 4.104 4.104 0 0 0 0 8.208ZM28.088 49.35a4.104 4.104 0 1 0 0-8.207 4.104 4.104 0 0 0 0 8.207ZM12.933 23.004a4.104 4.104 0 1 0 0-8.208 4.104 4.104 0 0 0 0 8.208ZM43.251 23.004a4.104 4.104 0 1 0 0-8.208 4.104 4.104 0 0 0 0 8.208ZM12.933 41.274a4.104 4.104 0 1 0 0-8.208 4.104 4.104 0 0 0 0 8.208ZM43.251 41.274a4.104 4.104 0 1 0 0-8.208 4.104 4.104 0 0 0 0 8.208Z"/></g><defs><clipPath id="a"><path fill="#fff" d="M0 0h56v56H0z"/></clipPath></defs></svg>