<svg xmlns="http://www.w3.org/2000/svg" xmlns:xlink="http://www.w3.org/1999/xlink" viewBox="0 0 199.62 199.19" height="48" width="48"><defs><style>.cls-1{isolation:isolate;}.cls-2{fill:url(#linear-gradient);}.cls-3{fill:url(#linear-gradient-2);}.cls-11,.cls-13,.cls-15,.cls-18,.cls-19,.cls-20,.cls-21,.cls-22,.cls-23,.cls-24,.cls-25,.cls-26,.cls-28,.cls-30,.cls-32,.cls-37,.cls-4,.cls-9{stroke:#231f20;}.cls-10,.cls-11,.cls-12,.cls-13,.cls-14,.cls-15,.cls-16,.cls-17,.cls-18,.cls-19,.cls-20,.cls-21,.cls-22,.cls-23,.cls-24,.cls-25,.cls-26,.cls-27,.cls-28,.cls-29,.cls-30,.cls-31,.cls-32,.cls-33,.cls-34,.cls-35,.cls-36,.cls-37,.cls-4,.cls-5,.cls-6,.cls-8,.cls-9{stroke-linejoin:round;}.cls-10,.cls-11,.cls-12,.cls-13,.cls-14,.cls-15,.cls-16,.cls-18,.cls-19,.cls-20,.cls-21,.cls-22,.cls-23,.cls-24,.cls-25,.cls-26,.cls-28,.cls-30,.cls-32,.cls-37,.cls-4,.cls-8,.cls-9{mix-blend-mode:overlay;}.cls-4{fill:url(#linear-gradient-3);}.cls-17,.cls-27,.cls-29,.cls-31,.cls-33,.cls-34,.cls-35,.cls-36,.cls-5,.cls-6{stroke:#000100;}.cls-5{fill:url(#New_Gradient_Swatch_22_copy);}.cls-6{fill:url(#New_Gradient_Swatch_22_copy-2);}.cls-7{fill:#231f20;}.cls-10,.cls-12,.cls-14,.cls-16,.cls-8{stroke:#170000;}.cls-8{fill:url(#New_Gradient_Swatch);}.cls-9{fill:url(#linear-gradient-4);}.cls-10{fill:url(#New_Gradient_Swatch-2);}.cls-11{fill:url(#linear-gradient-5);}.cls-12{fill:url(#New_Gradient_Swatch-3);}.cls-13{fill:url(#linear-gradient-6);}.cls-14{fill:url(#New_Gradient_Swatch-4);}.cls-15{fill:url(#linear-gradient-7);}.cls-16{fill:url(#New_Gradient_Swatch-5);}.cls-17{fill:url(#New_Gradient_Swatch_22_copy-3);}.cls-18{fill:url(#New_Gradient_Swatch-6);}.cls-19{fill:url(#linear-gradient-8);}.cls-20{fill:url(#New_Gradient_Swatch-7);}.cls-21{fill:url(#linear-gradient-9);}.cls-22{fill:url(#linear-gradient-10);}.cls-23{fill:url(#linear-gradient-11);}.cls-24{fill:url(#New_Gradient_Swatch-8);}.cls-25{fill:url(#linear-gradient-12);}.cls-26{fill:url(#New_Gradient_Swatch-9);}.cls-27{fill:url(#New_Gradient_Swatch_22_copy-4);}.cls-28{fill:url(#New_Gradient_Swatch-10);}.cls-29{fill:url(#New_Gradient_Swatch_22_copy-5);}.cls-30{fill:url(#linear-gradient-13);}.cls-31{fill:url(#New_Gradient_Swatch_22_copy-6);}.cls-32{fill:url(#New_Gradient_Swatch-11);}.cls-33{fill:url(#New_Gradient_Swatch_22_copy-7);}.cls-34{fill:url(#New_Gradient_Swatch_22_copy-8);}.cls-35{fill:url(#New_Gradient_Swatch_22_copy-9);}.cls-36{fill:url(#New_Gradient_Swatch_22_copy-10);}.cls-37{fill:url(#New_Gradient_Swatch-12);}.cls-38{fill:url(#linear-gradient-14);}.cls-39{fill:url(#linear-gradient-15);}</style><linearGradient id="linear-gradient" y1="99.91" x2="198.91" y2="99.91" gradientUnits="userSpaceOnUse"><stop offset="1" stop-color="#2a3578" /><stop offset="1" stop-color="#38407f" /></linearGradient><linearGradient id="linear-gradient-2" x1="0.72" y1="99.29" x2="199.62" y2="99.29" xlink:href="#linear-gradient" /><linearGradient id="linear-gradient-3" x1="104.55" y1="97.68" x2="125.92" y2="97.68" gradientUnits="userSpaceOnUse"><stop offset="0" stop-color="#d3cdf8" /><stop offset="0.8" stop-color="#9f9fe1" /></linearGradient><linearGradient id="New_Gradient_Swatch_22_copy" x1="83.13" y1="79.23" x2="125.87" y2="79.23" gradientUnits="userSpaceOnUse"><stop offset="0" stop-color="#9d77c9" /><stop offset="1" stop-color="#9d77c9" /></linearGradient><linearGradient id="New_Gradient_Swatch_22_copy-2" x1="93.74" y1="106.2" x2="93.93" y2="74.88" xlink:href="#New_Gradient_Swatch_22_copy" /><linearGradient id="New_Gradient_Swatch" x1="46" y1="85.13" x2="14.82" y2="57.81" gradientTransform="matrix(0.87, 0.5, 0, 1.15, 23.87, 47.65)" xlink:href="#linear-gradient-3" /><linearGradient id="linear-gradient-4" x1="57.15" y1="-85.9" x2="25.95" y2="-113.25" gradientTransform="matrix(0.87, -0.5, 0, 1.15, 35.6, 257.55)" xlink:href="#linear-gradient-3" /><linearGradient id="New_Gradient_Swatch-2" x1="46.01" y1="63.79" x2="14.83" y2="36.46" gradientTransform="matrix(0.87, 0.5, 0, 1.15, 23.87, 47.65)" xlink:href="#linear-gradient-3" /><linearGradient id="linear-gradient-5" x1="57.15" y1="-107.23" x2="25.95" y2="-134.58" gradientTransform="matrix(0.87, -0.5, 0, 1.15, 35.6, 257.55)" xlink:href="#linear-gradient-3" /><linearGradient id="New_Gradient_Swatch-3" x1="46" y1="42.46" x2="14.83" y2="15.13" gradientTransform="matrix(0.87, 0.5, 0, 1.15, 23.87, 47.65)" xlink:href="#linear-gradient-3" /><linearGradient id="linear-gradient-6" x1="57.15" y1="-128.53" x2="25.95" y2="-155.87" gradientTransform="matrix(0.87, -0.5, 0, 1.15, 35.6, 257.55)" xlink:href="#linear-gradient-3" /><linearGradient id="New_Gradient_Swatch-4" x1="46" y1="21.16" x2="14.83" y2="-6.16" gradientTransform="matrix(0.87, 0.5, 0, 1.15, 23.87, 47.65)" xlink:href="#linear-gradient-3" /><linearGradient id="linear-gradient-7" x1="61.79" y1="48.46" x2="83.16" y2="48.46" xlink:href="#linear-gradient-3" /><linearGradient id="New_Gradient_Swatch-5" x1="40.43" y1="48.46" x2="61.79" y2="48.46" xlink:href="#linear-gradient-3" /><linearGradient id="New_Gradient_Swatch_22_copy-3" x1="83.07" y1="32.27" x2="83.26" y2="0.95" xlink:href="#New_Gradient_Swatch_22_copy" /><linearGradient id="New_Gradient_Swatch-6" x1="83.16" y1="48.46" x2="104.53" y2="48.46" xlink:href="#linear-gradient-3" /><linearGradient id="linear-gradient-8" x1="125.89" y1="60.78" x2="147.26" y2="60.78" xlink:href="#linear-gradient-3" /><linearGradient id="New_Gradient_Swatch-7" x1="104.52" y1="60.78" x2="125.89" y2="60.78" xlink:href="#linear-gradient-3" /><linearGradient id="linear-gradient-9" x1="81.83" y1="-85.91" x2="50.62" y2="-113.25" gradientTransform="matrix(0.87, -0.5, 0, 1.15, 35.6, 257.55)" xlink:href="#linear-gradient-3" /><linearGradient id="linear-gradient-10" x1="155.87" y1="-21.83" x2="124.67" y2="-49.17" gradientTransform="matrix(0.87, -0.5, 0, 1.15, 35.6, 257.55)" xlink:href="#linear-gradient-3" /><linearGradient id="linear-gradient-11" x1="155.87" y1="-43.16" x2="124.67" y2="-70.51" gradientTransform="matrix(0.87, -0.5, 0, 1.15, 35.6, 257.55)" xlink:href="#linear-gradient-3" /><linearGradient id="New_Gradient_Swatch-8" x1="144.72" y1="21.03" x2="113.55" y2="-6.29" gradientTransform="matrix(0.87, 0.5, 0, 1.15, 23.87, 47.65)" xlink:href="#linear-gradient-3" /><linearGradient id="linear-gradient-12" x1="155.87" y1="-64.49" x2="124.67" y2="-91.84" gradientTransform="matrix(0.87, -0.5, 0, 1.15, 35.6, 257.55)" xlink:href="#linear-gradient-3" /><linearGradient id="New_Gradient_Swatch-9" x1="144.72" y1="-0.3" x2="113.55" y2="-27.62" gradientTransform="matrix(0.87, 0.5, 0, 1.15, 23.87, 47.65)" xlink:href="#linear-gradient-3" /><linearGradient id="New_Gradient_Swatch_22_copy-4" x1="147.22" y1="93.83" x2="147.4" y2="62.51" xlink:href="#New_Gradient_Swatch_22_copy" /><linearGradient id="New_Gradient_Swatch-10" x1="125.94" y1="159.28" x2="147.31" y2="159.28" xlink:href="#linear-gradient-3" /><linearGradient id="New_Gradient_Swatch_22_copy-5" x1="104.57" y1="140.81" x2="147.31" y2="140.81" xlink:href="#New_Gradient_Swatch_22_copy" /><linearGradient id="linear-gradient-13" x1="106.53" y1="-21.88" x2="75.33" y2="-49.22" gradientTransform="matrix(0.87, -0.5, 0, 1.15, 35.6, 257.55)" xlink:href="#linear-gradient-3" /><linearGradient id="New_Gradient_Swatch_22_copy-6" x1="104.49" y1="167.7" x2="104.68" y2="136.39" xlink:href="#New_Gradient_Swatch_22_copy" /><linearGradient id="New_Gradient_Swatch-11" x1="95.38" y1="85.05" x2="64.2" y2="57.72" gradientTransform="matrix(0.87, 0.5, 0, 1.15, 23.87, 47.65)" xlink:href="#linear-gradient-3" /><linearGradient id="New_Gradient_Swatch_22_copy-7" x1="104.44" y1="44.58" x2="104.62" y2="13.27" xlink:href="#New_Gradient_Swatch_22_copy" /><linearGradient id="New_Gradient_Swatch_22_copy-8" x1="104.52" y1="42.3" x2="147.26" y2="42.3" xlink:href="#New_Gradient_Swatch_22_copy" /><linearGradient id="New_Gradient_Swatch_22_copy-9" x1="40.42" y1="29.99" x2="83.16" y2="29.99" xlink:href="#New_Gradient_Swatch_22_copy" /><linearGradient id="New_Gradient_Swatch_22_copy-10" x1="83.1" y1="155.42" x2="83.28" y2="124.1" xlink:href="#New_Gradient_Swatch_22_copy" /><linearGradient id="New_Gradient_Swatch-12" x1="61.82" y1="159.28" x2="83.18" y2="159.28" xlink:href="#linear-gradient-3" /><linearGradient id="linear-gradient-14" x1="51.12" y1="7.95" x2="51.12" y2="191.22" gradientUnits="userSpaceOnUse"><stop offset="0" stop-color="#fffc2e" /><stop offset="0.15" stop-color="#cbc93f" stop-opacity="0.8" /><stop offset="0.3" stop-color="#777759" stop-opacity="0.6" /><stop offset="0.7" stop-color="#606060" stop-opacity="0.6" /><stop offset="0.85" stop-color="#cecc3e" stop-opacity="0.8" /><stop offset="1" stop-color="#fffc2e" /></linearGradient><linearGradient id="linear-gradient-15" x1="136.6" y1="0.46" x2="136.6" y2="198.64" xlink:href="#linear-gradient-14" /></defs><g class="cls-1"><g id="Layer_2" data-name="Layer 2"><g id="Layer_1-2" data-name="Layer 1"><ellipse class="cls-2" cx="99.45" cy="99.91" rx="99.45" ry="99.29" /><ellipse class="cls-3" cx="100.17" cy="99.29" rx="99.45" ry="99.29" /><polygon class="cls-4" points="125.92 103.84 104.55 116.16 104.55 91.53 125.92 79.21 125.92 103.84" /><path class="cls-5" d="M104.5,91.54,83.13,79.23,104.5,66.91l21.37,12.32Z" /><path class="cls-6" d="M83.18,103.85V79.22l21.37,12.32Z" /><polygon class="cls-7" points="84.14 128.49 125.44 104.69 125.44 128.21 104.54 140.25 84.14 128.49" /><polygon class="cls-7" points="103.52 66.92 83.7 78.32 83.7 55.5 103.52 66.92" /><polygon class="cls-8" points="61.81 165.46 40.45 153.14 40.45 128.51 61.81 140.83 61.81 165.46" /><polygon class="cls-9" points="83.18 128.5 61.82 140.81 61.82 116.18 83.18 103.87 83.18 128.5" /><polygon class="cls-10" points="61.82 140.81 40.45 128.5 40.45 103.87 61.82 116.18 61.82 140.81" /><polygon class="cls-11" points="83.18 103.87 61.81 116.18 61.81 91.55 83.18 79.24 83.18 103.87" /><polygon class="cls-12" points="61.81 116.18 40.45 103.87 40.45 79.24 61.81 91.55 61.81 116.18" /><polygon class="cls-13" points="83.18 79.28 61.81 91.6 61.81 66.97 83.18 54.65 83.18 79.28" /><polygon class="cls-14" points="61.81 91.6 40.45 79.28 40.45 54.65 61.81 66.97 61.81 91.6" /><polygon class="cls-15" points="83.16 54.62 61.79 66.94 61.79 42.3 83.16 29.99 83.16 54.62" /><polygon class="cls-16" points="61.79 66.94 40.43 54.62 40.43 29.99 61.79 42.3 61.79 66.94" /><path class="cls-17" d="M83.16,30,61.79,17.67,83.16,5.36l21.36,12.31Z" /><polygon class="cls-18" points="104.53 66.94 83.16 54.62 83.16 29.99 104.53 42.3 104.53 66.94" /><polygon class="cls-19" points="147.26 66.93 125.89 79.25 125.89 54.62 147.26 42.3 147.26 66.93" /><polygon class="cls-20" points="125.89 79.25 104.53 66.93 104.53 42.3 125.89 54.62 125.89 79.25" /><polygon class="cls-21" points="104.55 116.15 83.18 128.47 83.18 103.84 104.55 91.52 104.55 116.15" /><polygon class="cls-22" points="168.67 153.12 147.31 165.44 147.31 140.81 168.67 128.49 168.67 153.12" /><polygon class="cls-23" points="168.67 128.49 147.31 140.81 147.31 116.18 168.67 103.86 168.67 128.49" /><polygon class="cls-24" points="147.31 140.81 125.94 128.49 125.94 103.86 147.31 116.18 147.31 140.81" /><polygon class="cls-25" points="168.67 103.86 147.31 116.18 147.31 91.55 168.67 79.23 168.67 103.86" /><polygon class="cls-26" points="147.31 116.18 125.94 103.86 125.94 79.23 147.31 91.55 147.31 116.18" /><path class="cls-27" d="M147.31,91.55,125.94,79.23l21.37-12.31,21.36,12.31Z" /><polygon class="cls-28" points="147.31 165.43 125.94 177.75 125.94 153.13 147.3 140.81 147.31 165.43" /><path class="cls-29" d="M125.94,153.12l-21.37-12.31,21.37-12.32,21.37,12.32Z" /><polygon class="cls-30" points="125.94 177.74 104.58 190.05 104.58 165.42 125.94 153.11 125.94 177.74" /><path class="cls-31" d="M104.58,165.42,83.21,153.11l21.37-12.32,21.36,12.32Z" /><polygon class="cls-32" points="104.58 190.05 83.21 177.74 83.21 153.11 104.58 165.42 104.58 190.05" /><path class="cls-33" d="M104.53,42.3,83.16,30l21.37-12.32L125.89,30Z" /><path class="cls-34" d="M125.89,54.62,104.52,42.3,125.89,30,147.26,42.3Z" /><path class="cls-35" d="M61.79,42.3,40.42,30,61.79,17.67,83.16,30Z" /><path class="cls-36" d="M83.18,153.14,61.82,140.83l21.36-12.32,21.37,12.32Z" /><polygon class="cls-37" points="83.18 177.75 61.81 165.44 61.81 140.81 83.18 153.12 83.18 177.75" /><path class="cls-38" d="M40.44,179a99.44,99.44,0,0,0,21.37,12.22L61.79,8A99.43,99.43,0,0,0,40.42,20.23Z" /><path class="cls-39" d="M104.55.46l0,41.84,21.36,12.32V79.21l21.41,12.34v24.63l-21.37-12.32v24.63l-21.34,12.3,0,57.85a98.42,98.42,0,0,0,21.37-3.59V153.13l21.47-12.48,21.26-12.16V79.23L147.26,66.89V42.3L125.89,30V3.84A99.32,99.32,0,0,0,104.55.46Z" /></g></g></g></svg>