<svg width="64" height="64" viewBox="0 0 64 64" fill="none" xmlns="http://www.w3.org/2000/svg">
<circle cx="32" cy="32" r="32" fill="#1B8F42"/>
<path d="M29.9336 38.584C30.207 38.0371 30.5 37.3242 30.8125 36.4453C31.125 35.5469 31.2812 34.541 31.2812 33.4277C31.2812 32.5684 31.1543 31.6992 30.9004 30.8203C30.666 30.0586 30.3828 29.375 30.0508 28.7695C29.7383 28.1445 29.3965 27.5977 29.0254 27.1289C28.6543 26.6406 28.2734 26.2207 27.8828 25.8691C27.5117 25.5176 27.1602 25.2246 26.8281 24.9902C26.1055 24.4824 25.4316 24.1309 24.8066 23.9355C24.2012 23.7402 23.6934 23.6426 23.2832 23.6426C22.7168 23.8184 22.248 23.9941 21.877 24.1699C21.5059 24.3457 21.3105 24.4336 21.291 24.4336C21.1738 24.4922 21.0469 24.5215 20.9102 24.5215C20.6562 24.5215 20.4609 24.4336 20.3242 24.2578C19.6406 24.6289 18.9863 25.3027 18.3613 26.2793C17.7363 27.2559 17.2188 28.4473 16.8086 29.8535C16.5352 30.7715 16.3301 31.6895 16.1934 32.6074C16.0566 33.5254 15.9883 34.4238 15.9883 35.3027C15.9883 36.5332 16.125 37.6172 16.3984 38.5547C16.5938 39.1797 16.8379 39.7266 17.1309 40.1953C17.4238 40.6641 17.7461 41.0645 18.0977 41.3965C18.4492 41.709 18.8105 41.9727 19.1816 42.1875C19.5723 42.3828 19.9336 42.5391 20.2656 42.6562C21.1641 42.9883 22.1211 43.1543 23.1367 43.1543C24.0156 43.1543 24.8555 43.0371 25.6562 42.8027C26.2617 42.627 26.9551 42.1875 27.7363 41.4844C28.5371 40.7812 29.2695 39.8145 29.9336 38.584ZM27.7656 23.6719C28.1562 23.9453 28.5664 24.2871 28.9961 24.6973C29.4453 25.1074 29.8848 25.5859 30.3145 26.1328C30.7441 26.6797 31.1445 27.3047 31.5156 28.0078C31.8867 28.6914 32.209 29.4727 32.4824 30.3516C32.7754 31.3477 32.9219 32.373 32.9219 33.4277C32.9219 34.4238 32.7852 35.4199 32.5117 36.416C32.2578 37.4121 31.877 38.3887 31.3691 39.3457C30.6855 40.5957 29.875 41.6797 28.9375 42.5977C28 43.4961 27.0625 44.082 26.125 44.3555C25.1484 44.6484 24.1523 44.7949 23.1367 44.7949C21.9648 44.7949 20.8223 44.5996 19.709 44.209C19.2793 44.0527 18.8301 43.8477 18.3613 43.5938C17.8926 43.3203 17.4336 42.9785 16.9844 42.5684C16.5352 42.1582 16.1152 41.6699 15.7246 41.1035C15.3535 40.5176 15.0508 39.8242 14.8164 39.0234C14.5039 37.9688 14.3477 36.7285 14.3477 35.3027C14.3477 34.3652 14.416 33.3984 14.5527 32.4023C14.709 31.3867 14.9336 30.3809 15.2266 29.3848C15.7734 27.5098 16.4863 25.9766 17.3652 24.7852C18.2637 23.5938 19.2402 22.832 20.2949 22.5C20.5879 22.4219 20.8906 22.3828 21.2031 22.3828C21.3008 22.3828 21.3984 22.3828 21.4961 22.3828C21.5938 22.3828 21.6914 22.4023 21.7891 22.4414C22.043 22.3438 22.3848 22.2266 22.8145 22.0898C23.0098 22.0312 23.2441 22.002 23.5176 22.002C24.1035 22.002 24.7676 22.1484 25.5098 22.4414C26.2715 22.7344 27.0234 23.1445 27.7656 23.6719ZM47.7754 35.7422C47.9512 36.0352 48.2344 36.4453 48.625 36.9727C49.0156 37.4805 49.4355 38.0371 49.8848 38.6426C50.3535 39.2285 50.832 39.834 51.3203 40.459C51.8281 41.084 52.2773 41.6602 52.668 42.1875C53.0781 42.6953 53.4102 43.1152 53.6641 43.4473C53.9375 43.7598 54.0742 43.9258 54.0742 43.9453C54.2109 44.082 54.2793 44.248 54.2793 44.4434C54.2793 44.7168 54.1719 44.9316 53.957 45.0879C53.8008 45.2051 53.6348 45.2637 53.459 45.2637C53.166 45.2637 52.9512 45.166 52.8145 44.9707C52.7754 44.9316 52.6094 44.7461 52.3164 44.4141C52.043 44.0625 51.7012 43.6328 51.291 43.125C50.8809 42.5977 50.4316 42.0215 49.9434 41.3965C49.4551 40.7715 48.9766 40.1562 48.5078 39.5508C48.0586 38.9453 47.6387 38.3887 47.248 37.8809C46.877 37.3535 46.5938 36.9336 46.3984 36.6211C46.125 36.1719 45.8125 35.6836 45.4609 35.1562C45.1289 34.6094 44.7773 34.0723 44.4062 33.5449C44.0547 33.0176 43.6934 32.5195 43.3223 32.0508C42.9707 31.5625 42.6289 31.1426 42.2969 30.791C41.7305 31.4355 41.1934 32.0605 40.6855 32.666C40.1973 33.2715 39.7578 33.8184 39.3672 34.3066C38.9766 34.7754 38.6641 35.1562 38.4297 35.4492L38.0781 35.918C38 36.0156 37.9023 36.0938 37.7852 36.1523C37.8438 37.0117 37.9219 37.9199 38.0195 38.877C38.1172 39.8145 38.2051 40.6934 38.2832 41.5137C38.3613 42.334 38.4297 43.0176 38.4883 43.5645C38.5469 44.1113 38.5762 44.4043 38.5762 44.4434C38.5762 44.6582 38.5078 44.8438 38.3711 45C38.2344 45.1562 38.0293 45.2441 37.7559 45.2637C37.541 45.2637 37.3555 45.1953 37.1992 45.0586C37.0625 44.9219 36.9844 44.7461 36.9648 44.5312C36.9453 44.4727 36.9062 44.209 36.8477 43.7402C36.8086 43.2715 36.75 42.6953 36.6719 42.0117C36.6133 41.3086 36.5449 40.5371 36.4668 39.6973C36.3887 38.8574 36.3105 38.0371 36.2324 37.2363C36.1738 36.416 36.1152 35.6641 36.0566 34.9805C36.0176 34.2969 35.998 33.7598 35.998 33.3691C35.998 32.7832 35.9688 32.0312 35.9102 31.1133C35.8711 30.1953 35.8125 29.2578 35.7344 28.3008C35.6562 27.3242 35.5684 26.3965 35.4707 25.5176C35.373 24.6387 35.2754 23.9355 35.1777 23.4082C35.1777 23.2129 35.2461 23.0371 35.3828 22.8809C35.5195 22.7246 35.7246 22.627 35.998 22.5879C36.1934 22.5879 36.3594 22.6465 36.4961 22.7637C36.6523 22.8809 36.75 23.0371 36.7891 23.2324C36.9062 23.7793 37.0137 24.5117 37.1113 25.4297C37.209 26.3281 37.2969 27.2754 37.375 28.2715C37.4531 29.2676 37.5117 30.2344 37.5508 31.1719C37.6094 32.0898 37.6387 32.8223 37.6387 33.3691V33.8379C37.9121 33.4863 38.2441 33.0762 38.6348 32.6074C39.0254 32.1191 39.4355 31.6113 39.8652 31.084C40.3145 30.5566 40.7832 30.0195 41.2715 29.4727C41.7598 28.9062 42.2383 28.3691 42.707 27.8613C43.4102 27.0996 44.0547 26.4258 44.6406 25.8398C45.2461 25.2539 45.7637 24.7656 46.1934 24.375C46.6426 23.9648 46.9941 23.6523 47.248 23.4375C47.502 23.2227 47.6387 23.1055 47.6582 23.0859C47.7949 22.9688 47.9707 22.9102 48.1855 22.9102C48.4395 22.9102 48.6543 23.0078 48.8301 23.2031C48.9473 23.3594 49.0059 23.5352 49.0059 23.7305C49.0059 23.9844 48.9082 24.1895 48.7129 24.3457C48.6934 24.3652 48.2344 24.7754 47.3359 25.5762C46.4375 26.377 45.2949 27.5098 43.9082 28.9746C43.8105 29.0723 43.7227 29.1699 43.6445 29.2676C43.5664 29.3652 43.4785 29.4629 43.3809 29.5605C43.752 29.9316 44.1328 30.3809 44.5234 30.9082C44.9336 31.416 45.3242 31.9531 45.6953 32.5195C46.0859 33.0859 46.457 33.6523 46.8086 34.2188C47.1602 34.7656 47.4824 35.2734 47.7754 35.7422Z" fill="white"/>
</svg>
