<svg width="32" height="32" fill="none" xmlns="http://www.w3.org/2000/svg"><g clip-path="url(#clip0_11854_154518)"><path d="M16 32c8.837 0 16-7.163 16-16S24.837 0 16 0 0 7.163 0 16s7.163 16 16 16z" fill="#E40C5B"/><path fill-rule="evenodd" clip-rule="evenodd" d="M16.02 19.852c-.835-.001-1.668.07-2.49.21l1.24-2.173a18.207 18.207 0 0 1 4.161.193l-4.798-8.435-7.99 14.045L5 21.685l9.114-16.027.019.033.018-.032 11 19.341h-2.284l-2.57-4.52a14.54 14.54 0 0 0-4.277-.63v.002zm9.838 3.873L15.208 5h2.285L27 21.717l-1.142 2.008zm-10.57-9.485l-4.372 7.692c1.565-.48 3.406-.694 5.143-.694a18.265 18.265 0 0 1 3.362.315l1.46 2.567a13.863 13.863 0 0 0-4.822-.88 14.25 14.25 0 0 0-6.87 1.741l.032-.058-.045.077H6.892l7.262-12.768 1.135 2.008z" fill="#fff"/></g><defs><clipPath id="clip0_11854_154518"><path fill="#fff" d="M0 0h32v32H0z"/></clipPath></defs></svg>