<svg xmlns="http://www.w3.org/2000/svg" width="48" height="48" fill="none"><g clip-path="url(#clip0_1904_3699)"><path fill-rule="evenodd" clip-rule="evenodd" d="M48.531 24.5c0 13.678-11.088 24.766-24.765 24.766C10.088 49.266-1 38.178-1 24.5-1 10.822 10.088-.266 23.766-.266 37.443-.266 48.53 10.822 48.53 24.5zM17.065 11.849l-.018-.005a.29.29 0 0 0-.043.046.32.32 0 0 0 .061-.041zm.161.043a15.9 15.9 0 0 1-.16-.043l.215-.162-.055.205zm0 0c.37.096.74.18 1.11.264.43.098.86.195 1.289.313.43.117.86.215 1.29.312.429.098.858.195 1.288.313.235.078.313 0 .39-.235.157-.664.313-1.308.47-1.953.156-.644.312-1.289.468-1.953.078-.234.157-.312.39-.234.782.234 1.485.39 2.267.547.234.078.234.156.156.312-.157.625-.313 1.27-.469 1.914-.156.645-.313 1.29-.469 1.914 0 .078 0 .156-.078.313.313.078.645.156.977.234.332.078.664.156.976.235.052 0 .104-.07.157-.14.026-.034.052-.069.078-.095a41.62 41.62 0 0 1 .78-2.969l.235-.937c0-.156.078-.235.235-.156.444.133.889.241 1.348.353.348.084.703.17 1.073.272.04 0 .06.02.079.039.02.02.039.039.078.039-.235 1.015-.469 1.953-.703 2.89-.078.391-.157.782-.313 1.172-.078.235 0 .313.235.39l2.578 1.173a6.628 6.628 0 0 1 2.03 1.875c.704 1.172.782 2.422.47 3.672-.235.859-.547 1.64-1.172 2.265-.469.469-1.094.782-1.719 1.016a.28.28 0 0 0-.103.029.51.51 0 0 1-.21.049c.157.117.313.215.47.313.156.097.312.195.468.312.938.703 1.563 1.563 1.875 2.656.156.86.078 1.797-.156 2.657-.313 1.093-.703 2.03-1.407 2.89-.859 1.016-1.953 1.563-3.203 1.719-1.64.234-3.203.078-4.765-.156-.235-.078-.39 0-.469.234-.156.625-.313 1.27-.469 1.914-.156.645-.312 1.29-.468 1.914l-.01.04c-.07.279-.085.344-.46.194a29.862 29.862 0 0 1-1.093-.273c-.371-.098-.742-.195-1.094-.273-.234-.078-.234-.157-.156-.313.313-1.328.625-2.656 1.016-3.906 0-.044.006-.081.011-.114.014-.086.023-.142-.09-.199-.625-.156-1.25-.312-1.953-.468-.078.351-.175.703-.273 1.054-.098.352-.195.703-.273 1.055-.079.352-.176.703-.274 1.055-.098.351-.195.703-.273 1.054l-.025.053c-.057.12-.081.172-.288.104-.781-.235-1.562-.391-2.344-.547-.234-.078-.234-.157-.156-.313.313-1.328.625-2.656 1.016-3.906a.28.28 0 0 1 .029-.103c.022-.053.049-.118.049-.21a546.384 546.384 0 0 0-5.469-1.406c.078-.156.137-.293.196-.43.058-.136.117-.273.195-.43.312-.702.625-1.405.86-2.03.077-.235.155-.235.39-.235.547.157 1.172.313 1.719.39.624.157 1.093-.155 1.171-.702 1.016-3.985 2.032-7.969 2.97-12.032.155-.625-.235-1.328-.938-1.562a20.67 20.67 0 0 0-1.655-.454 70.783 70.783 0 0 1-.377-.093c-.156 0-.234-.078-.156-.234.117-.43.235-.88.352-1.328.099-.379.197-.758.296-1.124zm3.805 19.249c.078 0 .157.078.157.078l.592.15c1.073.277 2.194.565 3.314.631.937.078 1.797.078 2.656-.234 1.484-.469 2.11-2.422 1.25-3.672-.39-.625-1.016-1.016-1.64-1.406-1.366-.759-2.951-1.075-4.472-1.38l-.138-.027c-.214-.07-.233-.012-.293.176a8.755 8.755 0 0 1-.02.059c-.078.39-.175.762-.273 1.133-.098.37-.195.742-.273 1.132a50.84 50.84 0 0 0-.487 1.885c-.118.48-.238.97-.373 1.475zm7.422-8.125c-.312.078-.703.156-.86.156-.906 0-1.69-.123-2.498-.25-.307-.049-.617-.098-.939-.14-.156-.04-.293-.079-.43-.118-.136-.039-.273-.078-.43-.117-.155-.078-.233-.156-.155-.313.468-1.64.859-3.203 1.25-4.843.078-.235.156-.313.39-.235.233.062.463.121.69.18.916.235 1.793.46 2.67.836.703.312 1.406.781 1.797 1.484.78 1.328 0 3.047-1.485 3.36z" fill="#F5B300"/></g><defs><clipPath id="clip0_1904_3699"><rect width="48" height="48" rx="24" fill="#fff"/></clipPath></defs></svg>