<svg xmlns="http://www.w3.org/2000/svg" width="5426" height="5426" style="shape-rendering:geometricPrecision;text-rendering:geometricPrecision;image-rendering:optimizeQuality;fill-rule:evenodd;clip-rule:evenodd"><path style="opacity:.999" fill="#fefefe" d="M2645.5-.5h135c555.61 17.258 1059.28 185.758 1511 505.5 402.32 290.971 704.48 663.14 906.5 1116.5 141.97 325.55 217.8 665.88 227.5 1021v140c-15.04 497.62-154.21 956.95-417.5 1378-213.38 335.38-486.55 611.88-819.5 829.5-432.03 277.21-905.36 422.38-1420 435.5h-112c-503.1-12.66-967.43-152.16-1393-418.5-407.17-260.15-724.336-602.98-951.5-1028.5C112.967 3598.37 8.8 3193.7-.5 2764.5v-104c12.535-519.98 159.702-997.64 441.5-1433C651.3 908.2 916.467 644.033 1236.5 435c428.69-275.156 898.35-420.323 1409-435.5z"/><path style="opacity:1" fill="#e6017a" d="M2666.5 361.5c381.07-5.691 742.74 74.809 1085 241.5 264.8 131.737 497.47 306.737 698 525-169.3-86.33-346.97-150.331-533-192-181.73-40.957-365.39-53.623-551-38-115.36 11.007-228.02 34.674-338 71-4.67.667-9.33.667-14 0-325.28-212.005-682.61-311.671-1072-299-161.89 6.537-320.56 32.537-476 78a1728.576 1728.576 0 0 0-83 27.5c-1.2-.346-1.2-.846 0-1.5 386.78-262.973 814.78-400.473 1284-412.5z"/><path style="opacity:1" fill="#1d1d1b" d="M2004.5 775.5c308.29-6.913 597.96 62.921 869 209.5 40.5 22.74 80.16 46.74 119 72 6.68 3.82 13.68 4.48 21 2 170.23-55.94 344.89-79.937 524-72 190.8 9.228 376.14 45.89 556 110 103 36.17 202.33 80.5 298 133 228.03 136.69 412.53 317.86 553.5 543.5 142.46 231.69 232.46 482.69 270 753 15.21 118.73 17.54 237.73 7 357-11.92 147.54-36.59 292.87-74 436-42.71 155.4-102.04 304.07-178 446-173.2 300.87-418.7 521.37-736.5 661.5-162.97 68.49-332.64 110.16-509 125-215.24 21.3-428.58 9.3-640-36-169.67-37.53-327-103.53-472-198-68.02-43.67-132.35-92.34-193-146-.83-.17-1.67-.33-2.5-.5-229.13 85.95-465.97 121.11-710.5 105.5-176.55-10.71-347.89-46.38-514-107-319.943-138.95-571.443-356.78-754.5-653.5-233.737-388.13-297.07-802.79-190-1244 30.83-120.16 72.163-236.5 124-349 89.72-202.95 208.387-386.29 356-550 112.066-125.47 237.899-233.97 377.5-325.5 237.41-152.029 497.08-240.362 779-265 40.1-3.504 80.1-6.004 120-7.5z"/><path style="opacity:1" fill="#fedd00" d="M2373.5 855.5a4.949 4.949 0 0 1-.5 3c-74.8 74.429-161.63 92.595-260.5 54.5-39.62-18.23-73.45-44.063-101.5-77.5a24.622 24.622 0 0 1-5.5-10c123.71-4.056 246.38 5.944 368 30z"/><path style="opacity:1" fill="#febf00" d="M2005.5 825.5a24.622 24.622 0 0 0 5.5 10c28.05 33.437 61.88 59.27 101.5 77.5 98.87 38.095 185.7 19.929 260.5-54.5.48-.948.65-1.948.5-3a1439.839 1439.839 0 0 1 154 37.5l4.5 4.5c36.54 89.498 37.87 179.5 4 270-17.31 41.66-41.81 78.33-73.5 110a325.83 325.83 0 0 1 14.5-31 312.388 312.388 0 0 0 21-74c1.65-5.88.15-10.71-4.5-14.5-98.04-56.24-201.04-101.24-309-135a3186.87 3186.87 0 0 0-93-25 1164.703 1164.703 0 0 1-54-11 245.384 245.384 0 0 0-17-2 32.543 32.543 0 0 1-7-3c-14.66-1.76-29.32-3.427-44-5a5913.33 5913.33 0 0 1-14-4 3239.881 3239.881 0 0 1-46-5.5 83.176 83.176 0 0 1-21 .5 424.735 424.735 0 0 0-39.5-4.5c-7.53 1.459-15.03 1.293-22.5-.5a1091.892 1091.892 0 0 0-103.5.5c-5.18-.353-10.35-.853-15.5-1.5-64.72-34.146-133.06-43.813-205-29-69 15.233-126.16 49.733-171.5 103.5-9.17 11.83-18.33 23.67-27.5 35.5-129.04 51.04-235.71 131.71-320 242-2 .67-4 .67-6 0-37.794-16.97-72.461-12.3-104 14-22.904 22.07-31.404 48.91-25.5 80.5 3.631 15.26 9.964 29.26 19 42 .667 2 .667 4 0 6-40 68.02-82 134.68-126 200a620.698 620.698 0 0 1-20 27c-1.411 2.15-2.245 4.48-2.5 7-14.99-10.55-31.656-16.55-50-18-5.485-.83-11.152-1.33-17-1.5-1.016-.52-1.682-1.35-2-2.5 47.84-113.04 106.006-220.04 174.5-321a23.512 23.512 0 0 0 2.5-6c170.978-178.57 371.98-313.4 603-404.5 185.62-69.993 377.62-107.159 576-111.5z"/><path style="opacity:1" fill="#dc6d23" d="M2451.5 1412.5c-.24-3.64-1.9-6.47-5-8.5l-30-24c-1.4-.41-2.73-.91-4-1.5 91.64-51.5 153.47-127.5 185.5-228 16.52-56.55 19.85-113.88 10-172a620.673 620.673 0 0 0-15.5-63c4.19-.105 8.19.728 12 2.5 117.7 41.985 229.37 95.98 335 162 1.19 1.02 2.19 2.19 3 3.5-1.96 1.98-4.29 3.48-7 4.5-184.23 74.57-345.56 182.74-484 324.5z"/><path style="opacity:1" fill="#fedd00" d="M2462.5 1277.5c-58.12 61.25-129.79 93.75-215 97.5-53.06 2.36-104.73-4.97-155-22a649.745 649.745 0 0 1-53-26c-53.41-23.85-107.41-25.52-162-5-25.57 11.09-47.24 27.25-65 48.5-4.82 3.28-8.49 7.62-11 13-4.11 3.46-7.11 7.8-9 13 .5 1.02 1.17 1.19 2 .5 3.58-3.08 6.58-6.58 9-10.5 4.04-4.04 7.71-8.37 11-13 25.12-21.9 54.12-36.4 87-43.5 28.36-4.52 56.36-2.86 84 5 1.78 1.07 2.28 2.57 1.5 4.5-86.77 65.75-155.77 146.41-207 242a840.19 840.19 0 0 0-67 155 2575.273 2575.273 0 0 1-91 258c-24.68 53.68-61.85 96.51-111.5 128.5-51.02 27.73-103.02 29.73-156 6-75.99-36.41-116.82-96.91-122.5-181.5-1.36-51.72 5.31-102.38 20-152 3.84-13.71 7.84-27.38 12-41 12.74-36.89 25.07-73.89 37-111 13.19-53.77-4.31-93.94-52.5-120.5-19.61-7.67-38.94-7-58 2-16.1 7.43-29.94 17.93-41.5 31.5-40.14 44.29-63.47 96.29-70 156a624.05 624.05 0 0 0-4 102c5.11 55.6 9.45 111.27 13 167 2.25 38.31 2.92 76.64 2 115-3.25 43.99-13.25 86.32-30 127-28.7 68.36-78.863 112.19-150.5 131.5-60.916 15.61-119.582 9.61-176-18-46.598-28.3-77.431-68.8-92.5-121.5-9.652-37.08-8.319-73.74 4-110a1117.614 1117.614 0 0 1 31-84l78-174c7.028-19.4 9.361-39.4 7-60-1.141-25.75-8.141-49.75-21-72a147.145 147.145 0 0 0-21.5-25c.255-2.52 1.089-4.85 2.5-7a620.698 620.698 0 0 0 20-27c44-65.32 86-131.98 126-200 .667-2 .667-4 0-6-9.036-12.74-15.369-26.74-19-42-5.904-31.59 2.596-58.43 25.5-80.5 31.539-26.3 66.206-30.97 104-14 2 .67 4 .67 6 0 84.29-110.29 190.96-190.96 320-242 9.17-11.83 18.33-23.67 27.5-35.5 45.34-53.767 102.5-88.267 171.5-103.5 71.94-14.813 140.28-5.146 205 29 5.15.647 10.32 1.147 15.5 1.5 34.48-1.803 68.98-1.969 103.5-.5 7.47 1.793 14.97 1.959 22.5.5 13.24.884 26.41 2.384 39.5 4.5 7.02.721 14.02.554 21-.5 15.32 1.943 30.66 3.777 46 5.5 4.68 1.344 9.35 2.677 14 4 14.68 1.573 29.34 3.24 44 5a32.543 32.543 0 0 0 7 3c5.69.469 11.36 1.136 17 2 17.98 4.106 35.98 7.773 54 11 31.12 7.86 62.12 16.2 93 25 107.96 33.76 210.96 78.76 309 135 4.65 3.79 6.15 8.62 4.5 14.5a312.388 312.388 0 0 1-21 74 325.83 325.83 0 0 0-14.5 31z"/><path style="opacity:1" fill="#de7024" d="M3960.5 1101.5c2.33 1.83 4.99 3.16 8 4 1.04 3.88 3.38 6.71 7 8.5 166.96 91.89 315.79 207.72 446.5 347.5 43.71 48.85 84.88 99.52 123.5 152 4.14 7.99 9.31 15.32 15.5 22 3.1 7.2 7.43 13.53 13 19a70.94 70.94 0 0 0 11 17c.33 1.33.67 2.67 1 4 8.26 11.53 16.26 23.19 24 35 3 5.67 6 11.33 9 17 2.79 2.34 4.45 5.34 5 9l4 4c2 4.67 4 9.33 6 14l3 3c4.97 9.6 9.63 19.26 14 29 2.45 4.03 4.95 8.03 7.5 12-164.53-176.16-360.86-305.32-589-387.5a1673.96 1673.96 0 0 0-164-48c-333.01-71.63-653.68-34.63-962 111-95.84 47.29-185.84 103.29-270 168-91.55 74.55-174.05 158.05-247.5 250.5-203.96 267.19-307.12 569.35-309.5 906.5 1.51 102.58 13.01 204.08 34.5 304.5 4.88 19.79 10.05 39.46 15.5 59-1 .09-1.83-.25-2.5-1a1640.286 1640.286 0 0 1-89-182c-1-2.16-2.5-3.83-4.5-5a5117.237 5117.237 0 0 0-33.5-92 1572.34 1572.34 0 0 1-50-172 88.497 88.497 0 0 1-.5-29c1.83-15.99 3.67-31.99 5.5-48a5010.68 5010.68 0 0 1 87-415c40.36-155.03 97.7-303.37 172-445 77.07-145.79 176.24-274.96 297.5-387.5 206.32-185.13 447.66-297.8 724-338 187.07-23.08 372.74-14.75 557 25 34.16 7.69 68.16 16.03 102 25a191.2 191.2 0 0 0 29 3.5z"/><path style="opacity:1" fill="#c8611d" d="M3960.5 1101.5c110.92 32.8 218.59 73.97 323 123.5 73.28 35.62 142.61 77.28 208 125 184.69 136.99 334.19 304.83 448.5 503.5 140.67 248.35 221 515.01 241 800 3.89 122.57-2.78 244.57-20 366-29.15 225.12-92.49 440.12-190 645a2748.731 2748.731 0 0 1-46 88 63.592 63.592 0 0 1-9 10c-80.11 130.16-175.94 247.99-287.5 353.5-4.59 6.59-9.92 12.59-16 18-225.82 196.2-487.82 315.87-786 359-148.02 21.78-296.68 28.11-446 19-111.9-7.15-222.24-24.15-331-51-159.06-41.05-306.06-107.71-441-200-89.55-59.84-171.05-129.67-244.5-209.5-207.63-230.32-334.63-499.99-381-809-20.73-145.11-25.4-290.78-14-437 3.17-36.01 6.5-72.01 10-108 3.2-5.13 5.7-10.46 7.5-16a88.497 88.497 0 0 0 .5 29 1572.34 1572.34 0 0 0 50 172c11.49 30.65 22.66 61.31 33.5 92-.94 3.96-1.11 7.96-.5 12 42.91 308.72 165.91 579.72 369 813 173.72 194.6 383.56 336.76 629.5 426.5 85.26 30.06 172.26 53.06 261 69 349.26 54.29 679.59-2.38 991-170 271.31-152.97 478.47-367.81 621.5-644.5 71.08-140.58 119.75-288.58 146-444 51.79-345.24-4.87-671.91-170-980a7397.995 7397.995 0 0 0-60-99 1711.3 1711.3 0 0 0-46-64c-65.48-91.17-140.64-174-225.5-248.5-11.19-9.43-22.19-19.1-33-29-2.41-1.71-5.08-2.54-8-2.5-38.62-52.48-79.79-103.15-123.5-152-130.71-139.78-279.54-255.61-446.5-347.5-3.62-1.79-5.96-4.62-7-8.5-3.01-.84-5.67-2.17-8-4z"/><path style="opacity:1" fill="#fffefd" d="M2470.5 1200.5c4.07-.99 6.07.51 6 4.5-1.26 8.43-4.09 16.27-8.5 23.5-34.11 59.33-84.94 95.5-152.5 108.5-32.64 6.33-65.31 6.67-98 1a745.85 745.85 0 0 1-75-15c-32.34-9.67-64.68-19.34-97-29-46.17-8.75-92.51-9.75-139-3a482.164 482.164 0 0 0-94 30c-2.46.95-4.46.45-6-1.5 4.38-8.22 10.38-15.05 18-20.5 52.45-40.19 111.45-54.53 177-43 9.39 1.74 18.72 3.74 28 6 37.1 15.94 75.77 25.94 116 30 41.97 2.38 83.97 3.05 126 2 58.84-2.27 111.17-21.61 157-58 13.9-12.07 27.9-23.91 42-35.5z"/><path style="opacity:1" fill="#e17426" d="M4658.5 1798.5c14.68 30.2 29.18 60.54 43.5 91 .67 2.67 1.33 5.33 2 8 4.08 7.32 7.42 14.99 10 23l3 3c3.28 12.67 7.44 25 12.5 37 3.3 7.79 6.8 15.45 10.5 23 14.2 40.5 28.53 80.84 43 121 5.57 21.3 11.9 42.3 19 63 1.67 7.67 3.33 15.33 5 23l2 2a495.96 495.96 0 0 0 8.5 30c5.24 27.54 11.4 54.87 18.5 82 .5 3.32.67 6.65.5 10-4.31-6.62-8.15-13.62-11.5-21-26.02-66.7-57.35-130.7-94-192a1647.21 1647.21 0 0 0-103-149c-35.69-41.7-72.86-82.2-111.5-121.5-229.67-217.89-503-342.89-820-375-283.38-20.98-548.05 39.35-794 181-44.36 27.18-87.7 55.84-130 86-102.36 79.36-192.19 170.86-269.5 274.5-103.4 142.16-177.4 298.83-222 470-68.04 282.56-47.71 559.23 61 830 34.07 84.16 76.4 163.5 127 238a39.37 39.37 0 0 1 4.5 11c-3.46-2.28-6.79-4.78-10-7.5l-37-37a46.773 46.773 0 0 0-7-4.5 578.292 578.292 0 0 0-34.5-36 618.763 618.763 0 0 0-28-31c-5.67-7.33-11.33-14.67-17-22a50.12 50.12 0 0 1-9-7 2192.108 2192.108 0 0 0-49-62c-8-11.33-16-22.67-24-34-30.8-40.92-59.14-83.58-85-128-2.74-4.8-4.9-9.8-6.5-15-5.45-19.54-10.62-39.21-15.5-59-21.49-100.42-32.99-201.92-34.5-304.5 2.38-337.15 105.54-639.31 309.5-906.5 73.45-92.45 155.95-175.95 247.5-250.5 84.16-64.71 174.16-120.71 270-168 308.32-145.63 628.99-182.63 962-111a1673.96 1673.96 0 0 1 164 48c228.14 82.18 424.47 211.34 589 387.5z"/><path style="opacity:1" fill="#e2a200" d="M826.5 1341.5a23.512 23.512 0 0 1-2.5 6c-68.494 100.96-126.66 207.96-174.5 321 .318 1.15.984 1.98 2 2.5 5.848.17 11.515.67 17 1.5-64.587 1.86-108.42 32.86-131.5 93-11.766 34.19-13.433 68.85-5 104 4.446 72.43-22.388 130.1-80.5 173-10.312 4.82-20.645 9.66-31 14.5-8.857 3.1-17.857 5.6-27 7.5a85.979 85.979 0 0 1-25 1.5c-.923-2.04-1.256-4.21-1-6.5 53.523-138.38 119.69-270.05 198.5-395 74.999-116.87 161.832-224.54 260.5-323z"/><path style="opacity:1" fill="#e47827" d="M2088.5 1386.5c-.15 1.05.02 2.05.5 3 3.17 2.5 6.33 5 9.5 7.5 83.5 42.64 160.33 94.81 230.5 156.5-.59 1.85-1.09 3.85-1.5 6-18.41 27.8-37.07 55.47-56 83-.32-2.22.34-4.06 2-5.5a9.186 9.186 0 0 1-1.5-2.5 947.617 947.617 0 0 0-100.5-78.5c-70.91-49.47-146.91-90.13-228-122-4.39-.71-8.72-.54-13 .5 24.32-27.16 50.99-51.66 80-73.5 2.33-.67 4.67-.67 7 0 20.25 6.86 40.58 13.53 61 20 3.55 1.6 6.88 3.44 10 5.5z"/><path style="opacity:1" fill="#4e4715" d="M1812.5 1370.5c-.07 1.53.59 2.53 2 3-3.29 4.63-6.96 8.96-11 13-1.41-.47-2.07-1.47-2-3 2.51-5.38 6.18-9.72 11-13z"/><path style="opacity:1" fill="#de7024" d="M2412.5 1378.5c1.27.59 2.6 1.09 4 1.5l30 24c3.1 2.03 4.76 4.86 5 8.5-21.04 22.87-41.54 46.2-61.5 70-1.45 1.96-3.28 3.3-5.5 4 .2-2.49-.3-4.82-1.5-7a1120.625 1120.625 0 0 0-76.5-61.5c-4.26-1.85-8.6-3.01-13-3.5 28.47-3.53 56.13-10.37 83-20.5 11.9-5.41 23.9-10.58 36-15.5z"/><path style="opacity:1" fill="#92800c" d="M1801.5 1383.5c-.07 1.53.59 2.53 2 3-2.42 3.92-5.42 7.42-9 10.5-.83.69-1.5.52-2-.5 1.89-5.2 4.89-9.54 9-13z"/><path style="opacity:1" fill="#e07325" d="M2088.5 1386.5c66.06 25.37 134.39 34.71 205 28 4.4.49 8.74 1.65 13 3.5 26.37 19.36 51.87 39.86 76.5 61.5 1.2 2.18 1.7 4.51 1.5 7-.84 3.02-2.34 5.68-4.5 8-17.52 21.74-35.02 43.4-52.5 65 .41-2.15.91-4.15 1.5-6-70.17-61.69-147-113.86-230.5-156.5-3.17-2.5-6.33-5-9.5-7.5-.48-.95-.65-1.95-.5-3z"/><path style="opacity:1" fill="#e87e29" d="M2271.5 1642.5a4947.706 4947.706 0 0 1-49 81c-.12-1.98.55-3.65 2-5-97.33-87.72-207.67-155.22-331-202.5-7.76-3.26-15.76-5.26-24-6-2.24 3.05-4.57 5.89-7 8.5 4.31-6.5 8.48-13.17 12.5-20 15.91-20.58 32.58-40.58 50-60 1.77-1.47 3.61-2.8 5.5-4 4.28-1.04 8.61-1.21 13-.5 81.09 31.87 157.09 72.53 228 122a947.617 947.617 0 0 1 100.5 78.5c.37.92.87 1.75 1.5 2.5-1.66 1.44-2.32 3.28-2 5.5z"/><path style="opacity:1" fill="#e57a28" d="M4836.5 2314.5c2.27 8.62 4.44 17.28 6.5 26a1883.703 1883.703 0 0 1 29.5 269.5c-.05 22.99-.05 45.99 0 69-.78 14.82-1.28 29.65-1.5 44.5a49.708 49.708 0 0 0-2.5 14.5c.86 6.82 1.02 13.66.5 20.5-3.91 32.31-7.58 64.65-11 97a12.74 12.74 0 0 1-3 6c-5.42 41.52-14.08 82.19-26 122-.33 3.33-.67 6.67-1 10-3.15 3.71-4.31 8.04-3.5 13-.65.3-1.32.64-2 1-.83 4-1.67 8-2.5 12l-2 2c-.14 4.43-1.48 8.43-4 12-.33 2.67-.67 5.33-1 8l-2 2-6 22c-2.05 2.2-3.05 4.87-3 8-1.77 3.64-3.44 7.31-5 11 .13 3.96-1.21 7.3-4 10-3.74 11.04-7.41 22.04-11 33a98.12 98.12 0 0 0-5 9c-.33 2-.67 4-1 6-3.83 7.88-7.83 15.54-12 23-2.99 8.49-6.33 16.82-10 25a96.872 96.872 0 0 0-10 20c-1.28 2.25-2.78 4.25-4.5 6 .48-9.57 2.98-18.57 7.5-27a2221.77 2221.77 0 0 0 36-126c63.17-294.84 25.83-576.51-112-845-130.96-242.63-320.8-423.46-569.5-542.5-66.34-30-134.67-54.67-205-74-35.87-8.45-71.87-16.12-108-23-301.12-48.04-582.79 5.63-845 161-232.18 144.13-400.34 342.63-504.5 595.5-89.39 229.14-110.05 464.47-62 706 55.29 252.16 175.45 467 360.5 644.5 55.66 51.68 115.33 98.02 179 139a53.87 53.87 0 0 1 6 6.5 1330.835 1330.835 0 0 1-78-33.5 771.052 771.052 0 0 1-47-23.5c-88.16-45.71-170.83-99.54-248-161.5-21-17.67-42-35.33-63-53-4.54-4.37-8.87-8.87-13-13.5a39.37 39.37 0 0 0-4.5-11c-50.6-74.5-92.93-153.84-127-238-108.71-270.77-129.04-547.44-61-830 44.6-171.17 118.6-327.84 222-470 77.31-103.64 167.14-195.14 269.5-274.5 42.3-30.16 85.64-58.82 130-86 245.95-141.65 510.62-201.98 794-181 317 32.11 590.33 157.11 820 375 38.64 39.3 75.81 79.8 111.5 121.5a1647.21 1647.21 0 0 1 103 149c36.65 61.3 67.98 125.3 94 192 3.35 7.38 7.19 14.38 11.5 21z"/><path style="opacity:1" fill="#ee862c" d="M2222.5 1723.5a3393.234 3393.234 0 0 1-34.5 67c-.71.88-1.54 1.55-2.5 2 .18-3.53 1.51-6.53 4-9l-1.5-3c-102.86-95.84-221.36-166.51-355.5-212-.5 2.27-1.84 3.6-4 4a585.83 585.83 0 0 1 15.5-28c6.45-8.59 12.61-17.26 18.5-26 2.43-2.61 4.76-5.45 7-8.5 8.24.74 16.24 2.74 24 6 123.33 47.28 233.67 114.78 331 202.5-1.45 1.35-2.12 3.02-2 5z"/><path style="opacity:1" fill="#ffc000" d="M1425.5 1544.5c24.01-1.42 39.84 9.25 47.5 32-.22 20.9-10.39 34.4-30.5 40.5-33.05 1.28-49.22-14.55-48.5-47.5 3.47-11.47 10.97-18.97 22.5-22.5 3.13-.84 6.13-1.67 9-2.5z"/><path style="opacity:1" fill="#ea802a" d="M4739.5 3216.5c-.65 4.3-2.15 8.3-4.5 12-77.64 144.93-179.47 270.77-305.5 377.5-88.94 74.16-185.94 136.5-291 187a2356.015 2356.015 0 0 1-84 37 37.539 37.539 0 0 1-13 3.5c4.35-2.16 8.35-5 12-8.5 202.33-93.66 364.5-233.83 486.5-420.5 165.88-266.23 216.55-552.89 152-860-36.87-163.03-105.87-310.36-207-442-6.42-12.1-14.76-22.77-25-32-154.15-185.57-347.98-311.07-581.5-376.5-220.93-57.49-440.27-50.83-658 20-143.07 48.99-271.4 122.32-385 220-209.71 187.52-336.88 421.02-381.5 700.5a7950.6 7950.6 0 0 1-6.5 59.5c.39 3.33.73 6.66 1 10a679.82 679.82 0 0 0-3 32.5c-.18 11.19-.18 22.36 0 33.5-2.59 3.92-5.92 7.25-10 10 1.84 294.98 99 553.15 291.5 774.5 124.17 137.11 272.67 239.27 445.5 306.5 97.28 36.71 197.61 60.04 301 70 4.81 1.25 9.48 2.75 14 4.5 2.99-.12 5.82-.79 8.5-2 5.6 3.66 11.43 3.99 17.5 1 2.72.46 5.38 1.13 8 2 2.79-1.1 5.62-2.1 8.5-3 3.56 1.41 7.23 2.41 11 3 7.32-1.11 14.65-2.11 22-3 3.32.55 6.49 1.22 9.5 2-4.07 2.3-8.4 2.63-13 1a534.037 534.037 0 0 1-41 2.5c-28 .67-56 .67-84 0-7.1-1.71-14.27-1.88-21.5-.5a419.91 419.91 0 0 1-25.5-3c-6.32.99-12.65 1.15-19 .5-44.32-5.08-88.66-10.08-133-15a172.22 172.22 0 0 0-40-7c-2.68-.25-5.01-1.25-7-3-5.7-.37-11.37-1.03-17-2-25.1-5.53-50.1-11.53-75-18a1446.9 1446.9 0 0 1-174-59.5 53.87 53.87 0 0 0-6-6.5c-63.67-40.98-123.34-87.32-179-139-185.05-177.5-305.21-392.34-360.5-644.5-48.05-241.53-27.39-476.86 62-706 104.16-252.87 272.32-451.37 504.5-595.5 262.21-155.37 543.88-209.04 845-161 36.13 6.88 72.13 14.55 108 23 70.33 19.33 138.66 44 205 74 248.7 119.04 438.54 299.87 569.5 542.5 137.83 268.49 175.17 550.16 112 845a2221.77 2221.77 0 0 1-36 126c-4.52 8.43-7.02 17.43-7.5 27z"/><path style="opacity:1" fill="#ef892d" d="M1252.5 1634.5c.43-5.68.6-11.34.5-17-1.73-1.08-3.56-1.24-5.5-.5-36.65 11.17-71.98 25.33-106 42.5 12.07-34.65 32.41-63.48 61-86.5 6.04-3.77 12.54-6.27 19.5-7.5 4.08.41 7.91 1.58 11.5 3.5 23.07 17.04 29.4 38.87 19 65.5z"/><path style="opacity:1" fill="#f18b2e" d="M2185.5 1792.5c-.19 2.06-.69 4.06-1.5 6a361.13 361.13 0 0 0-24 51c-2.02 4.72-4.52 9.06-7.5 13 .16-2.03 0-4.03-.5-6-1.67-2.33-3.33-4.67-5-7-97.09-93.5-209.92-162-338.5-205.5-5.37-1.51-10.7-2.01-16-1.5a61.15 61.15 0 0 1 3.5-10c9.96-20.6 20.79-40.6 32.5-60 2.16-.4 3.5-1.73 4-4 134.14 45.49 252.64 116.16 355.5 212l1.5 3c-2.49 2.47-3.82 5.47-4 9z"/><path style="opacity:1" fill="#cc661e" d="M4545.5 1613.5c2.92-.04 5.59.79 8 2.5 10.81 9.9 21.81 19.57 33 29 84.86 74.5 160.02 157.33 225.5 248.5a1711.3 1711.3 0 0 1 46 64c20.25 32.83 40.25 65.83 60 99 165.13 308.09 221.79 634.76 170 980-26.25 155.42-74.92 303.42-146 444-143.03 276.69-350.19 491.53-621.5 644.5-311.41 167.62-641.74 224.29-991 170-88.74-15.94-175.74-38.94-261-69-245.94-89.74-455.78-231.9-629.5-426.5-203.09-233.28-326.09-504.28-369-813-.61-4.04-.44-8.04.5-12 2 1.17 3.5 2.84 4.5 5 25.94 62.54 55.6 123.21 89 182 .67.75 1.5 1.09 2.5 1 1.6 5.2 3.76 10.2 6.5 15 25.86 44.42 54.2 87.08 85 128 8 11.33 16 22.67 24 34 16.71 20.38 33.05 41.05 49 62a50.12 50.12 0 0 0 9 7c5.67 7.33 11.33 14.67 17 22a618.763 618.763 0 0 1 28 31c12.1 11.59 23.6 23.59 34.5 36 .65 4.45 1.82 8.78 3.5 13 99.59 158.32 226.09 291.49 379.5 399.5 206.31 142.45 434.98 222.78 686 241 280.49 18.13 542.15-43.21 785-184 246.12-147.46 429.95-351.3 551.5-611.5 76.46-172.52 116.96-352.85 121.5-541 2.6-199.84-36.23-391.17-116.5-574-2.96-6.94-7.12-12.94-12.5-18a495.96 495.96 0 0 1-8.5-30l-2-2c-1.67-7.67-3.33-15.33-5-23a881.42 881.42 0 0 1-19-63c-14.47-40.16-28.8-80.5-43-121-3.7-7.55-7.2-15.21-10.5-23-5.06-12-9.22-24.33-12.5-37l-3-3c-2.58-8.01-5.92-15.68-10-23-.67-2.67-1.33-5.33-2-8-14.32-30.46-28.82-60.8-43.5-91-2.55-3.97-5.05-7.97-7.5-12-4.37-9.74-9.03-19.4-14-29l-3-3c-2-4.67-4-9.33-6-14l-4-4c-.55-3.66-2.21-6.66-5-9-3-5.67-6-11.33-9-17-7.74-11.81-15.74-23.47-24-35-.33-1.33-.67-2.67-1-4a70.94 70.94 0 0 1-11-17c-5.57-5.47-9.9-11.8-13-19-6.19-6.68-11.36-14.01-15.5-22z"/><path style="opacity:1" fill="#f48f2f" d="M1252.5 1634.5c-.53 5.46-1.7 10.79-3.5 16a367.728 367.728 0 0 1-14.5 38c.54-4.85-1.46-7.02-6-6.5a928.781 928.781 0 0 0-99 43c-1.2.9-2.03 2.07-2.5 3.5-.42 3.89-1.25 7.56-2.5 11 1.26-25.57 5.76-50.57 13.5-75 .7-2.08 1.86-3.75 3.5-5 34.02-17.17 69.35-31.33 106-42.5 1.94-.74 3.77-.58 5.5.5.1 5.66-.07 11.32-.5 17z"/><path style="opacity:1" fill="#f69130" d="M2152.5 1862.5c-7.21 19.4-15.21 38.4-24 57-98.08-102.43-215.08-175.59-351-219.5-3.57-.85-6.91-.35-10 1.5a98.899 98.899 0 0 1 7.5-22c4.67-10.67 9.33-21.33 14-32 .7-2.08 1.86-3.75 3.5-5 5.3-.51 10.63-.01 16 1.5 128.58 43.5 241.41 112 338.5 205.5 1.67 2.33 3.33 4.67 5 7 .5 1.97.66 3.97.5 6z"/><path style="opacity:1" fill="#ec842b" d="M4041.5 3833.5c-16.02 7.36-32.69 13.53-50 18.5-1.5 1.25-3.17 2.25-5 3-128.31 43.23-259.81 70.06-394.5 80.5-2.2-.15-4.36-.48-6.5-1-1.74.9-3.57 1.57-5.5 2-2.46-.66-4.96-.99-7.5-1-3.01-.78-6.18-1.45-9.5-2-7.35.89-14.68 1.89-22 3-3.77-.59-7.44-1.59-11-3-2.88.9-5.71 1.9-8.5 3a53.79 53.79 0 0 0-8-2c-6.07 2.99-11.9 2.66-17.5-1a22.664 22.664 0 0 1-8.5 2c-4.52-1.75-9.19-3.25-14-4.5-103.39-9.96-203.72-33.29-301-70-172.83-67.23-321.33-169.39-445.5-306.5-192.5-221.35-289.66-479.52-291.5-774.5 4.08-2.75 7.41-6.08 10-10-.18-11.14-.18-22.31 0-33.5a679.82 679.82 0 0 1 3-32.5c-.27-3.34-.61-6.67-1-10a7950.6 7950.6 0 0 0 6.5-59.5c44.62-279.48 171.79-512.98 381.5-700.5 113.6-97.68 241.93-171.01 385-220 217.73-70.83 437.07-77.49 658-20 233.52 65.43 427.35 190.93 581.5 376.5 10.24 9.23 18.58 19.9 25 32 101.13 131.64 170.13 278.97 207 442 64.55 307.11 13.88 593.77-152 860-122 186.67-284.17 326.84-486.5 420.5-3.65 3.5-7.65 6.34-12 8.5z"/><path style="opacity:1" fill="#f79331" d="M1234.5 1688.5a592.488 592.488 0 0 1-17 52c-.77-.76-1.27-1.76-1.5-3-.72-.56-1.56-.89-2.5-1-31.4 12.53-61.74 27.53-91 45-.46-13.98.2-27.98 2-42 1.25-3.44 2.08-7.11 2.5-11 .47-1.43 1.3-2.6 2.5-3.5a928.781 928.781 0 0 1 99-43c4.54-.52 6.54 1.65 6 6.5z"/><path style="opacity:1" fill="#ef872d" d="M3545.5 1688.5c264.09-5.69 501.09 70.81 711 229.5 210.34 165.26 345.5 379.1 405.5 641.5 26.5 129.27 31.16 259.27 14 390-41.41 258.37-156.91 476.54-346.5 654.5-134.94 122.67-291.27 207.67-469 255-257.52 64.61-506.85 41.61-748-69-191.84-91.83-345.67-227-461.5-405.5-145.61-234.36-199.27-488.36-161-762 45.22-264 167.05-484.84 365.5-662.5 151.41-129.86 325.75-214.2 523-253 55.4-10.03 111.07-16.19 167-18.5z"/><path style="opacity:1" fill="#e67b28" d="M725.5 1741.5c-2.473-4.27-4.973-8.6-7.5-13-56.55 60.13-105.55 125.8-147 197-4.188 5.73-8.354 11.4-12.5 17 18.26-79.95 43.093-157.95 74.5-234a28.757 28.757 0 0 0 2.5-11c28.983-9.35 54.483-3.35 76.5 18 3 4.67 6 9.33 9 14a86.545 86.545 0 0 1 4.5 12z"/><path style="opacity:1" fill="#d16c20" d="M635.5 1697.5a28.757 28.757 0 0 1-2.5 11c-31.407 76.05-56.24 154.05-74.5 234-3.166 7.99-4.999 16.32-5.5 25-1.527 1.72-2.527 3.72-3 6a358.102 358.102 0 0 0-8 52 22.694 22.694 0 0 0-3 7 8534.552 8534.552 0 0 1-16.5 143c-.139 2.38.528 4.38 2 6-.88 9.34-1.88 18.68-3 28a221.002 221.002 0 0 1-3.5 20 274.115 274.115 0 0 0-10 35c-54.923 275.8-9.256 533.8 137 774 122.98 191.63 290.147 330.13 501.5 415.5 107.13 42.74 218.3 66.24 333.5 70.5 171.73 9.15 335.57-22.85 491.5-96a11.65 11.65 0 0 0 2-5c6.94 24.7 14.11 49.7 21.5 75a3322.73 3322.73 0 0 1 33.5 97c-.72 2.56-2.39 4.39-5 5.5-241.16 103.81-490.49 129.81-748 78-242.81-54.68-451.314-170.18-625.5-346.5-22.305-24.97-44.638-49.97-67-75-182.28-229.11-274.446-491.27-276.5-786.5.613-4.18 1.279-8.34 2-12.5-.255-12.67-.589-25.33-1-38a246.32 246.32 0 0 0 4-52.5 1317.65 1317.65 0 0 1 4.5-41.5 232.675 232.675 0 0 0 8-48 1353.46 1353.46 0 0 1 54-204 16.6 16.6 0 0 1 2.5-4c4.618-.72 9.285-1.22 14-1.5.916-.28 1.582-.78 2-1.5 17.042-2.85 33.375-8.02 49-15.5 3.287-1.47 5.954-3.63 8-6.5 18.198-10.37 34.031-23.71 47.5-40 30.604-38.48 45.271-82.48 44-132-8.694-43.07-3.028-84.07 17-123 16.692-28.59 41.192-46.25 73.5-53z"/><path style="opacity:1" fill="#f79736" d="M2128.5 1919.5c-2.6 9.18-6.26 17.85-11 26-98.35-106.72-217.35-181.39-357-224 .65-7.29 2.98-13.95 7-20 3.09-1.85 6.43-2.35 10-1.5 135.92 43.91 252.92 117.07 351 219.5z"/><path style="opacity:1" fill="#f59b3d" d="M1760.5 1721.5c139.65 42.61 258.65 117.28 357 224a91.991 91.991 0 0 1-9 24c-1.14-5.28-3.64-9.94-7.5-14-78.47-82.67-170.3-146.17-275.5-190.5-22.18-9.5-44.84-17.17-68-23-1.48.66-2.82 1.5-4 2.5-.16-2.03 0-4.03.5-6 2.16-5.8 4.33-11.47 6.5-17z"/><path style="opacity:1" fill="#e87e29" d="M725.5 1741.5c3.802 7.09 6.302 14.76 7.5 23 3.169 20.7 3.169 41.36 0 62-.2 1.82-1.034 3.15-2.5 4a187.11 187.11 0 0 0 1.5-28c-1.507-1.03-3.007-.87-4.5.5-89.036 104.52-155.536 222.35-199.5 353.5-1.134 8.39-2.301 16.72-3.5 25-1.472-1.62-2.139-3.62-2-6a8534.552 8534.552 0 0 0 16.5-143 22.694 22.694 0 0 1 3-7 358.102 358.102 0 0 1 8-52c.473-2.28 1.473-4.28 3-6 .501-8.68 2.334-17.01 5.5-25 4.146-5.6 8.312-11.27 12.5-17 41.45-71.2 90.45-136.87 147-197 2.527 4.4 5.027 8.73 7.5 13z"/><path style="opacity:1" fill="#f28b2e" d="M3561.5 1735.5c243.84-1.66 463.51 69.84 659 214.5 161.39 124.08 278.56 281.25 351.5 471.5 76.09 208.21 87.42 419.54 34 634-75.05 271.25-230.55 482.42-466.5 633.5-200.31 120.83-417.31 172.66-651 155.5-282.83-30.82-518.33-151.82-706.5-363-146.85-172.98-231.18-373.32-253-601-18.93-259.31 46.4-494.97 196-707 67.83-91.83 147.67-171.67 239.5-239.5 178.83-125.55 377.83-191.72 597-198.5z"/><path style="opacity:1" fill="#f69939" d="M1217.5 1740.5c-3.3 12.71-6.97 25.37-11 38-1.26-1.84-2.92-3.18-5-4-2.33.83-4.66 1.66-7 2.5a3167.193 3167.193 0 0 0-67 35c-1.8 1.81-3.47 3.65-5 5.5a183.493 183.493 0 0 1 0-36c29.26-17.47 59.6-32.47 91-45 .94.11 1.78.44 2.5 1 .23 1.24.73 2.24 1.5 3z"/><path style="opacity:1" fill="#f59d41" d="M2108.5 1969.5c-2.11 6.53-4.45 12.87-7 19-71.21-81.47-155.88-145.3-254-191.5a1965.525 1965.525 0 0 0-98-38.5c-.46-5.28.87-9.94 4-14 1.18-1 2.52-1.84 4-2.5 23.16 5.83 45.82 13.5 68 23 105.2 44.33 197.03 107.83 275.5 190.5 3.86 4.06 6.36 8.72 7.5 14z"/><path style="opacity:1" fill="#f3a148" d="M1749.5 1758.5c32.92 11.92 65.59 24.76 98 38.5 98.12 46.2 182.79 110.03 254 191.5-2.94 9.14-6.27 18.14-10 27-92.07-108.26-206.07-184.42-342-228.5-2.65-.5-5.31-.66-8-.5.98-7.44 2.48-14.77 4.5-22 .94-2.23 2.11-4.23 3.5-6z"/><path style="opacity:1" fill="#f39d42" d="M1206.5 1778.5c-4.76 18.56-9.09 37.22-13 56-.82-4.15-1.32-8.48-1.5-13-1.73-1.08-3.56-1.24-5.5-.5-21.41 10.36-41.74 22.19-61 35.5a166.484 166.484 0 0 1-3-39c1.53-1.85 3.2-3.69 5-5.5 22.14-11.91 44.48-23.57 67-35 2.34-.84 4.67-1.67 7-2.5 2.08.82 3.74 2.16 5 4z"/><path style="opacity:1" fill="#f2a54f" d="M1741.5 1786.5c2.69-.16 5.35 0 8 .5 135.93 44.08 249.93 120.24 342 228.5a285.285 285.285 0 0 1-11 31c-86.13-104.94-193.13-180.44-321-226.5a93.087 93.087 0 0 0-26-6.5c.89-7.11 2.39-14.11 4.5-21 .93-2.19 2.09-4.19 3.5-6z"/><path style="opacity:1" fill="#f48e2f" d="M3562.5 1787.5c206.24-2.2 395.91 52.3 569 163.5 3.72 2.53 7.72 4.53 12 6 6.59 7.57 14.59 13.24 24 17 3.36 5.85 8.36 9.52 15 11 1.29 2.29 2.96 4.29 5 6 8.8 6.57 17.8 12.9 27 19 9.45 8.91 19.12 17.57 29 26 1 .33 2 .67 3 1 1.63 2.63 3.63 4.96 6 7 3.13 2.61 6.46 5.11 10 7.5 1.53 3.7 4.2 6.2 8 7.5 1.53 3.7 4.2 6.2 8 7.5 1.86 4.03 4.86 6.86 9 8.5 5.67 6.33 11.33 12.67 17 19 4.49 2.83 7.99 6.66 10.5 11.5 7.7 5.04 13.7 11.71 18 20 4.53 2.52 8.36 5.85 11.5 10 16.93 22.43 34.43 44.43 52.5 66 4.09 8.45 9.43 16.11 16 23 2.09 5.77 5.42 10.77 10 15 .9 5.46 3.56 9.8 8 13 .88 5.43 3.55 9.76 8 13 .46 4.25 2.46 7.59 6 10 2.48 7.63 6.48 14.3 12 20 .32 4.33 2.32 7.66 6 10 5.78 15.9 13.45 30.9 23 45-.12 3.42 1.21 6.09 4 8-.22 4.55 1.44 8.22 5 11 .28 5.17 2.28 9.51 6 13 .36 5.38 2.36 10.05 6 14 1.1 7.85 4.1 14.85 9 21a603.375 603.375 0 0 0 21 58c2.4 13.2 6.4 25.86 12 38a4783.24 4783.24 0 0 1 21 94c12.01 63.43 17.84 127.43 17.5 192-2.32 114.07-22.15 225.07-59.5 333a1769.317 1769.317 0 0 1-56 126c-15.38 27.66-31.05 55-47 82a644.548 644.548 0 0 0-35 49c-27.64 35.6-56.47 69.77-86.5 102.5-7.22 4.22-12.72 10.05-16.5 17.5-6.44 2.78-11.28 7.28-14.5 13.5-6.95 3.28-12.28 8.28-16 15-9.89 5.89-18.56 13.22-26 22a1387.469 1387.469 0 0 0-56 45c-8.4 3.72-15.74 9.05-22 16-7.01 2.31-13.01 6.31-18 12-6.31 1.3-11.31 4.63-15 10-5.43.88-9.76 3.55-13 8-4.25.46-7.59 2.46-10 6-4.35.36-7.68 2.36-10 6-2.45.29-4.79.96-7 2-3.4 3.09-7.06 5.75-11 8-6.67 1.17-12.34 4.17-17 9a1915.597 1915.597 0 0 1-119 52c-249.21 88.82-496.21 83.48-741-16-207.86-90.19-369.02-233.03-483.5-428.5-129.02-233.81-163.35-480.81-103-741 37.19-143.71 101.52-272.37 193-386 3.66-1.48 5.5-4.15 5.5-8 1.89.2 3.39-.46 4.5-2 3.99-5.16 7.82-10.5 11.5-16 3.71-3.08 7.21-6.42 10.5-10 .49-1.29.66-2.63.5-4 4.57-.74 7.41-3.4 8.5-8 6.69-3.86 11.86-9.19 15.5-16 4.61-1.92 7.27-5.26 8-10 4.82-.5 7.65-3.17 8.5-8 2.25-1.88 4.75-3.38 7.5-4.5 2-6 6-10 12-12 4.14-7.47 10.14-12.81 18-16 2.43-2.2 4.1-4.86 5-8 9.77-8.44 20.1-16.1 31-23 3.19-4.7 6.86-9.04 11-13 3.22-1.64 6.55-2.97 10-4a688.362 688.362 0 0 0 32.5-27.5l1 1c1.4-.73 2.9-1.23 4.5-1.5 4.51-4.84 9.34-9.34 14.5-13.5 1.77.78 3.6.61 5.5-.5l7-7c3.33-1.33 6.67-2.67 10-4 1.48-2.44 3.31-4.61 5.5-6.5 4.67.58 8.17-1.42 10.5-6a93.27 93.27 0 0 0 18-8.5l5-5c7.18-1.26 13.18-4.59 18-10 8.74-2.53 16.41-6.87 23-13 7.41-1.37 14.08-4.37 20-9 3.42.12 6.09-1.21 8-4 3.52-.4 6.85-1.4 10-3 76.6-36.3 157.6-62.3 243-78 53.39-9.64 107.06-15.14 161-16.5z"/><path style="opacity:1" fill="#ec832b" d="M730.5 1830.5a28.757 28.757 0 0 1-2.5 11 15064.343 15064.343 0 0 1-71 147 850.757 850.757 0 0 0-54 144 225.296 225.296 0 0 0-3.5 49c-.617-.11-1.117-.44-1.5-1a42.834 42.834 0 0 0-1.5-9 7.248 7.248 0 0 0-2.5 2 1165.048 1165.048 0 0 0-34 130l-2 20a92.983 92.983 0 0 0-5 22c-4.321 31.9-7.321 63.9-9 96-.904 3.87-2.07 7.54-3.5 11a967.302 967.302 0 0 1-8.5-44 1921.7 1921.7 0 0 1-10.5-138c.179-20.4.179-40.73 0-61 1.12-9.32 2.12-18.66 3-28 1.199-8.28 2.366-16.61 3.5-25 43.964-131.15 110.464-248.98 199.5-353.5 1.493-1.37 2.993-1.53 4.5-.5a187.11 187.11 0 0 1-1.5 28z"/><path style="opacity:1" fill="#f69130" d="M3578.5 1810.5c182.42.98 352.09 47.81 509 140.5 216.16 132.99 361.66 321.16 436.5 564.5 35.19 121.89 47.03 245.89 35.5 372 .02 3.58.35 7.08 1 10.5-14.31 103.62-42.48 203.46-84.5 299.5-73.83 158.83-181.66 289.66-323.5 392.5-206.24 142.32-434.58 201.32-685 177-269.44-37.79-489.27-161.62-659.5-371.5a5129.776 5129.776 0 0 1-55-79c-133.82-217.43-179.48-452.09-137-704 51.9-253.33 180.4-457.5 385.5-612.5 172.35-122.84 364.68-186 577-189.5z"/><path style="opacity:1" fill="#f0ac5a" d="M1733.5 1813.5c8.98.91 17.64 3.08 26 6.5 127.87 46.06 234.87 121.56 321 226.5-7.67 21.95-14.67 43.95-21 66-.19-3.12-.36-6.46-.5-10-84.96-115.88-196.13-196.05-333.5-240.5-3.53-.66-6.36.51-8.5 3.5-.4-.23-.57-.56-.5-1 4.39-12.79 8.22-25.79 11.5-39 1.61-4.21 3.44-8.21 5.5-12z"/><path style="opacity:1" fill="#f1a44d" d="M1193.5 1834.5c-.28.79-.78 1.46-1.5 2a2376.92 2376.92 0 0 1-8.5 68c-.66-1.12-.99-2.45-1-4a113.59 113.59 0 0 0 1.5-24c-.72-.56-1.56-.89-2.5-1a1508.55 1508.55 0 0 0-44 26.5c-4.64 3.45-6.97 7.95-7 13.5-2.43-19.57-4.1-39.24-5-59 19.26-13.31 39.59-25.14 61-35.5 1.94-.74 3.77-.58 5.5.5.18 4.52.68 8.85 1.5 13z"/><path style="opacity:1" fill="#fffefd" d="M1303.5 1857.5c4.18-.65 7.02 1.01 8.5 5 5.84 21.04 11.84 42.04 18 63 12.31 34.14 34.15 60.3 65.5 78.5 13.61 5.8 26.94 12.14 40 19 2.67 2.33 2.67 4.67 0 7-47.47 12.84-87.3.68-119.5-36.5-27.87-37.29-34.87-78.29-21-123 1.85-5.05 4.68-9.38 8.5-13z"/><path style="opacity:1" fill="#f89432" d="M3554.5 1859.5c190.29-3.26 366.29 45.24 528 145.5 189.16 123.22 318.99 292.38 389.5 507.5 72.65 239.81 53.98 472.14-56 697-71.16 138.38-169.99 253.21-296.5 344.5-221.78 149.82-464.44 199.82-728 150-221.35-49.87-402.85-162.7-544.5-338.5-150.36-198.72-215.03-422.72-194-672 23.28-189.82 95.61-357.82 217-504 136.59-157.77 307.09-260.6 511.5-308.5 57.26-11.7 114.93-18.87 173-21.5z"/><path style="opacity:1" fill="#eeb062" d="M2059.5 2112.5c-2.03 7.73-4.36 15.4-7 23-82.58-121.34-193.91-205.17-334-251.5-3.17-.51-6.01.33-8.5 2.5-.4-.23-.57-.56-.5-1 .96-7.55 3.3-14.55 7-21-.07.44.1.77.5 1 2.14-2.99 4.97-4.16 8.5-3.5 137.37 44.45 248.54 124.62 333.5 240.5.14 3.54.31 6.88.5 10z"/><path style="opacity:1" fill="#f0ab59" d="M1183.5 1904.5v28c-.77.76-1.27 1.76-1.5 3-3.21-2.51-6.37-2.34-9.5.5-10.32 7.5-20.99 14.5-32 21-2.71 2.63-5.04 5.46-7 8.5a651.747 651.747 0 0 1-3-50c.03-5.55 2.36-10.05 7-13.5 14.54-9.1 29.21-17.93 44-26.5.94.11 1.78.44 2.5 1 .35 8.04-.15 16.04-1.5 24 .01 1.55.34 2.88 1 4z"/><path style="opacity:1" fill="#f89736" d="M3555.5 1878.5c187.77-3.23 361.11 44.94 520 144.5 130.49 85.48 233.65 196.32 309.5 332.5 103.86 195.81 134.86 402.47 93 620-54 240.72-181.5 431.22-382.5 571.5-205.17 134.37-429.17 182.37-672 144-204.66-39.22-377.49-134.72-518.5-286.5-52.65-59.6-97.65-124.6-135-195-62.86-124.27-97.03-256.11-102.5-395.5.75-13.8.75-27.63 0-41.5 7.06-197.37 69.23-375.03 186.5-533 114.36-147.98 260.2-252.48 437.5-313.5 85.97-27.83 173.97-43.66 264-47.5z"/><path style="opacity:1" fill="#edb468" d="M2052.5 2135.5a806.576 806.576 0 0 1-11 38c-1.11-4.82-2.95-9.48-5.5-14-28.82-41.37-61.32-79.87-97.5-115.5-67.8-62.59-146.13-107.76-235-135.5-.93-1.19-1.26-2.52-1-4 1.53-6.7 3.86-13.03 7-19-.07.44.1.77.5 1 2.49-2.17 5.33-3.01 8.5-2.5 140.09 46.33 251.42 130.16 334 251.5z"/><path style="opacity:1" fill="#f79a3b" d="M3569.5 1904.5c152.24-.86 295.91 33.98 431 104.5 66.45 35.72 127.45 79.05 183 130 21.2 20.86 42.03 42.03 62.5 63.5 20.43 26.51 41.09 52.85 62 79 103.21 149.14 157.38 314.8 162.5 497-.05 214.66-66.55 405.66-199.5 573-103.95 124.91-232.12 216.08-384.5 273.5-210.46 73.29-419.8 70.63-628-8-134.65-53.29-249.65-134.12-345-242.5-142.89-167.26-215.89-361.59-219-583 2.93-230.4 81.1-430.74 234.5-601 99.25-105.24 216.75-183.4 352.5-234.5 93.44-32.19 189.44-49.36 288-51.5z"/><path style="opacity:1" fill="#ecb76e" d="M1702.5 1904.5c-.26 1.48.07 2.81 1 4 88.87 27.74 167.2 72.91 235 135.5 36.18 35.63 68.68 74.13 97.5 115.5 2.55 4.52 4.39 9.18 5.5 14a536.916 536.916 0 0 1-12 44c-1.27-5.56-3.44-10.89-6.5-16-77.03-129.83-187.87-217.16-332.5-262 2.84-12.19 6.84-23.86 12-35z"/><path style="opacity:1" fill="#f69d41" d="M3587.5 1922.5c246.77 6.6 455.94 97.93 627.5 274a920.932 920.932 0 0 0 48 54c18.06 25.06 35.72 50.39 53 76 121.9 199.18 160.57 413.52 116 643-42.19 192.3-137.02 352.8-284.5 481.5-150.2 126.2-323.86 195.2-521 207-234.09 8.76-439.75-62.58-617-214-167-149.48-263.84-336.31-290.5-560.5-19.84-208.65 27.5-400.65 142-576 115.16-168.42 270.33-283.58 465.5-345.5 85.29-25.35 172.29-38.52 261-39.5z"/><path style="opacity:1" fill="#ecb164" d="M1183.5 1932.5c.68 19.1 2.34 38.1 5 57-2.52-3.21-5.52-3.71-9-1.5a818.821 818.821 0 0 0-38.5 29.5c-1.9 3.17-3.73 6.17-5.5 9-.58-20.34-1.25-40.67-2-61 1.96-3.04 4.29-5.87 7-8.5 11.01-6.5 21.68-13.5 32-21 3.13-2.84 6.29-3.01 9.5-.5.23-1.24.73-2.24 1.5-3z"/><path style="opacity:1" fill="#eabd78" d="M1690.5 1939.5c144.63 44.84 255.47 132.17 332.5 262 3.06 5.11 5.23 10.44 6.5 16-7.74 30.23-15.07 60.56-22 91-.79-4.2-1.63-8.54-2.5-13-22.12-51.63-50.79-98.96-86-142-66.27-75.82-147.61-128.82-244-159-2.51.34-4.68 1.34-6.5 3 5.35-14.42 10.52-29.09 15.5-44 1.92-4.84 4.09-9.51 6.5-14z"/><path style="opacity:1" fill="#f4a147" d="M3584.5 1948.5c9.51.98 19.01.98 28.5 0 160.95 8.1 308.45 56.6 442.5 145.5 174.02 120.45 288.52 283.28 343.5 488.5 49.56 198.48 30.56 390.14-57 575-58.55 119.21-140.05 220.04-244.5 302.5a1825.11 1825.11 0 0 1-83 55c-137.74 80.48-286.57 120.31-446.5 119.5-208.46-7.04-390.96-78.54-547.5-214.5-152.7-139.2-244.2-311.7-274.5-517.5-24.74-201.03 15.93-387.7 122-560 116.52-179.43 277.69-299.93 483.5-361.5 76.37-21.25 154.04-32.09 233-32.5z"/><path style="opacity:1" fill="#f3a349" d="M3587.5 1970.5c203.42 4.94 382.08 73.1 536 204.5 143.16 127.75 232.32 286.58 267.5 476.5 10.97 61.61 14.97 123.61 12 186-15.25 206.28-94.42 383.45-237.5 531.5a2242.443 2242.443 0 0 1-59 54 1320.391 1320.391 0 0 1-86 63c-5.64 2.96-11.31 5.96-17 9-2.75 3.04-6.08 5.04-10 6a70.842 70.842 0 0 1-18 10 21.638 21.638 0 0 1-6 5 1595.046 1595.046 0 0 1-74.5 34.5c-2.79-1.28-4.96-.45-6.5 2.5-21.05 8.36-42.22 15.53-63.5 21.5a67.173 67.173 0 0 0-15.5 5.5c-6.36.47-12.19 2.3-17.5 5.5-7.03-.23-13.7 1.43-20 5-3.22-.22-6.39-.22-9.5 0-1.83.75-3.5 1.75-5 3-3.21-.12-6.38-.12-9.5 0-2.2 2.74-4.87 3.4-8 2-3.79 1.29-7.62 2.62-11.5 4-4.19-.86-8.19-.86-12 0-1.63.47-2.8 1.47-3.5 3-1.4-.62-2.9-.95-4.5-1-4.75.96-9.59 1.96-14.5 3-3.04-1.57-5.54-.91-7.5 2-2.54-.62-5.04-1.28-7.5-2-1.69.68-3.19 1.68-4.5 3-5.54-.25-11.04-.25-16.5 0-2.42-.02-4.59.65-6.5 2-1.81-.47-3.64-.81-5.5-1-6.06.87-12.06 1.87-18 3-3.33-.67-6.67-1.33-10-2-4.8 2.23-9.8 2.57-15 1-6.2 2.04-12.53 2.04-19 0-2.06 1.46-4.39 2.13-7 2-5.35-.52-10.69-1.19-16-2-2 .67-4 1.33-6 2-10.18-1.22-20.35-2.56-30.5-4-2.42.9-4.92 1.57-7.5 2-18.82-2.31-37.65-4.48-56.5-6.5l-3-3c-11.02-.98-22.02-2.15-33-3.5-3.02-.38-5.52-1.71-7.5-4-.41.46-.91.79-1.5 1-4.99-.8-9.99-1.63-15-2.5l-2-2c-5.33-.67-10.67-1.33-16-2-1.53-2.2-3.36-3.03-5.5-2.5-3.08-.79-6.24-1.29-9.5-1.5a8.95 8.95 0 0 0-4-3c-5.54.3-10.38-1.2-14.5-4.5-.41.46-.91.79-1.5 1-1.94-.69-3.94-1.19-6-1.5-2.24-2.58-4.91-3.42-8-2.5-2.24-.77-4.24-1.94-6-3.5-4.89.17-9.06-1.33-12.5-4.5-2.44.79-4.94.62-7.5-.5-3.39-1.58-6.73-3.24-10-5-5.67-1.67-11.33-3.33-17-5a97.574 97.574 0 0 1-8-5c-4.6.31-8.43-1.19-11.5-4.5l-1 1c-1.31-.81-2.48-1.81-3.5-3-7.21-2.28-13.88-5.45-20-9.5-8.19-3.73-16.52-7.06-25-10l-17-11c-4.86.13-8.53-1.87-11-6-5.97-1.63-11.3-4.63-16-9-2.87-2.43-6.2-3.77-10-4a492.327 492.327 0 0 0-48-31 543.975 543.975 0 0 0-22-17.5c-4.81-2.2-8.81-5.37-12-9.5-2.23-.56-4.23-1.56-6-3a644.278 644.278 0 0 0-33-28 26927.3 26927.3 0 0 0-34-32c-3.55-4.89-7.72-9.05-12.5-12.5a309.964 309.964 0 0 1-27-32 352.777 352.777 0 0 1-33-38 1115.18 1115.18 0 0 1-46-66c-.62-.95-.45-1.78.5-2.5-4.08-3.74-6.92-8.24-8.5-13.5a21.638 21.638 0 0 1-5-6c-3.12-7.57-6.79-14.9-11-22l-3-3-15-30a36.487 36.487 0 0 1-3-10c-2.56-2.31-4.39-5.14-5.5-8.5l1-1c-1.4-2.53-3.07-4.86-5-7l1-1a51.079 51.079 0 0 1-4.5-11.5l-3-3c-6.95-21-14.62-42.33-23-64-.33-2.33-.67-4.67-1-7l-9-27c-1.49-9.4-3.99-18.73-7.5-28 .43-.79.76-1.63 1-2.5a69.984 69.984 0 0 0-4-11l1-1c-.83-1.75-1.83-3.41-3-5-.78-4.01-.78-8.17 0-12.5-.47-1.63-1.47-2.8-3-3.5.68-3.63.68-7.13 0-10.5-.63-1.76-1.63-3.26-3-4.5.61-1.23.94-2.56 1-4-.86-4.59-1.86-9.25-3-14 1.45-3.13.78-5.79-2-8 .29-5.19.29-10.35 0-15.5-2.27-3.09-2.6-6.43-1-10-.43-2.25-1.1-4.42-2-6.5-.73-5.23-.73-10.57 0-16a14.76 14.76 0 0 1-2-7c-.23-6.78-.23-13.62 0-20.5-2.22-4.88-2.22-9.88 0-15a8.95 8.95 0 0 0-3-4c.85-4.45 1.51-8.95 2-13.5.02-2.42-.65-4.59-2-6.5.81-4.98 1.48-9.98 2-15a20.69 20.69 0 0 0-2-6c1.44-10.16 2.78-20.33 4-30.5-1.39-1.72-2.06-3.72-2-6 2.65-21.82 5.15-43.65 7.5-65.5a8.95 8.95 0 0 0 3-4c.93-9.34 1.93-18.67 3-28 .26-2.12 1.26-3.78 3-5 .67-6 1.33-12 2-18 .26-2.12 1.26-3.78 3-5 .33-3.33.67-6.67 1-10 .11-2.47 1.11-4.47 3-6 .62-8.91 2.45-17.41 5.5-25.5.27-1.61 1.1-2.77 2.5-3.5-.32-4.94 1.01-9.27 4-13 .18-3.05.68-6.05 1.5-9 2.59-1.66 3.26-3.83 2-6.5a419 419 0 0 1 8-18.5c-.75-2.99.09-5.66 2.5-8 .19-2.4.69-4.73 1.5-7 1.34-3.82 3.34-7.32 6-10.5-1.02-1.05-1.18-2.22-.5-3.5 2.29-3.19 4.29-6.53 6-10 .33-2.33.67-4.67 1-7 3.63-5.56 6.79-11.39 9.5-17.5-1.15-2.08-.48-3.58 2-4.5 1.21-1.22 1.21-2.39 0-3.5 2.47-1.6 3.47-3.6 3-6 5.33-9.33 10.67-18.67 16-28l-1-1c4.33-7 8.67-14 13-21-.95-.72-1.12-1.55-.5-2.5 2.17-2.83 4.33-5.67 6.5-8.5l-1-1c4.69-4.19 8.03-9.35 10-15.5 5.25-6.83 9.75-14.16 13.5-22 7.84-9 14.67-18.66 20.5-29 3.29-.82 4.63-2.66 4-5.5.92-.37 1.75-.87 2.5-1.5 1.62-4.22 4.28-7.56 8-10 2.82-6.89 7.48-12.89 14-18 1.62-3.28 3.62-6.28 6-9 4.01-4.01 7.68-8.34 11-13 1.38-1.71 3.04-3.05 5-4 .33-1 .67-2 1-3 15.67-16.89 31.83-33.39 48.5-49.5a97.588 97.588 0 0 0 20-18c28.43-23.1 57.43-45.43 87-67 1.75-.47 3.41-1.14 5-2 6.32-5.16 12.98-9.83 20-14 5.33-2.67 10.67-5.33 16-8 2.75-3.04 6.08-5.04 10-6a70.842 70.842 0 0 1 18-10c1.71-2.04 3.71-3.71 6-5 7.54-2.92 15.21-6.25 23-10 4-2.33 8-4.67 12-7 9.94-3.35 19.6-7.02 29-11 1.96-.95 3.62-2.29 5-4 18.08-6.23 35.74-12.57 53-19 2.67-.33 5.33-.67 8-1 7.52-3.24 15.02-6.07 22.5-8.5 2.23.99 4.06.32 5.5-2 .59.21 1.09.54 1.5 1 3.79-1.38 7.63-2.71 11.5-4 .79.43 1.63.76 2.5 1a62.752 62.752 0 0 1 16.5-6c.79.43 1.63.76 2.5 1 3.43-1.19 6.77-2.52 10-4 2.45.91 4.62.24 6.5-2 3.35.65 6.51.65 9.5 0a20.56 20.56 0 0 0 5.5-3c.79.43 1.63.76 2.5 1 3.03-1.98 6.2-2.31 9.5-1 1.63-.47 2.8-1.47 3.5-3 4.21-.41 8.54-.41 13 0 4.08-1.23 8.08-2.56 12-4 3.71 1.46 7.21 1.13 10.5-1 1.19.26 2.36.59 3.5 1a14.76 14.76 0 0 1 7-2c4.86.14 9.69.14 14.5 0 3.54-2.91 7.54-3.24 12-1 3.54-2.91 7.54-3.24 12-1 1.63-.47 2.8-1.47 3.5-3 3.58.65 7.25.98 11 1 16.33-.48 32.5-1.15 48.5-2z"/><path style="opacity:1" fill="#f4a44b" d="M3553.5 1977.5c247.07-3 455.9 84 626.5 261 149.22 166.59 221.72 362.43 217.5 587.5-13.01 208.1-91.17 386.94-234.5 536.5-152.59 150.61-336.76 231.44-552.5 242.5-221.37 3.89-414.37-67.44-579-214-167.31-158.36-255.65-353.36-265-585 .48-218.09 73.65-407.92 219.5-569.5 131.08-137.8 291.24-221.3 480.5-250.5 29.09-3.45 58.09-6.28 87-8.5z"/><path style="opacity:1" fill="#ebb870" d="M1188.5 1989.5c3.76 13.95 7.76 27.95 12 42-17.46 9.6-33.12 21.76-47 36.5a71.636 71.636 0 0 1-13 9.5 237.46 237.46 0 0 0-5 19c1.05-23.37 1.05-46.7 0-70 1.77-2.83 3.6-5.83 5.5-9a818.821 818.821 0 0 1 38.5-29.5c3.48-2.21 6.48-1.71 9 1.5z"/><path style="opacity:1" fill="#f2a64f" d="M3569.5 1987.5c214.22.44 400.55 71.94 559 214.5 150.4 142.32 235.57 317.15 255.5 524.5 1.76 25.97 2.93 51.97 3.5 78-1.53 91.82-18.69 180.82-51.5 267-42.16 112.55-106 210.72-191.5 294.5-124.35 119.51-272.35 192.84-444 220-171.24 24.27-333.91-2.73-488-81-206.46-111.17-342.3-279.67-407.5-505.5-28.24-108.5-34.91-218.17-20-329 44.64-246.01 172.14-435.17 382.5-567.5 123.99-73.27 257.99-111.77 402-115.5z"/><path style="opacity:1" fill="#e8c281" d="M2007.5 2308.5a4749.622 4749.622 0 0 0-66 339c-1.64 1.25-2.8 2.92-3.5 5-4.37 42.7-9.04 85.36-14 128a328.779 328.779 0 0 1-20.5 52c-5.48 3.92-10.82 8.08-16 12.5-76.51 75.76-168.18 122.76-275 141-165.3 23.45-309.63-20.55-433-132-119.76-118.46-171.93-261.96-156.5-430.5 3.09-12.14 5.09-24.47 6-37 2.6-14.18 5.93-28.18 10-42 .35-3.85.85-7.69 1.5-11.5-.03-1.07-.36-1.9-1-2.5 31.84-31.73 55.01-69.07 69.5-112 6.35-20.42 12.51-40.75 18.5-61-.11 1.88.39 2.21 1.5 1 24.89-31.23 53.39-58.73 85.5-82.5 4.69-2.4 7.52-.9 8.5 4.5 1.13 1.64 2.63 2.64 4.5 3 33.96 46.43 78.29 78.93 133 97.5 78.93 22.35 149.26 6.68 211-47 21.72-19.71 41.22-41.21 58.5-64.5 5.4-7.73 10.4-15.73 15-24 7.61-16.21 15.44-32.21 23.5-48 1.82-1.66 3.99-2.66 6.5-3 96.39 30.18 177.73 83.18 244 159 35.21 43.04 63.88 90.37 86 142 .87 4.46 1.71 8.8 2.5 13z"/><path style="opacity:1" fill="#f1a853" d="M3562.5 2004.5c217.81-1.14 406.15 72.02 565 219.5 134.88 132.26 214.04 292.76 237.5 481.5 20.21 208.35-32.12 396.35-157 564-118.2 150.41-271.03 247.24-458.5 290.5-157.55 32.79-311.22 19.79-461-39-193.34-80.67-334.5-215.84-423.5-405.5-87.36-198.84-93.69-400.17-19-604 78.24-196.24 212.41-340.41 402.5-432.5 99.83-45.62 204.49-70.46 314-74.5z"/><path style="opacity:1" fill="#f0ab59" d="M3578.5 2021.5c11.84 1.14 23.67 1.14 35.5 0 15.4 2.43 30.9 3.59 46.5 3.5 70.77 8.19 139.44 25.19 206 51 23.24 10.5 46.58 21.17 70 32 161.08 85.58 278.92 211.75 353.5 378.5 57.26 137.1 75.26 279.43 54 427-31.45 178.57-113.62 328.74-246.5 450.5-34.09 31.4-71.09 59.07-111 83-141.24 84.72-294.91 122.05-461 112a968.132 968.132 0 0 1-155-27c-166.91-50.32-303.08-144.49-408.5-282.5-11.71-17.7-23.38-35.37-35-53-82.81-137.2-121.31-286.53-115.5-448 11.72-159.06 65.22-301.72 160.5-428 28.93-35.94 60.43-69.77 94.5-101.5 125.12-110.35 271.45-174.68 439-193 24.45-2.15 48.78-3.65 73-4.5z"/><path style="opacity:1" fill="#eabd78" d="M1200.5 2031.5a961.079 961.079 0 0 0 27 52c-1.87-.36-3.37-1.36-4.5-3-.98-5.4-3.81-6.9-8.5-4.5-32.11 23.77-60.61 51.27-85.5 82.5-1.11 1.21-1.61.88-1.5-1 3.08-20.29 5.74-40.63 8-61a237.46 237.46 0 0 1 5-19c4.69-2.68 9.02-5.84 13-9.5 13.88-14.74 29.54-26.9 47-36.5z"/><path style="opacity:1" fill="#453218" d="m451.5 2042.5 2 3c-2.046 2.87-4.713 5.03-8 6.5-15.625 7.48-31.958 12.65-49 15.5-1.4-.6-2.4-1.6-3-3 9.143-1.9 18.143-4.4 27-7.5 10.355-4.84 20.688-9.68 31-14.5z"/><path style="opacity:1" fill="#efae5e" d="M3581.5 2055.5c189.4 2.71 354.57 66.38 495.5 191 2.58 3.91 5.75 7.08 9.5 9.5 4.84 4.84 9.51 9.84 14 15 2.35.35 4.18 1.51 5.5 3.5 1.67 2.33 3.33 4.67 5 7a243.5 243.5 0 0 0 19 18c18.09 23.18 36.43 46.18 55 69a75 75 0 0 0 13.5 20.5l-1 1a185.93 185.93 0 0 1 14.5 20.5c5.07 8.01 9.41 16.35 13 25 3.03 3.77 5.7 7.77 8 12 .81 3.32 2.31 6.32 4.5 9-.21.59-.54 1.09-1 1.5l3.5 3.5a649.649 649.649 0 0 0 19 40c2.97 9.01 6.47 17.84 10.5 26.5-.81 2.29.02 4.12 2.5 5.5 8.02 24.18 15.85 48.68 23.5 73.5-.24.87-.57 1.71-1 2.5 1.42 3.96 2.76 7.96 4 12-.11.94-.44 1.78-1 2.5a36.34 36.34 0 0 1 3.5 6.5c.14 3.53.98 6.86 2.5 10-.43.79-.76 1.63-1 2.5 1.39 3.77 2.72 7.61 4 11.5-.55 1.27-.88 2.61-1 4 1.71 6.82 3.38 13.66 5 20.5-.75 1.87-1.08 3.53-1 5l1.5 1.5c.48 7.65 1.65 15.15 3.5 22.5.88 5.17.88 10.5 0 16 2.25 3.6 2.58 7.44 1 11.5.9 1.74 1.57 3.57 2 5.5.27 12.6.27 25.6 0 39a14.76 14.76 0 0 1 2 7c-.58 4.68-1.25 9.35-2 14 .67 2 1.33 4 2 6-.93 8.01-1.93 16.01-3 24 .67 2.33 1.33 4.67 2 7-2.98 24.15-5.81 48.31-8.5 72.5-.11 2.47-1.11 4.47-3 6-.85 8.35-1.85 16.68-3 25l-2 2c-1.47 12.33-3.8 24.33-7 36a7.379 7.379 0 0 1-2 3c-1.44 8.2-3.44 16.2-6 24-.41.46-.91.79-1.5 1-.83 4-1.67 8-2.5 12l-2 2c-2.5 6.33-4.16 12.67-5 19-2.05 2.2-3.05 4.87-3 8l-2 2a607.06 607.06 0 0 0-8 23 2078.829 2078.829 0 0 1-37 76 1165.837 1165.837 0 0 1-54 83c-1.51.76-2.85 1.76-4 3-1.33 2.67-2.67 5.33-4 8a138.331 138.331 0 0 0-15.5 17c-1.91 6.07-5.74 10.4-11.5 13-2.9 6.23-7.23 11.23-13 15-1.33 4-4 6.67-8 8-1.58 3.92-4.25 6.92-8 9-2.28 4.57-5.78 7.9-10.5 10-1.67 5-5 8.33-10 10-5.18 7.44-11.85 13.27-20 17.5-1.91 3.91-4.57 7.24-8 10-13 10.33-26 20.67-39 31a54.79 54.79 0 0 1-7 2c-6.26 6.95-13.6 12.28-22 16-3.24 4.45-7.57 7.12-13 8-3.16 4.67-7.5 7.5-13 8.5-5.55 5.61-12.22 9.45-20 11.5-4.66 4.83-10.33 7.83-17 9-5.89 6.54-13.23 10.54-22 12-49.05 25.35-100.38 43.68-154 55-3.88 1.01-7.71 2.17-11.5 3.5-.87-.24-1.71-.57-2.5-1-10.58 3.19-21.58 6.03-33 8.5-130.09 20.17-257.09 8.17-381-36-91-34.57-172.17-84.73-243.5-150.5-.62-3.11-2.46-4.95-5.5-5.5a30.134 30.134 0 0 1-6-7c-5-2.33-8.67-6-11-11-4.51-1.67-7.51-4.84-9-9.5-5.96-3.8-10.79-8.8-14.5-15a29.18 29.18 0 0 0-6-4 1661.91 1661.91 0 0 0-43-54c-2.73-2.79-4.39-6.12-5-10-5.69-4.99-9.69-10.99-12-18-7.19-6.86-12.36-15.03-15.5-24.5l-4.5-4.5a133.58 133.58 0 0 1-8-17c-6.8-7.11-10.97-15.27-12.5-24.5-3.32-2.45-5.82-5.62-7.5-9.5a858.416 858.416 0 0 1-34.5-83c.5-1.22.83-2.38 1-3.5a241.81 241.81 0 0 1-10-23l1-1c-3.2-8.98-6.03-18.14-8.5-27.5-.45-7.07-2.29-13.74-5.5-20 .43-.79.76-1.63 1-2.5-1.38-4.15-2.71-8.32-4-12.5.11-.94.44-1.78 1-2.5-2.37-9.5-4.71-18.84-7-28 .33-1 .67-2 1-3-1.49-4.06-2.82-8.23-4-12.5.52-1.11.86-2.27 1-3.5-2.02-3.13-2.36-6.47-1-10-.13-1.06-.63-1.89-1.5-2.5-2.33-19-3.5-38-3.5-57-2.27-4.59-2.6-9.43-1-14.5-.08-2.5-.75-4.83-2-7 .87-4.46 1.54-8.96 2-13.5.02-2.71-.65-5.21-2-7.5 1.11-6.77 2.11-13.61 3-20.5a50.83 50.83 0 0 1-2-6.5c3.57-30.49 7.07-60.99 10.5-91.5.56-2.23 1.56-4.23 3-6 1.33-13.95 3.66-27.61 7-41 1.44-1.77 2.44-3.77 3-6 .92-7.99 2.59-15.65 5-23 .56-2.23 1.56-4.23 3-6 1.63-6.32 3.3-12.65 5-19l2-2c.87-6.6 2.54-12.93 5-19 2.01-2.18 3.01-4.85 3-8l2-2c2.8-10.4 6.47-20.4 11-30 6.91-13.95 13.91-27.95 21-42 .67-4.35 2.67-8.02 6-11 .33-1.67.67-3.33 1-5 3.61-7.4 7.95-14.4 13-21a20.69 20.69 0 0 0 2-6 928.553 928.553 0 0 0 28-43c1.96-3.6 4.63-6.6 8-9 1.97-6.29 5.64-11.29 11-15 .82-4.67 3.32-8 7.5-10l3.5-7a859.808 859.808 0 0 1 66.5-72.5c6.64-5.63 12.97-11.63 19-18 5.06-4.06 10.39-7.72 16-11 1.88-3.89 4.55-7.22 8-10a322.44 322.44 0 0 0 19-15c2.21-1.04 4.55-1.71 7-2 7.02-8.05 15.35-14.05 25-18 7.43-6.77 15.43-12.77 24-18 119.47-73.63 249.8-111.13 391-112.5z"/><path style="opacity:1" fill="#815215" d="M367.5 2059.5c-.256 2.29.077 4.46 1 6.5 8.41.72 16.744.22 25-1.5.6 1.4 1.6 2.4 3 3-.418.72-1.084 1.22-2 1.5-4.715.28-9.382.78-14 1.5h-17c-.591-4.46.742-8.13 4-11z"/><path style="opacity:1" fill="#efb062" d="M3569.5 2069.5c198.91.17 370.58 68 515 203.5 155.06 155.59 228.4 343.76 220 564.5-17.15 201.13-100.81 368.3-251 501.5-173.33 142.93-371.67 197.6-595 164-166.91-31.51-306.74-110.01-419.5-235.5-146.17-173.26-202.83-372.59-170-598 45.75-230.63 170.92-402.8 375.5-516.5 102.1-52.44 210.43-80.27 325-83.5z"/><path style="opacity:1" fill="#cc661e" d="M363.5 2070.5h17a16.6 16.6 0 0 0-2.5 4 1353.46 1353.46 0 0 0-54 204 232.675 232.675 0 0 1-8 48 1317.65 1317.65 0 0 0-4.5 41.5c.546 17.6-.788 35.1-4 52.5.411 12.67.745 25.33 1 38-.721 4.16-1.387 8.32-2 12.5 2.054 295.23 94.22 557.39 276.5 786.5 22.362 25.03 44.695 50.03 67 75 174.186 176.32 382.69 291.82 625.5 346.5 257.51 51.81 506.84 25.81 748-78 2.61-1.11 4.28-2.94 5-5.5a8915.21 8915.21 0 0 1 52 119c-3.95 5.77-9.28 9.93-16 12.5-272.62 114.36-552.95 139.36-841 75-239.397-57.48-448.064-169.81-626-337-95.654-92.26-176.821-195.42-243.5-309.5a1549.208 1549.208 0 0 1-53-105l-11-29c-.935-3.1-2.769-5.43-5.5-7-23.278-97.19-35.445-195.86-36.5-296-4.925-210.12 28.742-413.78 101-611 4.74-12.39 9.574-24.72 14.5-37z"/><path style="opacity:1" fill="#fffefe" d="M718.5 2083.5c2.458-.27 4.125.73 5 3a2183.046 2183.046 0 0 1-7.5 37c-2.472 32.91 6.528 62.25 27 88 20.924 26.39 47.091 45.89 78.5 58.5 3.45 2.16 3.783 4.66 1 7.5-42.166 10.13-80.166 1.63-114-25.5-32.968-30.04-43.468-66.54-31.5-109.5 9.454-22.97 23.288-42.63 41.5-59z"/><path style="opacity:1" fill="#eeb468" d="M3576.5 2094.5c209.3 2.34 384.8 80.01 526.5 233 140.94 164.32 197.27 354.32 169 570-25.39 154.29-93.55 285.79-204.5 394.5-92.44 87.91-201.11 147.24-326 178-154.31 35.14-303.64 20.47-448-44-155.39-73.39-270.22-187.55-344.5-342.5-63.88-141.17-80.22-287.51-49-439 41.09-176.82 134.93-317.98 281.5-423.5 118.81-81.8 250.47-123.96 395-126.5z"/><path style="opacity:1" fill="#ecb76d" d="M3561.5 2117.5c188.45-2.49 351.11 60.35 488 188.5 80.83 78.26 139 171.09 174.5 278.5 50.88 160.52 43.55 318.19-22 473-55.61 125.95-141.11 226.45-256.5 301.5-153.54 95.31-319.21 126.31-497 93-172.91-37.71-311.41-127.54-415.5-269.5-90.01-128.5-131.51-271.33-124.5-428.5 5.78-98.71 31.95-191.87 78.5-279.5 18.52-35.73 40.52-69.07 66-100 47.06-60.4 102.89-110.9 167.5-151.5 104.39-65.07 218.05-100.24 341-105.5z"/><path style="opacity:1" fill="#ebba72" d="M3565.5 2150.5c173.2-1.52 323.86 55.32 452 170.5 141.75 135.75 210.75 302.25 207 499.5-14.82 204.38-103.48 367.88-266 490.5-163.43 112.82-341.76 146.49-535 101-127-33.22-234.17-98.39-321.5-195.5-125.92-147.13-178.25-317.47-157-511 27.34-170.48 107.5-309.98 240.5-418.5 112.14-85.22 238.81-130.72 380-136.5z"/><path style="opacity:1" fill="#eabe7a" d="M3562.5 2170.5c192.38-1.86 353.55 67.47 483.5 208 124.8 145.11 175.47 313.11 152 504-27.99 163.23-106.16 296.4-234.5 399.5-122.37 91.73-260.37 135.23-414 130.5-170.44-12.81-313.61-81.48-429.5-206-112.41-128.87-165.58-279.37-159.5-451.5 13.53-164.77 79.53-304.11 198-418a382.977 382.977 0 0 0 35-31c13.16-7.5 25.5-16.17 37-26 100.11-67.98 210.77-104.48 332-109.5z"/><path style="opacity:1" fill="#f28c2e" d="M599.5 2181.5c6.345 61.54 30.679 114.21 73 158-3.142-.3-5.309-1.97-6.5-5-2.472 1.8-4.139 4.13-5 7-32.696 213.19 5.971 412.52 116 598 124.77 199.68 300.94 331.51 528.5 395.5 4.3 1.05 8.64 1.88 13 2.5.13.88-.2 1.54-1 2a17.29 17.29 0 0 0-5-1c-6.66.82-13.33 1.82-20 3-4.56-1.63-8.89-1.3-13 1-19.64-1.1-39.31-1.93-59-2.5a169.43 169.43 0 0 1-35-6c-7.77-.84-15.43-2.01-23-3.5-68.96-17.48-131.96-47.32-189-89.5-44.606-33.93-85.44-72.1-122.5-114.5a968.11 968.11 0 0 0-45-57c-65.84-90.31-119.84-187.64-162-292a140.011 140.011 0 0 1-10-20 13306.108 13306.108 0 0 0-48-125 3097.517 3097.517 0 0 1-25-85c-.2-1.82-1.034-3.15-2.5-4a21253.38 21253.38 0 0 1-17.5-82 40.9 40.9 0 0 1-.5-9c1.43-3.46 2.596-7.13 3.5-11 1.679-32.1 4.679-64.1 9-96a92.983 92.983 0 0 1 5-22l2-20c8.817-43.93 20.15-87.26 34-130a7.248 7.248 0 0 1 2.5-2 42.834 42.834 0 0 1 1.5 9c.383.56.883.89 1.5 1z"/><path style="opacity:1" fill="#d67323" d="M521.5 2209.5c.179 20.27.179 40.6 0 61a1921.7 1921.7 0 0 0 10.5 138 967.302 967.302 0 0 0 8.5 44 40.9 40.9 0 0 0 .5 9c5.791 27.4 11.624 54.73 17.5 82-1.763 2.28-2.763 4.95-3 8 14.13 174.24 69.297 333.9 165.5 479 139.291 200.17 327.12 332.67 563.5 397.5 225.46 55.69 444.13 35.69 656-60 6.44-2.54 12.1-6.04 17-10.5 1.83 2.64 2.99 5.64 3.5 9 3.48 19.26 7.65 38.26 12.5 57a11.65 11.65 0 0 1-2 5c-155.93 73.15-319.77 105.15-491.5 96-115.2-4.26-226.37-27.76-333.5-70.5-211.353-85.37-378.52-223.87-501.5-415.5-146.256-240.2-191.923-498.2-137-774a274.115 274.115 0 0 1 10-35 221.002 221.002 0 0 0 3.5-20z"/><path style="opacity:1" fill="#cf6a20" d="M4817.5 2222.5c5.38 5.06 9.54 11.06 12.5 18 80.27 182.83 119.1 374.16 116.5 574-4.54 188.15-45.04 368.48-121.5 541-121.55 260.2-305.38 464.04-551.5 611.5-242.85 140.79-504.51 202.13-785 184-251.02-18.22-479.69-98.55-686-241-153.41-108.01-279.91-241.18-379.5-399.5a57.498 57.498 0 0 1-3.5-13c2.45 1.28 4.78 2.78 7 4.5l37 37c3.21 2.72 6.54 5.22 10 7.5 4.13 4.63 8.46 9.13 13 13.5 21 17.67 42 35.33 63 53 77.17 61.96 159.84 115.79 248 161.5.95 4.39 3.28 7.89 7 10.5 224.24 171.54 478.08 260.7 761.5 267.5 243.19 1.17 468.69-61 676.5-186.5 193.83-120.49 344.99-280.99 453.5-481.5 42.28-80.19 75.95-163.85 101-251 9.6-34.41 17.94-69.07 25-104 .87-7.67 1.7-15.34 2.5-23-.81-4.96.35-9.29 3.5-13 .33-3.33.67-6.67 1-10 11.92-39.81 20.58-80.48 26-122a12.74 12.74 0 0 0 3-6c3.42-32.35 7.09-64.69 11-97 .52-6.84.36-13.68-.5-20.5.11-4.95.95-9.79 2.5-14.5.22-14.85.72-29.68 1.5-44.5-.05-23.01-.05-46.01 0-69a1883.703 1883.703 0 0 0-29.5-269.5c-2.06-8.72-4.23-17.38-6.5-26 .17-3.35 0-6.68-.5-10-7.1-27.13-13.26-54.46-18.5-82z"/><path style="opacity:1" fill="#e9c281" d="M3552.5 2228.5c176.78-4.68 325.94 56.98 447.5 185 116.54 134.4 163.2 290.4 140 468-26.08 141.34-94.24 257.84-204.5 349.5-132.57 101.81-281.9 140.48-448 116-108.65-19.99-203.98-66.66-286-140-129.13-123.64-189.96-275.14-182.5-454.5 13.41-152.33 76.58-279.83 189.5-382.5 86.43-74.87 186.43-120.54 300-137 14.8-1.69 29.47-3.19 44-4.5z"/><path style="opacity:1" fill="#eabe79" d="M1039.5 2330.5c.64.6.97 1.43 1 2.5-.65 3.81-1.15 7.65-1.5 11.5-4.07 13.82-7.4 27.82-10 42-.91 12.53-2.91 24.86-6 37-15.43 168.54 36.74 312.04 156.5 430.5 123.37 111.45 267.7 155.45 433 132 106.82-18.24 198.49-65.24 275-141 5.18-4.42 10.52-8.58 16-12.5-.5 1.98-1 3.98-1.5 6-16.3 36.6-34.13 72.27-53.5 107-.46.8-1.12 1.13-2 1a124.83 124.83 0 0 0-14 5.5c-89.93 57.92-188.6 87.75-296 89.5-171.14-1.17-313.97-64.84-428.5-191-92.77-109.11-138.605-235.77-137.5-380 3.15-29.52 6.484-59.02 10-88.5.048-3.04-.952-5.54-3-7.5a721.206 721.206 0 0 1 32-19.5c10.21-7.94 20.21-16.1 30-24.5z"/><path style="opacity:1" fill="#f69231" d="M672.5 2339.5a302.365 302.365 0 0 0 51 35c-1.535 1.55-3.369 2.89-5.5 4-23.222 173.24 6.111 337.24 88 492 48.228 90.26 111.395 168.76 189.5 235.5 133.85 112.27 288.19 177.44 463 195.5-.56 1.29-1.56 2.12-3 2.5-36.1 13.32-72.77 23.82-110 31.5-6.6-.2-12.93.8-19 3-2.61-.77-5.28-1.1-8-1-4.36-.62-8.7-1.45-13-2.5-227.56-63.99-403.73-195.82-528.5-395.5-110.029-185.48-148.696-384.81-116-598 .861-2.87 2.528-5.2 5-7 1.191 3.03 3.358 4.7 6.5 5z"/><path style="opacity:1" fill="#ebba73" d="M977.5 2374.5c2.048 1.96 3.048 4.46 3 7.5-3.516 29.48-6.85 58.98-10 88.5-1.105 144.23 44.73 270.89 137.5 380 114.53 126.16 257.36 189.83 428.5 191 107.4-1.75 206.07-31.58 296-89.5 4.64-2.15 9.31-3.98 14-5.5-6.1 10.94-12.1 21.94-18 33a415.72 415.72 0 0 0-15 5.5c-126.5 69.31-260.5 90.31-402 63-108.6-24.12-202.93-74.12-283-150-107.02-106.24-165.521-235.07-175.5-386.5a934.712 934.712 0 0 1 2-95 185.278 185.278 0 0 0 5.5-34c4.973-3.98 10.64-6.65 17-8z"/><path style="opacity:1" fill="#f79837" d="M723.5 2374.5c4.795 2.04 9.462 4.37 14 7a32.933 32.933 0 0 0-2.5 6c-20.967 172.5 10.7 334.84 95 487 57.642 100.32 132.809 185.48 225.5 255.5 127.84 92.17 270.67 142.67 428.5 151.5 3.64 1.25 7.14 2.58 10.5 4-1.39 2.21-3.39 3.71-6 4.5-9.49 3.77-18.83 7.6-28 11.5h-2c-174.81-18.06-329.15-83.23-463-195.5-78.105-66.74-141.272-145.24-189.5-235.5-81.889-154.76-111.222-318.76-88-492 2.131-1.11 3.965-2.45 5.5-4z"/><path style="opacity:1" fill="#f69a3c" d="M737.5 2381.5a666.983 666.983 0 0 1 23 9c-1.449 1.66-3.449 2.5-6 2.5-18.915 167.76 12.585 325.59 94.5 473.5 40.108 68.14 88.608 129.98 145.5 185.5 149.78 137.07 326.62 207.57 530.5 211.5 2.66.17 5.16.83 7.5 2-2.03 3.53-5.03 5.7-9 6.5-2.57 1.76-4.9 3.59-7 5.5-2.8 1.27-5.8 2.1-9 2.5-3.71 3.18-8.04 5.02-13 5.5-3.36-1.42-6.86-2.75-10.5-4-157.83-8.83-300.66-59.33-428.5-151.5-92.691-70.02-167.858-155.18-225.5-255.5-84.3-152.16-115.967-314.5-95-487a32.933 32.933 0 0 1 2.5-6z"/><path style="opacity:1" fill="#ebb86f" d="M960.5 2382.5a185.278 185.278 0 0 1-5.5 34 934.712 934.712 0 0 0-2 95c9.979 151.43 68.48 280.26 175.5 386.5 80.07 75.88 174.4 125.88 283 150 141.5 27.31 275.5 6.31 402-63a415.72 415.72 0 0 1 15-5.5v1c-8.03 9.56-15.19 19.89-21.5 31-3 3.83-6.17 7.5-9.5 11-20.75 8.2-41.42 16.7-62 25.5-173.53 58.94-340.87 44.94-502-42-120.44-69.78-207.61-168.95-261.5-297.5-40.707-102.64-52.874-208.3-36.5-317 7.754-4.36 16.087-7.36 25-9z"/><path style="opacity:1" fill="#edb468" d="M935.5 2391.5c-16.374 108.7-4.207 214.36 36.5 317 53.89 128.55 141.06 227.72 261.5 297.5 161.13 86.94 328.47 100.94 502 42 20.58-8.8 41.25-17.3 62-25.5-.54 2.09-1.38 4.09-2.5 6-8.75 11.18-17.25 22.52-25.5 34-3.33 3.67-6.67 7.33-10 11-3.35-.17-6.68 0-10 .5-117.01 42.47-236.35 50.8-358 25-168.43-40.87-299.93-133.37-394.5-277.5-81.072-129.51-111.905-270.18-92.5-422 10.206-2.8 20.539-5.47 31-8z"/><path style="opacity:1" fill="#f59d41" d="M760.5 2390.5a320.668 320.668 0 0 0 20 5c-.605 1.53-1.771 2.53-3.5 3-19.105 189.25 24.895 362.25 132 519 121.04 166.84 283.21 270.68 486.5 311.5 6.68.55 13.35 1.21 20 2 10.15 2.9 20.48 4.9 31 6 17.58 0 35.08 1.17 52.5 3.5 22.87.44 45.7-.23 68.5-2 2.03 1.01 4.03 2.01 6 3-1.44 1.32-2.11 2.99-2 5-2.72.18-5.38.68-8 1.5-7.17 3.82-13.84 8.49-20 14a23.72 23.72 0 0 1-11 3.5c-2.34-1.17-4.84-1.83-7.5-2-203.88-3.93-380.72-74.43-530.5-211.5-56.892-55.52-105.392-117.36-145.5-185.5-81.915-147.91-113.415-305.74-94.5-473.5 2.551 0 4.551-.84 6-2.5z"/><path style="opacity:1" fill="#f3a147" d="M780.5 2395.5a85.378 85.378 0 0 0 16 3.5c14.151 1.52 28.151 3.02 42 4.5-12.348.37-24.681-.3-37-2-18.964 184.48 24.203 352.82 129.5 505 131.39 179 308.22 281.17 530.5 306.5 24.3.68 48.63 1.84 73 3.5 24.22-.95 48.39-2.62 72.5-5 2.78-.09 5.28.58 7.5 2-1.46 1.96-3.13 3.8-5 5.5a405.096 405.096 0 0 1-36 22.5c-1.97-.99-3.97-1.99-6-3-22.8 1.77-45.63 2.44-68.5 2-17.42-2.33-34.92-3.5-52.5-3.5-10.52-1.1-20.85-3.1-31-6-6.65-.79-13.32-1.45-20-2-203.29-40.82-365.46-144.66-486.5-311.5-107.105-156.75-151.105-329.75-132-519 1.729-.47 2.895-1.47 3.5-3z"/><path style="opacity:1" fill="#eeb061" d="M904.5 2399.5c-19.405 151.82 11.428 292.49 92.5 422 94.57 144.13 226.07 236.63 394.5 277.5 121.65 25.8 240.99 17.47 358-25 3.32-.5 6.65-.67 10-.5-.94 2.11-2.11 4.11-3.5 6-11.04 12.2-21.88 24.54-32.5 37-3.09 3.1-6.42 5.77-10 8-3.35-.17-6.68 0-10 .5-188.5 48.39-365.5 21.73-531-80-111.04-72.71-194.542-169.21-250.5-289.5-49.35-112.44-67.85-229.77-55.5-352 12.665-1.33 25.332-2.67 38-4z"/><path style="opacity:1" fill="#f2a54f" d="M838.5 2403.5h2c-2.488 1.89-5.488 2.55-9 2-17.646 191.83 32.187 363.5 149.5 515 108.43 132.67 246.93 216.5 415.5 251.5 16.84 1.71 33.5 4.38 50 8 22.65 1.45 45.32 2.79 68 4 44.32.97 88.32-2.36 132-10 5.04-.66 10.04-.5 15 .5-.63 3.14-2.3 5.64-5 7.5a294.755 294.755 0 0 0-27 22.5c-5.19 2.76-10.19 5.76-15 9-2.22-1.42-4.72-2.09-7.5-2-24.11 2.38-48.28 4.05-72.5 5-24.37-1.66-48.7-2.82-73-3.5-222.28-25.33-399.11-127.5-530.5-306.5-105.297-152.18-148.464-320.52-129.5-505a221.637 221.637 0 0 0 37 2z"/><path style="opacity:1" fill="#f0ab58" d="M840.5 2403.5h26c-12.35 122.23 6.15 239.56 55.5 352 55.958 120.29 139.46 216.79 250.5 289.5 165.5 101.73 342.5 128.39 531 80 3.32-.5 6.65-.67 10-.5-.21 1.42-.71 2.76-1.5 4-12.7 11.2-24.54 23.2-35.5 36-5.21 3.1-10.21 6.43-15 10-4.96-1-9.96-1.16-15-.5a678.189 678.189 0 0 1-132 10c-22.68-1.21-45.35-2.55-68-4-16.5-3.62-33.16-6.29-50-8-168.57-35-307.07-118.83-415.5-251.5-117.313-151.5-167.146-323.17-149.5-515 3.512.55 6.512-.11 9-2z"/><path style="opacity:1" fill="#d87724" d="M558.5 2543.5c1.466.85 2.3 2.18 2.5 4a3097.517 3097.517 0 0 0 25 85c16.158 41.45 32.158 83.12 48 125a140.011 140.011 0 0 0 10 20c42.16 104.36 96.16 201.69 162 292a968.11 968.11 0 0 1 45 57c37.06 42.4 77.894 80.57 122.5 114.5 57.04 42.18 120.04 72.02 189 89.5 1.16 3.99 3.83 6.49 8 7.5 87.63 36.66 178.63 59.99 273 70 146.83 11.81 289.16-8.86 427-62 24.02-9.84 47.69-20.51 71-32 3.39-2.29 5.06-5.45 5-9.5 1.29 1.34 2.13 3.01 2.5 5 3.24 15.83 6.07 31.83 8.5 48-4.9 4.46-10.56 7.96-17 10.5-211.87 95.69-430.54 115.69-656 60-236.38-64.83-424.209-197.33-563.5-397.5-96.203-145.1-151.37-304.76-165.5-479 .237-3.05 1.237-5.72 3-8z"/><path style="opacity:1" fill="#d39f5e" d="M1941.5 2647.5c-5.83 51.32-11.66 102.65-17.5 154-1.81 32.34-3.65 64.67-5.5 97-1.24 7.26-2.74 14.59-4.5 22a573.292 573.292 0 0 1-79.5 59.5c-1.97.5-3.97.66-6 .5v-1c5.9-11.06 11.9-22.06 18-33 .88.13 1.54-.2 2-1 19.37-34.73 37.2-70.4 53.5-107 .5-2.02 1-4.02 1.5-6 8.3-16.72 15.13-34.06 20.5-52 4.96-42.64 9.63-85.3 14-128 .7-2.08 1.86-3.75 3.5-5z"/><path style="opacity:1" fill="#d59b55" d="M1918.5 2898.5c-.57 24.66-.9 49.33-1 74-1.12 2.45-1.95 5.12-2.5 8-32.06 24.63-66.23 46.13-102.5 64.5a299.239 299.239 0 0 1-43 17.5c8.25-11.48 16.75-22.82 25.5-34 1.12-1.91 1.96-3.91 2.5-6 3.33-3.5 6.5-7.17 9.5-11 6.31-11.11 13.47-21.44 21.5-31 2.03.16 4.03 0 6-.5 28.2-17.52 54.7-37.35 79.5-59.5 1.76-7.41 3.26-14.74 4.5-22z"/><path style="opacity:1" fill="#d7964d" d="M1917.5 2972.5c.31 18.33.64 36.67 1 55-.72-.42-1.22-1.08-1.5-2-57.34 40.5-119.67 71.5-187 93-2.15-.77-4.32-1.44-6.5-2 10.62-12.46 21.46-24.8 32.5-37 1.39-1.89 2.56-3.89 3.5-6 3.33-3.67 6.67-7.33 10-11a299.239 299.239 0 0 0 43-17.5c36.27-18.37 70.44-39.87 102.5-64.5.55-2.88 1.38-5.55 2.5-8z"/><path style="opacity:1" fill="#d36f22" d="M4824.5 3006.5c-.8 7.66-1.63 15.33-2.5 23a1472.27 1472.27 0 0 1-25 104c-25.05 87.15-58.72 170.81-101 251-108.51 200.51-259.67 361.01-453.5 481.5-207.81 125.5-433.31 187.67-676.5 186.5-283.42-6.8-537.26-95.96-761.5-267.5-3.72-2.61-6.05-6.11-7-10.5a771.052 771.052 0 0 0 47 23.5c25.68 12.01 51.68 23.18 78 33.5a1446.9 1446.9 0 0 0 174 59.5c24.9 6.47 49.9 12.47 75 18 5.63.97 11.3 1.63 17 2 1.99 1.75 4.32 2.75 7 3 13.62.76 26.96 3.09 40 7 44.34 4.92 88.68 9.92 133 15 6.35.65 12.68.49 19-.5a419.91 419.91 0 0 0 25.5 3c7.23-1.38 14.4-1.21 21.5.5 28 .67 56 .67 84 0 13.71-.31 27.38-1.14 41-2.5 4.6 1.63 8.93 1.3 13-1 2.54.01 5.04.34 7.5 1 1.93-.43 3.76-1.1 5.5-2 2.14.52 4.3.85 6.5 1 134.69-10.44 266.19-37.27 394.5-80.5 1.83-.75 3.5-1.75 5-3 17.31-4.97 33.98-11.14 50-18.5 4.54-.38 8.87-1.55 13-3.5 28.23-11.78 56.23-24.12 84-37 105.06-50.5 202.06-112.84 291-187 126.03-106.73 227.86-232.57 305.5-377.5 2.35-3.7 3.85-7.7 4.5-12 1.72-1.75 3.22-3.75 4.5-6a96.872 96.872 0 0 1 10-20c3.67-8.18 7.01-16.51 10-25 4.17-7.46 8.17-15.12 12-23 .33-2 .67-4 1-6a98.12 98.12 0 0 1 5-9c3.59-10.96 7.26-21.96 11-33 2.79-2.7 4.13-6.04 4-10 1.56-3.69 3.23-7.36 5-11-.05-3.13.95-5.8 3-8l6-22 2-2c.33-2.67.67-5.33 1-8 2.52-3.57 3.86-7.57 4-12l2-2c.83-4 1.67-8 2.5-12 .68-.36 1.35-.7 2-1z"/><path style="opacity:1" fill="#c8611d" d="M284.5 3014.5c2.731 1.57 4.565 3.9 5.5 7l11 29a1549.208 1549.208 0 0 0 53 105c66.679 114.08 147.846 217.24 243.5 309.5 177.936 167.19 386.603 279.52 626 337 288.05 64.36 568.38 39.36 841-75 6.72-2.57 12.05-6.73 16-12.5 65.26 131.03 146.42 251.03 243.5 360a2011.35 2011.35 0 0 0 52 55c1.03 2.72.2 4.55-2.5 5.5-184.8 67.11-375.64 99.27-572.5 96.5-181.99-1.64-359.49-30.47-532.5-86.5a902.464 902.464 0 0 1-118-47c-316.258-154.93-557.091-387.76-722.5-698.5-64.711-122.08-112.545-250.41-143.5-385z"/><path style="opacity:1" fill="#d89245" d="M1918.5 3027.5c.89 9.63 1.23 19.3 1 29-1.09 3.5-2.43 7-4 10.5-71.25 47.42-148.75 80.26-232.5 98.5-2.19-.29-4.35-.62-6.5-1 10.96-12.8 22.8-24.8 35.5-36 .79-1.24 1.29-2.58 1.5-4 3.58-2.23 6.91-4.9 10-8 2.18.56 4.35 1.23 6.5 2 67.33-21.5 129.66-52.5 187-93 .28.92.78 1.58 1.5 2z"/><path style="opacity:1" fill="#da8e41" d="M1919.5 3056.5c1.39 13.91 2.06 27.91 2 42-1.1 1.6-2.43 3.1-4 4.5-58.97 35.81-121.63 63.48-188 83a776.613 776.613 0 0 1-89 19c-3.7.58-7.37.41-11-.5 8.52-8.01 17.52-15.51 27-22.5 2.7-1.86 4.37-4.36 5-7.5 4.79-3.57 9.79-6.9 15-10 2.15.38 4.31.71 6.5 1 83.75-18.24 161.25-51.08 232.5-98.5 1.57-3.5 2.91-7 4-10.5z"/><path style="opacity:1" fill="#db8b3a" d="M1921.5 3098.5a625.2 625.2 0 0 1 3 36c-1.01 3.14-2.67 5.98-5 8.5-100.44 58.87-208.78 93.54-325 104-7.68.54-15.35.37-23-.5-.11-2.01.56-3.68 2-5a405.096 405.096 0 0 0 36-22.5c1.87-1.7 3.54-3.54 5-5.5 4.81-3.24 9.81-6.24 15-9 3.63.91 7.3 1.08 11 .5 30.04-4.59 59.7-10.93 89-19 66.37-19.52 129.03-47.19 188-83 1.57-1.4 2.9-2.9 4-4.5z"/><path style="opacity:1" fill="#dc8630" d="M1924.5 3134.5c1.41 12.64 2.74 25.31 4 38-.77-.76-1.27-1.76-1.5-3-.61 3.05-2.11 5.55-4.5 7.5-113.22 63.89-234.89 98.39-365 103.5-9.34-1.28-18.67-1.28-28 0-4.77.37-9.1-.63-13-3 2.1-1.91 4.43-3.74 7-5.5 3.97-.8 6.97-2.97 9-6.5a23.72 23.72 0 0 0 11-3.5c6.16-5.51 12.83-10.18 20-14 2.62-.82 5.28-1.32 8-1.5 7.65.87 15.32 1.04 23 .5 116.22-10.46 224.56-45.13 325-104 2.33-2.52 3.99-5.36 5-8.5z"/><path style="opacity:1" fill="#de822c" d="M1928.5 3172.5c1.42 8.6 2.09 17.26 2 26-.43 2.7-1.77 4.86-4 6.5-141.91 77.06-293.57 110.39-455 100-3.77-1.24-7.43-2.4-11-3.5 9.17-3.9 18.51-7.73 28-11.5 2.61-.79 4.61-2.29 6-4.5 4.96-.48 9.29-2.32 13-5.5 3.2-.4 6.2-1.23 9-2.5 3.9 2.37 8.23 3.37 13 3 9.33-1.28 18.66-1.28 28 0 130.11-5.11 251.78-39.61 365-103.5 2.39-1.95 3.89-4.45 4.5-7.5.23 1.24.73 2.24 1.5 3z"/><path style="opacity:1" fill="#dd7e27" d="M1930.5 3198.5c.62.11 1.12.44 1.5 1 1.53 14.4 3.53 28.73 6 43 .5 4.32.67 8.65.5 13a18.25 18.25 0 0 1-2 3.5c-118.35 61.76-244.35 95.09-378 100-23.83-.1-47.67.06-71.5.5-38.13-4.72-76.3-9.22-114.5-13.5a64.678 64.678 0 0 0-22-5c-2.92-.75-4.59-2.58-5-5.5 37.23-7.68 73.9-18.18 110-31.5 1.44-.38 2.44-1.21 3-2.5h2c3.57 1.1 7.23 2.26 11 3.5 161.43 10.39 313.09-22.94 455-100 2.23-1.64 3.57-3.8 4-6.5z"/><path style="opacity:1" fill="#db7a26" d="M1938.5 3255.5c1.43 1.65 2.26 3.65 2.5 6 .83 10.15 2.5 20.15 5 30 .5 4.32.67 8.65.5 13 .06 4.05-1.61 7.21-5 9.5a1125.979 1125.979 0 0 1-71 32c-137.84 53.14-280.17 73.81-427 62-94.37-10.01-185.37-33.34-273-70-4.17-1.01-6.84-3.51-8-7.5 7.57 1.49 15.23 2.66 23 3.5a169.43 169.43 0 0 0 35 6c19.69.57 39.36 1.4 59 2.5 4.11-2.3 8.44-2.63 13-1 6.67-1.18 13.34-2.18 20-3 1.73.09 3.39.42 5 1 .8-.46 1.13-1.12 1-2 2.72-.1 5.39.23 8 1 6.07-2.2 12.4-3.2 19-3 .41 2.92 2.08 4.75 5 5.5 7.64.38 14.98 2.05 22 5 38.2 4.28 76.37 8.78 114.5 13.5 23.83-.44 47.67-.6 71.5-.5 133.65-4.91 259.65-38.24 378-100a18.25 18.25 0 0 0 2-3.5z"/><path style="opacity:1" fill="#e6007a" d="M811.5 4095.5c.397-1.03 1.063-1.19 2-.5 96.321 66.18 198.99 121.51 308 166 321.3 112.97 649.63 139.31 985 79a1741.914 1741.914 0 0 0 293-83.5c1.44.22 2.77.72 4 1.5 134.15 118.63 284.15 213.3 450 284 125.01 50.59 254.34 85.25 388 104 256.86 36.36 512.53 29.36 767-21 35.19-7.88 70.19-16.22 105-25-364.89 269.01-774.56 421.34-1229 457-463.36 31.54-898.69-63.46-1306-285-304.47-169.25-560.13-394.75-767-676.5z"/></svg>