<?xml version="1.0" encoding="UTF-8"?><svg id="Layer_1" xmlns="http://www.w3.org/2000/svg" viewBox="0 0 574.63 574.63"><defs><style>.cls-1{fill:#ed872b;}.cls-1,.cls-2,.cls-3,.cls-4,.cls-5,.cls-6,.cls-7,.cls-8{stroke-width:0px;}.cls-2{fill:#fdc010;}.cls-3{fill:#fede00;}.cls-4{fill:#e40a7b;}.cls-5{fill:#000;opacity:.1;}.cls-6{fill:#231f20;}.cls-9{stroke:#fff;stroke-miterlimit:10;stroke-width:17px;}.cls-9,.cls-8{fill:#fff;}.cls-7{fill:#e8c281;opacity:.35;}</style></defs><path class="cls-4" d="M287.31,554.63c-71.4,0-138.53-27.81-189.02-78.29-50.49-50.49-78.29-117.62-78.29-189.02s27.81-138.53,78.29-189.02c50.49-50.49,117.62-78.29,189.02-78.29s138.53,27.81,189.02,78.29c50.49,50.49,78.29,117.62,78.29,189.02s-27.81,138.53-78.29,189.02c-50.49,50.49-117.62,78.29-189.02,78.29Z"/><path class="cls-8" d="M287.31,40c136.59,0,247.31,110.73,247.31,247.31s-110.73,247.31-247.31,247.31S40,423.9,40,287.31,150.73,40,287.31,40M287.31,0c-38.77,0-76.4,7.6-111.85,22.6-34.22,14.47-64.94,35.18-91.31,61.56-26.37,26.37-47.08,57.1-61.56,91.31C7.6,210.91,0,248.54,0,287.31s7.6,76.4,22.59,111.85c14.47,34.22,35.18,64.94,61.56,91.31,26.37,26.37,57.1,47.08,91.31,61.56,35.45,14.99,73.08,22.6,111.85,22.6s76.4-7.6,111.85-22.6c34.22-14.47,64.94-35.18,91.31-61.56,26.37-26.37,47.08-57.1,61.56-91.31,14.99-35.45,22.6-73.08,22.6-111.85s-7.6-76.4-22.6-111.85c-14.47-34.22-35.18-64.94-61.56-91.31-26.37-26.37-57.1-47.08-91.31-61.56C363.71,7.6,326.08,0,287.31,0h0Z"/><path class="cls-9" d="M550.53,299.38c.07,135.2-131.48,235.8-251.19,177.26-11.94-5.72-23.27-12.87-33.76-21.25-3.01-2.65-6.96-3.46-10.75-2.17-78.69,21.66-168.64-13.88-209.28-84.37-19.02-32.28-26.08-70.17-21.21-107.39,5.33-45.82,23.97-90.36,56.15-123.07,25.58-26.11,57.73-42.69,93.26-48.72,42.11-7.2,87.56.17,124.87,19.53,4.44,2.28,8.79,4.77,13.04,7.35,2.99,1.92,6.43,2.52,9.89,1.49,61.7-16.75,133.25,8.65,176.57,51.09l.14.13c34.81,33.82,52.97,81.34,52.27,130.12Z"/><path class="cls-6" d="M498.26,169.26l-.14-.13c-43.32-42.44-114.87-67.84-176.57-51.09-3.46,1.03-6.9.43-9.89-1.49-4.25-2.58-8.6-5.07-13.04-7.35-37.31-19.36-82.76-26.73-124.87-19.53-35.53,6.03-67.68,22.61-93.26,48.72-32.18,32.71-50.82,77.25-56.15,123.07-4.87,37.22,2.19,75.11,21.21,107.39,40.64,70.49,130.59,106.03,209.28,84.37,3.79-1.29,7.74-.48,10.75,2.17,10.49,8.38,21.82,15.53,33.76,21.25,119.71,58.54,251.26-42.06,251.19-177.26.7-48.78-17.46-96.3-52.27-130.12ZM39.06,218.71c9.07-27.98,23.55-53.09,42.45-73.17l.13-.14c32.73-35.27,79.31-53.47,127.21-52.58,16.77.19,33.26,2.45,49.06,6.69,1.63.48,3.09,1.19,4.2,2.29,1.27,1.24,2.09,2.93,2.71,4.6,1.82,4.93,3.56,9.42,3.72,14.49.67,17.56-14.87,31.95-31.83,33.33-9.23,1.41-17.42-3.36-25.77-6.45-6.83-2.51-16.05-2.36-20.85,3.67-2.02,2.75,1.42.29,2.29-.24,3.1-2.01,6.93-2.97,10.57-3.15,5.27-.14,5.62,3.1,1.05,5.86-4.34,2.65-8.36,6.09-11.59,10.06-6.19,7.55-10.79,16.31-14.42,25.33-3.73,9.28-6.52,18.62-10.4,27.8-4.09,10.45-10.6,20.09-23.31,16.41-12.64-3.73-17.06-18.49-15.66-30.54.59-6.36,2.41-12.38,4.22-18.51,5.37-18.57-13.78-11.54-18.28-.68-6.48,12.46-1.34,26.69-1.95,39.92-.31,10.54-4.68,21.63-13.52,27.82-5.22,3.72-11.69,5.13-18.14,3.88-15.52-2.52-18.97-18.22-13.69-32.35,2.64-7.47,6.69-14.28,9.51-21.66,3.31-7.3,1.51-15.33-6.93-17.42-7.33-1.87-14.22,3.96-16.3,10.72-3.6,9.44,3.16,23.89-8,29.3-4.75,1.79-8.85.84-6.48-5.28ZM252.42,448.5c-14.23,4.03-29.56,5.65-44.66,5.76h-.2c-119.01-.8-206.28-105.65-172.88-222.1,2.07-8.21,10.72-2.67,16.02-9.66,5.59-6.77,2.9-15.99,4.14-23.97.81-6.6,6.47-13.67,13.7-12.17,13.82,3.52,2.65,18.2-1.15,27.56-2.36,5.08-4.55,10.56-5.46,16.21-4.37,23.03,18.4,36.12,37.73,24.81,15.33-9.77,18.14-29.18,15.75-45.87-1.19-10.49-1.26-24.04,8.38-30.61,1.96-1.39,5.45-2.16,5.35,1.35-.54,5.16-3.05,10.44-3.91,15.66-2.84,12.57-1.65,27.61,8.27,36.83,12.91,11.2,28.98,7.22,35.91-8.26,9.93-20.18,13.63-43.97,29.84-60.18,3.37-3.48,8.72-6.87,13.05-6.97,5.23-.39,10.17,1.43,15.51,2.13,4.33.64,9.25.5,13.55-.35,19.78-3.16,36.32-22.42,32.82-42.81-.42-2.9-1.48-6.02-2.29-8.69-1.42-4.29,1.85-3.43,4.36-2.46,10.31,3.84,20.28,8.5,29.69,14.03,2.35,1.48,3.85,3.1.04,4.87-86.49,37.98-127.3,166.92-96.12,253.53,8.33,23.22,21.55,44.52,38.6,62.43,2.23,2.91,8.9,6.88,3.96,8.93Z"/><path class="cls-3" d="M236.71,154.22c-9.23,1.41-17.42-3.36-25.77-6.45-6.83-2.51-16.05-2.36-20.85,3.67-2.02,2.75,1.42.29,2.29-.24,3.1-2.01,6.93-2.97,10.57-3.15,5.27-.14,5.62,3.1,1.05,5.86-4.34,2.65-8.36,6.09-11.59,10.06-6.19,7.55-10.79,16.31-14.42,25.33-3.73,9.28-6.52,18.62-10.4,27.8-4.09,10.45-10.6,20.09-23.31,16.41-12.64-3.73-17.06-18.49-15.66-30.54.59-6.36,2.41-12.38,4.22-18.51,5.37-18.57-13.78-11.54-18.28-.68-6.48,12.46-1.34,26.69-1.95,39.92-.31,10.54-4.68,21.63-13.52,27.82-5.22,3.72-11.69,5.13-18.14,3.88-15.52-2.52-18.97-18.22-13.69-32.35,2.64-7.47,6.69-14.28,9.51-21.66,3.31-7.3,1.51-15.33-6.93-17.42-7.33-1.87-14.22,3.96-16.3,10.72-3.6,9.44,3.16,23.89-8,29.3-4.75,1.79-8.85.84-6.48-5.28,9.07-27.98,23.55-53.09,42.45-73.17l.13-.14c32.73-35.27,79.31-53.47,127.21-52.58,16.77.19,33.26,2.45,49.06,6.69,1.63.48,3.09,1.19,4.2,2.29,1.27,1.24,2.09,2.93,2.71,4.6,1.82,4.93,3.56,9.42,3.72,14.49.67,17.56-14.87,31.95-31.83,33.33Z"/><path class="cls-1" d="M305.98,123.61c-86.49,37.98-127.3,166.92-96.12,253.53,8.33,23.22,21.55,44.52,38.6,62.43,2.23,2.91,8.9,6.88,3.96,8.93-14.23,4.03-29.56,5.65-44.66,5.76h-.2c-119.01-.8-206.28-105.65-172.88-222.1,2.07-8.21,10.72-2.67,16.02-9.66,5.59-6.77,2.9-15.99,4.14-23.97.81-6.6,6.47-13.67,13.7-12.17,13.82,3.52,2.65,18.2-1.15,27.56-2.36,5.08-4.55,10.56-5.46,16.21-4.37,23.03,18.4,36.12,37.73,24.81,15.33-9.77,18.14-29.18,15.75-45.87-1.19-10.49-1.26-24.04,8.38-30.61,1.96-1.39,5.45-2.16,5.35,1.35-.54,5.16-3.05,10.44-3.91,15.66-2.84,12.57-1.65,27.61,8.27,36.83,12.91,11.2,28.98,7.22,35.91-8.26,9.93-20.18,13.63-43.97,29.84-60.18,3.37-3.48,8.72-6.87,13.05-6.97,5.23-.39,10.17,1.43,15.51,2.13,4.33.64,9.25.5,13.55-.35,19.78-3.16,36.32-22.42,32.82-42.81-.42-2.9-1.48-6.02-2.29-8.69-1.42-4.29,1.85-3.43,4.36-2.46,10.31,3.84,20.28,8.5,29.69,14.03,2.35,1.48,3.85,3.1.04,4.87Z"/><path class="cls-1" d="M544.47,303.3v.2c-2.43,130.12-132.36,229.4-251.93,162.86-56.11-31.19-90.42-92.96-87.53-157.68,4.8-82.24,41.81-159.96,116.82-184.43,34.19-10.62,72.75-4.71,105.72,7.3,71.76,25.73,120.42,93.97,116.92,171.75Z"/><path class="cls-2" d="M135.31,117.99c1.58-4.77,5.67-8.41,10.27-10.45s9.68-2.68,14.7-3c4.67-.3,9.55-.3,13.76,1.73,1.4.68,2.75,1.58,4.29,1.78,1.06.14,2.12-.07,3.17-.25,14.31-2.44,28.95.5,43.07,3.84,10.23,2.42,20.56,5.11,29.62,10.44,2.59,1.53,5.15,3.36,6.54,6.03,1.39,2.66,4.32,7.5,2.02,9.44,5.62-3.99,5.8-12.29,5.75-19.08s-3.97-14.15-6.4-16.67c-2.07-2.26-4.5-2.95-9.3-3.67-.85-.13-4.98-1.12-5.82-.94-1.32.29-1.36.1-2.4.97-7.21,6.02-18.38,6.73-26.29,1.66-3.5-2.24-6.49-5.52-10.51-6.59-2.1-.56-4.32-.47-6.49-.35-37.53,2.11-78.19,13.09-106.1,39.52-6.62,6.27-13.57,12.99-19.64,19.78-4.43,4.95-8.4,11.19-12.63,16.27s-4.88,7.47-9.51,15.12c-2.82,4.66-5.05,11.53-7.42,16.43-2.57,5.32-3.8,11.34-6.37,16.65-.47.96-2.22,6.49-.36,7.38,1.44.69,4.82.6,6.28-.06,3.35-1.52,5.59-2.27,6.33-7.04.97-6.23-.52-17.68,1.26-22.16,1.34-3.36,2.43-4.7,4.08-6.56,1.01-1.14,3.08-3.21,4.51-3.73,4.44-1.63,6.34-1.46,11.07-1.28,5.03-8.79,10.86-17.11,17.4-24.84-3.78-2.99-4.59-9.09-1.72-12.96s8.93-4.89,12.9-2.16c5.52-5.71,11.24-11.23,17.16-16.54,1.95-1.75,3.94-3.49,6.19-4.84,3.21-1.92,6.99-2.84,10.59-3.88Z"/><path class="cls-5" d="M62.58,239.65c1.68,30.08,12,59.26,26.85,85.48,4.8,8.48,10.29,16.91,18.31,22.45,7.2,4.97,16.04,11.69,24.72,12.76,25.63,3.16,46.87-10.11,58.79-33.02,6.53-12.54,9.57-23.93,13.6-39.98,8.6,52.75,56.07,101.33,104.84,123.19,48.77,21.86,108.39,17.53,153.48-11.15,14.11-8.97,26.92-20.26,36.26-34.13,26.8-39.8,26.77-94.75,8.88-139.27-13.82-34.37-47.09-70.36-74.72-92.15,19.29,7.05,52.79,25.07,66.44,40.41,11.54,12.97,23.34,25.08,29.28,41.39,16.53,45.33,23.74,85.59,12.58,132.53s-33.91,85.75-74.71,111.5c-10.52,6.64-22.88,18.27-35.14,20.35-11.8,2-21.89,7.8-36.19,9.08-25.83,2.31-29.07,1.75-54.81-1.44-25.74-3.19-58.56-20.1-77.94-43.11-31.51,17.01-79.3,14.42-113.15,2.74-19.46-6.72-35.62-14.98-50.31-25.9-7.18-5.34-15.32-9.59-21.53-15.97-38.16-39.21-57.46-97.83-48.61-149.54,7.47-43.67,22.97-71.32,45.74-107.41-18.09,21.94-14.21,63.64-12.67,91.22Z"/><circle class="cls-2" cx="145.33" cy="165.76" r="4.07"/><path class="cls-8" d="M68.15,239.6c.97,3.33,3.65,5.65,6.48,7.62,5.71,4.22,12.63,5.1,18.84,1.42,3-1.67,5.66-4.05,7.9-6.83l.84.54c-1.72,3.3-4.3,6.2-7.47,8.35-8.77,6.15-19.64,2.83-25.68-5.49-1.1-1.6-1.9-3.52-1.9-5.48l.99-.13h0Z"/><path class="cls-8" d="M133.28,211.95c.17,7.74,6.52,12.65,12.11,17.06,0,0-.49.87-.49.87-7.36-2.28-15.24-9.76-12.61-18.1,0,0,.99.17.99.17h0Z"/><path class="cls-8" d="M194.17,143.61c14.19-5.9,19.09-2.67,32.18,2.71,9.95,3.67,21.32,1.09,29.26-5.93,0,0,.74.68.74.68-6.96,9.15-20.45,12.59-31.14,8.39-5.35-1.98-9.99-4.89-15.03-6.04-5.18-1.25-10.55.07-15.73,1.15,0,0-.29-.96-.29-.96h0Z"/><path class="cls-7" d="M335.73,225.81c-54.57,28.38-66.71,104.65-89.38,61.05-22.67-43.6,3.19-101.94,57.76-130.33,54.57-28.38,117.19-16.05,139.86,27.55,22.67,43.6-53.67,13.34-108.24,41.72Z"/></svg>