<svg xmlns="http://www.w3.org/2000/svg" width="48" height="48" viewBox="0 0 48 48" fill="none">
    <g clip-path="url(#game_clip)">
        <path
            d="M14.03,14.05c-5.12,5.12-4.83,10.29-3.69,13.71,1.23,3.68,3.63,6.11,3.73,6.21.18.18,4.48,4.46,10.32,4.48,3.43,0,6.65-1.47,9.57-4.39l.09-.09c5.15-5.21,4.87-10.38,3.73-13.8-1.23-3.67-3.63-6.07-3.73-6.17-.21-.21-.55-.21-.77,0l-2.4,2.4c-.21.21-.21.55,0,.76.02.02,1.73,1.78,2.57,4.34,1.1,3.36.25,6.48-2.53,9.26l-.03.03c-2.81,2.79-5.93,3.65-9.3,2.55-2.56-.83-4.32-2.54-4.33-2.55-.28-.28-6.68-6.84,0-13.64,2.11-2.14,4.64-4.69,7.52-7.57,1.82-1.82,3.54-3.53,5-4.98h0c.14-.14.19-.34.14-.53-.05-.19-.2-.33-.38-.38-1.35-.36-2.76-.59-4.17-.67-.15,0-.31.05-.42.16-1.9,1.89-5.83,5.82-10.86,10.81l-.05.05Z"
            style="fill:#fff; stroke-width:0px;" />
        <path
            d="M33.13,5.05c-.21-.1-.46-.06-.62.1-1.99,1.98-4.66,4.64-7.22,7.21-2.88,2.88-5.04,5.05-6.42,6.45-4.99,5.06-.05,10.31,0,10.37.05.05,5.25,5.08,10.37,0l.03-.03c5.07-5.07.03-10.29-.02-10.34-.1-.1-.24-.16-.38-.16-.14,0-.28.06-.39.16l-2.53,2.53c-.1.1-.16.24-.16.39,0,.15.06.28.16.39.2.2,1.93,2-.01,4.04-.02.03-.07.07-.07.07-.58.58-1.2.87-1.85.87-1.16,0-2.08-.94-2.1-.96,0,0-.9-.9-.91-2.07,0-.7.32-1.37.95-2,.82-.82,1.36-1.36,1.71-1.71.48-.48.6-.6.63-.63,0,0,9.36-9.36,9.36-9.36l2.02,2.02s2.94,2.97,4.37,7.3c1.9,5.74.43,11.1-4.38,15.93,0,0-.06.06-.06.06-4.79,4.79-10.13,6.26-15.87,4.34-4.33-1.44-7.28-4.37-7.31-4.4-.05-.05-5.18-5.19-5.2-11.96-.02-4,1.74-7.79,5.21-11.27,3.61-3.62,6.21-6.22,8.04-8.06.17-.17.21-.43.09-.64-.11-.21-.35-.32-.58-.28-4.1.81-7.84,2.81-10.81,5.78-8.21,8.21-8.23,21.53-.06,29.7s21.5,8.15,29.7-.06c8.21-8.21,8.23-21.53.06-29.7-1.68-1.68-3.61-3.05-5.75-4.07Z"
            style="fill:#fff; stroke-width:0px;" />
    </g>
    <defs>
        <clipPath id="game_clip">
            <rect width="48" height="48" rx="24" fill="white" />
        </clipPath>
    </defs>
</svg>