<svg xmlns="http://www.w3.org/2000/svg" width="48" height="48" fill="none"><path d="M28.217 5.2c-7.517 0-13.75 6.05-13.75 13.75v.55h27.5v-.55c0-7.517-6.233-13.75-13.75-13.75z" fill="#53CBC8"/><path d="M11.533 22.525c0-.456.37-.825.825-.825h32.083a.825.825 0 1 1 0 1.65H12.358a.825.825 0 0 1-.825-.825zM4.934 26.375c0-.456.396-.825.733-.825h23.43c.337 0 .77.37.77.825 0 .455-.433.825-.77.825H5.667c-.337 0-.733-.37-.733-.825z" fill="#E1147B"/><circle cx="9.425" cy="22.525" r=".825" fill="#E1147B"/><ellipse cx="2.825" cy="26.375" rx=".825" ry=".825" fill="#E1147B"/><path d="M11.35 30.225c0-.456.327-.825.73-.825h28.422c.404 0 .73.369.73.825 0 .455-.326.825-.73.825H12.08c-.403 0-.73-.37-.73-.825zM21.25 34.075c0-.455.327-.825.73-.825h23.29c.403 0 .73.37.73.825 0 .456-.327.825-.73.825H21.98c-.403 0-.73-.369-.73-.825z" fill="#E1147B"/><ellipse cx="9.242" cy="30.225" rx=".825" ry=".825" fill="#E1147B"/><ellipse cx="4.475" cy="34.075" rx=".825" ry=".825" fill="#E1147B"/><path d="M6.583 34.075c0-.455.37-.825.825-.825h11.184a.825.825 0 1 1 0 1.65H7.409a.825.825 0 0 1-.825-.825z" fill="#E1147B"/><ellipse cx="23.542" cy="37.925" rx=".825" ry=".825" fill="#E1147B"/><path d="M25.65 37.925c0-.456.376-.825.84-.825h14.363c.463 0 .84.37.84.825a.832.832 0 0 1-.84.825H26.49a.832.832 0 0 1-.84-.825z" fill="#E1147B"/><ellipse cx="14.742" cy="41.775" rx=".825" ry=".825" fill="#E1147B"/><path d="M16.85 41.775c0-.456.375-.825.839-.825h14.363c.464 0 .84.37.84.825a.832.832 0 0 1-.84.825H17.689a.832.832 0 0 1-.84-.825z" fill="#E1147B"/></svg>