<svg xmlns="http://www.w3.org/2000/svg" width="48" height="48" fill="none"><g clip-path="url(#clip0_1300_1128)"><path d="M0 14C0 6.268 6.268 0 14 0h20c7.732 0 14 6.268 14 14v20c0 7.732-6.268 14-14 14H14C6.268 48 0 41.732 0 34V14z" fill="url(#paint0_linear_1300_1128)"/><path d="M31.686 8.25L21.9 17.061a5.56 5.56 0 0 1-3.7 1.425l-2.917.007-.01-10.242H10v29.27h2.876c1.608 0 3.108-.846 3.895-2.233.007-.01.01-.02.016-.026.522-.93.784-2.766.733-4.02-.113-2.866-.579-3.612-.579-3.612-.097 1.965-2.168 2.072-2.168 2.072 1.473-1.394.67-2.45.67-2.45-2.608 1.841-3.26-.123-3.31-.302.082.07.824.683 2.235-1.232 1.491-2.024 3.48-5.398 4.745-6.265 1.267-.87 2.47-.799 2.47-.799s.692-.93 2.524-1.702c1.83-.768 3.004.359 3.004.359-1.872 1.496-4.414 3.954-4.556 7.476-.114 2.85 6.086 7.74 4.996 14.963.652-1.64.914-3.283.69-5.317-.18-1.641-1.247-5.069-1.247-5.069l5.954 8.152h6.583L26.664 20 39.531 8.25h-7.845z" fill="#fff"/></g><defs><linearGradient id="paint0_linear_1300_1128" x1="48" y1="48" x2=".147" y2="-.146" gradientUnits="userSpaceOnUse"><stop stop-color="#E40C5B"/><stop offset="1" stop-color="#FF4C3B"/></linearGradient><clipPath id="clip0_1300_1128"><rect width="48" height="48" rx="24" fill="#fff"/></clipPath></defs></svg>