<svg xmlns="http://www.w3.org/2000/svg" xmlns:xlink="http://www.w3.org/1999/xlink" viewBox="0 0 100 100"><style>.B{fill-rule:evenodd}.C{filter:url(#A)}.D{stroke:none}.E{fill-opacity:1}.F{fill:#fdfdfd}.G{fill:#f7b4d7}.H{fill:#fefefe}</style><defs><clipPath id="D"><path d="M0 0h100v100H0z"/></clipPath><clipPath id="H"><path d="M0 0h100v100H0z"/></clipPath><clipPath id="L"><path d="M0 0h100v100H0z"/></clipPath><clipPath id="P"><path d="M0 0h100v100H0z"/></clipPath><clipPath id="T"><path d="M0 0h100v100H0z"/></clipPath><clipPath id="X"><path d="M0 0h100v100H0z"/></clipPath><clipPath id="b"><path d="M0 0h100v100H0z"/></clipPath><clipPath id="f"><path d="M0 0h100v100H0z"/></clipPath><clipPath id="j"><path d="M0 0h100v100H0z"/></clipPath><clipPath id="n"><path d="M0 0h100v100H0z"/></clipPath><clipPath id="r"><path d="M0 0h100v100H0z"/></clipPath><clipPath id="v"><path d="M0 0h100v100H0z"/></clipPath><clipPath id="z"><path d="M0 0h100v100H0z"/></clipPath><clipPath id="AD"><path d="M0 0h100v100H0z"/></clipPath><clipPath id="AH"><path d="M0 0h100v100H0z"/></clipPath><clipPath id="AL"><path d="M0 0h100v100H0z"/></clipPath><clipPath id="AP"><path d="M0 0h100v100H0z"/></clipPath><clipPath id="AT"><path d="M0 0h100v100H0z"/></clipPath><clipPath id="AX"><path d="M0 0h100v100H0z"/></clipPath><clipPath id="Ab"><path d="M0 0h100v100H0z"/></clipPath><clipPath id="Af"><path d="M0 0h100v100H0z"/></clipPath><clipPath id="Aj"><path d="M0 0h100v100H0z"/></clipPath><clipPath id="An"><path d="M0 0h100v100H0z"/></clipPath><clipPath id="Ar"><path d="M0 0h100v100H0z"/></clipPath><clipPath id="Av"><path d="M0 0h100v100H0z"/></clipPath><clipPath id="Az"><path d="M0 0h100v100H0z"/></clipPath><clipPath id="BD"><path d="M0 0h100v100H0z"/></clipPath><clipPath id="BH"><path d="M0 0h100v100H0z"/></clipPath><clipPath id="BL"><path d="M0 0h100v100H0z"/></clipPath><clipPath id="BP"><path d="M0 0h100v100H0z"/></clipPath><clipPath id="BT"><path d="M0 0h100v100H0z"/></clipPath><clipPath id="BX"><path d="M0 0h100v100H0z"/></clipPath><clipPath id="Bb"><path d="M0 0h100v100H0z"/></clipPath><clipPath id="Bf"><path d="M0 0h100v100H0z"/></clipPath><clipPath id="Bj"><path d="M0 0h100v100H0z"/></clipPath><clipPath id="Bn"><path d="M0 0h100v100H0z"/></clipPath><clipPath id="Br"><path d="M0 0h100v100H0z"/></clipPath><clipPath id="Bv"><path d="M0 0h100v100H0z"/></clipPath><clipPath id="Bz"><path d="M0 0h100v100H0z"/></clipPath><clipPath id="CD"><path d="M0 0h100v100H0z"/></clipPath><clipPath id="CH"><path d="M0 0h100v100H0z"/></clipPath><clipPath id="CL"><path d="M0 0h100v100H0z"/></clipPath><clipPath id="CP"><path d="M0 0h100v100H0z"/></clipPath><clipPath id="CT"><path d="M0 0h100v100H0z"/></clipPath><clipPath id="CX"><path d="M0 0h100v100H0z"/></clipPath><clipPath id="Cb"><path d="M0 0h100v100H0z"/></clipPath><clipPath id="Cf"><path d="M0 0h100v100H0z"/></clipPath><mask id="C"><use xlink:href="#B" class="C"/></mask><mask id="G"><use xlink:href="#F" class="C"/></mask><mask id="K"><use xlink:href="#J" class="C"/></mask><mask id="O"><use xlink:href="#N" class="C"/></mask><mask id="S"><use xlink:href="#R" class="C"/></mask><mask id="W"><use xlink:href="#V" class="C"/></mask><mask id="a"><use xlink:href="#Z" class="C"/></mask><mask id="e"><use xlink:href="#d" class="C"/></mask><mask id="i"><use xlink:href="#h" class="C"/></mask><mask id="m"><use xlink:href="#l" class="C"/></mask><mask id="q"><use xlink:href="#p" class="C"/></mask><mask id="u"><use xlink:href="#t" class="C"/></mask><mask id="y"><use xlink:href="#x" class="C"/></mask><mask id="AC"><use xlink:href="#AB" class="C"/></mask><mask id="AG"><use xlink:href="#AF" class="C"/></mask><mask id="AK"><use xlink:href="#AJ" class="C"/></mask><mask id="AO"><use xlink:href="#AN" class="C"/></mask><mask id="AS"><use xlink:href="#AR" class="C"/></mask><mask id="AW"><use xlink:href="#AV" class="C"/></mask><mask id="Aa"><use xlink:href="#AZ" class="C"/></mask><mask id="Ae"><use xlink:href="#Ad" class="C"/></mask><mask id="Ai"><use xlink:href="#Ah" class="C"/></mask><mask id="Am"><use xlink:href="#Al" class="C"/></mask><mask id="Aq"><use xlink:href="#Ap" class="C"/></mask><mask id="Au"><use xlink:href="#At" class="C"/></mask><mask id="Ay"><use xlink:href="#Ax" class="C"/></mask><mask id="BC"><use xlink:href="#BB" class="C"/></mask><mask id="BG"><use xlink:href="#BF" class="C"/></mask><mask id="BK"><use xlink:href="#BJ" class="C"/></mask><mask id="BO"><use xlink:href="#BN" class="C"/></mask><mask id="BS"><use xlink:href="#BR" class="C"/></mask><mask id="BW"><use xlink:href="#BV" class="C"/></mask><mask id="Ba"><use xlink:href="#BZ" class="C"/></mask><mask id="Be"><use xlink:href="#Bd" class="C"/></mask><mask id="Bi"><use xlink:href="#Bh" class="C"/></mask><mask id="Bm"><use xlink:href="#Bl" class="C"/></mask><mask id="Bq"><use xlink:href="#Bp" class="C"/></mask><mask id="Bu"><use xlink:href="#Bt" class="C"/></mask><mask id="By"><use xlink:href="#Bx" class="C"/></mask><mask id="CC"><use xlink:href="#CB" class="C"/></mask><mask id="CG"><use xlink:href="#CF" class="C"/></mask><mask id="CK"><use xlink:href="#CJ" class="C"/></mask><mask id="CO"><use xlink:href="#CN" class="C"/></mask><mask id="CS"><use xlink:href="#CR" class="C"/></mask><mask id="CW"><use xlink:href="#CV" class="C"/></mask><mask id="Ca"><use xlink:href="#CZ" class="C"/></mask><mask id="Ce"><use xlink:href="#Cd" class="C"/></mask><g id="E" clip-path="url(#D)"><path d="M46.7 0H53l.1.2-6.4-.1zm0 0" fill="#641243" class="B D E"/></g><g id="I" clip-path="url(#H)"><path d="M30.1 4v.2a.5.5 0 0 0-.3 0h-.1A2.8 2.8 0 0 0 30 4zm0 0" fill="#5A0431" class="B D E"/></g><g id="M" clip-path="url(#L)"><path d="m71.5 5 .4.1h-.3V5zm0 0" fill="#6D193C" class="B D E"/></g><g id="Q" clip-path="url(#P)"><path d="M25.4 6.3v.2h-.2l.2-.2zm0 0" fill="#1E0703" class="B D E"/></g><g id="U" clip-path="url(#T)"><path d="m87.2 16.8.2.2h-.2v-.2zm0 0" fill="#3C0E20" class="B D E"/></g><g id="Y" clip-path="url(#X)"><path d="M12.4 16.9c0 .2-.1.3-.3.3l.2-.3h.1zm0 0" fill="#6F0C35" class="B D E"/></g><g id="c" clip-path="url(#b)"><path d="M91 21.7a.4.4 0 0 1 .1.2H91v-.2zm0 0" fill="#480B29" class="B D E"/></g><g id="g" clip-path="url(#f)"><path d="M7.4 23.7c0 .2-.2.4-.3.5a.4.4 0 0 1 0-.2.9.9 0 0 0 .3-.3zm0 0" fill="#6F0F2E" class="B D E"/></g><g id="k" clip-path="url(#j)"><path d="M6.7 24.7v.2h-.1a.2.2 0 0 0 .1-.2zm0 0" fill="#580A34" class="B D E"/></g><g id="o" clip-path="url(#n)"><path d="M95 28.8a1 1 0 0 1 .2.4.5.5 0 0 0-.2-.2v-.2zm0 0" fill="#66113A" class="B D E"/></g><g id="s" clip-path="url(#r)"><path d="M3.8 30.5v.5h-.2v.1l.2-.6zm0 0" fill="#A30852" class="B D E"/></g><g id="w" clip-path="url(#v)"><path d="M3.5 31.1v.2a.2.2 0 0 1 0 .2V31zm0 0" fill="#611333" class="B D E"/></g><g id="AA" clip-path="url(#z)"><path d="m96.5 32.3.1.3h-.1a.8.8 0 0 0 0-.3zm0 0" fill="#5E1238" class="B D E"/></g><g id="AE" clip-path="url(#AD)"><path d="m1.7 37-.1.4V37zm0 0" fill="#3F0221" class="B D E"/></g><g id="AI" clip-path="url(#AH)"><path d="M1.3 38.5a2.5 2.5 0 0 1-.1.5.8.8 0 0 0 0-.3v-.2zm0 0" fill="#880945" class="B D E"/></g><g id="AM" clip-path="url(#AL)"><path d="M99.1 42.5h.1v.6-.6zm0 0" fill="#3F081D" class="B D E"/></g><g id="AQ" clip-path="url(#AP)"><path d="m.4 43.5-.1.8v-.8zm0 0" fill="#880543" class="B D E"/></g><g id="AU" clip-path="url(#AT)"><path d="m99.3 56.4-.1.3a2 2 0 0 0 0 .4v.1-.8zm0 0" fill="#330917" class="B D E"/></g><g id="AY" clip-path="url(#AX)"><path d="M99 58.3a2.4 2.4 0 0 0-.2.6v-.6h.2zm0 0" fill="#380423" class="B D E"/></g><g id="Ac" clip-path="url(#Ab)"><path d="M1 59.7a1.1 1.1 0 0 0 .2.5 1 1 0 0 0 0 .4l-.2-.9zm0 0" fill="#94014A" class="B D E"/></g><g id="Ag" clip-path="url(#Af)"><path d="M98.6 60a2.4 2.4 0 0 1 0 .4l-.1.4.1-.9zm0 0" fill="#8B0446" class="B D E"/></g><g id="Ak" clip-path="url(#Aj)"><path d="M98.4 61.2a1.2 1.2 0 0 0-.1.4v-.4h.1zm0 0" fill="#0B010A" class="B D E"/></g><g id="Ao" clip-path="url(#An)"><path d="M98 62.4a1.5 1.5 0 0 0 0 .3v-.3zm0 0" fill="#671637" class="B D E"/></g><g id="As" clip-path="url(#Ar)"><path d="M1.7 62.6a1.1 1.1 0 0 1 .1.7 3.6 3.6 0 0 0-.1-.7zm0 0" fill="#890648" class="B D E"/></g><g id="Aw" clip-path="url(#Av)"><path d="m1.8 63.3.1.3-.1-.3zm0 0" fill="#1C0611" class="B D E"/></g><g id="BA" clip-path="url(#Az)"><path d="M97.8 63.4a1 1 0 0 1 0 .1l-.1.3v-.4h.1zm0 0" fill="#3B091A" class="B D E"/></g><g id="BE" clip-path="url(#BD)"><path d="M97 66.2a1 1 0 0 0-.2.3v-.3h.2zm0 0" fill="#060000" class="B D E"/></g><g id="BI" clip-path="url(#BH)"><path d="M96.2 68v.2-.2zm0 0" fill="#1E0706" class="B D E"/></g><g id="BM" clip-path="url(#BL)"><path d="m4.2 69.7.1.4h-.1a.8.8 0 0 1 0-.4zm0 0" fill="#571230" class="B D E"/></g><g id="BQ" clip-path="url(#BP)"><path d="M95.4 69.9v.3h-.1a1 1 0 0 0 .1-.3zm0 0" fill="#310C08" class="B D E"/></g><g id="BU" clip-path="url(#BT)"><path d="M5 71.7H5v.2l-.1-.2zm0 0" fill="#1E0013" class="B D E"/></g><g id="BY" clip-path="url(#BX)"><path d="M92.7 75.2c0 .2-.2.3-.3.5a1.2 1.2 0 0 1 0-.4h.1l.2-.1zm0 0" fill="#A70F51" class="B D E"/></g><g id="Bc" clip-path="url(#Bb)"><path d="m91.7 76.8-.1.2a.6.6 0 0 1 0-.2zm0 0" fill="#570C22" class="B D E"/></g><g id="Bg" clip-path="url(#Bf)"><path d="m88.2 81.5-.3.5.1-.4h.2zm0 0" fill="#600624" class="B D E"/></g><g id="Bk" clip-path="url(#Bj)"><path d="M11.6 81.7a.3.3 0 0 0 .2.1v.2a.3.3 0 0 1-.2-.3zm0 0" fill="#50102D" class="B D E"/></g><g id="Bo" clip-path="url(#Bn)"><path d="M12.8 83.1h.2v.2c-.1 0-.2 0-.2-.2zm0 0" fill="#37091F" class="B D E"/></g><g id="Bs" clip-path="url(#Br)"><path d="M82 87.8a.8.8 0 0 1-.3.3v-.2h.3zm0 0" fill="#510B25" class="B D E"/></g><g id="Bw" clip-path="url(#Bv)"><path d="M22 91.2h.1l.5.3h-.2l-.3-.3zm0 0" fill="#7C0434" class="B D E"/></g><g id="CA" clip-path="url(#Bz)"><path d="m77.2 91.4-.2.2v-.2h.2zm0 0" fill="#3D0B2C" class="B D E"/></g><g id="CE" clip-path="url(#CD)"><path d="M24 92.4c-.1 0-.2 0-.2-.2a1.6 1.6 0 0 1 .2.2zm0 0" fill="#690D3C" class="B D E"/></g><g id="CI" clip-path="url(#CH)"><path d="M28.7 94.9h.2-.2zm0 0" fill="#4B0732" class="B D E"/></g><g id="CM" clip-path="url(#CL)"><path d="M30 95.4h-.2.1zm0 0" fill="#3A071F" class="B D E"/></g><g id="CQ" clip-path="url(#CP)"><path d="M36.6 97.8a2 2 0 0 1 .3 0 .9.9 0 0 1-.3 0zm0 0" fill="#570D33" class="B D E"/></g><g id="CU" clip-path="url(#CT)"><path d="M37.6 98H37c.2-.2.3-.2.4 0h.2zm0 0" fill="#A80F58" class="B D E"/></g><g id="CY" clip-path="url(#CX)"><path d="M62.3 98a.8.8 0 0 1 .4 0h-.4zm0 0" fill="#520B28" class="B D E"/></g><g id="Cc" clip-path="url(#Cb)"><path d="M61.2 98.3h-.5l-.1.2h-.3l.4-.3a1.3 1.3 0 0 0 .5 0zm0 0" fill="#A7094D" class="B D E"/></g><g id="Cg" clip-path="url(#Cf)"><path d="m38.9 98.3.5.1v.1a2 2 0 0 1-.5-.2zm0 0" fill="#5D0F2A" class="B D E"/></g><filter id="A" x="0%" y="0%" width="100%" height="100%"><feColorMatrix in="SourceGraphic" values="0 0 0 0 1 0 0 0 0 1 0 0 0 0 1 0 0 0 1 0"/></filter></defs><use xlink:href="#E" mask="url(#C)"/><path d="m46.7 0 6.4.2h1a.6.6 0 0 1 .3 0 4 4 0 0 0 .7 0l.2.1a36.5 36.5 0 0 1 4 .6h.4a.5.5 0 0 0 .5.2l.8.1.5.2a.4.4 0 0 1 .3 0c.1.1.2.2.4.1l.8.2v.1h.2a6.9 6.9 0 0 0 .8.2.9.9 0 0 0 .4.1l.8.3.3.1 2 .7.3.1 3.1 1.3.2.1a3.7 3.7 0 0 1 .4.3l.2.2.2-.1 1.4.7a.6.6 0 0 0 .2.2l1.3.6 1.8 1.1.1.2.2.1.5.2 1 .7a8.3 8.3 0 0 0 .9.7l1.5 1.2h.1l.5.4.4.4.2.2a6.8 6.8 0 0 1 1.4 1.2 1.3 1.3 0 0 1 .5.3l.7.8.1.1 1.7 1.6a3.9 3.9 0 0 0 .8 1v.2h.2v.1a3 3 0 0 1 .6.7l1 1.2.2.1v.2l.3.4.3.2a.3.3 0 0 0 .2.3v.1a.5.5 0 0 0 .2.3l.1.3h.2l.1.3c0 .1 0 .2.2.2a1.7 1.7 0 0 0 .2.3v.2h.1l.7 1 .4.6h.1c0 .3.2.5.3.6v.2l.6.8.3.7a.4.4 0 0 0 .2.3l1.4 2.7v.2a.5.5 0 0 1 .1.2l.2.3v.2a10.2 10.2 0 0 1 .5 1.1.6.6 0 0 0 .2.3l.4 1.2a.8.8 0 0 1 0 .3h.2v.2l.6 1.7.2.5v.2a.4.4 0 0 1 0 .3l.2.3a7.3 7.3 0 0 1 .3 1 .6.6 0 0 1 .1.3l.2 1a1.1 1.1 0 0 1 0 .2l.2.5a6.4 6.4 0 0 1 .2.9 1.2 1.2 0 0 0 0 .4.5.5 0 0 1 0 .5l.2.1.2 1.8.1.6c.1.2.2.4 0 .6l.2.5v.5l.1.1v.6a20.5 20.5 0 0 1 .2 2.2V52c-.1.5-.2 1-.1 1.6l-.1.8-.1.3a3.2 3.2 0 0 0 0 .6v.2a6 6 0 0 1-.1.8h-.1v.8l-.2 1.1h-.1v.6l-.1.4v.5l-.2.1-.1.9a1.2 1.2 0 0 0 0 .4h-.2v.4l-.1.4-.1.4H98v.3l-.2.7h-.1v.4a1.4 1.4 0 0 1-.2.4v.3l-.4 1.1-.1.6h-.2v.4a1.2 1.2 0 0 0-.2.4v.2a1.8 1.8 0 0 0-.2.6l-.2.2v.2l-.5 1.3-.3.4a1 1 0 0 1-.1.3 4.7 4.7 0 0 1-.5 1v.1a.9.9 0 0 0-.2.5v.1l-.5 1c0-.1 0-.1-.1 0l-.7 1.3-.1.3c-.2 0-.2.1-.2.2a3.7 3.7 0 0 1-.3.5l-.2.2h-.1a1.2 1.2 0 0 0 0 .3l-.4.7-.3.4h-.1a.6.6 0 0 0 0 .2l-.8 1.2a.3.3 0 0 1-.1 0 1 1 0 0 0-.1.3.8.8 0 0 1-.2.2v.2l-.3.3a.8.8 0 0 1-.2.2c0 .1 0 .2-.2.3-.1 0-.2 0-.2.2a17.3 17.3 0 0 1-1.3 1.7H88l-.1.4a.6.6 0 0 0-.3.3v.1l-1 1a9 9 0 0 1-1.3 1.3l-.3.3-.5.5c-.1.2-.2.3-.4.3v.2l-.5.4a.2.2 0 0 0-.2.2l-.2.2-.1.1a1.3 1.3 0 0 0-.3.3l-.8.7h-.3v.2l-.4.3-.2.1-.8.7-.5.3-.8.7a.7.7 0 0 1-.3 0v.2l-.2.1a.4.4 0 0 1-.2.2v.1a.6.6 0 0 1-.2 0l-.4.4-.5.2H77v.2l-.8.5h-.1a3.8 3.8 0 0 0-.4.3l-.3.1-.1.2a.8.8 0 0 0-.3 0 2.1 2.1 0 0 0-.4.2c-.2.3-.5.4-.8.5l-.5.4a1.5 1.5 0 0 0-.6.3h-.1l-.4.2h-.3a7.3 7.3 0 0 1-1.6.9l-.6.2c0 .1 0 .2-.2.1l-.5.3a6 6 0 0 0-.6.2.8.8 0 0 1-.3.2l-3.4 1.2-2 .5a.8.8 0 0 0-.4 0c0 .1-.1.2-.3.2 0-.1 0 0 0 0l-.8.2a1.3 1.3 0 0 1-.5 0l-.4.2-1 .2h-.5a.3.3 0 0 0 0 .1l-1.3.2h-.4l-.3.1a2 2 0 0 1-.3 0 .9.9 0 0 1-.7 0l-.3.1v.1l-5.7.3h-1.5l-2-.2a13.6 13.6 0 0 1-1.2 0h-1v-.2a2.4 2.4 0 0 1-.8-.1h-.5L42 99l-1.2-.2h-.1l-.5-.1-.9-.2-.5-.2h-.4a6.5 6.5 0 0 0-1.1-.3c0-.2-.2-.2-.4 0l-.1-.1a2 2 0 0 0-.3-.1l-1-.2-4.2-1.5-.2-.1-.3-.1-.3-.2a3 3 0 0 1-.8-.4h-.3l-.6-.3s-.1-.1-.2 0l-3-1.6a2 2 0 0 0-.9-.5v-.1a1 1 0 0 1-.4-.1 1.9 1.9 0 0 0-.4-.3 1.6 1.6 0 0 0-.2-.2c-.4-.1-.7-.3-1-.6l-.2-.1-.5-.3v-.1l-.3-.1-3.2-2.3a.8.8 0 0 0-.2-.3l-.5-.3V88a3 3 0 0 0-.5-.3l-.2-.2a1.3 1.3 0 0 0-.5-.4l-.5-.6-.1-.1a1.4 1.4 0 0 0-.3-.3h-.2a.7.7 0 0 0-.2-.3 5 5 0 0 0-.4-.3c0-.2-.2-.3-.3-.4a1.2 1.2 0 0 0-.3-.3h-.1l-.4-.5s0-.2-.2-.2a.3.3 0 0 0-.2-.2l-.1-.1-.3-.4-.1-.1v-.1h-.2a2.2 2.2 0 0 1-.3-.3v-.3h-.1l-.2-.2s0-.2-.2-.2l-.2-.2v-.2a.3.3 0 0 1-.2-.1.5.5 0 0 1-.4-.4l-.9-1.1c0-.1 0-.2-.2-.3a.2.2 0 0 1 0-.1.7.7 0 0 0-.2-.3l-.3-.3-.2-.2-.3-.5-.3-.3a.7.7 0 0 0-.1-.2 6.4 6.4 0 0 1-.3-.6h-.1L8 77H8v-.2a1.4 1.4 0 0 1-.2-.4h-.1v-.2l-.4-.4a1 1 0 0 1-.1-.3.6.6 0 0 0-.2-.1l-.4-.7c0-.2 0-.4-.2-.6l-.2-.1a8 8 0 0 0-.7-1.5l-.1-.1a1.1 1.1 0 0 1-.2-.4v-.2H5a13.8 13.8 0 0 0-.7-1.6l-.1-.3c0-.2-.1-.2-.2-.2l-.1-.3v-.1c0-.1 0-.2-.2-.3a9.2 9.2 0 0 0-.3-1l-.1-.3v-.1a2.2 2.2 0 0 0-.2-.3l-.4-1v-.1a.3.3 0 0 0-.1-.3c0-.3-.1-.5-.3-.7v-.5h-.1a5 5 0 0 0-.3-1v-.3a1.1 1.1 0 0 0-.2-.7l-.4-1.4-.1-.2v-.4a1 1 0 0 1 0-.4 1.1 1.1 0 0 1-.2-.5C.4 57.5.1 55.3 0 53v-6.4a22.4 22.4 0 0 1 .5-3.9L.7 41l.1-.1a3.5 3.5 0 0 1 .2-1 1.3 1.3 0 0 0 0-.4c.1-.1.1-.3 0-.4l.2-.1a2.5 2.5 0 0 0 .1-.4v-.1a3.7 3.7 0 0 1 .1-.7 1.3 1.3 0 0 1 .2-.4v-.5l.3-1 .1-.2.6-2a1.3 1.3 0 0 0 .2-.3l-.1-.1.2-.3.4-1.4.2-.1a.2.2 0 0 0 0-.2v-.2H3.8v-.6l.6-1.2L5 28l.1-.3a5.2 5.2 0 0 1 .4-.8v-.2c.2 0 .2 0 .2-.2l.9-1.7h.1v-.2l.4-.5.3-.5a.5.5 0 0 1 .2-.3l.8-1.4v-.2c.2 0 .3-.1.3-.3A.3.3 0 0 0 9 21H9c0-.2.1-.3.3-.4a.4.4 0 0 0 0-.2h.2a1.1 1.1 0 0 1 0-.3l1-1 .3-.5a1.2 1.2 0 0 1 .4-.5c.1 0 .2-.1.2-.3l.6-.7c.2 0 .3-.1.3-.3a6.6 6.6 0 0 1 .5-.6.9.9 0 0 1 .2-.2c.1 0 .2 0 .1-.2l.5-.4a5.3 5.3 0 0 1 .9-1l.1-.1a.4.4 0 0 1 .2-.2l1.2-1V13a2.1 2.1 0 0 1 .4-.3c.2 0 .3 0 .3-.2l.1-.1.3-.2.3-.2a1.4 1.4 0 0 1 .6-.6 1.8 1.8 0 0 1 .5-.4 2.6 2.6 0 0 0 .3-.4.7.7 0 0 1 .3 0 7.5 7.5 0 0 0 .7-.7l1-.6L22.4 8h.2l2-1.4.3-.1.2-.1h.2v-.2l1.8-.8a.7.7 0 0 1 .4-.3l.5-.2.5-.3h.2l.9-.5a.5.5 0 0 1 .4 0V4l1-.4.1-.1h.1a5.4 5.4 0 0 0 .6-.2l.2-.1.6-.2.3-.1c.7-.3 1.5-.6 2.3-.7a2.1 2.1 0 0 1 .4-.2.8.8 0 0 1 .2 0l.8-.2v-.1l1.2-.3h.2a.7.7 0 0 1 .5 0 .4.4 0 0 1 0-.2h.4l3.1-.6V.5a1.2 1.2 0 0 0 .7 0l1.5-.2H45.2a.9.9 0 0 1 .3-.2h1.2zm0 0" fill="#E5007A" class="B"/><use xlink:href="#I" mask="url(#G)"/><use xlink:href="#M" mask="url(#K)"/><use xlink:href="#Q" mask="url(#O)"/><g class="B"><path d="M51.4 14.8h-3.2l1.5-.2 1.7.2zm0 0" fill="#F48EC3"/><path d="M48.2 14.8h3.2c.3 0 .7 0 1 .2h.9a1.8 1.8 0 0 0 .7.2l1.6.4v.1l.6.2a16.4 16.4 0 0 1 3.4 1.5l.2.2 1 .8a3 3 0 0 0 .4.5.7.7 0 0 1 .2.4h.1l.6.9.3.8a5.7 5.7 0 0 0 0 1.1v.9a5.7 5.7 0 0 1-2.6 3.6c-.1.2-.2.3-.4.3l-.8.5-1 .5-1.7.7a2.7 2.7 0 0 0-.7.2l-1.3.3h-.1l-1.6.2a21 21 0 0 1-2.2.1H48.2a1.2 1.2 0 0 0-.4 0 17 17 0 0 1-7-2l-1.2-1a2.1 2.1 0 0 1-.5-.4 4 4 0 0 1-.3-.4.5.5 0 0 0-.2 0c-.1-.3-.3-.6-.6-.8l-.6-1.3v-.7a7.6 7.6 0 0 1 0-1.9v-.1l.1-.5a5.7 5.7 0 0 1 .5-1c.2-.2.4-.3.5-.6.8-.8 1.8-1.5 2.9-2l.4-.2a7.1 7.1 0 0 0 1.3-.6l1.8-.6 1.8-.3.7-.1a2.4 2.4 0 0 0 .8-.1zm0 0" class="F"/><path d="M48.2 14.8a2.4 2.4 0 0 1-.8 0 8.3 8.3 0 0 1 .8 0zm0 0" class="G"/><path d="M51.4 14.8a4.8 4.8 0 0 1 1.4.2h-.4a9 9 0 0 0-1-.2zm0 0" fill="#F491C4"/><path d="M47.4 14.9a2 2 0 0 1-.7 0h.7zm0 0" fill="#F7B2D6"/><path d="m53.3 15 .7.2a1.8 1.8 0 0 1-.7-.1zm0 0" fill="#F381BC"/><path d="m55.6 15.6.6.3-.6-.2zm0 0" fill="#F7AFD4"/></g><use xlink:href="#U" mask="url(#S)"/><use xlink:href="#Y" mask="url(#W)"/><g class="B"><path d="m37.5 20.3-.1.5.1-.5zm0 0" fill="#F69FCC"/><path d="M37.4 20.9a7.6 7.6 0 0 0-.1 1.9v-.1a5.7 5.7 0 0 1 0-1.8zm0 0" fill="#F8BCDB"/></g><use xlink:href="#c" mask="url(#a)"/><path d="M62.4 21v1.8a.5.5 0 0 1 0 .2V22a5.7 5.7 0 0 1 0-1.1zm0 0" fill="#F8BADA" class="B"/><use xlink:href="#g" mask="url(#e)"/><g class="B"><path d="M30 24.4a11.5 11.5 0 0 0-1.2 0h1.3zm0 0" fill="#F27EBB"/><path d="M28.8 24.4a2 2 0 0 1-.6.2.8.8 0 0 1 .6-.2zm0 0" fill="#F59BCA"/><path d="M30 24.4a5.3 5.3 0 0 1 3.9 2.3l.5 1 .4 1.7v2.3a5.7 5.7 0 0 0-.2 1.3l-.4 1.8a9.4 9.4 0 0 1-.3 1l-.3 1-.1.4-.5 1-.3.8a20.7 20.7 0 0 1-7.2 7.5l-1 .5a3.1 3.1 0 0 0-.8.3h-.5v.1a.3.3 0 0 1-.3 0h-1.3a2 2 0 0 0-.6 0l-1.2-.3c-.7-.4-1.3-.9-1.7-1.5l-.6-1a6.7 6.7 0 0 1-.5-1.9 8.9 8.9 0 0 0-.1-1v-1.4a1.4 1.4 0 0 1 0-.5 2 2 0 0 0 .1-.6l.3-1.5v-.3h.1a9.8 9.8 0 0 1 .2-.9 30.4 30.4 0 0 1 .8-2.4l.8-1.6 1.1-1.7 1.7-2.1a44 44 0 0 1 1.7-1.5 27.2 27.2 0 0 1 3-2 6.1 6.1 0 0 0 .8-.5 5.3 5.3 0 0 1 .7-.1l.6-.2a11.5 11.5 0 0 1 1.3 0zm0 0" class="F"/><path d="M70.7 24.5h.6l.3.1a15.2 15.2 0 0 1 5.1 3.1h.1c.1.3.3.5.5.5v.2a18.2 18.2 0 0 1 2.1 2.5l1.5 2.7a.6.6 0 0 0 0 .3l.4.6a18.7 18.7 0 0 1 1.5 5.2v2.2s-.1 0 0 .1l-.3 1.9a6 6 0 0 1-1.7 2.5 1.6 1.6 0 0 0-.5.4 3.8 3.8 0 0 1-1 .5l-.4.1a2.4 2.4 0 0 0-.5 0v.1H78l-1-.2a8.3 8.3 0 0 0-1 0l-.4-.3H75a9 9 0 0 0-.8-.5H74a3 3 0 0 1-.5-.3l-2.2-1.7a24 24 0 0 1-2.7-3c0-.2-.1-.2-.2-.3-.8-1.3-1.6-2.6-2.2-4l-1-3.3-.3-1.7a14 14 0 0 1 .1-3.5 5.3 5.3 0 0 1 2.7-3.8l1.3-.5h1.6zm0 0" class="H"/><path d="M70.7 24.5a1.1 1.1 0 0 1 .6 0h-.6zm0 0" fill="#F48CC1"/></g><use xlink:href="#k" mask="url(#i)"/><g class="B"><path d="M38.6 25.6a.5.5 0 0 1 .2 0 4 4 0 0 0 .3.4 1.9 1.9 0 0 1-.5-.4zm0 0" fill="#F8B8D9"/><path d="M58.6 27.4v.1l-1 .4 1-.5zm0 0" fill="#F273B2"/><path d="M56 28.6a2 2 0 0 1-.8.2 2.7 2.7 0 0 1 .7-.2zm0 0" fill="#F490C4"/><path d="m55.2 28.8-1.3.3 1.3-.3zm0 0" fill="#F487BD"/></g><use xlink:href="#o" mask="url(#m)"/><g class="B"><path d="m53.8 29.1-.4.2a7 7 0 0 1-1 0v.1h-.7.5l1.6-.3zm0 0" fill="#F276B6"/><path d="M47.8 29.4a1.2 1.2 0 0 1 .4 0H50a21 21 0 0 0 2.2 0h-.5a27.2 27.2 0 0 1-3.9 0zm0 0" fill="#F8BDDC"/><path d="M65.1 28.7a14 14 0 0 0-.1 3.5V28.7l.1-.1zm0 0" fill="#F284BD"/><path d="M34.8 29.4v1a6.7 6.7 0 0 1 0 1.3v-2.3zm0 0" fill="#F280BC"/></g><use xlink:href="#s" mask="url(#q)"/><use xlink:href="#w" mask="url(#u)"/><use xlink:href="#AA" mask="url(#y)"/><g class="B"><path d="M34.7 31.7a5.6 5.6 0 0 1-.1 1.3 5.7 5.7 0 0 1 .1-1.3zm0 0" fill="#F170B2"/><path d="m34.6 33-.3 1.5a.6.6 0 0 1-.1.3l.4-1.8zm0 0" fill="#EF5CA4"/><path d="M81 33.6a2 2 0 0 1 .3.9l-.3-.6a.6.6 0 0 1 0-.3zm0 0" fill="#F487BE"/><path d="M34 35.8c0 .4-.2.7-.4 1l.3-1zm0 0" fill="#F062A9"/></g><use xlink:href="#AE" mask="url(#AC)"/><g class="B"><path d="m17.6 36.5-.2.9a1.8 1.8 0 0 1 .2-.9zm0 0" fill="#FACBE3"/><path d="m33.5 37.2-.4 1 .4-1zm0 0" fill="#F277B6"/><path d="m17.3 37.7-.3 1.5.2-1.3a2 2 0 0 1 0-.2zm0 0" fill="#F06CAC"/></g><use xlink:href="#AI" mask="url(#AG)"/><g class="B"><path d="M46.7 39.7v8.4l.2-.1 6.6-8.5H57.3c.4 0 .5.3.2.7l-6.7 8.4a187.4 187.4 0 0 0 5.9.1c.7.2 1 .6 1 1.4a1.2 1.2 0 0 1-1 .8 204 204 0 0 0-6.2 0l7.8 8.5c.1.4 0 .6-.3.8a34 34 0 0 1-3.6 0l-7.2-7.6h-.4v7.2c0 .2-.2.3-.4.4a45.3 45.3 0 0 1-3 0l-.3-.4v-9h-3c-.7 0-1-.3-1-1s.4-1 1-1h3v-9.1a.6.6 0 0 1 .4-.3h2.8c.2 0 .3.2.4.3zm0 0" class="H"/><path d="M82.6 38.2a9.5 9.5 0 0 1 .2 1.5l-.2-1.5zm0 0" fill="#F387BF"/><path d="M17 39.2a2 2 0 0 1-.1.6l.1-.6zm-.1 1.1v1.3a4.7 4.7 0 0 1 0-1.3zm0 0" fill="#F6B2D6"/><path d="m68.5 41.2.2.2a.4.4 0 0 1-.2-.2zm0 0" fill="#F598C7"/><path d="M16.9 41.7a8.9 8.9 0 0 1 .1 1 4.1 4.1 0 0 1-.1-1zm0 0" fill="#F7B6D8"/></g><use xlink:href="#AM" mask="url(#AK)"/><path d="m82.8 41.9-.1 1.5a2.1 2.1 0 0 1-.2.5l.3-1.9c-.1 0 0-.1 0-.1zm0 0" fill="#F37EB9" class="B"/><use xlink:href="#AQ" mask="url(#AO)"/><g class="B"><path d="M46.7 39.8V48h.2-.2v-8.2zm0 0" fill="#FACBE4"/><path d="m46.7 39.7.2 8.2-.1.1V39.7zm0 0" fill="#D82885"/><path d="M24.5 47a.3.3 0 0 1-.3.2 2.3 2.3 0 0 1-.5 0 3.1 3.1 0 0 1 .8-.2zm0 0" fill="#F065AB"/><path d="M23.7 47.3a1.6 1.6 0 0 1-.6.1h.1l.5-.1zm0 0" fill="#F37FBA"/><path d="M76 47.2a8.3 8.3 0 0 1 1 .1l1 .2a1.6 1.6 0 0 1-.5 0l-.6-.1h-.2l-.7-.2zm0 0" fill="#F380BA"/><path d="M21 47.4a2 2 0 0 1 .6 0h-.4a.2.2 0 0 1-.2 0zm0 0" fill="#F6ABD3"/><path d="M79 47.4a1.9 1.9 0 0 1-.6.1 2.4 2.4 0 0 1 .5 0zm0 0" fill="#F6AFD5"/><path d="M79.3 47.3a2.3 2.3 0 0 1-1.2.3 2.8 2.8 0 0 1-.5 0v-.1a1.6 1.6 0 0 0 .4 0h.4a1.9 1.9 0 0 0 .5 0c.1-.2.2-.2.4-.2zm0 0" fill="#EE54A0"/><path d="M21.2 47.5H22.9a1.6 1.6 0 0 1-.8.1h-.7l-.2-.1zm0 0" fill="#ED4F9D"/><path d="M43.1 39.7v9h-3 3v-9zm0 0" fill="#F395C6"/><path d="m50.8 48.6 5.9.1a187.4 187.4 0 0 1-6 0h.1zm5.9 2.3h-6.2 6.2zm0 0" fill="#F07EBA"/><path d="M22 52.1a2.3 2.3 0 0 1 .8.2l-.7-.1zm0 0" fill="#F599C9"/><path d="m79 52.3-.7-.1h-.9a3.5 3.5 0 0 1 1.5 0zm0 0" fill="#F8C2DE"/><path d="M22 52.1a.2.2 0 0 0 .1 0l.7.2a4.7 4.7 0 0 1 1.2.2 13.4 13.4 0 0 1 5.8 4 24.5 24.5 0 0 1 4.4 8 12.1 12.1 0 0 0 .3 1.2l.1.9a3 3 0 0 0 .1.7v.4a3 3 0 0 1 0 .8V70a8 8 0 0 1-.6 2.5l-.3.6a9.6 9.6 0 0 1-.8 1 3.5 3.5 0 0 1-.4.2v.1c-.7.5-1.5.8-2.3.9A10 10 0 0 1 28 75l-1.4-.6v-.1a7.1 7.1 0 0 1-.8-.3.7.7 0 0 0-.4-.2 20.3 20.3 0 0 1-2.6-2l-1.4-1.4a25.7 25.7 0 0 1-3.3-5.5l-1-2.8L17 60a20 20 0 0 1 0-2.9l.2-1a5.8 5.8 0 0 1 1.9-3 4.8 4.8 0 0 1 1-.6.5.5 0 0 0 .3-.2 6.5 6.5 0 0 1 1.7-.2zm55.4 0h.9l.6.2a4.6 4.6 0 0 1 2.9 2 6.8 6.8 0 0 1 .8 1.9l.2 1.3a11.7 11.7 0 0 1-.1 2.8l-.3 1.1v.5a1 1 0 0 0-.2.5 6.7 6.7 0 0 1-.2.7 5.3 5.3 0 0 0-.2.7l-.3 1.1-.2.2a3.5 3.5 0 0 0-.2.7 19.4 19.4 0 0 0-1 2 2.2 2.2 0 0 0-.4.5l-.7.9a2 2 0 0 1-.3.5s-.1.1-.2 0a10.5 10.5 0 0 1-1.4 1.8l-1.9 1.6a1.1 1.1 0 0 1-.3.2 9.8 9.8 0 0 1-3.7 1.9h-.4a6 6 0 0 1-1.5 0h-.1a1.6 1.6 0 0 0-.8-.2 5.3 5.3 0 0 1-3.2-3.4A14.5 14.5 0 0 1 65 67a12.7 12.7 0 0 0 .2-1.6c.4-1.6 1-3.2 1.7-4.8l1.4-2.1a23.5 23.5 0 0 1 5.3-5.1 9.7 9.7 0 0 1 3.7-1.2zm0 0" class="F"/><path d="M20.3 52.4a.5.5 0 0 1-.3 0 .3.3 0 0 1 .3 0zm0 0" fill="#F497C7"/><path d="M47.2 52.6h-.4v7.2-7.2h.4zm0 0" fill="#D82C86"/><path d="m17.1 56-.2 1.1c0-.3 0-.7.2-1zm0 0" fill="#F279B7"/></g><use xlink:href="#AU" mask="url(#AS)"/><path d="M40.1 50.9h3v8.9-8.9a46.6 46.6 0 0 1-3 0zm0 0" fill="#F5A8D0" class="B"/><use xlink:href="#AY" mask="url(#AW)"/><use xlink:href="#Ac" mask="url(#Aa)"/><use xlink:href="#Ag" mask="url(#Ae)"/><use xlink:href="#Ak" mask="url(#Ai)"/><g class="B"><path d="m82.7 60.3-.3 1.5v-.4l.3-1zm0 0" fill="#F27AB7"/><path d="M82.3 62a.8.8 0 0 1 0 .4 1 1 0 0 1 0-.5zm0 0" fill="#F59FCC"/></g><use xlink:href="#Ao" mask="url(#Am)"/><use xlink:href="#As" mask="url(#Aq)"/><use xlink:href="#Aw" mask="url(#Au)"/><use xlink:href="#BA" mask="url(#Ay)"/><g class="B"><path d="M82 63.1a1.5 1.5 0 0 1-.2.7 5.3 5.3 0 0 1 .2-.7zm0 0" fill="#F6A4CF"/><path d="M81.3 65.1a1.9 1.9 0 0 1-.2.7 3.5 3.5 0 0 1 .2-.7zm0 0" fill="#F27CB8"/><path d="M65.3 65.4a12.7 12.7 0 0 1-.2 1.6 8.1 8.1 0 0 1 .2-1.5zm0 0" fill="#EF5FA6"/><path d="M34.5 65.8c.1.2.2.5.1.8l-.1-.9zm0 0" fill="#F27AB8"/></g><use xlink:href="#BE" mask="url(#BC)"/><path d="m34.6 66.6.1.7a3 3 0 0 1 0-.7zm0 0" fill="#F278B7" class="B"/><use xlink:href="#BI" mask="url(#BG)"/><path d="M34.7 67.6a18 18 0 0 1 0 1.9v.4-1.4a3 3 0 0 0 0-.8v-.1zm0 0" fill="#F389C1" class="B"/><use xlink:href="#BM" mask="url(#BK)"/><use xlink:href="#BQ" mask="url(#BO)"/><g class="B"><path d="m50.3 70.1-2.3.1a13.5 13.5 0 0 1 1.8-.1 2.5 2.5 0 0 1 .5 0zm0 0" fill="#EE58A6"/><path d="m50.3 70.1.5.1h-1.7l-2.3.2a5.3 5.3 0 0 1 1.2-.2h2.3zm0 0" fill="#F8C0DD"/><path d="M50.8 70.2a3.4 3.4 0 0 1 .8 0l.4.2a.4.4 0 0 1 .4 0h.7l1 .2 1.4.3c2 .6 3.9 1.6 5.5 3l.6.8c.4.6.7 1.2.8 1.8l.1 1.4a5.6 5.6 0 0 1-1.3 2.9 9 9 0 0 1-2.8 2 .5.5 0 0 1-.2.2l-1.9.9-1.2.3-1.2.3h-.2a15.3 15.3 0 0 1-2.1.3 285.3 285.3 0 0 0-2.6 0h-.4A21.3 21.3 0 0 1 44 84l-1.1-.3a2.4 2.4 0 0 0-.5-.2c-1.2-.5-2.3-1.2-3.3-2a6.8 6.8 0 0 1-1.8-2.7c-.2-.7-.2-1.3-.1-2a2.6 2.6 0 0 0 .1-.6l.2-.6.4-.7h.1a.5.5 0 0 1 0-.2 8 8 0 0 1 1.5-1.5 12.3 12.3 0 0 1 2.1-1.3 1.8 1.8 0 0 0 .6-.3 4.2 4.2 0 0 1 .7-.3 5.7 5.7 0 0 1 1.1-.3l.8-.2v-.1a10.3 10.3 0 0 1 1.9-.3l2.3-.2h1.7zm0 0" class="F"/><path d="M51.6 70.3h.8a.4.4 0 0 1 .2 0l-.2.1a.4.4 0 0 0-.4 0l-.4-.1zm0 0" class="G"/><path d="M53 70.4c.4 0 .7 0 1 .2-.3 0-.6 0-1-.2zm0 0" fill="#F9CBE3"/><path d="M54.1 70.6a4.3 4.3 0 0 1 1.2.2l.2.1-1.3-.2v-.1zm0 0" fill="#F061A8"/><path d="M45 70.7h-.1l-.8.3v-.1l.8-.2zm0 0" fill="#F8BDDB"/><path d="M65 67a14.5 14.5 0 0 0 .2 4.6l-.2-.8a9.8 9.8 0 0 1 0-3.4.7.7 0 0 1 0-.4zm0 0" fill="#EF5AA5"/></g><use xlink:href="#BU" mask="url(#BS)"/><g class="B"><path d="M42.3 71.6a1.8 1.8 0 0 1-.6.3l.6-.3zm0 0" fill="#F7AED4"/><path d="M33 74a.7.7 0 0 1-.4.4v-.2a3.5 3.5 0 0 0 .4-.2zm0 0" fill="#F596C6"/><path d="M68.4 75c.3 0 .6 0 .8.2l-.8-.2zm0 0" fill="#F7AED3"/><path d="m28.8 75.1 1.5.1H29l-.3-.1zm0 0" fill="#EF60AA"/><path d="M69.3 75.2h1.5a2 2 0 0 1-.7 0 2 2 0 0 1-.8 0zm0 0" fill="#F59CCB"/></g><use xlink:href="#BY" mask="url(#BW)"/><path d="M37.4 76.2a2.6 2.6 0 0 1-.1.6l.1-.6zm0 0" fill="#F6A7D0" class="B"/><use xlink:href="#Bc" mask="url(#Ba)"/><path d="m62.4 76.5.1.6a2.6 2.6 0 0 1 0 .8v-1.4zm0 0" fill="#F8B6D8" class="B"/><use xlink:href="#Bg" mask="url(#Be)"/><use xlink:href="#Bk" mask="url(#Bi)"/><use xlink:href="#Bo" mask="url(#Bm)"/><g class="B"><path d="M42.5 83.5a2.4 2.4 0 0 1 .4.1v.1a1 1 0 0 1-.4-.2zm0 0" fill="#F27BB7"/><path d="m44.4 84.1.3.1h-.3zm0 0" fill="#F59ACA"/><path d="M55.1 84.2c-.4.2-.9.4-1.4.4 0-.1.1-.1.2 0l1.2-.4zm0 0" fill="#F278B6"/><path d="M51.6 84.8h-.3a28.7 28.7 0 0 1-2.3 0h2.6zm0 0" fill="#F9CCE4"/><path d="M48.6 84.8H51.3 49a1.4 1.4 0 0 1-.4 0zm0 0" fill="#F283BD"/></g><use xlink:href="#Bs" mask="url(#Bq)"/><use xlink:href="#Bw" mask="url(#Bu)"/><use xlink:href="#CA" mask="url(#By)"/><use xlink:href="#CE" mask="url(#CC)"/><use xlink:href="#CI" mask="url(#CG)"/><use xlink:href="#CM" mask="url(#CK)"/><use xlink:href="#CQ" mask="url(#CO)"/><use xlink:href="#CU" mask="url(#CS)"/><use xlink:href="#CY" mask="url(#CW)"/><use xlink:href="#Cc" mask="url(#Ca)"/><use xlink:href="#Cg" mask="url(#Ce)"/></svg>