<svg xmlns="http://www.w3.org/2000/svg" width="48" height="48" fill="none"><g clip-path="url(#clip0_1927_4428)"><g clip-path="url(#clip1_1927_4428)"><circle cx="23.947" cy="24.064" r="24.693" transform="rotate(-30 23.947 24.064)" fill="#0085FF"/><circle cx="23.947" cy="24.064" r="24.693" transform="rotate(-30 23.947 24.064)" fill="url(#paint0_linear_1927_4428)"/><mask id="a" style="mask-type:alpha" maskUnits="userSpaceOnUse" x="-1" y="-1" width="50" height="50"><circle cx="23.947" cy="24.064" r="24.693" transform="rotate(-30 23.947 24.064)" fill="#fff"/></mask><path fill-rule="evenodd" clip-rule="evenodd" d="M42.648 24.056L23.629 5.037 4.61 24.056 23.63 43.074l19.019-19.018zm-8.137-6.039L23.629 7.135 12.747 18.017a8.98 8.98 0 0 0 0 12.7l2.368 2.367c4.702 4.702 12.326 4.702 17.028 0l2.368-2.368a8.98 8.98 0 0 0 0-12.699z" fill="#fff"/><path fill-rule="evenodd" clip-rule="evenodd" d="M30.605 15l-6.976-6.976L16.653 15a6.81 6.81 0 0 0 0 9.631c3.853 3.853 10.1 3.853 13.952 0a6.81 6.81 0 0 0 0-9.63zM23.629 4.981L15.13 13.48a8.962 8.962 0 0 0 0 12.674c4.694 4.693 12.302 4.693 16.995 0 3.5-3.5 3.5-9.174 0-12.674L23.63 4.98z" fill="#fff"/><path fill-rule="evenodd" clip-rule="evenodd" d="M30.605 15l-6.976-6.976L16.653 15a6.81 6.81 0 0 0 0 9.631c3.853 3.853 10.1 3.853 13.952 0a6.81 6.81 0 0 0 0-9.63zM23.629 4.981L15.13 13.48a8.962 8.962 0 0 0 0 12.674c4.694 4.693 12.302 4.693 16.995 0 3.5-3.5 3.5-9.174 0-12.674L23.63 4.98z" fill="#fff"/><path fill-rule="evenodd" clip-rule="evenodd" d="M28.25 12.6l-4.621-4.62-4.62 4.62a4.463 4.463 0 0 0 0 6.311 6.535 6.535 0 0 0 9.24 0 4.463 4.463 0 0 0 0-6.31zm-4.621-6.903l-5.762 5.762a6.077 6.077 0 0 0 0 8.593 8.148 8.148 0 0 0 11.524 0 6.077 6.077 0 0 0 0-8.593l-5.762-5.762z" fill="#fff"/><path fill-rule="evenodd" clip-rule="evenodd" d="M28.25 12.6l-4.621-4.62-4.62 4.62a4.463 4.463 0 0 0 0 6.311 6.535 6.535 0 0 0 9.24 0 4.463 4.463 0 0 0 0-6.31zm-4.621-6.903l-5.762 5.762a6.077 6.077 0 0 0 0 8.593 8.148 8.148 0 0 0 11.524 0 6.077 6.077 0 0 0 0-8.593l-5.762-5.762z" fill="#fff"/></g></g><defs><linearGradient id="paint0_linear_1927_4428" x1="30.193" y1="-4.003" x2="3.52" y2="42.197" gradientUnits="userSpaceOnUse"><stop offset=".232" stop-color="#0085FF"/><stop offset="1" stop-color="#2C4EFF"/></linearGradient><clipPath id="clip0_1927_4428"><rect width="48" height="48" rx="24" fill="#fff"/></clipPath><clipPath id="clip1_1927_4428"><path fill="#fff" transform="translate(-.745 -.745)" d="M0 0h49.489v49.489H0z"/></clipPath></defs></svg>