<svg xmlns="http://www.w3.org/2000/svg" width="48" height="48" viewBox="0 0 48 48">
    <path fill="#32253e" d="M24 0c13.254 0 24 10.746 24 24S37.254 48 24 48 0 37.254 0 24 10.746 0 24 0Zm0 0" />
    <path fill="#dae9eb"
        d="M24.902 9.188c-6.425-.11-11.922 5.136-12.07 11.562a11.862 11.862 0 0 0 5.547 10.352c.16.097.383.035.469-.137l2.672-5.324a2.447 2.447 0 0 0-.149-2.446 3.89 3.89 0 0 1-.633-2.187 3.965 3.965 0 0 1 3.73-3.903 3.963 3.963 0 0 1 4.165 4.262c-.149 1.926-1.703 3.469-3.621 3.633h-.035a2.476 2.476 0 0 0-2.051 1.355l-2.668 5.313a.324.324 0 0 0 .172.445 12.09 12.09 0 0 0 4.34.79c6.484-.036 11.785-5.364 11.785-11.848.011-6.485-5.188-11.758-11.649-11.871Zm0 0" />
    <path fill="#dae9eb" d="M20.738 36.86a3.953 3.953 0 1 1-7.905 0 3.953 3.953 0 0 1 7.905 0Zm0 0" />
</svg>