<svg width="64" height="64" viewBox="0 0 64 64" fill="none" xmlns="http://www.w3.org/2000/svg">
<rect width="64" height="64" rx="32" fill="white"/>
<path fill-rule="evenodd" clip-rule="evenodd" d="M39.4504 15.4255C39.4504 17.8696 36.0437 19.8509 31.8412 19.8509C27.6388 19.8509 24.2321 17.8696 24.2321 15.4255C24.2321 12.9813 27.6388 11 31.8412 11C36.0437 11 39.4504 12.9813 39.4504 15.4255ZM39.4504 48.7707C39.4504 51.2148 36.0437 53.1961 31.8412 53.1961C27.6388 53.1961 24.2321 51.2148 24.2321 48.7707C24.2321 46.3265 27.6388 44.3452 31.8412 44.3452C36.0437 44.3452 39.4504 46.3265 39.4504 48.7707ZM21.2371 25.9769C23.3383 22.3376 23.3247 18.396 21.2067 17.1732C19.0886 15.9503 15.6682 17.9092 13.567 21.5485C11.4658 25.1878 11.4795 29.1293 13.5975 30.3522C15.7155 31.5751 19.1359 29.6162 21.2371 25.9769ZM50.0842 33.8452C52.2008 35.0672 52.2133 39.0081 50.1121 42.6474C48.0109 46.2867 44.5917 48.2463 42.4751 47.0242C40.3585 45.8022 40.346 41.8613 42.4472 38.222C44.5484 34.5827 47.9676 32.6231 50.0842 33.8452ZM21.208 47.0231C23.3261 45.8002 23.3397 41.8586 21.2385 38.2193C19.1373 34.58 15.7169 32.6211 13.5989 33.844C11.4808 35.0669 11.4672 39.0085 13.5684 42.6478C15.6696 46.2871 19.09 48.246 21.208 47.0231ZM50.1139 21.5508C52.2152 25.1901 52.2027 29.1311 50.0861 30.3531C47.9695 31.5752 44.5503 29.6156 42.449 25.9763C40.3478 22.337 40.3603 18.3961 42.4769 17.174C44.5935 15.952 48.0127 17.9115 50.1139 21.5508Z" fill="#E6007A"/>
<path d="M52 63C58.0751 63 63 58.0751 63 52C63 45.9249 58.0751 41 52 41C45.9249 41 41 45.9249 41 52C41 58.0751 45.9249 63 52 63Z" fill="url(#paint0_linear_19740_130866)" stroke="white" stroke-width="2"/>
<path d="M51.5842 56.376L47.5184 50.2774C47.2969 49.9451 47.5351 49.5 47.9344 49.5H49.7422C49.904 49.5 50.0559 49.5783 50.1497 49.7102L51.5927 51.7395C51.792 52.0198 52.2083 52.0198 52.4077 51.7395L53.8507 49.7102C53.9445 49.5783 54.0963 49.5 54.2582 49.5H56.0659C56.4653 49.5 56.7035 49.9451 56.4819 50.2773L52.4162 56.376C52.2183 56.6728 51.7821 56.6728 51.5842 56.376Z" fill="white"/>
<path fill-rule="evenodd" clip-rule="evenodd" d="M41.7562 58.2534C38.7182 59.3828 35.4312 60 32 60C16.536 60 4 47.464 4 32C4 16.536 16.536 4 32 4C47.464 4 60 16.536 60 32C60 35.4312 59.3828 38.7182 58.2534 41.7562C59.4738 42.5028 60.5505 43.4614 61.4322 44.5807C63.085 40.719 64 36.4664 64 32C64 14.3269 49.6731 0 32 0C14.3269 0 0 14.3269 0 32C0 49.6731 14.3269 64 32 64C36.4664 64 40.719 63.085 44.5807 61.4322C43.4614 60.5505 42.5028 59.4738 41.7562 58.2534Z" fill="url(#paint1_linear_19740_130866)"/>
<defs>
<linearGradient id="paint0_linear_19740_130866" x1="52" y1="42" x2="52" y2="62" gradientUnits="userSpaceOnUse">
<stop stop-color="#7AEDCF"/>
<stop offset="0.201333" stop-color="#68CEFA"/>
<stop offset="0.403244" stop-color="#689CF8"/>
<stop offset="0.602076" stop-color="#AC57C0"/>
<stop offset="0.801867" stop-color="#E65659"/>
<stop offset="1" stop-color="#F2C241"/>
</linearGradient>
<linearGradient id="paint1_linear_19740_130866" x1="32.0001" y1="0" x2="32.0001" y2="64" gradientUnits="userSpaceOnUse">
<stop stop-color="#7AEDCF"/>
<stop offset="0.201333" stop-color="#68CEFA"/>
<stop offset="0.403244" stop-color="#689CF8"/>
<stop offset="0.602076" stop-color="#AC57C0"/>
<stop offset="0.801867" stop-color="#E65659"/>
<stop offset="1" stop-color="#F2C241"/>
</linearGradient>
</defs>
</svg>
