<svg xmlns="http://www.w3.org/2000/svg" width="48" height="49"><defs><linearGradient id="a" gradientUnits="userSpaceOnUse" x1="20" y1=".916" x2="20" y2="40.916"><stop offset="0" stop-color="#7aedcf"/><stop offset=".201" stop-color="#68cefa"/><stop offset=".403" stop-color="#689cf8"/><stop offset=".602" stop-color="#ac57c0"/><stop offset=".802" stop-color="#e65659"/><stop offset="1" stop-color="#f2c241"/></linearGradient></defs><path d="M24 1.094c13.254 0 24 10.703 24 23.902C48 38.2 37.254 48.898 24 48.898S0 38.2 0 24.996c0-13.2 10.746-23.902 24-23.902zm0 0" fill="#fff"/><path d="M29.59 12.617c0 1.824-2.559 3.305-5.707 3.305-3.153 0-5.707-1.48-5.707-3.305 0-1.824 2.554-3.305 5.707-3.305 3.148 0 5.707 1.481 5.707 3.305zm0 24.906c0 1.829-2.559 3.305-5.707 3.305-3.153 0-5.707-1.476-5.707-3.305 0-1.824 2.554-3.304 5.707-3.304 3.148 0 5.707 1.48 5.707 3.304zM15.93 20.5c1.574-2.719 1.562-5.664-.024-6.578-1.59-.914-4.156.55-5.73 3.27-1.578 2.718-1.567 5.66.023 6.574 1.586.914 4.153-.547 5.73-3.266zm21.633 5.875c1.59.914 1.597 3.855.023 6.574-1.578 2.719-4.14 4.184-5.73 3.27-1.586-.91-1.598-3.856-.02-6.574 1.574-2.72 4.14-4.184 5.727-3.27zm-21.657 9.844c1.59-.914 1.598-3.86.024-6.574-1.578-2.72-4.14-4.184-5.73-3.27-1.59.914-1.598 3.855-.024 6.574 1.578 2.719 4.14 4.184 5.73 3.27zm21.68-19.028c1.574 2.72 1.566 5.664-.02 6.575-1.59.914-4.152-.551-5.73-3.27-1.574-2.715-1.566-5.66.023-6.574 1.586-.91 4.149.55 5.727 3.27zm0 0" fill-rule="evenodd" fill="#e6007a"/><path d="M38.75 20.915c0 10.358-8.395 18.751-18.75 18.751S1.25 31.273 1.25 20.916C1.25 10.56 9.645 2.166 20 2.166s18.75 8.394 18.75 18.748zm0 0" transform="scale(1.2 1.19512)" fill="none" stroke-width="2.5" stroke="url(#a)"/></svg>