<svg xmlns="http://www.w3.org/2000/svg" width="48" height="42" viewBox="0 0 256 224"><defs><linearGradient x1="4.052" y1="43.001" x2="42.294" y2="-1.44" gradientUnits="userSpaceOnUse" id="prefix__a"><stop offset=".08" stop-color="#9945ff"/><stop offset=".3" stop-color="#8752f3"/><stop offset=".5" stop-color="#5497d5"/><stop offset=".6" stop-color="#43b4ca"/><stop offset=".72" stop-color="#28e0b9"/><stop offset=".97" stop-color="#19fb9b"/></linearGradient></defs><path d="M47.754 33.113l-7.926 8.317a1.878 1.878 0 01-1.344.57H.918a.936.936 0 01-.504-.148.872.872 0 01-.336-.395.874.874 0 01.168-.973l7.93-8.312a1.851 1.851 0 011.344-.57h37.562c.176 0 .352.05.504.144a.95.95 0 01.34.395c.07.16.09.34.062.511a.914.914 0 01-.234.461zm-7.926-16.742a1.878 1.878 0 00-1.344-.57H.918a.936.936 0 00-.504.148.882.882 0 00-.336.39.892.892 0 00-.066.513.884.884 0 00.234.46l7.93 8.317a1.851 1.851 0 001.344.57h37.562a.936.936 0 00.844-.539.884.884 0 00-.172-.973zM.918 10.398h37.566a1.878 1.878 0 001.344-.57l7.926-8.312a.91.91 0 00.234-.465.906.906 0 00-.062-.508.904.904 0 00-.34-.395.936.936 0 00-.504-.148H9.52a1.864 1.864 0 00-1.344.57L.25 8.887a.89.89 0 00-.172.973c.07.16.188.296.34.39a.913.913 0 00.5.148zm0 0" transform="matrix(4 0 0 4 32 28)" fill="url(#prefix__a)" stroke-miterlimit="10" font-family="none" font-weight="none" font-size="none" text-anchor="none"/></svg>
