<svg xmlns="http://www.w3.org/2000/svg" width="48" height="48" viewBox="0 0 48 48">
    <path fill="#8c175b" d="M48 24c0 13.254-10.746 24-24 24S0 37.254 0 24 10.746 0 24 0s24 10.746 24 24Zm0 0" />
    <path fill="#fff"
        d="M26.457 24.145h7c.41 0 .742-.332.742-.747a.742.742 0 0 0-.742-.742h-6.914l7.016-12.765A.604.604 0 0 0 33.023 9h-4.406a.616.616 0 0 0-.539.313l-5.973 10.874V9.605A.609.609 0 0 0 21.5 9h-3.883a.61.61 0 0 0-.61.605v13.051h-3.663a.742.742 0 0 0-.742.742c0 .415.332.747.742.747h3.664v14.25a.61.61 0 0 0 .61.605H21.5a.61.61 0 0 0 .61-.605v-6.637l-1.665-7.613-.144-.668.36.668 7.987 14.543a.599.599 0 0 0 .532.312h4.406a.6.6 0 0 0 .531-.898Zm0 0" />
</svg>