<svg xmlns="http://www.w3.org/2000/svg" width="48" height="48" fill="none"><g clip-path="url(#clip0_2056_4492)"><rect x="-.055" y="-.055" width="48.11" height="48.11" rx="20.046" fill="#fff"/><path d="M23.945 48.055A23.997 23.997 0 0 0 48 24 23.997 23.997 0 0 0 23.945-.055 23.997 23.997 0 0 0-.11 24a23.997 23.997 0 0 0 24.055 24.055z" fill="#2775CA"/><path d="M30.56 27.809c0-3.508-2.105-4.711-6.314-5.212-3.007-.401-3.609-1.203-3.609-2.606 0-1.404 1.003-2.305 3.007-2.305 1.804 0 2.807.601 3.308 2.104.1.301.4.502.701.502h1.604c.401 0 .702-.301.702-.702v-.1a5.007 5.007 0 0 0-4.51-4.11v-2.405c0-.401-.301-.702-.802-.802h-1.504c-.4 0-.701.3-.802.802v2.305c-3.007.401-4.91 2.406-4.91 4.911 0 3.308 2.004 4.61 6.213 5.112 2.807.501 3.709 1.103 3.709 2.706 0 1.604-1.404 2.706-3.308 2.706-2.606 0-3.508-1.102-3.809-2.606-.1-.4-.4-.601-.701-.601H17.83c-.4 0-.702.3-.702.702v.1c.401 2.506 2.005 4.31 5.313 4.811v2.406c0 .4.3.701.801.801h1.504c.4 0 .701-.3.802-.801V33.12c3.007-.501 5.011-2.606 5.011-5.312z" fill="#fff"/><path fill-rule="evenodd" clip-rule="evenodd" d="M9.913 19.089c-2.907 7.718 1.102 16.438 8.92 19.244.3.2.602.601.602.902v1.403c0 .2 0 .3-.1.4-.1.402-.502.602-.903.402-5.613-1.804-9.923-6.114-11.727-11.727C3.698 20.191 8.91 10.068 18.432 7.061c.1-.1.3-.1.401-.1.401.1.602.4.602.802v1.403c0 .501-.2.802-.602 1.002-4.11 1.504-7.417 4.71-8.92 8.92zM28.555 7.462c.1-.4.502-.601.902-.4 5.513 1.803 9.923 6.113 11.727 11.826 3.007 9.522-2.205 19.645-11.726 22.652-.1.1-.301.1-.401.1-.401-.1-.602-.4-.602-.801v-1.404c0-.5.2-.802.602-1.002 4.109-1.503 7.417-4.71 8.92-8.92 2.907-7.718-1.102-16.438-8.92-19.244-.301-.201-.602-.602-.602-1.003V7.863c0-.2 0-.3.1-.4z" fill="#fff"/></g><defs><clipPath id="clip0_2056_4492"><rect width="48" height="48" rx="24" fill="#fff"/></clipPath></defs></svg>