<svg xmlns="http://www.w3.org/2000/svg" width="48" height="48" fill="none"><g clip-path="url(#clip0_2056_4511)"><rect x="-2.835" y="-2.835" width="53.669" height="53.669" rx="22.362" fill="#fff"/><circle cx="24" cy="24" r="26.835" fill="#EDF0F4"/><path d="M23.926 7.9l-.213.724v21.04l.213.212 9.766-5.772-9.766-16.205z" fill="#343434"/><path d="M23.926 7.9L14.16 24.103l9.766 5.772V7.9z" fill="#8C8C8C"/><path d="M23.927 31.726l-.12.146v7.495l.12.351 9.771-13.762-9.771 5.77z" fill="#3C3C3B"/><path d="M23.926 39.718v-7.992l-9.766-5.77 9.766 13.762z" fill="#8C8C8C"/><path d="M23.927 29.876l9.766-5.772-9.766-4.44v10.212z" fill="#141414"/><path d="M14.16 24.104l9.766 5.772V19.665l-9.766 4.439z" fill="#393939"/></g><defs><clipPath id="clip0_2056_4511"><rect width="48" height="48" rx="24" fill="#fff"/></clipPath></defs></svg>