<svg width="48" height="48" viewBox="0 0 48 48" fill="none" xmlns="http://www.w3.org/2000/svg"><g clip-path="url(#clip0_41143_222186)"><path d="M-2.164-3.257H51.62v53.785H-2.164V-3.257Z" fill="#C9976D"/><path d="M38.312 39.155c.046.001.087.003.131.014a.477.477 0 0 1 .313.235c.067.127.07.286.029.421-.065.213-.188.323-.381.42-.026-.001-.033-.001-.06-.008a.61.61 0 0 1-.354-.264.545.545 0 0 1-.046-.43c.059-.195.197-.29.368-.388ZM9.423 39.21a.676.676 0 0 1 .228.008.526.526 0 0 1 .358.292.474.474 0 0 1 .013.334c-.057.179-.172.266-.332.351-.069.017-.143.04-.214.026a.46.46 0 0 1-.306-.214.602.602 0 0 1-.06-.468c.049-.18.157-.245.313-.329ZM35.7 34.276c.231-.015.441-.006.653.099a.992.992 0 0 1 .513.654.85.85 0 0 1-.084.587c-.15.28-.407.436-.7.53a1.161 1.161 0 0 1-.632-.103 1.039 1.039 0 0 1-.542-.604.803.803 0 0 1-.017-.42.797.797 0 0 1 .093-.238c.158-.277.42-.421.717-.505Z" fill="#3C0000"/><path d="m35.518 34.723.024.06.01.047c-.022.294-.05.588-.004.881a.265.265 0 0 1-.101-.053c-.114-.094-.174-.184-.185-.334-.02-.258.094-.42.256-.6Z" fill="#E8D2BC"/><path d="M35.52 34.723c.215-.08.433-.066.658-.052.158.108.267.217.307.41.027.128.012.266-.002.396-.063.097-.113.188-.218.246l-.02-.025.023-.044c.066-.138-.008-.19-.034-.315-.035-.17.127-.367.056-.518-.177-.095-.545-.042-.747-.038l-.023-.06Z" fill="#C9976D"/><path d="M35.551 34.83c.078.019.134.03.18.101.065.104.194.332.166.45l-.027.016c-.034.107-.064.217-.11.32l-.212-.006c-.045-.293-.018-.588.003-.881Z" fill="#3C0000"/><path d="M35.543 34.783c.201-.004.57-.057.746.038.071.151-.09.348-.055.518.025.124.1.177.033.315l-.023.043.02.026a.744.744 0 0 1-.477.052l-.026-.058c.046-.103.075-.213.11-.32l.026-.015c.029-.12-.1-.347-.166-.45-.045-.072-.102-.083-.18-.102l-.008-.047Z" fill="#5B0702"/><path d="M35.871 35.397c.072.035.078.028.103.106.028.086.02.126.096.187.06.006.114.01.174.008l.022.025a.743.743 0 0 1-.478.052l-.026-.058c.045-.103.075-.213.11-.32Z" fill="#C9976D"/><path d="M12.517 36.09c.071-.005.143-.008.214-.01.326-.004.67.095.903.33.178.178.29.408.342.654.077.373.034.794.038 1.174.009.928.008 1.856-.005 2.785.563.003 1.475-.046 1.976.19.265.125.444.357.54.63.134.371.113.77-.069 1.123a1.49 1.49 0 0 1-.867.733c-.65.028-1.299.019-1.95.022-.345.002-.726.035-1.07-.004a1.127 1.127 0 0 1-.448-.135c-.27-.162-.515-.479-.582-.789-.079-.364-.057-.773-.063-1.145-.012-.705-.015-1.41-.012-2.116l-.003-1.516c0-.278-.012-.565.017-.842.02-.194.056-.359.166-.525.2-.304.524-.485.873-.56Z" fill="#3C0000"/><path d="M12.58 36.77c.137-.008.284-.008.413.041.137.052.262.17.312.31.109.305.053.752.051 1.08l-.006 2.006c-.003.34-.031.687-.014 1.026.006.114.018.251.072.352.04.076.104.116.185.138.425.116 1.543-.114 1.982.064.125.05.225.144.273.272.07.187.05.494-.034.674a.576.576 0 0 1-.336.31c-.56.003-1.12.002-1.681-.005-.406-.001-.92.071-1.306-.045a.445.445 0 0 1-.3-.257.81.81 0 0 1-.074-.325c-.025-.445-.072-5.133.027-5.333.087-.176.263-.246.437-.308Z" fill="#FEFEFA"/><path d="M27.146 39.607c.272-.51.492-1.317.71-1.888.247-.65.458-1.296 1.149-1.59.294-.126.667-.128.963-.004.26.11.501.386.601.646.084.217.076.439.035.664-.078.425-.279.835-.432 1.237-.201.528-.385 1.064-.61 1.58-.27.603-.481 1.25-.727 1.863-.115.288-.225.588-.39.852-.244.39-.598.664-1.051.764-.347.077-.71.024-1.007-.177-.293-.198-.461-.51-.624-.812-.34-.633-.575-1.332-.849-1.995l-.777-1.94c-.193-.493-.417-.987-.51-1.51a.942.942 0 0 1 .185-.753c.227-.307.525-.455.895-.503a1.404 1.404 0 0 1 .478.04 1.419 1.419 0 0 1 .271.098c.19.091.351.223.472.395.386.546.971 2.333 1.218 3.033Z" fill="#3C0000"/><path d="M29.47 36.722c.05.004.1.007.15.02a.504.504 0 0 1 .31.236c.114.209.056.448-.015.66-.167.495-.418.965-.606 1.454-.32.833-.614 1.669-.954 2.495-.152.37-.301.768-.512 1.107a.816.816 0 0 1-.986.343.688.688 0 0 1-.323-.273c-.317-.498-.517-1.134-.735-1.682-.323-.813-.653-1.628-.995-2.433-.127-.355-.539-1.184-.477-1.517.02-.116.127-.23.224-.293a.633.633 0 0 1 .477-.078.715.715 0 0 1 .423.27c.174.241.265.604.371.883l.698 1.893c.093.254.21.5.303.753.075.203.114.514.238.683.035.046.035.049.094.056.226-.382.406-1.049.559-1.476.205-.572.437-1.135.656-1.702.132-.342.23-.715.451-1.014a.868.868 0 0 1 .649-.385Z" fill="#FEFEFA"/><path d="M33.41 36.065c.152-.008.296-.008.445.02.329.058.685.249.876.53.342.504.564 1.127.796 1.687.296.712.586 1.426.87 2.142.238.594.546 1.221.714 1.837a.945.945 0 0 1-.003.599 1.301 1.301 0 0 1-.527.7c-.28.178-.641.234-.963.155-.655-.16-.916-.794-1.236-1.314l-.526.042-1.25-.001c-.134.233-.23.49-.369.718a1.257 1.257 0 0 1-.815.573c-.326.071-.65.038-.93-.156a1.273 1.273 0 0 1-.304-.304 1.236 1.236 0 0 1-.207-.511c-.032-.197.003-.372.057-.56.176-.616.459-1.21.693-1.805.3-.761 1.205-3.235 1.65-3.81.234-.303.661-.486 1.03-.542Z" fill="#3C0000"/><path d="M33.495 36.747c.077-.001.159.004.235.02.2.042.41.148.522.326.175.276.284.627.413.928.33.773.64 1.55.954 2.33.26.648.578 1.283.8 1.945.037.113.083.242.056.36a.542.542 0 0 1-.266.365.641.641 0 0 1-.51.042c-.475-.155-.643-.854-.845-1.267-.41-.026-.83-.011-1.242-.014-.353-.002-1.01-.06-1.326.036-.257.08-.364.91-.83 1.239-.108.076-.227.126-.36.095-.208-.047-.352-.229-.457-.4a1.593 1.593 0 0 1 .055-.518c.139-.5.36-.995.554-1.476.289-.722.573-1.441.872-2.16.19-.453.384-1.063.67-1.462.168-.234.432-.339.705-.389Z" fill="#FEFEFA"/><path d="M33.466 38.485a.383.383 0 0 1 .126.099c.2.241.828 1.793.794 2.085-.13.11-.574.08-.748.086-.268.005-.569.034-.833-.009-.064-.01-.105-.016-.145-.07.006-.353.61-1.887.806-2.191ZM19.614 36.093c.843-.117 1.79.2 2.475.684.837.591 1.381 1.563 1.554 2.562.17.986-.122 2.1-.707 2.91-.574.796-1.494 1.322-2.455 1.476-.89.034-1.686-.14-2.418-.677-.872-.64-1.508-1.556-1.67-2.642a3.843 3.843 0 0 1 .035-1.3 3.777 3.777 0 0 1 .679-1.524 3.81 3.81 0 0 1 2.507-1.49Z" fill="#3C0000"/><path d="M19.636 36.801c.723-.1 1.51.144 2.088.58a3.391 3.391 0 0 1 .465.435 3.329 3.329 0 0 1 .582.947 3.352 3.352 0 0 1 .204.769c.118.848-.18 1.78-.698 2.453a2.69 2.69 0 0 1-1.83 1.057c-.689.105-1.503-.133-2.069-.529-.695-.487-1.167-1.313-1.305-2.143-.145-.872-.002-1.645.514-2.36.498-.691 1.219-1.071 2.049-1.209Z" fill="#FEFEFA"/><path d="M19.983 38.065c.377.006.722.107 1.025.337.4.303.673.736.742 1.236.071.52-.087 1.01-.406 1.42a1.75 1.75 0 0 1-1.206.676c-.443-.013-.846-.143-1.19-.428-.383-.319-.595-.776-.638-1.27a1.822 1.822 0 0 1-.006-.093c-.001-.031-.002-.062-.001-.093a1.825 1.825 0 0 1 .121-.64 1.916 1.916 0 0 1 .275-.488l.06-.072c.32-.372.741-.548 1.224-.585Z" fill="#3C0000"/><path d="M19.815 38.769c.243-.022.447-.006.668.107.268.137.488.397.579.684.092.293.025.632-.12.898-.164.301-.423.445-.739.545-.222.056-.475-.008-.672-.117a1.1 1.1 0 0 1-.309-.247 1.087 1.087 0 0 1-.184-.285 1.136 1.136 0 0 1-.058-.16 1.226 1.226 0 0 1 .113-.931c.167-.279.416-.42.722-.494Z" fill="#C9976D"/><path d="M23.484 2.69a19.346 19.346 0 0 1 1.913.032 16.088 16.088 0 0 1 3.574.66 16.005 16.005 0 0 1 2.625 1.057 16.104 16.104 0 0 1 3.342 2.263A16.213 16.213 0 0 1 36.1 7.83c.31.33.589.689.866 1.045 1.401 1.805 2.327 3.771 2.904 5.98.146.556.283 1.112.363 1.682.127.904.147 1.845.118 2.757-.045 1.416-.291 2.641-.722 3.99-.924 2.894-2.345 5.017-4.56 7.085-1.515 1.414-3.488 2.556-5.446 3.226-1.813.62-4.087.939-6.004.875-2.396-.065-5.017-.696-7.145-1.81-.654-.342-1.244-.745-1.859-1.148-.264-.172-.573-.275-.828-.46-.311-.227-.58-.554-.865-.817-2.303-2.132-4.124-4.895-4.872-7.967-.153-.629-.31-1.33-.345-1.976-.015-.267.04-.539.007-.805-.038-.309-.162-.606-.212-.915-.09-.557-.071-1.162.145-1.689.086-.21.207-.424.248-.649.104-.565.167-1.127.308-1.687.546-2.165 1.712-4.271 3.142-5.98a14.9 14.9 0 0 1 .885-.954c.247-.242.559-.487.758-.769L13 6.821c-.074-.724-.06-1.33.159-2.032.062-.2.13-.414.233-.598.114-.202.265-.353.496-.409.645-.156 1.881.362 2.426.71.253-.08.495-.217.737-.327.31-.142.63-.267.95-.386 1.79-.666 3.576-1.006 5.482-1.09Z" fill="#3C0000"/><path d="M15.51 7.162c.07.188.148.368.238.548-.155.17-.312.337-.457.516l-.018-.019c.044-.185.269-.288.361-.448a.312.312 0 0 1-.114-.06c-.082-.162-.038-.365-.01-.537Z" fill="#D9804E"/><path d="M8.592 18.752c.04.155.023.321.048.48l.015.039-.127.113a6.361 6.361 0 0 1-.239-.618l.012-.004c.104-.038.182-.025.29-.01Z" fill="#C9976D"/><path d="M13.818 5.164c.186.139.396.25.598.361l-.04.003c-.062 0-.1-.015-.157-.037-.14.043-.275.11-.413.162-.01.037-.019.072-.027.11l-.04.01c-.016-.187.049-.422.08-.609Z" fill="#F1B67C"/><path d="M24.072 19.43c.303-.026.811-.3 1.112-.171.083.035.146.025.234.013-.387.156-.75.293-1.174.24l-.172-.082Z" fill="#5B0702"/><path d="M14.674 29.757a.771.771 0 0 0-.058.305c-.049.087-.185.403-.264.43a.184.184 0 0 1-.164-.012.347.347 0 0 1-.135-.193c-.032-.112.015-.209.07-.303.14.047.394-.154.529-.217l.022-.01ZM26.223 8.422c.319.291.63.702.86 1.067-.03.017-.062.031-.092.046a.953.953 0 0 1-.372-.17l.042-.04c-.043-.188-.481-.572-.626-.73.032-.028.02-.014.043-.047.047-.065.07-.094.145-.126Z" fill="#F1B67C"/><path d="m15.932 29.137.028.065c-.043.103-.157.148-.254.187-.34.136-.708.192-1.033.368l-.022.01c-.135.063-.388.264-.528.216.017-.033.033-.065.053-.097.46-.727 1.02-.59 1.729-.743l.027-.006Z" fill="#FEEDC6"/><path d="M12.193 16.818c.351-.506.551-.763 1.189-.904l.225.42c-.44.106-.793.29-1.105.623-.143-.015-.214-.023-.309-.139Z" fill="#FEFEFA"/><path d="M15.883 5.968c.175.125.466.367.68.391.023-.07-.033-.056.02-.126.2.1.514.298.732.305-.003.026-.026.042-.047.057-.323.232-.663.372-.948.668-.123-.447-.242-.873-.437-1.295Z" fill="#D9804E"/><path d="m16.892 20.586-.13.183-.021.01c-.2.098-.33.302-.524.4-.225.113-1.328.221-1.572.155l-.05-.044.473-.388c.687.086 1.18-.097 1.824-.316Z" fill="#F1B67C"/><path d="M25.201 6.58c.133-.025.25-.084.372-.14.158-.073.319-.15.458-.253.282-.21.525-.5.845-.653-.4.604-.588 1.037-.774 1.737-.253-.252-.554-.57-.9-.69Z" fill="url(#paint0_linear_41143_222186)"/><path d="M16.33 19.03a4.454 4.454 0 0 0 1.076.416c-.267.321-.589.396-.97.523-.277.093-.568.165-.85.246.336-.364.586-.711.744-1.184Z" fill="#FEFEFA"/><path d="M15.152 28.262c-.109-.43-.195-.85-.156-1.294.047-.527.353-1.187.773-1.517.043-.034.044-.04.1-.03l.014.076-.01.37c-.317.544-.539 1.09-.628 1.717-.011.082-.005.65-.02.664-.013.011-.032.013-.049.016-.008.002-.015-.002-.024-.002Z" fill="url(#paint1_linear_41143_222186)"/><path d="M37.242 16.149c-.317.724-.691 1.273-1.46 1.575a1.398 1.398 0 0 1-.401.11c.06-.065.187-.087.273-.118a.433.433 0 0 0 .097-.23.264.264 0 0 0-.074-.219c-.089-.09-.254-.084-.368-.083.233-.11.475-.206.714-.306.205-.096.394-.199.578-.332.158-.114.352-.304.525-.38.038-.016.075-.016.116-.017Z" fill="url(#paint2_linear_41143_222186)"/><path d="M34.186 17.753c-.012-.248-.033-.509.008-.755.034.033.03.037.08.048.215.046.452.206.703.263l.331-.125c.115 0 .28-.007.368.083.06.062.081.135.074.219a.432.432 0 0 1-.096.23c-.086.03-.214.053-.274.118l-.03.012c-.346.134-.834.047-1.164-.093Z" fill="#C9976D"/><path d="M34.195 16.998c.033-.353.19-.724.448-.97.5-.474.676.145 1.155.154h.036c-.037.039-.04.06-.096.064-.236.012-.476-.266-.669-.38-.07.023-.158.037-.208.094.073.235.095.793.321.904.189.093.492.041.695.029l.024-.032c-.103-.06-.244-.12-.286-.241-.02-.056-.009-.098 0-.154l.015-.107.037-.006c.012.044.01.062.003.109a.26.26 0 0 0 .054.203c.059.083.209.167.3.213-.24.1-.481.196-.715.306l-.331.125c-.251-.057-.488-.217-.704-.263-.048-.01-.045-.015-.079-.048Z" fill="url(#paint3_linear_41143_222186)"/><path d="M25.201 6.58a.358.358 0 0 1 .039-.129c.478-.927 1.688-1.625 2.65-1.921.155-.048.527-.146.672-.07-.097.161-.502.228-.677.326-.358.2-.715.463-1.009.748-.32.153-.563.443-.845.653-.14.104-.3.18-.458.253-.121.056-.24.115-.372.14ZM14.063 4.447c.155.004.32 0 .474.032.784.161 1.707.733 2.252 1.312.204.216.403.473.525.747-.218-.007-.533-.206-.732-.305-.053.07.002.057-.02.126-.214-.024-.505-.266-.68-.391-.121-.2-.258-.392-.389-.586-.509-.488-.826-.616-1.43-.935Z" fill="#FEFEFA"/><path d="M15.494 5.382c.408.151.74.593 1.089.85-.053.07.002.058-.02.127-.214-.024-.505-.266-.68-.391-.122-.2-.258-.392-.389-.586Z" fill="#F1B67C"/><path d="M8.187 18.25a4.516 4.516 0 0 1 .024-.775c.076-.547.28-.883.723-1.213.399-.296 1-.461 1.494-.382.614.099 1.04.465 1.396.952l-.045.054c-.063-.003-.085-.023-.134-.058-.461-.326-1.175-.508-1.734-.404-.396.073-.763.267-.994.605a2.739 2.739 0 0 0-.369.851c-.026.122-.088.304-.207.367-.061.032-.093.019-.154.002Z" fill="#FEFEFA"/><path d="M21.024 5.793c-.038-.196-.031-.309.092-.477a.317.317 0 0 1 .22-.134.25.25 0 0 1 .127.017c.353.295.493.756.955 1.048.282.178.666.222.983.32.943.29 1.867.78 2.537 1.51-.006.04-.004.126-.038.15-.037.028-.067.024-.11.03-.042.008-.069.03-.102.054-.35-.275-.762-.582-1.163-.775-.998-.481-2.285-.676-3.077-1.501-.098-.108-.173-.201-.323-.222l-.1-.02Z" fill="url(#paint4_linear_41143_222186)"/><path d="m22.202 28.97-.038-.033c-.21-.615-.119-1.6.158-2.186a2.707 2.707 0 0 1 1.57-1.428c.756-.265 1.67-.236 2.385.145.244.13.46.313.71.43.008.005.016.009.025.012l.023.05c-.039.106-.087.2-.196.248a.193.193 0 0 1-.154.007c-.138-.061-.262-.189-.4-.262-.596-.314-1.223-.4-1.872-.22-.722.201-1.284.588-1.654 1.252a3.171 3.171 0 0 0-.359 1.019c-.051.32.008.509-.01.79a.23.23 0 0 1-.053.14l-.135.035Z" fill="#FEFEFA"/><path d="m14.597 21.29.049.044c.243.066 1.347-.042 1.572-.155.195-.098.325-.302.524-.4l.02-.01c-.297.642-.533 1.294-.656 1.992-.804.039-2.154-.016-2.807-.508.263-.18.52-.366.773-.56.172-.132.343-.285.525-.403Z" fill="url(#paint5_linear_41143_222186)"/><path d="M28.904 12.028c.159-.212.367-.363.582-.514a5.379 5.379 0 0 1 2.353-.953c1.33-.193 2.751.105 3.835.92.385.289.735.658 1.024 1.042l-.048.037c-.12-.003-.795-.545-.972-.659-.434-.278-.92-.569-1.42-.699-.636-.165-1.444-.269-2.1-.183-.247.032-.494.103-.736.162-.325.08-.621.16-.913.329-.428.164-.739.542-1.172.674-.144-.052-.29-.101-.433-.156Z" fill="#FEFEFA"/><path d="m13.739 5.773.04-.01a1.62 1.62 0 0 1 .027-.11c.139-.051.272-.119.414-.162.057.022.094.037.156.037.014 0 .027-.002.04-.003.305.074.515.28.672.542.203.34.304.72.422 1.095-.028.172-.071.375.01.537.04.03.067.046.114.06-.092.16-.317.263-.36.448l.017.019c-.075.124-.16.23-.254.34a2.376 2.376 0 0 1-.706-.596c-.48-.612-.686-1.43-.592-2.197Z" fill="url(#paint6_linear_41143_222186)"/><path d="m28.666 5.355.055-.005c.051.034.038.014.06.07.052.146.041.335.038.488-.013.567-.097 1.063-.331 1.585-.247.551-.57.951-1.146 1.171l-.197-.33a2.475 2.475 0 0 0-.497-.536c.091-.307.211-.615.339-.908.337-.776.9-1.228 1.679-1.535Z" fill="url(#paint7_linear_41143_222186)"/><path d="M15.883 25.497c.024.267.007.54.042.806a6.358 6.358 0 0 0 1.583 3.38c.255.277.55.512.817.776-1.064.12-2.15-.033-3.216.05.008-.164.062-.456-.052-.59-.027-.033-.053-.033-.091-.045a.632.632 0 0 0-.35.188.773.773 0 0 1 .057-.305c.325-.176.693-.232 1.033-.368.098-.039.21-.084.254-.186l-.028-.066c.08-.07.179-.22.18-.332a.187.187 0 0 0-.063-.136c-.186-.184-.567-.166-.81-.168a1.477 1.477 0 0 1-.086-.24c.008.002.016.005.024.003.017-.003.036-.005.049-.016.015-.013.008-.582.02-.664.09-.627.31-1.173.628-1.717l.01-.37Z" fill="url(#paint8_linear_41143_222186)"/><path d="m16.627 25.915.032.022c.128.09.571.77.704.94.243.311.553.567.882.78.897.58 1.782.722 2.828.59.081-.01.178-.01.239-.07-.007.282.02.55.067.827-.2.086-.399.173-.585.286-.517.314-.79.722-.936 1.3-.353-.179-.702-.368-1.012-.617-1.383-1.11-2.023-2.297-2.219-4.058Z" fill="#E8D2BC"/><path d="m17.006 32.104.013-.015c.107-.09.709.046.869.07 1.576.235 3.184.359 4.775.436.72.035 1.45.09 2.17.06 1.268-.053 2.538-.261 3.783-.493.377-.07.76-.115 1.134-.197.544-.12 1.07-.337 1.612-.474.287-.072.597-.115.872-.222.111-.044.313-.151.434-.122.04.01.056.06.076.093-2.81 1.889-6.45 2.666-9.804 2.443a17.602 17.602 0 0 1-3.147-.531 15.29 15.29 0 0 1-2.787-1.048ZM23.102 3.453c1.613-.101 3.203.08 4.79.356-.317.131-.658.214-.98.335-1.162.44-1.753 1.098-2.421 2.114-.578-.396-1.303-.438-1.837-.76-.374-.224-.524-.707-.919-.98a1.098 1.098 0 0 0-.325-.126.77.77 0 0 0-.602.129c-.354.254-.456.683-.527 1.087-.737-.073-1.648.233-2.271.62a5.538 5.538 0 0 0-1.002-1.224c1.857-.99 4.013-1.403 6.094-1.55Z" fill="#FEEDC6"/><path d="M28.607 30.18c.19-.01.379-.01.57-.006l-.022.008c-.099.036-.25-.011-.316.046l.03.045c.311.031.623.09.933.105l2.083.1c.652.034 1.047-.033 1.69.203-.241.169-.57.446-.832.56-.02-.034-.035-.084-.076-.094-.121-.03-.322.078-.434.122-.275.107-.585.15-.871.222-.543.137-1.068.354-1.612.474-.375.082-.758.127-1.135.197-1.245.232-2.514.44-3.783.492-.72.03-1.45-.024-2.17-.059-1.59-.077-3.198-.2-4.775-.436-.16-.024-.762-.16-.868-.07l-.014.015c-.32-.104-1.19-.608-1.417-.847.96-.025 1.919-.015 2.879-.033.203-.004.402-.07.597-.07.176 0 .38.06.55.104.592.15.734.567 1.357.677.44.077.942.043 1.39.053.958.022 2.382.112 3.296-.033.44-.07.897-.23 1.289-.443.412-.224.778-.527 1.12-.848.167-.157.33-.341.52-.471l.02-.014Z" fill="#F1B67C"/><path d="M34.745 22.666c-.11.149-.258.332-.43.41-.08.036-.129.028-.209-.002-.162-.166-.305-.946-.4-1.21-.186-.52-.37-1.035-.585-1.544-.284-.672-.592-1.298-.772-2.01-.265-1.043-.308-2.31.268-3.264.442-.732 1.283-1.332 2.112-1.528.538-.128 1.05-.09 1.525.204.636.394.972.9 1.145 1.62-.031.276-.07.542-.157.807-.04 0-.077 0-.115.018-.173.075-.367.265-.525.38a3.528 3.528 0 0 1-.578.331c-.09-.046-.24-.13-.3-.213a.26.26 0 0 1-.053-.203c.006-.047.009-.065-.003-.109l-.037.006-.015.107c-.009.056-.02.098 0 .154.041.12.182.18.286.24l-.025.033c-.202.012-.506.064-.694-.029-.226-.11-.248-.67-.321-.904.05-.057.138-.072.208-.094.193.114.433.392.669.38.055-.003.058-.025.095-.063l.02-.017a.58.58 0 0 0 .202-.394.52.52 0 0 0-.136-.38c-.164-.19-.425-.291-.67-.303-.4-.019-.82.201-1.104.472-.47.45-.667 1.067-.68 1.705-.009.49.044 1.07.178 1.546.09.318.226.632.35.938.394.978.734 1.84.751 2.916Z" fill="#FEFEFA"/><path d="M13.251 7.583c.132.11.27.474.375.636.275.42.658.738 1.065 1.02-.625.82-.78 1.819-.964 2.8-.358.133-.929.155-1.17.483-.244.33-.034.707-.018 1.058.007.144-.039.282-.01.427.074.374.485.494.769.676-.03.108-.063.242-.129.333-.174.242-.524.377-.761.55-.165.119-.308.26-.452.401a2.903 2.903 0 0 0-.783-.59 2.332 2.332 0 0 0-.52-.168 2.573 2.573 0 0 0-1.936.415c.024-.527.197-1.03.354-1.53.62-1.965 1.748-3.825 3.095-5.378.341-.395.718-.762 1.085-1.133ZM8.418 20.482c.247.181.427.482.66.689.377.334 2.453 1.866 2.804 1.92.287.044.593-.225.815-.381.04.043.08.085.126.124.75.65 2.224.776 3.174.718-.094.31-.113.632-.155.95-.28.278-.612.476-.875.782-.619.72-.754 1.587-.688 2.507.035.307.12.595.21.889-.46.31-.847.558-1.05 1.098-.694-.696-1.424-1.403-2.03-2.18a15.083 15.083 0 0 1-2.269-4.163 15.264 15.264 0 0 1-.45-1.521c-.116-.478-.226-.94-.272-1.432Z" fill="#FEEDC6"/><path d="M13.607 16.334c.468.745.847 1.265 1.538 1.834.176.144.367.265.544.405-.36 1.393-1.712 2.395-2.86 3.157-.297.198-.614.371-.903.58a32.739 32.739 0 0 1-2.02-1.415c-.301-.232-.61-.453-.867-.734a3.048 3.048 0 0 1-.511-.777l.127-.113-.016-.04c-.024-.158-.008-.324-.047-.479-.109-.015-.187-.027-.292.01l-.011.004a4.258 4.258 0 0 1-.101-.517c.06.017.092.03.153-.002.12-.063.181-.245.208-.367.076-.296.195-.597.368-.85.23-.34.598-.533.994-.606.559-.104 1.273.078 1.734.404.049.035.07.055.134.058l.045-.054c.06.074.118.147.171.225.062-.082.132-.16.198-.239.095.116.166.123.309.14.312-.333.666-.518 1.105-.624Z" fill="#FE7061"/><path d="M12.193 16.818c.095.116.166.123.309.14-.126.124-.27.272-.442.328l-.064-.01c-.04-.081-.021-.133 0-.219.06-.082.131-.16.197-.239Z" fill="#E8D2BC"/><path d="M8.549 17.88c-.008.291-.014.585.043.872-.109-.015-.187-.027-.292.01-.003 0-.007.002-.011.004a4.26 4.26 0 0 1-.101-.517c.06.017.092.03.153-.002.12-.063.181-.245.208-.367Z" fill="#F1B67C"/><path d="m8.64 19.232.03-.16c.228.263.456.547.707.787.562.534 1.961 1.597 2.668 1.843.282-.116 1.253-.923 1.406-.918-.13.2-1.09.907-1.34.956-.152.03-.366.03-.518.004l-.02-.033c.07-.027.142-.04.216-.055l-.01-.023-.037-.01c-.428-.109-.736-.557-1.134-.732l-.056.035c-.408-.29-.859-.6-1.222-.942-.155-.147-.287-.314-.431-.47-.08-.085-.173-.15-.243-.243l-.015-.04Z" fill="#F05349"/><path d="M9.475 17.099a.626.626 0 0 1 .366.06.547.547 0 0 1 .159.133.495.495 0 0 1 .094.187.533.533 0 0 1-.029.362c-.069.156-.166.227-.322.285-.063.001-.128.004-.19-.006a.593.593 0 0 1-.387-.253.473.473 0 0 1-.06-.387c.055-.194.201-.289.369-.381ZM17.622 20.431c.01.008.023.015.033.024.052.044.06.08.083.143.229.15 1.734-.317 1.997-.11-.226.365-.354.714-.253 1.151.13.572.544 1.01 1.032 1.31.365.224.756.336 1.162.462.788.153 1.48.174 2.27.027l.163.104c.32.254.455.52.557.91-1.096.17-1.999.575-2.673 1.493-.482.655-.675 1.429-.68 2.232-.061.06-.159.06-.24.07-1.045.132-1.93-.01-2.827-.59-.33-.213-.64-.469-.882-.78-.133-.17-.577-.85-.704-.94-.01-.008-.022-.015-.033-.022-.137-.81-.038-2.331.123-3.142a9.578 9.578 0 0 1 .444-1.483c.111-.292.294-.575.428-.859Z" fill="#FEFEFA"/><path d="M21.676 23.411c.788.152 1.48.174 2.27.027l.163.104c-.147.121-.297.274-.49.312-.505.097-1.38.076-1.817-.227-.09-.063-.108-.113-.126-.216Z" fill="#E8D2BC"/><path d="M25.418 19.272c.08-.016.12-.036.192.016.193.137.325.38.5.546.377.39.707.862 1.023 1.302 1.217 1.692 2.022 3.39 1.988 5.518-.019 1.21-.536 2.564-1.41 3.412-.856.83-1.908 1.226-3.093 1.2-1.012-.023-2.018-.048-3.031-.007.028-.141.125-.42.044-.542-.035-.051-.13-.062-.188-.068-.094-.01-.18-.002-.256.061-.147.123-.119.378-.278.463-.107-.018-.215-.125-.28-.21-.039-.049-.063-.109-.087-.166l.003-.046c.022-.282.176-.534.39-.713.507-.422 1.11-.386 1.726-.328.182.003.319.002.484-.086.076-.04.168-.109.183-.201.013-.086-.047-.177-.105-.234-.257-.25-.69-.232-1.02-.22.044-.01.09-.023.134-.035a.23.23 0 0 0 .054-.14c.018-.281-.042-.47.01-.79.056-.352.185-.708.358-1.02.37-.663.932-1.05 1.654-1.25.65-.182 1.277-.095 1.872.22.138.072.262.2.4.26a.193.193 0 0 0 .154-.006c.11-.048.158-.142.196-.249l-.023-.049a.429.429 0 0 0 .175-.074.442.442 0 0 0 .157-.293c.003-.125-.083-.238-.168-.321-.636-.62-1.661-.785-2.51-.77-.101-.389-.236-.656-.556-.91l-.165-.104c-.79.147-1.48.126-2.269-.027-.405-.126-.796-.238-1.161-.462-.489-.3-.902-.738-1.033-1.31-.1-.437.027-.786.253-1.15.177-.18.393-.352.63-.442.643-.244 1.458-.03 2.122.008.4.022.85-.076 1.223.09l.044.13a1.057 1.057 0 0 1 .515.087l-.002-.076c.049-.059.102-.046.17-.075.078-.033.076-.07.104-.145l-.069-.21c-.066-.12-.15-.232-.228-.344.424.053.787-.084 1.174-.24Z" fill="url(#paint9_linear_41143_222186)"/><path d="M23.754 20.275a1.096 1.096 0 0 1 .515.087l.014.028c-.096.088-.29.309-.408.338-.033-.07-.05-.11-.113-.157a19.542 19.542 0 0 1-.008-.296Z" fill="#F1B67C"/><path d="m20.541 30.797.003-.046c.023-.282.176-.534.391-.713.507-.422 1.11-.386 1.725-.328.098.043.226.031.331.034-.543.2-1.162.226-1.679.488-.277.14-.39.516-.696.556l-.045.006-.03.003Z" fill="#FEFEFA"/><path d="M25.418 19.272c.08-.016.12-.036.192.016.193.137.325.38.499.546-.455.384-1.207.498-1.79.452l.01.031-.003-.033c.066-.008.124-.019.19-.006.048-.069.038-.13.025-.212l-.069-.21c-.067-.12-.15-.232-.228-.344.424.053.787-.084 1.174-.24Z" fill="#D9804E"/><path d="M23.76 20.571c.064.048.08.087.113.157-.498.433-1.218.44-1.847.395-.337-.023-.905-.13-1.224-.044-.15.041-.557.264-.665.222.008-.033.016-.065.026-.098.338-1.104 2.557-.095 3.597-.632Z" fill="#FEFEFA"/><path d="M19.735 20.488c.177-.18.393-.35.63-.441.643-.245 1.458-.03 2.122.008.4.022.85-.076 1.223.09l.044.13.007.296c-1.04.537-3.258-.472-3.597.632-.01.033-.018.065-.026.098-.005.26.1.5.282.685.603.611 1.851.807 2.668.795a3.242 3.242 0 0 0 1.196-.244c.174-.07.357-.164.541-.2.073-.015.178-.008.237.044.053.046.066.086.07.155.007.16-.172.374-.286.468-.242.201-.596.36-.9.434-.79.147-1.482.126-2.27-.027-.405-.126-.796-.238-1.161-.462-.489-.3-.902-.738-1.033-1.31-.1-.437.027-.786.253-1.15Z" fill="#3C0000"/><path d="M29.238 4.342c.597.051 1.202.361 1.734.625 1.9.943 3.614 2.156 4.987 3.787a15.403 15.403 0 0 1 3.645 10.855c-.008.126-.016.252-.026.378-.356 4.045-2.368 7.703-5.473 10.294-.168.14-.34.288-.53.4-.642-.236-1.037-.169-1.689-.203l-2.082-.1c-.31-.015-.623-.074-.933-.105l-.031-.045c.066-.057.217-.01.316-.046l.021-.008c1.834-.176 3.59-1.28 4.746-2.68 1.163-1.409 1.773-3.201 1.6-5.029-.082-.856-.326-1.664-.647-2.46-.184-.454-.394-.912-.536-1.382.934.097 1.73-.053 2.47-.656.812-.662 1.263-1.546 1.367-2.585.135-1.354-.369-2.65-1.221-3.691-.866-1.057-2.345-1.76-3.692-1.89-1.128-.11-2.675.197-3.656.795-.378.23-.702.535-1.065.786-.146-.836-.369-1.412-.807-2.138.896-.481 1.413-1.113 1.705-2.098.278-.94.13-1.898-.203-2.804Z" fill="#FEEDC6"/><path d="M30.509 11.51c.292-.17.588-.249.913-.329.241-.059.488-.13.735-.162.656-.086 1.465.018 2.1.183.502.13.987.421 1.421.7.177.113.851.655.972.658l.048-.037c.524.72.857 1.854.713 2.744l-.013.075c-.173-.72-.508-1.226-1.144-1.62-.475-.295-.987-.332-1.525-.204-.83.196-1.67.796-2.112 1.528-.576.954-.533 2.22-.269 3.264.18.712.488 1.338.772 2.01.215.509.4 1.025.586 1.544.094.264.237 1.044.4 1.21.08.03.13.038.21.002.17-.078.318-.261.428-.41.011.046.015.08.018.128.094 1.698-.362 3.181-1.519 4.46-1.051 1.164-2.584 2.119-4.18 2.2.302-.487.538-.993.66-1.556.118-.537.126-1.072.11-1.619-.058-2.056-.772-3.626-1.972-5.26-.508-.69-1.165-1.414-1.617-2.124.82-.503 1.44-1.065 2.061-1.799.417-.492.883-1.342.975-1.977.027-.185.003-.38-.012-.566.19-.098.407-.192.564-.338a.448.448 0 0 0 .16-.318c.003-.167-.078-.273-.188-.389.119-.166.258-.344.267-.556.01-.212-.106-.345-.242-.49-.16-.058-.338-.195-.492-.278.433-.132.744-.51 1.172-.674Z" fill="url(#paint10_linear_41143_222186)"/><path d="M29.336 12.184c.434-.132.744-.51 1.172-.674l-.032.036c-.246.26-.687.313-.837.678.013.07.024.086.084.126.04.027.084.05.126.074-.006.013-.01.03-.02.038-.16-.058-.339-.195-.493-.278Z" fill="#F1B67C"/><path d="M32.277 11.063c.069.003.167-.002.23.03a.451.451 0 0 1 .22.282.39.39 0 0 1-.009.242.392.392 0 0 1-.017.037c-.046.09-.102.116-.196.143-.13.001-.287.02-.403-.047a.358.358 0 0 1-.176-.23c-.027-.132.038-.268.115-.372.053-.072.153-.072.236-.085Z" fill="#FEEDC6"/><path d="m21.024 5.793.1.02c.15.02.226.114.324.222.791.825 2.08 1.02 3.077 1.5.4.194.813.5 1.163.776.033-.024.06-.046.102-.053.043-.007.072-.003.11-.03.034-.025.032-.11.038-.151.094.11.204.224.285.345-.075.032-.098.06-.145.126-.023.033-.011.02-.043.047.145.158.582.542.626.73l-.043.04a.954.954 0 0 0 .372.17c.03-.015.063-.03.093-.046.362.566.6 1.156.765 1.808.07.273.08.935.181 1.084.277.41 1.117.394 1.237.595.046.076.034.277.013.361-.106.426-1.001.525-.729.981l.02.03c.104.145.092.278.064.45-.2 1.239-1.253 2.477-2.251 3.183a7.272 7.272 0 0 1-1.578.862c-.343.13-.706.193-1.023.381.08.065.158.13.244.188l.046.018.172.082c.078.112.161.224.228.344l.069.21c-.028.074-.026.112-.106.145-.066.029-.12.016-.169.075l.003.076a1.093 1.093 0 0 0-.516-.087l-.043-.13c-.375-.166-.824-.068-1.224-.09-.663-.037-1.48-.253-2.121-.008-.238.09-.454.261-.63.441-.264-.207-1.769.26-1.997.11-.023-.062-.031-.1-.084-.143-.01-.01-.021-.016-.033-.024.184-.512.66-.827.831-1.332-.23-.117-.502-.185-.747-.266-.625-.208-1.141-.447-1.675-.843-1.05-.779-2.08-1.808-2.282-3.158.075-.092.147-.187.22-.281.07-.21.038-.403-.001-.613-.18-.208-.419-.281-.637-.435-.113-.08-.201-.184-.22-.326a.468.468 0 0 1 .014-.196c.063-.14 1.032-.331 1.283-.662l.018-.023c.023-.935.234-1.89.752-2.682.268-.41.536-.851.864-1.215.824-.912 2.184-1.65 3.38-1.905l.282-.09c.072-.033.144-.065.217-.096.281-.115.502-.04.767.07.147.017.296.012.445.01l-.108-.595Z" fill="#FEFEFA"/><path d="M15.53 13.897c.19-.017.382-.006.56.066.19.078.35.22.426.413a.663.663 0 0 1-.017.516c-.115.257-.325.37-.575.463-.2.032-.387.029-.574-.058a.768.768 0 0 1-.442-.588.712.712 0 0 1 .08-.433c.12-.217.316-.313.543-.38ZM26.56 13.897c.237-.015.458-.026.676.084.176.09.319.245.37.438a.723.723 0 0 1-.098.566c-.142.222-.322.296-.567.347-.229.03-.423.017-.627-.1a.803.803 0 0 1-.38-.483.645.645 0 0 1 .068-.511c.128-.202.336-.288.559-.341Z" fill="#C9976D"/><path d="M16.934 10.64c.336-.023.637.017.932.196.348.21.618.585.703.984.083.396-.012.834-.231 1.172-.231.358-.564.557-.975.645-.358.035-.693-.013-1.006-.2a1.451 1.451 0 0 1-.68-1.017 1.437 1.437 0 0 1-.011-.45 1.456 1.456 0 0 1 .193-.567 1.61 1.61 0 0 1 1.075-.763Z" fill="#3C0000"/><path d="M17.013 11.11a.659.659 0 0 1 .289.03c.132.05.241.144.295.277.053.13.044.28-.015.407-.083.182-.219.271-.402.334a.72.72 0 0 1-.194-.02.555.555 0 0 1-.36-.273.483.483 0 0 1-.019-.366c.069-.203.22-.303.406-.39Z" fill="#FEFEFA"/><path d="M25.158 10.618a1.44 1.44 0 0 1 .846.221c.351.218.63.613.71 1.019a1.61 1.61 0 0 1-.263 1.204c-.25.365-.571.512-.994.594-.402.01-.73-.04-1.061-.286a1.51 1.51 0 0 1-.595-1.019c-.053-.396.021-.798.271-1.119a1.584 1.584 0 0 1 1.086-.614Z" fill="#3C0000"/><path d="M25.209 11.084a.59.59 0 0 1 .224.046.581.581 0 0 1 .348.38.509.509 0 0 1 .01.198.473.473 0 0 1-.046.141c-.084.171-.222.232-.393.292a.76.76 0 0 1-.25-.02.554.554 0 0 1-.319-.267.488.488 0 0 1-.022-.392c.08-.204.256-.299.448-.378Z" fill="#FEFEFA"/><path d="M20.033 12.43c.27-.302.633-.391 1.024-.41.355-.019.786-.006 1.068.241.117.102.162.19.168.345l.003.13c-.126.448-.455.67-.797.951l.004.015c.044.164.088.279.216.395.171.156.399.246.632.23.63-.042.412-.473.637-.736.06-.023.082-.031.147-.02.1.018.234.097.286.187.061.105.049.228.021.34-.087.347-.326.542-.619.72-.105.568-.245 1.185-.59 1.661-.22.302-.518.532-.897.584a1.364 1.364 0 0 1-.988-.28c-.642-.501-.727-1.206-.82-1.963a.856.856 0 0 1-.315-.197c-.188-.19-.332-.458-.324-.73.003-.098.028-.204.11-.267.098-.076.274-.077.388-.04.167.053.192.387.28.526a.453.453 0 0 0 .32.21.975.975 0 0 0 .663-.168c.109-.079.224-.21.231-.352.013-.236-.5-.421-.654-.602-.182-.212-.22-.462-.197-.732l.003-.038Z" fill="#3C0000"/><path d="M20.424 15.785c.176-.182.476-.326.725-.353.308-.033.582.098.813.29-.106.265-.246.519-.526.632a.661.661 0 0 1-.516-.013c-.227-.1-.365-.273-.466-.491l-.02-.04-.01-.025Z" fill="#C9976D"/><path d="M21.111 14.532c.319.245.567.445.989.447-.022.257-.07.493-.137.742-.23-.191-.505-.322-.813-.289-.25.027-.55.171-.725.353-.124-.214-.145-.569-.177-.808.397-.068.578-.166.863-.445Z" fill="#BD4337"/><path d="M28.57 14.348c.104.145.092.278.064.45-.2 1.239-1.253 2.477-2.251 3.183a7.266 7.266 0 0 1-1.579.862c-.342.13-.705.193-1.023.381.08.065.159.13.244.188l.046.018.172.082c.079.112.162.224.228.344l.07.21c-.029.075-.027.112-.106.146-.067.028-.12.015-.17.074l.003.076a1.075 1.075 0 0 0-.515-.087l-.044-.13c-.374-.166-.824-.068-1.223-.09-.664-.037-1.48-.253-2.122-.008-.238.09-.453.261-.63.441-.263-.207-1.768.26-1.997.11-.022-.062-.03-.1-.083-.143-.01-.01-.022-.016-.033-.024.183-.512.659-.827.83-1.332-.229-.117-.502-.185-.746-.266-.625-.208-1.142-.447-1.676-.843-1.05-.779-2.08-1.808-2.281-3.158.075-.092.147-.187.22-.28.023.464.31.933.572 1.306 1.117 1.596 3.106 2.42 4.966 2.746 2.194.384 4.84.099 6.693-1.212.876-.62 1.67-1.46 2.142-2.43.096-.199.192-.396.23-.614Z" fill="#E8D2BC"/><path d="m24.027 19.412.046.018.172.082c.078.112.161.224.228.344l.069.21c-.028.075-.026.112-.105.146-.067.028-.12.015-.17.074l.003.076a1.088 1.088 0 0 0-.516-.087l-.043-.13c.123-.005.22.008.34.04.039-.159.059-.404.019-.56-.018-.071-.03-.141-.043-.213Z" fill="#C9976D"/><path d="m21.024 5.793.1.02c.15.02.226.114.324.222.791.825 2.08 1.02 3.077 1.5.4.194.813.5 1.163.776.033-.024.06-.046.102-.053.043-.007.072-.003.11-.03.034-.025.032-.11.038-.151.094.11.204.224.285.345-.075.032-.098.06-.145.126-.023.033-.011.02-.043.047.145.158.582.542.626.73l-.043.04c-.766-.335-1.335-.465-2.148-.151-.771.299-1.47.929-1.806 1.69-.185.418-.283.94-.335 1.394-.016.145-.012.295-.033.438a4.67 4.67 0 0 0-.003-.13.423.423 0 0 0-.167-.345c-.282-.247-.713-.26-1.069-.242-.39.02-.753.108-1.023.41a5.937 5.937 0 0 0-.234-1.232c-.23-.73-.763-1.439-1.448-1.795-.904-.471-1.594-.333-2.522-.043.51-.698.903-1.053 1.637-1.502a6.92 6.92 0 0 1 .94-.502c.34-.142.769-.264 1.07-.47-.01-.133-.019-.263-.055-.39l.28-.09c.073-.034.145-.066.218-.097.281-.115.502-.04.767.07.147.017.296.012.445.01l-.108-.595Z" fill="url(#paint11_linear_41143_222186)"/><path d="m19.422 6.494.281-.09.007.104-.034-.004-.009.034c-.037.14-.068.255-.19.347-.01-.133-.018-.262-.055-.39Z" fill="#F1B67C"/><path d="M21.125 5.813c.15.02.225.114.323.222-.081.107-.138.242-.199.362-.065-.194-.076-.387-.124-.584Z" fill="#D9804E"/><path d="M25.937 8.077c.094.11.205.224.285.345-.074.032-.098.06-.145.126-.023.033-.01.02-.043.047-.108-.102-.23-.191-.346-.284.032-.024.06-.046.1-.053.044-.007.074-.003.111-.03.034-.025.032-.11.038-.151Z" fill="#FEEDC6"/><path d="M21.502 7.224c.009-.06.013-.067.063-.106a.544.544 0 0 1 .407-.123.221.221 0 0 1 .145.081c.068.093.062.21.03.313l-.007.021a1.284 1.284 0 0 0-.097-.094c-.095-.083-.19-.133-.318-.124-.08.006-.146.005-.223.032Z" fill="#D9804E"/><path d="M21.502 7.224c.077-.027.143-.026.223-.032.128-.009.223.04.318.124.035.03.066.061.097.094-.06.062-.132.148-.214.18a.217.217 0 0 1-.176.004c-.134-.061-.195-.244-.248-.37ZM19.721 6.545c.136.104.27.224.43.287.037.1.043.163.025.267a1.236 1.236 0 0 1-.226.143c-.102-.046-.213-.103-.265-.208a.347.347 0 0 1-.018-.279c.014-.044.023-.068.023-.115 0-.043.01-.059.031-.095Z" fill="#BD4337"/><path d="M19.949 7.242c-.054-.062-.12-.129-.164-.198-.039-.062-.042-.101-.032-.171l.052-.035a.553.553 0 0 1 .273.078c.076.048.075.103.097.183a1.236 1.236 0 0 1-.226.143Z" fill="#97230A"/><path d="M19.703 6.404c.072-.033.144-.065.217-.096.282-.115.503-.04.767.07.034.131.058.232-.015.356-.146.12-.34.095-.52.097-.16-.062-.296-.183-.43-.286l-.012-.037-.007-.104Z" fill="#FEFEFA"/></g><defs><linearGradient id="paint0_linear_41143_222186" x1="25.518" y1="6.779" x2="26.844" y2="6.245" gradientUnits="userSpaceOnUse"><stop stop-color="#E77041"/><stop offset="1" stop-color="#E2AE5C"/></linearGradient><linearGradient id="paint1_linear_41143_222186" x1="15.655" y1="26.737" x2="15.114" y2="26.444" gradientUnits="userSpaceOnUse"><stop stop-color="#FDF9D9"/><stop offset="1" stop-color="#FFFFF7"/></linearGradient><linearGradient id="paint2_linear_41143_222186" x1="35.431" y1="17.075" x2="37.253" y2="16.778" gradientUnits="userSpaceOnUse"><stop stop-color="#D7AB82"/><stop offset="1" stop-color="#F2DDCE"/></linearGradient><linearGradient id="paint3_linear_41143_222186" x1="34.578" y1="17.205" x2="35.27" y2="16.294" gradientUnits="userSpaceOnUse"><stop stop-color="#E1AE8D"/><stop offset="1" stop-color="#F0E3BD"/></linearGradient><linearGradient id="paint4_linear_41143_222186" x1="23.336" y1="7.174" x2="23.743" y2="6.265" gradientUnits="userSpaceOnUse"><stop stop-color="#FBFDEE"/><stop offset="1" stop-color="#FFFEFF"/></linearGradient><linearGradient id="paint5_linear_41143_222186" x1="15.024" y1="22.748" x2="14.966" y2="21.063" gradientUnits="userSpaceOnUse"><stop stop-color="#D06742"/><stop offset="1" stop-color="#F89D5A"/></linearGradient><linearGradient id="paint6_linear_41143_222186" x1="15.747" y1="7.399" x2="13.444" y2="6.532" gradientUnits="userSpaceOnUse"><stop stop-color="#C7603E"/><stop offset="1" stop-color="#FFDB99"/></linearGradient><linearGradient id="paint7_linear_41143_222186" x1="26.624" y1="7.611" x2="29.19" y2="6.455" gradientUnits="userSpaceOnUse"><stop stop-color="#DA573E"/><stop offset="1" stop-color="#FFBC6E"/></linearGradient><linearGradient id="paint8_linear_41143_222186" x1="17.986" y1="28.131" x2="14.513" y2="28.44" gradientUnits="userSpaceOnUse"><stop stop-color="#D96943"/><stop offset="1" stop-color="#E68C57"/></linearGradient><linearGradient id="paint9_linear_41143_222186" x1="27.598" y1="30.089" x2="20.23" y2="21.358" gradientUnits="userSpaceOnUse"><stop stop-color="#DD7C46"/><stop offset="1" stop-color="#F19B5D"/></linearGradient><linearGradient id="paint10_linear_41143_222186" x1="26.422" y1="27.67" x2="36.159" y2="12.255" gradientUnits="userSpaceOnUse"><stop stop-color="#CE613B"/><stop offset="1" stop-color="#F2A35B"/></linearGradient><linearGradient id="paint11_linear_41143_222186" x1="21.571" y1="12.333" x2="20.953" y2="6.165" gradientUnits="userSpaceOnUse"><stop stop-color="#E28349"/><stop offset="1" stop-color="#F2A15A"/></linearGradient><clipPath id="clip0_41143_222186"><rect width="48" height="48" rx="24" fill="#fff"/></clipPath></defs></svg>