<svg xmlns="http://www.w3.org/2000/svg" width="48" height="48" viewBox="0 0 48 48"><g id="surface1"><path d="M0 24.262v-.516c.082-.09.082-.207.078-.316-.008-.524.027-1.04.074-1.559.118-1.254.317-2.496.625-3.715a24.441 24.441 0 0 1 1.461-4.148 24.53 24.53 0 0 1 1.809-3.258 24.097 24.097 0 0 1 2.633-3.3 25.58 25.58 0 0 1 2.05-1.907 22.402 22.402 0 0 1 2.293-1.68 22.935 22.935 0 0 1 3.606-1.918 23.863 23.863 0 0 1 3.86-1.27 23.176 23.176 0 0 1 4.945-.632c.105-.004.21 0 .312-.04h.55c.075.028.153.04.235.04.528-.008 1.051.031 1.574.078.77.067 1.536.16 2.29.305C29.62.66 30.82.973 32 1.39a25.051 25.051 0 0 1 3.86 1.754 23.395 23.395 0 0 1 2.949 1.976 20.246 20.246 0 0 1 1.8 1.57c.235.239.473.477.711.715a19.515 19.515 0 0 1 1.707 1.969 24.038 24.038 0 0 1 3.684 6.855c.523 1.52.887 3.075 1.09 4.668.12.954.195 1.91.199 2.872.004.87-.027 1.738-.113 2.605-.09.855-.215 1.71-.39 2.555a24.281 24.281 0 0 1-.946 3.3 24.723 24.723 0 0 1-1.633 3.551c-.465.817-.973 1.61-1.527 2.371-.434.59-.895 1.157-1.375 1.711-.407.465-.856.89-1.29 1.332-.503.516-1.042.985-1.601 1.438a23.17 23.17 0 0 1-2.645 1.863 24.643 24.643 0 0 1-3.363 1.695 24.027 24.027 0 0 1-5.137 1.465c-.671.114-1.343.18-2.02.246-.667.067-1.339.059-2.01.094-.184.012-.368-.031-.552-.031-.691.012-1.378-.067-2.066-.137a22.777 22.777 0 0 1-3.586-.683 24.071 24.071 0 0 1-7.457-3.493 22.911 22.911 0 0 1-3.02-2.507 24.794 24.794 0 0 1-1.738-1.887 24.205 24.205 0 0 1-2.738-4.121 23.516 23.516 0 0 1-1.273-2.89A23.24 23.24 0 0 1 .437 28.25c-.21-1.23-.367-2.46-.359-3.71 0-.102-.008-.2-.078-.278Zm36.945-13.95c-.183 0-.367.004-.554.02-.149.012-.192-.043-.16-.191.023-.102.054-.204.078-.305.144-.594.195-1.191.078-1.8-.2-1.083-.77-1.954-1.559-2.684-.894-.829-1.969-1.325-3.14-1.633a2.52 2.52 0 0 0-.801-.082 1.397 1.397 0 0 0-.59.144c-.309.168-.512.574-.18.946.04.046.078.09.121.128.512.465 1.016.938 1.485 1.446.375.41.66.867.761 1.426.07.394-.043.714-.355.964-.102.082-.207.16-.309.246-.199.165-.254.168-.465.008a10.715 10.715 0 0 0-.957-.664c-.59-.351-1.187-.68-1.847-.886-.363-.114-.41-.196-.344-.579.043-.23.098-.464.074-.703-.082-.828-.363-1.574-.883-2.226a1.711 1.711 0 0 0-.332-.34c-.246-.176-.484-.176-.726.012a1.316 1.316 0 0 0-.192.199c-.078.105-.156.21-.242.312-.422.512-.957.797-1.629.785a4.651 4.651 0 0 0-1.21.145c-1.02.258-1.872.754-2.372 1.719-.133.254-.304.398-.582.433a.636.636 0 0 0-.117.028 9.576 9.576 0 0 0-1.984.77c-.485.25-.946.546-1.395.859a2.388 2.388 0 0 1-.254.148.348.348 0 0 1-.343.004 1.628 1.628 0 0 1-.586-.543.685.685 0 0 1-.102-.36c-.02-.378.082-.726.262-1.058.203-.375.492-.68.781-.988.406-.43.86-.817 1.305-1.203.367-.32.32-.793-.098-1.036a.998.998 0 0 0-.297-.105 1.684 1.684 0 0 0-.61-.02c-1.769.278-3.257 1.09-4.39 2.473-.922 1.129-1.18 2.43-.754 3.844.02.062.04.125.051.191.016.074-.02.13-.098.145-.039.008-.078.008-.117.008-.672-.016-1.34.02-2.012.082-.312.027-.628.07-.921.191-.164.07-.332.133-.508.16-.2.031-.375.125-.54.238-.202.137-.324.336-.308.582.02.278.043.555.129.817.117.363.25.723.383 1.082.11.3.203.613.39.879.293.422.582.848.887 1.262.242.32.512.617.824.875.614.5 1.297.793 2.098.796a.78.78 0 0 1 .137.008c.125.016.176.067.191.188.012.09.012.183.004.277-.05.567-.05 1.129.004 1.695.09.914.262 1.813.676 2.645.07.144.054.262-.051.379l-.082.086c-.34.394-.703.765-.895 1.265a.492.492 0 0 1-.332.29 1.835 1.835 0 0 1-.289.07c-.28.05-.55.133-.808.25-1.055.48-1.832 1.242-2.305 2.308a.556.556 0 0 1-.273.293c-.782.38-1.375.961-1.825 1.7-.402.66-.687 1.375-.957 2.097a.93.93 0 0 0-.046.23c-.137 1.083.093 2.102.585 3.055a5.96 5.96 0 0 0 1.43 1.797c.918.797 1.973 1.328 3.14 1.645.716.195 1.446.289 2.184.304.215.004.239.047.141.235-.152.3-.305.597-.469.89a2.825 2.825 0 0 0-.254.579c-.254.851-.511 1.699-.77 2.55-.077.27-.066.301.16.461 1.224.871 2.497 1.645 3.86 2.27a22.01 22.01 0 0 0 3.606 1.285 21.2 21.2 0 0 0 3.637.625c.445.04.843.184 1.199.457.082.063.172.121.258.18.144.101.293.101.449.031.152-.07.293-.156.418-.266.258-.222.562-.332.898-.367.293-.031.59-.058.883-.094a23.236 23.236 0 0 0 5.16-1.218 20.806 20.806 0 0 0 4.926-2.563c.125-.086.242-.18.363-.27.09-.066.117-.156.09-.261-.016-.047-.027-.09-.039-.133-.262-.86-.523-1.715-.777-2.574a2.91 2.91 0 0 0-.27-.633c-.164-.293-.32-.59-.473-.89-.093-.18-.07-.215.137-.215.203 0 .406-.02.613-.036 1.465-.109 2.825-.554 4.043-1.382 1.012-.688 1.805-1.575 2.293-2.707.57-1.336.598-2.684.051-4.036a7.568 7.568 0 0 0-.379-.78 4.704 4.704 0 0 0-1.07-1.333 5.316 5.316 0 0 0-.895-.61.594.594 0 0 1-.277-.292 3.689 3.689 0 0 0-.11-.215c-.34-.629-.761-1.195-1.347-1.625a4.51 4.51 0 0 0-1.887-.82c-.226-.043-.383-.133-.48-.352a3.815 3.815 0 0 0-.422-.664 6.936 6.936 0 0 0-.496-.613c-.121-.133-.137-.266-.063-.418.02-.04.04-.082.063-.125.2-.414.348-.852.445-1.305.211-1 .227-2.008.176-3.023-.016-.274.023-.317.285-.325h.078c1.043.004 1.883-.445 2.586-1.175.485-.504.89-1.07 1.227-1.688.46-.848.765-1.746.91-2.7.055-.37-.063-.6-.387-.788-.402-.235-.851-.363-1.3-.445-.7-.13-1.41-.172-2.126-.165Zm0 0" style="stroke:none;fill-rule:nonzero;fill:#fff;fill-opacity:1"/><path d="M13.66 25.11c-.027-.09-.098-.118-.156-.157a1.542 1.542 0 0 0-.535-.191c-.098-.02-.2-.028-.293-.051-.14-.031-.172-.082-.114-.207.196-.422.418-.824.727-1.172.149-.176.23-.18.375.008.559.723 1.309 1.187 2.121 1.574.45.215.91.41 1.383.582.52.192 1.05.332 1.594.445.058.012.113.04.191-.007a1.666 1.666 0 0 0-.351-.215c-.16-.078-.293-.172-.36-.348-.039-.113-.137-.148-.242-.18-.734-.246-1.438-.558-2.07-1.007-1.606-1.141-2.555-2.676-2.774-4.649-.047-.41-.066-.828-.062-1.238.008-1.332.195-2.637.66-3.895a11.344 11.344 0 0 1 1.851-3.289c1.184-1.465 2.676-2.48 4.485-3.02.152-.046.305-.077.46-.113.145-.03.286-.05.419.043.062.047.11.012.136-.05.024-.063.047-.125.067-.188.316-.95.98-1.539 1.918-1.832a3.93 3.93 0 0 1 1.465-.164 2.1 2.1 0 0 0 1.59-.578c.125-.117.238-.242.363-.363.144-.145.199-.141.305.027.542.871.64 2.063-.004 3.008-.465.68-1.137 1.02-1.95 1.082a2.962 2.962 0 0 1-1.093-.098c-.051-.015-.102-.035-.164-.004-.008.086.062.121.113.164.144.106.297.196.46.27 1.036.465 2.434.215 3.266-.813.297-.367.383-.382.829-.214a8.78 8.78 0 0 1 2.738 1.66 10.186 10.186 0 0 1 2.844 4.136c.449 1.196.714 2.426.82 3.692.07.84.055 1.687-.149 2.515-.25 1.024-.68 1.965-1.37 2.77a6.701 6.701 0 0 1-2.493 1.797 15.94 15.94 0 0 1-.902.351c-.133.051-.238.11-.262.262-.016.082-.082.133-.148.18-.11.074-.215.148-.32.226-.048.036-.106.063-.118.141.07.043.137.004.2-.016.5-.144.992-.312 1.48-.496.836-.312 1.64-.683 2.394-1.164a4.212 4.212 0 0 0 1.024-.89c.039-.043.078-.09.12-.13.142-.14.204-.136.337.016.047.059.086.117.133.176a5.739 5.739 0 0 1 .593.953c.059.156.028.219-.14.242-.242.04-.477.094-.696.207-.07.04-.148.063-.19.133.042.067.1.04.148.032.425-.051.851-.063 1.28-.047.641.023 1.255.152 1.817.472.695.39 1.149.992 1.43 1.73.105.278.191.56.25.852.008.043.015.09.031.133.035.086.078.102.145.035.062-.07.12-.082.207-.047.086.032.105-.02.097-.093 0-.008-.004-.012-.004-.02-.007-.062-.058-.137.012-.18.078-.046.137.012.195.055 1.164.86 1.813 2.024 1.97 3.445.14 1.266-.2 2.41-1.024 3.387-.977 1.156-2.242 1.809-3.742 1.988a8.16 8.16 0 0 1-3.497-.34c-1.011-.324-1.933-.824-2.8-1.433-.176-.125-.352-.258-.528-.387a.978.978 0 0 1-.402-.754c-.023-.324-.063-.644-.094-.964-.008-.079-.015-.157-.02-.235-.011-.226.063-.402.286-.492.133-.05.187-.152.207-.29.027-.226.062-.452.094-.683.015-.117.05-.23.101-.34.192-.394.543-.57.977-.484.144.027.277.082.414.133.355.133.715.27 1.043.469a.37.37 0 0 0 .219.074c.07-.004.097-.043.066-.11a.417.417 0 0 0-.125-.148c-.105-.09-.215-.176-.32-.262-.07-.054-.141-.097-.207-.152-.137-.113-.13-.18.035-.254.344-.156.66-.086.937.149.246.21.453.46.582.761.028.063.055.121.078.184a.428.428 0 0 0 .332.281c.352.059.692.168 1.036.25.254.059.507.074.765.063.035 0 .067 0 .102-.008.094-.024.113-.082.058-.16-.05-.063-.12-.102-.183-.149-.133-.094-.133-.168.012-.25.332-.195.69-.32 1.074-.379.492-.07.968 0 1.433.18a.51.51 0 0 0 .188.047c.043 0 .082-.004.101-.047.02-.043 0-.078-.027-.11a.518.518 0 0 0-.168-.136c-.762-.422-1.566-.563-2.418-.344a1.53 1.53 0 0 0-.629.32c-.05.043-.105.082-.156.122a.291.291 0 0 1-.297.039c-.437-.176-.723-.582-.715-.977.004-.246-.004-.488.055-.727a.647.647 0 0 0-.047-.445 7.368 7.368 0 0 0-.496-.828c-.023-.031-.043-.07-.102-.07-.039.074-.004.152.004.222.051.375.043.75.012 1.125-.008.051-.016.106-.031.157-.035.132-.098.16-.215.093-.05-.03-.098-.07-.148-.101-.497-.332-1.028-.399-1.547-.102-.325.184-.633.219-.996.172-.52-.062-.95.152-1.274.57l-.047.063c-.125.16-.148.16-.258-.02a7.918 7.918 0 0 0-.586-.843 5.852 5.852 0 0 0-2.457-1.77 7.101 7.101 0 0 0-2.96-.465c-1.403.082-2.66.559-3.747 1.457a6.774 6.774 0 0 0-1.3 1.453c-.172.254-.203.254-.399.028a1.367 1.367 0 0 0-1.258-.477 1.462 1.462 0 0 1-.957-.176c-.464-.257-.953-.21-1.414.055-.09.055-.175.121-.265.176-.114.07-.164.055-.196-.078a4.213 4.213 0 0 1-.109-.762c-.012-.227.008-.45.035-.672.008-.047.031-.101-.02-.152-.066.027-.09.094-.117.148-.152.278-.296.559-.449.836a.597.597 0 0 0-.047.477c.094.32.106.648.024.972-.106.395-.38.602-.758.704a.274.274 0 0 1-.254-.067c-.121-.101-.25-.2-.387-.277a2.16 2.16 0 0 0-1.293-.27 3.414 3.414 0 0 0-1.297.383 1.006 1.006 0 0 0-.289.207c-.027.027-.05.063-.023.106.02.027.059.03.09.023.082-.02.164-.047.242-.07a2.895 2.895 0 0 1 2.176.11c.035.015.07.034.105.054.246.129.254.199.047.383-.055.046-.156.093-.121.18.031.077.137.062.211.066.168.015.328-.012.492-.032.434-.058.856-.164 1.281-.246.188-.039.301-.148.368-.32a2.28 2.28 0 0 1 .445-.742c.23-.254.504-.426.867-.39.11.01.219.038.32.081.16.074.172.157.028.254a2.811 2.811 0 0 0-.492.39c-.067.067-.192.141-.122.235.055.078.165-.015.247-.05.41-.18.82-.364 1.226-.547.129-.06.262-.094.402-.102.282-.016.5.09.641.34.18.328.266.687.285 1.058.004.067.004.133.008.196.008.105.059.168.152.21.325.141.38.243.34.594-.008.055-.015.106-.02.157-.003.113-.062.191-.14.27-.61.655-1.41.976-2.219 1.276-.285.106-.574.2-.87.266-.044.012-.09.024-.134.04-.136.058-.168.144-.078.265.149.199.309.39.473.582.105.125.246.148.39.07.465-.234.938-.453 1.356-.77.18-.14.367-.273.566-.394.247-.144.422-.355.477-.648.035-.18.063-.36.094-.54.023-.007.035-.003.035.012a3.82 3.82 0 0 1-.125.817c-.031.125-.113.222-.2.316-.417.438-.91.774-1.433 1.074-.535.309-1.098.57-1.68.785-1.457.528-2.945.668-4.468.34-1.043-.222-1.961-.695-2.703-1.468-.622-.649-1.11-1.391-1.317-2.282-.242-1.035-.129-2.043.309-3.011a5.187 5.187 0 0 1 1.136-1.598c.153-.148.325-.27.5-.387.036-.027.079-.062.125-.035.051.027.036.074.032.121-.008.14-.008.14.14.16.032.004.067.008.098.02.137.047.137.047.176-.09.097-.348.195-.695.336-1.031.336-.79.886-1.356 1.68-1.692.894-.379 1.812-.48 2.761-.261.063.011.125.043.207.011Zm4.348-5.387a3.911 3.911 0 0 0 .785 2.46c.293.407.66.731 1.094.981a7.756 7.756 0 0 0 1.66.676c1.07.305 2.16.398 3.265.27.883-.102 1.727-.344 2.551-.672a3.488 3.488 0 0 0 1.301-.872 4.05 4.05 0 0 0 1.125-2.71 4.125 4.125 0 0 0-.21-1.34c-.06-.196-.138-.383-.208-.575-.07-.199-.043-.25.16-.28.133-.024.262-.044.39-.067a.967.967 0 0 0 .153-.04c.055-.015.11-.038.102-.105-.012-.074-.074-.082-.137-.086-.031 0-.066.008-.098.008l-.394.012a.675.675 0 0 1-.621-.317 4.475 4.475 0 0 0-.79-.906c-.144-.129-.156-.324-.042-.48.113-.157.27-.203.453-.18.176.023.277.133.332.297.039.11.027.219.016.332-.012.148.02.2.152.266a.914.914 0 0 0 .383.085c.238 0 .472-.027.707-.07.293-.05.351-.113.367-.414a.518.518 0 0 1 .129-.34c.183-.191.437-.246.668-.133a.57.57 0 0 1 .308.641c-.015.078-.043.152-.062.23a.507.507 0 0 0 .031.364c.078.137.2.152.309.043a.436.436 0 0 0 .074-.094c.289-.492.45-1.027.43-1.602-.028-.77-.301-1.449-.852-2.003-.648-.66-1.418-.98-2.355-.852a2.81 2.81 0 0 0-2.336 2.078 3.296 3.296 0 0 0-.098.961c.008.164-.035.2-.2.168-.07-.016-.14-.039-.21-.059a8.06 8.06 0 0 0-1.824-.304c-1.047-.051-2.078.05-3.094.308-.305.078-.352.043-.367-.265-.035-.739-.258-1.403-.746-1.973-.563-.652-1.282-.969-2.13-.945-1.327.035-2.32.898-2.679 2.035-.266.848-.176 1.668.305 2.426.043.066.086.136.156.18.09.058.207.054.277-.005.078-.066.035-.14.012-.214a1.07 1.07 0 0 1 .137-.946.444.444 0 0 1 .383-.203c.3-.004.5.149.558.445.02.106.024.211.07.31.047.093.114.144.223.112a.399.399 0 0 1 .234-.007c.274.074.547.039.82-.008.223-.04.235-.047.2-.266a.509.509 0 0 1 .18-.496.434.434 0 0 1 .633.047c.18.21.171.398-.055.582-.317.262-.59.559-.809.91a.534.534 0 0 1-.445.254c-.164.008-.328.004-.492.004-.055 0-.106-.004-.157.004a.071.071 0 0 0-.07.058c-.004.04.012.07.043.082a.748.748 0 0 0 .145.059c.136.031.273.059.406.082.242.043.262.074.168.293-.027.059-.05.121-.078.18a3.787 3.787 0 0 0-.336 1.586Zm11.781 13.8c.05.547.129.747.55 1.028.56.375 1.13.73 1.72 1.054a.836.836 0 0 0 .234.102c.094.02.187.012.262-.055.218-.191.394-.422.543-.672.066-.105.027-.183-.094-.23-.074-.031-.152-.047-.227-.066-1.011-.27-1.992-.61-2.808-1.301-.032-.031-.07-.074-.117-.055-.063.02-.055.082-.059.133-.004.02-.004.043-.004.062Zm-1.363-23.488a2.496 2.496 0 0 0-1.09.3.978.978 0 0 0-.379.368c-.086.16-.066.348.047.457.125.117.281.13.453.024.094-.059.184-.13.281-.184.45-.258.899-.27 1.344.004.074.047.14.098.211.144.164.114.266.118.398.024.145-.106.192-.238.137-.414a.537.537 0 0 0-.183-.278c-.344-.296-.747-.425-1.22-.445Zm-9.063.02c-.449.004-.933.172-1.254.437a.63.63 0 0 0-.214.278.31.31 0 0 0 .062.347c.086.098.2.121.324.094a.614.614 0 0 0 .246-.125c.41-.344 1.11-.375 1.618.008.066.05.136.101.214.133.211.078.387-.012.442-.23.043-.173-.02-.31-.137-.43-.363-.36-.816-.493-1.3-.512Zm-.23 15.308c.086.04.156.075.226.106.688.297 1.41.504 2.094.804l.04.012c.058.016.12.024.155-.043.028-.055-.007-.101-.046-.137a3.156 3.156 0 0 0-.781-.45c-.508-.198-1.04-.276-1.575-.335-.031-.004-.066-.011-.113.043Zm9.394.016c-.129-.063-.207-.031-.28-.024-.567.075-1.114.204-1.63.45-.152.074-.3.16-.422.285-.039.043-.082.094-.039.156.04.059.102.047.16.024.102-.043.204-.09.309-.13.398-.144.8-.285 1.203-.43.235-.081.45-.198.703-.331Zm4.7.82c-.375-.422-2.13-.554-2.707-.176.449-.007.898-.043 1.347-.007.457.035.906.105 1.36.183Zm-15.914-.191c-.055-.055-.094-.055-.133-.063-.348-.07-.7-.12-1.055-.14-.54-.028-1.063.054-1.55.293-.044.02-.098.035-.134.125.954-.25 1.899-.235 2.871-.215Zm0 0" style="stroke:none;fill-rule:nonzero;fill:#fff;fill-opacity:1"/><path d="M27.77 42.105c-.633.22-1.254.407-1.891.528a10.136 10.136 0 0 1-3.887.023c-.637-.117-1.254-.316-1.887-.539.02.11.086.137.133.176.164.137.344.246.532.34.27.129.285.195.125.453-.278.457-.59.887-.938 1.293-.223.254-.453.496-.672.754-.168.199-.36.246-.613.164a34.507 34.507 0 0 1-3.356-1.23 20.647 20.647 0 0 1-2.89-1.532l-.035-.023c-.266-.14-.344-.36-.278-.645.059-.258.106-.515.168-.773.242-1.02.578-2.012.969-2.985a.542.542 0 0 1 .43-.359 9.635 9.635 0 0 0 2.37-.797 7.93 7.93 0 0 0 1.614-1.023c.055-.047.11-.094.172-.133.11-.07.156-.059.223.058.046.079.086.165.125.247.753 1.515 1.972 2.492 3.562 3.015 1.512.496 3.024.446 4.512-.113 1.11-.414 2.05-1.066 2.765-2.024.235-.32.418-.671.59-1.027.02-.043.035-.086.059-.125.062-.113.113-.129.223-.066.046.023.085.058.128.09a9.482 9.482 0 0 0 3.516 1.78c.184.048.371.098.559.126.238.035.367.164.453.383.191.488.386.98.547 1.48.23.723.422 1.453.539 2.203.011.059.02.117.027.176.04.25-.047.434-.258.574-.758.504-1.55.946-2.375 1.332-1.02.48-2.074.867-3.148 1.215-.2.063-.403.129-.61.168a.919.919 0 0 1-.851-.258c-.207-.195-.375-.422-.555-.64a20.81 20.81 0 0 1-.96-1.23c-.231-.333-.231-.356.124-.532.207-.102.41-.207.594-.352.05-.035.117-.062.14-.172Zm-8.489-1.968c.055.52.899 1.191 1.422 1.136-.48-.394-.937-.785-1.422-1.136Zm7.828 1.203c.36-.078 1.055-.477 1.254-.707.075-.09.153-.184.196-.293.023-.05.039-.106-.012-.145-.05-.039-.102-.008-.145.024l-.047.035c-.285.246-.57.484-.855.73-.121.11-.258.2-.39.356Zm0 0" style="stroke:none;fill-rule:nonzero;fill:#fff;fill-opacity:1"/><path d="M23.863 38.563c-1.25-.016-2.36-.336-3.324-1.055-.707-.528-1.309-1.16-1.687-1.977-.028-.062-.051-.12-.079-.183a.461.461 0 0 1 .063-.532c.152-.183.2-.402.215-.644a22 22 0 0 0 .035-1.438 2.64 2.64 0 0 0-.129-.738.661.661 0 0 0-.191-.316c-.172-.14-.176-.313-.102-.5.125-.313.281-.61.461-.895.836-1.332 2.059-2.101 3.586-2.39a6.048 6.048 0 0 1 3.559.39c.543.23 1.027.555 1.457.965.328.313.632.648.894 1.023.188.274.336.567.465.868a.501.501 0 0 1-.102.582c-.328.351-.382.77-.214 1.21.082.22.105.43.062.657-.047.234-.039.472-.031.707.008.207.062.402.156.586a.394.394 0 0 1 .008.344c-.512 1.191-1.332 2.101-2.488 2.699a5.87 5.87 0 0 1-2.614.636Zm-4.355-6.57c.008.089.012.183.023.273a.668.668 0 0 0 .051.172c.145.374.441.527.832.433.172-.039.324-.117.461-.219.652-.472 1-1.12 1.09-1.914a1.1 1.1 0 0 0-.082-.558c-.137-.317-.41-.47-.746-.414a1.445 1.445 0 0 0-.684.336 2.83 2.83 0 0 0-.71.937c-.141.3-.231.617-.235.953Zm.008 2.374c-.004.14.007.27.035.399.137.629.46 1.14.953 1.55.152.13.328.22.52.274.402.12.738-.05.878-.445.075-.204.078-.415.051-.625a2.394 2.394 0 0 0-.21-.715c-.192-.403-.438-.762-.802-1.035-.195-.141-.402-.25-.644-.278a.633.633 0 0 0-.688.383.99.99 0 0 0-.093.492Zm8.894-2.347c0-.133 0-.247-.023-.356a2.745 2.745 0 0 0-.969-1.605 1.441 1.441 0 0 0-.563-.282c-.402-.09-.707.082-.832.47a1.262 1.262 0 0 0-.054.566c.07.62.351 1.14.77 1.585.226.235.495.414.823.48.348.075.645-.085.778-.417.058-.148.074-.305.07-.441Zm.004 2.382a1.697 1.697 0 0 0-.039-.375c-.113-.422-.426-.613-.855-.515a1.24 1.24 0 0 0-.512.242c-.594.484-.961 1.094-1.043 1.86-.024.214.012.421.094.616.105.25.3.38.566.395.21.012.402-.055.582-.16a2.16 2.16 0 0 0 .535-.461c.403-.457.649-.984.672-1.602Zm-4.453-3.933c.332.004.652-.051.965-.172.238-.09.449-.223.605-.426a.642.642 0 0 0 .059-.738.955.955 0 0 0-.414-.383c-.809-.41-1.617-.41-2.426-.004-.117.063-.223.14-.309.238-.261.293-.261.653 0 .946a1.4 1.4 0 0 0 .57.375c.305.113.622.168.95.16Zm-.004 7.465c.258.004.512-.036.758-.106.297-.078.57-.207.777-.445.254-.285.25-.637-.004-.926a1.248 1.248 0 0 0-.48-.336c-.695-.289-1.395-.281-2.094 0-.172.07-.324.176-.453.309-.29.3-.29.687 0 .988.09.09.191.16.3.223.372.21.774.28 1.196.293Zm-.492.27a.47.47 0 0 0 .3.081c.32.004.645.008.965 0a3.17 3.17 0 0 0 .856-.148c.2-.059.375-.16.523-.305.047-.043.149-.094.094-.168-.039-.059-.121.004-.176.035-.718.364-1.488.512-2.289.504h-.273ZM34.883 7.351c-.012.152.008.27.027.386.13.828-.113 1.574-.543 2.27-.152.246-.37.441-.597.625-.133.11-.266.215-.407.312-.133.094-.215.086-.336-.023a2.31 2.31 0 0 1-.187-.203 5.294 5.294 0 0 0-.559-.664c-.125-.125-.117-.18.024-.282.117-.085.242-.164.355-.253.875-.68 1.067-1.73.621-2.692-.21-.453-.511-.844-.851-1.203-.32-.336-.664-.64-1.02-.934-.047-.039-.133-.074-.105-.148.035-.082.117-.031.175-.016.786.2 1.528.5 2.184.985.785.582 1.348 1.332 1.629 2.265.277.914.121 1.785-.332 2.61a3.59 3.59 0 0 1-.856 1.05c-.12.102-.23.215-.347.325-.047.043-.098.078-.156.02-.051-.052-.032-.11.007-.16.043-.052.09-.095.137-.145.254-.262.527-.512.758-.801.383-.485.644-1.024.719-1.64.058-.505.027-1-.18-1.473-.031-.07-.059-.145-.16-.211ZM16.457 4.594c-.09.136-.219.207-.324.3-.492.43-.95.895-1.32 1.434-.301.438-.504.906-.516 1.45-.016.675.273 1.206.765 1.64.122.11.258.2.391.297.184.133.2.207.047.363-.215.223-.402.469-.598.707-.23.281-.34.293-.625.067-.445-.348-.832-.747-1.054-1.278a8.542 8.542 0 0 1-.36-1.11c-.058-.23-.027-.468.008-.706.016-.094.05-.188.02-.305-.102.063-.121.156-.153.234-.18.477-.207.961-.113 1.458.105.546.324 1.043.645 1.496.222.312.484.586.789.82.058.043.12.082.152.152a.09.09 0 0 1-.004.094c-.027.035-.062.05-.105.035a.367.367 0 0 1-.102-.055c-.738-.59-1.305-1.296-1.535-2.238a3.193 3.193 0 0 1 .203-2.101c.45-.996 1.191-1.72 2.152-2.23a6.007 6.007 0 0 1 1.403-.524c.066-.02.136-.055.234 0Zm22.375 7.687c-.016-.015-.027-.027-.035-.031-.906-.215-1.8-.238-2.676.121-.39.16-.73.395-1.035.684-.133.125-.258.261-.39.386-.118.11-.18.106-.25-.027-.173-.34-.356-.676-.555-1-.086-.137-.055-.226.09-.312a3.91 3.91 0 0 1 .402-.207 6.865 6.865 0 0 1 3.41-.563c.504.047.992.129 1.477.258.058.015.117.027.171.05.137.055.184.13.168.274 0 .035-.007.066-.015.098-.266 1.086-.684 2.105-1.403 2.976-.484.586-1.07 1.008-1.836 1.14-.242.044-.484.032-.73.028a.157.157 0 0 1-.059-.011c-.12-.028-.195-.125-.195-.262 0-.121.043-.168.2-.195.406-.075.784-.211 1.136-.434.453-.285.773-.684 1.023-1.149.137-.25.247-.511.336-.78.051-.157.102-.313.168-.466a.894.894 0 0 1 .516-.515c.027-.012.063-.016.082-.063Zm-28.48-.984c1.128.008 1.886.094 2.601.394.285.118.567.254.844.391.195.094.215.176.098.36-.2.296-.375.601-.528.925-.02.035-.039.07-.062.102-.051.062-.114.066-.172.011-.035-.03-.063-.07-.094-.101-.32-.348-.66-.664-1.078-.887-.621-.328-1.277-.484-1.98-.418-.254.024-.512.055-.766.086a.536.536 0 0 0-.133.027c-.074.028-.086.083-.031.133.031.028.066.043.101.063.207.12.352.297.442.515.043.098.074.196.105.297.223.723.61 1.34 1.172 1.844.34.305.738.508 1.191.59l.172.035c.098.016.184.047.196.16a.263.263 0 0 1-.133.266.57.57 0 0 1-.29.062c-.726-.007-1.366-.234-1.905-.734-.606-.563-1.012-1.258-1.352-2-.195-.426-.336-.871-.48-1.316a.224.224 0 0 1-.016-.055c-.074-.281-.027-.375.254-.445.722-.188 1.453-.313 1.844-.305Zm0 0" style="stroke:none;fill-rule:nonzero;fill:#fff;fill-opacity:1"/><path d="M10.754 12.89c.27.036.559.15.836.286.445.226.789.562 1.082.96.113.153.14.305.082.485-.063.191-.113.39-.176.586-.066.211-.125.246-.348.219-1-.13-1.625-.719-1.996-1.617a3.845 3.845 0 0 1-.074-.227c-.105-.371.164-.707.594-.691Zm25.48.333c-.062.117-.12.222-.18.328-.077.144-.085.156.024.277.07.078.094.145.05.25-.05.117-.003.184.118.176.258-.024.508-.074.75-.16.11-.04.145-.106.113-.219-.043-.148-.047-.297-.054-.45-.012-.21-.04-.269-.192-.456.117-.067.25-.078.375-.102.117-.02.235-.023.356-.02.222.008.281.087.218.305a4.608 4.608 0 0 1-.25.684c-.109.25-.238.484-.402.7-.39.51-.91.788-1.543.859-.234.027-.355-.055-.437-.278l-.176-.504a.533.533 0 0 1 .05-.472c.114-.192.258-.352.446-.465.195-.117.379-.239.555-.38.043-.038.086-.081.18-.073Zm-12.27 33.21c-.015-.011-.038-.027-.05-.046a1.552 1.552 0 0 1-.078-.137c-.184-.402-.488-.68-.867-.887-.063-.031-.164-.039-.153-.133.008-.082.102-.09.168-.109.418-.14.676-.441.848-.832.043-.098.074-.195.121-.289.031-.063.086-.063.121-.004a.69.69 0 0 1 .059.149c.152.46.433.804.89 1 .024.007.047.02.07.03.06.04.071.083.009.126-.059.039-.122.074-.184.113a2.003 2.003 0 0 0-.844.91c-.02.047-.031.106-.11.11Zm.056-23.124c-.84.015-1.625-.059-2.391-.274-.715-.2-1.363-.52-1.906-1.039-.578-.555-.836-1.246-.875-2.035a3.83 3.83 0 0 1 .12-1.074 5.033 5.033 0 0 1 .59-1.457c.31-.504.739-.86 1.278-1.082.668-.274 1.375-.41 2.09-.489a9.26 9.26 0 0 1 3.308.243c1.172.296 1.957 1.011 2.387 2.128.207.536.348 1.082.336 1.657a3.022 3.022 0 0 1-.848 2.05c-.535.567-1.187.903-1.93 1.098-.722.192-1.452.309-2.16.274Zm-4.762-4.594c-.086.062-.094.14-.113.207-.243.863-.094 1.672.402 2.41.348.516.836.871 1.406 1.11.785.331 1.61.5 2.457.55a8.734 8.734 0 0 0 2.93-.32c.73-.203 1.348-.59 1.816-1.192.461-.585.653-1.253.606-1.992-.008-.082-.016-.16-.07-.226-.087-.106-.212-.086-.258.043-.016.047-.02.101-.028.152-.105.832-.52 1.484-1.191 1.969-.512.375-1.098.597-1.707.75-1.469.367-2.903.219-4.29-.371a3.245 3.245 0 0 1-1.124-.79 2.935 2.935 0 0 1-.774-1.976c-.004-.105-.004-.21-.062-.324Zm6.297 2.27c.48.027 1.125-.266 1.5-.61a.763.763 0 0 0 .125-.148c.11-.16.097-.317-.024-.43-.12-.117-.277-.129-.433-.016-.078.055-.149.13-.22.196-.179.175-.39.293-.632.34-.52.101-.98-.016-1.371-.383-.09-.086-.176-.18-.266-.262-.226-.207-.484-.203-.707 0a3.143 3.143 0 0 0-.195.2c-.55.585-1.52.648-2.117.023a.645.645 0 0 0-.219-.165c-.129-.058-.254-.039-.344.055-.093.09-.113.215-.054.344a.645.645 0 0 0 .164.219 2.085 2.085 0 0 0 2.789.168c.312-.243.351-.243.664.004.383.308.82.464 1.344.464Zm.273-1.934c.418-.004.762-.367.758-.801-.008-.398-.379-.75-.797-.746-.402.004-.738.351-.738.77a.78.78 0 0 0 .777.777Zm-4.613-.766c-.004.438.308.762.73.762.414 0 .797-.367.797-.77.004-.398-.363-.757-.777-.765-.418-.008-.75.332-.75.773ZM19.12 13.95c-.004.5-.281.82-.766.914a.86.86 0 0 1-.996-.55 2.95 2.95 0 0 1-.09-.262c-.035-.098-.097-.133-.199-.11l-.058.012c-.117.031-.223.012-.297-.09-.074-.101-.074-.21-.024-.32.082-.188.278-.227.434-.086.164.156.164.156.309-.031.043-.055.093-.11.144-.164a.84.84 0 0 1 1.14-.075c.255.2.423.45.403.762Zm10.508-.941c.535 0 .984.433.984.957 0 .492-.437.918-.945.918a.94.94 0 0 1-.934-.93c0-.508.418-.945.899-.945Zm-1.293.36a.3.3 0 0 1 .285.312.292.292 0 0 1-.316.297c-.16-.004-.282-.145-.274-.317a.295.295 0 0 1 .305-.293Zm0 0" style="stroke:none;fill-rule:nonzero;fill:#fff;fill-opacity:1"/></g></svg>