<svg xmlns="http://www.w3.org/2000/svg" width="48" height="48" fill="none"><g clip-path="url(#clip0_1301_868)"><path d="M0 14C0 6.268 6.268 0 14 0h20c7.732 0 14 6.268 14 14v20c0 7.732-6.268 14-14 14H14C6.268 48 0 41.732 0 34V14z" fill="url(#paint0_linear_1301_868)"/><path d="M24.003 6.5a17.476 17.476 0 0 0-11.251 4.08H35.25A17.462 17.462 0 0 0 24.003 6.5zm0 35a17.456 17.456 0 0 0 11.163-4.009H12.837A17.47 17.47 0 0 0 24.003 41.5zm8.353-26.116h6.904a17.65 17.65 0 0 0-1.987-2.818H10.745a17.421 17.421 0 0 0-2.718 4.245H31.34l1.016-1.427zm-8.521 9.645H6.503c.083 1.442.345 2.867.781 4.244h14.93l1.029-1.447h17.865c.206-.92.337-1.856.392-2.797H23.835zm3.9-3.425h13.632a17.198 17.198 0 0 0-.625-2.818H7.26a17.407 17.407 0 0 0-.76 4.244h20.22l1.015-1.426zm-16.94 13.9h6.941l1.014-1.426h19.581a17.325 17.325 0 0 0 1.624-2.818H8.05a17.46 17.46 0 0 0 2.745 4.244z" fill="#fff"/></g><defs><linearGradient id="paint0_linear_1301_868" x1="48" y1="48" x2="0" y2="0" gradientUnits="userSpaceOnUse"><stop/><stop offset="1"/></linearGradient><clipPath id="clip0_1301_868"><rect width="48" height="48" rx="24" fill="#fff"/></clipPath></defs></svg>