<svg width="52" height="52" viewBox="0 0 52 52" fill="none" xmlns="http://www.w3.org/2000/svg">
<path d="M51.4855 26.4695C51.7531 12.386 40.553 0.752097 26.4695 0.48451C12.386 0.216922 0.752072 11.417 0.484485 25.5005C0.216897 39.584 11.4169 51.2179 25.5005 51.4855C39.584 51.7531 51.2179 40.5531 51.4855 26.4695Z" fill="black"/>
<path d="M40.6554 13C40.7478 12.9991 40.8364 13.0357 40.9011 13.1013C41.0339 13.2355 41.0325 13.4517 40.8983 13.584L37.5705 16.885C37.4406 17.0131 37.2656 17.0844 37.0836 17.0844H20.2387C20.1472 17.0849 20.0595 17.0487 19.9952 16.984C19.862 16.8503 19.8625 16.6346 19.9952 16.5014L23.3235 13.1994C23.453 13.0713 23.6279 13 23.8099 13H40.6558H40.6554Z" fill="url(#paint0_linear_2036_196)"/>
<path d="M20.2382 18.582C20.1458 18.581 20.0572 18.6176 19.9924 18.6833C19.8597 18.8174 19.8611 19.0337 19.9952 19.1659L23.3231 22.467C23.453 22.5951 23.6279 22.6664 23.8099 22.6664H40.6549C40.7464 22.6668 40.8341 22.6307 40.8983 22.566C41.0315 22.4323 41.0311 22.2166 40.8983 22.0833L37.57 18.7813C37.4406 18.6533 37.2656 18.582 37.0836 18.582H20.2377H20.2382Z" fill="url(#paint1_linear_2036_196)"/>
<path d="M40.6556 24.2524C40.748 24.2515 40.8366 24.288 40.9014 24.3537C41.0341 24.4879 41.0327 24.7041 40.8986 24.8363L37.5707 28.1374C37.4408 28.2655 37.2659 28.3368 37.0839 28.3368H20.2389C20.1474 28.3372 20.0597 28.3011 19.9955 28.2364C19.8623 28.1027 19.8627 27.887 19.9955 27.7538L23.3238 24.4517C23.4532 24.3237 23.6282 24.2524 23.8102 24.2524H40.6561H40.6556Z" fill="url(#paint2_linear_2036_196)"/>
<path d="M11.3442 29.7458C11.2518 29.7449 11.1631 29.7815 11.0984 29.8471C10.9656 29.9813 10.9671 30.1975 11.1012 30.3298L14.429 33.6308C14.5589 33.7589 14.7339 33.8302 14.9159 33.8302H31.7608C31.8523 33.8306 31.94 33.7945 32.0043 33.7298C32.1375 33.5961 32.137 33.3804 32.0043 33.2472L28.676 29.9451C28.5465 29.8171 28.3716 29.7458 28.1896 29.7458H11.3437H11.3442Z" fill="url(#paint3_linear_2036_196)"/>
<path d="M31.7616 35.3278C31.854 35.3268 31.9426 35.3634 32.0073 35.4291C32.1401 35.5632 32.1387 35.7795 32.0045 35.9117L28.6767 39.2128C28.5468 39.3409 28.3718 39.4121 28.1898 39.4121H11.3449C11.2534 39.4126 11.1657 39.3765 11.1014 39.3118C10.9682 39.1781 10.9687 38.9623 11.1014 38.8291L14.4297 35.5271C14.5592 35.3991 14.7341 35.3278 14.9161 35.3278H31.762H31.7616Z" fill="url(#paint4_linear_2036_196)"/>
<path d="M31.7616 24.2524C31.854 24.2515 31.9426 24.288 32.0073 24.3537C32.1401 24.4879 32.1387 24.7041 32.0045 24.8363L28.6767 28.1374C28.5468 28.2655 28.3718 28.3368 28.1898 28.3368H11.3449C11.2534 28.3372 11.1657 28.3011 11.1014 28.2364C10.9682 28.1027 10.9687 27.887 11.1014 27.7538L14.4297 24.4517C14.5592 24.3237 14.7341 24.2524 14.9161 24.2524H31.762H31.7616Z" fill="url(#paint5_linear_2036_196)"/>
<defs>
<linearGradient id="paint0_linear_2036_196" x1="21.5108" y1="14.951" x2="42.1217" y2="14.951" gradientUnits="userSpaceOnUse">
<stop stop-color="#979FAA"/>
<stop offset="1" stop-color="#3C4044"/>
</linearGradient>
<linearGradient id="paint1_linear_2036_196" x1="39.3827" y1="20.533" x2="18.7718" y2="20.533" gradientUnits="userSpaceOnUse">
<stop stop-color="#979FAA"/>
<stop offset="1" stop-color="#3C4044"/>
</linearGradient>
<linearGradient id="paint2_linear_2036_196" x1="21.5111" y1="26.2034" x2="42.122" y2="26.2034" gradientUnits="userSpaceOnUse">
<stop stop-color="#979FAA"/>
<stop offset="1" stop-color="#3C4044"/>
</linearGradient>
<linearGradient id="paint3_linear_2036_196" x1="14.1962" y1="31.8482" x2="31.0904" y2="31.8482" gradientUnits="userSpaceOnUse">
<stop stop-color="white"/>
<stop offset="1" stop-color="#999999"/>
</linearGradient>
<linearGradient id="paint4_linear_2036_196" x1="28.9095" y1="37.4302" x2="12.0154" y2="37.4302" gradientUnits="userSpaceOnUse">
<stop stop-color="white"/>
<stop offset="1" stop-color="#999999"/>
</linearGradient>
<linearGradient id="paint5_linear_2036_196" x1="28.9095" y1="26.3548" x2="12.0154" y2="26.3548" gradientUnits="userSpaceOnUse">
<stop stop-color="white"/>
<stop offset="1" stop-color="#999999"/>
</linearGradient>
</defs>
</svg>
