<svg xmlns="http://www.w3.org/2000/svg" width="48" height="48" fill="none"><g clip-path="url(#clip0_1300_1368)"><path d="M0 14C0 6.268 6.268 0 14 0h20c7.732 0 14 6.268 14 14v20c0 7.732-6.268 14-14 14H14C6.268 48 0 41.732 0 34V14z" fill="url(#paint0_linear_1300_1368)"/><path fill-rule="evenodd" clip-rule="evenodd" d="M14.946 13.873H38.28l-7.192-4.44H7.755l7.191 4.44zm25.673 1.329H14.757a.666.666 0 0 1-.348-.1L5.065 9.335a.665.665 0 0 1 .349-1.23h25.861c.123 0 .245.035.35.099l9.343 5.77a.663.663 0 0 1-.35 1.228zM16.556 37.035h23.332l-7.192-4.44H9.364l7.192 4.44zm25.672 1.329H16.367a.666.666 0 0 1-.349-.099l-9.343-5.768a.665.665 0 0 1 .348-1.23h25.862c.123 0 .244.035.349.098l9.344 5.77a.663.663 0 0 1-.35 1.229zM20.465 23.299a4.078 4.078 0 0 0 4.072 4.033h.041a4.077 4.077 0 0 0 4.032-4.114 4.048 4.048 0 0 0-1.222-2.868 4.045 4.045 0 0 0-2.849-1.164h-.042a4.047 4.047 0 0 0-2.868 1.222 4.05 4.05 0 0 0-1.164 2.891z" fill="#fff"/></g><defs><linearGradient id="paint0_linear_1300_1368" x1="48" y1="48" x2=".147" y2="-.146" gradientUnits="userSpaceOnUse"><stop/><stop offset="1" stop-color="#3F3F3F"/></linearGradient><clipPath id="clip0_1300_1368"><rect width="48" height="48" rx="24" fill="#fff"/></clipPath></defs></svg>