<svg xmlns="http://www.w3.org/2000/svg" xmlns:xlink="http://www.w3.org/1999/xlink" width="48px" height="48px"
    viewBox="0 0 48 48" version="1.1">
    <g id="surface1">
        <path style=" stroke:none;fill-rule:nonzero;fill:rgb(255,255,255);fill-opacity:1;"
            d="M 48 24 C 48 37.253906 37.253906 48 24 48 C 10.746094 48 0 37.253906 0 24 C 0 10.746094 10.746094 0 24 0 C 37.253906 0 48 10.746094 48 24 Z M 48 24 " />
        <path style=" stroke:none;fill-rule:nonzero;fill:fill:rgb(255,255,255);fill-opacity:1;"
            d="M 40.773438 24.019531 C 40.773438 14.851562 33.304688 7.417969 24.097656 7.417969 C 14.886719 7.417969 7.417969 14.851562 7.417969 24.019531 C 7.417969 25.917969 7.738281 27.738281 8.324219 29.433594 C 8.328125 29.441406 8.359375 29.539062 8.359375 29.539062 C 8.597656 30.289062 7.421875 30.585938 7.421875 31.035156 C 7.421875 31.738281 9.902344 31.644531 9.902344 32.460938 C 9.902344 33.175781 7.449219 33.394531 7.449219 34.117188 C 7.449219 35.109375 12.882812 34.765625 12.949219 35.617188 C 13.003906 36.277344 11.082031 36.320312 11.070312 37.023438 C 11.050781 38.148438 18.484375 37.78125 18.484375 38.527344 C 18.484375 39.097656 15.105469 38.890625 15.105469 39.5625 C 15.105469 40.230469 19.554688 40.65625 24.460938 40.65625 C 29.367188 40.65625 32.75 40.113281 32.75 39.527344 C 32.75 38.9375 29.589844 39.058594 29.65625 38.53125 C 29.769531 37.605469 36.78125 38.078125 36.78125 37.011719 C 36.78125 36.445312 34.851562 36.316406 34.914062 35.707031 C 35.003906 34.851562 40.773438 34.976562 40.773438 34.085938 C 40.773438 33.386719 37.914062 33.210938 37.917969 32.484375 C 37.921875 31.742188 40.773438 31.773438 40.753906 31.074219 C 40.738281 30.539062 39.480469 30.550781 39.875 29.417969 C 40.457031 27.726562 40.777344 25.910156 40.777344 24.019531 Z M 35.472656 28.734375 C 34.894531 30.042969 33.59375 29.777344 33.445312 30.328125 C 33.292969 30.894531 35.050781 30.976562 35.050781 31.570312 C 35.050781 32.292969 29.695312 32.003906 29.746094 32.957031 C 29.78125 33.554688 33.550781 33.65625 33.480469 34.28125 C 33.375 35.1875 27.636719 34.734375 27.582031 35.605469 C 27.539062 36.242188 30.382812 36.265625 30.386719 36.84375 C 30.394531 37.332031 28.15625 37.601562 23.867188 37.601562 C 18.988281 37.601562 16.613281 37.335938 16.882812 36.792969 C 17.136719 36.28125 21.457031 36.375 21.414062 35.574219 C 21.371094 34.773438 13.738281 35.007812 13.507812 34.230469 C 13.316406 33.585938 16.019531 33.453125 16 32.839844 C 15.984375 32.210938 12.542969 32.355469 12.46875 31.597656 C 12.421875 31.101562 14.265625 31.128906 14.1875 30.503906 C 14.128906 30.050781 13.367188 30.113281 12.914062 29.175781 C 12.1875 27.605469 11.777344 25.859375 11.777344 24.019531 C 11.777344 17.246094 17.292969 11.753906 24.097656 11.753906 C 30.902344 11.753906 36.421875 17.246094 36.421875 24.019531 C 36.421875 25.691406 36.085938 27.28125 35.476562 28.734375 Z M 35.472656 28.734375 " />
        <path style=" stroke:none;fill-rule:evenodd;fill:rgb(255,255,255);fill-opacity:1;"
            d="M 8.324219 29.433594 C 7.738281 27.738281 7.417969 25.917969 7.417969 24.019531 C 7.417969 14.851562 14.886719 7.417969 24.097656 7.417969 C 33.304688 7.417969 40.773438 14.851562 40.773438 24.019531 L 40.777344 24.019531 C 40.777344 24.066406 40.777344 24.109375 40.777344 24.15625 C 40.761719 25.996094 40.445312 27.765625 39.875 29.417969 C 39.628906 30.121094 40.019531 30.382812 40.355469 30.609375 C 40.5625 30.746094 40.75 30.871094 40.753906 31.074219 C 40.765625 31.417969 40.078125 31.585938 39.375 31.753906 C 38.65625 31.929688 37.921875 32.105469 37.917969 32.484375 C 37.917969 32.851562 38.644531 33.078125 39.367188 33.300781 C 40.074219 33.523438 40.773438 33.738281 40.773438 34.085938 C 40.773438 34.539062 39.292969 34.726562 37.820312 34.917969 C 36.386719 35.101562 34.960938 35.285156 34.914062 35.707031 C 34.882812 36.019531 35.378906 36.207031 35.863281 36.390625 C 36.324219 36.5625 36.78125 36.734375 36.78125 37.011719 C 36.78125 37.566406 34.890625 37.707031 33.054688 37.839844 C 31.359375 37.964844 29.710938 38.085938 29.65625 38.53125 C 29.625 38.789062 30.363281 38.894531 31.128906 39 C 31.925781 39.109375 32.75 39.226562 32.75 39.527344 C 32.75 40.113281 29.367188 40.65625 24.460938 40.65625 C 19.554688 40.65625 15.105469 40.230469 15.105469 39.5625 C 15.105469 39.210938 16.019531 39.101562 16.898438 38.992188 C 17.707031 38.894531 18.484375 38.800781 18.484375 38.527344 C 18.484375 38.191406 16.984375 38.082031 15.335938 37.960938 C 13.3125 37.808594 11.058594 37.644531 11.070312 37.023438 C 11.078125 36.667969 11.566406 36.480469 12.046875 36.300781 C 12.515625 36.121094 12.976562 35.945312 12.949219 35.617188 C 12.917969 35.207031 11.648438 35.074219 10.339844 34.9375 C 8.917969 34.789062 7.449219 34.632812 7.449219 34.117188 C 7.449219 33.753906 8.0625 33.519531 8.679688 33.285156 C 9.292969 33.050781 9.902344 32.816406 9.902344 32.460938 C 9.902344 32.035156 9.234375 31.859375 8.59375 31.6875 C 7.996094 31.527344 7.421875 31.375 7.421875 31.035156 C 7.421875 30.851562 7.617188 30.691406 7.835938 30.519531 C 8.148438 30.269531 8.5 29.984375 8.359375 29.539062 C 8.359375 29.539062 8.328125 29.441406 8.324219 29.433594 Z M 8.234375 29.582031 C 8.28125 29.730469 8.257812 29.851562 8.195312 29.960938 C 8.132812 30.078125 8.023438 30.1875 7.894531 30.296875 C 7.851562 30.332031 7.804688 30.371094 7.757812 30.410156 C 7.671875 30.480469 7.582031 30.550781 7.507812 30.621094 C 7.398438 30.726562 7.289062 30.863281 7.289062 31.035156 C 7.289062 31.167969 7.347656 31.273438 7.433594 31.359375 C 7.519531 31.441406 7.632812 31.507812 7.753906 31.5625 C 7.980469 31.660156 8.273438 31.738281 8.554688 31.816406 C 8.578125 31.820312 8.601562 31.828125 8.628906 31.835938 C 8.941406 31.917969 9.238281 32 9.453125 32.113281 C 9.679688 32.222656 9.769531 32.339844 9.769531 32.460938 C 9.769531 32.507812 9.75 32.558594 9.695312 32.617188 C 9.644531 32.679688 9.5625 32.742188 9.453125 32.804688 C 9.234375 32.929688 8.9375 33.042969 8.628906 33.160156 L 8.625 33.164062 C 8.320312 33.277344 8.003906 33.398438 7.765625 33.539062 C 7.644531 33.609375 7.535156 33.6875 7.453125 33.777344 C 7.371094 33.871094 7.316406 33.984375 7.316406 34.117188 C 7.316406 34.3125 7.449219 34.449219 7.613281 34.546875 C 7.78125 34.644531 8.007812 34.71875 8.265625 34.78125 C 8.789062 34.902344 9.476562 34.980469 10.160156 35.054688 C 10.214844 35.058594 10.269531 35.0625 10.324219 35.070312 C 10.953125 35.136719 11.566406 35.199219 12.035156 35.292969 C 12.292969 35.34375 12.496094 35.402344 12.636719 35.46875 C 12.785156 35.539062 12.816406 35.597656 12.816406 35.628906 C 12.824219 35.714844 12.773438 35.800781 12.609375 35.902344 C 12.449219 36 12.230469 36.085938 11.988281 36.179688 C 11.753906 36.265625 11.5 36.363281 11.304688 36.484375 C 11.113281 36.605469 10.941406 36.773438 10.9375 37.019531 C 10.933594 37.246094 11.117188 37.398438 11.324219 37.5 C 11.542969 37.605469 11.84375 37.691406 12.195312 37.757812 C 12.898438 37.898438 13.832031 37.980469 14.761719 38.050781 C 14.949219 38.066406 15.140625 38.078125 15.328125 38.09375 C 16.058594 38.148438 16.757812 38.199219 17.308594 38.269531 C 17.652344 38.3125 17.933594 38.363281 18.125 38.421875 C 18.222656 38.453125 18.285156 38.484375 18.324219 38.511719 C 18.339844 38.519531 18.347656 38.527344 18.351562 38.53125 C 18.347656 38.535156 18.347656 38.539062 18.34375 38.539062 C 18.335938 38.554688 18.3125 38.570312 18.277344 38.589844 C 18.199219 38.632812 18.082031 38.671875 17.925781 38.703125 C 17.644531 38.769531 17.269531 38.8125 16.882812 38.859375 C 16.847656 38.863281 16.8125 38.871094 16.777344 38.875 C 16.359375 38.925781 15.925781 38.980469 15.597656 39.066406 C 15.433594 39.109375 15.285156 39.164062 15.175781 39.234375 C 15.066406 39.304688 14.96875 39.410156 14.96875 39.5625 C 14.96875 39.722656 15.101562 39.839844 15.238281 39.917969 C 15.382812 40 15.589844 40.078125 15.839844 40.144531 C 16.34375 40.28125 17.0625 40.398438 17.925781 40.492188 C 19.660156 40.683594 22.003906 40.789062 24.460938 40.789062 C 26.917969 40.789062 28.996094 40.652344 30.464844 40.441406 C 31.195312 40.339844 31.78125 40.214844 32.1875 40.078125 C 32.390625 40.007812 32.554688 39.933594 32.671875 39.851562 C 32.78125 39.773438 32.882812 39.667969 32.882812 39.527344 C 32.882812 39.382812 32.785156 39.285156 32.683594 39.222656 C 32.582031 39.15625 32.445312 39.109375 32.292969 39.066406 C 31.988281 38.984375 31.585938 38.929688 31.199219 38.875 L 31.152344 38.867188 C 30.773438 38.816406 30.414062 38.765625 30.144531 38.695312 C 30.003906 38.660156 29.902344 38.625 29.839844 38.585938 C 29.808594 38.566406 29.796875 38.554688 29.792969 38.546875 C 29.792969 38.546875 29.789062 38.546875 29.789062 38.546875 C 29.792969 38.53125 29.800781 38.507812 29.839844 38.476562 C 29.882812 38.441406 29.949219 38.40625 30.042969 38.371094 C 30.234375 38.296875 30.503906 38.238281 30.839844 38.1875 C 31.453125 38.09375 32.25 38.035156 33.066406 37.972656 C 33.132812 37.96875 33.203125 37.964844 33.269531 37.957031 C 34.152344 37.894531 35.039062 37.824219 35.707031 37.699219 C 36.039062 37.640625 36.328125 37.566406 36.535156 37.464844 C 36.734375 37.371094 36.914062 37.226562 36.914062 37.011719 C 36.914062 36.898438 36.863281 36.804688 36.796875 36.726562 C 36.730469 36.652344 36.640625 36.589844 36.546875 36.535156 C 36.367188 36.4375 36.136719 36.347656 35.914062 36.265625 C 35.902344 36.261719 35.886719 36.253906 35.871094 36.25 C 35.632812 36.160156 35.410156 36.074219 35.25 35.972656 C 35.085938 35.871094 35.042969 35.789062 35.046875 35.722656 C 35.050781 35.691406 35.089844 35.628906 35.25 35.550781 C 35.402344 35.476562 35.625 35.410156 35.898438 35.347656 C 36.429688 35.230469 37.132812 35.140625 37.84375 35.050781 L 37.894531 35.042969 C 38.621094 34.949219 39.351562 34.855469 39.902344 34.726562 C 40.175781 34.660156 40.414062 34.585938 40.589844 34.496094 C 40.753906 34.40625 40.90625 34.277344 40.90625 34.085938 C 40.90625 33.949219 40.835938 33.835938 40.742188 33.746094 C 40.648438 33.660156 40.523438 33.585938 40.382812 33.519531 C 40.113281 33.394531 39.757812 33.28125 39.410156 33.175781 L 39.382812 33.167969 C 39.023438 33.054688 38.675781 32.945312 38.421875 32.824219 C 38.292969 32.761719 38.195312 32.699219 38.132812 32.636719 C 38.070312 32.578125 38.050781 32.527344 38.050781 32.484375 C 38.054688 32.441406 38.074219 32.390625 38.132812 32.335938 C 38.195312 32.28125 38.289062 32.226562 38.417969 32.171875 C 38.671875 32.0625 39.019531 31.980469 39.375 31.890625 L 39.414062 31.882812 C 39.753906 31.800781 40.105469 31.714844 40.371094 31.609375 C 40.507812 31.554688 40.632812 31.488281 40.726562 31.40625 C 40.820312 31.320312 40.890625 31.210938 40.886719 31.070312 C 40.882812 30.878906 40.761719 30.746094 40.640625 30.644531 C 40.578125 30.59375 40.507812 30.546875 40.441406 30.503906 L 40.433594 30.5 C 40.367188 30.453125 40.304688 30.410156 40.242188 30.363281 C 40.117188 30.269531 40.019531 30.164062 39.96875 30.03125 C 39.917969 29.902344 39.910156 29.722656 40 29.460938 C 40.589844 27.757812 40.910156 25.925781 40.910156 24.019531 L 40.910156 23.886719 L 40.90625 23.886719 C 40.835938 14.703125 33.335938 7.285156 24.097656 7.285156 C 14.8125 7.285156 7.285156 14.777344 7.285156 24.019531 C 7.285156 25.929688 7.605469 27.765625 8.199219 29.476562 L 8.203125 29.488281 C 8.203125 29.492188 8.203125 29.496094 8.207031 29.496094 C 8.210938 29.507812 8.214844 29.519531 8.21875 29.53125 C 8.222656 29.542969 8.226562 29.558594 8.230469 29.566406 L 8.234375 29.578125 M 18.351562 38.539062 C 18.351562 38.539062 18.351562 38.535156 18.351562 38.535156 C 18.351562 38.535156 18.351562 38.539062 18.351562 38.539062 Z M 35.476562 28.734375 C 36.085938 27.28125 36.421875 25.691406 36.421875 24.019531 C 36.421875 17.246094 30.902344 11.753906 24.097656 11.753906 C 17.292969 11.753906 11.777344 17.246094 11.777344 24.019531 C 11.777344 25.859375 12.1875 27.605469 12.914062 29.175781 C 13.167969 29.695312 13.515625 29.910156 13.785156 30.074219 C 13.996094 30.203125 14.160156 30.300781 14.1875 30.503906 C 14.230469 30.835938 13.730469 30.984375 13.257812 31.121094 C 12.84375 31.246094 12.445312 31.363281 12.46875 31.597656 C 12.507812 31.992188 13.464844 32.144531 14.375 32.285156 C 15.203125 32.414062 15.992188 32.539062 16 32.839844 C 16.007812 33.136719 15.378906 33.320312 14.75 33.503906 C 14.082031 33.703125 13.410156 33.898438 13.507812 34.230469 C 13.625 34.617188 15.546875 34.753906 17.464844 34.890625 C 19.429688 35.03125 21.394531 35.171875 21.414062 35.574219 C 21.441406 36.027344 20.070312 36.195312 18.828125 36.347656 C 17.875 36.464844 16.992188 36.570312 16.882812 36.792969 C 16.613281 37.335938 18.988281 37.601562 23.867188 37.601562 C 28.15625 37.601562 30.394531 37.332031 30.386719 36.84375 C 30.386719 36.5625 29.710938 36.414062 29.023438 36.257812 C 28.296875 36.097656 27.558594 35.933594 27.582031 35.605469 C 27.609375 35.175781 29.03125 35.070312 30.46875 34.960938 C 31.9375 34.851562 33.425781 34.738281 33.480469 34.28125 C 33.515625 33.964844 32.554688 33.78125 31.597656 33.597656 C 30.679688 33.425781 29.761719 33.25 29.746094 32.957031 C 29.71875 32.445312 31.238281 32.292969 32.660156 32.148438 C 33.894531 32.023438 35.050781 31.90625 35.050781 31.570312 C 35.050781 31.277344 34.625 31.109375 34.207031 30.945312 C 33.78125 30.777344 33.367188 30.617188 33.445312 30.328125 C 33.503906 30.105469 33.75 30.019531 34.0625 29.90625 C 34.523438 29.738281 35.128906 29.515625 35.472656 28.734375 Z M 35.363281 28.65625 C 35.957031 27.226562 36.285156 25.660156 36.285156 24.019531 C 36.285156 17.320312 30.832031 11.886719 24.097656 11.886719 C 17.367188 11.886719 11.910156 17.320312 11.910156 24.019531 C 11.910156 25.839844 12.316406 27.566406 13.035156 29.117188 C 13.246094 29.550781 13.523438 29.753906 13.769531 29.90625 C 13.792969 29.921875 13.820312 29.9375 13.847656 29.953125 C 13.941406 30.011719 14.039062 30.070312 14.113281 30.132812 C 14.214844 30.21875 14.300781 30.328125 14.320312 30.488281 C 14.351562 30.726562 14.1875 30.882812 14.011719 30.984375 C 13.835938 31.085938 13.597656 31.160156 13.378906 31.226562 C 13.351562 31.234375 13.324219 31.242188 13.296875 31.25 C 13.101562 31.308594 12.917969 31.363281 12.785156 31.425781 C 12.707031 31.460938 12.65625 31.496094 12.628906 31.523438 C 12.601562 31.550781 12.601562 31.570312 12.601562 31.582031 C 12.605469 31.621094 12.632812 31.671875 12.71875 31.730469 C 12.800781 31.789062 12.929688 31.84375 13.089844 31.894531 C 13.414062 31.992188 13.839844 32.066406 14.277344 32.132812 C 14.316406 32.140625 14.359375 32.148438 14.398438 32.152344 C 14.789062 32.214844 15.183594 32.277344 15.488281 32.355469 C 15.652344 32.402344 15.804688 32.453125 15.917969 32.519531 C 16.023438 32.585938 16.132812 32.6875 16.136719 32.835938 M 16.136719 32.835938 C 16.136719 32.964844 16.066406 33.070312 15.980469 33.148438 C 15.894531 33.226562 15.773438 33.289062 15.644531 33.347656 C 15.40625 33.453125 15.09375 33.542969 14.792969 33.632812 C 14.769531 33.640625 14.75 33.644531 14.726562 33.652344 C 14.398438 33.746094 14.09375 33.839844 13.878906 33.949219 C 13.773438 34 13.703125 34.050781 13.664062 34.097656 C 13.632812 34.136719 13.628906 34.164062 13.636719 34.195312 C 13.636719 34.191406 13.640625 34.199219 13.648438 34.210938 C 13.660156 34.21875 13.675781 34.234375 13.703125 34.25 C 13.757812 34.285156 13.839844 34.316406 13.953125 34.351562 C 14.171875 34.417969 14.480469 34.472656 14.851562 34.523438 C 15.582031 34.621094 16.527344 34.6875 17.476562 34.757812 L 17.542969 34.761719 C 18.511719 34.832031 19.480469 34.902344 20.210938 35.003906 C 20.578125 35.054688 20.890625 35.117188 21.113281 35.191406 C 21.226562 35.230469 21.324219 35.273438 21.402344 35.328125 C 21.472656 35.382812 21.542969 35.460938 21.550781 35.566406 C 21.558594 35.738281 21.445312 35.863281 21.316406 35.949219 C 21.183594 36.035156 21.003906 36.105469 20.796875 36.160156 C 20.382812 36.277344 19.828125 36.355469 19.277344 36.425781 C 19.132812 36.445312 18.984375 36.460938 18.84375 36.480469 C 18.4375 36.53125 18.050781 36.578125 17.726562 36.632812 C 17.507812 36.667969 17.328125 36.710938 17.195312 36.753906 C 17.128906 36.777344 17.078125 36.796875 17.046875 36.820312 C 17.011719 36.839844 17.003906 36.851562 17.003906 36.851562 C 16.996094 36.867188 16.996094 36.875 16.996094 36.875 C 16.996094 36.878906 17 36.886719 17.007812 36.898438 C 17.035156 36.929688 17.097656 36.976562 17.222656 37.023438 C 17.464844 37.117188 17.875 37.199219 18.460938 37.265625 C 19.621094 37.402344 21.429688 37.464844 23.867188 37.464844 C 26.011719 37.464844 27.636719 37.398438 28.722656 37.273438 C 29.265625 37.210938 29.667969 37.132812 29.929688 37.042969 C 30.0625 36.996094 30.152344 36.953125 30.203125 36.914062 C 30.253906 36.871094 30.253906 36.847656 30.253906 36.847656 C 30.253906 36.835938 30.25 36.804688 30.183594 36.757812 C 30.121094 36.714844 30.027344 36.667969 29.898438 36.621094 C 29.652344 36.535156 29.328125 36.464844 28.992188 36.390625 L 28.9375 36.375 C 28.585938 36.296875 28.222656 36.214844 27.953125 36.109375 C 27.816406 36.058594 27.691406 35.996094 27.601562 35.917969 C 27.507812 35.839844 27.4375 35.734375 27.445312 35.597656 C 27.460938 35.40625 27.625 35.289062 27.792969 35.214844 C 27.96875 35.132812 28.210938 35.074219 28.488281 35.027344 C 29.03125 34.933594 29.746094 34.878906 30.457031 34.828125 L 30.503906 34.824219 C 31.230469 34.769531 31.953125 34.714844 32.5 34.617188 C 32.773438 34.570312 32.992188 34.511719 33.144531 34.441406 C 33.304688 34.367188 33.34375 34.304688 33.347656 34.265625 C 33.347656 34.265625 33.347656 34.257812 33.339844 34.246094 C 33.328125 34.230469 33.308594 34.207031 33.265625 34.183594 C 33.1875 34.128906 33.058594 34.074219 32.890625 34.023438 C 32.554688 33.917969 32.097656 33.832031 31.628906 33.742188 L 31.570312 33.730469 C 31.121094 33.644531 30.667969 33.558594 30.316406 33.457031 C 30.136719 33.40625 29.972656 33.34375 29.851562 33.277344 C 29.742188 33.210938 29.621094 33.113281 29.613281 32.964844 C 29.601562 32.769531 29.734375 32.632812 29.890625 32.539062 C 30.050781 32.441406 30.269531 32.371094 30.523438 32.308594 C 31.027344 32.1875 31.699219 32.113281 32.363281 32.042969 C 32.460938 32.035156 32.554688 32.023438 32.648438 32.015625 C 33.21875 31.957031 33.765625 31.902344 34.191406 31.828125 C 34.441406 31.78125 34.636719 31.734375 34.769531 31.675781 C 34.835938 31.648438 34.875 31.621094 34.898438 31.597656 C 34.910156 31.589844 34.914062 31.582031 34.914062 31.578125 C 34.917969 31.574219 34.917969 31.574219 34.917969 31.570312 C 34.917969 31.496094 34.863281 31.417969 34.707031 31.320312 C 34.5625 31.230469 34.363281 31.152344 34.152344 31.070312 L 34.140625 31.066406 C 33.9375 30.984375 33.714844 30.894531 33.558594 30.789062 C 33.476562 30.734375 33.402344 30.667969 33.355469 30.585938 C 33.304688 30.5 33.289062 30.398438 33.316406 30.292969 C 33.367188 30.097656 33.523438 29.988281 33.683594 29.910156 C 33.765625 29.871094 33.859375 29.835938 33.953125 29.800781 C 33.972656 29.792969 33.996094 29.785156 34.015625 29.777344 C 34.09375 29.75 34.167969 29.722656 34.25 29.691406 C 34.648438 29.53125 35.082031 29.289062 35.351562 28.679688 L 35.363281 28.660156 L 35.363281 28.65625 " />
    </g>
</svg>