<svg width="48" height="48" viewBox="0 0 48 48" fill="none" xmlns="http://www.w3.org/2000/svg"><g clip-path="url(#a)"><g clip-path="url(#b)"><path d="M48 24c0 13.255-10.745 24-24 24S0 37.255 0 24 10.745 0 24 0s24 10.745 24 24Z" fill="#000"/><path d="M13.985 20.109a1.761 1.761 0 0 1-1.168-1.654c0-.972.794-1.76 1.773-1.76.98 0 1.774.788 1.774 1.76 0 .76-.487 1.408-1.169 1.654v9.114c1.27-.055 2.45-.286 3.497-.668v-6.987a1.761 1.761 0 0 1-1.168-1.654c0-.972.794-1.76 1.774-1.76s1.773.788 1.773 1.76c0 .76-.487 1.409-1.168 1.654v6.448c1.165-.625 2.099-1.47 2.718-2.492A2.04 2.04 0 0 1 21.937 24a2.06 2.06 0 0 1 2.344-2.033c1.575-2.717 4.952-4.362 8.982-4.404h6.629c.334 0 .605.268.605.6 0 .32-.252.58-.57.6H38.732v9.127a1.761 1.761 0 0 1 1.168 1.655c0 .971-.794 1.759-1.773 1.759-.98 0-1.774-.788-1.774-1.76 0-.76.487-1.408 1.169-1.654v-9.127h-3.497v9.127a1.76 1.76 0 0 1 1.168 1.655c0 .971-.794 1.759-1.774 1.759s-1.773-.788-1.773-1.76c0-.76.486-1.408 1.168-1.654v-9.114c-1.268.056-2.448.286-3.497.668v6.987a1.761 1.761 0 0 1 1.169 1.654c0 .972-.794 1.76-1.774 1.76s-1.773-.788-1.773-1.76c0-.76.486-1.408 1.168-1.654v-6.448c-1.166.625-2.1 1.47-2.718 2.492.42.376.684.92.684 1.525a2.06 2.06 0 0 1-2.345 2.033c-1.575 2.716-4.952 4.361-8.98 4.403H8.117a.603.603 0 0 1-.605-.6c0-.32.252-.58.57-.599H9.277v-9.128a1.761 1.761 0 0 1-1.169-1.654c0-.972.795-1.76 1.774-1.76.98 0 1.774.788 1.774 1.76 0 .76-.487 1.408-1.168 1.654v9.127h3.496V20.11Z" fill="#F2F3F5"/></g></g><defs><clipPath id="a"><rect width="48" height="48" rx="24" fill="#fff"/></clipPath><clipPath id="b"><path fill="#fff" d="M0 0h48v48H0z"/></clipPath></defs></svg>