<svg xmlns="http://www.w3.org/2000/svg" width="48" height="48" fill="none"><path fill-rule="evenodd" clip-rule="evenodd" d="M24 44c11.046 0 20-8.954 20-20S35.046 4 24 4 4 12.954 4 24s8.954 20 20 20zm.082-1.878c10.008 0 18.122-8.113 18.122-18.122S34.09 5.878 24.082 5.878C14.072 5.878 5.959 13.99 5.959 24s8.114 18.122 18.123 18.122zM24 40.735c9.242 0 16.735-7.493 16.735-16.735 0-9.242-7.493-16.735-16.735-16.735-9.242 0-16.735 7.493-16.735 16.735 0 9.242 7.493 16.735 16.735 16.735zm.04-2.041c8.139 0 14.736-6.597 14.736-14.735 0-8.137-6.598-14.735-14.735-14.735-8.138 0-14.735 6.598-14.735 14.735 0 8.138 6.597 14.735 14.735 14.735zm-.83-26.64L33.876 30.56l1.143-1.984-9.523-16.522h-2.288zM12.98 28.542l9.13-15.839.018.033.018-.031 10.82 18.77h-2.288l-2.733-4.742a13.039 13.039 0 0 0-3.936-.605c-.708 0-1.398.05-2.069.148l1.318-2.282a15.322 15.322 0 0 1 3.212.18l-4.342-7.533-8.005 13.886-1.143-1.985zm6.206-.24l4.103-7.118-1.144-1.984-7.075 12.275h2.287l.022-.038c1.962-1.181 4.214-1.779 6.672-1.779 1.57 0 3.076.278 4.47.786l-1.533-2.655a15.274 15.274 0 0 0-2.936-.283c-1.702 0-3.338.28-4.866.795z" fill="url(#paint0_linear_2069_4558)"/><defs><linearGradient id="paint0_linear_2069_4558" x1="41.755" y1="44" x2="12.245" y2="7.551" gradientUnits="userSpaceOnUse"><stop stop-color="#5A81FF"/><stop offset=".524" stop-color="#E40C5B"/><stop offset="1" stop-color="#FF4C3B"/></linearGradient></defs></svg>