<svg xmlns="http://www.w3.org/2000/svg" width="48" height="48" fill="none"><path d="M32.785 6L21.6 16.07a6.354 6.354 0 0 1-4.23 1.628l-3.333.007L14.028 6H8v33.451h3.287c1.837 0 3.553-.965 4.452-2.552.007-.01.01-.021.018-.028.597-1.062.895-3.162.838-4.595-.13-3.275-.662-4.127-.662-4.127-.111 2.245-2.478 2.367-2.478 2.367 1.683-1.594.766-2.798.766-2.798-2.98 2.102-3.725-.143-3.783-.346.094.078.942.78 2.553-1.408 1.705-2.313 3.978-6.17 5.424-7.16 1.449-.995 2.822-.913 2.822-.913s.792-1.063 2.885-1.946c2.093-.877 3.434.41 3.434.41-2.14 1.71-5.046 4.52-5.207 8.543-.13 3.258 6.955 8.847 5.71 17.102.745-1.875 1.043-3.753.788-6.077-.205-1.875-1.424-5.792-1.424-5.792l6.804 9.317h7.523L27.045 19.427 41.75 6h-8.965z" fill="url(#paint0_linear_2069_4545)"/><path d="M19.082 20.403c-.475.78-.475 1.02-.475 1.02s1.662-.279 2.111-2.235c.004 0-1.06.27-1.636 1.215z" fill="url(#paint1_linear_2069_4545)"/><defs><linearGradient id="paint0_linear_2069_4545" x1="58.717" y1="29.554" x2="31.049" y2="-.794" gradientUnits="userSpaceOnUse"><stop stop-color="#E40C5B"/><stop offset="1" stop-color="#FF4C3B"/></linearGradient><linearGradient id="paint1_linear_2069_4545" x1="21.78" y1="20.65" x2="20.063" y2="18.753" gradientUnits="userSpaceOnUse"><stop stop-color="#E40C5B"/><stop offset="1" stop-color="#FF4C3B"/></linearGradient></defs></svg>