<svg xmlns="http://www.w3.org/2000/svg" width="48" height="48" fill="none"><g clip-path="url(#clip0_1300_1117)"><path d="M0 14C0 6.268 6.268 0 14 0h20c7.732 0 14 6.268 14 14v20c0 7.732-6.268 14-14 14H14C6.268 48 0 41.732 0 34V14z" fill="url(#paint0_linear_1300_1117)"/><path d="M39.454 13.771c-.526-.416-1.154-.986-2.299-1.128-1.073-.142-2.167.58-2.906 1.057-.74.478-2.137 1.88-2.714 2.307-.578.427-2.056.823-4.436 2.256-2.38 1.433-11.717 7.45-11.717 7.45l2.43.03-10.836 5.6H8.06L6.5 32.532s1.377.366 2.532-.366v.335s12.902-5.101 15.393-3.78l-1.519.447c.132 0 2.583.163 2.583.163a3.5 3.5 0 0 0 1.56 2.52c1.478.976 1.508 1.514 1.508 1.514s-.77.315-.77.712c0 0 1.135-.346 2.188-.315a8.341 8.341 0 0 1 1.975.315s-.081-.427-1.104-.712c-1.023-.284-2.035-1.402-2.532-2.012a2.852 2.852 0 0 1-.415-2.785c.354-.924 1.59-1.433 4.142-2.754 3.008-1.565 3.697-2.723 4.122-3.628.425-.904 1.053-2.703 1.408-3.547.445-1.087.992-1.666 1.448-2.012.456-.345 2.481-1.108 2.481-1.108s-1.55-1.351-2.046-1.748z" fill="#fff"/></g><defs><linearGradient id="paint0_linear_1300_1117" x1="48" y1="48" x2="0" y2="0" gradientUnits="userSpaceOnUse"><stop/><stop offset="1" stop-color="#3F3F3F"/></linearGradient><clipPath id="clip0_1300_1117"><rect width="48" height="48" rx="24" fill="#fff"/></clipPath></defs></svg>