<svg xmlns="http://www.w3.org/2000/svg" width="48" height="48"><path d="M47.797 23.95c0 13.136-10.649 23.796-23.797 23.796C10.852 47.746.203 37.094.203 23.95.203 10.801 10.86.156 24 .156c13.14 0 23.797 10.653 23.797 23.793zm0 0" fill="#321d47"/><path d="M33.316 29.43h-5.07l-.953-2.325h-6.434l-.953 2.325h-5.07l6.066-13.82h6.336zM24.082 19.2l-1.68 4.124h3.352zm0 0" fill="#fff"/><path d="M27.594 9.156a3.518 3.518 0 1 1-7.035.004 3.518 3.518 0 0 1 7.035-.004zm0 0M27.594 38.781a3.518 3.518 0 1 1-7.035.004 3.518 3.518 0 0 1 7.035-.004zm0 0M14.602 16.2a3.517 3.517 0 1 1-7.036 0 3.517 3.517 0 0 1 3.52-3.516 3.516 3.516 0 0 1 3.516 3.515zm0 0M40.59 16.2a3.517 3.517 0 1 1-7.035 0 3.517 3.517 0 0 1 3.52-3.516 3.516 3.516 0 0 1 3.515 3.515zm0 0M14.602 31.86a3.52 3.52 0 0 1-3.516 3.519 3.517 3.517 0 1 1 0-7.035 3.516 3.516 0 0 1 3.516 3.515zm0 0M40.59 31.86a3.52 3.52 0 0 1-3.516 3.519 3.517 3.517 0 1 1 0-7.035 3.516 3.516 0 0 1 3.516 3.515zm0 0" fill="#e6007a"/></svg>