<svg width="35" height="35" fill="none" xmlns="http://www.w3.org/2000/svg"><path d="M17.503 0A17.476 17.476 0 0 0 6.252 4.08h22.5A17.462 17.462 0 0 0 17.501 0zm0 35a17.456 17.456 0 0 0 11.163-4.009H6.337A17.47 17.47 0 0 0 17.503 35zm8.354-26.116h6.903a17.651 17.651 0 0 0-1.987-2.818H4.245a17.42 17.42 0 0 0-2.718 4.245H24.84l1.017-1.427zm-8.522 9.645H.003a17.39 17.39 0 0 0 .781 4.244h14.93l1.028-1.447h17.866c.206-.92.337-1.856.392-2.797H17.335zm3.9-3.425h13.632a17.2 17.2 0 0 0-.624-2.818H.76A17.41 17.41 0 0 0 0 16.53h20.22l1.015-1.426zm-16.94 13.9h6.941l1.014-1.426h19.581a17.31 17.31 0 0 0 1.624-2.818H1.55a17.462 17.462 0 0 0 2.745 4.245z" fill="#fff"/></svg>