<?xml version="1.0" encoding="UTF-8" standalone="no"?>
<svg
   version="1.1"
   id="a"
   x="0px"
   y="0px"
   viewBox="0 0 499.79661 499.79659"
   xml:space="preserve"
   xmlns="http://www.w3.org/2000/svg"
   xmlns:svg="http://www.w3.org/2000/svg"><defs
   id="defs13" />
<circle
   style="fill:#ffffff;stroke-width:1.03312"
   id="path849"
   cx="249.8983"
   cy="249.8983"
   r="249.8983" />
<g
   id="g967"
   transform="translate(9.5058805,7.2339585)"><path
     d="m 371.99242,163.01434 h -42.4 c -4.9,0 -9.6,-2.1 -12.9,-5.8 l -17.2,-19.4 c -2.6,-2.9 -6.2,-4.6 -10.1,-4.6 -3.9,0 -7.5,1.7 -10.1,4.6 l -14.8,16.7 c -4.8,5.4 -11.8,8.6 -19,8.6 H 13.392419 c -6.5999996,18.7 -10.8999996,38.6 -12.59999957,59.3 H 219.89242 c 3.9,0 7.5,-1.6 10.2,-4.4 l 20.4,-21.3 c 2.5,-2.7 6.1,-4.2 9.7,-4.2 h 0.8 c 3.9,0 7.5,1.7 10.1,4.6 l 17.2,19.4 c 3.3,3.7 8,5.8 12.9,5.8 h 178.8 c -1.7,-20.6 -6,-40.6 -12.6,-59.4 z"
     id="path2" /><path
     d="m 133.39242,347.21434 c 3.9,0 7.5,-1.6 10.2,-4.4 l 20.4,-21.3 c 2.6,-2.7 6.1,-4.2 9.8,-4.2 h 0.8 c 3.9,0 7.6,1.7 10.1,4.5 l 17.2,19.4 c 3.3,3.7 8,5.8 12.9,5.8 h 242.4 c 9.1,-18.8 15.7,-38.9 19.7,-60 h -232.7 c -4.9,0 -9.6,-2.1 -12.9,-5.8 l -17.2,-19.2 c -2.6,-2.9 -6.2,-4.5 -10.1,-4.5 -3.9,0 -7.6,1.7 -10.1,4.5 l -14.8,16.7 c -4.8,5.5 -11.8,8.6 -19.1,8.6 H 4.0924194 c 4,21.1 10.5999996,41.2 19.6999996,60 z"
     id="path4" /><path
     d="m 305.29242,98.114343 c 3.9,0 7.5,-1.6 10.2,-4.4 l 20.4,-21.3 c 2.5,-2.7 6.1,-4.2 9.8,-4.2 h 0.8 c 3.9,0 7.5,1.7 10.1,4.6 l 17.2,19.5 c 3.3,3.7 8,5.8 12.9,5.8 h 46.1 c -43.9,-58.4 -113.7,-96.0999997 -192.3,-96.0999997 -78.6,0 -148.500001,37.6999997 -192.400001,96.0999997 z"
     id="path6" /><path
     d="m 212.79242,406.71434 h -63 c -4.9,0 -9.6,-2.1 -12.9,-5.8 l -17.2,-19.4 c -2.6,-2.9 -6.2,-4.5 -10.1,-4.5 -3.9,0 -7.6,1.7 -10.100001,4.5 l -14.8,16.7 c -4.8,5.5 -11.8,8.6 -19.1,8.6 h -1 c 43.900001,47 106.400001,76.5 175.900001,76.5 69.5,0 131.9,-29.5 175.9,-76.5 z"
     id="path8" /></g>
</svg>
