<svg xmlns="http://www.w3.org/2000/svg" width="48" height="48" fill="none"><path d="M23.999 3.9A19.93 19.93 0 0 1 35.11 7.287a20.079 20.079 0 0 1 7.366 9.02 20.194 20.194 0 0 1 1.139 11.614 20.13 20.13 0 0 1-5.474 10.292 19.969 19.969 0 0 1-10.24 5.5c-3.88.776-7.902.378-11.556-1.143a20.022 20.022 0 0 1-8.976-7.404 20.187 20.187 0 0 1-1.848-18.859 20.106 20.106 0 0 1 4.336-6.52 19.992 19.992 0 0 1 6.488-4.357 19.912 19.912 0 0 1 7.653-1.53zm-6.525 20.099c0 9.713 6.525 17.587 6.525 17.587s6.525-7.874 6.525-17.587c0-9.714-6.525-17.586-6.525-17.586s-6.525 7.873-6.525 17.586z" fill="#4FFFB0"/></svg>