<svg xmlns="http://www.w3.org/2000/svg" width="48" height="48" viewBox="0 0 35 47"><path d="M1.05 11.055L19.923.277a2.129 2.129 0 0 1 2.098 0l11.882 6.79c.278.16.516.378.696.644a2.057 2.057 0 0 1-.25 2.621l-4.032 4.008a2.108 2.108 0 0 1-1.214.594c-.461.062-.93-.032-1.329-.262l-5.73-3.274a2.156 2.156 0 0 0-2.145 0L0 22.875v-10.02a2.074 2.074 0 0 1 1.05-1.8zm0 0" fill="#fa8c16"/><path d="M33.95 39.91l-11.93 6.813a2.129 2.129 0 0 1-2.098 0L1.05 35.945a2.074 2.074 0 0 1-1.05-1.8l-.001-9.09 9.723-5.575v9.11a2.074 2.074 0 0 0 1.05 1.8l9.149 5.223c.316.184.68.278 1.047.278.37 0 .73-.094 1.05-.278l5.794-3.304a2.115 2.115 0 0 1 2.535.328l4.039 4c.23.226.402.5.504.8.105.305.136.626.093.942a2.048 2.048 0 0 1-.336.883c-.18.265-.421.488-.699.648zm0 0" fill="#fff"/></svg>