<svg width="48" height="48" viewBox="0 0 48 48" fill="none" xmlns="http://www.w3.org/2000/svg">
    <g clip-path="url(#clip0_2989_3795)">
        <g clip-path="url(#clip1_2989_3795)">
            <path
                d="M48 24C48 37.2548 37.2548 48 24 48C10.7452 48 0 37.2548 0 24C0 10.7452 10.7452 0 24 0C37.2548 0 48 10.7452 48 24Z"
                fill="white" />
            <path
                d="M13.9851 20.109C13.3036 19.8634 12.8168 19.2154 12.8168 18.4548C12.8168 17.483 13.6108 16.6953 14.5903 16.6953C15.5698 16.6953 16.364 17.483 16.364 18.4548C16.364 19.2154 15.8772 19.8634 15.1955 20.109V29.223C16.4644 29.1675 17.6442 28.9372 18.6925 28.5554V21.5682C18.0108 21.3226 17.524 20.6747 17.524 19.9138C17.524 18.9422 18.3182 18.1544 19.2977 18.1544C20.2771 18.1544 21.0711 18.9422 21.0711 19.9138C21.0711 20.6747 20.5844 21.3226 19.9029 21.5682V28.0164C21.0684 27.3913 22.002 26.5454 22.6212 25.524C22.2011 25.1484 21.937 24.6046 21.937 23.9997C21.937 22.8668 22.863 21.9485 24.0048 21.9485C24.0986 21.9485 24.1911 21.9546 24.2814 21.9667C25.8564 19.2502 29.2333 17.6048 33.2627 17.5632L33.4192 17.5624H39.8918C40.2263 17.5624 40.4968 17.8314 40.4968 18.163C40.4968 18.4826 40.2451 18.7439 39.9274 18.7622L39.8918 18.7631H38.7318L38.732 27.8904C39.4133 28.1357 39.9003 28.7839 39.9003 29.5446C39.9003 30.5163 39.106 31.304 38.1266 31.304C37.1472 31.304 36.3531 30.5163 36.3531 29.5446C36.3531 28.7837 36.8399 28.1357 37.5216 27.8904L37.5214 18.7631H34.0245L34.0247 27.8904C34.7063 28.1357 35.1931 28.7839 35.1931 29.5446C35.1931 30.5163 34.3989 31.304 33.4192 31.304C32.4397 31.304 31.6455 30.5163 31.6455 29.5446C31.6455 28.7839 32.1325 28.1357 32.814 27.8904V18.7764C31.5455 18.832 30.3655 19.0621 29.3175 19.4438V26.4311C29.9988 26.6767 30.4858 27.3247 30.4858 28.0853C30.4858 29.0571 29.6917 29.8447 28.712 29.8447C27.7328 29.8447 26.9386 29.0571 26.9386 28.0853C26.9386 27.3247 27.4254 26.6767 28.1068 26.4311V19.9831C26.9413 20.608 26.0077 21.4537 25.3886 22.4754C25.8086 22.851 26.0727 23.3947 26.0727 23.9997C26.0727 25.1325 25.1469 26.0509 24.0048 26.0509C23.9111 26.0509 23.8187 26.0447 23.7283 26.0327C22.1533 28.7491 18.7762 30.3943 14.7473 30.4359L14.5903 30.4369H8.11788C7.78364 30.4369 7.5127 30.1679 7.5127 29.8364C7.5127 29.5168 7.76463 29.2554 8.08221 29.2372L8.11788 29.2362H9.27793V20.109C8.59646 19.8634 8.10945 19.2154 8.10945 18.4548C8.10945 17.483 8.90366 16.6953 9.88292 16.6953C10.8626 16.6953 11.6568 17.483 11.6568 18.4548C11.6568 19.2154 11.17 19.8634 10.4886 20.109L10.4884 29.2362H13.9851V20.109Z"
                fill="black" />
        </g>
    </g>
    <defs>
        <clipPath id="clip0_2989_3795">
            <rect width="48" height="48" rx="24" fill="white" />
        </clipPath>
        <clipPath id="clip1_2989_3795">
            <rect width="48" height="48" fill="white" />
        </clipPath>
    </defs>
</svg>