<svg xmlns="http://www.w3.org/2000/svg" width="49" height="48" viewBox="0 0 48 48" fill="#fff"><path d="M48 24c0 13.254-10.746 24-24 24S0 37.254 0 24 10.746 0 24 0s24 10.746 24 24zm0 0"/><path d="M36.652 34.547H18.836a.448.448 0 0 1-.242-.07l-6.442-4.028a.468.468 0 0 1-.16-.633.45.45 0 0 1 .403-.222H30.21c.086 0 .168.023.246.07l6.438 4.027c.214.133.289.418.16.633a.459.459 0 0 1-.403.223zm-17.687-.93h16.078l-4.953-3.105H14.012zm0 0M35.543 18.352H17.727a.458.458 0 0 1-.243-.07l-6.433-4.028a.465.465 0 0 1-.16-.633.44.44 0 0 1 .402-.223h17.82c.082 0 .164.024.242.07l6.442 4.028a.463.463 0 0 1 .156.633.449.449 0 0 1-.41.223zm-17.688-.922h16.079l-4.954-3.106H12.902zm0 0M26.43 21.95a2.776 2.776 0 0 0-1.957-.817h-.032c-1.55.094-2.734 1.433-2.644 3.008.086 1.453 1.238 2.617 2.676 2.687h.027c1.55-.015 2.797-1.3 2.781-2.875a2.934 2.934 0 0 0-.851-2.004zm0 0" fill="#000"/></svg>