<svg xmlns="http://www.w3.org/2000/svg" width="48" height="48"><circle xmlns="http://www.w3.org/2000/svg" cx="24" cy="24" r="24" fill="#0E132E"/><g xmlns="http://www.w3.org/2000/svg"><path d="M30.176 6.996c4.433 1.914 7.39 6.629 7.058 11.414-7.933 0-15.863.067-23.793-.066 0-3.215 1.075-6.496 3.36-8.75 3.36-3.489 8.941-4.582 13.375-2.598zm0 0" fill="#5fc0c1"/><path d="M29.836 37.758c.477 0 .879.273.879.613 0 .344-.402.617-.88.617H17.07c-.468 0-.875-.273-.875-.617 0-.34.407-.613.875-.613zm0 0M14.316 38.988a.88.88 0 0 0 .871-.886c0-.493-.39-.891-.87-.891a.882.882 0 0 0-.876.89c0 .489.391.887.875.887zm0 0M21.977 35.707c.48 0 .87-.398.87-.89a.88.88 0 0 0-.87-.887.881.881 0 0 0-.875.886c0 .493.39.891.875.891zm0 0M36.965 33.93c.469 0 .87.41.87.886 0 .48-.401.891-.87.891H24.46c-.469 0-.871-.41-.871-.89 0-.477.402-.887.87-.887zm0 0M5.578 32.426c.48 0 .871-.399.871-.89a.88.88 0 0 0-.87-.888.881.881 0 0 0-.876.887c0 .492.39.89.875.89zm0 0M18.012 30.648c.468 0 .875.41.875.887 0 .48-.407.89-.875.89H7.73c-.472 0-.875-.41-.875-.89 0-.476.403-.887.875-.887zm0 0M41.063 30.648c.472 0 .874.41.874.887 0 .48-.402.89-.874.89H20.628c-.469 0-.871-.41-.871-.89 0-.476.402-.887.87-.887zm0 0M37.234 27.367c.47 0 .871.41.871.887 0 .48-.402.89-.87.89h-25.07c-.474 0-.876-.41-.876-.89 0-.477.402-.887.875-.887zm0 0M9.406 29.145a.882.882 0 0 0 .875-.891.881.881 0 0 0-.875-.887.88.88 0 0 0-.87.887c0 .492.39.89.87.89zm0 0M31.988 24.152c.473 0 .875.41.875.891 0 .477-.402.89-.875.89H6.922c-.473 0-.875-.413-.875-.89 0-.48.402-.89.875-.89zm0 0M3.898 25.934c.48 0 .872-.403.872-.891s-.391-.89-.872-.89a.881.881 0 0 0-.87.89c0 .488.386.89.87.89zm0 0M9.406 22.648a.881.881 0 0 0 .875-.886c0-.492-.39-.89-.875-.89a.881.881 0 0 0-.87.89c0 .488.39.886.87.886zm0 0M39.652 20.871c.47 0 .871.41.871.89 0 .477-.402.887-.87.887H12.366a.897.897 0 0 1-.875-.886c0-.48.403-.89.875-.89zm0 0" fill="#e1177c"/></g></svg>