<svg xmlns="http://www.w3.org/2000/svg" width="48" height="48"><path d="M48 24C48 10.746 37.254 0 24 0S0 10.746 0 24s10.746 24 24 24 24-10.746 24-24zm0 0" fill-rule="evenodd" fill="#010717"/><path d="M38.707 12.96c-2.059-2.054-5.098-3.128-8.848-3.128-2.504 0-4.382.715-5.543 2.145-1.25 1.433-1.52 3.398-1.52 4.648l-.089 3.754 2.145.09.09-3.754c0-.98.359-1.965.894-2.59a2.513 2.513 0 0 1 2.144-1.164h.09c.985 0 1.79.27 2.325.715.535.449.894 1.164.804 2.144 0 .895-.36 1.79-1.074 2.504-.715.625-1.52.985-2.5.985h-2.059v1.34h2.145c2.594 0 4.828-2.145 4.828-4.739 0-.625-.09-1.25-.355-1.875l-.094-.27.18.18a3.946 3.946 0 0 1 .984 2.95c-.09 2.503-2.055 4.468-4.559 4.468h-.09l-3.843-.09h-2.145l-5.898-.09h-.18c-2.055 0-4.023.805-5.543 2.235-1.52 1.52-2.41 3.488-2.41 5.633 0 1.25.266 2.414.715 3.484h-.09c-.984-1.34-1.43-2.95-1.43-4.648 0-2.055.895-3.934 2.324-5.453 1.52-1.426 3.395-2.23 5.45-2.145l6.258.09v-1.34l-6.258-.09h-.176a9.102 9.102 0 0 0-6.258 2.504 9.398 9.398 0 0 0-2.77 6.344c-.09 2.953.895 5.633 2.68 7.422 1.88 1.965 4.649 2.949 8.313 2.949 2.414 0 4.289-.715 5.543-2.234.98-1.164 1.52-2.864 1.61-4.649l.089-3.754-2.148-.09.09 3.844c0 .98-.356 1.965-.895 2.59-.625.715-1.43 1.164-2.324 1.164-.98 0-1.786-.27-2.32-.715-.54-.449-.895-1.164-.805-2.144a3.488 3.488 0 0 1 3.484-3.489h2.145v-1.34h-2.145c-2.594 0-4.828 2.145-4.828 4.739 0 .625.09 1.25.36 1.875l.09.27-.18-.18a3.958 3.958 0 0 1-.981-2.95c.086-2.503 2.055-4.468 4.555-4.468h.09l3.843.09 2.145.09 5.898.09h.18c4.289 0 7.867-3.489 7.957-7.868 0-1.25-.27-2.414-.715-3.484h.09c.98 1.34 1.43 2.949 1.43 4.648 0 2.055-.895 3.93-2.325 5.453-1.52 1.43-3.398 2.235-5.453 2.145l-6.258-.09v1.34l6.258.09h.18c2.324 0 4.738-.895 6.613-2.504 1.965-1.7 3.04-3.934 3.04-6.344-.18-2.953-1.165-5.453-2.95-7.332zm-1.254 5.99c-.09 3.663-3.039 6.616-6.703 6.616h-.09l-5.898-.093-2.145-.086-3.844-.09h-.09c-1.519 0-2.949.625-4.109 1.695a5.62 5.62 0 0 0-1.789 4.113c0 .805.18 1.7.445 2.415l.09.27-.175-.27a5.65 5.65 0 0 1-1.165-3.489c.09-3.039 2.594-5.539 5.633-5.539h.09l4.11.09v-1.34h-4.2c-3.754 0-6.883 3.035-6.883 6.79 0 1.073.18 2.058.625 2.952l.18.356-.36-.27a5.982 5.982 0 0 1-1.25-4.02c.09-3.663 3.04-6.527 6.614-6.527h.09l5.988.09 2.145.09 3.843.09h.09c1.52 0 2.95-.625 4.11-1.7a5.605 5.605 0 0 0 1.789-4.109 7.177 7.177 0 0 0-.446-2.414l-.09-.27.18.27c.805.985 1.16 2.235 1.16 3.485 0 1.52-.625 2.863-1.699 3.933-1.07.985-2.41 1.61-3.84 1.61h-.093l-4.11-.09v1.34l4.114.09h.09c1.785 0 3.484-.715 4.824-1.965 1.34-1.25 2.054-3.04 2.144-4.918 0-1.07-.18-2.055-.625-2.95l-.18-.355.18.266c.805 1.074 1.25 2.504 1.25 3.933zm0 0" fill="#18ae81"/></svg>