<svg width="48" height="48" viewBox="0 0 48 48" fill="none" xmlns="http://www.w3.org/2000/svg">
<g clip-path="url(#clip0_3016_2228)">
<g clip-path="url(#clip1_3016_2228)">
<path d="M48 24C48 37.2548 37.2548 48 24 48C10.7452 48 0 37.2548 0 24C0 10.7452 10.7452 0 24 0C37.2548 0 48 10.7452 48 24Z" fill="white"/>
<g clip-path="url(#clip2_3016_2228)">
<path d="M8 8H21.7562H22.3667H40V27.2569V27.8226V40H36.9476H31.0208H16.9674H11.0532H8V27.8544V27.0833V8ZM8 8V27.0833C8.0751 26.9551 8.08287 26.786 8.13212 26.6452C8.30408 26.1536 8.62756 25.6799 9.04909 25.3703C9.79782 24.8204 10.5788 24.9029 11.3571 24.5014C11.8232 24.261 12.2414 23.9251 12.6674 23.622C13.1034 23.3079 13.5531 23.0148 14.0165 22.7426C14.2891 22.5799 14.956 22.1748 15.2337 22.0949C15.2636 22.0861 15.2942 22.0808 15.3254 22.0791C15.3566 22.0774 15.3876 22.0792 15.4183 22.0847C15.5711 22.1131 15.6609 22.215 15.7422 22.337C16.0167 22.1989 16.3069 22.0669 16.5927 21.954C16.5654 21.8009 16.5487 21.6479 16.6461 21.5134C16.7924 21.3116 17.2063 21.2141 17.4345 21.1335C17.7922 21.0061 18.1534 20.8892 18.5179 20.7828C18.8824 20.6763 19.2497 20.5806 19.6198 20.4954C19.9899 20.4103 20.3621 20.336 20.7365 20.2724C21.1109 20.2089 21.4868 20.1563 21.8643 20.1145C21.993 20.1004 22.1218 20.0876 22.2507 20.0761C22.3797 20.0645 22.5087 20.0543 22.6379 20.0453C22.767 20.0364 22.8963 20.0287 23.0256 20.0223C23.1549 20.0159 23.2843 20.0108 23.4137 20.007C23.5431 20.0032 23.6725 20.0006 23.802 19.9994C23.9315 19.9982 24.0609 19.9982 24.1904 19.9996C24.3198 20.0009 24.4493 20.0035 24.5787 20.0074C24.7081 20.0113 24.8374 20.0165 24.9667 20.023C25.096 20.0295 25.2253 20.0373 25.3544 20.0463C25.4836 20.0554 25.6126 20.0657 25.7416 20.0773C25.8705 20.0889 25.9993 20.1019 26.128 20.1161C26.2567 20.1303 26.3852 20.1457 26.5136 20.1624C26.642 20.1792 26.7702 20.1972 26.8982 20.2166C27.0262 20.2359 27.154 20.2564 27.2816 20.2782C27.4093 20.3001 27.5366 20.3232 27.6638 20.3476C27.7909 20.3719 27.9178 20.3976 28.0445 20.4245C28.1711 20.4514 28.2975 20.4795 28.4236 20.5089C28.5496 20.5384 28.6754 20.569 28.8009 20.6009C28.9264 20.6329 29.0515 20.6661 29.1763 20.7004C29.3011 20.7349 29.4256 20.7705 29.5497 20.8074C29.6738 20.8443 29.7975 20.8824 29.9209 20.9218C30.0442 20.9611 30.1671 21.0017 30.2897 21.0435C30.4122 21.0853 30.5343 21.1283 30.656 21.1725C30.7777 21.2167 30.8989 21.2621 31.0197 21.3088C31.1405 21.3554 31.2608 21.4033 31.3806 21.4523C31.5004 21.5014 31.6197 21.5516 31.7386 21.6029C31.8574 21.6544 31.9757 21.7069 32.0934 21.7607C32.2112 21.8145 32.3285 21.8694 32.4451 21.9255C32.5618 21.9816 32.678 22.0388 32.7935 22.0972C32.909 22.1556 33.024 22.2152 33.1384 22.2759C33.2527 22.3366 33.3664 22.3984 33.4796 22.4613C33.5927 22.5243 33.7052 22.5884 33.8171 22.6536C34.3148 22.9431 34.7992 23.2535 35.2703 23.5848C35.6786 23.8741 36.0748 24.1876 36.5104 24.4357C37.3157 24.8944 38.2331 24.8121 38.9788 25.4005C39.4346 25.7601 39.8626 26.3786 39.9357 26.9665C39.9376 26.9816 39.9371 26.9854 39.9364 26.9989C39.9556 27.0843 39.9709 27.1744 40 27.2569V8H22.3667H21.7562H8ZM23.9979 33.2309C23.4556 33.5553 22.8057 33.5251 22.2098 33.6995C21.9124 33.7866 21.6397 33.9467 21.3438 34.0303C21.2122 34.0674 20.9536 34.0503 20.854 34.0959C20.7858 34.1272 20.6704 34.3708 20.5963 34.4465C20.3352 34.7135 19.9984 34.9099 19.7255 35.1694C19.5676 35.3194 19.417 35.4904 19.2839 35.6631C19.1666 35.8154 19.0576 35.9841 18.9171 36.1159C18.8051 36.221 18.6768 36.2994 18.5472 36.3806C18.5448 36.5189 18.5435 36.6626 18.5148 36.7984C18.4744 36.9894 18.3876 37.1734 18.3163 37.3545C18.2307 37.5719 18.1531 37.7963 18.0966 38.0233C18.0057 38.3891 17.9919 38.7804 17.8835 39.1381C17.7736 39.5007 17.5475 39.7238 17.2137 39.8908C17.141 39.9271 17.0585 39.9482 16.9884 39.9878C16.9814 39.9917 16.9744 39.9959 16.9674 40H31.0208C30.9656 39.9654 30.8969 39.9426 30.8372 39.9154C30.6627 39.8359 30.4957 39.7413 30.3644 39.5991C30.3379 39.5701 30.3131 39.5398 30.2899 39.5082C30.2667 39.4766 30.2453 39.4439 30.2256 39.4099C30.2059 39.376 30.1881 39.3412 30.1722 39.3054C30.1563 39.2695 30.1423 39.233 30.1303 39.1956C30.0069 38.8239 29.9867 38.3455 29.8792 37.9434C29.7743 37.5511 29.5654 37.1734 29.4791 36.7875C29.4489 36.6531 29.4529 36.5172 29.4582 36.3804C29.3299 36.3095 29.1923 36.231 29.0854 36.1297C28.8221 35.8803 28.6292 35.5527 28.3703 35.2932C28.2276 35.1486 28.0782 35.0113 27.9221 34.8813C27.7452 34.7364 27.5529 34.6014 27.3967 34.4339C27.2969 34.3268 27.2273 34.2216 27.1703 34.0869C26.5851 34.0849 26.1456 33.7913 25.5994 33.6458C25.0655 33.5035 24.4744 33.5343 23.9979 33.2309ZM39.9536 27.9701C39.8454 28.4515 39.6704 28.8756 39.3314 29.2419C39.2188 29.3636 39.0818 29.4747 38.9793 29.6032C38.9434 30.0925 38.972 30.6014 38.9722 31.0931L38.9716 33.9398L38.974 34.7706C38.9751 34.9448 38.9876 35.1265 38.9652 35.2991C38.9494 35.4207 38.9149 35.5296 38.8197 35.6124C38.736 35.6854 38.6351 35.7206 38.5284 35.7454C38.5342 36.0418 38.5437 36.3583 38.5185 36.6531C38.6772 36.7023 38.8276 36.7585 38.9115 36.9141C39.0586 37.187 38.9554 38.0763 38.8542 38.379C38.8419 38.4157 38.8286 38.4522 38.8146 38.4883C38.8004 38.5244 38.7855 38.5602 38.7696 38.5956C38.7538 38.631 38.7371 38.666 38.7196 38.7006C38.702 38.7351 38.6836 38.7693 38.6644 38.803C38.6452 38.8367 38.6252 38.8699 38.6044 38.9026C38.5836 38.9353 38.562 38.9675 38.5396 38.9991C38.5172 39.0308 38.4941 39.0619 38.4702 39.0924C38.4463 39.123 38.4216 39.1529 38.3963 39.1822C38.3709 39.2116 38.3449 39.2403 38.3181 39.2684C38.2914 39.2965 38.264 39.3239 38.2359 39.3506C38.2078 39.3773 38.1791 39.4034 38.1497 39.4287C38.1204 39.4541 38.0904 39.4787 38.0599 39.5026C38.0293 39.5264 37.9982 39.5496 37.9666 39.5719C37.9349 39.5943 37.9027 39.6159 37.87 39.6367C37.8373 39.6575 37.804 39.6775 37.7704 39.6968C37.7367 39.7159 37.7025 39.7343 37.6679 39.7518C37.5101 39.8299 37.3451 39.8789 37.1769 39.9283C37.104 39.9497 37.0141 39.9642 36.9476 40H40V27.8226C39.9794 27.8721 39.9648 27.9176 39.9536 27.9701ZM8 27.8544V40H11.0532C10.9523 39.9476 10.8081 39.9271 10.6973 39.8958C10.6536 39.8836 10.6104 39.8701 10.5676 39.8552C10.5248 39.8404 10.4825 39.8243 10.4407 39.8068C10.3989 39.7894 10.3577 39.7706 10.3171 39.7506C10.2764 39.7305 10.2365 39.7093 10.1972 39.6868C10.1579 39.6642 10.1193 39.6405 10.0815 39.6156C10.0436 39.5906 10.0066 39.5646 9.97042 39.5374C9.93421 39.5102 9.89889 39.4818 9.86445 39.4524C9.83001 39.423 9.79651 39.3925 9.76397 39.361C9.43064 39.0406 9.18438 38.6355 9.08655 38.181C8.99939 37.776 9.02504 37.3488 9.02519 36.9368L9.02587 35.5591L9.02659 31.7393C9.02664 31.0243 9.03749 30.3073 9.02139 29.5925C8.60763 29.2405 8.2859 28.8354 8.12322 28.3096C8.08218 28.1769 8.07439 27.9965 8.01194 27.8764C8.00811 27.869 8.00398 27.8617 8 27.8544ZM39.9364 26.9989C39.9254 27.193 39.9234 27.7989 39.9536 27.9701C39.9648 27.9176 39.9794 27.8721 40 27.8226V27.2569C39.9709 27.1744 39.9556 27.0843 39.9364 26.9989Z" fill="black"/>
<path d="M39.9366 26.999C39.9558 27.0844 39.9711 27.1745 40.0002 27.257V27.8226C39.9795 27.8721 39.965 27.9176 39.9538 27.9702C39.9236 27.799 39.9256 27.1931 39.9366 26.999Z" fill="black"/>
<path d="M23.1882 30.6629C23.2136 30.6599 23.2396 30.6569 23.2652 30.6576C23.3349 30.6593 23.4037 30.6871 23.4492 30.7408C23.4977 30.7979 23.5182 30.8752 23.5276 30.9481C23.5472 31.1018 23.5276 31.2681 23.5286 31.4236C23.5303 31.6872 23.5532 31.9654 23.5306 32.2275C23.5222 32.3242 23.5047 32.3931 23.4271 32.4558C23.3417 32.5249 23.232 32.5397 23.1267 32.553C22.8649 32.5847 22.6057 32.6315 22.3494 32.6934C22.093 32.7553 21.841 32.8318 21.5935 32.9231C21.4542 32.9746 21.0969 33.1614 20.9594 33.1343C20.8296 33.1088 20.7658 32.9541 20.7056 32.8517C20.5737 32.6333 20.1183 31.9418 20.0854 31.7321C20.0751 31.6665 20.0882 31.6108 20.1286 31.5575C20.2398 31.4105 20.4904 31.3373 20.6584 31.2711C21.5305 30.9279 22.2618 30.7694 23.1882 30.6629Z" fill="#FEB29E"/>
<path d="M28.955 32.1931C29.1471 32.225 29.3342 32.406 29.4835 32.5259C29.9824 32.9267 30.4426 33.3512 30.847 33.8484C30.9665 33.9953 31.3835 34.4581 31.3429 34.6417C31.3265 34.7156 31.2543 34.7816 31.197 34.8254C30.9767 34.9937 30.5132 35.2265 30.2567 35.3759C30.176 35.4227 30.0908 35.4804 30.002 35.5103C29.9463 35.5291 29.8607 35.5423 29.8086 35.5062C29.6156 35.3722 29.4336 35.0751 29.273 34.8931C29.026 34.6129 28.7509 34.3362 28.4602 34.1013C28.3125 33.9819 28.0537 33.8511 28.0129 33.6526C28.001 33.5951 28.0167 33.5467 28.0381 33.4936C28.1417 33.2363 28.6033 32.4724 28.7724 32.2294C28.8325 32.2114 28.8932 32.2027 28.955 32.1931Z" fill="#FCD8D4"/>
<path d="M31.7937 35.6113C31.8713 35.608 31.9507 35.6403 32.0084 35.6919C32.1167 35.7885 32.1755 35.9891 32.2299 36.1234C32.5253 36.8533 32.8249 37.8979 32.8615 38.6827C32.8656 38.7723 32.8589 38.8998 32.7905 38.9675C32.6373 39.1193 31.696 39.0624 31.455 39.0616C31.3537 39.062 31.2214 39.068 31.1285 39.0258C31.0544 38.9921 31.0274 38.8998 31.0062 38.8272C30.9347 38.5814 30.9238 38.3059 30.8702 38.0527C30.8062 37.7511 30.7266 37.4445 30.6187 37.1554C30.5666 37.0161 30.5021 36.8814 30.4487 36.7425C30.4124 36.648 30.3729 36.5159 30.4233 36.4196C30.4921 36.2883 31.6014 35.6637 31.7937 35.6113Z" fill="#FCD8D4"/>
<path d="M16.153 35.6094C16.2165 35.6112 16.2671 35.6251 16.3254 35.6509C16.543 35.7474 16.753 35.8899 16.9592 36.0095C17.1375 36.1129 17.3572 36.2136 17.515 36.3457C17.5666 36.3889 17.5952 36.4663 17.6004 36.5319C17.613 36.6931 17.4374 37.0118 17.3751 37.1698C17.2339 37.5283 17.1304 37.9531 17.0695 38.3349C17.041 38.5139 17.0498 38.8405 16.9239 38.9789C16.851 39.0591 16.7399 39.0558 16.6401 39.0614C16.3591 39.0621 15.5049 39.1093 15.284 39.0134C15.2308 38.9903 15.1783 38.9543 15.1587 38.8969C15.1092 38.7519 15.1473 38.552 15.1654 38.4011C15.2689 37.5416 15.5131 36.6609 15.8756 35.8743C15.9464 35.7206 15.9935 35.6676 16.153 35.6094Z" fill="#FEB29E"/>
<path d="M19.022 32.1895C19.0718 32.1938 19.1307 32.2011 19.177 32.2202C19.2108 32.2342 19.239 32.2579 19.2616 32.2863C19.4128 32.476 19.527 32.7175 19.6479 32.9277C19.7433 33.0938 19.8595 33.2651 19.9352 33.4406C19.966 33.5125 20.0122 33.6279 19.9762 33.7049C19.949 33.7629 19.8993 33.8147 19.8533 33.8581C19.7308 33.9739 19.5807 34.063 19.4517 34.1722C19.1386 34.4375 18.8367 34.7466 18.579 35.066C18.5078 35.1543 18.2584 35.4995 18.1504 35.5222C18.0167 35.5503 17.9012 35.4638 17.7912 35.4009C17.5829 35.2788 16.7386 34.8553 16.667 34.6796C16.6363 34.6043 16.6667 34.519 16.7011 34.4503C16.7707 34.3114 16.8824 34.1817 16.9777 34.0591C17.4193 33.4911 17.914 33.0116 18.4726 32.5596C18.6355 32.4278 18.8215 32.2556 19.022 32.1895Z" fill="#FEB29E"/>
<path d="M24.6851 30.6576C24.827 30.6538 24.9729 30.6802 25.1136 30.6976C25.2946 30.7188 25.4747 30.7458 25.654 30.7787C25.8332 30.8116 26.0112 30.8503 26.1879 30.8948C26.3647 30.9393 26.5398 30.9895 26.7132 31.0454C26.8867 31.1013 27.0581 31.1628 27.2276 31.2299C27.3845 31.2903 27.5499 31.3479 27.699 31.4258C27.7848 31.4707 27.8844 31.5394 27.9107 31.6388C27.9267 31.6995 27.9135 31.7677 27.8935 31.8258C27.8127 32.0601 27.4989 32.5388 27.3654 32.7727C27.3002 32.887 27.2316 33.0436 27.1149 33.1123C26.9842 33.1892 26.7291 33.0517 26.594 33.0001C26.2326 32.8622 25.8577 32.7252 25.4774 32.6509C25.2407 32.6047 24.9183 32.5892 24.7009 32.5182C24.6294 32.4948 24.5394 32.4522 24.5052 32.3803C24.4793 32.3259 24.4721 32.2604 24.4683 32.2011C24.452 31.946 24.4696 31.681 24.4712 31.425C24.4721 31.2725 24.4565 31.1138 24.4675 30.9624C24.471 30.914 24.4804 30.865 24.4992 30.8201C24.5359 30.7322 24.6013 30.694 24.6851 30.6576Z" fill="#FCD8D4"/>
<path d="M16.5927 21.954C16.6268 22.0136 16.6668 22.0709 16.7162 22.1189C16.7579 22.1594 16.8058 22.1934 16.8593 22.2163C16.8798 22.2251 16.9009 22.232 16.9227 22.2371C17.002 22.2556 17.0769 22.247 17.1553 22.2286C17.3702 22.178 17.5832 22.082 17.7908 22.0069C18.1329 21.8832 18.482 21.7647 18.8318 21.6651C20.3403 21.2357 22.01 20.9648 23.5793 20.9509C23.5781 20.9551 23.577 20.9593 23.5757 20.9635C23.5132 21.1659 23.3724 21.3465 23.2978 21.5472C23.2787 21.598 23.2608 21.6492 23.2443 21.7009C23.2278 21.7526 23.2126 21.8048 23.1988 21.8573C23.1851 21.9098 23.1727 21.9626 23.1617 22.0158C23.1507 22.069 23.141 22.1224 23.1328 22.1761C23.1246 22.2297 23.1178 22.2835 23.1123 22.3376C23.1069 22.3916 23.1029 22.4457 23.1003 22.4999C23.0977 22.5541 23.0965 22.6084 23.0968 22.6627C23.097 22.717 23.0987 22.7712 23.1018 22.8254C23.1049 22.8796 23.1094 22.9337 23.1153 22.9877C23.1212 23.0416 23.1285 23.0954 23.1372 23.149C23.1459 23.2026 23.156 23.2559 23.1675 23.309C23.179 23.362 23.1919 23.4147 23.2062 23.4671C23.2204 23.5195 23.236 23.5715 23.253 23.6231C23.27 23.6746 23.2883 23.7257 23.308 23.7764C23.3276 23.8269 23.3485 23.877 23.3708 23.9266C23.393 23.9761 23.4166 24.0249 23.4414 24.0732C23.4904 24.1686 23.5373 24.269 23.5965 24.3583C23.6487 24.3675 23.6998 24.3736 23.7527 24.3774C23.5509 24.4063 23.3289 24.3944 23.1243 24.4027C22.7838 24.4143 22.4447 24.4429 22.107 24.4886C21.9701 24.5054 21.8334 24.5242 21.697 24.5449C21.5606 24.5655 21.4245 24.588 21.2887 24.6124C21.1529 24.6368 21.0175 24.6631 20.8825 24.6912C20.7474 24.7193 20.6127 24.7493 20.4785 24.7812C20.3443 24.813 20.2105 24.8467 20.0772 24.8822C19.9439 24.9178 19.8111 24.9552 19.6788 24.9944C19.5465 25.0335 19.4148 25.0745 19.2837 25.1174C19.1525 25.1602 19.022 25.2048 18.8921 25.2512C18.7622 25.2977 18.6329 25.3459 18.5043 25.3959C18.3758 25.4459 18.2479 25.4976 18.1207 25.5512C17.9935 25.6047 17.8672 25.6599 17.7415 25.717C17.6159 25.774 17.4911 25.8327 17.3671 25.8931C17.243 25.9536 17.1199 26.0157 16.9976 26.0796C16.8753 26.1434 16.7539 26.2089 16.6334 26.2761C16.5129 26.3433 16.3934 26.4122 16.2748 26.4827C16.1562 26.5531 16.0386 26.6252 15.922 26.699C15.3835 27.0394 14.8848 27.4366 14.3577 27.7931C14.1279 27.9506 13.8911 28.0965 13.6471 28.2309C13.4031 28.3653 13.1531 28.4876 12.8972 28.5977C12.3382 28.8411 11.1837 29.2291 10.584 29.2124C10.3867 29.2069 10.1906 29.1527 10.0082 29.0797C9.98213 29.0694 9.95638 29.0585 9.9309 29.047C9.90542 29.0354 9.88025 29.0232 9.85538 29.0104C9.83051 28.9976 9.80597 28.9842 9.78176 28.9702C9.75756 28.9561 9.73372 28.9415 9.71025 28.9262C9.68678 28.911 9.66369 28.8952 9.64101 28.8789C9.61832 28.8625 9.59605 28.8456 9.57421 28.8281C9.55236 28.8106 9.53096 28.7926 9.51001 28.7741C9.48907 28.7555 9.4686 28.7364 9.4486 28.7169C9.4286 28.6973 9.4091 28.6773 9.3901 28.6567C9.37109 28.6362 9.35261 28.6152 9.33466 28.5937C9.3167 28.5723 9.29929 28.5504 9.28243 28.5281C9.26556 28.5058 9.24926 28.483 9.23353 28.4599C9.21779 28.4367 9.20265 28.4132 9.18808 28.3894C9.17352 28.3655 9.15956 28.3412 9.1462 28.3166C9.13285 28.2921 9.12011 28.2672 9.108 28.2419C9.09588 28.2167 9.0844 28.1912 9.07355 28.1654C8.90368 27.765 8.89631 27.2437 9.06238 26.841C9.14303 26.6454 9.26041 26.474 9.40466 26.3198C9.80258 25.8946 10.2205 25.8412 10.7574 25.7166C10.9893 25.6635 11.215 25.5912 11.4346 25.4998C12.3796 25.1027 13.1457 24.4008 14.0042 23.8551C14.2929 23.6715 14.5897 23.4917 14.889 23.3266C15.1183 23.2001 15.3683 23.0847 15.5818 22.9334C15.6656 22.8741 15.7277 22.7996 15.7639 22.7027C15.8074 22.5864 15.7991 22.4632 15.7487 22.3507C15.7466 22.3461 15.7444 22.3416 15.7423 22.337C16.0168 22.1989 16.307 22.0669 16.5927 21.954Z" fill="#D3D3FE"/>
<path d="M10.6317 27.0039C10.7359 27.0044 10.8357 27.0277 10.9228 27.0868C10.9352 27.0953 10.9472 27.1044 10.9587 27.1142C10.9702 27.1239 10.9812 27.1341 10.9917 27.1449C11.0022 27.1557 11.0122 27.167 11.0215 27.1788C11.0309 27.1906 11.0397 27.2028 11.0478 27.2155C11.056 27.2282 11.0635 27.2412 11.0703 27.2547C11.0771 27.2681 11.0833 27.2818 11.0888 27.2958C11.0942 27.3098 11.099 27.3241 11.1031 27.3387C11.1071 27.3532 11.1104 27.3678 11.113 27.3827C11.1356 27.5127 11.0972 27.6571 11.0196 27.7628C10.9339 27.8795 10.8409 27.9174 10.7028 27.9376C10.5856 27.9383 10.4891 27.9305 10.3914 27.8602C10.2862 27.7843 10.22 27.6633 10.1999 27.5363C10.1803 27.4122 10.208 27.2898 10.2841 27.189C10.3723 27.0721 10.4911 27.0245 10.6317 27.0039Z" fill="black"/>
<path d="M19.5065 23.3789C19.6108 23.3794 19.7105 23.4025 19.7977 23.4618C19.8101 23.4703 19.8221 23.4794 19.8337 23.4891C19.8452 23.4988 19.8562 23.5091 19.8667 23.5198C19.8772 23.5306 19.8871 23.5419 19.8965 23.5537C19.9059 23.5655 19.9146 23.5778 19.9228 23.5905C19.9309 23.6031 19.9384 23.6162 19.9453 23.6296C19.9521 23.643 19.9583 23.6567 19.9637 23.6708C19.9692 23.6848 19.974 23.6991 19.978 23.7136C19.9821 23.7281 19.9854 23.7428 19.988 23.7576C20.0106 23.8876 19.9722 24.0321 19.8946 24.1378C19.8088 24.2547 19.7158 24.2926 19.5775 24.3125C19.4604 24.3133 19.3639 24.3054 19.2664 24.2352C19.1612 24.1593 19.095 24.0383 19.0749 23.9112C19.0554 23.7871 19.083 23.6648 19.159 23.564C19.2472 23.4472 19.366 23.3995 19.5065 23.3789Z" fill="black"/>
<path d="M14.5072 24.6289C14.6112 24.6294 14.7109 24.6528 14.7977 24.7118C14.8102 24.7203 14.8222 24.7294 14.8337 24.7391C14.8452 24.7488 14.8562 24.7591 14.8667 24.7698C14.8772 24.7807 14.8872 24.792 14.8966 24.8038C14.9059 24.8156 14.9147 24.8278 14.9228 24.8405C14.931 24.8532 14.9385 24.8662 14.9453 24.8797C14.9521 24.8931 14.9583 24.9068 14.9638 24.9208C14.9693 24.9349 14.974 24.9492 14.9781 24.9637C14.9821 24.9782 14.9854 24.9929 14.988 25.0077C15.0106 25.1377 14.9722 25.2821 14.8946 25.3878C14.8088 25.5046 14.7157 25.5424 14.5775 25.5626C14.4604 25.5632 14.364 25.5554 14.2664 25.4852C14.1612 25.4094 14.0949 25.2883 14.0749 25.1613C14.0554 25.0371 14.083 24.9148 14.1591 24.8139C14.2475 24.6968 14.3663 24.6493 14.5072 24.6289Z" fill="black"/>
<path d="M23.5793 20.951C24.1886 20.9253 24.806 20.9501 25.4138 20.9962C25.5862 21.0089 25.7584 21.024 25.9305 21.0415C26.1025 21.059 26.2742 21.079 26.4456 21.1013C26.617 21.1237 26.7881 21.1485 26.9589 21.1756C27.1296 21.2028 27.3 21.2324 27.4699 21.2643C27.6398 21.2963 27.8093 21.3306 27.9782 21.3674C28.1472 21.4041 28.3156 21.4432 28.4834 21.4847C28.6512 21.5262 28.8185 21.57 28.9851 21.6161C29.1517 21.6624 29.3176 21.7109 29.4829 21.7617C29.6481 21.8126 29.8126 21.8657 29.9764 21.9212C30.1401 21.9767 30.3031 22.0345 30.4652 22.0945C30.6274 22.1546 30.7886 22.2169 30.949 22.2815C31.1093 22.3461 31.2688 22.413 31.4273 22.4821C31.5858 22.5512 31.7433 22.6225 31.8998 22.696C32.0562 22.7695 32.2117 22.8452 32.366 22.9231C32.5204 23.001 32.6736 23.0811 32.8257 23.1633C32.9778 23.2455 33.1287 23.3298 33.2785 23.4163C33.7725 23.7136 34.256 24.0271 34.7292 24.3567C35.1677 24.6678 35.5913 25.002 36.0648 25.2596C36.3325 25.4051 36.6099 25.535 36.9019 25.6238C37.4484 25.7901 38.0397 25.8023 38.4803 26.2108C38.835 26.5395 39.0353 26.957 39.052 27.4412C39.0675 27.8934 38.918 28.3237 38.6072 28.6561C38.2912 28.9941 37.8781 29.1949 37.4132 29.2101C37.0372 29.2225 36.6205 29.1028 36.2593 29.0026C35.3245 28.7431 34.4643 28.3544 33.6606 27.8088C33.1349 27.4519 32.6325 27.0561 32.0954 26.7164C31.738 26.4935 31.3729 26.2841 31 26.0882C30.6272 25.8924 30.2475 25.7106 29.8612 25.5428C29.6759 25.466 29.4892 25.3928 29.3011 25.3233C29.1129 25.2538 28.9235 25.188 28.7328 25.1258C28.542 25.0637 28.3502 25.0054 28.1572 24.9508C27.9642 24.8961 27.7702 24.8453 27.5752 24.7983C27.3802 24.7512 27.1844 24.708 26.9877 24.6686C26.791 24.6292 26.5937 24.5937 26.3956 24.562C26.1975 24.5304 25.9989 24.5026 25.7998 24.4786C25.6006 24.4547 25.4011 24.4347 25.2011 24.4186C24.7186 24.3832 24.2355 24.3931 23.7526 24.3775C23.6998 24.3736 23.6487 24.3676 23.5965 24.3584C23.5373 24.2691 23.4903 24.1687 23.4413 24.0733C23.4165 24.025 23.393 23.9761 23.3707 23.9266C23.3485 23.8771 23.3275 23.827 23.3079 23.7765C23.2882 23.7258 23.2699 23.6747 23.253 23.6231C23.236 23.5716 23.2203 23.5196 23.2061 23.4672C23.1918 23.4148 23.179 23.3621 23.1675 23.3091C23.156 23.256 23.1459 23.2027 23.1372 23.1491C23.1284 23.0955 23.1211 23.0417 23.1152 22.9878C23.1093 22.9338 23.1048 22.8797 23.1017 22.8255C23.0986 22.7713 23.097 22.7171 23.0967 22.6628C23.0965 22.6085 23.0976 22.5542 23.1002 22.5C23.1028 22.4458 23.1069 22.3916 23.1123 22.3376C23.1177 22.2836 23.1245 22.2298 23.1327 22.1761C23.141 22.1225 23.1506 22.0691 23.1616 22.0159C23.1726 21.9627 23.185 21.9099 23.1988 21.8574C23.2126 21.8049 23.2277 21.7527 23.2442 21.701C23.2608 21.6493 23.2786 21.5981 23.2978 21.5473C23.3723 21.3466 23.5131 21.166 23.5756 20.9636C23.5769 20.9594 23.578 20.9552 23.5793 20.951Z" fill="#EFEEFE"/>
<path d="M33.7649 25.7551C33.8646 25.7553 33.9594 25.7798 34.0429 25.8348C34.0557 25.8432 34.068 25.8523 34.0798 25.8619C34.0916 25.8715 34.1029 25.8818 34.1137 25.8926C34.1245 25.9035 34.1347 25.9148 34.1443 25.9267C34.1539 25.9386 34.1628 25.9509 34.1712 25.9637C34.1795 25.9765 34.1872 25.9897 34.1942 26.0033C34.2012 26.0168 34.2074 26.0307 34.213 26.0449C34.2185 26.0592 34.2233 26.0737 34.2274 26.0884C34.2315 26.1031 34.2348 26.118 34.2373 26.1331C34.2595 26.2627 34.221 26.4067 34.1436 26.5121C34.0547 26.6333 33.9595 26.6673 33.8184 26.6884C33.706 26.6849 33.6137 26.6794 33.5192 26.6115C33.4106 26.5336 33.3426 26.4105 33.3242 26.279C33.3069 26.1551 33.3353 26.0334 33.4128 25.9342C33.5046 25.8166 33.6222 25.7735 33.7649 25.7551Z" fill="black"/>
<path d="M36.8895 27.0054C36.9892 27.0053 37.0844 27.03 37.1679 27.0849C37.1807 27.0933 37.193 27.1024 37.2048 27.112C37.2166 27.1217 37.2279 27.1319 37.2387 27.1427C37.2495 27.1536 37.2597 27.1649 37.2693 27.1768C37.2789 27.1887 37.2879 27.201 37.2962 27.2138C37.3046 27.2266 37.3122 27.2398 37.3192 27.2534C37.3262 27.267 37.3324 27.2809 37.338 27.2951C37.3435 27.3094 37.3483 27.3239 37.3524 27.3386C37.3565 27.3533 37.3598 27.3682 37.3623 27.3832C37.3844 27.5129 37.346 27.6569 37.2686 27.7623C37.1797 27.8834 37.0845 27.9174 36.9434 27.9386C36.8313 27.9359 36.7379 27.9289 36.6442 27.8617C36.5356 27.7837 36.4676 27.6607 36.4492 27.5292C36.4319 27.4053 36.4603 27.2836 36.5378 27.1844C36.6295 27.0669 36.747 27.0237 36.8895 27.0054Z" fill="black"/>
<path d="M29.3887 22.6304C29.4897 22.6306 29.5874 22.6551 29.6719 22.7117C29.6844 22.7202 29.6964 22.7293 29.708 22.739C29.7196 22.7487 29.7306 22.759 29.7411 22.7697C29.7517 22.7806 29.7616 22.7919 29.771 22.8037C29.7805 22.8155 29.7892 22.8278 29.7974 22.8405C29.8055 22.8532 29.813 22.8663 29.8199 22.8797C29.8268 22.8932 29.8329 22.907 29.8384 22.9211C29.8438 22.9351 29.8485 22.9495 29.8525 22.964C29.8565 22.9786 29.8598 22.9933 29.8623 23.0082C29.8844 23.1378 29.8459 23.2817 29.7686 23.3871C29.6797 23.5083 29.5845 23.5422 29.4434 23.5635C29.3314 23.5608 29.2379 23.5538 29.1442 23.4866C29.0357 23.4086 28.9677 23.2856 28.9492 23.1541C28.9319 23.0302 28.9603 22.9085 29.0378 22.8092C29.1292 22.6921 29.2465 22.6486 29.3887 22.6304Z" fill="black"/>
<path d="M25.1387 21.6929C25.2397 21.693 25.3375 21.7176 25.4219 21.7742C25.4344 21.7827 25.4464 21.7918 25.458 21.8014C25.4696 21.8111 25.4806 21.8214 25.4912 21.8322C25.5017 21.843 25.5117 21.8543 25.521 21.8662C25.5305 21.878 25.5393 21.8903 25.5474 21.903C25.5556 21.9157 25.5631 21.9288 25.5699 21.9422C25.5768 21.9557 25.5829 21.9695 25.5884 21.9836C25.5938 21.9976 25.5985 22.012 25.6025 22.0266C25.6065 22.0411 25.6098 22.0559 25.6123 22.0707C25.6344 22.2003 25.5959 22.3442 25.5186 22.4496C25.4297 22.5708 25.3345 22.6047 25.1934 22.626C25.0814 22.6233 24.9879 22.6163 24.8942 22.5491C24.7857 22.4711 24.7177 22.3481 24.6992 22.2166C24.6819 22.0927 24.7103 21.9709 24.7877 21.8716C24.8791 21.7544 24.9965 21.7111 25.1387 21.6929Z" fill="black"/>
<path d="M9.96729 30.0696C10.1869 30.1054 10.4108 30.148 10.6337 30.1515C11.1076 30.1589 11.6649 30.0083 12.1207 29.8759C12.915 29.6451 13.6757 29.338 14.3838 28.9055C14.8832 28.6005 15.3432 28.2411 15.8204 27.9043C16.3135 27.5512 16.8289 27.2341 17.3664 26.9531C17.4854 26.8897 17.6053 26.828 17.7262 26.7681C17.8469 26.7082 17.9686 26.65 18.0911 26.5937C18.2136 26.5373 18.3369 26.4828 18.461 26.43C18.5851 26.3772 18.71 26.3263 18.8356 26.2772C18.9612 26.228 19.0874 26.1808 19.2144 26.1354C19.3414 26.0899 19.469 26.0464 19.5972 26.0047C19.7255 25.963 19.8543 25.9231 19.9837 25.8852C20.1131 25.8472 20.243 25.8112 20.3735 25.777C20.5039 25.7429 20.6349 25.7106 20.7663 25.6803C20.8977 25.65 21.0295 25.6216 21.1617 25.5951C21.2939 25.5686 21.4265 25.5441 21.5595 25.5215C21.6924 25.4989 21.8256 25.4782 21.9592 25.4595C22.0927 25.4408 22.2265 25.424 22.3605 25.4092C22.4946 25.3944 22.6288 25.3815 22.7632 25.3706C22.8976 25.3597 23.0322 25.3508 23.1668 25.3439C23.3015 25.3369 23.4363 25.3319 23.5711 25.3289C23.5692 25.3327 23.5673 25.3366 23.5654 25.3404C23.4834 25.5026 23.3663 25.6527 23.2765 25.8129C23.0841 26.1564 22.8009 26.8942 22.7765 27.2895C22.7861 27.3142 22.7918 27.3305 22.8089 27.351C22.6649 27.4242 22.5285 27.502 22.4793 27.6684C22.4434 27.7898 22.4675 27.9239 22.5302 28.0322C22.6032 28.1584 22.7114 28.258 22.8167 28.3567C22.7547 28.4485 22.7945 28.582 22.8147 28.6857C22.8537 28.8853 23.0228 29.5869 23.1597 29.7175C22.9317 29.7375 22.7048 29.7651 22.4788 29.8004C22.2527 29.8358 22.0281 29.8786 21.805 29.929C21.5818 29.9795 21.3606 30.0373 21.1413 30.1027C20.9221 30.168 20.7053 30.2406 20.491 30.3206C19.9788 30.5121 19.4713 30.7234 19.2306 31.2494C19.1307 31.2464 19.0311 31.2511 18.9319 31.2635C18.8537 31.2732 18.777 31.2894 18.7016 31.3122C18.6262 31.335 18.5533 31.364 18.4829 31.3993C18.2569 31.5147 18.0442 31.6915 17.8482 31.8527C17.6905 31.9804 17.5368 32.1125 17.3869 32.2492C17.237 32.3858 17.0912 32.5267 16.9496 32.6719C16.808 32.817 16.6707 32.9662 16.5378 33.1194C16.4049 33.2726 16.2766 33.4296 16.1528 33.5903C15.8686 33.9567 15.6697 34.2739 15.7306 34.7543C15.5355 34.8307 15.3438 34.9724 15.2203 35.1422C14.707 35.8478 14.0766 38.2024 14.2177 39.0612L12.2944 39.0624C11.886 39.0625 11.4163 39.1075 11.0193 39.0139C10.9896 39.0071 10.9601 38.9993 10.9309 38.9904C10.9018 38.9815 10.8729 38.9717 10.8444 38.9608C10.816 38.9499 10.7879 38.938 10.7603 38.9251C10.7326 38.9122 10.7055 38.8983 10.6788 38.8835C10.6522 38.8687 10.6261 38.853 10.6005 38.8363C10.575 38.8196 10.5501 38.8021 10.5258 38.7837C10.5015 38.7653 10.4779 38.746 10.4549 38.7259C10.432 38.7057 10.4098 38.6848 10.3884 38.6632C10.1871 38.4637 10.0354 38.1919 9.98844 37.9109C9.94197 37.6327 9.96632 37.3231 9.96647 37.0409L9.96735 35.5665L9.96729 30.0696Z" fill="#FE8F72"/>
<path d="M19.651 27.7656C19.6494 27.5014 19.5874 27.0659 19.7863 26.8703C19.8782 26.7799 20.0117 26.7316 20.1401 26.7378C20.2719 26.7443 20.3997 26.8036 20.4839 26.9061C20.5314 26.9638 20.5588 27.0308 20.5744 27.1034C20.6077 27.2577 20.6067 27.8074 20.5894 27.9696C20.5709 28.1437 20.4845 28.2554 20.3561 28.3647C20.2816 28.4012 20.1843 28.42 20.1014 28.4211C19.9897 28.4225 19.8872 28.3808 19.8075 28.3027C19.6527 28.1512 19.6514 27.967 19.651 27.7656Z" fill="black"/>
<path d="M20.3562 28.3648C20.3579 28.3679 20.3597 28.3711 20.3612 28.3744C20.5016 28.6796 20.5428 29.0014 20.432 29.323C20.2978 29.7121 19.9805 29.992 19.6183 30.1682C19.1145 30.4134 18.4778 30.4399 17.951 30.2525C17.5426 30.1072 17.1746 29.8296 16.9879 29.4306C16.9796 29.4132 16.9717 29.3957 16.9643 29.3779C16.9568 29.3602 16.9499 29.3423 16.9434 29.3241C16.9368 29.3061 16.9308 29.2878 16.9252 29.2694C16.9196 29.251 16.9144 29.2324 16.9098 29.2138C16.9051 29.1952 16.9009 29.1764 16.8972 29.1575C16.8935 29.1386 16.8902 29.1197 16.8875 29.1006C16.8847 29.0816 16.8824 29.0625 16.8806 29.0433C16.8788 29.0242 16.8775 29.005 16.8766 28.9858C16.8757 28.9666 16.8754 28.9473 16.8755 28.9281C16.8756 28.9088 16.8763 28.8896 16.8774 28.8704C16.8785 28.8512 16.8801 28.832 16.8821 28.8129C16.8842 28.7938 16.8867 28.7747 16.8898 28.7557C16.8928 28.7367 16.8963 28.7178 16.9003 28.699C16.9042 28.6802 16.9087 28.6614 16.9136 28.6428C16.9185 28.6242 16.9239 28.6058 16.9297 28.5874C16.9356 28.5691 16.9419 28.5509 16.9486 28.5329C17.097 28.1346 17.4351 27.8493 17.8149 27.6798C18.3276 27.4509 18.9825 27.4366 19.5036 27.6495C19.575 27.6786 19.6205 27.6923 19.6511 27.7656C19.6515 27.967 19.6528 28.1512 19.8076 28.3028C19.8873 28.3808 19.9898 28.4226 20.1015 28.4211C20.1844 28.4201 20.2817 28.4012 20.3562 28.3648Z" fill="#FCD8D4"/>
<path d="M23.5709 25.3288C25.6538 25.258 27.9347 25.6719 29.8274 26.5552C30.221 26.7365 30.6059 26.9349 30.9821 27.1502C31.3582 27.3656 31.7241 27.5972 32.0797 27.8449C32.5909 28.1979 33.0856 28.5959 33.6196 28.9123C33.8525 29.0492 34.0908 29.1761 34.3343 29.2931C34.5778 29.4101 34.8258 29.5167 35.0783 29.613C35.3307 29.7092 35.5867 29.7948 35.8463 29.8697C36.1059 29.9445 36.3682 30.0085 36.6331 30.0614C36.8417 30.101 37.0546 30.142 37.2671 30.15C37.5245 30.1599 37.789 30.1204 38.0424 30.0761C38.0151 30.3634 38.0332 30.6658 38.0332 30.9552L38.0331 32.5504L38.033 34.3122C38.033 34.6311 38.0151 34.9625 38.041 35.2802C38.0497 35.3864 38.0682 35.4824 38.1379 35.5675C38.2166 35.6634 38.3301 35.7022 38.4471 35.7274L38.5284 35.7455C38.5342 36.0419 38.5437 36.3583 38.5185 36.6531C38.3941 36.6913 38.2691 36.7126 38.1725 36.8087C37.9861 36.9942 38.034 37.2857 38.034 37.5271C38.034 37.9621 37.9298 38.3425 37.6124 38.6557C37.5901 38.6779 37.5671 38.6992 37.5433 38.7197C37.5195 38.7403 37.4951 38.76 37.4699 38.7789C37.4448 38.7977 37.419 38.8157 37.3926 38.8327C37.3662 38.8498 37.3393 38.8659 37.3118 38.8811C37.2843 38.8963 37.2563 38.9106 37.2279 38.9239C37.1994 38.9372 37.1704 38.9494 37.1411 38.9607C37.1118 38.972 37.0821 38.9822 37.0521 38.9914C37.022 39.0007 36.9917 39.0089 36.9611 39.016C36.5872 39.1051 36.0722 39.0623 35.6804 39.0619L33.7823 39.0602C33.8724 38.3677 33.5997 37.2374 33.3862 36.5653C33.2463 36.1246 33.0186 35.3935 32.7063 35.0567C32.5829 34.9236 32.4377 34.8335 32.2777 34.7504C32.2796 34.7269 32.2813 34.7034 32.2826 34.6799C32.3102 34.1708 32.0501 33.8462 31.7464 33.4707C31.5878 33.2743 31.4245 33.0819 31.2562 32.8936C30.8598 32.4561 29.9385 31.5622 29.4102 31.3512C29.2021 31.268 28.9911 31.253 28.7696 31.2422C28.7069 31.1222 28.6375 31.0085 28.5489 30.9055C28.1447 30.4349 26.6854 30.032 26.0916 29.9019C25.7058 29.8175 25.3007 29.7522 24.9067 29.7249C24.5709 29.7015 24.2591 29.7624 24.0001 29.988C23.7441 29.7754 23.4862 29.7223 23.1595 29.7174C23.0226 29.5869 22.8536 28.8852 22.8146 28.6856C22.7944 28.582 22.7545 28.4484 22.8165 28.3567C22.7112 28.2579 22.603 28.1584 22.53 28.0321C22.4674 27.9238 22.4432 27.7897 22.4791 27.6683C22.5284 27.5019 22.6647 27.4242 22.8087 27.351C22.7917 27.3304 22.7859 27.3141 22.7764 27.2895C22.8007 26.8942 23.0839 26.1563 23.2764 25.8129C23.3661 25.6527 23.4832 25.5025 23.5652 25.3404C23.5672 25.3365 23.569 25.3326 23.5709 25.3288Z" fill="#FEB29E"/>
<path d="M27.6695 28.3508C27.5472 28.2339 27.4757 28.1222 27.4634 27.9488C27.4514 27.7792 27.4479 27.2504 27.4775 27.1038C27.4935 27.0244 27.5254 26.9516 27.5797 26.891C27.5902 26.8796 27.6011 26.8687 27.6125 26.8584C27.624 26.848 27.636 26.8383 27.6484 26.8292C27.6608 26.82 27.6737 26.8115 27.687 26.8036C27.7002 26.7957 27.7139 26.7885 27.7279 26.7819C27.7418 26.7754 27.7561 26.7695 27.7707 26.7644C27.7852 26.7593 27.8 26.7548 27.815 26.7511C27.8299 26.7475 27.8451 26.7445 27.8604 26.7423C27.8757 26.7401 27.891 26.7386 27.9064 26.7379C28.038 26.7311 28.173 26.7802 28.2667 26.8734C28.459 27.0649 28.4062 27.4334 28.4039 27.6817C28.4074 27.9063 28.4166 28.1306 28.2431 28.3025C28.1619 28.3829 28.0562 28.4229 27.9424 28.4206C27.8439 28.4186 27.7582 28.3912 27.6695 28.3508Z" fill="black"/>
<path d="M22.8087 27.3511C23.0167 27.3272 23.1437 27.3934 23.3024 27.5191C23.5305 27.6996 23.7512 27.8383 24.0573 27.7997C24.1205 27.7919 24.1822 27.7775 24.2424 27.7566C24.3025 27.7357 24.3598 27.7087 24.4143 27.6756C24.665 27.5237 24.9399 27.1807 25.259 27.4201C25.3501 27.4885 25.4482 27.6351 25.4644 27.7509C25.4851 27.9 25.3971 28.0508 25.3052 28.1607C25.0227 28.4984 24.5753 28.7076 24.1406 28.7446C23.6338 28.7876 23.2257 28.6486 22.8165 28.3567C22.7112 28.258 22.603 28.1584 22.53 28.0322C22.4674 27.9239 22.4432 27.7898 22.4791 27.6684C22.5284 27.502 22.6647 27.4242 22.8087 27.3511Z" fill="black"/>
<path d="M28.404 27.6816C29.0174 27.4688 29.6351 27.414 30.2376 27.7029C30.6066 27.8798 30.9248 28.1668 31.0591 28.5623C31.0716 28.5992 31.0822 28.6365 31.091 28.6744C31.0998 28.7123 31.1067 28.7506 31.1117 28.7892C31.1167 28.8277 31.1197 28.8665 31.1208 28.9053C31.1219 28.9442 31.1211 28.9831 31.1184 29.0218C31.1156 29.0607 31.1109 29.0993 31.1043 29.1376C31.0977 29.1759 31.0893 29.2138 31.0789 29.2513C31.0685 29.2888 31.0563 29.3257 31.0423 29.362C31.0282 29.3982 31.0123 29.4337 30.9948 29.4684C30.7999 29.8602 30.4099 30.134 30.0008 30.2669C29.471 30.439 28.8344 30.4095 28.337 30.1499C27.9774 29.9623 27.6732 29.6655 27.5511 29.2708C27.469 29.0053 27.4878 28.6588 27.622 28.412C27.6348 28.3885 27.6498 28.3685 27.6697 28.3507C27.7583 28.3911 27.8441 28.4185 27.9425 28.4205C28.0564 28.4228 28.1621 28.3828 28.2433 28.3024C28.4168 28.1305 28.4076 27.9062 28.404 27.6816Z" fill="#FCD8D4"/>
<path d="M37.8851 9.87939C37.974 9.88688 38.0565 9.8999 38.1354 9.94421C38.2436 10.005 38.3246 10.1053 38.3547 10.2264C38.3859 10.3518 38.3577 10.4891 38.2874 10.5965C38.2059 10.721 38.094 10.784 37.9511 10.8134C37.84 10.8117 37.7532 10.799 37.6586 10.7367C37.6447 10.7277 37.6314 10.7179 37.6185 10.7075C37.6056 10.6971 37.5933 10.686 37.5815 10.6743C37.5698 10.6626 37.5587 10.6503 37.5482 10.6375C37.5378 10.6246 37.528 10.6113 37.519 10.5974C37.5099 10.5836 37.5016 10.5693 37.494 10.5545C37.4864 10.5398 37.4796 10.5247 37.4735 10.5093C37.4675 10.4938 37.4624 10.4781 37.458 10.4622C37.4536 10.4462 37.45 10.43 37.4473 10.4137C37.4449 10.3987 37.4432 10.3837 37.4423 10.3686C37.4413 10.3535 37.4412 10.3384 37.4417 10.3232C37.4423 10.3081 37.4436 10.293 37.4456 10.278C37.4476 10.263 37.4504 10.2482 37.4539 10.2334C37.4574 10.2187 37.4616 10.2042 37.4665 10.1899C37.4714 10.1755 37.4769 10.1615 37.4832 10.1477C37.4895 10.1339 37.4965 10.1205 37.5041 10.1074C37.5117 10.0943 37.52 10.0816 37.5288 10.0694C37.621 9.9423 37.7376 9.90218 37.8851 9.87939Z" fill="black"/>
<path d="M10.0728 9.25439C10.1616 9.26187 10.244 9.27493 10.3229 9.3192C10.4311 9.38001 10.5121 9.48028 10.5422 9.6014C10.5735 9.7268 10.5453 9.86404 10.4749 9.97148C10.3934 10.096 10.2815 10.159 10.1386 10.1884C10.0275 10.1867 9.94074 10.174 9.84611 10.1117C9.83222 10.1027 9.81884 10.0929 9.80595 10.0825C9.79307 10.0721 9.78077 10.061 9.76904 10.0493C9.75731 10.0376 9.74621 10.0253 9.73576 10.0125C9.7253 9.99964 9.71554 9.98628 9.70647 9.97241C9.6974 9.95855 9.68907 9.94425 9.68148 9.92952C9.67389 9.91479 9.66709 9.89971 9.66107 9.88427C9.65505 9.86884 9.64984 9.85313 9.64545 9.83715C9.64106 9.82118 9.6375 9.80502 9.63479 9.78867C9.63239 9.77372 9.63072 9.75869 9.62978 9.74358C9.62885 9.72847 9.62866 9.71335 9.62922 9.69822C9.62977 9.68309 9.63106 9.66802 9.63308 9.65302C9.63511 9.63802 9.63787 9.62315 9.64136 9.60841C9.64485 9.59368 9.64905 9.57915 9.65396 9.56483C9.65887 9.55051 9.66447 9.53646 9.67076 9.52269C9.67705 9.50892 9.684 9.49549 9.69161 9.4824C9.69922 9.46931 9.70745 9.45662 9.7163 9.44434C9.80857 9.31718 9.92517 9.2771 10.0728 9.25439Z" fill="black"/>
<path d="M35.5581 20.4583C35.6661 20.4581 35.7661 20.4783 35.8574 20.5386C35.8702 20.547 35.8825 20.5561 35.8943 20.5657C35.9062 20.5754 35.9175 20.5856 35.9283 20.5964C35.9391 20.6072 35.9493 20.6185 35.959 20.6303C35.9687 20.6421 35.9777 20.6544 35.9861 20.6671C35.9946 20.6799 36.0024 20.693 36.0094 20.7065C36.0166 20.72 36.023 20.7339 36.0287 20.748C36.0344 20.7622 36.0394 20.7766 36.0436 20.7913C36.0479 20.806 36.0514 20.8208 36.0541 20.8358C36.057 20.8508 36.0591 20.8659 36.0604 20.8811C36.0618 20.8963 36.0624 20.9116 36.0623 20.9268C36.0621 20.9421 36.0613 20.9573 36.0596 20.9725C36.058 20.9877 36.0556 21.0027 36.0525 21.0177C36.0494 21.0326 36.0456 21.0474 36.041 21.062C36.0364 21.0765 36.0312 21.0908 36.0252 21.1049C36.0192 21.119 36.0126 21.1327 36.0053 21.1461C35.998 21.1595 35.99 21.1725 35.9814 21.1851C35.8984 21.3054 35.7813 21.3638 35.6409 21.3887C35.5421 21.3923 35.4442 21.3709 35.3589 21.3204C35.3457 21.3127 35.3328 21.3043 35.3204 21.2953C35.3079 21.2862 35.296 21.2765 35.2846 21.2662C35.2731 21.2559 35.2622 21.2451 35.2519 21.2337C35.2416 21.2223 35.2319 21.2104 35.2228 21.1979C35.2137 21.1855 35.2053 21.1727 35.1975 21.1594C35.1897 21.1461 35.1826 21.1325 35.1763 21.1185C35.1699 21.1045 35.1643 21.0902 35.1594 21.0756C35.1545 21.061 35.1503 21.0463 35.1469 21.0313C35.1179 20.9027 35.1491 20.7583 35.2243 20.6506C35.3087 20.5297 35.4168 20.4816 35.5581 20.4583Z" fill="black"/>
<path d="M18.7132 13.6924C18.8042 13.7002 18.8888 13.7128 18.9692 13.7596C18.9822 13.7671 18.9949 13.7752 19.0072 13.784C19.0194 13.7927 19.0312 13.8021 19.0425 13.812C19.0538 13.822 19.0646 13.8325 19.0749 13.8435C19.0852 13.8545 19.0949 13.8661 19.104 13.8781C19.1131 13.8901 19.1216 13.9025 19.1295 13.9154C19.1373 13.9282 19.1445 13.9414 19.151 13.955C19.1576 13.9686 19.1634 13.9825 19.1686 13.9966C19.1738 14.0108 19.1782 14.0252 19.1819 14.0398C19.214 14.165 19.1855 14.302 19.1151 14.4093C19.0341 14.533 18.9224 14.5945 18.7811 14.6257C18.6772 14.6256 18.5905 14.6149 18.4997 14.5609C18.4856 14.5526 18.472 14.5436 18.4588 14.5339C18.4456 14.5241 18.433 14.5138 18.4209 14.5028C18.4088 14.4918 18.3973 14.4802 18.3864 14.468C18.3755 14.4558 18.3653 14.443 18.3557 14.4298C18.3461 14.4165 18.3373 14.4028 18.3291 14.3887C18.321 14.3745 18.3136 14.3599 18.3069 14.345C18.3003 14.33 18.2944 14.3148 18.2894 14.2992C18.2843 14.2837 18.28 14.2679 18.2766 14.2519C18.2733 14.236 18.2708 14.22 18.2691 14.2038C18.2674 14.1877 18.2666 14.1715 18.2666 14.1552C18.2666 14.139 18.2675 14.1228 18.2692 14.1067C18.271 14.0905 18.2735 14.0745 18.2769 14.0586C18.2803 14.0427 18.2845 14.0271 18.2895 14.0116C18.2946 13.9962 18.3004 13.981 18.307 13.9662C18.3137 13.9514 18.321 13.9369 18.3292 13.9229C18.3373 13.9088 18.3461 13.8952 18.3557 13.8821C18.4489 13.7539 18.5641 13.7139 18.7132 13.6924Z" fill="black"/>
<path d="M25.1351 17.3169C25.2436 17.3252 25.3403 17.3451 25.4299 17.4105C25.4423 17.4194 25.4543 17.4289 25.4657 17.4391C25.4772 17.4492 25.4881 17.4599 25.4985 17.4711C25.5088 17.4824 25.5186 17.4942 25.5277 17.5065C25.5369 17.5187 25.5454 17.5314 25.5532 17.5446C25.5611 17.5577 25.5682 17.5712 25.5747 17.5851C25.5811 17.599 25.5869 17.6131 25.5919 17.6276C25.5969 17.642 25.6011 17.6567 25.6046 17.6716C25.6081 17.6865 25.6108 17.7015 25.6128 17.7167C25.6295 17.8465 25.5871 17.9906 25.507 18.0933C25.428 18.1946 25.3304 18.2403 25.2056 18.2531C25.1284 18.2521 25.0517 18.2447 24.9747 18.2381C24.8351 18.1385 24.7296 18.0361 24.699 17.8578C24.6779 17.7346 24.7038 17.6077 24.7776 17.5062C24.8691 17.3803 24.989 17.3397 25.1351 17.3169Z" fill="black"/>
<path d="M29.1944 11.1469C29.5362 11.1166 29.8723 11.196 30.1549 11.3933C30.174 11.4067 30.1928 11.4205 30.2112 11.4348C30.2297 11.4491 30.2477 11.4638 30.2654 11.479C30.2831 11.4942 30.3004 11.5098 30.3173 11.5258C30.3343 11.5419 30.3508 11.5584 30.3668 11.5752C30.3829 11.5921 30.3986 11.6094 30.4138 11.6271C30.429 11.6447 30.4438 11.6628 30.4581 11.6812C30.4724 11.6996 30.4863 11.7183 30.4997 11.7374C30.513 11.7565 30.5259 11.7759 30.5383 11.7957C30.5508 11.8154 30.5627 11.8355 30.5741 11.8558C30.5855 11.8761 30.5963 11.8967 30.6067 11.9176C30.6171 11.9385 30.627 11.9596 30.6363 11.981C30.6456 12.0024 30.6544 12.024 30.6626 12.0458C30.6708 12.0676 30.6785 12.0896 30.6857 12.1118C30.6928 12.134 30.6994 12.1564 30.7054 12.1789C30.7114 12.2014 30.7168 12.2241 30.7217 12.2469C30.7266 12.2697 30.7309 12.2926 30.7347 12.3156C30.7978 12.6904 30.717 13.0578 30.4936 13.3666C30.2505 13.7026 29.9078 13.8853 29.5039 13.948C29.4631 13.9524 29.4221 13.955 29.3811 13.9557C29.34 13.9565 29.299 13.9555 29.258 13.9527C29.2171 13.9499 29.1763 13.9453 29.1357 13.9389C29.0951 13.9325 29.0549 13.9244 29.0151 13.9145C28.9752 13.9046 28.9359 13.893 28.897 13.8797C28.8582 13.8663 28.82 13.8513 28.7825 13.8346C28.745 13.818 28.7083 13.7997 28.6723 13.7798C28.6364 13.7599 28.6014 13.7385 28.5673 13.7155C28.5482 13.7026 28.5294 13.6892 28.511 13.6753C28.4925 13.6614 28.4744 13.6471 28.4567 13.6323C28.4389 13.6175 28.4215 13.6023 28.4045 13.5867C28.3875 13.5711 28.3709 13.555 28.3547 13.5385C28.3385 13.5221 28.3227 13.5052 28.3073 13.488C28.292 13.4707 28.2771 13.4531 28.2626 13.4351C28.2481 13.4172 28.2341 13.3988 28.2205 13.3801C28.2069 13.3615 28.1938 13.3425 28.1812 13.3231C28.1685 13.3038 28.1564 13.2841 28.1447 13.2642C28.1331 13.2443 28.1219 13.2241 28.1112 13.2036C28.1006 13.1831 28.0905 13.1623 28.0808 13.1413C28.0712 13.1204 28.0621 13.0991 28.0535 13.0777C28.045 13.0562 28.0369 13.0346 28.0294 13.0128C28.0219 12.9909 28.015 12.9689 28.0085 12.9467C28.0021 12.9245 27.9963 12.9022 27.991 12.8797C27.9857 12.8572 27.981 12.8346 27.9768 12.8119C27.9097 12.4385 27.982 12.0571 28.1999 11.7446C28.4478 11.3892 28.7772 11.2232 29.1944 11.1469Z" fill="black"/>
<path d="M29.3326 12.0842C29.4277 12.0845 29.5142 12.0967 29.598 12.1451C29.7037 12.2062 29.7777 12.3143 29.8071 12.4318C29.8111 12.4474 29.8143 12.4633 29.8167 12.4793C29.819 12.4953 29.8205 12.5113 29.8212 12.5275C29.8218 12.5437 29.8216 12.5598 29.8205 12.5759C29.8195 12.5921 29.8176 12.6081 29.8149 12.6241C29.8122 12.64 29.8086 12.6557 29.8042 12.6713C29.7998 12.6869 29.7946 12.7022 29.7885 12.7172C29.7825 12.7322 29.7758 12.7468 29.7682 12.7611C29.7607 12.7754 29.7524 12.7893 29.7434 12.8027C29.6571 12.9318 29.5422 12.9843 29.3942 13.0118C29.2752 13.0188 29.1526 12.9878 29.0594 12.9109C28.9626 12.831 28.9053 12.7122 28.8937 12.5881C28.8823 12.4649 28.9168 12.3417 28.9968 12.2463C29.0881 12.1374 29.1954 12.0987 29.3326 12.0842Z" fill="#EFEEFE"/>
<path d="M12.2958 12.5514C12.3364 12.5477 12.3772 12.5458 12.4181 12.5457C12.4589 12.5455 12.4997 12.5471 12.5404 12.5505C12.5811 12.5538 12.6216 12.5589 12.6619 12.5657C12.7022 12.5726 12.7421 12.5811 12.7816 12.5914C12.8211 12.6017 12.8602 12.6136 12.8987 12.6273C12.9372 12.6409 12.975 12.6561 13.0122 12.673C13.0494 12.6899 13.0858 12.7084 13.1214 12.7284C13.157 12.7484 13.1917 12.77 13.2255 12.793C13.2447 12.8062 13.2636 12.8199 13.2821 12.834C13.3006 12.8482 13.3188 12.8628 13.3366 12.8779C13.3544 12.8929 13.3718 12.9084 13.3889 12.9244C13.4059 12.9403 13.4225 12.9567 13.4387 12.9734C13.4549 12.9902 13.4707 13.0074 13.4861 13.0249C13.5014 13.0425 13.5164 13.0604 13.5308 13.0787C13.5453 13.097 13.5593 13.1156 13.5728 13.1346C13.5863 13.1536 13.5994 13.173 13.612 13.1926C13.6245 13.2123 13.6366 13.2322 13.6482 13.2525C13.6597 13.2727 13.6708 13.2932 13.6813 13.314C13.6919 13.3349 13.7019 13.3559 13.7114 13.3772C13.7209 13.3985 13.7298 13.42 13.7383 13.4418C13.7467 13.4635 13.7546 13.4855 13.7619 13.5076C13.7692 13.5298 13.776 13.5521 13.7822 13.5746C13.7884 13.5971 13.794 13.6197 13.7991 13.6424C13.8042 13.6652 13.8087 13.6881 13.8127 13.7111C13.878 14.0833 13.8026 14.4478 13.584 14.7574C13.3438 15.0976 12.997 15.2884 12.5913 15.3572C12.2349 15.3854 11.9019 15.3034 11.6089 15.0942C11.5907 15.0811 11.5728 15.0675 11.5553 15.0536C11.5378 15.0396 11.5206 15.0251 11.5038 15.0103C11.487 14.9955 11.4705 14.9803 11.4544 14.9647C11.4383 14.9491 11.4226 14.9331 11.4073 14.9167C11.392 14.9003 11.3771 14.8836 11.3626 14.8664C11.3481 14.8494 11.3341 14.8319 11.3204 14.8141C11.3068 14.7963 11.2936 14.7782 11.2808 14.7598C11.2681 14.7413 11.2558 14.7226 11.2439 14.7036C11.2321 14.6845 11.2207 14.6652 11.2098 14.6456C11.1989 14.626 11.1884 14.6062 11.1785 14.5861C11.1685 14.566 11.1591 14.5457 11.1501 14.5251C11.1412 14.5046 11.1327 14.4838 11.1248 14.4629C11.1168 14.4419 11.1094 14.4208 11.1025 14.3994C11.0955 14.3781 11.0891 14.3566 11.0833 14.335C11.0774 14.3134 11.0721 14.2916 11.0672 14.2697C11.0624 14.2478 11.0581 14.2258 11.0544 14.2037C10.9898 13.8176 11.0691 13.4422 11.2992 13.1234C11.5472 12.7799 11.8853 12.6168 12.2958 12.5514Z" fill="black"/>
<path d="M12.3978 13.4872C12.4941 13.4817 12.593 13.5023 12.6762 13.5522C12.6895 13.5603 12.7023 13.569 12.7147 13.5783C12.7271 13.5877 12.739 13.5976 12.7504 13.6081C12.7618 13.6186 12.7727 13.6296 12.783 13.6412C12.7934 13.6528 12.8031 13.6648 12.8122 13.6774C12.8214 13.6899 12.8299 13.7028 12.8377 13.7162C12.8456 13.7296 12.8528 13.7433 12.8593 13.7574C12.8658 13.7715 12.8717 13.7858 12.8768 13.8005C12.8819 13.8151 12.8862 13.83 12.8899 13.8451C12.8937 13.8606 12.8966 13.8764 12.8988 13.8923C12.901 13.9082 12.9023 13.9241 12.9028 13.9401C12.9033 13.9562 12.9029 13.9722 12.9017 13.9882C12.9006 14.0042 12.8986 14.0201 12.8957 14.0358C12.8929 14.0516 12.8893 14.0672 12.8848 14.0826C12.8804 14.098 12.8751 14.1131 12.8691 14.128C12.863 14.1429 12.8563 14.1574 12.8487 14.1715C12.8412 14.1857 12.8329 14.1994 12.8239 14.2127C12.7442 14.333 12.6313 14.3893 12.4929 14.4138C12.3766 14.4192 12.2726 14.4057 12.1736 14.34C12.0695 14.2708 12.001 14.1611 11.9769 14.0391C11.9738 14.0241 11.9716 14.009 11.97 13.9937C11.9685 13.9785 11.9678 13.9632 11.9678 13.9479C11.9678 13.9326 11.9686 13.9173 11.9701 13.9021C11.9717 13.8868 11.974 13.8717 11.9771 13.8567C11.9802 13.8417 11.9841 13.8269 11.9886 13.8123C11.9932 13.7977 11.9985 13.7833 12.0046 13.7693C12.0106 13.7552 12.0173 13.7415 12.0247 13.7281C12.0322 13.7147 12.0402 13.7017 12.049 13.6891C12.1355 13.5644 12.255 13.5153 12.3978 13.4872Z" fill="#EFEEFE"/>
<path d="M35.7957 12.8187C36.2815 12.7918 36.7456 12.9637 37.1108 13.2831C37.4975 13.6212 37.711 14.107 37.7421 14.6152C37.7717 15.1011 37.5843 15.5761 37.2644 15.9373C37.244 15.9604 37.2231 15.9829 37.2017 16.0049C37.1802 16.0268 37.1582 16.0483 37.1357 16.0692C37.1132 16.0901 37.0901 16.1104 37.0666 16.1301C37.0431 16.1499 37.019 16.169 36.9945 16.1876C36.97 16.2061 36.9451 16.224 36.9197 16.2413C36.8943 16.2586 36.8685 16.2753 36.8423 16.2913C36.8161 16.3073 36.7895 16.3227 36.7625 16.3373C36.7355 16.352 36.7082 16.366 36.6805 16.3793C36.6528 16.3927 36.6248 16.4053 36.5965 16.4172C36.5682 16.4291 36.5396 16.4403 36.5107 16.4508C36.4818 16.4613 36.4527 16.4711 36.4234 16.4801C36.394 16.4891 36.3644 16.4974 36.3347 16.505C36.3049 16.5126 36.2749 16.5194 36.2448 16.5254C36.2147 16.5315 36.1844 16.5368 36.154 16.5414C36.1237 16.5459 36.0932 16.5497 36.0626 16.5528C36.032 16.5558 36.0014 16.5581 35.9707 16.5596C35.4611 16.5665 35.0445 16.4455 34.6502 16.1099C34.6268 16.09 34.604 16.0695 34.5817 16.0484C34.5593 16.0274 34.5376 16.0057 34.5163 15.9836C34.4951 15.9614 34.4744 15.9387 34.4543 15.9155C34.4342 15.8923 34.4146 15.8687 34.3957 15.8445C34.3768 15.8203 34.3585 15.7957 34.3408 15.7706C34.3231 15.7456 34.306 15.72 34.2896 15.6941C34.2732 15.6682 34.2574 15.6418 34.2423 15.6151C34.2272 15.5884 34.2127 15.5613 34.199 15.5339C34.1852 15.5064 34.1722 15.4787 34.1598 15.4506C34.1474 15.4225 34.1357 15.3941 34.1248 15.3654C34.1138 15.3368 34.1035 15.3078 34.094 15.2786C34.0845 15.2495 34.0757 15.2201 34.0677 15.1904C34.0596 15.1608 34.0523 15.131 34.0458 15.101C34.0392 15.071 34.0334 15.0409 34.0284 15.0106C34.0233 14.9803 34.019 14.9499 34.0154 14.9194C34.0119 14.8889 34.0091 14.8584 34.0071 14.8278C33.9685 14.3083 34.1284 13.8331 34.47 13.4402C34.8188 13.0391 35.2763 12.8544 35.7957 12.8187Z" fill="black"/>
<path d="M35.8391 13.757C35.8445 13.7564 35.8499 13.7555 35.8554 13.7552C36.0732 13.742 36.3061 13.8316 36.472 13.9684C36.6605 14.1238 36.7756 14.3552 36.7989 14.5969C36.8022 14.6273 36.8039 14.6578 36.8041 14.6883C36.8042 14.7189 36.8029 14.7494 36.8001 14.7798C36.7972 14.8103 36.7929 14.8405 36.7871 14.8705C36.7812 14.9005 36.7739 14.9301 36.7651 14.9593C36.7563 14.9886 36.7461 15.0174 36.7344 15.0457C36.7228 15.0739 36.7098 15.1015 36.6954 15.1285C36.6811 15.1554 36.6654 15.1816 36.6484 15.207C36.6314 15.2324 36.6132 15.2569 36.5938 15.2805C36.4165 15.493 36.1808 15.5953 35.9102 15.618C35.7049 15.6391 35.4601 15.551 35.3014 15.4275C35.2768 15.4084 35.2533 15.3882 35.2308 15.3667C35.2084 15.3453 35.187 15.3227 35.1669 15.299C35.1467 15.2754 35.1277 15.2508 35.1101 15.2252C35.0924 15.1996 35.0761 15.1732 35.0611 15.146C35.0462 15.1188 35.0326 15.0908 35.0205 15.0622C35.0084 15.0336 34.9977 15.0044 34.9886 14.9747C34.9794 14.945 34.9718 14.9149 34.9658 14.8844C34.9597 14.8539 34.9552 14.8232 34.9522 14.7923C34.9256 14.5392 34.9881 14.2904 35.1525 14.0921C35.3296 13.8785 35.568 13.7779 35.8391 13.757Z" fill="#EFEEFE"/>
<path d="M11.1243 19.1939C11.6087 19.169 12.058 19.334 12.4263 19.648C12.8102 19.9753 13.0267 20.4538 13.0646 20.9519C13.1026 21.4509 12.9261 21.9289 12.5989 22.3034C12.5787 22.3265 12.558 22.3492 12.5367 22.3713C12.5154 22.3934 12.4935 22.415 12.4712 22.436C12.4488 22.4571 12.4259 22.4776 12.4025 22.4975C12.3791 22.5174 12.3552 22.5367 12.3309 22.5554C12.3065 22.5741 12.2817 22.5922 12.2564 22.6097C12.2312 22.6271 12.2055 22.644 12.1794 22.6602C12.1533 22.6764 12.1268 22.6919 12.0999 22.7068C12.0731 22.7217 12.0458 22.7359 12.0182 22.7494C11.9907 22.7629 11.9628 22.7757 11.9345 22.7878C11.9063 22.7999 11.8778 22.8113 11.849 22.822C11.8202 22.8328 11.7912 22.8427 11.7619 22.852C11.7326 22.8612 11.7031 22.8698 11.6734 22.8775C11.6437 22.8853 11.6138 22.8924 11.5837 22.8987C11.5537 22.905 11.5235 22.9105 11.4931 22.9152C11.4628 22.92 11.4323 22.9241 11.4018 22.9274C11.3713 22.9306 11.3406 22.9331 11.31 22.9349C10.7909 22.9396 10.363 22.8214 9.96202 22.4755C9.93897 22.4553 9.91644 22.4345 9.89443 22.4131C9.87241 22.3917 9.85093 22.3698 9.83 22.3474C9.80906 22.3249 9.78869 22.302 9.76888 22.2786C9.74907 22.2552 9.72986 22.2312 9.71123 22.2069C9.6926 22.1825 9.67458 22.1577 9.65718 22.1324C9.63977 22.1071 9.623 22.0814 9.60686 22.0553C9.59073 22.0292 9.57524 22.0027 9.56041 21.9759C9.54558 21.949 9.53142 21.9218 9.51793 21.8942C9.50444 21.8667 9.49164 21.8388 9.47952 21.8106C9.4674 21.7824 9.45599 21.7539 9.44528 21.7252C9.43457 21.6964 9.42457 21.6674 9.41529 21.6382C9.40601 21.6089 9.39745 21.5795 9.38962 21.5498C9.38179 21.5201 9.3747 21.4903 9.36834 21.4603C9.36198 21.4303 9.35637 21.4001 9.3515 21.3698C9.34662 21.3395 9.3425 21.3091 9.33913 21.2786C9.33576 21.2481 9.33314 21.2175 9.33128 21.1869C9.29628 20.6758 9.4611 20.1984 9.79808 19.8129C10.1479 19.4127 10.6047 19.2294 11.1243 19.1939Z" fill="black"/>
<path d="M11.179 20.1314C11.3763 20.1153 11.6049 20.1966 11.7606 20.3141C11.7861 20.3337 11.8106 20.3546 11.8341 20.3767C11.8575 20.3989 11.8798 20.4222 11.9009 20.4466C11.922 20.4709 11.9418 20.4963 11.9603 20.5227C11.9789 20.5491 11.996 20.5764 12.0118 20.6045C12.0276 20.6326 12.0419 20.6615 12.0548 20.691C12.0676 20.7206 12.079 20.7507 12.0888 20.7814C12.0986 20.8121 12.1069 20.8433 12.1135 20.8748C12.1202 20.9064 12.1253 20.9382 12.1287 20.9702C12.1568 21.2132 12.0737 21.4651 11.9198 21.6531C11.7425 21.8696 11.5042 21.9699 11.2309 21.9935C11.016 22.0122 10.7661 21.9183 10.6041 21.7836C10.58 21.7633 10.557 21.7419 10.535 21.7193C10.5131 21.6967 10.4924 21.6731 10.4728 21.6484C10.4533 21.6237 10.435 21.5981 10.418 21.5716C10.401 21.5451 10.3854 21.5178 10.3712 21.4897C10.3569 21.4617 10.3441 21.4329 10.3328 21.4036C10.3214 21.3742 10.3116 21.3443 10.3032 21.3139C10.2949 21.2836 10.2881 21.2529 10.2828 21.2218C10.2776 21.1908 10.2739 21.1595 10.2718 21.1281C10.2692 21.0979 10.2682 21.0676 10.2687 21.0372C10.2691 21.0068 10.2711 20.9766 10.2746 20.9464C10.2781 20.9163 10.2831 20.8863 10.2896 20.8567C10.296 20.827 10.304 20.7977 10.3133 20.7689C10.3227 20.74 10.3335 20.7117 10.3457 20.6839C10.3579 20.656 10.3715 20.6289 10.3864 20.6025C10.4013 20.576 10.4175 20.5504 10.435 20.5256C10.4524 20.5007 10.4711 20.4768 10.4909 20.4538C10.6734 20.2427 10.9057 20.1522 11.179 20.1314Z" fill="#EFEEFE"/>
<path d="M21.7563 8H22.3668C22.5109 8.05574 22.6603 8.08548 22.8022 8.15165C23.2741 8.37163 23.6436 8.73298 23.8214 9.22818C23.9888 9.69431 23.9831 10.2079 23.7689 10.6577C23.5481 11.1214 23.1329 11.4986 22.6453 11.6657C22.2277 11.8088 21.6878 11.7794 21.2916 11.5839C20.8285 11.3555 20.4606 10.982 20.2933 10.487C20.1359 10.0215 20.1616 9.48575 20.3841 9.0461C20.6958 8.42985 21.1261 8.20507 21.7563 8Z" fill="black"/>
<path d="M22.0427 8.94462C22.2511 8.92467 22.4959 9.01648 22.6543 9.14551C22.6785 9.16545 22.7017 9.18654 22.7239 9.2088C22.746 9.23105 22.767 9.25435 22.7868 9.27869C22.8066 9.30304 22.8252 9.32831 22.8425 9.3545C22.8598 9.3807 22.8758 9.40769 22.8904 9.43548C22.905 9.46327 22.9182 9.49171 22.9299 9.52082C22.9417 9.54992 22.952 9.57954 22.9608 9.60967C22.9697 9.6398 22.9769 9.6703 22.9827 9.70115C22.9885 9.73201 22.9927 9.76308 22.9954 9.79436C22.9982 9.82428 22.9995 9.85427 22.9993 9.88432C22.9992 9.91436 22.9976 9.94433 22.9945 9.97422C22.9914 10.0041 22.9869 10.0338 22.9809 10.0632C22.975 10.0927 22.9676 10.1218 22.9588 10.1505C22.95 10.1792 22.9398 10.2075 22.9282 10.2352C22.9166 10.2629 22.9037 10.29 22.8895 10.3165C22.8753 10.343 22.8598 10.3687 22.8431 10.3937C22.8264 10.4186 22.8085 10.4427 22.7894 10.4659C22.6103 10.6822 22.3774 10.7816 22.1021 10.8062C21.8806 10.8184 21.6469 10.7397 21.4767 10.5992C21.2821 10.4386 21.1662 10.2101 21.1434 9.95978C21.1205 9.70907 21.1906 9.46303 21.3556 9.27074C21.5374 9.0589 21.7689 8.96457 22.0427 8.94462Z" fill="#EFEEFE"/>
</g>
</g>
</g>
<defs>
<clipPath id="clip0_3016_2228">
<rect width="48" height="48" rx="24" fill="white"/>
</clipPath>
<clipPath id="clip1_3016_2228">
<rect width="48" height="48" fill="white"/>
</clipPath>
<clipPath id="clip2_3016_2228">
<rect width="32" height="32" fill="white" transform="translate(8 8)"/>
</clipPath>
</defs>
</svg>
