<svg xmlns="http://www.w3.org/2000/svg" width="48" height="48"><defs><linearGradient id="a"><stop stop-color="#fff"/></linearGradient></defs><path d="M48 24c0 13.254-10.746 24-24 24S0 37.254 0 24 10.746 0 24 0s24 10.746 24 24zM23.918 5.117c-4.902 0-8.879 3.977-8.879 8.883v5.758a8.878 8.878 0 0 0 8.879 8.879c.687 0 1.36-.078 2.004-.227.383-.086.492-.562.207-.84l-.05-.043-5.114-4.886a4.225 4.225 0 0 1-1.285-3.043V14.16a4.24 4.24 0 1 1 8.48 0V16c0 .352.285.64.637.64h3.363a.64.64 0 0 0 .637-.64v-2c0-4.906-3.973-8.883-8.879-8.883zm8.883 28.403a8.878 8.878 0 0 1-8.88 8.878c-4.905 0-8.882-3.972-8.882-8.878v-2c0-.352.29-.641.64-.641h3.36c.356 0 .64.289.64.64v1.84a4.241 4.241 0 1 0 8.481 0v-5.437a4.225 4.225 0 0 0-1.285-3.043l-5.117-4.887-.047-.047c-.29-.273-.18-.75.207-.84a8.902 8.902 0 0 1 2.004-.226c4.902 0 8.879 3.976 8.879 8.883zm0 0" fill-rule="evenodd" fill="url(#a)"/></svg>