<svg width="48" height="48" viewBox="0 0 48 48" fill="none" xmlns="http://www.w3.org/2000/svg">
<g clip-path="url(#clip0_3192_644)">
<circle cx="24" cy="24" r="24" fill="black"/>
<path d="M36.526 25.7205C36.8629 25.384 37.2964 24.951 37.727 24.5215C38.6873 23.5628 38.6878 22.008 37.7275 21.0488L36.7102 20.0328C33.068 23.6706 27.6177 24.4015 23.2483 22.226C26.2014 22.7714 29.2619 22.3465 31.9739 20.8903C33.7881 19.9159 34.1326 17.4583 32.6761 16.0036L26.6706 10.0053C25.3287 8.66491 23.1531 8.66491 21.8117 10.0053L15.3385 16.4707C19.6015 14.6617 24.7226 15.5004 28.1897 18.9872C22.9002 16.4229 16.3476 17.3327 11.9558 21.7188C11.6189 22.0553 11.1848 22.4888 10.7543 22.9188C9.79453 23.878 9.79504 25.4318 10.7543 26.3904L11.7711 27.406C15.4133 23.7682 20.8636 23.0373 25.233 25.2127C22.2799 24.6673 19.2193 25.0923 16.5074 26.5485C14.6932 27.5229 14.3487 29.9805 15.8051 31.4352L21.8106 37.4335C23.1526 38.7739 25.3282 38.7739 26.6696 37.4335L33.1428 30.9681C28.8798 32.7771 23.7587 31.9384 20.2911 28.4516C25.5806 31.0159 32.1331 30.106 36.5249 25.72L36.526 25.7205Z" fill="#F6F6EC"/>
</g>
<defs>
<clipPath id="clip0_3192_644">
<rect width="48" height="48" rx="24" fill="white"/>
</clipPath>
</defs>
</svg>