<svg xmlns="http://www.w3.org/2000/svg" xmlns:xlink="http://www.w3.org/1999/xlink" width="48px" height="48px" viewBox="0 0 48 48" version="1.1">
<defs>
<linearGradient id="linear0" gradientUnits="userSpaceOnUse" x1="88.131401" y1="115.466003" x2="-6.66256" y2="-113.561996">
<stop offset="0" style="stop-color:rgb(84.313725%,100%,36.862745%);stop-opacity:1;"/>
<stop offset="1" style="stop-color:rgb(93.72549%,57.647059%,39.607843%);stop-opacity:1;"/>
</linearGradient>
<linearGradient id="linear1" gradientUnits="userSpaceOnUse" x1="44.514301" y1="-0.0000921761" x2="111.738998" y2="161.703995" gradientTransform="matrix(0.372093,0,0,0.372093,0,0)">
<stop offset="0" style="stop-color:rgb(84.313725%,100%,36.862745%);stop-opacity:1;"/>
<stop offset="0.1832" style="stop-color:rgb(93.72549%,57.647059%,39.607843%);stop-opacity:1;"/>
<stop offset="0.628" style="stop-color:rgb(38.039216%,23.921569%,57.647059%);stop-opacity:1;"/>
<stop offset="1" style="stop-color:rgb(14.509804%,7.843137%,23.137255%);stop-opacity:1;"/>
</linearGradient>
</defs>
<g id="surface1">
<path style="fill-rule:nonzero;fill:rgb(84.313726%,100%,36.862746%);fill-opacity:1;stroke-width:5.43396;stroke-linecap:butt;stroke-linejoin:miter;stroke:url(#linear0);stroke-miterlimit:4;" d="M 118.879883 64.5 C 118.879883 94.534912 94.534912 118.879883 64.5 118.879883 C 34.465088 118.879883 10.120117 94.534912 10.120117 64.5 C 10.120117 34.465088 34.465088 10.120117 64.5 10.120117 C 94.534912 10.120117 118.879883 34.465088 118.879883 64.5 Z M 118.879883 64.5 " transform="matrix(0.372093,0,0,0.372093,0,0)"/>
<path style=" stroke:none;fill-rule:evenodd;fill:url(#linear1);" d="M 48 24 C 48 37.253906 37.253906 48 24 48 C 10.746094 48 0 37.253906 0 24 C 0 10.746094 10.746094 0 24 0 C 37.253906 0 48 10.746094 48 24 Z M 24 45.246094 C 35.734375 45.246094 45.246094 35.734375 45.246094 24 C 45.246094 12.265625 35.734375 2.753906 24 2.753906 C 12.265625 2.753906 2.753906 12.265625 2.753906 24 C 2.753906 35.734375 12.265625 45.246094 24 45.246094 Z M 24 45.246094 "/>
<path style=" stroke:none;fill-rule:evenodd;fill:rgb(14.509805%,7.843138%,23.137255%);fill-opacity:1;" d="M 17.3125 11.921875 C 20.285156 11.921875 22.691406 14.164062 22.691406 16.925781 L 22.691406 28.914062 C 22.378906 28.945312 22.078125 28.953125 21.796875 28.941406 L 21.796875 29.226562 L 17.3125 29.226562 L 17.3125 25.054688 L 17.320312 25.054688 C 17.480469 27.375 19.40625 29.210938 21.761719 29.226562 L 21.796875 29.226562 L 21.796875 28.941406 C 18.496094 28.808594 17.3125 25.933594 17.3125 23.25 Z M 17.3125 29.226562 C 17.3125 31.992188 19.550781 34.234375 22.316406 34.234375 L 33.007812 34.234375 C 33.007812 31.46875 30.769531 29.226562 28.003906 29.226562 Z M 17.3125 29.226562 "/>
</g>
</svg>