<svg xmlns="http://www.w3.org/2000/svg" width="48" height="48" fill="none" viewBox="0 0 446 446">
  <path fill="#a166ff" d="M223.002.405A222.607 222.607 0 0 0 99.335 37.92a222.563 222.563 0 0 0-81.983 99.898 222.562 222.562 0 0 0-12.667 128.61 222.57 222.57 0 0 0 60.918 113.97 222.571 222.571 0 0 0 113.97 60.92 222.618 222.618 0 0 0 128.61-12.665 222.603 222.603 0 0 0 137.41-205.651 222.646 222.646 0 0 0-65.215-157.38A222.65 222.65 0 0 0 223.002.406Z"/>
  <path fill="#fff" d="M214.96 329.392c-.065.719-.48 1.69-1.703 2.49-12.21 8.014-26.208 12.908-40.827 13.053-25.72-.04-49.258-14.001-67.085-39.751-16.033-24.616-24.9-52.557-25.623-81.927 0-1.184.152-1.57.358-1.952.263-.488.826-.917 1.472-1.224l17.022-7.587c.42-.188.87-.311 1.332-.314.606-.004 1.12.155 1.657.447.69.376 1.436 1.423 1.44 2.137.054 29.193 7.764 56.827 21.69 77.224 13.166 19.318 30.315 29.709 48.181 29.738a48.494 48.494 0 0 0 24.56-6.591 53.932 53.932 0 0 0 2.58-1.577c.292-.195 1.122-.358 1.801-.3.678.058 1.364.506 1.786 1.014a202.654 202.654 0 0 0 10.637 12.767c.643.71.762 1.913.722 2.353zM342.933 305.552c-17.556 25.342-41.519 39.58-67.21 39.54-25.693-.038-49.288-14.35-67.09-39.75-16.748-24.316-25.984-56.501-25.93-90.545.05-31.413 18.303-56.055 41.165-56.018 22.86.036 41.07 24.735 41.018 56.148a162.646 162.646 0 0 1-19.069 78.59c-.155.315-.913 1.279-1.913 1.369-.895.08-1.718-.317-2.097-.718-.072-.076-.155-.17-.28-.303-2.127-2.512-4.286-5-6.06-7.511-2.138-3.094-3.947-6.05-5.69-9.381-.512-.946-.415-1.581.267-3.21 6.378-15.234 11.911-38.7 11.868-59.22-.032-15.357-7.832-32.884-18.195-32.902-10.363-.015-18.246 17.487-18.267 32.845-.047 29.197 7.763 56.827 21.69 77.224 13.195 19.289 30.314 29.68 48.181 29.709 17.867.029 35.051-10.658 48.276-29.557 13.958-20.415 21.884-47.847 21.931-77.16.043-29.311-7.739-56.678-21.689-77.136-3.415-5.158-7.482-9.836-12.027-14.023-.75-.693-1.476-1.422-2.256-2.086a3.293 3.293 0 0 1-.826-1.898c-.062-.704.104-1.466.631-2.043a2.89 2.89 0 0 1 .99-.748l17.473-7.781c.624-.307 1.111-.322 1.65-.192.537.13.826.469 1.266.895a115.114 115.114 0 0 1 12.153 14.615c16.751 24.317 25.984 56.502 25.93 90.546-.05 34.04-9.067 66.439-25.89 90.7z"/>
</svg>