<svg width="48" height="48" viewBox="0 0 48 48" fill="none" xmlns="http://www.w3.org/2000/svg">
    <path
        d="M43.0249 26.5997C43.5466 26.0786 44.2181 25.408 44.8848 24.7428C46.3719 23.2583 46.3727 20.8505 44.8856 19.3651L43.3102 17.7917C37.6699 23.4252 29.2295 24.5571 22.4631 21.1881C27.0363 22.0327 31.7758 21.3747 35.9755 19.1195C38.785 17.6106 39.3186 13.8048 37.0631 11.552L27.7629 2.26305C25.6848 0.18738 22.3157 0.18738 20.2383 2.26305L10.214 12.2754C16.8157 9.474 24.7462 10.7728 30.1153 16.1725C21.924 12.2014 11.7767 13.6104 4.97559 20.4026C4.45388 20.9237 3.78165 21.5951 3.11493 22.261C1.62861 23.7463 1.6294 26.1526 3.11493 27.6371L4.68952 29.2098C10.3298 23.5763 18.7701 22.4444 25.5366 25.8133C20.9634 24.9687 16.2239 25.6268 12.0242 27.8819C9.21467 29.3909 8.68114 33.1967 10.9366 35.4495L20.2368 44.7384C22.3149 46.8141 25.684 46.8141 27.7614 44.7384L37.7857 34.7261C31.184 37.5275 23.2535 36.2287 17.8836 30.829C26.0749 34.8001 36.2222 33.3911 43.0233 26.5989L43.0249 26.5997Z"
        fill="#F6297C" />
</svg>